<svg width="90" height="90" viewBox="0 0 90 90" fill="none" xmlns="http://www.w3.org/2000/svg">
<circle cx="44.54" cy="44.54" r="44.54" fill="#79A9F4" fill-opacity="0.14"/>
<path d="M58.9998 33.4578H54.1475C53.8564 33.4578 53.6621 33.2151 53.6621 32.9724C53.6621 32.7297 53.9048 32.487 54.1475 32.487H58.9998C59.1937 32.487 59.388 32.2931 59.388 32.0988V28.4596C59.388 28.2656 59.1941 28.0713 58.9998 28.0713H54.1475C53.8564 28.0713 53.6621 27.8286 53.6621 27.586C53.6621 27.2949 53.9048 27.1006 54.1475 27.1006H58.9998C59.7762 27.1006 60.3584 27.7315 60.3584 28.4592V32.0985C60.3584 32.8269 59.7762 33.4578 58.9998 33.4578V33.4578Z" fill="#79A9F4" stroke="#79A9F4" stroke-width="0.8"/>
<path d="M63.3184 32.4872H59.8731C59.582 32.4872 59.3877 32.2445 59.3877 32.0018C59.3877 31.7107 59.6304 31.5165 59.8731 31.5165H63.3184C63.7066 31.5165 63.9977 31.2254 63.9977 30.8372V29.6725C63.9977 29.2843 63.7066 28.9932 63.3184 28.9932H59.8731C59.582 28.9932 59.3877 28.7505 59.3877 28.5078C59.3877 28.2651 59.6304 28.0225 59.8731 28.0225H63.3184C64.2404 28.0225 64.9681 28.7502 64.9681 29.6722V30.8368C64.9684 31.7594 64.2404 32.4872 63.3184 32.4872Z" fill="#79A9F4" stroke="#79A9F4" stroke-width="0.8"/>
<path d="M51.8177 32.0504H42.3071C42.21 32.0504 42.1132 32.002 42.016 31.9533L40.1236 30.6918C39.9781 30.5946 39.9297 30.4491 39.9297 30.3035C39.9297 30.158 40.0268 30.0124 40.1236 29.9153L42.016 28.6538C42.1132 28.6054 42.21 28.5566 42.3071 28.5566H51.8662C52.1573 28.5566 52.3516 28.7993 52.3516 29.042C52.3516 29.2847 52.1089 29.5274 51.8662 29.5274L42.4527 29.527L41.2881 30.2551L42.4527 31.0315H51.8662C52.1573 31.0315 52.3516 31.2742 52.3516 31.5169C52.3512 31.7592 52.1086 32.0503 51.8175 32.0503L51.8177 32.0504Z" fill="#79A9F4" stroke="#79A9F4" stroke-width="0.8"/>
<path d="M52.9827 34.8164C52.0607 34.8164 51.333 34.0887 51.333 33.1667V27.3924C51.333 26.4704 52.0607 25.7427 52.9827 25.7427C53.2738 25.7427 53.4681 25.9854 53.4681 26.228C53.4681 26.4707 53.2254 26.7134 52.9827 26.7134C52.5945 26.7134 52.3034 27.0045 52.3034 27.3927V33.1671C52.3034 33.5553 52.5945 33.8464 52.9827 33.8464C53.2738 33.8464 53.4681 34.0891 53.4681 34.3317C53.4677 34.5738 53.2738 34.8164 52.9827 34.8164V34.8164Z" fill="#79A9F4" stroke="#79A9F4" stroke-width="0.8"/>
<path d="M56.8645 51.8963C56.6705 51.8963 56.4763 51.7992 56.4279 51.6052C56.3307 51.3626 56.4279 51.0715 56.6705 50.9743C59.4365 49.7613 61.5713 47.1895 62.1537 44.2296C62.3964 43.1621 62.3477 42.2401 62.1537 41.4153C61.911 40.4933 61.3289 39.7168 60.5525 39.329C59.776 38.9407 58.8056 38.9891 58.1748 39.4745C57.5438 39.9599 57.2527 40.8815 57.447 41.7068C57.641 42.4832 58.2235 43.2597 59.0483 43.6963C59.5337 43.9874 60.1158 44.1329 60.7468 44.2301C61.0379 44.2785 61.1834 44.5211 61.1834 44.7638C61.135 45.0549 60.8923 45.2005 60.6496 45.2005C59.8732 45.1033 59.1939 44.8606 58.6117 44.5696C57.5442 43.9874 56.7677 43.0166 56.5254 41.9495C56.2343 40.7364 56.6709 39.4262 57.5929 38.6984C58.5149 37.9707 59.9219 37.8736 61.0382 38.4557C62.0085 38.9895 62.785 39.9599 63.1245 41.1246C63.4156 42.095 63.4156 43.2109 63.1729 44.424C62.4936 47.675 60.1645 50.5378 57.1075 51.848C56.9613 51.8964 56.9129 51.8964 56.8645 51.8964L56.8645 51.8963Z" fill="#79A9F4" stroke="#79A9F4" stroke-width="0.8"/>
<path d="M62.5414 45.2C62.2987 45.2 62.056 45.0061 62.056 44.7634C62.0076 44.4723 62.25 44.2296 62.4927 44.2296C65.4042 43.9385 68.0243 41.9006 69.0435 39.1346C69.8199 37.0483 69.4317 34.4762 67.976 32.3415C67.2966 31.3711 66.1807 30.7886 65.016 30.7886H64.5307C64.2396 30.7886 64.0453 30.5459 64.0453 30.3032C64.0453 30.0606 64.288 29.8179 64.5307 29.8179H65.016C66.569 29.8179 67.9759 30.5456 68.8008 31.8074C70.4505 34.2336 70.8872 37.0963 70.0139 39.4741C68.8493 42.6279 65.9381 44.9086 62.6383 45.1996C62.5899 45.2 62.5415 45.2 62.5415 45.2L62.5414 45.2Z" fill="#79A9F4" stroke="#79A9F4" stroke-width="0.8"/>
<path d="M38.7162 43.6478C28.5749 43.6478 24.0622 39.3777 23.8681 39.1837C23.6742 38.9897 23.6742 38.6983 23.8681 38.5043C24.0621 38.3104 24.3535 38.3104 24.5474 38.5043C24.5958 38.5527 28.9631 42.6773 38.7162 42.6773C48.4208 42.6773 52.8364 38.5527 52.8849 38.5043C53.0789 38.3104 53.3703 38.3104 53.5643 38.5043C53.7582 38.6983 53.7582 38.9897 53.5643 39.1837C53.3703 39.3776 48.8575 43.6478 38.7162 43.6478H38.7162Z" fill="#79A9F4" stroke="#79A9F4" stroke-width="0.8"/>
<path d="M38.6679 53.2068C38.0857 53.2068 37.6004 52.9641 37.2121 52.5275C34.3494 48.9854 31.9716 47.8691 28.9633 46.4137C27.2648 45.5888 25.2756 44.6668 22.995 43.1143C22.7523 42.9687 22.7039 42.6776 22.8495 42.435C22.995 42.1923 23.2861 42.1439 23.5288 42.2894C25.8094 43.7935 27.7018 44.7156 29.4003 45.492C32.4083 46.9958 34.98 48.2089 37.9886 51.9454C38.2313 52.2364 38.5224 52.2852 38.6679 52.2364C38.8618 52.2364 39.1533 52.188 39.3956 51.9454C42.4527 48.209 45.0244 46.9959 47.9843 45.5401C49.6828 44.7153 51.5751 43.8416 53.8558 42.3375C54.0985 42.192 54.3895 42.2404 54.5351 42.483C54.6806 42.7257 54.6322 43.0168 54.3895 43.1624C52.0605 44.7153 50.1194 45.637 48.4213 46.4618C45.4129 47.9175 43.0352 49.0335 40.1724 52.5756C39.8323 52.9642 39.2985 53.2068 38.6679 53.2068C38.6679 53.2068 38.7163 53.2068 38.6679 53.2068L38.6679 53.2068Z" fill="#79A9F4" stroke="#79A9F4" stroke-width="0.8"/>
<path d="M41.4823 64.0274C41.2396 64.0274 41.0457 63.8818 40.9969 63.6391L38.2309 52.8185C38.1825 52.5758 38.3281 52.2847 38.5708 52.2363C38.8134 52.1879 39.1045 52.3334 39.1529 52.5761L41.9189 63.3968C41.9673 63.6395 41.8218 63.9306 41.5791 63.979C41.5794 64.0274 41.531 64.0274 41.4823 64.0274Z" fill="#79A9F4" stroke="#79A9F4" stroke-width="0.8"/>
<path d="M35.9512 64.0272H35.8057C35.563 63.9788 35.3691 63.6874 35.4659 63.445L37.3098 56.2637C37.3582 56.021 37.6497 55.8271 37.892 55.9239C38.1347 55.9723 38.3286 56.2637 38.2318 56.506L36.3879 63.6874C36.3395 63.8817 36.1455 64.0272 35.9512 64.0272Z" fill="#79A9F4" stroke="#79A9F4" stroke-width="0.8"/>
<path d="M24.2081 64.0273C23.9655 64.0273 23.7715 63.8818 23.7228 63.6391C23.7228 63.5907 22.7036 59.0778 22.1215 54.0315C21.4422 48.4027 22.1215 42.7256 24.0623 37.5822C24.2078 37.1455 24.4021 36.7573 24.5476 36.3691C24.6448 36.1264 24.7903 35.8837 24.8875 35.6898C25.033 35.4471 25.3241 35.3499 25.5668 35.4958C25.8094 35.6414 25.9066 35.9325 25.7607 36.1751C25.6636 36.3691 25.5668 36.6118 25.4696 36.806C25.3241 37.1459 25.1785 37.5338 24.9843 37.9707C23.0922 42.9682 22.4613 48.4517 23.0922 53.9339C23.6744 58.9318 24.6935 63.396 24.6935 63.4445C24.7906 63.6872 24.5963 63.9783 24.3536 64.0267H24.2081L24.2081 64.0273Z" fill="#79A9F4" stroke="#79A9F4" stroke-width="0.8"/>
<path d="M53.3225 64.0275H53.2254C52.9827 63.9791 52.7887 63.6877 52.8371 63.4453C52.8371 63.3969 53.8563 58.9329 54.4384 53.9348C55.0693 48.4516 54.4384 42.92 52.546 37.9707C52.2549 37.243 52.0122 36.6605 51.7695 36.1754C51.624 35.9327 51.7211 35.6416 51.9635 35.4961C52.2062 35.3506 52.4973 35.4477 52.6428 35.69C52.8855 36.1754 53.1766 36.806 53.4676 37.5824C55.4084 42.6775 56.0877 48.4031 55.4084 54.0318C54.8262 59.078 53.8071 63.5909 53.8071 63.6394C53.7107 63.8821 53.5167 64.0276 53.3224 64.0276L53.3225 64.0275Z" fill="#79A9F4" stroke="#79A9F4" stroke-width="0.8"/>
<path d="M26.8769 37.4364H26.7314C25.5667 37.0966 24.5962 36.1262 24.3052 34.9131C23.9654 33.7485 24.2568 32.4385 25.0816 31.5166C25.9065 30.5946 27.168 30.1096 28.381 30.3035C28.6721 30.3519 28.8177 30.5946 28.8177 30.8857C28.7693 31.1768 28.5266 31.3223 28.2355 31.3223C27.3623 31.1768 26.3915 31.5163 25.8093 32.1956C25.2272 32.8749 24.9845 33.8453 25.2272 34.6701C25.4699 35.5434 26.1492 36.2231 27.0224 36.5141C27.2651 36.6113 27.4107 36.8539 27.3623 37.145C27.2651 37.2909 27.0712 37.4364 26.8769 37.4364V37.4364Z" fill="#79A9F4" stroke="#79A9F4" stroke-width="0.8"/>
<path d="M25.9069 31.7594C25.7613 31.7594 25.6158 31.711 25.5186 31.5655C24.6454 30.4008 24.4995 28.8483 25.0333 27.5381C25.6154 26.2278 26.8772 25.3058 28.2843 25.1119C28.5754 25.0635 28.8181 25.2574 28.8181 25.5485C28.8665 25.8396 28.6725 26.0823 28.3815 26.0823C27.3139 26.1794 26.3435 26.9071 25.9069 27.9263C25.4702 28.8966 25.6158 30.1097 26.2467 30.9833C26.3922 31.1773 26.3438 31.5171 26.1495 31.6626C26.1495 31.711 26.004 31.7594 25.9069 31.7594Z" fill="#79A9F4" stroke="#79A9F4" stroke-width="0.8"/>
<path d="M31.6803 31.2256H30.5156C30.2246 31.2256 30.0303 30.9829 30.0303 30.7402C30.0303 30.4976 30.273 30.2549 30.5156 30.2549H31.6803C31.9714 30.2549 32.1657 30.4976 32.1657 30.7402C32.1653 30.9829 31.9714 31.2256 31.6803 31.2256Z" fill="#79A9F4" stroke="#79A9F4" stroke-width="0.8"/>
<path d="M37.1637 31.2256H35.999C35.708 31.2256 35.5137 30.9829 35.5137 30.7402C35.5137 30.4976 35.7564 30.2549 35.999 30.2549H37.1637C37.4548 30.2549 37.6491 30.4976 37.6491 30.7402C37.6491 30.9829 37.4064 31.2256 37.1637 31.2256Z" fill="#79A9F4" stroke="#79A9F4" stroke-width="0.8"/>
</svg>
