<svg width="650" height="350" viewBox="0 0 650 350" fill="none" xmlns="http://www.w3.org/2000/svg">
<g clip-path="url(#clip0_863_11762)">
<rect width="650" height="350" rx="5" fill="url(#paint0_linear_863_11762)"/>
<circle cx="325" cy="172" r="252.75" stroke="#8B52F2" stroke-width="0.5"/>
<circle cx="325" cy="172" r="333.875" stroke="#8B52F2" stroke-width="0.25"/>
<circle cx="325" cy="172" r="194.75" stroke="#8DD6FB" stroke-width="0.5"/>
<circle cx="325" cy="172" r="161.75" stroke="#8DD6FB" stroke-width="0.5"/>
<path fill-rule="evenodd" clip-rule="evenodd" d="M360.64 61.2971C392.744 47.1194 442.676 58.3687 466.511 80.2247C491.19 102.855 475.734 137.335 475.849 166.94C475.92 184.959 494.376 175.73 499.846 193.246C510.755 228.182 532.272 255.899 499.846 281.644C466.403 308.197 436.491 284.837 388.74 281.644C365.074 280.062 348.01 300.148 324.505 302.806C290.006 306.708 250.898 315.658 222.069 300.493C193.183 285.297 190.02 253.749 181.457 227.555C171.983 198.577 139.242 158.62 169.656 140.177C207.776 117.061 249.056 136.816 291.785 119.169C328.731 103.91 324.268 77.3595 360.64 61.2971Z" fill="#D1FFFC"/>
<path d="M424.5 165C412.1 170.6 418.5 188.5 413 193.5C407.5 198.5 433.1 212.2 427.5 219C420.5 227.5 419.5 237 422.5 243C425.5 249 419 249.5 411 262C400.2 277.2 435.167 268.333 454 262V236V203V171.5C449.333 167 436.9 159.4 424.5 165Z" fill="#0C73F4"/>
<path d="M444.5 184.5C436.5 178.9 436.847 158.595 444.5 162.5C469 175 470 156.5 484 180.5C492.038 194.28 481.5 207 499 220C516.5 233 505 251 499 257C493 263 505 269.5 499 279C494.2 286.6 481 282.166 475 279L469 263.5C470.667 254.833 468.5 237 464.5 231C459.5 223.5 459 212.5 460.5 208L460.669 207.789C463.849 203.814 467.991 198.637 467.5 197C466 198.5 462.6 200.6 461 197C459 192.5 454.5 191.5 444.5 184.5Z" fill="#0C73F4"/>
<path d="M429.403 238.37C430.717 234.962 434.261 232.96 437.867 233.539C441.706 234.155 444.488 237.499 444.194 241.376C443.36 252.362 440.723 273.862 432.591 283.833C429.698 287.38 423.533 279.065 423.533 279.065C422.847 257.805 425.106 249.513 429.403 238.37Z" fill="#FCBD89"/>
<path d="M389.674 304.451C389.674 304.451 399.51 294.02 406.417 288.149C413.323 282.278 424.103 273.116 424.103 273.116L432.51 275.517C435.71 276.431 436.463 280.623 433.777 282.588C429.02 286.07 422.6 290.77 417.7 294.356C408.846 300.837 393.137 308.575 393.137 308.575L389.674 304.451Z" fill="#FCBD89"/>
<path d="M430 236.5C434.194 231.608 447.5 228 447.5 228H466C466 228 481 231 489.5 236.5C482.5 258.5 479 304 479 304H423.5C423.5 304 430 251 430 236.5Z" fill="#00A3AB"/>
<path d="M471 187.299C471 209.47 457.66 217 446.933 217C436.207 217 433 206.798 433 195.247C433 183.695 436.8 176.841 446.933 173.076C457.067 169.311 471 175.747 471 187.299Z" fill="#FCBD89"/>
<path d="M449 206L467.5 204C467.5 204 465 207 464.5 209C462.309 217.765 467 230 467 230C467 230 463 235.5 456.5 235.5C450 235.5 446.5 230 446.5 230C446.5 230 448.512 224.076 449 219C449.488 213.923 449 206 449 206Z" fill="#FCBD89"/>
<path d="M440.5 182.5C432.5 176.9 441.084 171.833 444.417 169C470.5 172.5 463 171.5 473 182.499C478.484 188.532 474.223 200.578 464.917 210.184C468.117 206.184 463.5 203.666 463 202C461.5 203.5 464.917 197.785 463 190.5C460.5 181 450.5 189.5 440.5 182.5Z" fill="#0C73F4"/>
<path d="M478.959 240.739C480.273 237.332 483.816 235.329 487.422 235.908C491.261 236.524 494.044 239.868 493.749 243.745C492.915 254.731 490.278 276.231 482.146 286.202C479.254 289.749 473.088 281.434 473.088 281.434C472.402 260.174 474.661 251.882 478.959 240.739Z" fill="#FCBD89"/>
<path d="M431.5 294.5C431.5 294.5 444.104 287.667 452.5 284.25C460.896 280.833 474 275.5 474 275.5L481.235 280.41C483.989 282.278 483.393 286.495 480.228 287.523C474.62 289.343 467.052 291.799 461.277 293.674C450.841 297.061 433.5 299.5 433.5 299.5L431.5 294.5Z" fill="#FCBD89"/>
<path d="M427 294.5C429.4 294.9 434.167 293.333 435.5 293C436 294.167 439.2 297.2 438 298C436.5 299 433.5 302 431.5 302C429.9 302 422.833 304 419.5 305L409 301.5C408.833 301 408.9 299.8 410.5 299C412.1 298.2 417.833 296 420.5 295C420.833 295 421.4 294.547 421 292.733C420.5 290.466 420.5 291 421 289C424.5 289 424 294 427 294.5Z" fill="#FCBD89"/>
<rect width="443" height="80" transform="matrix(-1 0 0 1 554 307)" fill="#EDF5F9"/>
<rect width="443" height="2" transform="matrix(-1 0 0 1 554 307)" fill="#39484F"/>
<rect x="-0.15" y="0.15" width="462.7" height="6.7" transform="matrix(-1 0 0 1 563.7 300)" fill="#C3D2D9" stroke="#39484F" stroke-width="0.3"/>
<rect width="73.5246" height="4.52459" transform="matrix(-1 0 0 1 357.279 295.476)" fill="#818CC2"/>
<path d="M390.172 231.9C390.121 231.389 389.691 231 389.177 231H261.105C260.513 231 260.051 231.511 260.11 232.1L265.566 286.657C265.617 287.168 266.047 287.557 266.561 287.557H394.633C395.224 287.557 395.687 287.047 395.628 286.458L390.172 231.9Z" fill="#818CC2"/>
<path d="M337.738 265H318.849L307.849 295.5H326.738L337.738 265Z" fill="#5E6CB0"/>
<circle cx="2.2623" cy="2.2623" r="2.2623" transform="matrix(-1 0 0 1 290.541 277.377)" fill="#0A4CA8"/>
<circle cx="2.2623" cy="2.2623" r="2.2623" transform="matrix(-1 0 0 1 279.229 277.377)" fill="#0A4CA8"/>
<path d="M391.779 287.557L386.123 234.959H261.131" stroke="white" stroke-width="0.5"/>
<path d="M463 167.5L456 167C464 175.4 463 189.333 462 193.5H468.5C470.1 184.3 465.833 171.333 463 167.5Z" fill="#000B1A"/>
<circle cx="465" cy="196" r="5.5" fill="#F53689" stroke="black" stroke-width="3"/>
<circle cx="211" cy="123" r="42" fill="#8FDAFF"/>
<mask id="mask0_863_11762" style="mask-type:alpha" maskUnits="userSpaceOnUse" x="169" y="81" width="84" height="84">
<circle cx="211" cy="123" r="42" fill="#C4C4C4"/>
</mask>
<g mask="url(#mask0_863_11762)">
<path d="M223.657 133.926C223.657 133.926 227.563 137.903 231.4 142.506C233.493 145.018 237.888 148.576 237.888 148.576L225.327 165.575L209.293 154.342L223.657 133.926Z" fill="#A1FFC7"/>
<path d="M233.435 157.958C230.503 162.395 225.791 169.172 224.337 168.211C223.247 167.491 226.785 160.475 230.882 155.334C233.094 152.558 237.47 148.316 237.828 148.553C238.604 149.065 236.367 153.521 233.435 157.958Z" fill="black"/>
<path d="M241.474 171.348C237.791 171.302 230.45 163.329 227.842 159.877C230.982 153.18 237.211 148.576 237.679 148.576C238.306 148.576 241.773 155.88 244.384 156.315C247.1 156.768 265.901 157.214 274.947 153.561L274.841 161.931C264.307 167.45 245.157 171.395 241.474 171.348Z" fill="#E6B6AA"/>
<rect x="247.789" y="151.432" width="7.31443" height="0.562648" transform="rotate(-60 247.789 151.432)" fill="#1A2E4A"/>
<rect x="246.684" y="148.844" width="3.93854" height="0.562648" transform="rotate(-60 246.684 148.844)" fill="#1A2E4A"/>
<rect x="248.942" y="151.123" width="5.90781" height="6.60343" transform="rotate(-60 248.942 151.123)" fill="white"/>
<rect x="247.453" y="148.638" width="2.81324" height="1.68794" transform="rotate(-60 247.453 148.638)" fill="#1A2E4A"/>
<path fill-rule="evenodd" clip-rule="evenodd" d="M207.824 125.704C199.365 124.32 190.55 126.35 185.075 131.337C173.34 142.026 153.555 173.917 170.708 190.014C216.541 209.268 211.728 197.548 211.728 197.548C211.728 197.548 232.659 148.4 227.829 139.345C225.461 134.904 221.983 131.564 217.962 129.256L217.06 131.694C216.032 134.476 212.943 135.898 210.161 134.869C207.379 133.84 205.957 130.751 206.986 127.969L207.824 125.704Z" fill="#A1FFC7"/>
<path d="M212.218 114.254L222.292 117.979L217.176 131.815C216.148 134.597 213.059 136.018 210.277 134.989C207.495 133.961 206.074 130.872 207.102 128.09L212.218 114.254Z" fill="#E6B6AA"/>
<path d="M212.736 104.934C215.539 99.5771 222.154 97.5071 227.51 100.31L228.687 100.926C234.693 104.069 237.014 111.486 233.871 117.492L231.427 122.163C228.913 126.968 222.979 128.825 218.174 126.311C210.966 122.539 208.181 113.639 211.953 106.431L212.736 104.934Z" fill="#E6B6AA"/>
<path d="M211.881 122.207L205.265 117.088L201.054 113.448C202.123 112.706 202.658 104.348 210.076 99.4953C230.326 86.2478 237.544 105.966 236.541 111.426C231.89 111.426 233.133 107.381 232.732 105.562C232.532 108.19 230.246 110.721 225.113 110.883C218.698 111.085 219.5 106.636 217.695 106.636C212.723 107.445 211.747 117.354 211.881 122.207Z" fill="#1A2E4A"/>
<path d="M200.875 158.831C197.857 163.21 191.846 170.703 190.411 169.714C189.334 168.972 194.09 160.28 197.108 155.901C200.125 151.522 203.928 150.077 204.281 150.321C204.635 150.564 203.892 154.452 200.875 158.831Z" fill="black"/>
<path d="M187.241 167.412C190.171 155.273 196.241 152.134 202.938 147.949C201.263 145.646 197.496 141.879 196.241 140.624C193.394 140.456 179.917 150.251 179.498 160.296C181.661 162.04 184.73 165.528 187.241 167.412Z" fill="#A1FFC7"/>
<path d="M240.19 152.552L237.051 154.436L237.888 161.551C239.004 161.133 241.404 160.254 242.073 160.086C242.91 159.877 248.142 159.668 250.863 159.668C253.04 159.668 255.258 154.436 255.049 151.715C255.467 151.157 256.723 149.664 257.56 148.994C258.397 148.325 257.63 147.599 257.142 147.32L250.026 149.831L245.314 150.704C245.223 149.73 245.353 148.574 245.631 148.157C246.398 147.739 248.98 146.483 248.98 145.855C248.98 144.789 248.073 144.39 246.677 144.39C246.677 144.39 243.41 145.66 242.073 147.32C240.711 149.011 240.19 152.552 240.19 152.552Z" fill="#E6B6AA"/>
<path d="M207.362 173.062C203.679 173.062 196.38 164.551 193.729 161.133C197.706 153.808 200.636 151.715 203.356 150.459C204.612 152.064 207.467 157.591 210.083 157.994C212.804 158.412 229.516 155.482 238.934 153.18L242.492 161.133C231.609 164.691 211.046 173.062 207.362 173.062Z" fill="#E6B6AA"/>
</g>
<circle cx="469" cy="69" r="42" fill="#8FDAFF"/>
<mask id="mask1_863_11762" style="mask-type:alpha" maskUnits="userSpaceOnUse" x="427" y="27" width="84" height="84">
<circle cx="469" cy="69" r="42" fill="#C4C4C4"/>
</mask>
<g mask="url(#mask1_863_11762)">
<path d="M437.933 100.386C437.933 100.386 440.705 103.208 443.428 106.475C444.912 108.256 448.031 110.781 448.031 110.781L439.118 122.843L427.742 114.872L437.933 100.386Z" fill="#A1FFC7"/>
<path d="M444.871 117.438C442.791 120.586 439.448 125.395 438.416 124.713C437.643 124.202 440.153 119.224 443.06 115.576C444.629 113.606 447.734 110.596 447.989 110.764C448.539 111.128 446.951 114.29 444.871 117.438Z" fill="black"/>
<path d="M450.575 126.938C447.962 126.906 442.753 121.248 440.903 118.799C443.13 114.048 447.55 110.781 447.882 110.781C448.328 110.781 450.788 115.963 452.64 116.272C454.567 116.593 467.907 116.91 474.325 114.318L474.25 120.257C466.776 124.172 453.189 126.971 450.575 126.938Z" fill="#AAC5FF"/>
<rect x="455.056" y="112.807" width="5.18981" height="0.399216" transform="rotate(-60 455.056 112.807)" fill="#1A2E4A"/>
<rect x="454.272" y="110.971" width="2.79451" height="0.399216" transform="rotate(-60 454.272 110.971)" fill="#1A2E4A"/>
<rect x="455.874" y="112.588" width="4.19177" height="4.68533" transform="rotate(-60 455.874 112.588)" fill="white"/>
<rect x="454.818" y="110.825" width="1.99608" height="1.19765" transform="rotate(-60 454.818 110.825)" fill="#1A2E4A"/>
<path d="M449.664 113.602L447.437 114.939L448.031 119.987C448.823 119.69 450.525 119.067 451.001 118.948C451.595 118.799 455.307 118.651 457.237 118.651C458.782 118.651 460.356 114.939 460.207 113.008C460.504 112.612 461.395 111.553 461.989 111.078C462.583 110.603 462.038 110.088 461.692 109.89L456.643 111.672L453.3 112.291C453.235 111.6 453.328 110.78 453.525 110.484C454.069 110.187 455.901 109.296 455.901 108.85C455.901 108.094 455.257 107.811 454.267 107.811C454.267 107.811 451.949 108.712 451.001 109.89C450.034 111.09 449.664 113.602 449.664 113.602Z" fill="#E6B6AA"/>
<path d="M434.35 124.964C434.35 106.052 445.786 87.9694 464.496 85.2128C466.942 84.8524 469.323 84.6221 471.544 84.5784C474.713 84.5159 478.191 84.8208 481.737 85.3524C500.577 88.1762 512.214 106.192 512.214 125.242V173.298C512.214 178.821 507.736 183.298 502.214 183.298H434.35V124.964Z" fill="white"/>
<path d="M407.667 138.043C430.204 140.967 441.997 139.063 454.193 125.943C464.953 114.368 466.272 86.14 454.193 87.4917C430.526 90.1401 419.403 117.601 409.322 117.601C399.242 117.601 383.6 105.435 377.691 100.916L364.386 115.338C369.6 122.29 386.993 135.361 407.667 138.043Z" fill="white"/>
<rect x="462.159" y="60.9419" width="15.9898" height="38.9316" rx="7.99489" fill="#DCA553"/>
<path d="M452.631 46.4225C461.635 37.3423 466.897 39.3764 477.669 43.193C488.442 47.0097 486.746 63.2994 478.305 67.9114C469.864 72.5233 463.112 81.3334 456.707 77.9704C450.301 74.6073 443.626 55.5027 452.631 46.4225Z" fill="#DCA553"/>
<path d="M476.97 53.6182C476.247 51.0985 473.537 54.5181 473.176 48.2188C471.73 48.2188 469.273 48.5068 465.949 47.4989C461.793 46.239 461.116 46.959 461.116 46.959C461.116 46.959 459.083 45.8791 454.566 46.959C450.049 48.0388 451.895 55.5979 447.559 52.5382C443.223 49.4786 448.824 42.2451 450.992 41.5595C453.795 40.6732 452.913 40.1412 453.816 39.9612C453.455 39.4213 455.554 38.3198 457.987 38.32C461.491 38.3202 461.251 37.6 471.73 38.3199C482.21 39.0398 485.1 47.4989 485.1 52.5383C483.655 51.5304 482.029 51.0985 480.945 52.5383C479.861 53.9782 480.403 60.8174 480.403 60.8174C479.74 60.2175 477.855 56.7034 476.97 53.6182Z" fill="#141414"/>
<path d="M487.139 89.1968L485.72 100.793L480.044 104.34V108.243L463.37 119.595L455.92 109.307L457.693 104.34L453.472 102.323L454.855 89.1968" stroke="black" stroke-width="0.5"/>
<mask id="mask2_863_11762" style="mask-type:alpha" maskUnits="userSpaceOnUse" x="434" y="84" width="111" height="140">
<path d="M434.35 128.667C434.35 109.755 445.86 92.3871 464.247 87.965C471.884 86.1282 479.878 84.7175 486.77 84.5817C495.023 84.419 504.762 86.024 513.847 88.1451C532.398 92.4761 544.089 109.895 544.089 128.945V213.715C544.089 219.238 539.612 223.715 534.089 223.715H434.35V128.667Z" fill="white"/>
</mask>
<g mask="url(#mask2_863_11762)">
<path d="M470.146 90.9714C479.037 90.6294 478.305 82.457 478.305 82.457C478.305 82.457 481.964 89.6944 480.398 96.1815C477.745 107.179 465.853 111.436 465.853 111.436C465.853 111.436 461.241 107.889 458.758 98.3101C457.147 92.0974 461.986 83.1666 461.986 83.1666C461.986 83.1666 460.922 91.3262 470.146 90.9714Z" fill="#7368FE"/>
</g>
</g>
<path d="M576.5 101H557.5C556.395 101 555.5 101.895 555.5 103V115C555.5 116.105 556.395 117 557.5 117H572L568.5 122.5L577.464 117.57C578.103 117.218 578.5 116.547 578.5 115.817V103C578.5 101.895 577.605 101 576.5 101Z" fill="#8B52F2"/>
<path d="M153 197H224C225.105 197 226 197.895 226 199V224.558C226 225.663 225.105 226.558 224 226.558H171.37V233.176C171.37 233.966 170.498 234.444 169.832 234.019L158.132 226.558H153C151.895 226.558 151 225.663 151 224.558V199C151 197.895 151.895 197 153 197Z" fill="#FBE547"/>
<rect x="159" y="204" width="63" height="2" fill="white"/>
<rect x="159" y="210" width="63" height="2" fill="white"/>
<rect x="159" y="216" width="47" height="2" fill="white"/>
<path d="M155 256H148C146.895 256 146 256.895 146 258V261.442C146 262.546 146.895 263.442 148 263.442H153.891L152.217 266L155.943 264.007C156.594 263.659 157 262.981 157 262.244V258C157 256.895 156.105 256 155 256Z" fill="#56BFF4"/>
<rect x="174" y="37" width="10" height="10" rx="3" fill="#56BFF4"/>
<rect x="80.9883" y="106.508" width="6.32857" height="6.32857" rx="3.16428" transform="rotate(60 80.9883 106.508)" fill="#8B52F2"/>
<rect x="387.481" y="18" width="6.32857" height="6.32857" rx="3.16428" transform="rotate(60 387.481 18)" fill="white"/>
<path d="M374 43H303C301.895 43 301 43.8954 301 45V70.5581C301 71.6627 301.895 72.5581 303 72.5581H355.63V79.1763C355.63 79.9658 356.502 80.4439 357.168 80.0194L368.868 72.5581H374C375.105 72.5581 376 71.6627 376 70.5581V45C376 43.8954 375.105 43 374 43Z" fill="white"/>
<rect x="307" y="48" width="63" height="2" fill="#C7ECFF"/>
<rect x="307" y="54" width="63" height="2" fill="#C7ECFF"/>
<rect x="307" y="60" width="47" height="2" fill="#C7ECFF"/>
</g>
<defs>
<linearGradient id="paint0_linear_863_11762" x1="325" y1="0" x2="325" y2="350" gradientUnits="userSpaceOnUse">
<stop stop-color="#EAFAFA"/>
<stop offset="1" stop-color="#ECFBF9"/>
</linearGradient>
<clipPath id="clip0_863_11762">
<rect width="650" height="350" rx="5" fill="white"/>
</clipPath>
</defs>
</svg>
