<svg width="650" height="350" viewBox="0 0 650 350" fill="none" xmlns="http://www.w3.org/2000/svg">
<g clip-path="url(#clip0_863_10398)">
<rect width="650" height="350" fill="url(#paint0_linear_863_10398)"/>
<circle cx="420" cy="157" r="142" fill="#EEFAFE"/>
<path d="M490.868 302.009C490.868 306.675 421.347 310.456 335.587 310.456C249.828 310.456 180.306 306.675 180.306 302.009C180.306 297.344 249.828 293.563 335.587 293.563C421.347 293.563 490.868 297.344 490.868 302.009Z" fill="#CCDBF0"/>
<path d="M225.79 213.343C225.79 213.343 224.354 224.226 229.228 229.098C234.103 233.971 259.941 224.676 259.941 224.676L258.904 218.368C258.904 218.368 237.097 221.461 235.796 219.22C234.495 216.979 236.667 210.006 236.667 210.006L225.79 213.343Z" fill="#FACCC4"/>
<path d="M258.905 218.367C258.905 218.367 262.286 215.919 265.205 216.287C268.125 216.654 270.197 217.036 269.76 218.013C269.322 218.99 266.304 218.619 266.304 218.619C266.304 218.619 269.349 220.781 270.628 221.132C271.907 221.481 273.862 219.87 274.373 220.736C274.885 221.602 273.403 222.587 271.834 223.269C271.834 223.269 268.6 225.773 267.138 226.261C265.675 226.748 259.644 224.663 259.644 224.663C259.644 224.663 255.69 220.376 258.905 218.367Z" fill="#FACCC4"/>
<path d="M250.169 285.115L253.332 293.991L261.189 292.093L259.303 281.909L250.169 285.115Z" fill="#FACCC4"/>
<path d="M243.275 262.219L250.512 287.246L262.272 286.342L257.447 258.752L243.275 262.219Z" fill="#1A2E4A"/>
<path d="M272.401 286.877L276.859 295.991L284.435 292.599L282.286 282.648L272.401 286.877Z" fill="#FACCC4"/>
<path d="M219.003 190.456C212.068 200.104 206.791 222.719 209.354 244.279L250.287 244.656C250.287 244.656 244.156 207.71 241.467 195.242C238.98 183.709 222.417 185.706 219.003 190.456Z" fill="#FAABA1"/>
<path d="M238.682 158.985C238.682 158.985 242.034 159.907 242.453 165.69C242.872 171.473 245.554 171.137 245.554 171.137C245.554 171.137 246.14 181.027 242.369 182.703C238.598 184.379 236.251 183.458 236.251 183.458L235.329 187.899L225.775 187.229C225.775 187.229 222.925 164.349 225.104 160.661C227.283 156.974 234.658 157.728 238.682 158.985Z" fill="#FACCC4"/>
<path d="M241.503 159.32C241.503 159.32 241.782 164.349 236.139 164.796C236.139 164.796 236.977 168.595 234.407 170.997C234.407 170.997 233.513 167.422 230.943 168.651C228.373 169.88 230.887 178.82 233.792 177.591L231.334 182.117L225.3 182.172C225.3 182.172 208.147 167.981 220.774 159.6C220.774 159.6 221.053 154.348 229.267 153.174C237.48 152.001 241.782 156.918 241.503 159.32Z" fill="#1A2E4A"/>
<path d="M246.868 214.059C246.868 214.059 253.895 222.49 260.781 222.209C267.668 221.929 278.349 196.631 278.349 196.631L273.008 193.118C273.008 193.118 260.5 211.247 257.971 210.686C255.441 210.123 251.787 203.799 251.787 203.799L246.868 214.059Z" fill="#FACCC4"/>
<path d="M225.356 185.246C225.356 185.246 235.637 185.246 237.983 189.325L223.512 188.599L225.356 185.246Z" fill="#FAABA1"/>
<path d="M245.534 216.939L254.283 204.818C254.283 204.818 245.85 191.221 239.21 189.745C232.569 188.27 237.734 211.564 245.534 216.939Z" fill="#FAABA1"/>
<path d="M273.009 193.119C273.009 193.119 273.501 188.972 275.75 187.075C277.998 185.178 279.685 183.913 280.106 184.897C280.528 185.881 278.209 187.848 278.209 187.848C278.209 187.848 281.864 187.075 282.987 186.372C284.112 185.67 284.252 183.14 285.236 183.351C286.22 183.562 285.939 185.318 285.376 186.935C285.376 186.935 285.025 191.01 284.393 192.416C283.76 193.821 278.139 196.843 278.139 196.843C278.139 196.843 272.307 196.843 273.009 193.119Z" fill="#FACCC4"/>
<path d="M210.786 244.203C210.786 244.203 209.881 255.963 219.153 259.807C228.425 263.652 259.86 260.711 259.86 260.711L270.941 289.884L284.51 284.683C284.51 284.683 275.012 249.63 270.941 246.464C266.87 243.298 247.874 243.298 247.874 243.298L210.786 244.203Z" fill="#1A2E4A"/>
<path d="M252.887 266.591H215.346C213.035 266.591 211.162 264.718 211.162 262.408C211.162 260.097 213.035 258.224 215.346 258.224H252.887C255.197 258.224 257.07 260.097 257.07 262.408C257.07 264.718 255.197 266.591 252.887 266.591Z" fill="#1A2E4A"/>
<path d="M236.038 292.898H231.515V266.14H236.038V292.898Z" fill="#1A2E4A"/>
<path d="M275.875 293.519C275.875 293.519 275.536 301.254 275.838 302.232C276.139 303.211 288.107 302.835 288.107 302.835C288.107 302.835 296.689 303.512 298.796 302.609C300.904 301.706 299.775 299.899 295.785 297.866C291.796 295.834 284.232 291.494 284.232 291.494L275.875 293.519Z" fill="#1A2E4A"/>
<path d="M252.809 292.867C252.809 292.867 252.488 300.216 252.774 301.145C253.06 302.075 264.431 301.717 264.431 301.717C264.431 301.717 272.584 302.361 274.587 301.503C276.589 300.644 275.516 298.928 271.725 296.997C267.935 295.066 260.749 290.942 260.749 290.942L252.809 292.867Z" fill="#1A2E4A"/>
<path d="M248.414 303.337H219.709C219.709 297.184 224.697 292.196 230.85 292.196H237.273C243.426 292.196 248.414 297.184 248.414 303.337Z" fill="#1A2E4A"/>
<path d="M433.715 251H352.646C344.557 251 338 244.352 338 236.152V44.8481C338 36.6476 344.557 30 352.646 30H433.715C441.052 30 447 36.0294 447 43.4676V237.533C447 244.971 441.052 251 433.715 251Z" fill="#8FB0DE"/>
<path d="M428.569 244H356.706C349.136 244 343 238.018 343 230.637V50.3629C343 42.983 349.136 37 356.706 37H428.569C435.434 37 441 42.4264 441 49.1198V231.88C441 238.574 435.434 244 428.569 244Z" fill="#CCDBF0"/>
<path d="M431 215H352V170H431V215Z" fill="#E4EDF9"/>
<path d="M425.003 184.238H376.254V177.481H425.003V184.238Z" fill="#EEFAFE"/>
<path d="M425.003 196.788H376.254V190.03H425.003V196.788Z" fill="#EEFAFE"/>
<path d="M425.003 206.924H376.254V200.166H425.003V206.924Z" fill="#EEFAFE"/>
<path d="M371.547 182.7C371.547 186.782 368.239 190.091 364.157 190.091C360.075 190.091 356.765 186.782 356.765 182.7C356.765 178.618 360.075 175.309 364.157 175.309C368.239 175.309 371.547 178.618 371.547 182.7Z" fill="#EEFAFE"/>
<path d="M430.675 161.514H352V64.9799C352 58.9156 356.916 53.9997 362.98 53.9997H419.694C425.759 53.9997 430.675 58.9156 430.675 64.9799V161.514Z" fill="#E4EDF9"/>
<path d="M363.85 111.963C363.85 111.963 359.97 116.982 358.862 124.557C357.754 132.133 356.091 161.695 356.091 161.695L366.262 161.511C366.262 161.511 367.546 116.736 363.85 111.963Z" fill="#EEFFFF"/>
<path d="M398.49 100.782L415.152 108.894L412.96 161.511H366.262L363.85 111.963L379.745 101.476L398.49 100.782Z" fill="#FBFFFF"/>
<path d="M384.24 106.592L380.24 108.4L379.746 101.476L382.706 98.4251L384.24 106.592Z" fill="#C9EBED"/>
<path d="M398.488 100.781L388.403 110.136L381.826 132.425L380.237 108.4C380.237 108.4 391.765 100.563 398.488 100.781Z" fill="#C9EBED"/>
<path d="M374.229 65.0466C374.229 65.0466 371.006 67.7847 371.196 74.8046C368.114 81.0283 368.114 81.7442 368.114 81.7442C368.114 81.7442 368.597 93.7336 373.344 95.3003C378.091 96.8671 380.809 95.4734 380.809 95.4734L383.875 106.701L395.531 98.8088C395.531 98.8088 398.345 69.6671 395.276 65.4846C392.205 61.3028 378.926 63.0469 374.229 65.0466Z" fill="#FACCC4"/>
<path d="M373.131 63.9498C373.131 63.9498 373.131 71.1848 379.123 73.0845C385.116 74.9843 387.235 73.7419 387.235 73.7419C387.235 73.7419 386.431 81.3425 389.428 82.9505C389.428 82.9505 390.378 76.8848 392.643 77.5422C394.908 78.2003 395.128 82.8774 393.885 86.1658C392.643 89.4542 390.231 88.8699 390.231 88.8699L396.078 92.2314C396.078 92.2314 409.232 77.0311 402.728 67.092C402.728 67.092 403.24 61.5382 394.835 59.3459C386.431 57.1529 373.496 57.3723 373.131 63.9498Z" fill="#1A2E4A"/>
<path d="M383.875 106.701L395.787 96.4702L398.491 100.782L388.405 110.136L383.875 106.701Z" fill="#C9EBED"/>
<path d="M415.152 108.894C415.152 108.894 421.497 113.656 424.269 127.698C427.04 141.74 427.78 161.511 427.78 161.511H410.042C410.042 161.511 405.85 108.381 415.152 108.894Z" fill="#EEFFFF"/>
<path d="M393.638 116.78C393.543 116.78 393.444 116.76 393.35 116.717C392.997 116.558 392.839 116.142 392.998 115.788C400.042 100.16 396.009 97.144 395.967 97.1179C395.636 96.9159 395.531 96.4829 395.733 96.1521C395.936 95.8205 396.369 95.7162 396.699 95.9175C397.244 96.2505 401.812 99.6512 394.281 116.365C394.163 116.626 393.907 116.78 393.638 116.78Z" fill="#1F1B13"/>
<path d="M377.036 115.79C376.674 115.79 376.368 115.513 376.337 115.146C374.8 96.8777 380.399 98.5502 381.024 98.4177C381.404 98.3366 381.776 98.5806 381.857 98.9599C381.936 99.3342 381.702 99.7013 381.333 99.7889C381.212 99.8258 376.314 98.1027 377.737 115.028C377.77 115.415 377.482 115.755 377.096 115.788C377.076 115.79 377.056 115.79 377.036 115.79Z" fill="#1F1B13"/>
<path d="M395.235 120.625C394.478 122.759 392.618 124.047 391.082 123.501C389.545 122.955 388.914 120.783 389.672 118.65C390.429 116.515 392.722 114.172 394.258 114.717C395.794 115.263 395.993 118.491 395.235 120.625Z" fill="#1F1B13"/>
<path d="M372.625 121.385C372.625 121.385 373.034 124.605 373.737 125.045C374.44 125.483 375.904 124.986 375.904 124.986" stroke="#A3AFB5" stroke-width="0.724" stroke-miterlimit="10" stroke-linecap="round"/>
<path d="M383.031 119.138C383.031 119.138 383.977 122.244 383.516 122.933C383.055 123.621 381.515 123.768 381.515 123.768" stroke="#A3AFB5" stroke-width="0.724" stroke-miterlimit="10" stroke-linecap="round"/>
<path d="M372.879 122.475L372.67 121.481C372.081 118.675 373.862 115.918 376.662 115.303C379.334 114.715 382.006 116.288 382.789 118.908L382.936 119.401" stroke="#1F1B13" stroke-width="1.448" stroke-miterlimit="10" stroke-linecap="round"/>
<path d="M501.693 148.537V184.213C501.693 186.946 499.476 189.163 496.742 189.163H478.1C475.373 189.163 473.157 186.946 473.157 184.213V148.537C473.157 145.809 475.373 143.593 478.1 143.593H496.742C499.476 143.593 501.693 145.809 501.693 148.537Z" fill="#EEA096"/>
<path d="M500.428 148.537V184.213C500.428 186.946 498.211 189.163 495.478 189.163H476.835C474.108 189.163 471.891 186.946 471.891 184.213V148.537C471.891 145.809 474.108 143.593 476.835 143.593H495.478C498.211 143.593 500.428 145.809 500.428 148.537Z" fill="#FCD9D4"/>
<path d="M500.426 148.537V184.213C500.426 186.946 498.369 189.163 495.83 189.163H485.469V143.593H495.83C498.369 143.593 500.426 145.809 500.426 148.537Z" fill="#FAABA1"/>
<path d="M481.742 153.228H476.909C475.884 153.228 475.053 152.397 475.053 151.372C475.053 150.347 475.884 149.517 476.909 149.517H481.742C482.767 149.517 483.598 150.347 483.598 151.372C483.598 152.397 482.767 153.228 481.742 153.228Z" fill="white"/>
<path d="M481.513 152.71H477.14C476.401 152.71 475.802 152.111 475.802 151.372C475.802 150.633 476.401 150.035 477.14 150.035H481.513C482.251 150.035 482.851 150.633 482.851 151.372C482.851 152.111 482.251 152.71 481.513 152.71Z" fill="#E4EDF9"/>
<path d="M495.264 153.228H490.431C489.406 153.228 488.575 152.397 488.575 151.372C488.575 150.347 489.406 149.517 490.431 149.517H495.264C496.289 149.517 497.12 150.347 497.12 151.372C497.12 152.397 496.289 153.228 495.264 153.228Z" fill="white"/>
<path d="M495.034 152.71H490.661C489.921 152.71 489.323 152.111 489.323 151.372C489.323 150.633 489.921 150.035 490.661 150.035H495.034C495.772 150.035 496.372 150.633 496.372 151.372C496.372 152.111 495.772 152.71 495.034 152.71Z" fill="#E4EDF9"/>
<path d="M481.742 160.823H476.909C475.884 160.823 475.053 159.993 475.053 158.968C475.053 157.943 475.884 157.112 476.909 157.112H481.742C482.767 157.112 483.598 157.943 483.598 158.968C483.598 159.993 482.767 160.823 481.742 160.823Z" fill="white"/>
<path d="M481.513 160.305H477.14C476.401 160.305 475.802 159.706 475.802 158.967C475.802 158.229 476.401 157.629 477.14 157.629H481.513C482.251 157.629 482.851 158.229 482.851 158.967C482.851 159.706 482.251 160.305 481.513 160.305Z" fill="#E4EDF9"/>
<path d="M495.264 160.823H490.431C489.406 160.823 488.575 159.993 488.575 158.968C488.575 157.943 489.406 157.112 490.431 157.112H495.264C496.289 157.112 497.12 157.943 497.12 158.968C497.12 159.993 496.289 160.823 495.264 160.823Z" fill="white"/>
<path d="M495.034 160.305H490.661C489.921 160.305 489.323 159.706 489.323 158.967C489.323 158.229 489.921 157.629 490.661 157.629H495.034C495.772 157.629 496.372 158.229 496.372 158.967C496.372 159.706 495.772 160.305 495.034 160.305Z" fill="#E4EDF9"/>
<path d="M481.742 167.771H476.909C475.884 167.771 475.053 166.94 475.053 165.915C475.053 164.89 475.884 164.059 476.909 164.059H481.742C482.767 164.059 483.598 164.89 483.598 165.915C483.598 166.94 482.767 167.771 481.742 167.771Z" fill="white"/>
<path d="M481.513 167.252H477.14C476.401 167.252 475.802 166.654 475.802 165.914C475.802 165.176 476.401 164.577 477.14 164.577H481.513C482.251 164.577 482.851 165.176 482.851 165.914C482.851 166.654 482.251 167.252 481.513 167.252Z" fill="#E4EDF9"/>
<path d="M495.264 167.771H490.431C489.406 167.771 488.575 166.94 488.575 165.915C488.575 164.89 489.406 164.059 490.431 164.059H495.264C496.289 164.059 497.12 164.89 497.12 165.915C497.12 166.94 496.289 167.771 495.264 167.771Z" fill="white"/>
<path d="M495.034 167.252H490.661C489.921 167.252 489.323 166.654 489.323 165.914C489.323 165.176 489.921 164.577 490.661 164.577H495.034C495.772 164.577 496.372 165.176 496.372 165.914C496.372 166.654 495.772 167.252 495.034 167.252Z" fill="#E4EDF9"/>
<path d="M481.742 175.366H476.909C475.884 175.366 475.053 174.535 475.053 173.51C475.053 172.485 475.884 171.654 476.909 171.654H481.742C482.767 171.654 483.598 172.485 483.598 173.51C483.598 174.535 482.767 175.366 481.742 175.366Z" fill="white"/>
<path d="M481.513 174.847H477.14C476.401 174.847 475.802 174.248 475.802 173.51C475.802 172.771 476.401 172.172 477.14 172.172H481.513C482.251 172.172 482.851 172.771 482.851 173.51C482.851 174.248 482.251 174.847 481.513 174.847Z" fill="#E4EDF9"/>
<path d="M495.264 175.366H490.431C489.406 175.366 488.575 174.535 488.575 173.51C488.575 172.485 489.406 171.654 490.431 171.654H495.264C496.289 171.654 497.12 172.485 497.12 173.51C497.12 174.535 496.289 175.366 495.264 175.366Z" fill="white"/>
<path d="M495.034 174.847H490.661C489.921 174.847 489.323 174.248 489.323 173.51C489.323 172.771 489.921 172.172 490.661 172.172H495.034C495.772 172.172 496.372 172.771 496.372 173.51C496.372 174.248 495.772 174.847 495.034 174.847Z" fill="#E4EDF9"/>
<path d="M481.742 183.392H476.909C475.884 183.392 475.053 182.562 475.053 181.536C475.053 180.512 475.884 179.681 476.909 179.681H481.742C482.767 179.681 483.598 180.512 483.598 181.536C483.598 182.562 482.767 183.392 481.742 183.392Z" fill="white"/>
<path d="M481.513 182.875H477.14C476.401 182.875 475.802 182.276 475.802 181.537C475.802 180.798 476.401 180.199 477.14 180.199H481.513C482.251 180.199 482.851 180.798 482.851 181.537C482.851 182.276 482.251 182.875 481.513 182.875Z" fill="#E4EDF9"/>
<path d="M495.264 183.392H490.431C489.406 183.392 488.575 182.562 488.575 181.536C488.575 180.512 489.406 179.681 490.431 179.681H495.264C496.289 179.681 497.12 180.512 497.12 181.536C497.12 182.562 496.289 183.392 495.264 183.392Z" fill="white"/>
<path d="M495.034 182.875H490.661C489.921 182.875 489.323 182.276 489.323 181.537C489.323 180.798 489.921 180.199 490.661 180.199H495.034C495.772 180.199 496.372 180.798 496.372 181.537C496.372 182.276 495.772 182.875 495.034 182.875Z" fill="#E4EDF9"/>
<path d="M289.11 132.426H263.484C260.598 132.426 258.258 134.766 258.258 137.652V151.983C258.258 154.87 260.598 157.21 263.484 157.21H265.673L264.436 161.001C264.031 162.245 265.448 163.285 266.512 162.525L273.967 157.21H289.11C291.997 157.21 294.337 154.87 294.337 151.983V137.652C294.337 134.766 291.997 132.426 289.11 132.426Z" fill="#8FB0DE"/>
<path d="M267.579 144.177C267.579 145.577 266.445 146.711 265.045 146.711C263.646 146.711 262.511 145.577 262.511 144.177C262.511 142.778 263.646 141.643 265.045 141.643C266.445 141.643 267.579 142.778 267.579 144.177Z" fill="white"/>
<path d="M278.559 144.177C278.559 145.577 277.424 146.711 276.025 146.711C274.625 146.711 273.491 145.577 273.491 144.177C273.491 142.778 274.625 141.643 276.025 141.643C277.424 141.643 278.559 142.778 278.559 144.177Z" fill="white"/>
<path d="M289.601 144.177C289.601 145.577 288.467 146.711 287.067 146.711C285.668 146.711 284.533 145.577 284.533 144.177C284.533 142.778 285.668 141.643 287.067 141.643C288.467 141.643 289.601 142.778 289.601 144.177Z" fill="white"/>
<path d="M292.002 49.1652H320.685C323.915 49.1652 326.534 51.7846 326.534 55.0151V71.0546C326.534 74.2851 323.915 76.9038 320.685 76.9038H318.235L319.619 81.1486C320.073 82.5401 318.488 83.7043 317.295 82.8543L308.952 76.9038H292.002C288.772 76.9038 286.153 74.2851 286.153 71.0546V55.0151C286.153 51.7846 288.772 49.1652 292.002 49.1652Z" fill="#FAABA1"/>
<path d="M297.988 63.3312C297.988 64.7307 296.853 65.8652 295.454 65.8652C294.054 65.8652 292.92 64.7307 292.92 63.3312C292.92 61.9317 294.054 60.7972 295.454 60.7972C296.853 60.7972 297.988 61.9317 297.988 63.3312Z" fill="white"/>
<path d="M308.966 63.3312C308.966 64.7307 307.832 65.8652 306.432 65.8652C305.033 65.8652 303.898 64.7307 303.898 63.3312C303.898 61.9317 305.033 60.7972 306.432 60.7972C307.832 60.7972 308.966 61.9317 308.966 63.3312Z" fill="white"/>
<path d="M320.009 63.3312C320.009 64.7307 318.874 65.8652 317.475 65.8652C316.075 65.8652 314.941 64.7307 314.941 63.3312C314.941 61.9317 316.075 60.7972 317.475 60.7972C318.874 60.7972 320.009 61.9317 320.009 63.3312Z" fill="white"/>
<path d="M238.732 84.4216H237.439C236.935 84.4216 236.527 84.0133 236.527 83.5094V81.9122C236.527 81.4083 236.119 81 235.615 81H233.029C232.526 81 232.117 81.4083 232.117 81.9122V83.5094C232.117 84.0133 231.708 84.4216 231.204 84.4216H229.912C229.408 84.4216 229 84.8299 229 85.3338V87.9192C229 88.4232 229.408 88.8315 229.912 88.8315H231.204C231.708 88.8315 232.117 89.2405 232.117 89.7445V91.1888C232.117 91.6927 232.526 92.1011 233.029 92.1011H235.615C236.119 92.1011 236.527 91.6927 236.527 91.1888V89.7445C236.527 89.2405 236.935 88.8315 237.439 88.8315H238.732C239.236 88.8315 239.645 88.4232 239.645 87.9192V85.3338C239.645 84.8299 239.236 84.4216 238.732 84.4216Z" fill="#CCDBF0"/>
<path d="M295.182 34.2498C295.182 36.049 293.723 37.5078 291.924 37.5078C290.125 37.5078 288.666 36.049 288.666 34.2498C288.666 32.4507 290.125 30.9918 291.924 30.9918C293.723 30.9918 295.182 32.4507 295.182 34.2498Z" fill="#EEFAFE"/>
<path d="M481.372 112.321C481.372 114.121 479.913 115.579 478.114 115.579C476.314 115.579 474.856 114.121 474.856 112.321C474.856 110.522 476.314 109.063 478.114 109.063C479.913 109.063 481.372 110.522 481.372 112.321Z" fill="#EEFAFE"/>
<path d="M324.218 185.117L328.26 196.166C329.163 198.634 327.893 201.358 325.425 202.261C322.964 203.162 320.236 201.901 319.333 199.433L315.29 188.384C314.389 185.923 315.657 183.193 318.119 182.292C319.349 181.842 320.653 181.927 321.757 182.441C322.856 182.956 323.767 183.887 324.218 185.117Z" fill="#CCDBF0"/>
<path d="M324.218 185.117L326.442 191.196L317.514 194.463L315.29 188.384C314.389 185.923 315.657 183.193 318.119 182.292C319.349 181.842 320.653 181.928 321.757 182.441C322.856 182.956 323.767 183.887 324.218 185.117Z" fill="#FAABA1"/>
<path d="M231.34 121.068C231.34 123.867 229.071 126.136 226.272 126.136C223.473 126.136 221.204 123.867 221.204 121.068C221.204 118.269 223.473 116 226.272 116C229.071 116 231.34 118.269 231.34 121.068Z" fill="#EEA096"/>
<path d="M230.136 121.068C230.136 122.762 229.303 124.261 228.029 125.173C227.66 125.448 227.262 125.666 226.827 125.818C226.284 126.028 225.691 126.136 225.068 126.136C222.266 126.136 220 123.87 220 121.068C220 119.642 220.586 118.353 221.542 117.434C221.868 117.108 222.244 116.833 222.65 116.608C223.367 116.217 224.192 116 225.068 116C227.863 116 230.136 118.266 230.136 121.068Z" fill="#FAABA1"/>
<path d="M228.346 125.245C227.975 125.529 227.574 125.752 227.136 125.909L221.814 117.278C222.142 116.942 222.521 116.659 222.929 116.428L228.346 125.245Z" fill="#EEA096"/>
<path d="M575.516 120.258C575.516 122.057 574.057 123.516 572.258 123.516C570.459 123.516 569 122.057 569 120.258C569 118.459 570.459 117 572.258 117C574.057 117 575.516 118.459 575.516 120.258Z" fill="#EEFAFE"/>
<path d="M582.516 207.258C582.516 209.058 581.057 210.516 579.258 210.516C577.459 210.516 576 209.058 576 207.258C576 205.459 577.459 204 579.258 204C581.057 204 582.516 205.459 582.516 207.258Z" fill="#EEFAFE"/>
<path d="M531.733 73.4216H530.44C529.936 73.4216 529.527 73.0133 529.527 72.5094V70.9122C529.527 70.4083 529.119 70 528.615 70H526.03C525.526 70 525.118 70.4083 525.118 70.9122V72.5094C525.118 73.0133 524.709 73.4216 524.205 73.4216H522.912C522.408 73.4216 522 73.8299 522 74.3338V76.9192C522 77.4232 522.408 77.8315 522.912 77.8315H524.205C524.709 77.8315 525.118 78.2405 525.118 78.7445V80.1888C525.118 80.6927 525.526 81.1011 526.03 81.1011H528.615C529.119 81.1011 529.527 80.6927 529.527 80.1888V78.7445C529.527 78.2405 529.936 77.8315 530.44 77.8315H531.733C532.237 77.8315 532.645 77.4232 532.645 76.9192V74.3338C532.645 73.8299 532.237 73.4216 531.733 73.4216Z" fill="#CCDBF0"/>
<path d="M548.733 254.422H547.44C546.936 254.422 546.527 254.013 546.527 253.509V251.912C546.527 251.408 546.119 251 545.615 251H543.03C542.526 251 542.118 251.408 542.118 251.912V253.509C542.118 254.013 541.709 254.422 541.205 254.422H539.912C539.408 254.422 539 254.83 539 255.334V257.919C539 258.423 539.408 258.831 539.912 258.831H541.205C541.709 258.831 542.118 259.24 542.118 259.744V261.189C542.118 261.693 542.526 262.101 543.03 262.101H545.615C546.119 262.101 546.527 261.693 546.527 261.189V259.744C546.527 259.24 546.936 258.831 547.44 258.831H548.733C549.237 258.831 549.645 258.423 549.645 257.919V255.334C549.645 254.83 549.237 254.422 548.733 254.422Z" fill="#CCDBF0"/>
<path d="M142.733 217.422H141.44C140.936 217.422 140.528 217.013 140.528 216.509V214.912C140.528 214.408 140.119 214 139.615 214H137.03C136.526 214 136.117 214.408 136.117 214.912V216.509C136.117 217.013 135.709 217.422 135.205 217.422H133.913C133.409 217.422 133 217.83 133 218.334V220.919C133 221.423 133.409 221.831 133.913 221.831H135.205C135.709 221.831 136.117 222.241 136.117 222.744V224.189C136.117 224.693 136.526 225.101 137.03 225.101H139.615C140.119 225.101 140.528 224.693 140.528 224.189V222.744C140.528 222.241 140.936 221.831 141.44 221.831H142.733C143.237 221.831 143.645 221.423 143.645 220.919V218.334C143.645 217.83 143.237 217.422 142.733 217.422Z" fill="#CCDBF0"/>
<path d="M93.5569 72.4216H92.2645C91.7605 72.4216 91.3518 72.0126 91.3518 71.5086V69.9122C91.3518 69.4083 90.9435 69 90.4395 69H87.8543C87.3503 69 86.9416 69.4083 86.9416 69.9122V71.5086C86.9416 72.0126 86.5332 72.4216 86.0293 72.4216H84.7368C84.2328 72.4216 83.8242 72.8299 83.8242 73.3338V75.9192C83.8242 76.4232 84.2328 76.8315 84.7368 76.8315H86.0293C86.5332 76.8315 86.9416 77.2398 86.9416 77.7437V79.1888C86.9416 79.6927 87.3503 80.1011 87.8543 80.1011H90.4395C90.9435 80.1011 91.3518 79.6927 91.3518 79.1888V77.7437C91.3518 77.2398 91.7605 76.8315 92.2645 76.8315H93.5569C94.0609 76.8315 94.4696 76.4232 94.4696 75.9192V73.3338C94.4696 72.8299 94.0609 72.4216 93.5569 72.4216Z" fill="#CCDBF0"/>
<path d="M75.516 179.258C75.516 181.057 74.0572 182.516 72.258 182.516C70.4584 182.516 69 181.057 69 179.258C69 177.459 70.4584 176 72.258 176C74.0572 176 75.516 177.459 75.516 179.258Z" fill="#EEFAFE"/>
</g>
<defs>
<linearGradient id="paint0_linear_863_10398" x1="325" y1="0" x2="325" y2="350" gradientUnits="userSpaceOnUse">
<stop stop-color="#DCF3FE"/>
<stop offset="1" stop-color="#DEF4FF"/>
</linearGradient>
<clipPath id="clip0_863_10398">
<rect width="650" height="350" fill="white"/>
</clipPath>
</defs>
</svg>
