<svg width="650" height="350" viewBox="0 0 650 350" fill="none" xmlns="http://www.w3.org/2000/svg">
<rect width="650" height="350" rx="5" fill="url(#paint0_linear_863_12133)"/>
<path d="M442.75 74C442.75 92.0873 428.087 106.75 410 106.75C391.913 106.75 377.25 92.0873 377.25 74C377.25 55.9127 391.913 41.25 410 41.25C428.087 41.25 442.75 55.9127 442.75 74Z" fill="white" stroke="#2773DD" stroke-width="0.5"/>
<rect x="410" y="54" width="1" height="20" fill="#00A3AB"/>
<rect x="395" y="75" width="0.999999" height="17" transform="rotate(-90 395 75)" fill="#00A3AB"/>
<path d="M414 74.5C414 76.433 412.433 78 410.5 78C408.567 78 407 76.433 407 74.5C407 72.567 408.567 71 410.5 71C412.433 71 414 72.567 414 74.5Z" fill="#00747A"/>
<rect x="125" y="278" width="400" height="1" fill="#68C6EF"/>
<path d="M268.5 145C267.7 140.2 268.167 134.667 268.5 132.5C280.167 126 304.8 106.5 328 94.5003C375.5 92.0002 357.5 132.5 363.5 150C368.3 164 365.5 175.5 363.5 179.5L332.5 189H313H303.5L284.5 186L266 179.5C267.667 176 271.1 168.4 271.5 166C272 163 269.5 151 268.5 145Z" fill="#000B1A"/>
<path d="M270 193C270 186.925 274.925 182 281 182H301.119L321.432 182L341.746 182L361 182C367.075 182 372 186.925 372 193V233C372 260.614 349.614 283 322 283H320C292.386 283 270 260.614 270 233V193Z" fill="#7A97FF"/>
<path d="M351.937 136.686C351.937 154.589 336.559 172.559 321.25 172.559C305.941 172.559 290.564 154.589 290.564 136.686C290.564 118.784 303.348 106 321.25 106C339.153 106 351.937 118.784 351.937 136.686Z" fill="#FBC26D"/>
<path d="M339 113C341 107.4 335.5 99.6001 321.5 94.0001C304 87.0001 275 114 269 130C263 146 292 153 293 148.5C294 144 299.5 141.5 302 134C304.15 127.548 307.882 124.564 314.5 121C321 117.5 336.5 120 339 113Z" fill="#000B19"/>
<path d="M352 106.5C349.6 102.5 334.667 101.167 327.5 101L318 103.5C321.167 105.833 327.3 115.3 334.5 118.5C343.5 122.5 350.5 129.5 352 132C353.5 134.5 356.5 133 356.5 130.5V120C356 117.167 354.4 110.5 352 106.5Z" fill="#000B19"/>
<path d="M304.673 182.5C303.567 180.574 312.453 177.313 312.453 167.805H329.309C329.309 176.795 338.649 180.339 337.52 182.5C331.583 193.871 310.627 192.872 304.673 182.5Z" fill="#FBC26D"/>
<rect x="273.178" y="182" width="25.0162" height="98" rx="12.5081" transform="rotate(19.1685 273.178 182)" fill="#7A97FF"/>
<rect width="25.0162" height="98" rx="12.5081" transform="matrix(-0.863513 0.504326 0.504326 0.863513 367.602 180)" fill="#7A97FF"/>
<rect width="25.0162" height="69.1449" rx="12.5081" transform="matrix(0.302888 0.953026 0.953026 -0.302888 340.5 265.943)" fill="#7A97FF"/>
<path d="M220 295.5H252.5M369.5 301.5H419.5M434 295.5H460.5" stroke="#0F5A7A" stroke-width="0.5"/>
<path d="M248.25 223.514C246.605 217.181 251.386 211 257.929 211H382.071C388.614 211 393.395 217.181 391.75 223.514L376.944 280.514C375.799 284.922 371.82 288 367.266 288H272.734C268.18 288 264.201 284.922 263.056 280.514L248.25 223.514Z" fill="white"/>
<ellipse cx="320" cy="254.5" rx="14" ry="8.5" fill="#00A3AB"/>
<rect x="59.25" y="160.25" width="91.5" height="63.5" stroke="black" stroke-width="0.5"/>
<rect x="71" y="193" width="10" height="18" fill="#01293A"/>
<rect x="88" y="186.458" width="10" height="24.5417" fill="#1A2E4A"/>
<rect x="106" y="180.646" width="10" height="30.3542" fill="#F53689"/>
<rect x="124" y="180.646" width="10" height="30.3542" fill="#00A3AB"/>
<path d="M73 188.5L91.5 181L110.5 168.5L128.5 176L138.5 165" stroke="#171818"/>
<ellipse cx="221" cy="179" rx="21" ry="12" fill="white"/>
<path d="M244.5 194C240.9 191.6 236 185 234 182L229 185.5C232.167 188.333 239.7 194 244.5 194Z" fill="white"/>
<circle cx="221" cy="179" r="2" fill="black"/>
<circle cx="228" cy="179" r="2" fill="black"/>
<circle cx="213" cy="179" r="2" fill="black"/>
<circle cx="110.5" cy="168.5" r="1.5" fill="#171818"/>
<circle cx="128.5" cy="175.5" r="1.5" fill="#171818"/>
<circle cx="91.5" cy="180.5" r="1.5" fill="#171818"/>
<path d="M175 256H203V282C203 284.761 200.761 287 198 287H180C177.239 287 175 284.761 175 282V256Z" fill="white"/>
<path d="M177.5 261H170L168.5 263V276.5L170 278H177.5" stroke="white" stroke-width="2" stroke-linecap="round" stroke-linejoin="round"/>
<path d="M192.973 253.3C193.249 254.088 193.325 254.823 193.281 255.394C193.281 255.026 193.191 254.267 192.973 253.3C192.203 251.098 189.879 248.484 184.281 247.894C174.781 246.894 171.281 243.894 173.781 239.894C176.281 235.894 179.781 236.894 180.281 237.894C180.781 238.894 180.781 241.895 186.281 243.895C190.431 245.404 192.304 250.329 192.973 253.3Z" fill="white" fill-opacity="0.6"/>
<path d="M191.481 252.944C191.339 253.766 191.05 254.446 190.734 254.924C190.913 254.602 191.202 253.894 191.481 252.944C191.876 250.644 191.112 247.231 186.503 244C178.682 238.516 177.077 234.195 181.203 231.91C185.33 229.625 187.905 232.198 187.857 233.315C187.809 234.432 186.354 237.055 190.193 241.472C193.09 244.806 192.337 250.021 191.481 252.944Z" fill="white" fill-opacity="0.6"/>
<rect x="431" y="177" width="88" height="57" rx="4" fill="white"/>
<rect x="438" y="199" width="37" height="20" rx="1" fill="#F6FFDE"/>
<rect x="477" y="199" width="37" height="20" rx="1" fill="#F6FFDE"/>
<rect x="438" y="181" width="16" height="16" rx="1" fill="#1A2E4A" fill-opacity="0.19"/>
<rect x="456" y="182" width="58" height="3" fill="#DCE5EA"/>
<rect x="456" y="187" width="51" height="3" fill="#DCE5EA"/>
<rect x="456" y="192" width="48" height="3" fill="#DCE5EA"/>
<rect x="438" y="222" width="77" height="10" rx="1" fill="#DEF4FF"/>
<rect x="515" y="123.467" width="53.7333" height="35.5333" rx="3" fill="white"/>
<path d="M520.633 152.934L541.433 138.85L563.497 152.934" stroke="black" stroke-width="0.2"/>
<path d="M519.369 130.4L542.3 143.834L563.497 130.4" stroke="black" stroke-width="0.5"/>
<g filter="url(#filter0_d_863_12133)">
<path d="M542.3 143.833L519 130H564L542.3 143.833Z" fill="white"/>
</g>
<circle cx="562.467" cy="124.467" r="3.46667" fill="#FF0000"/>
<path d="M172.787 84.3594C168.053 86.5509 164.105 90.1416 161.476 94.6472C158.847 99.1527 157.662 104.356 158.083 109.556L183.5 107.5L172.787 84.3594Z" fill="#F53689"/>
<path d="M201.531 89.4688C197.842 85.78 193.111 83.3114 187.976 82.3958C182.84 81.4802 177.547 82.1618 172.811 84.3486L183.5 107.5L201.531 89.4688Z" fill="#00A3AB"/>
<path d="M158.091 109.648C158.437 113.748 159.771 117.702 161.977 121.175C164.183 124.647 167.197 127.534 170.761 129.59C174.325 131.645 178.333 132.808 182.443 132.978C186.554 133.149 190.645 132.322 194.366 130.569C198.088 128.816 201.331 126.188 203.817 122.91C206.303 119.632 207.959 115.802 208.644 111.745C209.329 107.688 209.022 103.526 207.75 99.6137C206.478 95.7013 204.277 92.1549 201.337 89.277L183.5 107.5L158.091 109.648Z" fill="#2F22CD"/>
<rect x="37.9395" y="235.667" width="6.6" height="1.8" transform="rotate(45 37.9395 235.667)" fill="#6CF2AE"/>
<rect x="43.8792" y="241.606" width="6.6" height="1.8" transform="rotate(45 43.8792 241.606)" fill="#6CF2AE"/>
<rect x="48.5461" y="236.939" width="6.6" height="1.8" transform="rotate(135 48.5461 236.939)" fill="#6CF2AE"/>
<rect x="42.6064" y="242.879" width="6.6" height="1.8" transform="rotate(135 42.6064 242.879)" fill="#6CF2AE"/>
<rect x="548.106" y="224.706" width="6.6" height="1.8" fill="white"/>
<rect x="556.506" y="224.706" width="6.6" height="1.8" fill="white"/>
<rect x="556.506" y="218.106" width="6.6" height="1.8" transform="rotate(90 556.506 218.106)" fill="white"/>
<rect x="556.506" y="226.507" width="6.6" height="1.8" transform="rotate(90 556.506 226.507)" fill="white"/>
<rect x="245" y="105.6" width="6.6" height="1.8" fill="#F53689"/>
<rect x="253.4" y="105.6" width="6.6" height="1.8" fill="#F53689"/>
<rect x="253.4" y="99" width="6.6" height="1.8" transform="rotate(90 253.4 99)" fill="#F53689"/>
<rect x="253.4" y="107.4" width="6.6" height="1.8" transform="rotate(90 253.4 107.4)" fill="#F53689"/>
<rect x="95.9834" y="105.41" width="4.54454" height="1.23942" transform="rotate(45 95.9834 105.41)" fill="#00A3AB"/>
<rect x="100.073" y="109.5" width="4.54454" height="1.23942" transform="rotate(45 100.073 109.5)" fill="#00A3AB"/>
<rect x="103.287" y="106.286" width="4.54454" height="1.23942" transform="rotate(135 103.287 106.286)" fill="#00A3AB"/>
<rect x="99.1968" y="110.376" width="4.54454" height="1.23942" transform="rotate(135 99.1968 110.376)" fill="#00A3AB"/>
<circle cx="473.5" cy="110.5" r="6" stroke="#65F0AA"/>
<circle cx="76" cy="41" r="5" fill="#FFEE74"/>
<circle cx="553" cy="251" r="4.5" stroke="#00A3AB"/>
<path d="M319.5 132.426V142.871C319.412 142.946 319.174 143.101 318.606 143.271C317.428 143.625 314.987 144 310 144C305.013 144 302.572 143.625 301.394 143.271C300.826 143.101 300.588 142.946 300.5 142.871V132.426C300.655 132.402 300.849 132.372 301.076 132.338C301.7 132.245 302.572 132.121 303.568 131.996C305.566 131.747 308.041 131.5 310 131.5C311.959 131.5 314.434 131.747 316.432 131.996C317.428 132.121 318.3 132.245 318.924 132.338C319.151 132.372 319.345 132.402 319.5 132.426Z" stroke="#F53689"/>
<path d="M347.5 132.426V142.871C347.412 142.946 347.174 143.101 346.606 143.271C345.428 143.625 342.987 144 338 144C333.013 144 330.572 143.625 329.394 143.271C328.826 143.101 328.588 142.946 328.5 142.871V132.426C328.655 132.402 328.849 132.372 329.076 132.338C329.7 132.245 330.572 132.121 331.568 131.996C333.566 131.747 336.041 131.5 338 131.5C339.959 131.5 342.434 131.747 344.432 131.996C345.428 132.121 346.3 132.245 346.924 132.338C347.151 132.372 347.345 132.402 347.5 132.426Z" stroke="#F53689"/>
<path d="M319.5 137.5C320.833 136.333 324.5 134.7 328.5 137.5" stroke="#F53689"/>
<path d="M347.5 137.5L352 135.5" stroke="#F53689"/>
<defs>
<filter id="filter0_d_863_12133" x="517" y="129" width="49" height="17.833" filterUnits="userSpaceOnUse" color-interpolation-filters="sRGB">
<feFlood flood-opacity="0" result="BackgroundImageFix"/>
<feColorMatrix in="SourceAlpha" type="matrix" values="0 0 0 0 0 0 0 0 0 0 0 0 0 0 0 0 0 0 127 0" result="hardAlpha"/>
<feOffset dy="1"/>
<feGaussianBlur stdDeviation="1"/>
<feComposite in2="hardAlpha" operator="out"/>
<feColorMatrix type="matrix" values="0 0 0 0 0 0 0 0 0 0 0 0 0 0 0 0 0 0 0.15 0"/>
<feBlend mode="normal" in2="BackgroundImageFix" result="effect1_dropShadow_863_12133"/>
<feBlend mode="normal" in="SourceGraphic" in2="effect1_dropShadow_863_12133" result="shape"/>
</filter>
<linearGradient id="paint0_linear_863_12133" x1="325" y1="0" x2="325" y2="350" gradientUnits="userSpaceOnUse">
<stop stop-color="#F0FDF7"/>
<stop offset="1" stop-color="#EFFDF9"/>
</linearGradient>
</defs>
</svg>
