<svg width="650" height="350" viewBox="0 0 650 350" fill="none" xmlns="http://www.w3.org/2000/svg">
<g clip-path="url(#clip0_863_9945)">
<rect width="650" height="350" fill="url(#paint0_linear_863_9945)"/>
<path d="M226.256 120.591H343.219V37.4546H226.256V120.591ZM343.975 121.347H225.5V36.6986H343.975V121.347Z" fill="white"/>
<path d="M228.786 39.9844H222.97V34.1685H228.786V39.9844Z" fill="#1A2E4A"/>
<path d="M223.349 39.6063H228.409V34.5464H223.349V39.6063ZM229.165 40.3623H222.593V33.7904H229.165V40.3623Z" fill="white"/>
<path d="M346.323 40.2002H340.506V34.3835H346.323V40.2002Z" fill="#1A2E4A"/>
<path d="M340.884 39.8221H345.944V34.7615H340.884V39.8221ZM346.7 40.5781H340.128V34.0055H346.7V40.5781Z" fill="white"/>
<path d="M222.97 123.877H228.786V118.062H222.97V123.877Z" fill="#1A2E4A"/>
<path d="M223.349 123.499H228.409V118.439H223.349V123.499ZM229.165 124.255H222.593V117.683H229.165V124.255Z" fill="white"/>
<path d="M340.506 123.877H346.323V118.062H340.506V123.877Z" fill="#1A2E4A"/>
<path d="M340.884 123.499H345.944V118.439H340.884V123.499ZM346.7 124.255H340.128V117.683H346.7V124.255Z" fill="white"/>
<path d="M344.904 248.84H460.033V167.01H344.904V248.84ZM460.789 249.596H344.148V166.254H460.789V249.596Z" fill="white"/>
<path d="M341.663 169.495H347.389V163.769H341.663V169.495Z" fill="#1A2E4A"/>
<path d="M342.041 169.117H347.011V164.147H342.041V169.117ZM347.767 169.873H341.285V163.391H347.767V169.873Z" fill="white"/>
<path d="M463.094 169.707H457.368V163.981H463.094V169.707Z" fill="#1A2E4A"/>
<path d="M457.746 169.329H462.716V164.359H457.746V169.329ZM463.472 170.085H456.99V163.603H463.472V170.085Z" fill="white"/>
<path d="M341.663 252.081H347.389V246.355H341.663V252.081Z" fill="#1A2E4A"/>
<path d="M342.041 251.702H347.011V246.733H342.041V251.702ZM347.767 252.458H341.285V245.977H347.767V252.458Z" fill="white"/>
<path d="M463.094 252.081H457.368V246.355H463.094V252.081Z" fill="#1A2E4A"/>
<path d="M457.746 251.702H462.716V246.733H457.746V251.702ZM463.472 252.458H456.99V245.977H463.472V252.458Z" fill="white"/>
<path d="M385.226 332.741L268.612 332.688C257.853 332.683 249.134 324.926 249.139 315.361L249.277 66.6307C249.283 57.0658 258.01 49.3168 268.77 49.3214L385.384 49.3735C396.143 49.3781 404.862 57.1361 404.857 66.701L404.718 315.431C404.713 324.996 395.985 332.746 385.226 332.741Z" fill="#8FB0DE"/>
<path d="M385.227 332.363H385.236C395.767 332.363 404.335 324.77 404.34 315.431L404.48 66.7002C404.482 62.1838 402.503 57.9344 398.907 54.7342C395.297 51.5235 390.496 49.7537 385.385 49.7514L268.771 49.6993H268.761C258.231 49.6993 249.662 57.2933 249.656 66.6314L249.518 315.361C249.515 319.878 251.494 324.127 255.09 327.327C258.699 330.539 263.501 332.308 268.613 332.31L385.227 332.363ZM385.236 333.119H385.227L268.613 333.066C263.315 333.064 258.335 331.227 254.588 327.892C250.829 324.547 248.759 320.096 248.762 315.361L248.9 66.6306C248.906 56.8767 257.816 48.9433 268.761 48.9433H268.771L385.385 48.9954C390.681 48.9977 395.662 50.8355 399.409 54.1703C403.169 57.5156 405.238 61.9654 405.236 66.701L405.096 315.431C405.091 325.186 396.182 333.119 385.236 333.119Z" fill="#1A2E4A"/>
<path d="M380.764 328.22L273.269 328.173C263.35 328.168 255.314 320.668 255.319 311.421L255.453 70.9429C255.458 61.6963 263.502 54.2036 273.421 54.2081L380.916 54.2565C390.834 54.2603 398.871 61.7605 398.865 71.0079L398.731 311.485C398.726 320.732 390.682 328.225 380.764 328.22Z" fill="#1A2E4A"/>
<path d="M313.235 311.307C311.12 311.307 309.397 313.028 309.396 315.143V315.34C309.395 316.366 309.794 317.331 310.519 318.056C311.244 318.782 312.207 319.181 313.233 319.181L340.81 319.194H340.811C342.928 319.194 344.65 317.473 344.65 315.358V315.161C344.651 314.135 344.253 313.17 343.528 312.445C342.803 311.72 341.839 311.32 340.814 311.32L313.236 311.307H313.235ZM340.811 319.95H340.81L313.233 319.937C312.006 319.937 310.851 319.458 309.984 318.59C309.116 317.722 308.639 316.567 308.64 315.34V315.143C308.641 312.611 310.703 310.551 313.235 310.551H313.236L340.814 310.564C342.041 310.565 343.195 311.043 344.063 311.911C344.93 312.779 345.407 313.934 345.406 315.161V315.358C345.406 317.89 343.345 319.95 340.811 319.95Z" fill="white"/>
<path d="M394.509 299.435L260.125 299.375L260.245 85.6564L394.628 85.7161L394.509 299.435Z" fill="white"/>
<path d="M398.797 299.434H398.737L398.743 288.683H398.803L398.797 299.434ZM398.831 239.598H398.771L398.856 85.7155H398.918L398.831 239.598Z" fill="#FEF0F3"/>
<path d="M398.738 299.434L394.51 299.432L394.516 288.683H398.744L398.738 299.434ZM260.126 299.372L255.332 299.369L255.42 142.511H260.213L260.126 299.375M398.771 239.598H394.543L394.628 85.7162L297.408 85.6731V85.6701L398.857 85.7154L398.771 239.598Z" fill="#CACDD1"/>
<path d="M394.509 299.432L260.125 299.372L260.213 142.511H273.017V163.782H316.053V116.488V101.91H297.786V92.561L297.408 92.5625V85.6731L394.628 85.7162L394.543 239.598H351.274V238.301H348.081V241.651H349.3V286.631H348.081V289.981H351.274V288.683H394.515L394.509 299.435M325.269 158.074C325.061 158.074 324.891 158.243 324.891 158.452C324.891 158.66 325.059 158.83 325.268 158.83L354.647 158.876H354.648C354.856 158.876 355.026 158.707 355.026 158.499C355.026 158.289 354.857 158.12 354.649 158.12L325.27 158.074H325.269ZM362.11 149.216C361.902 149.216 361.732 149.384 361.732 149.593C361.732 149.801 361.901 149.971 362.11 149.972L384.045 150.006H384.046C384.254 150.006 384.424 149.837 384.424 149.628C384.424 149.419 384.256 149.25 384.046 149.25L362.111 149.216H362.11ZM325.29 149.159C325.081 149.159 324.912 149.327 324.912 149.536C324.912 149.745 325.081 149.914 325.289 149.915L358.503 149.949H358.504C358.714 149.949 358.882 149.78 358.882 149.571C358.882 149.362 358.714 149.193 358.505 149.193L325.291 149.159H325.29ZM346.48 140.049C346.271 140.049 346.102 140.218 346.102 140.427C346.102 140.636 346.271 140.805 346.48 140.806L384.046 140.839C384.255 140.839 384.424 140.671 384.424 140.462C384.424 140.252 384.255 140.084 384.046 140.083L346.48 140.049ZM325.29 139.992C325.081 139.992 324.913 140.161 324.912 140.37C324.911 140.579 325.08 140.748 325.289 140.748L342.366 140.782H342.367C342.574 140.782 342.744 140.614 342.745 140.405C342.745 140.197 342.576 140.027 342.367 140.026L325.291 139.992H325.29ZM325.311 132.244C325.103 132.244 324.933 132.413 324.933 132.621C324.933 132.831 325.102 133 325.31 133L384.066 133.091H384.067C384.275 133.091 384.445 132.922 384.445 132.714C384.445 132.505 384.276 132.336 384.068 132.335L325.312 132.244H325.311ZM362.11 123.723C361.902 123.723 361.732 123.891 361.732 124.1C361.732 124.309 361.901 124.479 362.11 124.479L384.045 124.513H384.046C384.254 124.513 384.424 124.344 384.424 124.135C384.424 123.927 384.256 123.757 384.046 123.757L362.111 123.723H362.11ZM325.29 123.666C325.081 123.666 324.912 123.835 324.912 124.044C324.912 124.252 325.081 124.422 325.289 124.422L358.503 124.456H358.504C358.714 124.456 358.882 124.287 358.882 124.078C358.882 123.87 358.714 123.7 358.505 123.7L325.291 123.666H325.29ZM346.48 114.557C346.271 114.557 346.102 114.725 346.102 114.934C346.102 115.143 346.271 115.312 346.48 115.313L384.046 115.347C384.255 115.347 384.424 115.177 384.424 114.969C384.424 114.76 384.255 114.591 384.046 114.591L346.48 114.557ZM325.29 114.5C325.081 114.5 324.913 114.669 324.912 114.877C324.911 115.086 325.08 115.255 325.289 115.256L342.366 115.29H342.367C342.574 115.29 342.744 115.121 342.745 114.913C342.745 114.703 342.576 114.534 342.367 114.533L325.291 114.5H325.29ZM325.311 106.752C325.103 106.752 324.933 106.92 324.933 107.129C324.933 107.338 325.102 107.507 325.31 107.508L384.066 107.599H384.067C384.275 107.599 384.445 107.429 384.445 107.221C384.445 107.012 384.276 106.843 384.068 106.843L325.312 106.752H325.311Z" fill="white"/>
<path d="M384.067 133.091H384.067L325.311 133C325.102 133 324.934 132.831 324.934 132.621C324.934 132.413 325.104 132.244 325.312 132.244H325.313L384.068 132.335C384.277 132.336 384.445 132.505 384.445 132.714C384.445 132.922 384.275 133.091 384.067 133.091Z" fill="#66657A"/>
<path d="M354.648 158.875H354.647L325.268 158.83C325.06 158.829 324.891 158.66 324.891 158.451C324.891 158.243 325.061 158.074 325.269 158.074H325.27L354.649 158.119C354.857 158.119 355.026 158.289 355.026 158.498C355.026 158.707 354.856 158.875 354.648 158.875Z" fill="#66657A"/>
<path d="M342.367 140.782H342.366L325.289 140.748C325.08 140.748 324.911 140.579 324.912 140.369C324.913 140.161 325.081 139.992 325.29 139.992H325.291L342.367 140.026C342.576 140.027 342.745 140.196 342.745 140.405C342.744 140.614 342.574 140.782 342.367 140.782Z" fill="#66657A"/>
<path d="M384.046 140.839L346.48 140.806C346.271 140.805 346.102 140.636 346.102 140.427C346.102 140.218 346.271 140.049 346.48 140.049L384.046 140.083C384.255 140.084 384.424 140.252 384.424 140.462C384.424 140.67 384.255 140.839 384.046 140.839Z" fill="#66657A"/>
<path d="M358.504 149.949H358.503L325.289 149.915C325.081 149.914 324.912 149.745 324.912 149.536C324.912 149.327 325.081 149.159 325.29 149.159H325.291L358.505 149.193C358.714 149.193 358.882 149.362 358.882 149.571C358.882 149.779 358.714 149.949 358.504 149.949Z" fill="#66657A"/>
<path d="M384.046 150.006H384.045L362.11 149.972C361.901 149.971 361.732 149.802 361.732 149.593C361.732 149.384 361.902 149.216 362.11 149.216H362.111L384.047 149.25C384.256 149.25 384.424 149.419 384.424 149.629C384.424 149.837 384.254 150.006 384.046 150.006Z" fill="#66657A"/>
<path d="M384.067 107.599H384.067L325.311 107.508C325.102 107.507 324.934 107.338 324.934 107.129C324.934 106.921 325.104 106.752 325.312 106.752H325.313L384.068 106.843C384.277 106.843 384.445 107.012 384.445 107.221C384.445 107.429 384.275 107.599 384.067 107.599Z" fill="#66657A"/>
<path d="M342.367 115.29H342.366L325.289 115.256C325.08 115.255 324.911 115.086 324.912 114.877C324.913 114.669 325.081 114.5 325.29 114.5H325.291L342.367 114.533C342.576 114.534 342.745 114.703 342.745 114.913C342.744 115.121 342.574 115.29 342.367 115.29Z" fill="#66657A"/>
<path d="M384.046 115.347L346.48 115.313C346.271 115.312 346.102 115.143 346.102 114.934C346.102 114.725 346.271 114.557 346.48 114.557L384.046 114.591C384.255 114.591 384.424 114.76 384.424 114.969C384.424 115.177 384.255 115.347 384.046 115.347Z" fill="#66657A"/>
<path d="M358.504 124.456H358.503L325.289 124.422C325.081 124.422 324.912 124.252 324.912 124.044C324.912 123.835 325.081 123.666 325.29 123.666H325.291L358.505 123.7C358.714 123.7 358.882 123.87 358.882 124.078C358.882 124.287 358.714 124.456 358.504 124.456Z" fill="#66657A"/>
<path d="M384.046 124.512H384.045L362.11 124.478C361.901 124.478 361.732 124.309 361.732 124.099C361.732 123.891 361.902 123.722 362.11 123.722H362.111L384.047 123.756C384.256 123.757 384.424 123.926 384.424 124.135C384.424 124.344 384.254 124.512 384.046 124.512Z" fill="#66657A"/>
<path d="M273.017 163.782H316.053V101.91H273.017V163.782Z" fill="#C9EBED"/>
<path d="M273.017 116.487H316.053V101.91H273.017V116.487Z" fill="#8AD4D9"/>
<path d="M273.536 229.387H345.241V175.947H273.536V229.387ZM345.997 230.143H272.78V175.191H345.997V230.143Z" fill="#1A2E4A"/>
<path d="M274.948 177.448H271.368V173.69H274.948V177.448Z" fill="#1A2E4A"/>
<path d="M347.296 177.587H343.716V173.83H347.296V177.587Z" fill="#1A2E4A"/>
<path d="M274.948 231.644H271.368V227.886H274.948V231.644Z" fill="#1A2E4A"/>
<path d="M347.296 231.644H343.716V227.886H347.296V231.644Z" fill="#1A2E4A"/>
<path d="M309.212 190.307H280.542C279.274 190.307 278.244 189.277 278.244 188.008C278.244 186.74 279.274 185.711 280.542 185.711H309.212C310.481 185.711 311.509 186.74 311.509 188.008C311.509 189.277 310.481 190.307 309.212 190.307Z" fill="#8FB0DE"/>
<path d="M309.212 209.113H280.542C279.274 209.113 278.244 208.084 278.244 206.815C278.244 205.546 279.274 204.516 280.542 204.516H309.212C310.481 204.516 311.509 205.546 311.509 206.815C311.509 208.084 310.481 209.113 309.212 209.113Z" fill="#8FB0DE"/>
<path d="M316.286 199.377H298.509C297.24 199.377 296.212 198.347 296.212 197.079C296.212 195.809 297.24 194.78 298.509 194.78H316.286C317.554 194.78 318.583 195.809 318.583 197.079C318.583 198.347 317.554 199.377 316.286 199.377Z" fill="#8FB0DE"/>
<path d="M326.855 190.307H317.623C316.353 190.307 315.324 189.277 315.324 188.008C315.324 186.74 316.353 185.711 317.623 185.711H326.855C328.124 185.711 329.152 186.74 329.152 188.008C329.152 189.277 328.124 190.307 326.855 190.307Z" fill="#8FB0DE"/>
<path d="M306.702 219.464H280.542C279.274 219.464 278.244 218.436 278.244 217.167C278.244 215.898 279.274 214.869 280.542 214.869H306.702C307.971 214.869 309 215.898 309 217.167C309 218.436 307.971 219.464 306.702 219.464Z" fill="#8FB0DE"/>
<path d="M323.013 219.464H314.825C313.556 219.464 312.527 218.436 312.527 217.167C312.527 215.898 313.556 214.869 314.825 214.869H323.013C324.283 214.869 325.311 215.898 325.311 217.167C325.311 218.436 324.283 219.464 323.013 219.464Z" fill="#8FB0DE"/>
<path d="M289.774 199.379H280.542C279.274 199.379 278.244 198.35 278.244 197.081C278.244 195.812 279.274 194.783 280.542 194.783H289.774C291.044 194.783 292.073 195.812 292.073 197.081C292.073 198.35 291.044 199.379 289.774 199.379Z" fill="#8FB0DE"/>
<path d="M273.79 282.906H339.276C339.873 282.906 340.357 282.421 340.357 281.823V246.031C340.357 245.433 339.873 244.949 339.276 244.949H273.79C273.192 244.949 272.708 245.433 272.708 246.031V281.823C272.708 282.421 273.192 282.906 273.79 282.906Z" fill="#C9EBED"/>
<path d="M278.044 262.424C278.044 268.086 282.634 272.676 288.295 272.676C293.957 272.676 298.547 268.086 298.547 262.424C298.547 256.763 293.957 252.174 288.295 252.174C282.634 252.174 278.044 256.763 278.044 262.424Z" fill="white"/>
<path d="M330.884 254.692H306.107C305.897 254.692 305.729 254.523 305.729 254.314C305.729 254.104 305.897 253.936 306.107 253.936H330.884C331.093 253.936 331.262 254.104 331.262 254.314C331.262 254.523 331.093 254.692 330.884 254.692Z" fill="white"/>
<path d="M335.054 268.817H321.399C321.191 268.817 321.021 268.648 321.021 268.439C321.021 268.23 321.191 268.061 321.399 268.061H335.054C335.262 268.061 335.432 268.23 335.432 268.439C335.432 268.648 335.262 268.817 335.054 268.817Z" fill="white"/>
<path d="M318.118 273.919H304.464C304.255 273.919 304.086 273.75 304.086 273.541C304.086 273.332 304.255 273.163 304.464 273.163H318.118C318.327 273.163 318.496 273.332 318.496 273.541C318.496 273.75 318.327 273.919 318.118 273.919Z" fill="white"/>
<path d="M319.776 263.901H304.464C304.255 263.901 304.086 263.732 304.086 263.523C304.086 263.314 304.255 263.145 304.464 263.145H319.776C319.984 263.145 320.154 263.314 320.154 263.523C320.154 263.732 319.984 263.901 319.776 263.901Z" fill="white"/>
<path d="M334.267 263.901H324.216C324.007 263.901 323.838 263.732 323.838 263.523C323.838 263.314 324.007 263.145 324.216 263.145H334.267C334.476 263.145 334.645 263.314 334.645 263.523C334.645 263.732 334.476 263.901 334.267 263.901Z" fill="#99D0F1"/>
<path d="M313.781 268.817H303.783C303.573 268.817 303.405 268.648 303.405 268.439C303.405 268.23 303.573 268.061 303.783 268.061H313.781C313.99 268.061 314.159 268.23 314.159 268.439C314.159 268.648 313.99 268.817 313.781 268.817Z" fill="#99D0F1"/>
<path d="M349.678 288.305H414.297V239.976H349.678V288.305Z" fill="white"/>
<path d="M405.111 288.683H412.599V288.305H405.111V288.683Z" fill="#7B6780"/>
<path d="M404.355 288.683H398.804L398.805 288.305H404.355V288.683Z" fill="#7B6780"/>
<path d="M404.355 288.683H405.111V288.305H404.355V288.683Z" fill="#1A2E4A"/>
<path d="M398.803 288.683H398.744V288.305H398.804L398.803 288.683Z" fill="#7E7F91"/>
<path d="M394.516 288.683H398.744V288.305H394.516V288.683Z" fill="#687084"/>
<path d="M351.275 288.683H394.516V288.305H351.275V288.683Z" fill="#808596"/>
<path d="M412.599 288.305H351.275V287.927H412.599V288.305Z" fill="#808596"/>
<path d="M414.675 286.63H414.297V249.595H414.675V286.63ZM414.675 248.839H414.297V241.775H414.675V248.839Z" fill="#7B6780"/>
<path d="M414.297 249.596H414.675V248.84H414.297V249.596Z" fill="#808596"/>
<path d="M414.297 286.63H413.919V241.775H414.297V248.839V249.595V286.63Z" fill="#808596"/>
<path d="M349.301 286.63H349.679V241.651H349.301V286.63Z" fill="#808596"/>
<path d="M349.678 286.63H350.056V241.651H349.678V286.63Z" fill="#808596"/>
<path d="M405.138 239.977H412.599V239.599H405.138V239.977Z" fill="#7B6780"/>
<path d="M398.831 239.977H404.382V239.599H398.831V239.977Z" fill="#7B6780"/>
<path d="M404.383 239.977H405.139V239.599H404.383V239.977Z" fill="#1A2E4A"/>
<path d="M398.771 239.977H398.831V239.599H398.771V239.977Z" fill="#7E7F91"/>
<path d="M394.543 239.977H398.772V239.599H394.543V239.977Z" fill="#687084"/>
<path d="M351.275 239.977H394.543V239.599H351.275V239.977Z" fill="#808596"/>
<path d="M412.599 240.354H351.275V239.976H412.599V240.354Z" fill="#808596"/>
<path d="M349.678 241.651H348.081V238.301H351.275V239.598V239.976H349.678V241.651Z" fill="#808596"/>
<path d="M351.275 241.651H349.678V239.976H351.275V240.354V241.651Z" fill="#808596"/>
<path d="M415.793 241.776H414.296V239.977H412.599V239.599V238.425H415.793V241.776Z" fill="#7B6780"/>
<path d="M414.296 241.776H412.599V239.977H414.296V241.776Z" fill="#808596"/>
<path d="M351.275 289.98H348.081V286.631H349.678V288.305H351.275V288.683V289.98Z" fill="#808596"/>
<path d="M351.275 288.305H349.678V286.631H351.275V287.927V288.305Z" fill="#808596"/>
<path d="M415.793 289.98H412.599V288.305H414.296V286.631H414.674H415.793V289.98Z" fill="#7B6780"/>
<path d="M414.296 288.305H412.599V286.631H414.296V288.305Z" fill="#808596"/>
<path d="M387.561 251.916H358.892C357.622 251.916 356.594 250.886 356.594 249.618C356.594 248.348 357.622 247.32 358.892 247.32H387.561C388.83 247.32 389.859 248.348 389.859 249.618C389.859 250.886 388.83 251.916 387.561 251.916Z" fill="#8FB0DE"/>
<path d="M387.561 270.722H358.892C357.622 270.722 356.594 269.692 356.594 268.424C356.594 267.155 357.622 266.126 358.892 266.126H387.561C388.83 266.126 389.859 267.155 389.859 268.424C389.859 269.692 388.83 270.722 387.561 270.722Z" fill="#8FB0DE"/>
<path d="M394.635 260.985H376.86C375.59 260.985 374.561 259.956 374.561 258.688C374.561 257.419 375.59 256.39 376.86 256.39H394.635C395.904 256.39 396.933 257.419 396.933 258.688C396.933 259.956 395.904 260.985 394.635 260.985Z" fill="#8FB0DE"/>
<path d="M405.204 251.916H395.971C394.702 251.916 393.674 250.886 393.674 249.618C393.674 248.348 394.702 247.32 395.971 247.32H405.204C406.473 247.32 407.502 248.348 407.502 249.618C407.502 250.886 406.473 251.916 405.204 251.916Z" fill="#8FB0DE"/>
<path d="M385.051 281.074H358.892C357.622 281.074 356.594 280.045 356.594 278.775C356.594 277.506 357.622 276.478 358.892 276.478H385.051C386.319 276.478 387.349 277.506 387.349 278.775C387.349 280.045 386.319 281.074 385.051 281.074Z" fill="#8FB0DE"/>
<path d="M401.363 281.074H393.174C391.905 281.074 390.876 280.045 390.876 278.775C390.876 277.506 391.905 276.478 393.174 276.478H401.363C402.631 276.478 403.66 277.506 403.66 278.775C403.66 280.045 402.631 281.074 401.363 281.074Z" fill="#8FB0DE"/>
<path d="M368.124 260.988H358.892C357.622 260.988 356.594 259.959 356.594 258.691C356.594 257.421 357.622 256.393 358.892 256.393H368.124C369.393 256.393 370.422 257.421 370.422 258.691C370.422 259.959 369.393 260.988 368.124 260.988Z" fill="#8FB0DE"/>
<path d="M428.016 159.208H379.882C379.284 159.208 378.799 158.723 378.799 158.126V115.83C378.799 115.232 379.284 114.748 379.882 114.748H428.016C428.614 114.748 429.097 115.232 429.097 115.83V158.126C429.097 158.723 428.614 159.208 428.016 159.208Z" fill="#C9EBED"/>
<path d="M386.632 122.025C386.535 122.025 386.439 121.988 386.365 121.915L382.879 118.428C382.731 118.281 382.731 118.041 382.879 117.894C383.026 117.746 383.265 117.746 383.414 117.894L386.899 121.381C387.047 121.528 387.047 121.767 386.899 121.915C386.825 121.988 386.729 122.025 386.632 122.025Z" fill="white"/>
<path d="M383.146 122.025C383.049 122.025 382.952 121.988 382.879 121.915C382.731 121.767 382.731 121.528 382.879 121.381L386.365 117.894C386.512 117.746 386.752 117.746 386.899 117.894C387.047 118.041 387.047 118.281 386.899 118.428L383.414 121.915C383.339 121.988 383.243 122.025 383.146 122.025Z" fill="white"/>
<path d="M387.742 137.757V134.841L399.409 129.703V133.059L391.421 136.266L391.529 136.092V136.506L391.421 136.332L399.409 139.539V142.895L387.742 137.757ZM410.307 125.319L404.837 145.638H401.796L407.265 125.319H410.307ZM424.363 137.757L412.695 142.895V139.539L420.684 136.332L420.576 136.506V136.092L420.684 136.266L412.695 133.059V129.703L424.363 134.841V137.757Z" fill="white"/>
<path d="M445.214 224.903H335.348C334.751 224.903 334.267 224.419 334.267 223.822V181.526C334.267 180.928 334.751 180.444 335.348 180.444H445.214C445.812 180.444 446.296 180.928 446.296 181.526V223.822C446.296 224.419 445.812 224.903 445.214 224.903Z" fill="#C9EBED"/>
<path d="M342.101 187.721C342.004 187.721 341.907 187.684 341.834 187.61L338.347 184.124C338.2 183.975 338.2 183.737 338.347 183.589C338.495 183.441 338.734 183.441 338.882 183.589L342.368 187.076C342.516 187.223 342.516 187.462 342.368 187.61C342.294 187.684 342.197 187.721 342.101 187.721Z" fill="white"/>
<path d="M338.615 187.721C338.518 187.721 338.421 187.684 338.347 187.61C338.2 187.462 338.2 187.223 338.347 187.076L341.834 183.589C341.981 183.441 342.22 183.441 342.368 183.589C342.516 183.737 342.516 183.975 342.368 184.124L338.882 187.61C338.808 187.684 338.711 187.721 338.615 187.721Z" fill="white"/>
<path d="M370.485 196.788H345.545C345.335 196.788 345.167 196.618 345.167 196.41C345.167 196.2 345.335 196.032 345.545 196.032H370.485C370.694 196.032 370.863 196.2 370.863 196.41C370.863 196.618 370.694 196.788 370.485 196.788Z" fill="white"/>
<path d="M399.201 196.788H376.97C376.761 196.788 376.592 196.618 376.592 196.41C376.592 196.2 376.761 196.032 376.97 196.032H399.201C399.41 196.032 399.579 196.2 399.579 196.41C399.579 196.618 399.41 196.788 399.201 196.788Z" fill="white"/>
<path d="M367.775 210.829H345.545C345.335 210.829 345.167 210.659 345.167 210.451C345.167 210.242 345.335 210.073 345.545 210.073H367.775C367.983 210.073 368.153 210.242 368.153 210.451C368.153 210.659 367.983 210.829 367.775 210.829Z" fill="white"/>
<path d="M388.815 203.412H366.585C366.375 203.412 366.207 203.244 366.207 203.034C366.207 202.825 366.375 202.656 366.585 202.656H388.815C389.023 202.656 389.193 202.825 389.193 203.034C389.193 203.244 389.023 203.412 388.815 203.412Z" fill="white"/>
<path d="M360.137 203.412H345.545C345.335 203.412 345.167 203.244 345.167 203.034C345.167 202.825 345.335 202.656 345.545 202.656H360.137C360.346 202.656 360.515 202.825 360.515 203.034C360.515 203.244 360.346 203.412 360.137 203.412Z" fill="white"/>
<path d="M383.583 210.829H374.611C374.402 210.829 374.233 210.659 374.233 210.451C374.233 210.242 374.402 210.073 374.611 210.073H383.583C383.792 210.073 383.961 210.242 383.961 210.451C383.961 210.659 383.792 210.829 383.583 210.829Z" fill="white"/>
<path d="M418.506 196.788H393.566C393.357 196.788 393.188 196.618 393.188 196.41C393.188 196.2 393.357 196.032 393.566 196.032H418.506C418.715 196.032 418.884 196.2 418.884 196.41C418.884 196.618 418.715 196.788 418.506 196.788Z" fill="white"/>
<path d="M431.277 196.788H411.517C411.308 196.788 411.139 196.618 411.139 196.41C411.139 196.2 411.308 196.032 411.517 196.032H431.277C431.486 196.032 431.655 196.2 431.655 196.41C431.655 196.618 431.486 196.788 431.277 196.788Z" fill="white"/>
<path d="M415.796 210.829H393.566C393.357 210.829 393.188 210.659 393.188 210.451C393.188 210.242 393.357 210.073 393.566 210.073H415.796C416.005 210.073 416.174 210.242 416.174 210.451C416.174 210.659 416.005 210.829 415.796 210.829Z" fill="white"/>
<path d="M436.836 203.412H414.605C414.396 203.412 414.227 203.244 414.227 203.034C414.227 202.825 414.396 202.656 414.605 202.656H436.836C437.045 202.656 437.214 202.825 437.214 203.034C437.214 203.244 437.045 203.412 436.836 203.412Z" fill="white"/>
<path d="M408.159 203.412H393.566C393.357 203.412 393.188 203.244 393.188 203.034C393.188 202.825 393.357 202.656 393.566 202.656H408.159C408.367 202.656 408.537 202.825 408.537 203.034C408.537 203.244 408.367 203.412 408.159 203.412Z" fill="white"/>
<path d="M431.604 210.829H422.632C422.423 210.829 422.254 210.659 422.254 210.451C422.254 210.242 422.423 210.073 422.632 210.073H431.604C431.813 210.073 431.982 210.242 431.982 210.451C431.982 210.659 431.813 210.829 431.604 210.829Z" fill="white"/>
<path d="M200.062 148.048H185.524C181.368 148.048 178 144.679 178 140.524V140.523C178 136.368 181.368 133 185.524 133H200.062C204.217 133 207.586 136.368 207.586 140.523V140.524C207.586 144.679 204.217 148.048 200.062 148.048Z" fill="#8AD4D9"/>
<path d="M188.118 138.28C188.091 138.01 187.976 137.8 187.773 137.65C187.569 137.5 187.294 137.425 186.945 137.425C186.708 137.425 186.508 137.459 186.345 137.526C186.182 137.591 186.057 137.681 185.97 137.797C185.885 137.914 185.842 138.045 185.842 138.193C185.838 138.316 185.864 138.423 185.919 138.515C185.978 138.606 186.057 138.686 186.157 138.753C186.258 138.817 186.374 138.874 186.506 138.924C186.638 138.97 186.779 139.011 186.928 139.044L187.545 139.192C187.844 139.259 188.119 139.348 188.369 139.46C188.62 139.571 188.836 139.709 189.02 139.872C189.203 140.035 189.345 140.227 189.445 140.448C189.548 140.67 189.601 140.923 189.603 141.209C189.601 141.629 189.493 141.994 189.281 142.302C189.071 142.608 188.767 142.846 188.369 143.016C187.974 143.183 187.497 143.267 186.938 143.267C186.384 143.267 185.902 143.182 185.49 143.012C185.082 142.843 184.762 142.591 184.532 142.258C184.304 141.923 184.184 141.509 184.173 141.015H185.578C185.593 141.245 185.659 141.437 185.775 141.591C185.894 141.743 186.051 141.858 186.248 141.937C186.447 142.013 186.671 142.051 186.922 142.051C187.167 142.051 187.381 142.015 187.562 141.943C187.745 141.872 187.887 141.772 187.987 141.645C188.088 141.518 188.138 141.371 188.138 141.206C188.138 141.052 188.092 140.922 188.001 140.817C187.911 140.712 187.78 140.623 187.605 140.549C187.433 140.475 187.222 140.408 186.972 140.348L186.224 140.16C185.646 140.019 185.189 139.799 184.854 139.5C184.518 139.201 184.352 138.797 184.354 138.29C184.352 137.874 184.463 137.511 184.686 137.201C184.912 136.89 185.221 136.648 185.614 136.474C186.008 136.299 186.455 136.212 186.955 136.212C187.464 136.212 187.909 136.299 188.289 136.474C188.671 136.648 188.968 136.89 189.18 137.201C189.393 137.511 189.502 137.871 189.509 138.28H188.118ZM193.17 140.784H194.403L195.023 141.581L195.633 142.292L196.783 143.733H195.429L194.638 142.761L194.232 142.185L193.17 140.784ZM196.887 139.738C196.887 140.486 196.745 141.123 196.461 141.648C196.179 142.173 195.795 142.574 195.308 142.852C194.823 143.126 194.278 143.264 193.672 143.264C193.062 143.264 192.515 143.125 192.03 142.848C191.545 142.571 191.162 142.17 190.881 141.645C190.599 141.12 190.458 140.484 190.458 139.738C190.458 138.989 190.599 138.353 190.881 137.828C191.162 137.302 191.545 136.903 192.03 136.628C192.515 136.351 193.062 136.212 193.672 136.212C194.278 136.212 194.823 136.351 195.308 136.628C195.795 136.903 196.179 137.302 196.461 137.828C196.745 138.353 196.887 138.989 196.887 139.738ZM195.415 139.738C195.415 139.253 195.343 138.844 195.197 138.511C195.054 138.178 194.852 137.926 194.591 137.754C194.329 137.582 194.023 137.496 193.672 137.496C193.322 137.496 193.015 137.582 192.754 137.754C192.493 137.926 192.289 138.178 192.144 138.511C192.001 138.844 191.93 139.253 191.93 139.738C191.93 140.223 192.001 140.632 192.144 140.965C192.289 141.298 192.493 141.55 192.754 141.722C193.015 141.894 193.322 141.98 193.672 141.98C194.023 141.98 194.329 141.894 194.591 141.722C194.852 141.55 195.054 141.298 195.197 140.965C195.343 140.632 195.415 140.223 195.415 139.738ZM197.962 143.17V136.306H199.413V141.973H202.355V143.17H197.962Z" fill="white"/>
<path d="M432.748 99.5799H472.109V71.747H432.748V99.5799ZM472.865 100.336H431.992V70.991H472.865V100.336Z" fill="white"/>
<path d="M433.359 72.3604H431.378V70.3781H433.359V72.3604Z" fill="#1A2E4A"/>
<path d="M431.756 71.9823H432.982V70.7561H431.756V71.9823ZM433.738 72.7383H431V70.0001H433.738V72.7383Z" fill="white"/>
<path d="M473.415 72.4336H471.433V70.4514H473.415V72.4336Z" fill="#1A2E4A"/>
<path d="M471.811 72.0555H473.037V70.8293H471.811V72.0555ZM473.793 72.8115H471.055V70.0733H473.793V72.8115Z" fill="white"/>
<path d="M473.415 100.949H471.433V98.9677H473.415V100.949Z" fill="#1A2E4A"/>
<path d="M471.811 100.571H473.037V99.3457H471.811V100.571ZM473.793 101.327H471.055V98.5897H473.793V101.327Z" fill="white"/>
<path d="M459 94.5H445.928C440.918 94.5 436.856 90.4388 436.856 85.428C436.856 80.418 440.918 76.356 445.928 76.356H459C464.01 76.356 468.072 80.418 468.072 85.428C468.072 90.4388 464.01 94.5 459 94.5Z" fill="#8AD4D9"/>
<path d="M442.409 85.9519V84.1417L449.65 80.9531V83.036L444.692 85.0262L444.759 84.9182V85.1754L444.692 85.0674L449.65 87.0577V89.1405L442.409 85.9519ZM456.413 78.2325L453.018 90.8428H451.131L454.525 78.2325H456.413ZM465.136 85.9519L457.895 89.1405V87.0577L462.853 85.0674L462.786 85.1754V84.9182L462.853 85.0262L457.895 83.036V80.9531L465.136 84.1417V85.9519Z" fill="white"/>
<path d="M177.748 288.58H217.109V260.747H177.748V288.58ZM217.865 289.336H176.992V259.991H217.865V289.336Z" fill="white"/>
<path d="M178.359 261.36H176.378V259.378H178.359V261.36Z" fill="#1A2E4A"/>
<path d="M176.756 260.982H177.982V259.756H176.756V260.982ZM178.738 261.738H176V259H178.738V261.738Z" fill="white"/>
<path d="M218.415 261.434H216.433V259.451H218.415V261.434Z" fill="#1A2E4A"/>
<path d="M216.811 261.056H218.037V259.829H216.811V261.056ZM218.793 261.812H216.055V259.073H218.793V261.812Z" fill="white"/>
<path d="M218.415 289.949H216.433V287.968H218.415V289.949Z" fill="#1A2E4A"/>
<path d="M216.811 289.571H218.037V288.346H216.811V289.571ZM218.793 290.327H216.055V287.59H218.793V290.327Z" fill="white"/>
<path d="M204 283.5H190.928C185.918 283.5 181.856 279.439 181.856 274.428C181.856 269.418 185.918 265.356 190.928 265.356H204C209.01 265.356 213.072 269.418 213.072 274.428C213.072 279.439 209.01 283.5 204 283.5Z" fill="#8AD4D9"/>
<path d="M187.409 274.952V273.142L194.65 269.953V272.036L189.692 274.026L189.759 273.918V274.175L189.692 274.067L194.65 276.058V278.141L187.409 274.952ZM201.413 267.233L198.018 279.843H196.131L199.525 267.233H201.413ZM210.136 274.952L202.895 278.141V276.058L207.853 274.067L207.786 274.175V273.918L207.853 274.026L202.895 272.036V269.953L210.136 273.142V274.952Z" fill="white"/>
<path d="M229.713 195.816H211.502C207.911 195.816 205 192.906 205 189.315C205 185.724 207.911 182.812 211.502 182.812H229.713C233.304 182.812 236.215 185.724 236.215 189.315C236.215 192.906 233.304 195.816 229.713 195.816Z" fill="#8FB0DE"/>
<path d="M214.7 192.128C214.027 192.128 213.448 191.986 212.962 191.7C212.48 191.412 212.109 191.013 211.85 190.502C211.593 189.991 211.464 189.403 211.464 188.738C211.464 188.065 211.594 187.474 211.854 186.966C212.116 186.455 212.489 186.057 212.971 185.772C213.453 185.484 214.027 185.34 214.692 185.34C215.265 185.34 215.767 185.444 216.198 185.652C216.629 185.86 216.97 186.153 217.221 186.53C217.473 186.906 217.611 187.349 217.637 187.857H215.916C215.867 187.528 215.739 187.264 215.531 187.065C215.325 186.862 215.056 186.761 214.722 186.761C214.439 186.761 214.192 186.838 213.981 186.992C213.773 187.143 213.61 187.364 213.493 187.655C213.376 187.946 213.318 188.299 213.318 188.713C213.318 189.132 213.375 189.489 213.489 189.783C213.606 190.077 213.77 190.301 213.981 190.455C214.192 190.609 214.439 190.686 214.722 190.686C214.93 190.686 215.117 190.643 215.282 190.558C215.451 190.472 215.589 190.348 215.698 190.185C215.809 190.02 215.882 189.821 215.916 189.59H217.637C217.608 190.092 217.471 190.535 217.226 190.917C216.983 191.297 216.648 191.593 216.22 191.807C215.792 192.021 215.285 192.128 214.7 192.128ZM224.274 187.3L222.605 187.403C222.577 187.26 222.515 187.132 222.421 187.018C222.327 186.901 222.203 186.808 222.049 186.739C221.897 186.668 221.716 186.632 221.505 186.632C221.222 186.632 220.984 186.692 220.79 186.812C220.596 186.929 220.499 187.086 220.499 187.283C220.499 187.44 220.562 187.573 220.687 187.681C220.813 187.79 221.028 187.877 221.334 187.942L222.524 188.182C223.163 188.313 223.639 188.524 223.953 188.815C224.267 189.106 224.424 189.489 224.424 189.963C224.424 190.393 224.297 190.772 224.043 191.097C223.792 191.422 223.447 191.676 223.007 191.859C222.571 192.039 222.067 192.128 221.496 192.128C220.626 192.128 219.933 191.947 219.416 191.585C218.903 191.22 218.601 190.723 218.513 190.095L220.306 190.001C220.361 190.266 220.492 190.469 220.7 190.609C220.909 190.746 221.175 190.814 221.501 190.814C221.82 190.814 222.077 190.753 222.271 190.63C222.468 190.505 222.568 190.343 222.571 190.147C222.568 189.981 222.498 189.846 222.361 189.74C222.224 189.632 222.013 189.549 221.728 189.492L220.589 189.265C219.947 189.136 219.469 188.914 219.155 188.597C218.844 188.28 218.689 187.877 218.689 187.386C218.689 186.963 218.803 186.6 219.031 186.294C219.262 185.989 219.586 185.753 220.003 185.588C220.422 185.422 220.913 185.34 221.475 185.34C222.305 185.34 222.959 185.515 223.435 185.866C223.915 186.217 224.195 186.695 224.274 187.3ZM231.043 187.3L229.373 187.403C229.345 187.26 229.284 187.132 229.189 187.018C229.095 186.901 228.971 186.808 228.817 186.739C228.666 186.668 228.485 186.632 228.273 186.632C227.991 186.632 227.753 186.692 227.559 186.812C227.365 186.929 227.267 187.086 227.267 187.283C227.267 187.44 227.33 187.573 227.456 187.681C227.581 187.79 227.797 187.877 228.102 187.942L229.292 188.182C229.931 188.313 230.408 188.524 230.722 188.815C231.036 189.106 231.193 189.489 231.193 189.963C231.193 190.393 231.066 190.772 230.812 191.097C230.561 191.422 230.215 191.676 229.776 191.859C229.339 192.039 228.836 192.128 228.265 192.128C227.394 192.128 226.701 191.947 226.185 191.585C225.671 191.22 225.37 190.723 225.281 190.095L227.075 190.001C227.129 190.266 227.26 190.469 227.469 190.609C227.677 190.746 227.944 190.814 228.269 190.814C228.589 190.814 228.846 190.753 229.04 190.63C229.236 190.505 229.336 190.343 229.339 190.147C229.336 189.981 229.266 189.846 229.129 189.74C228.992 189.632 228.781 189.549 228.496 189.492L227.357 189.265C226.715 189.136 226.237 188.914 225.923 188.597C225.612 188.28 225.457 187.877 225.457 187.386C225.457 186.963 225.571 186.6 225.799 186.294C226.03 185.989 226.354 185.753 226.771 185.588C227.19 185.422 227.681 185.34 228.243 185.34C229.074 185.34 229.727 185.515 230.204 185.866C230.683 186.217 230.963 186.695 231.043 187.3Z" fill="white"/>
<path d="M451.713 292.816H433.502C429.911 292.816 427 289.906 427 286.315C427 282.724 429.911 279.812 433.502 279.812H451.713C455.304 279.812 458.215 282.724 458.215 286.315C458.215 289.906 455.304 292.816 451.713 292.816Z" fill="#8FB0DE"/>
<path d="M436.7 289.128C436.027 289.128 435.448 288.986 434.962 288.7C434.48 288.412 434.109 288.013 433.85 287.502C433.593 286.991 433.464 286.403 433.464 285.738C433.464 285.065 433.594 284.474 433.854 283.966C434.116 283.455 434.489 283.057 434.971 282.772C435.453 282.484 436.027 282.34 436.692 282.34C437.265 282.34 437.767 282.444 438.198 282.652C438.629 282.86 438.97 283.153 439.221 283.53C439.473 283.906 439.611 284.349 439.637 284.857H437.916C437.867 284.528 437.739 284.264 437.531 284.065C437.325 283.862 437.056 283.761 436.722 283.761C436.439 283.761 436.192 283.838 435.981 283.992C435.773 284.143 435.61 284.364 435.493 284.655C435.376 284.946 435.318 285.299 435.318 285.713C435.318 286.132 435.375 286.489 435.489 286.783C435.606 287.077 435.77 287.301 435.981 287.455C436.192 287.609 436.439 287.686 436.722 287.686C436.93 287.686 437.117 287.643 437.282 287.558C437.451 287.472 437.589 287.348 437.698 287.185C437.809 287.02 437.882 286.821 437.916 286.59H439.637C439.608 287.092 439.471 287.535 439.226 287.917C438.983 288.297 438.648 288.593 438.22 288.807C437.792 289.021 437.285 289.128 436.7 289.128ZM446.274 284.3L444.605 284.403C444.577 284.26 444.515 284.132 444.421 284.018C444.327 283.901 444.203 283.808 444.049 283.739C443.897 283.668 443.716 283.632 443.505 283.632C443.222 283.632 442.984 283.692 442.79 283.812C442.596 283.929 442.499 284.086 442.499 284.283C442.499 284.44 442.562 284.573 442.687 284.681C442.813 284.79 443.028 284.877 443.334 284.942L444.524 285.182C445.163 285.313 445.639 285.524 445.953 285.815C446.267 286.106 446.424 286.489 446.424 286.963C446.424 287.393 446.297 287.772 446.043 288.097C445.792 288.422 445.447 288.676 445.007 288.859C444.571 289.039 444.067 289.128 443.496 289.128C442.626 289.128 441.933 288.947 441.416 288.585C440.903 288.22 440.601 287.723 440.513 287.095L442.306 287.001C442.361 287.266 442.492 287.469 442.7 287.609C442.909 287.746 443.175 287.814 443.501 287.814C443.82 287.814 444.077 287.753 444.271 287.63C444.468 287.505 444.568 287.343 444.571 287.147C444.568 286.981 444.498 286.846 444.361 286.74C444.224 286.632 444.013 286.549 443.728 286.492L442.589 286.265C441.947 286.136 441.469 285.914 441.155 285.597C440.844 285.28 440.689 284.877 440.689 284.386C440.689 283.963 440.803 283.6 441.031 283.294C441.262 282.989 441.586 282.753 442.003 282.588C442.422 282.422 442.913 282.34 443.475 282.34C444.305 282.34 444.959 282.515 445.435 282.866C445.915 283.217 446.195 283.695 446.274 284.3ZM453.043 284.3L451.373 284.403C451.345 284.26 451.284 284.132 451.189 284.018C451.095 283.901 450.971 283.808 450.817 283.739C450.666 283.668 450.485 283.632 450.273 283.632C449.991 283.632 449.753 283.692 449.559 283.812C449.365 283.929 449.267 284.086 449.267 284.283C449.267 284.44 449.33 284.573 449.456 284.681C449.581 284.79 449.797 284.877 450.102 284.942L451.292 285.182C451.931 285.313 452.408 285.524 452.722 285.815C453.036 286.106 453.193 286.489 453.193 286.963C453.193 287.393 453.066 287.772 452.812 288.097C452.561 288.422 452.215 288.676 451.776 288.859C451.339 289.039 450.836 289.128 450.265 289.128C449.394 289.128 448.701 288.947 448.185 288.585C447.671 288.22 447.37 287.723 447.281 287.095L449.075 287.001C449.129 287.266 449.26 287.469 449.469 287.609C449.677 287.746 449.944 287.814 450.269 287.814C450.589 287.814 450.846 287.753 451.04 287.63C451.236 287.505 451.336 287.343 451.339 287.147C451.336 286.981 451.266 286.846 451.129 286.74C450.992 286.632 450.781 286.549 450.496 286.492L449.357 286.265C448.715 286.136 448.237 285.914 447.923 285.597C447.612 285.28 447.457 284.877 447.457 284.386C447.457 283.963 447.571 283.6 447.799 283.294C448.03 282.989 448.354 282.753 448.771 282.588C449.19 282.422 449.681 282.34 450.243 282.34C451.074 282.34 451.727 282.515 452.204 282.866C452.683 283.217 452.963 283.695 453.043 284.3Z" fill="white"/>
<path d="M294.001 142.132H220.275C218.392 142.132 216.867 140.843 216.867 139.253V90.8249V85.3749C216.867 83.785 218.392 82.496 220.275 82.496H294.001C295.882 82.496 297.408 83.785 297.408 85.3749V139.253C297.408 140.843 295.882 142.132 294.001 142.132Z" fill="white"/>
<path d="M217.246 93.6686V139.364C217.246 140.682 218.605 141.755 220.275 141.755H294.001C295.671 141.755 297.031 140.682 297.031 139.364V93.3201L217.246 93.6686ZM294.001 142.511H220.275C218.188 142.511 216.49 141.099 216.49 139.364V92.9156L297.787 92.5611V139.364C297.787 141.099 296.089 142.511 294.001 142.511Z" fill="#1A2E4A"/>
<path d="M216.433 93.6489V85.3254C216.433 83.7627 217.972 82.4964 219.87 82.4964H294.286C296.186 82.4964 297.725 83.7627 297.725 85.3254V93.2853" fill="#C9EBED"/>
<path d="M222.68 87.2362C222.191 87.2362 221.792 87.6618 221.792 88.1842C221.792 88.7058 222.191 89.1307 222.68 89.1307C223.17 89.1307 223.569 88.7058 223.569 88.1842C223.569 87.6618 223.17 87.2362 222.68 87.2362ZM222.68 89.8867C221.774 89.8867 221.036 89.1232 221.036 88.1842C221.036 87.2445 221.774 86.4802 222.68 86.4802C223.587 86.4802 224.325 87.2445 224.325 88.1842C224.325 89.1232 223.587 89.8867 222.68 89.8867Z" fill="white"/>
<path d="M227.431 87.2362C226.942 87.2362 226.544 87.6618 226.544 88.1842C226.544 88.7058 226.942 89.1307 227.431 89.1307C227.921 89.1307 228.32 88.7058 228.32 88.1842C228.32 87.6618 227.921 87.2362 227.431 87.2362ZM227.431 89.8867C226.525 89.8867 225.788 89.1232 225.788 88.1842C225.788 87.2445 226.525 86.4802 227.431 86.4802C228.338 86.4802 229.076 87.2445 229.076 88.1842C229.076 89.1232 228.338 89.8867 227.431 89.8867Z" fill="white"/>
<path d="M232.092 87.2362C231.603 87.2362 231.204 87.6618 231.204 88.1842C231.204 88.7058 231.603 89.1307 232.092 89.1307C232.582 89.1307 232.98 88.7058 232.98 88.1842C232.98 87.6618 232.582 87.2362 232.092 87.2362ZM232.092 89.8867C231.185 89.8867 230.448 89.1232 230.448 88.1842C230.448 87.2445 231.185 86.4802 232.092 86.4802C232.999 86.4802 233.736 87.2445 233.736 88.1842C233.736 89.1232 232.999 89.8867 232.092 89.8867Z" fill="white"/>
<path d="M291.486 138.439H222.789C221.321 138.439 220.126 137.244 220.126 135.776V97.6656C220.126 96.1975 221.321 95.003 222.789 95.003H291.486C292.955 95.003 294.149 96.1975 294.149 97.6656V135.776C294.149 137.244 292.955 138.439 291.486 138.439ZM222.789 95.759C221.738 95.759 220.882 96.614 220.882 97.6656V135.776C220.882 136.828 221.738 137.683 222.789 137.683H291.486C292.537 137.683 293.393 136.828 293.393 135.776V97.6656C293.393 96.614 292.537 95.759 291.486 95.759H222.789Z" fill="#A9B7C8"/>
<path d="M247.345 132.185H228.424V110.546H247.345V132.185ZM229.18 111.302V131.429H246.589V111.302H229.18Z" fill="#CACBCF"/>
<path d="M246.967 108.743H246.88V101.374H228.801H229.218H246.967V108.743Z" fill="#CCD2EE"/>
<path d="M285.61 118.252H285.522V101.373H256.539H285.61V101.761V118.252Z" fill="#CCD2EE"/>
<path d="M246.88 108.743H228.714V101.374H246.88V108.743Z" fill="#FDE8EB"/>
<path d="M285.521 118.252H256.451V101.373H285.521V101.761V118.252Z" fill="#FDE8EB"/>
<path d="M285.987 133.143H256.161V122.878H285.987V133.143ZM256.917 123.634V132.387H285.231V123.634H256.917Z" fill="#CACBCF"/>
<path d="M246.88 108.743H228.714V101.374H246.88V108.743Z" fill="#8FB0DE"/>
<path d="M256.451 118.252V101.373H285.521V118.252H256.451Z" fill="#8FB0DE"/>
<path d="M262.346 107.602C261.346 107.602 260.532 108.416 260.532 109.417C260.532 110.418 261.346 111.232 262.346 111.232C263.347 111.232 264.162 110.418 264.162 109.417C264.162 108.416 263.347 107.602 262.346 107.602ZM262.346 111.799C261.033 111.799 259.965 110.731 259.965 109.417C259.965 108.103 261.033 107.035 262.346 107.035C263.66 107.035 264.729 108.103 264.729 109.417C264.729 110.731 263.66 111.799 262.346 111.799Z" fill="white"/>
<path d="M271.108 107.602C270.107 107.602 269.292 108.416 269.292 109.417C269.292 110.418 270.107 111.232 271.108 111.232C272.108 111.232 272.922 110.418 272.922 109.417C272.922 108.416 272.108 107.602 271.108 107.602ZM271.108 111.799C269.794 111.799 268.725 110.731 268.725 109.417C268.725 108.103 269.794 107.035 271.108 107.035C272.421 107.035 273.489 108.103 273.489 109.417C273.489 110.731 272.421 111.799 271.108 111.799Z" fill="white"/>
<path d="M279.626 107.602C278.626 107.602 277.812 108.416 277.812 109.417C277.812 110.418 278.626 111.232 279.626 111.232C280.627 111.232 281.441 110.418 281.441 109.417C281.441 108.416 280.627 107.602 279.626 107.602ZM279.626 111.799C278.313 111.799 277.245 110.731 277.245 109.417C277.245 108.103 278.313 107.035 279.626 107.035C280.94 107.035 282.008 108.103 282.008 109.417C282.008 110.731 280.94 111.799 279.626 111.799Z" fill="white"/>
<path d="M180.8 277.296C181.635 277.607 184.655 277.59 185.592 277.398C186.203 277.272 186.598 276.671 186.473 276.06C186.412 275.764 186.239 275.509 185.986 275.342C185.733 275.175 185.43 275.118 185.134 275.178C184.446 275.321 181.588 276.701 180.8 277.296ZM183.197 278.285C181.788 278.285 180.264 278.135 179.948 277.543C179.88 277.416 179.879 277.263 179.945 277.123C180.303 276.36 184.353 274.568 184.982 274.439C185.476 274.338 185.981 274.434 186.402 274.711C186.823 274.989 187.111 275.413 187.213 275.908C187.422 276.928 186.763 277.928 185.744 278.137C185.598 278.167 184.443 278.285 183.197 278.285Z" fill="white"/>
<path d="M180.622 277.814C180.697 278.7 181.518 281.592 181.897 282.208C182.055 282.466 182.304 282.646 182.598 282.717C182.896 282.788 183.197 282.737 183.454 282.58C183.986 282.253 184.152 281.554 183.826 281.022C183.333 280.22 181.36 278.107 180.622 277.814ZM182.864 283.504C182.718 283.504 182.569 283.487 182.423 283.452C181.932 283.334 181.516 283.033 181.252 282.603C181.041 282.259 179.334 277.614 180.095 277.128C180.206 277.057 180.397 276.985 180.674 277.05C181.814 277.31 184.082 279.995 184.469 280.626C184.734 281.056 184.815 281.563 184.698 282.053C184.581 282.544 184.279 282.959 183.85 283.224C183.548 283.409 183.209 283.504 182.864 283.504Z" fill="white"/>
<path d="M229.176 147.664L224.84 154.114L229.176 147.664Z" fill="#F57F92"/>
</g>
<defs>
<linearGradient id="paint0_linear_863_9945" x1="325" y1="0" x2="325" y2="350" gradientUnits="userSpaceOnUse">
<stop stop-color="#DCF3FE"/>
<stop offset="1" stop-color="#DEF4FF"/>
</linearGradient>
<clipPath id="clip0_863_9945">
<rect width="650" height="350" fill="white"/>
</clipPath>
</defs>
</svg>
