<svg width="650" height="350" viewBox="0 0 650 350" fill="none" xmlns="http://www.w3.org/2000/svg">
<g clip-path="url(#clip0_863_10124)">
<rect width="650" height="350" fill="url(#paint0_linear_863_10124)"/>
<path opacity="0.93" d="M217.787 180.587C203.927 187.434 186.952 190.327 173.777 197.935C140.177 217.334 143.991 265.492 177.149 293.525C210.307 321.557 263.65 328.394 301.533 314.217C323.153 306.127 341.954 291.917 367.128 292.257C393.269 292.607 420.226 308.938 445.425 305.748C472.753 302.289 484.708 277.029 482.719 253.775C480.729 230.522 468.992 207.254 465.89 183.942C459.359 134.885 473.384 23.1476 365.91 40.3121C271.641 55.3663 285.934 146.905 217.795 180.589L217.787 180.587Z" fill="#C9EBED"/>
<path d="M406.247 87.1525C406.247 87.1525 404.934 74.9253 413.528 71.966C413.528 71.966 419.298 70.7987 422.511 72.7726C422.511 72.7726 412.442 80.7905 413.447 82.6121C414.453 84.4338 424.283 72.8506 424.283 72.8506C424.283 72.8506 434.234 76.4296 436.275 79.8567C436.275 79.8567 423.91 84.3609 425.332 85.7289C426.755 87.097 439.677 83.0809 439.677 83.0809C439.677 83.0809 447.385 89.4585 443.371 96.1827C439.355 102.91 435.263 103.529 434.039 102.673C432.817 101.814 427.08 94.0269 426.19 95.3568C425.3 96.6868 427.578 103.679 430.714 105.554C430.714 105.554 420.056 111.3 417.288 106.66C414.519 102.019 416.24 97.7848 414.477 94.9658C412.713 92.1466 410.543 91.0437 410.799 93.1336C411.056 95.2204 414.885 99.0729 414.618 103.187C414.35 107.3 414.494 110.239 410.702 107.255C406.911 104.272 402.121 96.7288 404.185 91.9391C406.247 87.1525 406.247 87.1525 406.247 87.1525Z" fill="#8AD4D9"/>
<path d="M438.998 94.1913C438.998 94.1913 415.985 80.9447 406.245 87.1509C406.245 87.1509 402.78 91.0942 397.123 93.4129L395.56 95.1099C395.56 95.1099 402.543 91.5324 404.183 91.9376C404.183 91.9376 407.492 79.7897 438.998 94.1913Z" fill="#86D1D6"/>
<path d="M397.123 93.413C397.123 93.413 389.544 95.7448 384.708 104.356L385.573 104.933C385.573 104.933 391.829 96.6705 396.568 94.6103C401.309 92.547 397.123 93.413 397.123 93.413Z" fill="#AEC3FF"/>
<path d="M391.18 64.9328C391.18 64.9328 404.284 62.7891 404.684 51.0168C404.684 51.0168 404.101 43.3685 401.054 39.9228C401.054 39.9228 395.859 55.1316 393.656 54.427C391.453 53.7224 400.422 37.7087 400.422 37.7087C400.422 37.7087 393.615 26.2513 389.42 24.7423C389.42 24.7423 388.588 41.7575 386.725 40.3879C384.861 39.0183 385.016 21.4463 385.016 21.4463C385.016 21.4463 375.999 13.6943 370.265 20.8543C364.531 28.0143 365.158 33.3783 366.428 34.6565C367.697 35.9346 377.568 40.7577 376.463 42.297C375.359 43.8333 367.389 43.1323 364.47 39.7516C364.47 39.7516 361.818 54.9965 367.495 57.0539C373.173 59.1081 377.036 55.6153 380.51 56.9681C383.983 58.3207 385.804 60.7178 383.556 61.0437C381.309 61.3664 376.118 57.729 371.931 59.3447C367.744 60.9604 364.648 61.692 368.923 65.5564C373.199 69.4175 382.519 73.1219 386.851 69.0257C391.18 64.9327 391.18 64.9328 391.18 64.9328Z" fill="#A0E3E8"/>
<path d="M373.691 25.7546C373.691 25.7546 394.595 50.7036 391.181 64.933C391.181 64.933 388.162 70.5369 387.515 78.3996L386.239 80.9014C386.239 80.9014 387.78 70.9724 386.851 69.026C386.851 69.026 398.437 61.0676 373.691 25.7546Z" fill="#94DCE1"/>
<path d="M387.516 78.4C387.516 78.4 387.449 88.6982 380.012 97.4833L379.143 96.5695C379.143 96.5695 385.778 86.1016 386.445 79.4741C387.112 72.8465 387.516 78.4 387.516 78.4Z" fill="#D4E4F8"/>
<path d="M411.272 63.0086C411.272 63.0086 403.417 47.3692 415.67 37.8316C415.67 37.8316 424.284 32.5317 430.319 33.1156C430.319 33.1156 418.108 50.4329 420.566 52.237C423.021 54.0442 433.169 32.0795 433.169 32.0795C433.169 32.0795 450.662 30.4784 455.519 33.7858C455.519 33.7858 438.007 47.8401 440.912 48.7671C443.815 49.6971 462.445 35.9338 462.445 35.9338C462.445 35.9338 477.695 39.5578 474.493 51.2174C471.29 62.8769 465.081 66.3586 462.735 65.992C460.389 65.6253 447.602 58.8277 446.816 61.1964C446.03 63.5651 452.947 71.5233 458.813 72.0251C458.813 72.0251 444.596 86.6546 438.01 82.1856C431.423 77.7168 432.159 70.893 428.028 68.2313C423.898 65.5696 419.93 65.4853 421.323 68.1352C422.715 70.785 430.614 73.5089 432.131 79.2269C433.647 84.9449 435.261 88.8169 427.831 87.2422C420.401 85.6675 409.236 78.5876 410.254 70.7982C411.272 63.0086 411.272 63.0086 411.272 63.0086Z" fill="#A0E3E8"/>
<path d="M466.61 51.352C466.61 51.352 423.81 48.3536 411.269 63.008C411.269 63.008 407.624 70.5671 399.736 77.3424L398.054 80.639C398.054 80.639 407.456 71.3113 410.251 70.7976C410.251 70.7976 409.778 52.2745 466.61 51.352Z" fill="#94DCE1"/>
<path d="M399.736 77.3421C399.736 77.3421 388.798 85.3834 385.179 100.119L386.826 100.34C386.826 100.34 392.862 85.1577 399.419 79.3153C405.976 73.473 399.736 77.3421 399.736 77.3421Z" fill="#D4E4F8"/>
<path d="M312 257.475C312 257.475 256.975 141.239 212.29 165.272C167.604 189.305 298.642 267 298.642 267L312 257.475Z" fill="#8AD4D9"/>
<path d="M302.247 265C298.624 259.19 294.787 253.474 290.742 247.863C288.745 247.472 286.725 247.146 284.716 246.815C278.769 245.837 272.686 245.074 266.615 245.074C266.037 245.074 265.457 245.081 264.88 245.095C264.604 244.902 264.325 244.708 264.048 244.514C264.236 244.504 264.423 244.491 264.611 244.483C265.51 244.448 266.409 244.432 267.309 244.432C271.078 244.432 274.846 244.722 278.575 245.17C280.961 245.457 283.336 245.807 285.703 246.189C287.16 246.425 288.614 246.688 290.069 246.936C289.473 246.116 288.889 245.289 288.284 244.472C284.616 239.526 280.768 234.676 276.782 229.907C276.726 229.92 276.67 229.928 276.615 229.928C276.579 229.928 276.544 229.924 276.511 229.917C273.431 229.208 270.326 228.609 267.183 228.13C259.863 227.016 252.423 226.46 244.982 226.46C243.346 226.46 241.707 226.487 240.072 226.541C239.851 226.362 239.633 226.183 239.414 226.004C240.592 225.951 241.77 225.896 242.95 225.87C243.954 225.849 244.958 225.837 245.961 225.837C256.07 225.837 266.122 226.931 275.958 228.915C274.171 226.796 272.364 224.69 270.517 222.608C267.018 218.663 263.398 214.795 259.684 210.993C256.521 210.34 253.308 209.838 250.084 209.459C245.431 208.911 240.732 208.638 236.031 208.638C231.027 208.638 226.022 208.948 221.072 209.564C220.916 209.406 220.763 209.25 220.609 209.093C221.368 208.989 222.129 208.89 222.891 208.801C227.487 208.267 232.098 208.006 236.705 208.006C244.068 208.006 251.418 208.673 258.656 209.953C256.034 207.292 253.376 204.655 250.652 202.067C246.629 198.244 242.482 194.514 238.246 190.857C235.404 190.227 232.53 189.704 229.628 189.31C224.874 188.663 220.059 188.343 215.242 188.343C211.913 188.343 208.582 188.496 205.273 188.799C205.178 188.598 205.09 188.397 205 188.198C208.503 187.845 212.029 187.671 215.558 187.671C222.793 187.671 230.031 188.404 237.059 189.84C234.374 187.543 231.664 185.268 228.9 183.039C222.384 177.782 215.628 172.732 208.685 167.874C208.855 167.744 209.025 167.613 209.202 167.484C217.187 172.98 224.883 178.767 232.285 184.812C234.432 186.567 236.546 188.351 238.641 190.15C238.434 188.045 238.335 185.94 238.398 183.825C238.518 179.817 239.131 175.814 240.202 171.909C240.657 170.253 241.214 168.618 241.834 167C242.118 167.149 242.4 167.299 242.684 167.453C239.855 174.91 238.767 182.865 239.569 190.666C239.578 190.75 239.536 190.82 239.478 190.88C244.431 195.163 249.249 199.557 253.905 204.067C255.953 206.051 257.963 208.064 259.951 210.09C259.663 207.662 259.663 205.199 259.885 202.769C260.412 196.998 262.266 191.235 265.333 185.998C265.587 186.27 265.84 186.544 266.094 186.818C264.287 190.01 262.914 193.371 262.022 196.831C260.839 201.412 260.576 206.062 261.024 210.727C261.035 210.852 260.963 210.954 260.86 211.028C265.234 215.516 269.475 220.094 273.552 224.776C274.514 225.881 275.451 227.002 276.397 228.118C276.74 226.482 277.182 224.861 277.72 223.262C278.903 219.741 280.519 216.321 282.534 213.078C283.16 212.07 283.836 211.08 284.536 210.1C284.713 210.353 284.888 210.608 285.064 210.861C285.099 210.911 285.133 210.96 285.167 211.01C281.264 216.603 278.638 222.747 277.261 229.132C282.094 234.886 286.709 240.77 291.075 246.782C291.162 246.901 291.245 247.024 291.332 247.145C291.626 247.191 291.92 247.235 292.215 247.279C292.531 245.709 293.005 244.162 293.581 242.645C294.867 239.256 296.716 235.915 299.077 232.881C299.283 233.233 299.49 233.587 299.693 233.934C298.374 235.705 297.207 237.555 296.23 239.479C294.848 242.202 293.89 245.024 293.154 247.915C293.104 248.116 292.865 248.241 292.633 248.241C292.588 248.241 292.544 248.236 292.501 248.227C292.346 248.193 292.188 248.163 292.031 248.13C295.876 253.484 299.538 258.932 303 264.468L302.247 265Z" fill="#3BB78F"/>
<path d="M295 281.136C295 281.136 204.51 201.723 182.768 238.916C159.581 278.584 289.688 293 289.688 293L295 281.136Z" fill="#8AD4D9"/>
<path d="M259.056 287.999C258.97 287.984 258.892 287.969 258.807 287.953C258.685 287.93 258.562 287.907 258.44 287.884C258.249 287.848 258.056 287.811 257.863 287.775C259.686 285.855 261.639 284.017 263.814 282.376C264.982 281.493 266.212 280.666 267.503 279.914C268.696 279.218 270.089 278.682 271.173 277.863C271.352 277.728 271.509 277.579 271.65 277.423C265.644 274.469 259.576 271.604 253.449 268.832C251.408 270.124 249.423 271.479 247.501 272.895C244.117 275.388 240.923 278.066 237.946 280.904C237.24 281.577 236.559 282.264 235.889 282.958C235.682 282.906 235.48 282.855 235.273 282.803C235.09 282.756 234.908 282.709 234.725 282.662C239.933 277.33 245.881 272.533 252.418 268.366C251.693 268.04 250.972 267.709 250.247 267.385C243.844 264.53 237.378 261.775 230.859 259.116L231 259.312C231.198 259.571 230.988 259.867 230.687 259.961C228.013 260.801 225.477 261.969 223.145 263.351C218.973 265.822 215.45 269.002 212.325 272.378C211.551 273.214 210.804 274.068 210.073 274.931C209.736 274.8 209.4 274.668 209.066 274.535C214.468 268.163 220.992 262.223 229.783 259.321C229.562 259.024 229.354 258.721 229.14 258.419C228.332 258.092 227.526 257.761 226.716 257.436C221.296 255.27 215.834 253.18 210.337 251.154C208.091 251.418 205.896 251.923 203.793 252.638C197.485 254.78 192.478 258.566 187.551 262.391C187.339 262.201 187.132 262.01 186.927 261.818C187.504 261.345 188.076 260.87 188.671 260.408C194.388 255.974 200.962 251.815 208.724 250.556C206.679 249.809 204.63 249.071 202.575 248.343C195.771 245.931 188.909 243.637 182 241.447C182.081 241.276 182.172 241.105 182.259 240.934C190.185 243.412 198.049 246.032 205.84 248.798C207.017 249.215 208.188 249.645 209.362 250.069C208.569 248.664 207.775 247.26 206.982 245.855C204.019 240.608 201.083 235.35 198.181 230.079C198.434 230.05 198.688 230.022 198.944 230C199.452 230.867 199.963 231.734 200.463 232.605C203.889 238.58 207.303 244.558 210.699 250.544L210.702 250.553C216.624 252.711 222.498 254.96 228.331 257.283C227.72 256.375 227.136 255.452 226.589 254.514C222.874 248.153 220.689 241.243 220.071 234.174C220.054 233.965 220.236 233.861 220.429 233.861C220.624 233.861 220.828 233.966 220.848 234.174C221.039 236.146 221.355 238.105 221.81 240.046C223.288 246.358 226.074 252.436 230.011 257.944C237.53 260.964 244.968 264.126 252.323 267.423C251.768 265.951 251.217 264.479 250.688 263C248.643 257.276 246.892 251.491 245.303 245.667C245.615 245.848 245.927 246.03 246.237 246.212C246.486 247.038 246.72 247.868 246.979 248.691C249.01 255.182 251.222 261.637 253.671 268.025C259.873 270.825 266.015 273.722 272.093 276.709C272.139 276.573 272.172 276.432 272.179 276.282C272.216 275.5 271.952 274.681 271.808 273.912C271.507 272.301 271.21 270.69 270.914 269.077C270.446 266.531 269.979 263.985 269.51 261.438C269.817 261.657 270.118 261.875 270.422 262.092L272.107 270.418C272.432 272.021 272.761 273.625 273.07 275.229C273.196 275.88 273.27 276.53 273.004 277.16C274.163 277.731 275.325 278.301 276.479 278.879C281.7 281.496 286.879 284.178 292 286.935L291.815 287.341L291.641 287.723C285.575 284.455 279.441 281.276 273.235 278.199C273.01 278.089 272.785 277.98 272.561 277.869C272.342 278.13 272.085 278.37 271.8 278.58C270.672 279.417 269.279 279.978 268.048 280.7C266.712 281.482 265.45 282.351 264.252 283.279C262.37 284.737 260.66 286.331 259.055 288" fill="#3BB78F"/>
<path d="M405.374 52.0954V305.836C405.374 310.31 401.76 313.932 397.286 313.932H276.087C271.614 313.932 268 310.31 268 305.836V52.0954C268 47.6219 271.614 44.0001 276.087 44.0001H322.629C325.822 44.0001 397.286 44.0001 397.286 44.0001C401.76 44.0001 405.374 47.6219 405.374 52.0954Z" fill="white"/>
<path d="M284.901 65.6513L282.077 62.8279L284.901 60.0029C285.132 59.772 285.132 59.3971 284.901 59.1663C284.67 58.9354 284.296 58.9354 284.065 59.1663L280.92 62.3105C280.635 62.5963 280.635 63.0587 280.92 63.3445L284.065 66.4879C284.296 66.7195 284.67 66.7195 284.901 66.4879C285.132 66.2571 285.132 65.8829 284.901 65.6513Z" fill="#30273B"/>
<path d="M389.811 60.4805H380.66C380.312 60.4805 380.029 60.1979 380.029 59.85C380.029 59.5014 380.312 59.2188 380.66 59.2188H389.811C390.16 59.2188 390.443 59.5014 390.443 59.85C390.443 60.1979 390.16 60.4805 389.811 60.4805Z" fill="#30273B"/>
<path d="M389.811 63.5068H380.66C380.312 63.5068 380.029 63.2243 380.029 62.8764C380.029 62.5278 380.312 62.246 380.66 62.246H389.811C390.16 62.246 390.443 62.5278 390.443 62.8764C390.443 63.2243 390.16 63.5068 389.811 63.5068Z" fill="#30273B"/>
<path d="M389.811 66.5332H380.66C380.312 66.5332 380.029 66.2514 380.029 65.9028C380.029 65.5549 380.312 65.2723 380.66 65.2723H389.811C390.16 65.2723 390.443 65.5549 390.443 65.9028C390.443 66.2514 390.16 66.5332 389.811 66.5332Z" fill="#30273B"/>
<path d="M316.056 119H282.97C280.849 119 279.131 117.281 279.131 115.161V82.0751C279.131 79.9546 280.849 78.2352 282.97 78.2352H316.056C318.176 78.2352 319.896 79.9546 319.896 82.0751V115.161C319.896 117.281 318.176 119 316.056 119Z" fill="#F2F5F5"/>
<path d="M326.581 96.937V89.9384H329.76C330.52 89.9384 331.19 90.0851 331.77 90.3783C332.35 90.6649 332.803 91.0682 333.129 91.5881C333.456 92.108 333.619 92.7245 333.619 93.4377C333.619 94.1442 333.456 94.7608 333.129 95.2873C332.803 95.8072 332.35 96.2138 331.77 96.5071C331.19 96.7937 330.52 96.937 329.76 96.937H326.581ZM328.2 95.6073H329.68C330.147 95.6073 330.55 95.5206 330.89 95.3473C331.237 95.1674 331.503 94.9141 331.69 94.5875C331.883 94.2609 331.98 93.8776 331.98 93.4377C331.98 92.9911 331.883 92.6079 331.69 92.2879C331.503 91.9613 331.237 91.7114 330.89 91.5381C330.55 91.3581 330.147 91.2681 329.68 91.2681H328.2V95.6073ZM334.731 96.937V91.5581H336.221V93.0778L336.011 92.6379C336.171 92.2579 336.427 91.9713 336.78 91.778C337.134 91.5781 337.564 91.4781 338.07 91.4781V92.9178C338.004 92.9112 337.944 92.9078 337.89 92.9078C337.837 92.9012 337.78 92.8978 337.72 92.8978C337.294 92.8978 336.947 93.0211 336.681 93.2677C336.421 93.5077 336.291 93.8843 336.291 94.3975V96.937H334.731ZM339.529 97.017C339.262 97.017 339.032 96.927 338.839 96.747C338.652 96.5604 338.559 96.3238 338.559 96.0372C338.559 95.7506 338.652 95.5206 338.839 95.3473C339.032 95.1674 339.262 95.0774 339.529 95.0774C339.802 95.0774 340.032 95.1674 340.219 95.3473C340.405 95.5206 340.499 95.7506 340.499 96.0372C340.499 96.3238 340.405 96.5604 340.219 96.747C340.032 96.927 339.802 97.017 339.529 97.017ZM345.787 97.057C345.314 97.057 344.877 96.9703 344.477 96.797C344.084 96.6171 343.761 96.3638 343.507 96.0372L344.407 94.9574C344.6 95.2107 344.804 95.404 345.017 95.5373C345.23 95.6639 345.46 95.7273 345.707 95.7273C346.367 95.7273 346.697 95.3407 346.697 94.5675V91.2382H344.237V89.9384H348.306V94.4775C348.306 95.344 348.093 95.9905 347.667 96.4171C347.24 96.8437 346.613 97.057 345.787 97.057ZM353.096 96.937V95.8872L352.996 95.6573V93.7776C352.996 93.4444 352.892 93.1844 352.686 92.9978C352.486 92.8112 352.176 92.7179 351.756 92.7179C351.469 92.7179 351.186 92.7645 350.906 92.8578C350.633 92.9445 350.399 93.0645 350.206 93.2178L349.646 92.128C349.94 91.9213 350.293 91.7614 350.706 91.6481C351.119 91.5348 351.539 91.4781 351.966 91.4781C352.786 91.4781 353.422 91.6714 353.875 92.058C354.329 92.4446 354.555 93.0478 354.555 93.8676V96.937H353.096ZM351.456 97.017C351.036 97.017 350.676 96.947 350.376 96.807C350.076 96.6604 349.846 96.4638 349.686 96.2172C349.526 95.9705 349.446 95.6939 349.446 95.3873C349.446 95.0674 349.523 94.7874 349.676 94.5475C349.836 94.3075 350.086 94.1209 350.426 93.9876C350.766 93.8476 351.209 93.7776 351.756 93.7776H353.186V94.6875H351.926C351.559 94.6875 351.306 94.7475 351.166 94.8674C351.033 94.9874 350.966 95.1374 350.966 95.3173C350.966 95.5173 351.043 95.6773 351.196 95.7972C351.356 95.9106 351.573 95.9672 351.846 95.9672C352.106 95.9672 352.339 95.9072 352.546 95.7872C352.752 95.6606 352.902 95.4773 352.996 95.2374L353.236 95.9572C353.122 96.3038 352.916 96.5671 352.616 96.747C352.316 96.927 351.929 97.017 351.456 97.017ZM359.236 91.4781C359.663 91.4781 360.043 91.5648 360.376 91.7381C360.716 91.9047 360.983 92.1646 361.176 92.5179C361.369 92.8645 361.466 93.3111 361.466 93.8576V96.937H359.906V94.0976C359.906 93.6643 359.809 93.3444 359.616 93.1378C359.43 92.9311 359.163 92.8278 358.816 92.8278C358.57 92.8278 358.346 92.8812 358.146 92.9878C357.953 93.0878 357.8 93.2444 357.687 93.4577C357.58 93.671 357.527 93.9443 357.527 94.2775V96.937H355.967V91.5581H357.457V93.0478L357.177 92.5979C357.37 92.238 357.647 91.9613 358.006 91.768C358.366 91.5748 358.776 91.4781 359.236 91.4781ZM365.588 97.017C364.975 97.017 364.435 96.897 363.968 96.6571C363.508 96.4171 363.152 96.0905 362.899 95.6773C362.645 95.2573 362.519 94.7808 362.519 94.2476C362.519 93.7077 362.642 93.2311 362.889 92.8178C363.142 92.3979 363.485 92.0713 363.918 91.838C364.352 91.5981 364.842 91.4781 365.388 91.4781C365.915 91.4781 366.388 91.5914 366.808 91.818C367.234 92.038 367.571 92.3579 367.818 92.7778C368.064 93.1911 368.188 93.6877 368.188 94.2675C368.188 94.3275 368.184 94.3975 368.178 94.4775C368.171 94.5508 368.164 94.6208 368.158 94.6875H363.788V93.7776H367.338L366.738 94.0476C366.738 93.7676 366.681 93.5244 366.568 93.3177C366.455 93.1111 366.298 92.9511 366.098 92.8378C365.898 92.7179 365.665 92.6579 365.398 92.6579C365.131 92.6579 364.895 92.7179 364.688 92.8378C364.488 92.9511 364.332 93.1144 364.218 93.3277C364.105 93.5344 364.048 93.781 364.048 94.0676V94.3075C364.048 94.6008 364.112 94.8608 364.238 95.0874C364.372 95.3073 364.555 95.4773 364.788 95.5973C365.028 95.7106 365.308 95.7672 365.628 95.7672C365.915 95.7672 366.165 95.7239 366.378 95.6373C366.598 95.5506 366.798 95.4206 366.978 95.2474L367.808 96.1472C367.561 96.4271 367.251 96.6437 366.878 96.797C366.505 96.9437 366.075 97.017 365.588 97.017ZM372.167 96.937V89.9384H375.347C376.107 89.9384 376.776 90.0851 377.356 90.3783C377.936 90.6649 378.389 91.0682 378.716 91.5881C379.043 92.108 379.206 92.7245 379.206 93.4377C379.206 94.1442 379.043 94.7608 378.716 95.2873C378.389 95.8072 377.936 96.2138 377.356 96.5071C376.776 96.7937 376.107 96.937 375.347 96.937H372.167ZM373.787 95.6073H375.267C375.733 95.6073 376.137 95.5206 376.477 95.3473C376.823 95.1674 377.09 94.9141 377.276 94.5875C377.47 94.2609 377.566 93.8776 377.566 93.4377C377.566 92.9911 377.47 92.6079 377.276 92.2879C377.09 91.9613 376.823 91.7114 376.477 91.5381C376.137 91.3581 375.733 91.2681 375.267 91.2681H373.787V95.6073ZM382.877 97.017C382.304 97.017 381.794 96.897 381.347 96.6571C380.907 96.4171 380.557 96.0905 380.297 95.6773C380.044 95.2573 379.918 94.7808 379.918 94.2476C379.918 93.7077 380.044 93.2311 380.297 92.8178C380.557 92.3979 380.907 92.0713 381.347 91.838C381.794 91.5981 382.304 91.4781 382.877 91.4781C383.444 91.4781 383.95 91.5981 384.397 91.838C384.843 92.0713 385.193 92.3946 385.446 92.8078C385.7 93.2211 385.826 93.701 385.826 94.2476C385.826 94.7808 385.7 95.2573 385.446 95.6773C385.193 96.0905 384.843 96.4171 384.397 96.6571C383.95 96.897 383.444 97.017 382.877 97.017ZM382.877 95.7373C383.137 95.7373 383.37 95.6773 383.577 95.5573C383.783 95.4373 383.947 95.2673 384.067 95.0474C384.187 94.8208 384.247 94.5542 384.247 94.2476C384.247 93.9343 384.187 93.6677 384.067 93.4477C383.947 93.2278 383.783 93.0578 383.577 92.9378C383.37 92.8178 383.137 92.7578 382.877 92.7578C382.617 92.7578 382.384 92.8178 382.177 92.9378C381.97 93.0578 381.804 93.2278 381.677 93.4477C381.557 93.6677 381.497 93.9343 381.497 94.2476C381.497 94.5542 381.557 94.8208 381.677 95.0474C381.804 95.2673 381.97 95.4373 382.177 95.5573C382.384 95.6773 382.617 95.7373 382.877 95.7373ZM389.538 97.017C388.925 97.017 388.385 96.897 387.919 96.6571C387.459 96.4171 387.102 96.0905 386.849 95.6773C386.596 95.2573 386.469 94.7808 386.469 94.2476C386.469 93.7077 386.592 93.2311 386.839 92.8178C387.092 92.3979 387.435 92.0713 387.869 91.838C388.302 91.5981 388.792 91.4781 389.338 91.4781C389.865 91.4781 390.338 91.5914 390.758 91.818C391.185 92.038 391.521 92.3579 391.768 92.7778C392.015 93.1911 392.138 93.6877 392.138 94.2675C392.138 94.3275 392.135 94.3975 392.128 94.4775C392.121 94.5508 392.115 94.6208 392.108 94.6875H387.739V93.7776H391.288L390.688 94.0476C390.688 93.7676 390.631 93.5244 390.518 93.3177C390.405 93.1111 390.248 92.9511 390.048 92.8378C389.848 92.7179 389.615 92.6579 389.348 92.6579C389.082 92.6579 388.845 92.7179 388.639 92.8378C388.439 92.9511 388.282 93.1144 388.169 93.3277C388.055 93.5344 387.999 93.781 387.999 94.0676V94.3075C387.999 94.6008 388.062 94.8608 388.189 95.0874C388.322 95.3073 388.505 95.4773 388.739 95.5973C388.978 95.7106 389.258 95.7672 389.578 95.7672C389.865 95.7672 390.115 95.7239 390.328 95.6373C390.548 95.5506 390.748 95.4206 390.928 95.2474L391.758 96.1472C391.511 96.4271 391.201 96.6437 390.828 96.797C390.455 96.9437 390.025 97.017 389.538 97.017Z" fill="#30273B"/>
<path d="M327.555 103.199H329.813V104.043H327.555V103.199ZM327.635 105.129H330.189V106H326.556V101.309H330.101V102.18H327.635V105.129ZM330.484 106L332.099 103.882L332.079 104.459L330.531 102.394H331.703L332.682 103.742L332.24 103.755L333.252 102.394H334.364L332.809 104.438V103.876L334.418 106H333.231L332.206 104.566L332.642 104.626L331.623 106H330.484ZM337.056 106.054C336.752 106.054 336.487 105.987 336.259 105.853C336.031 105.719 335.852 105.515 335.723 105.243C335.598 104.966 335.535 104.617 335.535 104.197C335.535 103.773 335.595 103.424 335.716 103.152C335.837 102.879 336.011 102.676 336.239 102.542C336.467 102.408 336.739 102.341 337.056 102.341C337.396 102.341 337.7 102.419 337.968 102.575C338.24 102.727 338.455 102.942 338.611 103.219C338.772 103.496 338.852 103.822 338.852 104.197C338.852 104.577 338.772 104.905 338.611 105.182C338.455 105.459 338.24 105.674 337.968 105.826C337.7 105.978 337.396 106.054 337.056 106.054ZM334.925 107.3V102.394H335.924V103.132L335.904 104.204L335.971 105.27V107.3H334.925ZM336.875 105.196C337.05 105.196 337.204 105.156 337.338 105.075C337.476 104.995 337.586 104.881 337.666 104.733C337.751 104.581 337.793 104.403 337.793 104.197C337.793 103.987 337.751 103.809 337.666 103.661C337.586 103.514 337.476 103.4 337.338 103.319C337.204 103.239 337.05 103.199 336.875 103.199C336.701 103.199 336.545 103.239 336.406 103.319C336.268 103.4 336.158 103.514 336.078 103.661C335.997 103.809 335.957 103.987 335.957 104.197C335.957 104.403 335.997 104.581 336.078 104.733C336.158 104.881 336.268 104.995 336.406 105.075C336.545 105.156 336.701 105.196 336.875 105.196ZM341.342 106.054C340.931 106.054 340.569 105.973 340.256 105.812C339.948 105.652 339.709 105.433 339.539 105.156C339.369 104.874 339.284 104.555 339.284 104.197C339.284 103.835 339.367 103.516 339.532 103.239C339.702 102.957 339.932 102.738 340.222 102.582C340.513 102.421 340.841 102.341 341.208 102.341C341.561 102.341 341.878 102.417 342.159 102.569C342.445 102.716 342.671 102.931 342.836 103.212C343.001 103.489 343.084 103.822 343.084 104.211C343.084 104.251 343.082 104.298 343.077 104.351C343.073 104.401 343.068 104.447 343.064 104.492H340.135V103.882H342.514L342.112 104.063C342.112 103.876 342.074 103.712 341.998 103.574C341.922 103.435 341.817 103.328 341.683 103.252C341.549 103.172 341.393 103.132 341.214 103.132C341.036 103.132 340.877 103.172 340.738 103.252C340.604 103.328 340.499 103.438 340.423 103.581C340.347 103.719 340.31 103.884 340.31 104.077V104.237C340.31 104.434 340.352 104.608 340.437 104.76C340.526 104.908 340.649 105.022 340.805 105.102C340.966 105.178 341.154 105.216 341.368 105.216C341.561 105.216 341.728 105.187 341.871 105.129C342.018 105.071 342.152 104.984 342.273 104.867L342.829 105.471C342.664 105.658 342.456 105.803 342.206 105.906C341.956 106.004 341.668 106.054 341.342 106.054ZM343.78 106V102.394H344.779V103.413L344.638 103.118C344.745 102.864 344.917 102.671 345.154 102.542C345.391 102.408 345.679 102.341 346.018 102.341V103.306C345.974 103.301 345.934 103.299 345.898 103.299C345.862 103.295 345.824 103.292 345.784 103.292C345.498 103.292 345.266 103.375 345.087 103.54C344.913 103.701 344.826 103.954 344.826 104.298V106H343.78ZM348.239 106.054C347.814 106.054 347.484 105.946 347.247 105.732C347.01 105.513 346.892 105.189 346.892 104.76V101.597H347.937V104.747C347.937 104.899 347.977 105.017 348.058 105.102C348.138 105.182 348.248 105.223 348.386 105.223C348.552 105.223 348.692 105.178 348.808 105.089L349.09 105.826C348.983 105.902 348.853 105.96 348.701 106C348.554 106.036 348.4 106.054 348.239 106.054ZM346.336 103.279V102.475H348.835V103.279H346.336Z" fill="#0A54B8"/>
<path d="M284.357 140.14C283.813 140.14 283.308 140.051 282.842 139.874C282.383 139.697 281.983 139.448 281.642 139.126C281.307 138.805 281.045 138.428 280.855 137.995C280.671 137.562 280.579 137.089 280.579 136.578C280.579 136.066 280.671 135.594 280.855 135.161C281.045 134.728 281.31 134.351 281.652 134.029C281.993 133.708 282.393 133.459 282.852 133.282C283.311 133.105 283.81 133.016 284.347 133.016C284.892 133.016 285.39 133.105 285.843 133.282C286.302 133.459 286.699 133.708 287.033 134.029C287.375 134.351 287.64 134.728 287.83 135.161C288.021 135.587 288.116 136.06 288.116 136.578C288.116 137.089 288.021 137.565 287.83 138.004C287.64 138.437 287.375 138.815 287.033 139.136C286.699 139.451 286.302 139.697 285.843 139.874C285.39 140.051 284.895 140.14 284.357 140.14ZM284.347 138.782C284.656 138.782 284.938 138.729 285.194 138.624C285.456 138.519 285.686 138.369 285.882 138.172C286.079 137.975 286.23 137.742 286.335 137.473C286.446 137.204 286.502 136.906 286.502 136.578C286.502 136.25 286.446 135.951 286.335 135.682C286.23 135.413 286.079 135.181 285.882 134.984C285.692 134.787 285.466 134.636 285.203 134.531C284.941 134.426 284.656 134.374 284.347 134.374C284.039 134.374 283.754 134.426 283.491 134.531C283.236 134.636 283.009 134.787 282.813 134.984C282.616 135.181 282.462 135.413 282.35 135.682C282.245 135.951 282.193 136.25 282.193 136.578C282.193 136.899 282.245 137.198 282.35 137.473C282.462 137.742 282.612 137.975 282.803 138.172C282.999 138.369 283.229 138.519 283.491 138.624C283.754 138.729 284.039 138.782 284.347 138.782ZM292.61 140.14C292.079 140.14 291.583 140.054 291.124 139.884C290.672 139.707 290.278 139.457 289.943 139.136C289.609 138.815 289.347 138.437 289.156 138.004C288.973 137.572 288.881 137.096 288.881 136.578C288.881 136.06 288.973 135.584 289.156 135.151C289.347 134.718 289.609 134.341 289.943 134.02C290.285 133.698 290.681 133.452 291.134 133.282C291.587 133.105 292.082 133.016 292.62 133.016C293.217 133.016 293.754 133.121 294.233 133.331C294.719 133.534 295.125 133.836 295.453 134.236L294.43 135.181C294.194 134.912 293.932 134.712 293.643 134.58C293.354 134.443 293.039 134.374 292.698 134.374C292.377 134.374 292.082 134.426 291.813 134.531C291.544 134.636 291.311 134.787 291.114 134.984C290.917 135.181 290.763 135.413 290.652 135.682C290.547 135.951 290.494 136.25 290.494 136.578C290.494 136.906 290.547 137.204 290.652 137.473C290.763 137.742 290.917 137.975 291.114 138.172C291.311 138.369 291.544 138.519 291.813 138.624C292.082 138.729 292.377 138.782 292.698 138.782C293.039 138.782 293.354 138.716 293.643 138.585C293.932 138.447 294.194 138.241 294.43 137.965L295.453 138.91C295.125 139.31 294.719 139.615 294.233 139.825C293.754 140.035 293.213 140.14 292.61 140.14ZM297.889 140.021V134.433H295.685V133.134H301.687V134.433H299.483V140.021H297.889ZM305.794 140.14C305.249 140.14 304.744 140.051 304.279 139.874C303.819 139.697 303.419 139.448 303.078 139.126C302.744 138.805 302.481 138.428 302.291 137.995C302.107 137.562 302.016 137.089 302.016 136.578C302.016 136.066 302.107 135.594 302.291 135.161C302.481 134.728 302.747 134.351 303.088 134.029C303.429 133.708 303.829 133.459 304.288 133.282C304.748 133.105 305.246 133.016 305.784 133.016C306.328 133.016 306.827 133.105 307.28 133.282C307.739 133.459 308.136 133.708 308.47 134.029C308.811 134.351 309.077 134.728 309.267 135.161C309.457 135.587 309.552 136.06 309.552 136.578C309.552 137.089 309.457 137.565 309.267 138.004C309.077 138.437 308.811 138.815 308.47 139.136C308.136 139.451 307.739 139.697 307.28 139.874C306.827 140.051 306.332 140.14 305.794 140.14ZM305.784 138.782C306.092 138.782 306.374 138.729 306.63 138.624C306.893 138.519 307.122 138.369 307.319 138.172C307.516 137.975 307.667 137.742 307.772 137.473C307.883 137.204 307.939 136.906 307.939 136.578C307.939 136.25 307.883 135.951 307.772 135.682C307.667 135.413 307.516 135.181 307.319 134.984C307.129 134.787 306.902 134.636 306.64 134.531C306.378 134.426 306.092 134.374 305.784 134.374C305.476 134.374 305.19 134.426 304.928 134.531C304.672 134.636 304.446 134.787 304.249 134.984C304.052 135.181 303.898 135.413 303.787 135.682C303.682 135.951 303.629 136.25 303.629 136.578C303.629 136.899 303.682 137.198 303.787 137.473C303.898 137.742 304.049 137.975 304.239 138.172C304.436 138.369 304.666 138.519 304.928 138.624C305.19 138.729 305.476 138.782 305.784 138.782ZM310.75 140.021V133.134H314.115C314.981 133.134 315.631 133.298 316.063 133.626C316.503 133.954 316.723 134.387 316.723 134.925C316.723 135.286 316.634 135.6 316.457 135.869C316.28 136.132 316.037 136.335 315.729 136.479C315.421 136.624 315.066 136.696 314.666 136.696L314.853 136.292C315.286 136.292 315.67 136.365 316.004 136.509C316.339 136.647 316.598 136.853 316.782 137.129C316.972 137.404 317.067 137.742 317.067 138.142C317.067 138.733 316.834 139.195 316.368 139.53C315.903 139.857 315.217 140.021 314.312 140.021H310.75ZM312.334 138.821H314.194C314.607 138.821 314.919 138.756 315.129 138.624C315.345 138.487 315.453 138.27 315.453 137.975C315.453 137.686 315.345 137.473 315.129 137.335C314.919 137.191 314.607 137.119 314.194 137.119H312.216V135.958H313.919C314.306 135.958 314.601 135.892 314.804 135.761C315.014 135.623 315.119 135.417 315.119 135.141C315.119 134.872 315.014 134.672 314.804 134.541C314.601 134.403 314.306 134.334 313.919 134.334H312.334V138.821ZM319.74 135.909H323.056V137.148H319.74V135.909ZM319.858 138.742H323.607V140.021H318.274V133.134H323.479V134.413H319.858V138.742ZM324.875 140.021V133.134H327.856C328.473 133.134 329.004 133.236 329.45 133.439C329.896 133.636 330.24 133.921 330.483 134.295C330.726 134.669 330.847 135.115 330.847 135.633C330.847 136.145 330.726 136.588 330.483 136.962C330.24 137.329 329.896 137.611 329.45 137.808C329.004 138.004 328.473 138.103 327.856 138.103H325.76L326.469 137.404V140.021H324.875ZM329.253 140.021L327.531 137.522H329.234L330.975 140.021H329.253ZM326.469 137.581L325.76 136.834H327.768C328.259 136.834 328.627 136.729 328.87 136.519C329.112 136.302 329.234 136.007 329.234 135.633C329.234 135.253 329.112 134.958 328.87 134.748C328.627 134.538 328.259 134.433 327.768 134.433H325.76L326.469 133.675V137.581ZM334.405 140.021V138.988L337.061 136.479C337.271 136.289 337.425 136.119 337.524 135.968C337.622 135.817 337.688 135.679 337.72 135.555C337.76 135.43 337.779 135.315 337.779 135.21C337.779 134.935 337.684 134.725 337.494 134.58C337.31 134.43 337.038 134.354 336.677 134.354C336.389 134.354 336.12 134.41 335.871 134.521C335.628 134.633 335.421 134.807 335.251 135.043L334.09 134.295C334.352 133.902 334.719 133.59 335.192 133.36C335.664 133.131 336.208 133.016 336.825 133.016C337.337 133.016 337.783 133.101 338.163 133.272C338.55 133.436 338.849 133.669 339.058 133.97C339.275 134.272 339.383 134.633 339.383 135.053C339.383 135.276 339.354 135.499 339.295 135.722C339.242 135.938 339.131 136.168 338.96 136.411C338.796 136.653 338.553 136.925 338.232 137.227L336.028 139.303L335.723 138.723H339.609V140.021H334.405ZM343.219 140.14C342.655 140.14 342.15 140.002 341.704 139.726C341.258 139.444 340.907 139.038 340.651 138.506C340.395 137.975 340.267 137.332 340.267 136.578C340.267 135.823 340.395 135.181 340.651 134.649C340.907 134.118 341.258 133.715 341.704 133.439C342.15 133.157 342.655 133.016 343.219 133.016C343.79 133.016 344.295 133.157 344.734 133.439C345.18 133.715 345.531 134.118 345.787 134.649C346.043 135.181 346.171 135.823 346.171 136.578C346.171 137.332 346.043 137.975 345.787 138.506C345.531 139.038 345.18 139.444 344.734 139.726C344.295 140.002 343.79 140.14 343.219 140.14ZM343.219 138.792C343.488 138.792 343.721 138.716 343.917 138.565C344.121 138.414 344.278 138.175 344.39 137.847C344.508 137.519 344.567 137.096 344.567 136.578C344.567 136.06 344.508 135.637 344.39 135.309C344.278 134.981 344.121 134.741 343.917 134.59C343.721 134.439 343.488 134.364 343.219 134.364C342.956 134.364 342.724 134.439 342.52 134.59C342.323 134.741 342.166 134.981 342.048 135.309C341.936 135.637 341.881 136.06 341.881 136.578C341.881 137.096 341.936 137.519 342.048 137.847C342.166 138.175 342.323 138.414 342.52 138.565C342.724 138.716 342.956 138.792 343.219 138.792ZM346.848 140.021V138.988L349.504 136.479C349.714 136.289 349.868 136.119 349.967 135.968C350.065 135.817 350.131 135.679 350.163 135.555C350.203 135.43 350.222 135.315 350.222 135.21C350.222 134.935 350.127 134.725 349.937 134.58C349.753 134.43 349.481 134.354 349.12 134.354C348.832 134.354 348.563 134.41 348.314 134.521C348.071 134.633 347.864 134.807 347.694 135.043L346.533 134.295C346.795 133.902 347.162 133.59 347.635 133.36C348.107 133.131 348.651 133.016 349.268 133.016C349.78 133.016 350.226 133.101 350.606 133.272C350.993 133.436 351.292 133.669 351.501 133.97C351.718 134.272 351.826 134.633 351.826 135.053C351.826 135.276 351.797 135.499 351.738 135.722C351.685 135.938 351.574 136.168 351.403 136.411C351.239 136.653 350.996 136.925 350.675 137.227L348.471 139.303L348.166 138.723H352.052V140.021H346.848ZM355.662 140.14C355.098 140.14 354.593 140.002 354.147 139.726C353.701 139.444 353.35 139.038 353.094 138.506C352.838 137.975 352.71 137.332 352.71 136.578C352.71 135.823 352.838 135.181 353.094 134.649C353.35 134.118 353.701 133.715 354.147 133.439C354.593 133.157 355.098 133.016 355.662 133.016C356.233 133.016 356.738 133.157 357.177 133.439C357.623 133.715 357.974 134.118 358.23 134.649C358.486 135.181 358.614 135.823 358.614 136.578C358.614 137.332 358.486 137.975 358.23 138.506C357.974 139.038 357.623 139.444 357.177 139.726C356.738 140.002 356.233 140.14 355.662 140.14ZM355.662 138.792C355.931 138.792 356.164 138.716 356.36 138.565C356.564 138.414 356.721 138.175 356.833 137.847C356.951 137.519 357.01 137.096 357.01 136.578C357.01 136.06 356.951 135.637 356.833 135.309C356.721 134.981 356.564 134.741 356.36 134.59C356.164 134.439 355.931 134.364 355.662 134.364C355.4 134.364 355.167 134.439 354.963 134.59C354.767 134.741 354.609 134.981 354.491 135.309C354.38 135.637 354.324 136.06 354.324 136.578C354.324 137.096 354.38 137.519 354.491 137.847C354.609 138.175 354.767 138.414 354.963 138.565C355.167 138.716 355.4 138.792 355.662 138.792Z" fill="#30273B"/>
<path d="M388.774 196.638H284.598C281.842 196.638 279.607 194.404 279.607 191.648V157.039C279.607 154.283 281.842 152.047 284.598 152.047H388.774C391.531 152.047 393.765 154.283 393.765 157.039V191.648C393.765 194.404 391.531 196.638 388.774 196.638Z" fill="#F0F6FF"/>
<path d="M327.264 192.666C322.789 192.666 319.161 189.037 319.161 184.563V164.046C319.161 159.571 322.789 155.944 327.264 155.944C331.738 155.944 335.365 159.571 335.365 164.046V184.563C335.365 189.037 331.738 192.666 327.264 192.666Z" fill="#8FB0DE"/>
<path d="M286.202 170V166.367H286.898L288.444 168.931H288.076L289.596 166.367H290.286L290.297 170H289.508L289.503 167.577H289.648L288.434 169.616H288.055L286.815 167.577H286.991V170H286.202ZM292.43 170.042C292.132 170.042 291.868 169.979 291.636 169.855C291.408 169.73 291.226 169.561 291.091 169.346C290.96 169.128 290.894 168.881 290.894 168.604C290.894 168.324 290.96 168.076 291.091 167.862C291.226 167.644 291.408 167.474 291.636 167.353C291.868 167.229 292.132 167.167 292.43 167.167C292.724 167.167 292.987 167.229 293.219 167.353C293.45 167.474 293.632 167.642 293.764 167.857C293.895 168.071 293.961 168.32 293.961 168.604C293.961 168.881 293.895 169.128 293.764 169.346C293.632 169.561 293.45 169.73 293.219 169.855C292.987 169.979 292.724 170.042 292.43 170.042ZM292.43 169.377C292.565 169.377 292.686 169.346 292.793 169.284C292.9 169.222 292.985 169.133 293.047 169.019C293.11 168.902 293.141 168.763 293.141 168.604C293.141 168.441 293.11 168.303 293.047 168.189C292.985 168.075 292.9 167.987 292.793 167.924C292.686 167.862 292.565 167.831 292.43 167.831C292.295 167.831 292.174 167.862 292.067 167.924C291.959 167.987 291.873 168.075 291.807 168.189C291.745 168.303 291.714 168.441 291.714 168.604C291.714 168.763 291.745 168.902 291.807 169.019C291.873 169.133 291.959 169.222 292.067 169.284C292.174 169.346 292.295 169.377 292.43 169.377ZM296.199 167.167C296.42 167.167 296.617 167.212 296.79 167.302C296.967 167.388 297.105 167.523 297.206 167.706C297.306 167.886 297.356 168.118 297.356 168.402V170H296.547V168.526C296.547 168.301 296.496 168.135 296.396 168.028C296.299 167.921 296.161 167.867 295.981 167.867C295.853 167.867 295.737 167.895 295.633 167.95C295.533 168.002 295.453 168.083 295.394 168.194C295.339 168.305 295.311 168.447 295.311 168.62V170H294.502V167.208H295.275V167.981L295.13 167.748C295.23 167.561 295.374 167.417 295.561 167.317C295.747 167.217 295.96 167.167 296.199 167.167Z" fill="#30273B"/>
<path d="M303.314 170V167.052H302.152V166.367H305.317V167.052H304.155V170H303.314ZM306.83 170.042C306.598 170.042 306.39 169.997 306.207 169.907C306.027 169.817 305.887 169.68 305.787 169.497C305.686 169.31 305.636 169.073 305.636 168.786V167.208H306.446V168.666C306.446 168.898 306.494 169.069 306.591 169.18C306.691 169.287 306.831 169.341 307.011 169.341C307.136 169.341 307.246 169.315 307.343 169.263C307.44 169.208 307.516 169.125 307.572 169.014C307.627 168.9 307.655 168.758 307.655 168.588V167.208H308.464V170H307.696V169.232L307.836 169.455C307.743 169.649 307.605 169.796 307.421 169.896C307.241 169.993 307.044 170.042 306.83 170.042ZM310.6 170.042C310.282 170.042 310.001 169.979 309.759 169.855C309.52 169.73 309.335 169.561 309.204 169.346C309.072 169.128 309.007 168.881 309.007 168.604C309.007 168.324 309.071 168.076 309.199 167.862C309.33 167.644 309.508 167.474 309.733 167.353C309.958 167.229 310.212 167.167 310.496 167.167C310.769 167.167 311.015 167.225 311.233 167.343C311.454 167.457 311.629 167.623 311.757 167.841C311.885 168.056 311.949 168.313 311.949 168.614C311.949 168.646 311.947 168.682 311.944 168.723C311.94 168.761 311.937 168.798 311.933 168.832H309.666V168.36H311.508L311.197 168.5C311.197 168.355 311.167 168.229 311.108 168.121C311.05 168.014 310.968 167.931 310.864 167.872C310.761 167.81 310.64 167.779 310.501 167.779C310.363 167.779 310.24 167.81 310.133 167.872C310.029 167.931 309.948 168.016 309.889 168.127C309.83 168.234 309.801 168.362 309.801 168.511V168.635C309.801 168.787 309.833 168.922 309.899 169.04C309.968 169.154 310.064 169.242 310.185 169.305C310.309 169.363 310.454 169.393 310.621 169.393C310.769 169.393 310.899 169.37 311.01 169.325C311.124 169.28 311.228 169.213 311.321 169.123L311.752 169.59C311.624 169.735 311.463 169.848 311.269 169.927C311.075 170.003 310.852 170.042 310.6 170.042Z" fill="#30273B"/>
<path d="M322.345 169.573L321.156 165.941H322.028L323.061 169.158H322.625L323.704 165.941H324.483L325.52 169.158H325.1L326.159 165.941H326.963L325.775 169.573H324.872L323.953 166.75H324.192L323.247 169.573H322.345ZM328.553 169.615C328.235 169.615 327.955 169.552 327.712 169.428C327.474 169.303 327.289 169.134 327.157 168.919C327.026 168.701 326.96 168.454 326.96 168.177C326.96 167.897 327.024 167.65 327.152 167.435C327.283 167.217 327.462 167.048 327.686 166.927C327.911 166.802 328.166 166.74 328.449 166.74C328.723 166.74 328.968 166.799 329.186 166.916C329.408 167.03 329.582 167.196 329.71 167.414C329.838 167.629 329.902 167.887 329.902 168.188C329.902 168.219 329.901 168.255 329.897 168.297C329.894 168.335 329.89 168.371 329.887 168.406H327.619V167.933H329.461L329.15 168.074C329.15 167.928 329.12 167.802 329.062 167.695C329.003 167.587 328.922 167.504 328.818 167.446C328.714 167.383 328.593 167.352 328.455 167.352C328.316 167.352 328.193 167.383 328.086 167.446C327.982 167.504 327.901 167.589 327.842 167.7C327.783 167.807 327.754 167.935 327.754 168.084V168.208C327.754 168.361 327.787 168.496 327.853 168.613C327.922 168.727 328.017 168.816 328.138 168.878C328.263 168.937 328.408 168.966 328.574 168.966C328.723 168.966 328.852 168.944 328.963 168.899C329.077 168.854 329.181 168.786 329.274 168.696L329.705 169.163C329.577 169.309 329.416 169.421 329.223 169.501C329.029 169.577 328.806 169.615 328.553 169.615ZM331.64 169.615C331.377 169.615 331.14 169.556 330.929 169.438C330.718 169.317 330.55 169.149 330.426 168.935C330.305 168.72 330.244 168.468 330.244 168.177C330.244 167.883 330.305 167.629 330.426 167.414C330.55 167.2 330.718 167.034 330.929 166.916C331.14 166.799 331.377 166.74 331.64 166.74C331.875 166.74 332.081 166.792 332.258 166.896C332.434 166.999 332.571 167.157 332.668 167.368C332.764 167.579 332.813 167.849 332.813 168.177C332.813 168.502 332.766 168.772 332.673 168.987C332.579 169.198 332.444 169.355 332.268 169.459C332.095 169.563 331.886 169.615 331.64 169.615ZM331.78 168.951C331.912 168.951 332.031 168.919 332.138 168.857C332.246 168.795 332.33 168.707 332.393 168.592C332.458 168.475 332.491 168.336 332.491 168.177C332.491 168.015 332.458 167.876 332.393 167.762C332.33 167.648 332.246 167.56 332.138 167.497C332.031 167.435 331.912 167.404 331.78 167.404C331.645 167.404 331.524 167.435 331.417 167.497C331.31 167.56 331.223 167.648 331.157 167.762C331.095 167.876 331.064 168.015 331.064 168.177C331.064 168.336 331.095 168.475 331.157 168.592C331.223 168.707 331.31 168.795 331.417 168.857C331.524 168.919 331.645 168.951 331.78 168.951ZM332.512 169.573V169.002L332.527 168.172L332.476 167.347V165.723H333.285V169.573H332.512Z" fill="white"/>
<path d="M341.124 169.573V166.626H339.961V165.941H343.127V166.626H341.964V169.573H341.124ZM345.219 166.74C345.44 166.74 345.638 166.785 345.81 166.875C345.987 166.961 346.125 167.096 346.226 167.28C346.326 167.459 346.376 167.691 346.376 167.975V169.573H345.567V168.099C345.567 167.875 345.516 167.709 345.416 167.601C345.319 167.494 345.181 167.44 345.001 167.44C344.873 167.44 344.757 167.468 344.653 167.523C344.553 167.575 344.473 167.657 344.415 167.767C344.359 167.878 344.332 168.02 344.332 168.193V169.573H343.522V165.723H344.332V167.555L344.15 167.321C344.25 167.134 344.394 166.991 344.581 166.89C344.767 166.79 344.98 166.74 345.219 166.74ZM348.288 169.615C348.056 169.615 347.849 169.57 347.665 169.48C347.485 169.39 347.345 169.253 347.245 169.07C347.145 168.883 347.094 168.646 347.094 168.359V166.781H347.904V168.24C347.904 168.471 347.952 168.643 348.049 168.753C348.15 168.861 348.29 168.914 348.47 168.914C348.594 168.914 348.705 168.888 348.802 168.836C348.899 168.781 348.975 168.698 349.03 168.587C349.085 168.473 349.113 168.331 349.113 168.162V166.781H349.923V169.573H349.155V168.805L349.295 169.028C349.201 169.222 349.063 169.369 348.88 169.469C348.7 169.566 348.502 169.615 348.288 169.615Z" fill="#30273B"/>
<path d="M356.34 167.002H358.084V167.677H356.34V167.002ZM356.402 169H355.562V165.367H358.307V166.042H356.402V169ZM358.768 169V166.208H359.541V166.997L359.432 166.769C359.515 166.571 359.649 166.423 359.832 166.322C360.015 166.218 360.238 166.167 360.501 166.167V166.914C360.467 166.91 360.436 166.909 360.408 166.909C360.38 166.905 360.351 166.903 360.32 166.903C360.098 166.903 359.918 166.967 359.78 167.095C359.645 167.22 359.578 167.416 359.578 167.682V169H358.768ZM360.988 169V166.208H361.797V169H360.988ZM361.393 165.819C361.244 165.819 361.123 165.776 361.029 165.689C360.936 165.603 360.889 165.495 360.889 165.367C360.889 165.239 360.936 165.132 361.029 165.046C361.123 164.959 361.244 164.916 361.393 164.916C361.541 164.916 361.662 164.957 361.756 165.04C361.849 165.12 361.896 165.224 361.896 165.352C361.896 165.487 361.849 165.599 361.756 165.689C361.666 165.776 361.545 165.819 361.393 165.819Z" fill="#30273B"/>
<path d="M369.755 169.062C369.465 169.062 369.186 169.024 368.92 168.948C368.653 168.869 368.439 168.766 368.276 168.642L368.562 168.009C368.717 168.12 368.901 168.211 369.112 168.284C369.326 168.353 369.542 168.388 369.76 168.388C369.926 168.388 370.06 168.372 370.16 168.341C370.264 168.306 370.34 168.26 370.388 168.201C370.437 168.142 370.461 168.075 370.461 167.998C370.461 167.902 370.423 167.825 370.347 167.77C370.271 167.711 370.17 167.665 370.046 167.63C369.921 167.592 369.783 167.557 369.631 167.526C369.482 167.492 369.331 167.45 369.179 167.402C369.03 167.353 368.894 167.291 368.769 167.215C368.645 167.139 368.543 167.038 368.463 166.914C368.387 166.789 368.349 166.63 368.349 166.436C368.349 166.229 368.404 166.04 368.515 165.871C368.629 165.698 368.799 165.561 369.023 165.461C369.252 165.357 369.537 165.305 369.88 165.305C370.108 165.305 370.333 165.333 370.554 165.388C370.776 165.44 370.971 165.52 371.141 165.627L370.881 166.265C370.712 166.168 370.542 166.097 370.373 166.052C370.203 166.004 370.037 165.98 369.874 165.98C369.712 165.98 369.579 165.999 369.475 166.037C369.371 166.075 369.297 166.125 369.252 166.187C369.207 166.246 369.184 166.315 369.184 166.395C369.184 166.488 369.222 166.564 369.298 166.623C369.375 166.679 369.475 166.724 369.599 166.758C369.724 166.793 369.861 166.827 370.009 166.862C370.162 166.897 370.312 166.936 370.461 166.981C370.613 167.026 370.752 167.087 370.876 167.163C371.001 167.239 371.101 167.339 371.177 167.464C371.257 167.588 371.296 167.746 371.296 167.936C371.296 168.14 371.239 168.327 371.125 168.497C371.011 168.666 370.84 168.803 370.611 168.907C370.387 169.01 370.101 169.062 369.755 169.062ZM373.526 169V168.455L373.474 168.336V167.36C373.474 167.187 373.421 167.052 373.313 166.955C373.21 166.859 373.049 166.81 372.831 166.81C372.682 166.81 372.535 166.834 372.39 166.883C372.248 166.928 372.127 166.99 372.027 167.07L371.736 166.504C371.888 166.397 372.071 166.314 372.286 166.255C372.5 166.196 372.718 166.167 372.94 166.167C373.365 166.167 373.696 166.267 373.931 166.468C374.166 166.668 374.284 166.981 374.284 167.407V169H373.526ZM372.675 169.042C372.457 169.042 372.27 169.005 372.115 168.933C371.959 168.856 371.84 168.754 371.757 168.626C371.674 168.498 371.632 168.355 371.632 168.196C371.632 168.03 371.672 167.884 371.751 167.76C371.835 167.635 371.964 167.538 372.141 167.469C372.317 167.396 372.547 167.36 372.831 167.36H373.573V167.832H372.919C372.729 167.832 372.597 167.864 372.525 167.926C372.456 167.988 372.421 168.066 372.421 168.159C372.421 168.263 372.461 168.346 372.54 168.408C372.623 168.467 372.736 168.497 372.878 168.497C373.013 168.497 373.134 168.465 373.241 168.403C373.348 168.337 373.426 168.242 373.474 168.118L373.599 168.491C373.54 168.671 373.433 168.808 373.277 168.901C373.121 168.995 372.921 169.042 372.675 169.042ZM376.158 169.042C375.83 169.042 375.574 168.958 375.39 168.792C375.207 168.623 375.115 168.372 375.115 168.04V165.591H375.925V168.03C375.925 168.147 375.956 168.239 376.018 168.305C376.08 168.367 376.165 168.398 376.272 168.398C376.4 168.398 376.509 168.363 376.599 168.294L376.817 168.865C376.734 168.924 376.634 168.969 376.516 169C376.402 169.028 376.283 169.042 376.158 169.042ZM374.684 166.893V166.27H376.62V166.893H374.684Z" fill="#30273B"/>
<path d="M287.967 181V180.299L289.769 178.598C289.911 178.469 290.016 178.353 290.082 178.251C290.149 178.149 290.194 178.055 290.216 177.971C290.242 177.886 290.256 177.809 290.256 177.737C290.256 177.551 290.191 177.408 290.062 177.31C289.938 177.208 289.753 177.157 289.509 177.157C289.313 177.157 289.13 177.195 288.961 177.27C288.797 177.346 288.657 177.464 288.541 177.624L287.754 177.117C287.932 176.85 288.181 176.639 288.501 176.483C288.821 176.327 289.19 176.249 289.609 176.249C289.956 176.249 290.258 176.307 290.516 176.423C290.778 176.534 290.981 176.692 291.123 176.897C291.27 177.101 291.343 177.346 291.343 177.631C291.343 177.782 291.323 177.933 291.283 178.084C291.248 178.231 291.172 178.387 291.056 178.551C290.945 178.716 290.781 178.901 290.563 179.105L289.068 180.513L288.861 180.119H291.497V181H287.967ZM293.531 181.08C293.206 181.08 292.884 181.038 292.563 180.953C292.247 180.864 291.976 180.74 291.749 180.58L292.176 179.752C292.354 179.881 292.559 179.984 292.79 180.059C293.026 180.135 293.264 180.173 293.504 180.173C293.775 180.173 293.989 180.119 294.145 180.013C294.3 179.906 294.378 179.757 294.378 179.566C294.378 179.445 294.347 179.339 294.285 179.245C294.222 179.152 294.111 179.081 293.951 179.032C293.795 178.983 293.575 178.958 293.291 178.958H292.096L292.336 176.33H295.185V177.197H292.723L293.284 176.703L293.117 178.578L292.557 178.084H293.544C294.007 178.084 294.378 178.149 294.658 178.278C294.943 178.402 295.15 178.574 295.279 178.792C295.408 179.009 295.472 179.256 295.472 179.532C295.472 179.808 295.403 180.064 295.265 180.299C295.128 180.531 294.914 180.72 294.625 180.867C294.34 181.009 293.976 181.08 293.531 181.08Z" fill="#93A3D1"/>
<path d="M303.351 181V180.299L305.153 178.598C305.295 178.469 305.399 178.353 305.466 178.251C305.533 178.149 305.577 178.055 305.6 177.971C305.626 177.886 305.64 177.809 305.64 177.737C305.64 177.551 305.575 177.408 305.446 177.31C305.322 177.208 305.137 177.157 304.892 177.157C304.697 177.157 304.514 177.195 304.345 177.27C304.181 177.346 304.04 177.464 303.925 177.624L303.138 177.117C303.315 176.85 303.565 176.639 303.885 176.483C304.205 176.327 304.574 176.249 304.992 176.249C305.339 176.249 305.642 176.307 305.9 176.423C306.162 176.534 306.365 176.692 306.507 176.897C306.654 177.101 306.727 177.346 306.727 177.631C306.727 177.782 306.707 177.933 306.667 178.084C306.631 178.231 306.556 178.387 306.44 178.551C306.329 178.716 306.164 178.901 305.946 179.105L304.452 180.513L304.245 180.119H306.881V181H303.351ZM309.415 181.08C308.988 181.08 308.616 180.991 308.301 180.813C307.989 180.635 307.749 180.375 307.58 180.033C307.411 179.69 307.327 179.267 307.327 178.765C307.327 178.227 307.427 177.771 307.627 177.397C307.831 177.023 308.112 176.739 308.467 176.543C308.828 176.347 309.241 176.249 309.708 176.249C309.958 176.249 310.196 176.276 310.422 176.33C310.649 176.383 310.845 176.463 311.01 176.57L310.609 177.364C310.48 177.275 310.342 177.215 310.196 177.184C310.049 177.148 309.895 177.13 309.735 177.13C309.33 177.13 309.01 177.253 308.774 177.497C308.539 177.742 308.421 178.104 308.421 178.585C308.421 178.665 308.421 178.754 308.421 178.852C308.425 178.949 308.439 179.047 308.461 179.145L308.161 178.865C308.245 178.691 308.354 178.547 308.488 178.431C308.621 178.311 308.779 178.222 308.961 178.164C309.148 178.102 309.353 178.071 309.575 178.071C309.878 178.071 310.149 178.131 310.389 178.251C310.629 178.371 310.821 178.54 310.963 178.758C311.11 178.976 311.183 179.232 311.183 179.525C311.183 179.841 311.103 180.117 310.943 180.353C310.787 180.584 310.576 180.764 310.309 180.893C310.047 181.018 309.749 181.08 309.415 181.08ZM309.355 180.273C309.506 180.273 309.64 180.246 309.755 180.193C309.875 180.135 309.969 180.053 310.035 179.946C310.102 179.839 310.136 179.717 310.136 179.579C310.136 179.365 310.062 179.196 309.915 179.072C309.773 178.943 309.582 178.878 309.342 178.878C309.181 178.878 309.041 178.909 308.921 178.972C308.801 179.03 308.705 179.112 308.634 179.219C308.568 179.321 308.534 179.441 308.534 179.579C308.534 179.712 308.568 179.832 308.634 179.939C308.701 180.041 308.794 180.124 308.915 180.186C309.035 180.244 309.181 180.273 309.355 180.273Z" fill="#30273B"/>
<path d="M323.456 181V180.299L325.257 178.598C325.399 178.469 325.504 178.353 325.571 178.251C325.637 178.149 325.682 178.055 325.704 177.971C325.731 177.886 325.744 177.809 325.744 177.737C325.744 177.551 325.68 177.408 325.551 177.31C325.426 177.208 325.241 177.157 324.997 177.157C324.801 177.157 324.619 177.195 324.45 177.27C324.285 177.346 324.145 177.464 324.029 177.624L323.242 177.117C323.42 176.85 323.669 176.639 323.989 176.483C324.31 176.327 324.679 176.249 325.097 176.249C325.444 176.249 325.746 176.307 326.004 176.423C326.267 176.534 326.469 176.692 326.611 176.897C326.758 177.101 326.832 177.346 326.832 177.631C326.832 177.782 326.812 177.933 326.772 178.084C326.736 178.231 326.66 178.387 326.545 178.551C326.434 178.716 326.269 178.901 326.051 179.105L324.556 180.513L324.35 180.119H326.985V181H323.456ZM328.178 181L330.06 176.743L330.34 177.21H327.825L328.305 176.703V177.971H327.344V176.33H331.087V177.03L329.353 181H328.178Z" fill="white"/>
<path d="M341.098 181V180.299L342.9 178.598C343.042 178.469 343.146 178.353 343.213 178.251C343.28 178.149 343.324 178.055 343.347 177.971C343.373 177.886 343.387 177.809 343.387 177.737C343.387 177.551 343.322 177.408 343.193 177.31C343.069 177.208 342.884 177.157 342.639 177.157C342.444 177.157 342.261 177.195 342.092 177.27C341.928 177.346 341.788 177.464 341.672 177.624L340.885 177.117C341.063 176.85 341.312 176.639 341.632 176.483C341.952 176.327 342.321 176.249 342.739 176.249C343.086 176.249 343.389 176.307 343.647 176.423C343.909 176.534 344.112 176.692 344.254 176.897C344.401 177.101 344.474 177.346 344.474 177.631C344.474 177.782 344.454 177.933 344.414 178.084C344.379 178.231 344.303 178.387 344.187 178.551C344.076 178.716 343.912 178.901 343.694 179.105L342.199 180.513L341.992 180.119H344.628V181H341.098ZM347.009 181.08C346.617 181.08 346.275 181.022 345.981 180.907C345.687 180.786 345.458 180.62 345.294 180.406C345.129 180.188 345.047 179.935 345.047 179.646C345.047 179.356 345.127 179.112 345.287 178.912C345.452 178.707 345.681 178.554 345.974 178.451C346.268 178.345 346.613 178.291 347.009 178.291C347.409 178.291 347.756 178.345 348.049 178.451C348.347 178.554 348.576 178.707 348.737 178.912C348.901 179.112 348.983 179.356 348.983 179.646C348.983 179.935 348.901 180.188 348.737 180.406C348.572 180.62 348.341 180.786 348.043 180.907C347.749 181.022 347.404 181.08 347.009 181.08ZM347.009 180.286C347.28 180.286 347.493 180.226 347.649 180.106C347.809 179.986 347.889 179.821 347.889 179.612C347.889 179.403 347.809 179.241 347.649 179.125C347.493 179.005 347.28 178.945 347.009 178.945C346.742 178.945 346.53 179.005 346.375 179.125C346.219 179.241 346.141 179.403 346.141 179.612C346.141 179.821 346.219 179.986 346.375 180.106C346.53 180.226 346.742 180.286 347.009 180.286ZM347.009 178.838C346.648 178.838 346.332 178.789 346.061 178.691C345.794 178.594 345.585 178.451 345.434 178.264C345.287 178.073 345.214 177.846 345.214 177.584C345.214 177.308 345.289 177.072 345.441 176.877C345.592 176.676 345.803 176.523 346.074 176.416C346.346 176.305 346.657 176.249 347.009 176.249C347.369 176.249 347.682 176.305 347.949 176.416C348.221 176.523 348.432 176.676 348.583 176.877C348.739 177.072 348.817 177.308 348.817 177.584C348.817 177.846 348.741 178.073 348.59 178.264C348.443 178.451 348.234 178.594 347.963 178.691C347.691 178.789 347.373 178.838 347.009 178.838ZM347.009 178.204C347.235 178.204 347.413 178.153 347.542 178.051C347.676 177.949 347.742 177.809 347.742 177.631C347.742 177.444 347.674 177.299 347.536 177.197C347.402 177.095 347.226 177.043 347.009 177.043C346.795 177.043 346.622 177.095 346.488 177.197C346.355 177.299 346.288 177.444 346.288 177.631C346.288 177.809 346.352 177.949 346.481 178.051C346.61 178.153 346.786 178.204 347.009 178.204Z" fill="#93A3D1"/>
<path d="M355.351 181V180.299L357.153 178.598C357.295 178.469 357.399 178.353 357.466 178.251C357.533 178.149 357.577 178.055 357.6 177.971C357.626 177.886 357.64 177.809 357.64 177.737C357.64 177.551 357.575 177.408 357.446 177.31C357.322 177.208 357.137 177.157 356.892 177.157C356.697 177.157 356.514 177.195 356.345 177.27C356.181 177.346 356.04 177.464 355.925 177.624L355.138 177.117C355.315 176.85 355.565 176.639 355.885 176.483C356.205 176.327 356.574 176.249 356.992 176.249C357.339 176.249 357.642 176.307 357.9 176.423C358.162 176.534 358.365 176.692 358.507 176.897C358.654 177.101 358.727 177.346 358.727 177.631C358.727 177.782 358.707 177.933 358.667 178.084C358.631 178.231 358.556 178.387 358.44 178.551C358.329 178.716 358.164 178.901 357.946 179.105L356.452 180.513L356.245 180.119H358.881V181H355.351ZM360.968 176.249C361.399 176.249 361.771 176.338 362.082 176.516C362.393 176.694 362.634 176.954 362.803 177.297C362.972 177.635 363.056 178.058 363.056 178.565C363.056 179.103 362.954 179.559 362.749 179.932C362.549 180.306 362.271 180.591 361.915 180.786C361.559 180.982 361.146 181.08 360.674 181.08C360.43 181.08 360.194 181.053 359.967 181C359.74 180.947 359.545 180.867 359.38 180.76L359.78 179.966C359.909 180.055 360.047 180.117 360.194 180.153C360.341 180.184 360.494 180.199 360.654 180.199C361.055 180.199 361.373 180.077 361.608 179.832C361.849 179.588 361.969 179.225 361.969 178.745C361.969 178.665 361.966 178.576 361.962 178.478C361.958 178.38 361.946 178.282 361.929 178.184L362.222 178.465C362.147 178.638 362.04 178.785 361.902 178.905C361.764 179.021 361.604 179.11 361.422 179.172C361.239 179.23 361.035 179.259 360.808 179.259C360.51 179.259 360.238 179.199 359.994 179.078C359.754 178.958 359.56 178.789 359.413 178.571C359.271 178.353 359.2 178.098 359.2 177.804C359.2 177.484 359.278 177.208 359.433 176.977C359.593 176.745 359.807 176.568 360.074 176.443C360.345 176.314 360.643 176.249 360.968 176.249ZM361.035 177.057C360.879 177.057 360.743 177.086 360.628 177.144C360.512 177.197 360.421 177.277 360.354 177.384C360.287 177.486 360.254 177.608 360.254 177.751C360.254 177.964 360.325 178.135 360.467 178.264C360.614 178.389 360.808 178.451 361.048 178.451C361.204 178.451 361.342 178.422 361.462 178.365C361.586 178.302 361.682 178.218 361.749 178.111C361.815 178.004 361.849 177.884 361.849 177.751C361.849 177.617 361.815 177.499 361.749 177.397C361.686 177.29 361.595 177.208 361.475 177.15C361.355 177.088 361.208 177.057 361.035 177.057Z" fill="#30273B"/>
<path d="M370.906 181.08C370.581 181.08 370.258 181.038 369.938 180.953C369.618 180.864 369.347 180.74 369.124 180.58L369.545 179.752C369.722 179.881 369.929 179.984 370.165 180.059C370.401 180.135 370.639 180.173 370.879 180.173C371.15 180.173 371.364 180.119 371.519 180.013C371.675 179.906 371.753 179.759 371.753 179.572C371.753 179.394 371.684 179.254 371.546 179.152C371.408 179.05 371.186 178.998 370.879 178.998H370.385V178.284L371.686 176.81L371.806 177.197H369.358V176.33H372.627V177.03L371.333 178.505L370.786 178.191H371.099C371.673 178.191 372.107 178.32 372.4 178.578C372.694 178.836 372.841 179.167 372.841 179.572C372.841 179.835 372.772 180.081 372.634 180.313C372.496 180.54 372.285 180.724 372 180.867C371.715 181.009 371.35 181.08 370.906 181.08ZM375.341 181.08C374.959 181.08 374.616 180.987 374.314 180.8C374.011 180.609 373.773 180.333 373.6 179.972C373.426 179.612 373.34 179.176 373.34 178.665C373.34 178.153 373.426 177.717 373.6 177.357C373.773 176.997 374.011 176.723 374.314 176.536C374.616 176.345 374.959 176.249 375.341 176.249C375.728 176.249 376.071 176.345 376.369 176.536C376.671 176.723 376.909 176.997 377.083 177.357C377.256 177.717 377.343 178.153 377.343 178.665C377.343 179.176 377.256 179.612 377.083 179.972C376.909 180.333 376.671 180.609 376.369 180.8C376.071 180.987 375.728 181.08 375.341 181.08ZM375.341 180.166C375.524 180.166 375.681 180.115 375.815 180.013C375.953 179.91 376.06 179.748 376.135 179.525C376.215 179.303 376.255 179.016 376.255 178.665C376.255 178.313 376.215 178.026 376.135 177.804C376.06 177.582 375.953 177.419 375.815 177.317C375.681 177.215 375.524 177.164 375.341 177.164C375.163 177.164 375.005 177.215 374.867 177.317C374.734 177.419 374.627 177.582 374.547 177.804C374.472 178.026 374.434 178.313 374.434 178.665C374.434 179.016 374.472 179.303 374.547 179.525C374.627 179.748 374.734 179.91 374.867 180.013C375.005 180.115 375.163 180.166 375.341 180.166Z" fill="#30273B"/>
<path d="M388.774 296.169H284.598C281.842 296.169 279.607 293.935 279.607 291.179V210.402C279.607 207.645 281.842 205.411 284.598 205.411H388.774C391.531 205.411 393.765 207.645 393.765 210.402V291.179C393.765 293.935 391.531 296.169 388.774 296.169Z" fill="#F0F6FF"/>
<path d="M290.242 218.839C289.878 218.839 289.529 218.792 289.195 218.696C288.861 218.597 288.593 218.469 288.389 218.313L288.747 217.52C288.942 217.658 289.171 217.773 289.436 217.864C289.704 217.951 289.975 217.994 290.248 217.994C290.456 217.994 290.623 217.975 290.749 217.936C290.879 217.892 290.974 217.834 291.035 217.76C291.096 217.686 291.126 217.602 291.126 217.507C291.126 217.385 291.078 217.29 290.983 217.22C290.888 217.147 290.762 217.088 290.606 217.045C290.45 216.997 290.277 216.954 290.086 216.915C289.899 216.872 289.711 216.82 289.52 216.759C289.334 216.698 289.163 216.62 289.007 216.525C288.851 216.43 288.723 216.304 288.623 216.148C288.528 215.992 288.48 215.792 288.48 215.55C288.48 215.29 288.549 215.053 288.688 214.841C288.831 214.624 289.044 214.453 289.325 214.327C289.611 214.197 289.969 214.132 290.398 214.132C290.684 214.132 290.966 214.167 291.243 214.236C291.52 214.301 291.765 214.401 291.978 214.536L291.653 215.335C291.44 215.214 291.228 215.125 291.016 215.069C290.803 215.008 290.595 214.978 290.391 214.978C290.188 214.978 290.021 215.001 289.891 215.049C289.761 215.097 289.668 215.16 289.611 215.238C289.555 215.311 289.527 215.398 289.527 215.498C289.527 215.615 289.574 215.71 289.67 215.784C289.765 215.853 289.891 215.909 290.047 215.953C290.203 215.996 290.374 216.039 290.56 216.083C290.751 216.126 290.94 216.176 291.126 216.232C291.317 216.289 291.49 216.364 291.646 216.46C291.802 216.555 291.928 216.681 292.023 216.837C292.123 216.993 292.173 217.19 292.173 217.429C292.173 217.684 292.101 217.918 291.958 218.131C291.815 218.343 291.601 218.514 291.315 218.644C291.033 218.774 290.675 218.839 290.242 218.839ZM294.251 218.813C293.839 218.813 293.519 218.709 293.289 218.501C293.059 218.289 292.944 217.975 292.944 217.559V214.49H293.959V217.546C293.959 217.693 293.998 217.808 294.076 217.89C294.154 217.968 294.26 218.007 294.394 218.007C294.554 218.007 294.691 217.964 294.804 217.877L295.077 218.592C294.973 218.666 294.847 218.722 294.7 218.761C294.557 218.796 294.407 218.813 294.251 218.813ZM292.405 216.122V215.342H294.83V216.122H292.405ZM297.791 218.761V218.079L297.726 217.929V216.707C297.726 216.49 297.659 216.321 297.525 216.2C297.395 216.078 297.193 216.018 296.92 216.018C296.734 216.018 296.55 216.048 296.368 216.109C296.19 216.165 296.038 216.243 295.913 216.343L295.548 215.634C295.739 215.5 295.969 215.396 296.238 215.322C296.506 215.248 296.779 215.212 297.057 215.212C297.59 215.212 298.004 215.337 298.298 215.589C298.593 215.84 298.741 216.232 298.741 216.765V218.761H297.791ZM296.725 218.813C296.452 218.813 296.218 218.768 296.023 218.677C295.828 218.581 295.679 218.454 295.575 218.293C295.47 218.133 295.418 217.953 295.418 217.754C295.418 217.546 295.468 217.363 295.568 217.207C295.672 217.051 295.835 216.93 296.056 216.843C296.277 216.752 296.565 216.707 296.92 216.707H297.85V217.298H297.031C296.792 217.298 296.628 217.337 296.537 217.416C296.45 217.494 296.407 217.591 296.407 217.708C296.407 217.838 296.456 217.942 296.556 218.02C296.66 218.094 296.801 218.131 296.979 218.131C297.148 218.131 297.299 218.092 297.434 218.014C297.568 217.931 297.666 217.812 297.726 217.656L297.882 218.124C297.809 218.349 297.674 218.521 297.479 218.638C297.284 218.755 297.033 218.813 296.725 218.813ZM299.658 218.761V215.264H300.627V216.252L300.491 215.966C300.595 215.719 300.761 215.532 300.991 215.407C301.221 215.277 301.5 215.212 301.83 215.212V216.148C301.786 216.143 301.747 216.141 301.713 216.141C301.678 216.137 301.641 216.135 301.602 216.135C301.325 216.135 301.099 216.215 300.926 216.375C300.757 216.531 300.673 216.776 300.673 217.11V218.761H299.658ZM303.984 218.813C303.572 218.813 303.251 218.709 303.022 218.501C302.792 218.289 302.677 217.975 302.677 217.559V214.49H303.691V217.546C303.691 217.693 303.73 217.808 303.808 217.89C303.886 217.968 303.992 218.007 304.127 218.007C304.287 218.007 304.424 217.964 304.536 217.877L304.809 218.592C304.705 218.666 304.58 218.722 304.432 218.761C304.289 218.796 304.14 218.813 303.984 218.813ZM302.137 216.122V215.342H304.562V216.122H302.137ZM308.234 218.761V215.069H306.778V214.21H310.743V215.069H309.287V218.761H308.234ZM311.238 218.761V215.264H312.253V218.761H311.238ZM311.746 214.776C311.559 214.776 311.408 214.722 311.291 214.614C311.173 214.505 311.115 214.371 311.115 214.21C311.115 214.05 311.173 213.916 311.291 213.807C311.408 213.699 311.559 213.645 311.746 213.645C311.932 213.645 312.084 213.697 312.201 213.801C312.318 213.901 312.376 214.031 312.376 214.191C312.376 214.36 312.318 214.501 312.201 214.614C312.088 214.722 311.936 214.776 311.746 214.776ZM317.673 215.212C317.951 215.212 318.195 215.268 318.408 215.381C318.624 215.489 318.794 215.658 318.915 215.888C319.041 216.113 319.103 216.403 319.103 216.759V218.761H318.089V216.915C318.089 216.633 318.031 216.425 317.914 216.291C317.797 216.156 317.632 216.089 317.42 216.089C317.272 216.089 317.14 216.124 317.023 216.193C316.906 216.258 316.815 216.358 316.75 216.492C316.685 216.627 316.652 216.798 316.652 217.006V218.761H315.638V216.915C315.638 216.633 315.58 216.425 315.463 216.291C315.35 216.156 315.188 216.089 314.975 216.089C314.828 216.089 314.696 216.124 314.579 216.193C314.462 216.258 314.371 216.358 314.306 216.492C314.241 216.627 314.208 216.798 314.208 217.006V218.761H313.194V215.264H314.163V216.219L313.981 215.94C314.102 215.701 314.273 215.522 314.494 215.4C314.719 215.274 314.975 215.212 315.261 215.212C315.582 215.212 315.862 215.294 316.1 215.459C316.343 215.619 316.503 215.866 316.581 216.2L316.223 216.102C316.34 215.829 316.527 215.613 316.783 215.452C317.043 215.292 317.339 215.212 317.673 215.212ZM321.774 218.813C321.375 218.813 321.024 218.735 320.72 218.579C320.421 218.423 320.19 218.211 320.025 217.942C319.86 217.669 319.778 217.359 319.778 217.012C319.778 216.661 319.858 216.351 320.018 216.083C320.183 215.81 320.406 215.597 320.688 215.446C320.97 215.29 321.288 215.212 321.644 215.212C321.986 215.212 322.294 215.285 322.567 215.433C322.844 215.576 323.063 215.784 323.223 216.057C323.384 216.325 323.464 216.648 323.464 217.025C323.464 217.064 323.462 217.11 323.457 217.162C323.453 217.21 323.449 217.255 323.444 217.298H320.603V216.707H322.911L322.521 216.882C322.521 216.7 322.484 216.542 322.411 216.408C322.337 216.273 322.235 216.169 322.105 216.096C321.975 216.018 321.823 215.979 321.65 215.979C321.477 215.979 321.323 216.018 321.189 216.096C321.059 216.169 320.957 216.276 320.883 216.414C320.809 216.549 320.772 216.709 320.772 216.895V217.051C320.772 217.242 320.814 217.411 320.896 217.559C320.983 217.702 321.102 217.812 321.254 217.89C321.41 217.964 321.592 218.001 321.8 218.001C321.986 218.001 322.149 217.972 322.287 217.916C322.43 217.86 322.56 217.775 322.677 217.663L323.217 218.248C323.057 218.43 322.855 218.571 322.612 218.67C322.37 218.766 322.09 218.813 321.774 218.813Z" fill="#30273B"/>
<path d="M328.543 252.607H291.324C288.939 252.607 287.005 250.673 287.005 248.288V232.371C287.005 229.986 288.939 228.052 291.324 228.052H328.543C330.927 228.052 332.861 229.986 332.861 232.371V248.288C332.861 250.673 330.927 252.607 328.543 252.607Z" fill="#8FB0DE"/>
<path d="M297.115 241.667V237.506L297.57 237.961H296.205V237.116H298.168V241.667H297.115ZM300.909 241.745C300.536 241.745 300.202 241.654 299.908 241.472C299.613 241.286 299.381 241.017 299.212 240.666C299.043 240.315 298.959 239.89 298.959 239.392C298.959 238.893 299.043 238.468 299.212 238.117C299.381 237.766 299.613 237.5 299.908 237.318C300.202 237.131 300.536 237.038 300.909 237.038C301.286 237.038 301.62 237.131 301.91 237.318C302.205 237.5 302.437 237.766 302.606 238.117C302.775 238.468 302.859 238.893 302.859 239.392C302.859 239.89 302.775 240.315 302.606 240.666C302.437 241.017 302.205 241.286 301.91 241.472C301.62 241.654 301.286 241.745 300.909 241.745ZM300.909 240.854C301.087 240.854 301.24 240.805 301.37 240.705C301.505 240.605 301.609 240.447 301.683 240.23C301.761 240.014 301.8 239.734 301.8 239.392C301.8 239.049 301.761 238.77 301.683 238.553C301.609 238.336 301.505 238.178 301.37 238.078C301.24 237.979 301.087 237.929 300.909 237.929C300.736 237.929 300.582 237.979 300.447 238.078C300.317 238.178 300.213 238.336 300.135 238.553C300.062 238.77 300.025 239.049 300.025 239.392C300.025 239.734 300.062 240.014 300.135 240.23C300.213 240.447 300.317 240.605 300.447 240.705C300.582 240.805 300.736 240.854 300.909 240.854ZM303.474 240.243V239.431H305.314V240.243H303.474ZM306.46 241.667V237.506L306.915 237.961H305.55V237.116H307.513V241.667H306.46ZM309.006 241.667V237.506L309.461 237.961H308.096V237.116H310.059V241.667H309.006ZM312.379 241.667L314.407 237.116H315.447L317.482 241.667H316.377L314.713 237.649H315.129L313.458 241.667H312.379ZM313.393 240.692L313.673 239.892H316.013L316.299 240.692H313.393ZM317.954 241.667V237.116H318.825L320.763 240.328H320.301L322.206 237.116H323.071L323.084 241.667H322.096L322.089 238.631H322.271L320.75 241.186H320.275L318.721 238.631H318.942V241.667H317.954Z" fill="white"/>
<path d="M381.357 252.607H344.139C341.754 252.607 339.819 250.673 339.819 248.288V232.371C339.819 229.986 341.754 228.052 344.139 228.052H381.357C383.742 228.052 385.676 229.986 385.676 232.371V248.288C385.676 250.673 383.742 252.607 381.357 252.607Z" fill="#DCE9FB"/>
<path d="M350.203 241.745C349.83 241.745 349.496 241.654 349.202 241.472C348.907 241.286 348.675 241.017 348.506 240.666C348.337 240.315 348.253 239.89 348.253 239.392C348.253 238.893 348.337 238.468 348.506 238.117C348.675 237.766 348.907 237.5 349.202 237.318C349.496 237.131 349.83 237.038 350.203 237.038C350.58 237.038 350.914 237.131 351.204 237.318C351.499 237.5 351.731 237.766 351.9 238.117C352.069 238.468 352.153 238.893 352.153 239.392C352.153 239.89 352.069 240.315 351.9 240.666C351.731 241.017 351.499 241.286 351.204 241.472C350.914 241.654 350.58 241.745 350.203 241.745ZM350.203 240.854C350.381 240.854 350.534 240.805 350.664 240.705C350.799 240.605 350.903 240.447 350.977 240.23C351.055 240.014 351.094 239.734 351.094 239.392C351.094 239.049 351.055 238.77 350.977 238.553C350.903 238.336 350.799 238.178 350.664 238.078C350.534 237.979 350.381 237.929 350.203 237.929C350.03 237.929 349.876 237.979 349.741 238.078C349.611 238.178 349.507 238.336 349.429 238.553C349.356 238.77 349.319 239.049 349.319 239.392C349.319 239.734 349.356 240.014 349.429 240.23C349.507 240.447 349.611 240.605 349.741 240.705C349.876 240.805 350.03 240.854 350.203 240.854ZM353.342 241.667V237.506L353.797 237.961H352.432V237.116H354.395V241.667H353.342ZM355.27 240.243V239.431H357.11V240.243H355.27ZM359.663 241.745C359.29 241.745 358.956 241.654 358.661 241.472C358.367 241.286 358.135 241.017 357.966 240.666C357.797 240.315 357.712 239.89 357.712 239.392C357.712 238.893 357.797 238.468 357.966 238.117C358.135 237.766 358.367 237.5 358.661 237.318C358.956 237.131 359.29 237.038 359.663 237.038C360.04 237.038 360.373 237.131 360.664 237.318C360.958 237.5 361.19 237.766 361.359 238.117C361.528 238.468 361.613 238.893 361.613 239.392C361.613 239.89 361.528 240.315 361.359 240.666C361.19 241.017 360.958 241.286 360.664 241.472C360.373 241.654 360.04 241.745 359.663 241.745ZM359.663 240.854C359.84 240.854 359.994 240.805 360.124 240.705C360.258 240.605 360.362 240.447 360.436 240.23C360.514 240.014 360.553 239.734 360.553 239.392C360.553 239.049 360.514 238.77 360.436 238.553C360.362 238.336 360.258 238.178 360.124 238.078C359.994 237.979 359.84 237.929 359.663 237.929C359.489 237.929 359.335 237.979 359.201 238.078C359.071 238.178 358.967 238.336 358.889 238.553C358.815 238.77 358.778 239.049 358.778 239.392C358.778 239.734 358.815 240.014 358.889 240.23C358.967 240.447 359.071 240.605 359.201 240.705C359.335 240.805 359.489 240.854 359.663 240.854ZM363.537 241.745C363.22 241.745 362.906 241.704 362.594 241.621C362.282 241.535 362.018 241.413 361.801 241.257L362.211 240.451C362.384 240.577 362.585 240.677 362.815 240.75C363.045 240.824 363.277 240.861 363.511 240.861C363.775 240.861 363.983 240.809 364.135 240.705C364.287 240.601 364.362 240.458 364.362 240.276C364.362 240.102 364.295 239.966 364.161 239.866C364.027 239.767 363.81 239.717 363.511 239.717H363.03V239.021L364.297 237.584L364.414 237.961H362.029V237.116H365.214V237.799L363.953 239.236L363.42 238.93H363.725C364.284 238.93 364.707 239.056 364.993 239.307C365.279 239.558 365.422 239.881 365.422 240.276C365.422 240.531 365.355 240.772 365.221 240.997C365.086 241.218 364.88 241.398 364.603 241.537C364.326 241.676 363.97 241.745 363.537 241.745ZM368.036 241.667V237.116H370.005C370.413 237.116 370.764 237.183 371.059 237.318C371.353 237.448 371.581 237.636 371.741 237.883C371.902 238.13 371.982 238.425 371.982 238.768C371.982 239.106 371.902 239.398 371.741 239.645C371.581 239.892 371.353 240.083 371.059 240.217C370.764 240.347 370.413 240.412 370.005 240.412H368.621L369.089 239.938V241.667H368.036ZM369.089 240.055L368.621 239.554H369.947C370.272 239.554 370.515 239.485 370.675 239.346C370.835 239.207 370.916 239.015 370.916 238.768C370.916 238.516 370.835 238.321 370.675 238.182C370.515 238.044 370.272 237.974 369.947 237.974H368.621L369.089 237.474V240.055ZM372.734 241.667V237.116H373.605L375.542 240.328H375.081L376.985 237.116H377.85L377.863 241.667H376.875L376.868 238.631H377.05L375.529 241.186H375.055L373.501 238.631H373.722V241.667H372.734Z" fill="#30273B"/>
<path d="M328.543 283.811H291.324C288.939 283.811 287.005 281.878 287.005 279.492V263.576C287.005 261.19 288.939 259.256 291.324 259.256H328.543C330.927 259.256 332.861 261.19 332.861 263.576V279.492C332.861 281.878 330.927 283.811 328.543 283.811Z" fill="#DCE9FB"/>
<path d="M295.778 273.015C295.405 273.015 295.072 272.924 294.777 272.742C294.482 272.556 294.25 272.287 294.081 271.936C293.912 271.585 293.828 271.16 293.828 270.662C293.828 270.163 293.912 269.738 294.081 269.387C294.25 269.036 294.482 268.77 294.777 268.588C295.072 268.401 295.405 268.308 295.778 268.308C296.155 268.308 296.489 268.401 296.779 268.588C297.074 268.77 297.306 269.036 297.475 269.387C297.644 269.738 297.728 270.163 297.728 270.662C297.728 271.16 297.644 271.585 297.475 271.936C297.306 272.287 297.074 272.556 296.779 272.742C296.489 272.924 296.155 273.015 295.778 273.015ZM295.778 272.124C295.956 272.124 296.11 272.075 296.24 271.975C296.374 271.875 296.478 271.717 296.552 271.5C296.63 271.284 296.669 271.004 296.669 270.662C296.669 270.319 296.63 270.04 296.552 269.823C296.478 269.606 296.374 269.448 296.24 269.348C296.11 269.249 295.956 269.199 295.778 269.199C295.605 269.199 295.451 269.249 295.317 269.348C295.186 269.448 295.082 269.606 295.004 269.823C294.931 270.04 294.894 270.319 294.894 270.662C294.894 271.004 294.931 271.284 295.004 271.5C295.082 271.717 295.186 271.875 295.317 271.975C295.451 272.075 295.605 272.124 295.778 272.124ZM299.652 273.015C299.336 273.015 299.022 272.974 298.71 272.892C298.398 272.805 298.133 272.683 297.917 272.527L298.326 271.721C298.5 271.847 298.701 271.947 298.931 272.02C299.16 272.094 299.392 272.131 299.626 272.131C299.891 272.131 300.099 272.079 300.25 271.975C300.402 271.871 300.478 271.728 300.478 271.546C300.478 271.372 300.411 271.236 300.276 271.136C300.142 271.037 299.925 270.987 299.626 270.987H299.145V270.291L300.413 268.854L300.53 269.231H298.144V268.386H301.33V269.069L300.068 270.506L299.535 270.2H299.841C300.4 270.2 300.823 270.326 301.109 270.577C301.395 270.828 301.538 271.151 301.538 271.546C301.538 271.801 301.471 272.042 301.336 272.267C301.202 272.488 300.996 272.668 300.719 272.807C300.441 272.946 300.086 273.015 299.652 273.015ZM302.108 271.513V270.701H303.948V271.513H302.108ZM306.501 273.015C306.128 273.015 305.795 272.924 305.5 272.742C305.205 272.556 304.973 272.287 304.804 271.936C304.635 271.585 304.551 271.16 304.551 270.662C304.551 270.163 304.635 269.738 304.804 269.387C304.973 269.036 305.205 268.77 305.5 268.588C305.795 268.401 306.128 268.308 306.501 268.308C306.878 268.308 307.212 268.401 307.502 268.588C307.797 268.77 308.029 269.036 308.198 269.387C308.367 269.738 308.451 270.163 308.451 270.662C308.451 271.16 308.367 271.585 308.198 271.936C308.029 272.287 307.797 272.556 307.502 272.742C307.212 272.924 306.878 273.015 306.501 273.015ZM306.501 272.124C306.679 272.124 306.833 272.075 306.963 271.975C307.097 271.875 307.201 271.717 307.275 271.5C307.353 271.284 307.392 271.004 307.392 270.662C307.392 270.319 307.353 270.04 307.275 269.823C307.201 269.606 307.097 269.448 306.963 269.348C306.833 269.249 306.679 269.199 306.501 269.199C306.328 269.199 306.174 269.249 306.04 269.348C305.909 269.448 305.805 269.606 305.727 269.823C305.654 270.04 305.617 270.319 305.617 270.662C305.617 271.004 305.654 271.284 305.727 271.5C305.805 271.717 305.909 271.875 306.04 271.975C306.174 272.075 306.328 272.124 306.501 272.124ZM308.911 271.981V271.273L311.056 268.386H312.162L310.062 271.273L309.548 271.123H313.13V271.981H308.911ZM311.362 272.937V271.981L311.395 271.123V270.272H312.389V272.937H311.362ZM314.974 272.937L317.003 268.386H318.043L320.078 272.937H318.973L317.308 268.919H317.724L316.054 272.937H314.974ZM315.989 271.962L316.268 271.162H318.609L318.895 271.962H315.989ZM320.55 272.937V268.386H321.421L323.358 271.598H322.897L324.802 268.386H325.666L325.679 272.937H324.691L324.685 269.901H324.867L323.345 272.456H322.871L321.317 269.901H321.538V272.937H320.55Z" fill="#30273B"/>
<path d="M381.357 283.811H344.139C341.754 283.811 339.819 281.878 339.819 279.492V263.576C339.819 261.19 341.754 259.256 344.139 259.256H381.357C383.742 259.256 385.676 261.19 385.676 263.576V279.492C385.676 281.878 383.742 283.811 381.357 283.811Z" fill="#DCE9FB"/>
<path d="M349.202 273.015C348.829 273.015 348.495 272.924 348.201 272.742C347.906 272.556 347.674 272.287 347.505 271.936C347.336 271.585 347.252 271.16 347.252 270.662C347.252 270.163 347.336 269.738 347.505 269.387C347.674 269.036 347.906 268.77 348.201 268.588C348.495 268.401 348.829 268.308 349.202 268.308C349.579 268.308 349.913 268.401 350.203 268.588C350.498 268.77 350.73 269.036 350.899 269.387C351.068 269.738 351.152 270.163 351.152 270.662C351.152 271.16 351.068 271.585 350.899 271.936C350.73 272.287 350.498 272.556 350.203 272.742C349.913 272.924 349.579 273.015 349.202 273.015ZM349.202 272.124C349.38 272.124 349.533 272.075 349.663 271.975C349.798 271.875 349.902 271.717 349.976 271.5C350.054 271.284 350.093 271.004 350.093 270.662C350.093 270.319 350.054 270.04 349.976 269.823C349.902 269.606 349.798 269.448 349.663 269.348C349.533 269.249 349.38 269.199 349.202 269.199C349.029 269.199 348.875 269.249 348.74 269.348C348.61 269.448 348.506 269.606 348.428 269.823C348.355 270.04 348.318 270.319 348.318 270.662C348.318 271.004 348.355 271.284 348.428 271.5C348.506 271.717 348.61 271.875 348.74 271.975C348.875 272.075 349.029 272.124 349.202 272.124ZM353.211 273.015C352.895 273.015 352.581 272.974 352.269 272.892C351.961 272.805 351.696 272.683 351.475 272.527L351.891 271.721C352.065 271.847 352.264 271.947 352.49 272.02C352.719 272.094 352.951 272.131 353.185 272.131C353.45 272.131 353.658 272.079 353.809 271.975C353.961 271.871 354.037 271.726 354.037 271.539C354.037 271.422 354.007 271.318 353.946 271.227C353.885 271.136 353.777 271.067 353.621 271.019C353.469 270.972 353.255 270.948 352.977 270.948H351.813L352.048 268.386H354.823V269.231H352.425L352.971 268.75L352.808 270.577L352.262 270.096H353.224C353.675 270.096 354.037 270.159 354.31 270.285C354.587 270.406 354.789 270.573 354.915 270.785C355.04 270.998 355.103 271.238 355.103 271.507C355.103 271.775 355.036 272.025 354.902 272.254C354.767 272.48 354.559 272.664 354.277 272.807C354 272.946 353.645 273.015 353.211 273.015ZM355.615 271.513V270.701H357.455V271.513H355.615ZM360.007 273.015C359.635 273.015 359.301 272.924 359.006 272.742C358.712 272.556 358.48 272.287 358.311 271.936C358.142 271.585 358.057 271.16 358.057 270.662C358.057 270.163 358.142 269.738 358.311 269.387C358.48 269.036 358.712 268.77 359.006 268.588C359.301 268.401 359.635 268.308 360.007 268.308C360.385 268.308 360.718 268.401 361.009 268.588C361.303 268.77 361.535 269.036 361.704 269.387C361.873 269.738 361.958 270.163 361.958 270.662C361.958 271.16 361.873 271.585 361.704 271.936C361.535 272.287 361.303 272.556 361.009 272.742C360.718 272.924 360.385 273.015 360.007 273.015ZM360.007 272.124C360.185 272.124 360.339 272.075 360.469 271.975C360.603 271.875 360.707 271.717 360.781 271.5C360.859 271.284 360.898 271.004 360.898 270.662C360.898 270.319 360.859 270.04 360.781 269.823C360.707 269.606 360.603 269.448 360.469 269.348C360.339 269.249 360.185 269.199 360.007 269.199C359.834 269.199 359.68 269.249 359.546 269.348C359.416 269.448 359.312 269.606 359.234 269.823C359.16 270.04 359.123 270.319 359.123 270.662C359.123 271.004 359.16 271.284 359.234 271.5C359.312 271.717 359.416 271.875 359.546 271.975C359.68 272.075 359.834 272.124 360.007 272.124ZM364.504 273.015C364.088 273.015 363.726 272.928 363.419 272.755C363.115 272.582 362.881 272.328 362.717 271.994C362.552 271.661 362.469 271.249 362.469 270.759C362.469 270.235 362.567 269.79 362.762 269.426C362.961 269.062 363.234 268.785 363.581 268.594C363.932 268.404 364.335 268.308 364.79 268.308C365.033 268.308 365.265 268.334 365.486 268.386C365.707 268.438 365.898 268.516 366.058 268.62L365.668 269.394C365.542 269.307 365.408 269.249 365.265 269.218C365.122 269.184 364.972 269.166 364.816 269.166C364.422 269.166 364.11 269.286 363.88 269.524C363.651 269.762 363.536 270.116 363.536 270.584C363.536 270.662 363.536 270.748 363.536 270.844C363.54 270.939 363.553 271.034 363.575 271.13L363.282 270.857C363.364 270.688 363.471 270.547 363.601 270.434C363.731 270.317 363.885 270.23 364.062 270.174C364.244 270.113 364.444 270.083 364.66 270.083C364.955 270.083 365.219 270.142 365.453 270.259C365.688 270.376 365.874 270.54 366.013 270.753C366.156 270.965 366.227 271.214 366.227 271.5C366.227 271.808 366.149 272.077 365.993 272.306C365.841 272.532 365.636 272.707 365.375 272.833C365.12 272.954 364.829 273.015 364.504 273.015ZM364.446 272.228C364.593 272.228 364.723 272.202 364.836 272.15C364.953 272.094 365.044 272.014 365.109 271.91C365.174 271.806 365.206 271.687 365.206 271.552C365.206 271.344 365.135 271.18 364.992 271.058C364.853 270.933 364.667 270.87 364.433 270.87C364.277 270.87 364.14 270.9 364.023 270.961C363.906 271.017 363.813 271.097 363.744 271.201C363.679 271.301 363.646 271.418 363.646 271.552C363.646 271.682 363.679 271.799 363.744 271.903C363.809 272.003 363.9 272.083 364.017 272.144C364.134 272.2 364.277 272.228 364.446 272.228ZM368.138 272.937L370.166 268.386H371.206L373.241 272.937H372.136L370.472 268.919H370.888L369.217 272.937H368.138ZM369.152 271.962L369.432 271.162H371.772L372.058 271.962H369.152ZM373.713 272.937V268.386H374.585L376.522 271.598H376.06L377.965 268.386H378.83L378.843 272.937H377.855L377.848 269.901H378.03L376.509 272.456H376.034L374.481 269.901H374.702V272.937H373.713Z" fill="#30273B"/>
<path d="M303.736 90.5068C303.736 92.8193 301.862 94.6938 299.549 94.6938C297.237 94.6938 295.362 92.8193 295.362 90.5068C295.362 88.1951 297.237 86.3206 299.549 86.3206C301.862 86.3206 303.736 88.1951 303.736 90.5068Z" fill="#30273B"/>
<path d="M303.736 93.9456C303.736 96.2573 301.862 98.1318 299.549 98.1318C297.237 98.1318 295.362 96.2573 295.362 93.9456C295.362 91.6322 297.237 89.7586 299.549 89.7586C301.862 89.7586 303.736 91.6322 303.736 93.9456Z" fill="#71CDD6"/>
<path d="M308.25 99.3773C308.25 104.165 304.367 108.048 299.579 108.048C294.789 108.048 290.907 104.165 290.907 99.3773C290.907 94.5878 294.789 90.7059 299.579 90.7059C304.367 90.7059 308.25 94.5878 308.25 99.3773Z" fill="#30273B"/>
<path d="M293.396 104.063C293.842 105.059 293.803 106.667 292.859 107.022C291.914 107.377 290.785 106.094 290.339 105.098C289.894 104.102 290.166 103.237 291.111 102.88C292.057 102.525 292.951 103.066 293.396 104.063Z" fill="#E0A17F"/>
<path d="M305.865 104.063C305.419 105.059 305.458 106.667 306.403 107.022C307.348 107.377 308.476 106.094 308.922 105.098C309.368 104.102 309.095 103.237 308.15 102.88C307.206 102.525 306.311 103.066 305.865 104.063Z" fill="#E0A17F"/>
<path d="M307.561 102.771C307.561 102.771 304.101 107.87 299.7 107.87C295.3 107.87 291.6 102.775 291.6 102.775C291.6 98.5521 295.3 92.577 299.7 92.577C304.101 92.577 307.561 98.5477 307.561 102.771Z" fill="#30273B"/>
<path d="M299.7 93.4714C296.018 93.4714 292.765 96.3199 292.765 99.8337L292.978 104.051C292.978 104.051 293.054 110.03 298.729 111.849C299.358 112.05 300.044 112.05 300.673 111.849C306.348 110.03 306.424 104.051 306.424 104.051L306.636 99.8337C306.636 96.3199 303.383 93.4714 299.7 93.4714Z" fill="#E9AE87"/>
</g>
<defs>
<linearGradient id="paint0_linear_863_10124" x1="325" y1="0" x2="325" y2="350" gradientUnits="userSpaceOnUse">
<stop stop-color="#DCF3FE"/>
<stop offset="1" stop-color="#DEF4FF"/>
</linearGradient>
<clipPath id="clip0_863_10124">
<rect width="650" height="350" fill="white"/>
</clipPath>
</defs>
</svg>
