<svg width="650" height="350" viewBox="0 0 650 350" fill="none" xmlns="http://www.w3.org/2000/svg">
<g clip-path="url(#clip0_863_11888)">
<rect width="650" height="350" rx="5" fill="url(#paint0_linear_863_11888)"/>
<path fill-rule="evenodd" clip-rule="evenodd" d="M357.631 109.636C396.513 92.444 456.985 106.085 485.852 132.587C515.742 160.029 497.022 201.839 497.162 237.738C497.247 259.588 519.6 248.398 526.224 269.637C539.437 312.001 565.496 345.609 526.224 376.829C485.722 409.026 449.494 380.7 391.663 376.829C363.001 374.91 342.334 399.266 313.867 402.489C272.085 407.22 224.721 418.074 189.806 399.684C154.822 381.258 150.991 343.003 140.62 311.24C129.146 276.102 89.4931 227.649 126.328 205.285C172.495 177.256 222.491 201.21 274.239 179.811C318.985 161.308 313.58 129.113 357.631 109.636Z" fill="#E1FFFF"/>
<circle cx="325" cy="172" r="262.5" stroke="white"/>
<circle cx="325" cy="172" r="208.75" stroke="white" stroke-width="0.5"/>
<g clip-path="url(#clip1_863_11888)">
<path d="M412.893 325.784L413.202 327.14C412.344 312.381 412.013 298.156 411.972 285.432L411.96 285.399L411.972 285.354C411.972 285.323 411.971 285.293 411.971 285.262L411.994 285.276L422.231 247.598C419.74 245.112 411.802 245.247 411.802 245.247H396.379V245.241C392.482 245.05 388.802 244.045 385.509 242.397C385.487 242.424 385.465 242.451 385.445 242.481L387.048 243.42L393.539 269.843L384.632 272.053L390.569 283.102L360.357 342.41L357.771 349.741V350.855H413.274L412.893 325.784Z" fill="#F9F9FA"/>
<path d="M351.865 338.763L347.236 332.01L322.324 283.106L328.261 272.056L319.354 269.847L325.845 243.423L327.448 242.484C327.426 242.455 327.405 242.428 327.384 242.4C324.09 244.049 320.409 245.052 316.514 245.245V245.25H302.859C302.861 245.278 302.862 245.305 302.864 245.332C302.778 245.331 302.691 245.326 302.603 245.326C293.649 245.326 286.391 252.529 286.391 261.415C286.391 262.728 286.554 264.002 286.851 265.224L266.541 303.901L227.247 310.771L220.262 311.992L217.598 289.346C216.151 285.281 214.881 281.132 213.793 276.911C211.45 274.205 208.065 272.456 204.337 272.219C203.529 272.168 202.705 272.184 201.872 272.28C194.398 273.146 189.047 279.861 189.92 287.279L194.871 329.364C195.307 333.061 197.258 336.417 200.267 338.64C202.636 340.39 206.065 337.531 208.976 337.531C209.762 337.531 210.555 337.463 211.34 337.326L233.456 331.484L241.411 330.063L277.882 329.377C282.052 328.647 285.644 326.036 287.6 322.309L302.609 293.726C302.516 295.638 302.42 297.454 302.325 299.144L302.319 300.727L301.163 339.275L300.816 350.858H356.527V349.927L351.865 338.763Z" fill="#F9F9FA"/>
<path d="M390.082 243.821C383.747 235.181 372.885 230.799 357.796 230.799C340.702 230.799 328.663 235.309 322.012 244.204C322.009 244.208 322.006 244.214 322.001 244.219C323.297 243.864 325.874 243.033 329.036 241.355C335.518 236.342 345.154 233.806 357.796 233.806C368.819 233.806 377.368 236.242 383.31 241.059C385.406 242.096 388.523 243.362 390.238 244.041C390.185 243.968 390.134 243.894 390.082 243.821Z" fill="#010101"/>
<path d="M216.987 284.144C216.66 281.365 215.504 278.885 213.795 276.912C214.881 281.133 216.151 285.281 217.599 289.347L216.987 284.144Z" fill="#F9F9FA"/>
<path d="M357.77 349.743V349.365H356.531V349.928L357.167 351.452L357.77 349.743Z" fill="#E6E6E5"/>
<path d="M357.167 351.452L356.529 349.927V350.855C356.609 350.855 356.689 350.857 356.769 350.857C357.103 350.857 357.436 350.852 357.77 350.851V349.742L357.167 351.452Z" fill="#E6E6E5"/>
<path d="M411.972 285.432C411.972 285.406 411.972 285.38 411.972 285.354L411.959 285.399L411.972 285.432Z" fill="#0B4969"/>
<path d="M373.86 226.895L373.874 226.907V221.476H340.433V229.321H340.321C338.915 232.415 336.937 235.196 334.527 237.541C360.633 240.023 373.86 226.895 373.86 226.895Z" fill="#D7AF95"/>
<path d="M373.874 231.965V226.907L373.86 226.896C373.86 226.896 360.633 240.023 334.528 237.542C332.526 239.489 330.227 241.134 327.699 242.399C330.969 247.029 335.34 250.833 340.433 253.442V260.74H340.476V261.238H372.261V260.74H373.874V252.744C378.45 250.152 382.383 246.573 385.38 242.297C380.613 240.023 376.615 236.42 373.874 231.965Z" fill="#F3C8A6"/>
<path d="M380.124 247.938C373.85 253.744 365.445 257.305 356.189 257.305C347.693 257.305 339.923 254.3 333.85 249.318L357.153 351.478L380.124 247.938Z" fill="#D1D4DC"/>
<path d="M363.125 334.696L368.388 321.912L362.128 263.818L357.181 262.386V262.324L357.074 262.355L356.966 262.324V262.386L352.019 263.818L345.327 325.761L353.291 340.744L357.1 351.328L358.346 349.129L361.463 340.4L363.125 334.696Z" fill="#435C7A"/>
<path d="M364.644 254.277L356.902 253.224L349.159 254.277L347.653 258.546L351.309 264.308L356.902 264.522L362.494 264.308L366.149 258.546L364.644 254.277Z" fill="#435C7A"/>
<path d="M331.72 239.977L356.549 253.224L338.928 270.712L325.845 243.422L331.72 239.977Z" fill="#BECAC6"/>
<path d="M381.438 239.977L356.608 253.224L374.228 270.712L386.99 243.701L381.438 239.977Z" fill="#BECAC6"/>
<path d="M399.697 169.058C399.697 139.152 381.578 129.734 358.027 129.734C357.738 129.734 357.449 129.737 357.162 129.742V232.359C380.664 232.264 399.697 198.923 399.697 169.058Z" fill="#F3C8A6"/>
<path d="M356.088 129.768C333.395 130.501 314.427 139.975 314.427 169.058C314.427 198.553 332.996 231.671 356.088 232.33C356.415 232.34 356.738 232.363 357.062 232.363C357.095 232.363 357.128 232.36 357.162 232.36V129.743C356.804 129.748 356.446 129.757 356.088 129.768Z" fill="#F3C8A6"/>
<path d="M402.535 165.276C401.516 151.902 396.022 142.227 396.022 142.227C399.696 125.953 384.369 121.421 368.206 121.028C353.266 120.669 337.615 123.845 335.592 124.577C333.402 125.369 330.32 125.644 327.88 125.727C325.639 125.8 323.931 125.717 323.931 125.717C324.022 126.084 324.382 126.941 324.736 127.727C325.1 128.562 325.458 129.319 325.458 129.319C325.029 129.363 324.248 129.15 323.308 128.806C320.036 127.616 314.75 124.769 314.75 124.769C314.179 129.135 315.231 133.027 316.426 135.824C317.621 138.624 318.958 140.33 318.958 140.33C317.999 140.521 315.324 139.382 315.324 139.382C316.091 142.987 316.857 144.697 316.857 144.697C311.103 148.863 309.77 160.893 309.666 170.302L319.527 181.729L322.937 173.527C323.01 173.537 323.078 173.539 323.152 173.55C325.559 164.915 327.564 151.907 327.564 151.907C353.291 168.299 376.963 155.202 381.053 152.687C381.829 151.843 382.24 151.336 382.24 151.336C383.699 167.738 394.875 178.832 394.875 178.832C393.941 171.866 401.993 166.404 402.593 166.009C402.617 165.993 402.649 165.971 402.649 165.971C402.617 165.729 402.576 165.511 402.535 165.276Z" fill="#3C2618"/>
<path d="M394.113 176.034C392.504 182.137 393.648 187.726 396.662 188.512C399.684 189.304 403.432 184.997 405.047 178.892C406.656 172.793 405.512 167.203 402.496 166.413C399.48 165.624 395.727 169.93 394.113 176.034Z" fill="#F3C8A6"/>
<path d="M318.876 176.195C320.548 182.158 319.668 187.61 316.929 188.366C314.188 189.125 310.614 184.904 308.946 178.938C307.28 172.971 308.153 167.521 310.892 166.763C313.635 166.008 317.214 170.227 318.876 176.195Z" fill="#E3B99A"/>
<path d="M357.153 351.478L333.85 249.317L331.72 239.977L327.449 242.483L325.845 243.422L319.354 269.845L328.261 272.055L322.324 283.104L357.153 351.478Z" fill="#E6E6E5"/>
<path d="M394.255 269.846L387.763 243.422L387.692 243.379L381.737 240.217L380.123 247.937L357.153 351.479L391.287 283.104L385.348 272.055L394.255 269.846Z" fill="#E6E6E5"/>
<path d="M276.706 185.312L169.377 206.817L196.825 341.735L304.154 320.23L276.706 185.312Z" fill="#1D626D"/>
<path d="M272.502 193.544L176.471 212.785L201.029 333.501L297.06 314.259L272.502 193.544Z" fill="white"/>
<path d="M199.521 248.079L192.365 249.512L190.921 242.413L198.078 240.979L199.521 248.079Z" fill="#2D4A55"/>
<path d="M264.633 227.64L205.217 239.545L206.662 246.645L266.077 234.74L264.633 227.64Z" fill="#2D4A55"/>
<path d="M200.822 254.465L193.668 255.899L195.113 262.999L202.267 261.565L200.822 254.465Z" fill="#2D4A55"/>
<path d="M259.886 242.631L207.961 253.035L209.405 260.134L261.33 249.73L259.886 242.631Z" fill="#2D4A55"/>
<path d="M203.56 267.955L196.405 269.388L197.849 276.488L205.004 275.054L203.56 267.955Z" fill="#2D4A55"/>
<path d="M257.695 257.107L210.707 266.521L212.151 273.621L259.139 264.206L257.695 257.107Z" fill="#2D4A55"/>
<path d="M206.307 281.441L199.15 282.875L200.595 289.975L207.751 288.541L206.307 281.441Z" fill="#2D4A55"/>
<path d="M274.388 267.801L213.45 280.011L214.895 287.11L275.832 274.901L274.388 267.801Z" fill="#2D4A55"/>
<path d="M209.046 294.928L201.89 296.361L203.333 303.461L210.49 302.028L209.046 294.928Z" fill="#2D4A55"/>
<path d="M277.131 281.29L216.193 293.5L217.638 300.599L278.575 288.389L277.131 281.29Z" fill="#2D4A55"/>
<path d="M173.154 269.502C173.419 269.502 173.688 269.482 173.96 269.444L189.619 267.224C192.708 266.786 194.854 263.946 194.413 260.88C193.972 257.815 191.116 255.686 188.022 256.124L172.363 258.344C169.274 258.782 167.128 261.623 167.569 264.687C167.971 267.483 170.388 269.502 173.154 269.502Z" fill="#E3B99A"/>
<path d="M172.351 281.661L187.692 279.758C190.788 279.373 192.984 276.572 192.596 273.499C192.21 270.427 189.387 268.25 186.289 268.632L170.949 270.535C167.854 270.918 165.658 273.72 166.045 276.792C166.403 279.629 168.835 281.705 171.643 281.705C171.877 281.704 172.113 281.689 172.351 281.661Z" fill="#E3B99A"/>
<path d="M190.965 290.836C194.031 290.265 196.051 287.336 195.477 284.292C194.901 281.249 191.95 279.244 188.883 279.814L173.543 282.669C170.476 283.24 168.456 286.169 169.03 289.213C169.54 291.906 171.911 293.787 174.577 293.787C174.922 293.787 175.272 293.755 175.624 293.69L190.965 290.836Z" fill="#E3B99A"/>
<path d="M198.36 295.281C197.9 292.546 195.296 290.696 192.537 291.154L178.798 293.427C176.042 293.883 174.18 296.471 174.639 299.205C175.052 301.661 177.195 303.401 179.623 303.401C179.899 303.401 180.18 303.379 180.461 303.331L194.2 301.058C196.956 300.604 198.819 298.016 198.36 295.281Z" fill="#E3B99A"/>
<path d="M429.174 255.304C433.012 263.373 430.65 272.479 423.895 275.645C417.142 278.811 408.553 274.835 404.714 266.767C400.874 258.698 403.237 249.591 409.991 246.426C416.746 243.26 425.334 247.235 429.174 255.304Z" fill="#F9F9FA"/>
<path d="M356.476 326.373C356.476 327.403 355.634 328.238 354.597 328.238C353.56 328.238 352.718 327.403 352.718 326.373C352.718 325.344 353.56 324.509 354.597 324.509C355.634 324.509 356.476 325.343 356.476 326.373Z" fill="#343337"/>
<path d="M362.194 326.933C362.194 327.963 361.353 328.798 360.315 328.798C359.278 328.798 358.437 327.963 358.437 326.933C358.437 325.904 359.278 325.069 360.315 325.069C361.354 325.068 362.194 325.903 362.194 326.933Z" fill="#343337"/>
<path d="M412.455 329.414C404.374 323.822 387.756 321.006 372.72 320.21L365.401 335.035L412.97 337.258L412.455 329.414Z" fill="#E6E6E5"/>
<path d="M316.314 263.721C316.425 269.403 317.667 273.532 317.719 273.705L320.619 272.835C320.572 272.68 316.028 257.231 324.46 245.978C325.752 244.255 327.279 242.715 329.038 241.355C325.876 243.033 323.299 243.864 322.003 244.22C318.133 249.403 316.166 256.145 316.314 263.721Z" fill="#010101"/>
<path d="M390.818 282.955L392.259 283.417L390.818 282.954V282.955Z" fill="#010101"/>
<path d="M390.238 244.041C388.523 243.362 385.407 242.096 383.31 241.06C384.946 242.387 386.386 243.893 387.625 245.581C393.078 253.012 393.672 262.72 393.21 269.556C392.702 277.077 390.839 282.885 390.817 282.954L392.258 283.417L393.7 283.879C393.781 283.632 395.686 277.717 396.228 269.836C396.945 259.41 394.873 250.499 390.238 244.041Z" fill="#010101"/>
<path d="M401.762 283.409C401.762 288.469 397.63 292.57 392.531 292.57C387.434 292.57 383.302 288.469 383.302 283.409C383.302 278.351 387.434 274.249 392.531 274.249C397.629 274.249 401.762 278.351 401.762 283.409Z" fill="#E6E6E5"/>
<path d="M392.53 293.228C387.075 293.228 382.637 288.823 382.637 283.41C382.637 277.996 387.075 273.591 392.53 273.591C397.987 273.591 402.424 277.996 402.424 283.41C402.425 288.823 397.987 293.228 392.53 293.228ZM392.53 274.907C387.806 274.907 383.963 278.721 383.963 283.41C383.963 288.098 387.806 291.913 392.53 291.913C397.256 291.913 401.099 288.098 401.099 283.41C401.1 278.721 397.256 274.907 392.53 274.907Z" fill="#010101"/>
<path d="M399.205 283.41C399.205 287.068 396.216 290.034 392.53 290.034C388.844 290.034 385.856 287.069 385.856 283.41C385.856 279.752 388.844 276.787 392.53 276.787C396.216 276.787 399.205 279.752 399.205 283.41Z" fill="#B4B4B4"/>
<path d="M319.709 332.935C312.351 332.547 311.478 327.855 311.444 327.657L306.502 298.321L308.747 297.949L313.69 327.285C313.713 327.395 314.381 330.393 319.831 330.679L319.709 332.935Z" fill="#B4B4B4"/>
<path d="M336.751 328.68C343.582 325.937 342.871 321.22 342.836 321.02L337.893 291.685L335.648 292.057L340.59 321.393C340.605 321.505 340.955 324.555 335.896 326.585L336.751 328.68Z" fill="#B4B4B4"/>
<path d="M321.64 329.335C323.8 329.761 325.328 331.232 325.051 332.62C324.773 334.009 322.795 334.788 320.633 334.362C318.472 333.935 316.944 332.464 317.221 331.076C317.5 329.688 319.478 328.908 321.64 329.335Z" fill="#292728"/>
<path d="M333.731 327.328C331.827 328.429 330.865 330.313 331.582 331.536C332.3 332.759 334.426 332.857 336.33 331.757C338.234 330.656 339.195 328.772 338.479 327.549C337.762 326.326 335.636 326.227 333.731 327.328Z" fill="#292728"/>
<path d="M305.883 299.136C305.839 298.877 304.821 292.698 305.647 286.106C306.804 276.88 311.026 271.406 317.855 270.273C334.044 267.586 338.428 292.469 338.607 293.529L335.239 294.089C335.201 293.863 331.253 271.485 318.417 273.614C313.157 274.488 310 278.831 309.035 286.523C308.269 292.632 309.241 298.519 309.25 298.578L305.883 299.136Z" fill="#292728"/>
<path d="M224.256 211.554C218.369 212.649 214.491 218.273 215.595 224.115C216.698 229.957 222.364 233.805 228.253 232.71C234.139 231.615 238.017 225.99 236.914 220.148C235.809 214.308 230.143 210.459 224.256 211.554ZM233.734 222.944L228.799 223.861L229.723 228.757L225.43 229.555L224.505 224.66L219.575 225.576L218.77 221.317L223.701 220.399L222.776 215.507L227.068 214.708L227.992 219.6L232.927 218.683L233.734 222.944Z" fill="#DB4744"/>
<path d="M242.031 188.564L222.467 193.095L202.662 196.453C202.662 196.453 204.921 202.671 202.903 209.27L224.092 205.024L225.628 204.716L247.163 200.401C242.721 195.098 242.031 188.564 242.031 188.564Z" fill="#305056"/>
<path d="M247.392 199.918C247.648 201.178 246.828 202.405 245.558 202.659L204.873 210.811C203.604 211.065 202.365 210.251 202.108 208.992C201.852 207.732 202.675 206.504 203.945 206.249L244.63 198.097C245.899 197.844 247.135 198.66 247.392 199.918Z" fill="#2D4A55"/>
<path d="M242.818 188.631C243.049 189.768 242.308 190.877 241.161 191.106L204.409 198.47C203.263 198.699 202.145 197.964 201.913 196.827C201.682 195.688 202.425 194.579 203.572 194.349L240.324 186.985C241.47 186.756 242.586 187.492 242.818 188.631Z" fill="#2D4A55"/>
<path d="M233.458 187.413C232.139 180.927 225.771 176.731 219.237 178.041C212.704 179.35 208.475 185.67 209.794 192.154L210.499 195.615L234.162 190.875L233.458 187.413ZM221.783 190.539C219.244 191.047 216.77 189.416 216.258 186.9C215.745 184.38 217.388 181.925 219.927 181.417C222.463 180.909 224.937 182.54 225.449 185.058C225.961 187.575 224.318 190.031 221.783 190.539Z" fill="#2D4A55"/>
<path d="M337.253 299.355C337.253 299.355 338.94 301.235 343.556 302.484L342.157 327.609C342.157 327.609 337.962 326.796 333.906 328.601L337.253 299.355Z" fill="#E3B99A"/>
<path d="M352.855 299.051L343.069 298.58C341.714 298.514 340.562 299.551 340.496 300.894L339.871 313.661L339.246 326.428C339.18 327.772 340.225 328.914 341.58 328.98L351.367 329.452C352.72 329.517 353.872 328.48 353.938 327.136L354.564 314.37L355.188 301.604C355.252 300.259 354.208 299.117 352.855 299.051Z" fill="white"/>
<path d="M304.979 324.285C305.081 322.213 306.817 320.627 308.872 320.587C308.87 320.565 308.862 320.549 308.857 320.533L305.171 320.355C302.993 320.25 301.298 318.399 301.404 316.234C301.509 314.079 303.378 312.39 305.556 312.496L301.597 312.304C299.419 312.199 297.723 310.349 297.829 308.185C297.934 306.029 299.804 304.341 301.982 304.446L286.143 303.682C283.967 303.577 282.271 301.727 282.377 299.563C282.482 297.406 284.352 295.719 286.529 295.825L289.059 295.946L310.286 296.97L313.147 297.108C313.63 297.131 314.08 296.714 314.242 296.258C314.405 295.805 314.253 295.245 313.862 294.957C310.204 291.881 306.442 291.883 306.646 287.716C306.693 286.749 307.251 285.876 308.114 285.425C308.978 284.981 310.018 285.016 310.845 285.526L336.942 299.125C337.552 299.501 337.909 300.179 337.874 300.892C337.705 304.33 337.111 316.457 336.75 323.847C336.59 327.102 333.805 329.612 330.523 329.454C319.912 328.943 308.745 328.403 308.745 328.403C306.569 328.3 304.873 326.449 304.979 324.285Z" fill="#E3B99A"/>
<path d="M436.825 335.733C436.586 335.733 436.348 335.729 436.108 335.718L343.859 331.903L345.288 297.84L415.412 303.325L400.32 267.852L429.798 256.706L452.083 310.864C454.891 316.261 454.594 322.734 451.303 327.854C448.141 332.775 442.673 335.733 436.825 335.733Z" fill="#F9F9FA"/>
</g>
<circle cx="588" cy="198" r="26" fill="#EFFAFF" fill-opacity="0.5"/>
<g clip-path="url(#clip2_863_11888)">
<path d="M583.836 206.273C583.83 205.426 583.14 204.75 582.299 204.765L581.378 204.78C579.727 204.852 578.834 203.869 578.644 203.876C578.453 203.877 579.619 205.329 580.186 205.955L582.815 208.837C583.384 209.461 584.862 210.248 584.861 210.004C584.859 209.752 583.826 209.069 583.843 207.532L583.836 206.273Z" fill="#E9E9E9"/>
<path d="M586.204 192.421L586.218 195.698L582.955 195.714L582.964 199.297L586.229 199.285L586.243 202.564L588 202.556V192.413L586.204 192.421Z" fill="#E9E9E9"/>
<path d="M589.802 199.27L593.069 199.258L593.054 195.673L589.789 195.686L589.777 192.406L588 192.413V202.556L589.815 202.547L589.802 199.27Z" fill="white"/>
<path d="M586.711 209.302C586.648 209.305 586.586 209.296 586.527 209.28C586.209 209.197 585.979 208.912 585.97 208.586L585.861 205.065C585.828 204.015 585.087 203.094 584.063 202.825C583.861 202.773 583.648 202.748 583.439 202.746L580.183 202.805C580.127 202.804 580.069 202.797 580.013 202.782C579.722 202.706 579.514 202.436 579.512 202.131L579.461 189.195C579.46 188.81 579.771 188.495 580.154 188.49L580.73 188.491L580.737 189.563L588 189.534V188.346L581.972 188.37L581.968 187.183L580.148 187.184C579.048 187.19 578.156 188.093 578.158 189.2L578.209 202.137C578.213 203.229 579.103 204.114 580.221 204.111L583.473 204.052C584.053 204.051 584.54 204.523 584.558 205.105L584.667 208.628C584.702 209.725 585.619 210.614 586.715 210.608L588 210.603V209.296L586.711 209.302Z" fill="#E9E9E9"/>
<path d="M594.342 187.128L593.504 187.128L593.509 188.325L588 188.347V189.535L594.715 189.508L594.713 188.436L595.712 188.432C595.775 188.433 595.833 188.441 595.894 188.456C596.196 188.536 596.412 188.812 596.411 189.129L596.483 208.568C596.486 208.755 596.411 208.93 596.283 209.063C596.151 209.195 595.976 209.268 595.789 209.267L588 209.297V210.604L595.794 210.575C596.896 210.571 597.789 209.671 597.787 208.564L597.715 189.122C597.707 188.015 596.809 187.122 595.707 187.126L594.342 187.13V187.128Z" fill="white"/>
<path d="M586.715 210.608C585.62 210.614 584.702 209.725 584.667 208.628L584.559 205.105C584.54 204.523 584.053 204.052 583.473 204.052L580.221 204.111C579.104 204.114 578.213 203.23 578.209 202.137L578.158 189.201C578.156 188.093 579.049 187.19 580.148 187.184L581.968 187.183L581.964 186.177V185.862L578.76 185.841C577.281 185.841 576.081 187.031 576.084 188.473L576.169 210.553C576.176 211.997 577.387 213.173 578.862 213.167L588 213.131V210.603L586.715 210.608ZM582.815 208.838L580.186 205.955C579.619 205.33 578.453 203.878 578.644 203.876C578.834 203.869 579.727 204.852 581.378 204.78L582.299 204.765C583.14 204.75 583.83 205.426 583.836 206.273L583.843 207.533C583.826 209.069 584.859 209.753 584.861 210.004C584.862 210.248 583.384 209.461 582.815 208.838Z" fill="#2E3E57"/>
<path d="M599.836 188.379C599.83 186.937 598.617 185.762 597.143 185.769L593.499 185.777V186.136L593.503 187.127L595.706 187.126C596.809 187.121 597.707 188.015 597.714 189.122L597.787 208.564C597.788 209.671 596.896 210.57 595.794 210.575L588 210.604V213.132L597.245 213.097C598.721 213.091 599.921 211.908 599.916 210.463L599.836 188.379Z" fill="#33515E"/>
<path d="M581.964 185.86L578.76 185.841L581.964 185.862V185.86Z" fill="white"/>
<path d="M593.504 187.128L593.509 188.324L593.504 187.128Z" fill="#464560"/>
<path d="M581.972 188.37L581.968 187.184L581.972 188.37Z" fill="#464560"/>
<path d="M581.964 186.177L581.968 187.184L581.964 186.177Z" fill="#464560"/>
<path d="M593.504 187.127L593.5 186.136L593.504 187.127Z" fill="#464560"/>
<path d="M593.504 187.129V187.128L593.5 186.136V185.778V185.775V185.649C593.494 184.949 592.92 184.376 592.219 184.379L590.027 184.388C589.935 183.597 588.87 182.967 588 182.853V183.74C588.37 183.868 588.633 184.218 588.633 184.633C588.637 185.05 588.372 185.404 588 185.534V188.347L593.509 188.325L593.504 187.129Z" fill="#515066"/>
<path d="M587.685 183.688C587.796 183.688 587.901 183.706 588 183.74V182.853C587.903 182.84 587.808 182.833 587.717 182.834C586.816 182.838 585.519 183.526 585.422 184.404L583.229 184.413C582.531 184.414 581.962 184.993 581.964 185.697L581.964 185.861V185.863V186.177L581.968 187.184L581.972 188.37L588 188.347V185.533C587.904 185.567 587.801 185.585 587.693 185.586C587.17 185.587 586.745 185.162 586.744 184.639C586.741 184.115 587.162 183.69 587.685 183.688Z" fill="#464560"/>
<path d="M589.777 192.406L589.789 195.686L593.054 195.673L593.069 199.258L589.803 199.27L589.815 202.547L588.001 202.556V209.296L595.79 209.266C595.977 209.267 596.152 209.194 596.284 209.063C596.412 208.929 596.487 208.754 596.484 208.567L596.412 189.129C596.413 188.811 596.197 188.535 595.894 188.456C595.834 188.44 595.776 188.432 595.713 188.431L594.714 188.436L594.716 189.507L588.001 189.534V192.413L589.777 192.406Z" fill="#EF4540"/>
<path d="M580.73 188.491L580.154 188.491C579.771 188.496 579.46 188.811 579.461 189.196L579.512 202.131C579.514 202.437 579.722 202.706 580.013 202.782C580.069 202.797 580.127 202.804 580.183 202.806L583.439 202.746C583.649 202.748 583.861 202.773 584.063 202.826C585.087 203.095 585.828 204.016 585.861 205.065L585.97 208.587C585.979 208.913 586.209 209.198 586.527 209.281C586.586 209.296 586.648 209.306 586.711 209.302L588.001 209.297V202.556L586.244 202.564L586.23 199.285L582.964 199.297L582.955 195.714L586.219 195.699L586.204 192.421L588.001 192.413V189.534L580.737 189.563L580.73 188.491Z" fill="#EF4540"/>
</g>
<circle cx="498" cy="54" r="24" fill="#EFFAFF" fill-opacity="0.5"/>
<g clip-path="url(#clip3_863_11888)">
<path d="M501.278 42.0619C502.194 42.0619 503.015 42.9048 503.015 43.8503V45.3479H505.021V43.8503C505.021 41.7305 503.337 40 501.278 40H498V42.0619H501.278Z" fill="#33515E"/>
<path d="M492.988 43.8503C492.988 42.9048 493.808 42.0619 494.727 42.0619H498V40H494.727C492.669 40 490.981 41.7305 490.981 43.8503V45.3396H492.988V43.8503Z" fill="#2E3E57"/>
<path d="M483 62.3267V63.1502C483 65.2675 484.683 66.9994 486.746 66.9994H498V62.3267H483Z" fill="white"/>
<path d="M498 66.9999H509.258C511.317 66.9999 513 65.268 513 63.1507V62.3271H498V66.9999Z" fill="white"/>
<path d="M498 45.348H492.988V45.3394H490.981V45.348H486.746C484.683 45.348 483 46.8134 483 48.9308V50.2967H498V45.348Z" fill="white"/>
<path d="M509.258 45.3481H505.021H503.015H498V50.2968H513V48.9309C513 46.8135 511.317 45.3481 509.258 45.3481Z" fill="white"/>
<path d="M498 60.2007H496.795V57.7222H494.386V54.6257H496.795V52.1489H498V50.2964H483V62.3267H498V60.2007Z" fill="#EF4540"/>
<path d="M498 52.1489H499.205V54.6257H501.614V57.7222H501.614H499.204V60.2007H498V62.3267H513V50.2964H498V52.1489Z" fill="#EF4540"/>
<path d="M496.795 54.6257H494.386V57.7222H496.795V60.2006H498V52.1489H496.795V54.6257Z" fill="#ECECEC"/>
<path d="M499.204 60.2006V57.7222H501.614H501.614V54.6257H499.205V52.1489H498V60.2006H499.204Z" fill="white"/>
</g>
<circle cx="119" cy="159" r="26" fill="#EFFAFF" fill-opacity="0.5"/>
<g clip-path="url(#clip4_863_11888)">
<path d="M119.542 149.431V147.881H119.286H118.655H118.164H117.532H117.042H116.409H115.919H115.287H114.796H114.645V149.488C114.903 149.45 115.165 149.431 115.432 149.431H119.542Z" fill="#EAE7E4"/>
<path d="M123.777 147.881H123.145H122.654H122.022H121.532H120.9H120.409H119.777H119.542V149.431H123.651C123.918 149.431 124.181 149.45 124.439 149.488V147.881H124.267H123.777Z" fill="#EAE7E4"/>
<path d="M129.833 156.56C129.833 152.931 127.481 149.934 124.439 149.488C124.181 149.45 123.918 149.431 123.651 149.431H119.542V150.929V157.587H124.731C126.677 157.587 128.252 159.405 128.252 161.647V164.398C128.252 166.64 126.677 168.458 124.731 168.458H119.542V174.167H129.054C129.338 174.167 129.583 173.984 129.713 173.716H129.742C129.745 173.69 129.747 173.663 129.751 173.636C129.79 173.53 129.812 173.414 129.812 173.291C129.812 173.255 129.806 173.22 129.803 173.184C129.822 172.97 129.834 172.754 129.834 172.534V156.56H129.833Z" fill="#FFFAF6"/>
<path d="M115.432 149.431C115.165 149.431 114.903 149.45 114.645 149.488C111.602 149.934 109.25 152.931 109.25 156.56V172.535C109.25 172.754 109.262 172.969 109.281 173.183C109.277 173.219 109.271 173.255 109.271 173.292C109.271 173.415 109.294 173.531 109.333 173.637C109.337 173.663 109.339 173.69 109.343 173.716H109.371C109.501 173.984 109.745 174.167 110.03 174.167H119.542V168.458H114.352C112.407 168.458 110.831 166.64 110.831 164.398V161.647C110.831 159.405 112.407 157.587 114.352 157.587H119.542V150.929V149.431H115.432Z" fill="#FFFAF6"/>
<path d="M110.831 161.647V164.398C110.831 166.641 112.407 168.458 114.352 168.458H119.542V166.984H114.689V165.342H119.542V163.977H113.345V162.335H119.542V160.97H113.345V159.329H119.542V157.588H114.352C112.407 157.588 110.831 159.406 110.831 161.647Z" fill="#2E3E57"/>
<path d="M125.738 159.328V160.97H119.542V162.335H125.738V163.977H119.542V165.342H124.395V166.984H119.542V168.457H124.731C126.677 168.457 128.252 166.64 128.252 164.398V161.647C128.252 159.405 126.677 157.587 124.731 157.587H119.542V159.328H125.738Z" fill="#33515E"/>
<path d="M119.542 159.328H113.345V160.97H119.542V159.328Z" fill="#46A5A5"/>
<path d="M125.738 159.328H119.542V160.97H125.738V159.328Z" fill="#4DBCC1"/>
<path d="M119.542 162.335H113.345V163.977H119.542V162.335Z" fill="#46A5A5"/>
<path d="M125.738 162.335H119.542V163.977H125.738V162.335Z" fill="#4DBCC1"/>
<path d="M124.395 165.342H119.542V166.984H124.395V165.342Z" fill="#4DBCC1"/>
<path d="M119.542 165.342H114.689V166.984H119.542V165.342Z" fill="#46A5A5"/>
<path d="M122.022 143.833H121.532V147.88H122.022V143.833Z" fill="#2E3E57"/>
<path d="M122.022 147.88H121.532V147.881H122.022V147.88Z" fill="#4DBCC1"/>
<path d="M120.9 143.833H120.409V147.88H120.9V143.833Z" fill="#2E3E57"/>
<path d="M120.9 147.88H120.409V147.881H120.9V147.88Z" fill="#4DBCC1"/>
<path d="M114.164 143.833H113.673V147.881H114.164V143.833Z" fill="#2E3E57"/>
<path d="M115.287 143.833H114.796V147.88H115.287V143.833Z" fill="#2E3E57"/>
<path d="M115.287 147.88H114.796V147.881H115.287V147.88Z" fill="#4DBCC1"/>
<path d="M119.542 143.833H119.287V147.88H119.542H119.777V143.833H119.542Z" fill="#2E3E57"/>
<path d="M119.777 147.88H119.542V147.881H119.777V147.88Z" fill="#4DBCC1"/>
<path d="M119.542 147.88H119.287V147.881H119.542V147.88Z" fill="#4DBCC1"/>
<path d="M118.655 143.833H118.164V147.88H118.655V143.833Z" fill="#2E3E57"/>
<path d="M118.655 147.88H118.164V147.881H118.655V147.88Z" fill="#4DBCC1"/>
<path d="M123.145 143.833H122.654V147.88H123.145V143.833Z" fill="#2E3E57"/>
<path d="M123.145 147.88H122.654V147.881H123.145V147.88Z" fill="#4DBCC1"/>
<path d="M116.409 143.833H115.919V147.88H116.409V143.833Z" fill="#2E3E57"/>
<path d="M116.409 147.88H115.919V147.881H116.409V147.88Z" fill="#4DBCC1"/>
<path d="M124.267 143.833H123.777V147.88H124.267V143.833Z" fill="#2E3E57"/>
<path d="M124.267 147.88H123.777V147.881H124.267V147.88Z" fill="#4DBCC1"/>
<path d="M125.39 143.833H124.9V147.881H125.39V143.833Z" fill="#2E3E57"/>
<path d="M117.532 143.833H117.042V147.88H117.532V143.833Z" fill="#2E3E57"/>
<path d="M117.532 147.88H117.042V147.881H117.532V147.88Z" fill="#4DBCC1"/>
<path d="M126.453 143.833H126.021V147.881H126.453V143.833Z" fill="#2E3E57"/>
<path d="M113.042 143.833H112.63V147.881H113.042V143.833Z" fill="#2E3E57"/>
<path d="M113.674 143.833H113.042V147.881H113.674V143.833Z" fill="#33515E"/>
<path d="M114.796 147.88V143.833H114.164V147.881H114.645V147.88H114.796Z" fill="#33515E"/>
<path d="M114.796 147.88H114.645V147.881H114.796V147.88Z" fill="#75CDD6"/>
<path d="M115.919 143.833H115.287V147.88H115.919V143.833Z" fill="#33515E"/>
<path d="M115.919 147.88H115.287V147.881H115.919V147.88Z" fill="#75CDD6"/>
<path d="M117.042 143.833H116.409V147.88H117.042V143.833Z" fill="#33515E"/>
<path d="M117.042 147.88H116.409V147.881H117.042V147.88Z" fill="#75CDD6"/>
<path d="M118.164 143.833H117.532V147.88H118.164V143.833Z" fill="#33515E"/>
<path d="M118.164 147.88H117.532V147.881H118.164V147.88Z" fill="#75CDD6"/>
<path d="M119.287 143.833H118.655V147.88H119.287V143.833Z" fill="#33515E"/>
<path d="M119.287 147.88H118.655V147.881H119.287V147.88Z" fill="#75CDD6"/>
<path d="M120.409 143.833H119.777V147.88H120.409V143.833Z" fill="#33515E"/>
<path d="M120.409 147.88H119.777V147.881H120.409V147.88Z" fill="#75CDD6"/>
<path d="M121.532 143.833H120.9V147.88H121.532V143.833Z" fill="#33515E"/>
<path d="M121.532 147.88H120.9V147.881H121.532V147.88Z" fill="#75CDD6"/>
<path d="M122.654 143.833H122.022V147.88H122.654V143.833Z" fill="#33515E"/>
<path d="M122.654 147.88H122.022V147.881H122.654V147.88Z" fill="#75CDD6"/>
<path d="M123.777 143.833H123.145V147.88H123.777V143.833Z" fill="#33515E"/>
<path d="M123.777 147.88H123.145V147.881H123.777V147.88Z" fill="#75CDD6"/>
<path d="M124.439 147.88V147.881H124.9V143.833H124.268V147.88H124.439Z" fill="#33515E"/>
<path d="M124.439 147.88H124.268V147.881H124.439V147.88Z" fill="#75CDD6"/>
<path d="M126.022 143.833H125.39V147.881H126.022V143.833Z" fill="#33515E"/>
</g>
<circle cx="82" cy="281" r="19" fill="#EFFAFF" fill-opacity="0.5"/>
<g clip-path="url(#clip5_863_11888)">
<path d="M81.587 274.989C81.5851 274.991 81.5829 274.992 81.5808 274.994C81.5808 274.994 81.5435 274.962 81.4707 274.908C80.4264 273.593 78.8164 272.747 77.0099 272.74C76.2809 272.743 75.5844 272.885 74.942 273.137C74.8609 273.16 74.7802 273.187 74.7003 273.215C72.6979 274.088 71.2921 276.073 71.2619 278.39C71.2617 278.416 71.261 278.441 71.261 278.466C71.261 278.927 71.3167 279.373 71.4185 279.802C71.4223 279.817 71.4263 279.832 71.4294 279.847C71.4351 279.872 71.4422 279.898 71.4479 279.923C71.5537 280.355 71.7055 280.78 71.893 281.196C72.0754 281.6 72.2915 281.996 72.5339 282.38C72.557 282.375 72.5802 282.372 72.6046 282.372H75.5472L77.1105 279.156C77.1904 278.992 77.379 278.886 77.5404 278.898C77.7228 278.904 77.8834 279.017 77.9522 279.186L81.353 287.622L81.5877 287.01V274.989C81.587 274.989 81.587 274.989 81.587 274.989ZM76.8548 274.492C74.83 274.587 73.0653 276.352 72.9688 278.377C72.9674 278.406 72.9598 278.434 72.9472 278.461C72.8893 278.583 72.7211 278.674 72.529 278.677C72.3536 278.679 72.208 278.59 72.1496 278.461C72.1299 278.417 72.1202 278.369 72.1228 278.318C72.2412 275.881 74.3584 273.763 76.794 273.646C76.9959 273.634 77.1575 273.817 77.1542 274.052C77.1511 274.286 77.0166 274.483 76.8548 274.492Z" fill="#EF4540"/>
<path d="M91.9122 278.39C91.9247 277.715 91.8099 277.031 91.5343 276.348C91.4344 276.102 91.3137 275.852 91.1746 275.608C90.4231 274.319 89.4899 273.572 88.4738 273.215C87.7733 272.909 86.9999 272.739 86.1867 272.739C86.1791 272.739 86.1718 272.739 86.1639 272.739C86.1549 272.739 86.1457 272.739 86.1367 272.739C84.2818 272.739 82.634 273.622 81.5879 274.988C81.5876 274.988 81.5872 274.989 81.5869 274.989V287.01L82.3138 285.115C82.3828 284.937 82.5534 284.82 82.7439 284.82H88.6733C89.4379 284.038 90.1719 283.157 90.7457 282.209C91.1863 281.481 91.5324 280.714 91.7259 279.923C91.7319 279.897 91.7388 279.872 91.7445 279.847C91.7478 279.832 91.7513 279.817 91.7554 279.802C91.8571 279.373 91.9126 278.927 91.9126 278.466C91.9129 278.441 91.9124 278.415 91.9122 278.39Z" fill="#EF4540"/>
<path d="M81.5943 290.087C81.5943 290.087 81.9361 289.899 82.51 289.528C83.1061 289.162 83.8785 288.676 84.4868 288.25C84.8941 287.964 86.2636 287.054 87.7164 285.739L83.0596 285.74L81.7907 289.044C81.7515 289.147 81.6782 289.229 81.5869 289.28V290.083C81.5914 290.086 81.5943 290.087 81.5943 290.087Z" fill="#EF4540"/>
<path d="M81.3611 289.34C81.1735 289.34 81.0048 289.226 80.9339 289.05L77.4837 280.492L76.2479 283.034C76.1711 283.193 76.01 283.293 75.8338 283.293H73.1707C75.152 285.889 78.0604 287.81 78.6873 288.25C79.2956 288.676 80.0682 289.162 80.6641 289.527C81.2378 289.899 81.5798 290.087 81.5798 290.087C81.5798 290.087 81.5827 290.086 81.587 290.083V289.28C81.5205 289.317 81.4446 289.339 81.3654 289.339C81.3637 289.34 81.3628 289.34 81.3611 289.34Z" fill="#EF4540"/>
</g>
<circle cx="86" cy="65" r="20" fill="#EFFAFF" fill-opacity="0.5"/>
<g clip-path="url(#clip6_863_11888)">
<path d="M82.8635 54.2266V74.1548C82.8635 75.5421 83.8472 76.6668 85.0602 76.6668H85.5834V54.2266H82.8635Z" fill="#ECECEC"/>
<path d="M85.5833 76.6668H86.1065C87.3198 76.6668 88.3031 75.5421 88.3031 74.1548V54.2266H85.5833V76.6668Z" fill="white"/>
<path d="M82.224 53.3335C82.0083 53.3335 81.8333 53.5332 81.8333 53.7803C81.8333 54.0269 82.0083 54.2271 82.224 54.2271H82.8634H85.5833V53.9764V53.3335H82.224Z" fill="#ECECEC"/>
<path d="M88.9429 53.3335H85.5833V53.976V54.2266H88.3031H88.9429C89.1586 54.2266 89.3336 54.0265 89.3336 53.7798C89.3333 53.5332 89.1586 53.3335 88.9429 53.3335Z" fill="white"/>
<path d="M83.54 62.3486V74.2511C83.54 75.293 84.279 76.1379 85.1902 76.1379H85.5833V62.3486H83.54Z" fill="#4E8FBD"/>
<path d="M85.5833 62.3486V76.1379H85.9763C86.1014 76.1379 86.223 76.1215 86.3404 76.0914V62.3486H85.5833Z" fill="#5694BA"/>
<path d="M86.8052 62.3486V75.8824C87.2962 75.5551 87.6266 74.9476 87.6266 74.2511V62.3486H86.8052Z" fill="#5694BA"/>
<path d="M86.3401 62.3486V76.0914C86.5062 76.0489 86.6623 75.9776 86.8052 75.8824V62.3486H86.3401Z" fill="#67A9C9"/>
</g>
</g>
<defs>
<linearGradient id="paint0_linear_863_11888" x1="325" y1="0" x2="325" y2="350" gradientUnits="userSpaceOnUse">
<stop stop-color="#EDFCF8"/>
<stop offset="1" stop-color="#E9FAFC"/>
</linearGradient>
<clipPath id="clip0_863_11888">
<rect width="650" height="350" rx="5" fill="white"/>
</clipPath>
<clipPath id="clip1_863_11888">
<rect width="288" height="235" fill="white" transform="translate(166 121)"/>
</clipPath>
<clipPath id="clip2_863_11888">
<rect width="23.8333" height="30.3333" fill="white" transform="translate(576.083 182.833)"/>
</clipPath>
<clipPath id="clip3_863_11888">
<rect width="30" height="27" fill="white" transform="translate(483 40)"/>
</clipPath>
<clipPath id="clip4_863_11888">
<rect width="20.5833" height="30.3333" fill="white" transform="translate(109.25 143.833)"/>
</clipPath>
<clipPath id="clip5_863_11888">
<rect width="20.6522" height="17.3478" fill="white" transform="translate(71.261 272.739)"/>
</clipPath>
<clipPath id="clip6_863_11888">
<rect width="7.5" height="23.3333" fill="white" transform="translate(81.8333 53.3335)"/>
</clipPath>
</defs>
</svg>
