<svg width="650" height="350" viewBox="0 0 650 350" fill="none" xmlns="http://www.w3.org/2000/svg">
<g clip-path="url(#clip0_863_11654)">
<rect width="650" height="350" rx="5" fill="url(#paint0_linear_863_11654)"/>
<rect x="304" y="-7" width="209" height="363" fill="url(#paint1_linear_863_11654)"/>
<rect x="59" y="-7" width="245" height="363" fill="url(#paint2_linear_863_11654)"/>
<path fill-rule="evenodd" clip-rule="evenodd" d="M483.985 128.115C521.98 130.53 537.729 175.632 567.472 199.33C604.939 229.181 674.262 234.891 677.853 282.577C681.409 329.81 619.77 351.932 581.026 379.339C551.308 400.361 520.08 414.752 483.985 419.714C439.9 425.773 392.017 436.22 355.911 410.281C315.805 381.469 285.81 331.327 293.094 282.577C299.988 236.446 352.808 217.382 389.128 187.994C419.336 163.55 445.16 125.647 483.985 128.115Z" fill="#D6FFEA" fill-opacity="0.3"/>
<path d="M374.845 133.5C376.845 117.5 369.345 113.5 365.345 113.5L360.345 126L358.845 145.5L364.345 168L374.845 170.5L382.345 162.5C379.011 159.5 372.845 149.5 374.845 133.5Z" fill="black"/>
<path d="M346.891 116.88C355.675 111.377 366.16 110.396 370.795 118.038C375.48 125.76 374.282 133.44 371.438 139.458C368.777 145.087 359.14 144.937 353.537 144.327C350.909 144.042 348.688 142.38 347.626 139.959C344.908 133.766 340.691 121.618 346.891 116.88Z" fill="#FFBE9D"/>
<path d="M350.938 129.788L365.877 127.323C365.877 127.323 368.58 134.07 367.228 139.954C365.877 145.837 368.298 150.116 368.298 150.116L368.833 156C368.833 156 365.129 158.153 360.81 158.14C356.517 158.127 353.321 157.07 353.321 157.07L353.321 150.651C353.321 150.651 354.165 140.843 349.577 137.814C347.146 136.209 350.938 129.788 350.938 129.788Z" fill="#FFBE9D"/>
<path d="M359.345 121C363.742 118.892 368.845 119.438 371.161 119.438C372.551 111.938 358.161 109.438 347.161 111.938C336.161 114.438 341.161 133.438 329.161 146.438C319.561 156.838 322.161 178.438 324.661 187.938C326.494 188.604 330.761 187.338 333.161 176.938C335.561 166.537 348.011 159.333 352.845 156.5C356.028 150.062 347.051 126.893 359.345 121Z" fill="black"/>
<path d="M353.322 314.861C373.375 316.532 396.291 315.574 404.67 310.582C393.973 297.316 383.763 290.792 366.694 287.355C340.338 282.048 328.717 298.707 322.298 304.698C329.787 312.721 340.484 313.791 353.322 314.861Z" fill="#00204B"/>
<path d="M367.224 269.941L389.378 262.977L397.455 359.786L382.684 362.26L367.224 269.941Z" fill="#FFBE9D"/>
<path d="M347.137 260.113L370.226 262.6L338.871 354.547L324.345 350.9L347.137 260.113Z" fill="#FFBE9D"/>
<path d="M368.845 149C365.345 151.5 364.845 155.5 353.345 150C349.494 150.991 352.891 243.967 322.345 303.665C322.345 303.665 335.867 317.908 371.391 310.084C396.891 304.467 404.717 310.084 404.717 310.084L393.484 285.479C380.647 261.944 368.845 145 368.845 149Z" fill="#8DA5CB"/>
<path d="M353.322 150.117L336.423 152.496C336.423 152.496 330.379 154.853 328.71 157.074C325.827 160.908 335.779 181.146 334.007 202.325C332.354 222.087 328.71 291.956 328.71 291.956L345.618 294.533C345.618 294.533 347.713 221.842 350.915 202.325C354.392 181.138 353.322 150.117 353.322 150.117Z" fill="#36D3F5"/>
<path d="M367.763 149.047L386.267 154.635C386.267 154.635 392.31 156.993 393.98 159.213C396.862 163.047 386.91 183.286 388.682 204.465C390.336 224.227 398.786 295.07 398.786 295.07L377.072 296.672C377.072 296.672 373.419 224.174 371.774 204.465C370.009 183.312 367.763 149.047 367.763 149.047Z" fill="#36D3F5"/>
<path d="M364.845 191.5L339.345 187.5L340.345 226.5L361.845 239.5L387.845 229.5V186L364.845 191.5Z" fill="#263238"/>
<path d="M387.844 204C387.845 203.291 387.951 204.781 390.431 204.658L397.082 201.117L401.745 203.126L401.181 208.816L398.939 211.357C398.939 211.357 394.993 215.061 392.344 217.5C390.632 219.077 386.79 220.5 386.79 220.5C386.79 220.5 381.839 219.204 381.412 216.659C381.169 215.205 382.345 213 382.345 213C382.96 211.625 387.844 209.925 387.844 207L387.844 204Z" fill="#FFBE9D"/>
<path d="M340.081 208.189C339.907 207.501 340.169 208.971 337.734 209.46L330.418 207.657L326.389 210.747L328.331 216.125L331.126 218.039C331.126 218.039 335.86 220.664 339.025 222.38C341.071 223.489 345.146 223.927 345.146 223.927C345.146 223.927 349.628 221.458 349.418 218.886C349.298 217.416 347.618 215.567 347.618 215.567C346.684 214.384 341.532 213.933 340.816 211.097L340.081 208.189Z" fill="#FFBE9D"/>
<path d="M314.87 199.466L327.246 158.964C327.543 157.992 328.335 157.252 329.325 157.022C330.568 156.733 331.852 157.307 332.466 158.427L338.832 170.038C339.541 171.33 339.643 172.868 339.113 174.242L331.019 195.207C330.432 196.727 330.623 198.437 331.529 199.79L336.639 207.42C337.817 209.178 337.76 211.488 336.497 213.187L334.908 215.322C333.079 217.781 329.487 218.03 327.335 215.847L316.091 204.436C314.802 203.129 314.334 201.221 314.87 199.466Z" fill="#36D3F5"/>
<path d="M412.718 188.359L395.299 160.077C395.078 159.718 394.781 159.413 394.428 159.184C393.036 158.276 391.165 158.748 390.37 160.208L384.438 171.097C383.421 172.964 383.696 175.27 385.123 176.845L398.345 191.447C398.641 191.775 398.688 192.259 398.458 192.637L391.261 204.5L399.345 215L412.701 193.631C413.708 192.019 413.714 189.976 412.718 188.359Z" fill="#36D3F5"/>
<path d="M476.169 122.241L493.33 118.486L493.205 131.374L494.176 144.952L477.242 144.952L476.169 122.241Z" fill="#FF9FB8"/>
<path d="M470.539 97.1271C473.478 95.0113 485.824 91.3319 492.752 97.3014C501.488 104.83 498.144 120.902 492.3 126.829C485.984 133.235 475.707 132.374 469.276 126.083C462.26 119.221 467.065 99.628 470.539 97.1271Z" fill="#FF9FB8"/>
<path d="M491.432 105.467L496.126 105.049C499.294 104.767 502.091 107.107 502.373 110.275C502.655 113.443 500.316 116.24 497.148 116.522L492.454 116.94L491.432 105.467Z" fill="#FF9FB8"/>
<path d="M493.338 133.509C484.753 142.094 476.168 136.729 473.486 135.119C470.507 157.105 463.25 206.448 463.079 221.904C463.075 222.253 463.258 222.554 463.56 222.73C479.041 231.769 501.209 226.659 511.084 222.708C511.48 222.55 511.718 222.157 511.692 221.732L508.3 167.038C508.294 166.941 508.277 166.853 508.243 166.762C505.586 159.593 495.735 137.96 493.338 133.509Z" fill="#8DA5CB"/>
<path d="M507.356 222.896C491.242 228.012 472.961 225.044 465.74 222.896C465.685 222.88 465.634 222.86 465.583 222.834L459.385 219.735C458.713 219.399 457.925 219.896 457.938 220.647L460.476 364.855C460.485 365.4 460.93 365.837 461.475 365.837H481.49C482.028 365.837 482.47 365.411 482.489 364.874L486.315 259.657C486.36 258.429 488.152 258.348 488.307 259.567L501.721 364.964C501.784 365.463 502.209 365.837 502.713 365.837H519.349C519.901 365.837 520.349 365.39 520.349 364.837V223.373C520.349 223.058 520.204 222.758 519.936 222.593C517.923 221.355 513.232 220.002 507.5 222.838C507.454 222.86 507.405 222.88 507.356 222.896Z" fill="#0D73FC"/>
<path d="M492.802 130.29L523.793 138.472L528.961 143.639C528.961 143.639 524.482 167.192 526.377 188.423C528.146 208.234 534.524 274.087 534.524 274.087H507.825C507.825 274.087 498.424 208.181 496.665 188.423C494.776 167.219 492.802 130.29 492.802 130.29Z" fill="white"/>
<path d="M476.705 133.509L459.201 138.041C459.201 138.041 452.736 140.405 450.95 142.631C447.867 146.474 458.513 166.762 456.617 187.993C454.849 207.803 450.95 277.842 450.95 277.842L469.036 280.426C469.036 280.426 472.944 207.75 474.703 187.993C476.591 166.788 476.705 133.509 476.705 133.509Z" fill="white"/>
<path d="M551.429 181.121L528.293 142.947C527.894 142.289 527.244 141.822 526.493 141.655C524.993 141.322 523.503 142.25 523.14 143.742L520.454 154.784C520.113 156.185 520.394 157.664 521.223 158.843L534.048 177.069C535.362 178.936 535.245 181.456 533.762 183.192L517.455 202.297C515.91 204.107 515.855 206.754 517.321 208.626L518.663 210.339C520.487 212.669 523.924 212.913 526.06 210.865L550.613 187.321C552.304 185.7 552.643 183.123 551.429 181.121Z" fill="white"/>
<path d="M511.044 198.969L523.385 215.065" stroke="#8DA5CB" stroke-width="0.5"/>
<path d="M437.677 193.367L449.529 144.722C449.793 143.641 450.648 142.802 451.735 142.561C452.984 142.283 454.269 142.851 454.905 143.961L461.734 155.875C462.388 157.015 462.566 158.367 462.231 159.637L454.427 189.214C454.052 190.637 454.322 192.152 455.166 193.358L460.637 201.171C461.896 202.968 461.835 205.376 460.488 207.108L458.668 209.448C456.84 211.799 453.376 212.04 451.239 209.966L439.052 198.138C437.781 196.904 437.257 195.089 437.677 193.367Z" fill="white"/>
<path d="M463.291 198.969L457.389 216.138" stroke="#8DA5CB" stroke-width="0.5"/>
<path d="M463.422 101.131C465.027 96.4806 471.612 91.3192 475.249 88.9479C475.658 88.6818 476.151 88.6003 476.638 88.5958C477.81 88.5849 479.686 88.205 482.681 86.9689C485.871 85.6528 493.117 89.6301 497.789 92.7329C499.165 93.6468 499.924 95.2256 499.871 96.8767L499.578 106.145C498.902 105.85 497.215 105.311 495.874 105.52C494.533 105.729 494.601 109.84 494.802 111.869C494.184 112.309 492.984 112.324 493.133 108.867C493.281 105.409 489.965 105.067 488.288 105.328L478.93 109.19C478.523 107.307 476.682 104.457 472.581 108.118C470.106 110.328 465.001 111.037 460.213 111.1C458.118 111.128 457.516 107.936 459.151 106.627C461.037 105.117 462.687 103.262 463.422 101.131Z" fill="black"/>
<path d="M380 133C380 130.239 382.239 128 385 128H458C460.761 128 463 130.239 463 133V158C463 160.761 460.761 163 458 163H380V133Z" fill="#B5E3F9"/>
<rect x="385.282" y="136" width="70.1727" height="2" fill="white"/>
<rect x="385.282" y="144" width="64.1364" height="2" fill="white"/>
<rect x="385.282" y="152" width="56.5909" height="2" fill="white"/>
<path d="M350 156C350 153.239 347.761 151 345 151H272C269.239 151 267 153.239 267 156V181C267 183.761 269.239 186 272 186H350V156Z" fill="#A1FFC7"/>
<rect width="70.1727" height="2" transform="matrix(-1 0 0 1 344.718 159)" fill="white"/>
<rect width="64.1364" height="2" transform="matrix(-1 0 0 1 344.718 167)" fill="white"/>
<rect width="56.5909" height="2" transform="matrix(-1 0 0 1 344.718 175)" fill="white"/>
<rect x="383.511" y="82.7554" width="47.9787" height="25.7447" rx="5" fill="#DEF4FF"/>
<path fill-rule="evenodd" clip-rule="evenodd" d="M380 86C380 83.2386 382.239 81 385 81H430C432.761 81 435 83.2386 435 86V105.255C435 108.017 432.761 110.255 430 110.255H385C382.239 110.255 380 108.017 380 105.255V86ZM384.681 87.6808C384.681 86.5762 385.576 85.6808 386.681 85.6808H409.011C410.115 85.6808 411.011 86.5762 411.011 87.6808V88.3616C411.011 89.4662 410.115 90.3616 409.011 90.3616H386.681C385.576 90.3616 384.681 89.4662 384.681 88.3616V87.6808ZM387.851 93.2873C386.746 93.2873 385.851 94.1827 385.851 95.2873V95.9681C385.851 97.0727 386.746 97.9681 387.851 97.9681H411.351C412.456 97.9681 413.351 97.0727 413.351 95.9681V95.2873C413.351 94.1827 412.456 93.2873 411.351 93.2873H387.851ZM384.681 102.894C384.681 101.789 385.576 100.894 386.681 100.894H424.223C425.328 100.894 426.223 101.789 426.223 102.894V103.574C426.223 104.679 425.328 105.574 424.223 105.574H386.681C385.576 105.574 384.681 104.679 384.681 103.574V102.894ZM416.521 93.2873C415.417 93.2873 414.521 94.1827 414.521 95.2873V95.9681C414.521 97.0727 415.417 97.9681 416.521 97.9681H427.734C428.839 97.9681 429.734 97.0727 429.734 95.9681V95.2873C429.734 94.1827 428.839 93.2873 427.734 93.2873H416.521Z" fill="white"/>
<path d="M383.218 116.692V107.915H391.995L383.218 116.692Z" fill="white"/>
<rect x="214" y="107" width="4" height="264" fill="#2B80C1"/>
<path d="M216 108H222.885C223.541 110.333 225.311 115 229.77 115C234.23 115 236 110.333 236 108" stroke="#2B80C1"/>
<path d="M216 108H209.115C208.459 110.333 206.689 115 202.23 115C197.77 115 196 110.333 196 108" stroke="#2B80C1"/>
<path d="M202.5 113.5V282.5C204.167 286.167 209.3 293.5 216.5 293.5C223.7 293.5 227.5 286.167 228.5 282.5V113.5" stroke="#2B80C1"/>
<rect x="223" y="164" width="11" height="22" rx="2" fill="white"/>
<path d="M223 174.154H234V184C234 185.105 233.105 186 232 186H225C223.895 186 223 185.105 223 184V174.154Z" fill="#F0787C"/>
<rect x="197" y="133" width="11" height="22" rx="2" fill="white"/>
<path d="M197 143.154H208V153C208 154.105 207.105 155 206 155H199C197.895 155 197 154.105 197 153V143.154Z" fill="#F0787C"/>
<rect x="87" y="186" width="11" height="77" fill="#E6E6E6"/>
<path d="M83 266C83 263.791 84.7909 262 87 262H98C100.209 262 102 263.791 102 266V282H83V266Z" fill="#65F0AA"/>
<path d="M195.303 269H473.5C476.261 269 478.5 266.761 478.5 264V254C478.5 251.239 476.261 249 473.5 249H203.357C202.468 249 201.596 248.763 200.829 248.314L107.743 193.779C105.199 192.288 101.925 193.311 100.682 195.984L94.9568 208.293C93.8532 210.666 94.7657 213.488 97.0493 214.765L192.862 268.364C193.608 268.781 194.449 269 195.303 269Z" fill="#72B1A6"/>
<mask id="mask0_863_11654" style="mask-type:alpha" maskUnits="userSpaceOnUse" x="94" y="193" width="385" height="76">
<path d="M195.303 269H473.5C476.261 269 478.5 266.761 478.5 264V254C478.5 251.239 476.261 249 473.5 249H203.357C202.468 249 201.596 248.763 200.829 248.314L107.743 193.779C105.199 192.288 101.925 193.311 100.682 195.984L94.9568 208.293C93.8532 210.666 94.7657 213.488 97.0493 214.765L192.862 268.364C193.608 268.781 194.449 269 195.303 269Z" fill="#70B2A6"/>
</mask>
<g mask="url(#mask0_863_11654)">
<path d="M197.353 264.85L97.2783 208.141C95.1766 206.95 92.5085 207.652 91.2657 209.724C90.0104 211.816 90.6728 214.529 92.751 215.807L187.795 274.259C188.583 274.743 189.49 275 190.414 275H478.25C480.873 275 483 272.873 483 270.25C483 267.627 480.873 265.5 478.25 265.5H199.818C198.954 265.5 198.105 265.276 197.353 264.85Z" fill="#579789"/>
</g>
<rect x="79" y="269" width="426" height="14" fill="#D9D9D9"/>
<rect x="115" y="283" width="370" height="15" fill="#A9A8A8"/>
<rect x="104" y="283" width="11" height="77" fill="#D9D9D9"/>
<rect x="485" y="283" width="11" height="77" fill="#D9D9D9"/>
<rect x="64" y="186" width="11" height="77" fill="#E6E6E6"/>
<path d="M60 267C60 264.791 61.7909 263 64 263H75C77.2091 263 79 264.791 79 267V285H60V267Z" fill="#65F0AA"/>
<rect x="509" y="186" width="11" height="77" fill="#D0D0D0"/>
<path d="M505 267C505 264.791 506.791 263 509 263H520C522.209 263 524 264.791 524 267V285H505V267Z" fill="#65F0AA"/>
<path d="M127 196.022C124.027 195.773 122.8 197.688 122.049 199.951C121.313 202.165 122.435 204.604 124.428 205.817C140.742 215.75 168.437 236.349 174.333 234.01C180.774 231.455 180 224.522 180 218.522C180 214.718 156.303 210.446 150 207.522C143.697 204.598 132.818 196.509 127 196.022Z" fill="#FAFAFA"/>
<path d="M187.212 215.781C188.379 215.281 190.912 213.681 191.712 211.281C192.037 207.052 185.991 200.112 181.212 195.516L182.212 194.781C182.545 193.115 182.212 188.881 178.212 185.281C173.212 180.781 161.712 183.281 158.212 189.781C154.712 196.281 153.212 200.281 158.212 210.281C162.212 218.281 170.212 219.281 173.712 218.781L182.212 227.281H184.212C191.712 228.281 194.212 222.781 191.712 221.781C189.712 220.981 187.879 217.448 187.212 215.781Z" fill="#FFBE9D"/>
<path d="M201 218.5C193.4 214.9 190 216.5 188.5 218.5C192.1 224.5 185.833 227.167 182 227L181 241.5C181 241.5 193.827 251.325 203.5 252C225 253.5 263.5 250 263.5 250L260.5 227L267.5 224H273H279.5L286.5 220L295.5 216L296.5 215H293L291.5 212.5C289.333 213.833 284.6 216.6 283 217C281.4 217.4 281 215.833 281 215L285 212.5V210L277.5 212.5L271 218.5L215.5 224C213.833 223.667 208.6 222.1 201 218.5Z" fill="#FFBE9D"/>
<mask id="mask1_863_11654" style="mask-type:alpha" maskUnits="userSpaceOnUse" x="155" y="183" width="38" height="45">
<path d="M187.212 215.781C188.379 215.281 190.912 213.681 191.712 211.281C192.037 207.052 185.991 200.112 181.212 195.516L182.212 194.781C182.545 193.115 182.212 188.881 178.212 185.281C173.212 180.781 161.712 183.281 158.212 189.781C154.712 196.281 153.212 200.281 158.212 210.281C162.212 218.281 170.212 219.281 173.712 218.781L182.212 227.281H184.212C191.712 228.281 194.212 222.781 191.712 221.781C189.712 220.981 187.879 217.448 187.212 215.781Z" fill="#FFBE9D"/>
</mask>
<g mask="url(#mask1_863_11654)">
<path d="M144 182H183L184 196C184 196 178.5 193.5 175.5 200.5C173.128 206.034 175.5 222.5 175.5 222.5L144 213V182Z" fill="black"/>
</g>
<mask id="mask2_863_11654" style="mask-type:alpha" maskUnits="userSpaceOnUse" x="181" y="210" width="116" height="43">
<path d="M201 218.5C193.4 214.9 190 216.5 188.5 218.5C192.1 224.5 185.833 227.167 182 227L181 241.5C181 241.5 193.827 251.325 203.5 252C225 253.5 263.5 250 263.5 250L260.5 227L267.5 224H273H279.5L286.5 220L295.5 216L296.5 215H293L291.5 212.5C289.333 213.833 284.6 216.6 283 217C281.4 217.4 281 215.833 281 215L285 212.5V210L277.5 212.5L271 218.5L215.5 224C213.833 223.667 208.6 222.1 201 218.5Z" fill="#FFBE9D"/>
</mask>
<g mask="url(#mask2_863_11654)">
<path d="M193.5 209.5L215 223.5L238.5 221.5L244 228L260.5 227L265.5 257.5L212.5 264L171.5 241.5L193.5 209.5Z" fill="#00A3AB"/>
</g>
<ellipse cx="174.002" cy="208.345" rx="4" ry="5" transform="rotate(-30.9524 174.002 208.345)" fill="#FFBE9D"/>
<path d="M293 227.5C293 227.5 261.5 227.5 244.5 225C241.222 224.518 241.201 222.42 238.5 220.5C226 218.5 203.5 220.5 203.5 220.5C203.5 220.5 198 226.5 197 231C196 235.5 185.682 243.142 192 248.5C196.194 252.056 203.51 253.193 209 253.5C215.044 253.838 223.5 253.5 223.5 253.5L452.5 250L447 215H439.5L435.5 233.5L387.5 238L293 227.5Z" fill="#F0F5F9"/>
<path d="M122 283.5V242C122 238.333 124.2 231 133 231C141.8 231 201.667 231 230.5 231C233.333 231.5 239 234.4 239 242C239 249.6 239 272.833 239 283.5" stroke="#FFFDEC" stroke-width="3"/>
<path d="M158 231.5V283M202.5 231.5V283" stroke="#FFFDEC" stroke-width="3"/>
</g>
<defs>
<linearGradient id="paint0_linear_863_11654" x1="325" y1="0" x2="325" y2="350" gradientUnits="userSpaceOnUse">
<stop stop-color="#EAFAFB"/>
<stop offset="1" stop-color="#EAFAFB"/>
</linearGradient>
<linearGradient id="paint1_linear_863_11654" x1="408.5" y1="-7" x2="408.5" y2="356" gradientUnits="userSpaceOnUse">
<stop stop-color="#EAFAFB"/>
<stop offset="1" stop-color="#DDEFFD" stop-opacity="0"/>
</linearGradient>
<linearGradient id="paint2_linear_863_11654" x1="181.5" y1="-7" x2="181.5" y2="356" gradientUnits="userSpaceOnUse">
<stop offset="0.476677" stop-color="#F5FEFF"/>
<stop offset="1" stop-color="#FAFDFF" stop-opacity="0"/>
</linearGradient>
<clipPath id="clip0_863_11654">
<rect width="650" height="350" rx="5" fill="white"/>
</clipPath>
</defs>
</svg>
