<svg width="650" height="350" viewBox="0 0 650 350" fill="none" xmlns="http://www.w3.org/2000/svg">
<rect width="650" height="350" fill="url(#paint0_linear_863_9754)"/>
<g clip-path="url(#clip0_863_9754)">
<mask id="mask0_863_9754" style="mask-type:luminance" maskUnits="userSpaceOnUse" x="124" y="311" width="385" height="9">
<path d="M316.724 319.998C210.723 319.998 124.792 317.999 124.792 315.532C124.792 314.206 149.596 313.015 188.994 312.197C222.923 311.492 267.676 311.065 316.724 311.065C353.453 311.065 387.774 311.305 416.944 311.721L444.514 312.198C445.685 312.198 443.775 315.013 444.073 313.88L444.514 312.198C483.873 313.016 508.655 314.207 508.655 315.532C508.655 317.999 422.724 319.998 316.724 319.998Z" fill="white"/>
</mask>
<g mask="url(#mask0_863_9754)">
<path d="M316.724 319.998C210.723 319.998 124.792 317.999 124.792 315.532C124.792 314.206 149.596 313.015 188.994 312.197C222.923 311.492 267.676 311.065 316.724 311.065C353.453 311.065 387.774 311.305 416.944 311.721L444.514 312.198C483.873 313.016 508.655 314.207 508.655 315.532C508.655 317.999 422.724 319.998 316.724 319.998Z" fill="#8BD6DF"/>
</g>
<path d="M444.625 241.73C443.822 227.661 440.285 213.761 434.259 201.022C432.581 197.47 430.711 194.011 428.663 190.66C428.252 189.987 427.248 190.681 427.656 191.351C434.92 203.243 439.864 216.536 442.134 230.286C442.764 234.109 443.187 237.966 443.408 241.834C443.453 242.619 444.669 242.517 444.625 241.73Z" fill="#4F7CC3"/>
<path d="M443.552 232.403C439.974 224.032 434.056 216.748 426.561 211.573C425.919 211.129 425.116 212.05 425.762 212.496C433.086 217.553 438.903 224.63 442.402 232.817C442.71 233.535 443.862 233.128 443.552 232.403Z" fill="#4F7CC3"/>
<path d="M435.361 201.284C438.353 199.483 440.409 196.399 441.58 193.109C445.289 182.701 440.337 170.56 431.713 163.654C423.087 156.747 411.567 154.388 400.518 154.591C399.703 154.606 398.853 154.643 398.139 155.037C397.236 155.536 396.717 156.515 396.325 157.47C393.859 163.478 394.54 170.305 395.98 176.638C397.26 182.261 399.145 187.831 402.408 192.586C405.337 196.856 409.346 200.377 413.957 202.732C417.18 204.378 420.751 205.467 424.369 205.4C427.989 205.333 432.338 204.27 434.873 201.686L435.361 201.284Z" fill="#A1BFFB"/>
<path d="M433.565 219.034C434.279 217.653 434.339 216.004 434.015 214.483C432.992 209.671 428.281 206.222 423.398 205.615C418.515 205.008 413.596 206.802 409.453 209.456C409.147 209.652 408.833 209.865 408.655 210.18C408.429 210.58 408.461 211.073 408.535 211.526C409.002 214.38 410.853 216.81 412.878 218.876C414.675 220.71 416.691 222.382 419.038 223.424C421.146 224.36 423.488 224.76 425.786 224.577C427.392 224.449 429.001 224.029 430.358 223.159C431.714 222.29 433.115 220.872 433.473 219.301L433.565 219.034Z" fill="#A1BFFB"/>
<path d="M441.456 248.725C442.17 247.344 442.23 245.695 441.906 244.174C440.883 239.362 436.172 235.914 431.289 235.306C426.406 234.7 421.487 236.493 417.344 239.148C417.039 239.343 416.724 239.556 416.546 239.872C416.32 240.272 416.352 240.764 416.426 241.218C416.893 244.071 418.744 246.502 420.769 248.567C422.567 250.401 424.582 252.073 426.929 253.115C429.037 254.051 431.378 254.451 433.677 254.268C435.284 254.141 436.891 253.721 438.248 252.851C439.605 251.981 441.007 250.563 441.365 248.992" fill="#A1BFFB"/>
<path d="M427.09 248.028C430.913 248.199 434.742 247.899 438.493 247.152C435.487 245.216 432.053 243.986 428.606 243.018C426.846 243.719 425.011 244.223 423.141 244.519C422.794 244.574 422.716 244.037 423.062 243.981C424.645 243.732 426.195 243.321 427.701 242.772C426.479 242.444 425.251 242.136 424.022 241.836C423.686 241.754 423.743 241.212 424.082 241.295C426.599 241.91 429.142 242.541 431.61 243.366C431.437 243.071 431.218 242.806 430.982 242.547C430.544 242.065 430.09 241.597 429.621 241.145C428.727 240.284 427.78 239.478 426.79 238.727C426.512 238.515 426.836 238.078 427.115 238.29C428.167 239.088 429.168 239.95 430.113 240.871C430.571 241.319 431.019 241.779 431.449 242.254C431.815 242.658 432.15 243.089 432.324 243.61C434.007 244.203 435.651 244.898 437.22 245.755C436.786 242.627 435.217 239.705 432.811 237.649C432.547 237.423 432.87 236.986 433.137 237.213C435.751 239.448 437.452 242.648 437.821 246.069L437.818 246.094C437.915 246.15 438.013 246.204 438.109 246.261C439.326 246.988 440.474 247.824 441.527 248.774C441.784 249.007 441.463 249.445 441.202 249.21C440.545 248.618 439.854 248.078 439.136 247.58C435.161 248.42 431.089 248.75 427.029 248.568C426.679 248.553 426.742 248.012 427.09 248.028Z" fill="#4F7CC3"/>
<mask id="mask1_863_9754" style="mask-type:luminance" maskUnits="userSpaceOnUse" x="475" y="210" width="2" height="1">
<path d="M476.209 210.736C476.074 210.736 475.942 210.663 475.849 210.553C475.967 210.459 476.086 210.365 476.204 210.271C476.258 210.414 476.315 210.555 476.378 210.695C476.323 210.723 476.266 210.736 476.209 210.736Z" fill="white"/>
</mask>
<g mask="url(#mask1_863_9754)">
<path d="M476.209 210.736C476.074 210.736 475.942 210.663 475.849 210.553C475.967 210.459 476.086 210.365 476.204 210.271C476.258 210.414 476.315 210.555 476.378 210.695C476.323 210.723 476.266 210.736 476.209 210.736Z" fill="url(#paint1_linear_863_9754)"/>
</g>
<path d="M475.849 210.553C475.696 210.371 475.644 210.088 475.842 209.859C475.877 209.819 475.912 209.778 475.947 209.738C475.95 209.744 475.954 209.75 475.958 209.756L476.184 210.218C476.191 210.235 476.198 210.253 476.204 210.271C476.086 210.364 475.968 210.459 475.849 210.553Z" fill="#EC9A62"/>
<mask id="mask2_863_9754" style="mask-type:luminance" maskUnits="userSpaceOnUse" x="458" y="242" width="1" height="1">
<path d="M458.784 242.426C458.781 242.426 458.777 242.425 458.773 242.425C458.777 242.425 458.781 242.423 458.784 242.422C458.784 242.423 458.784 242.425 458.784 242.426Z" fill="white"/>
</mask>
<g mask="url(#mask2_863_9754)">
<path d="M458.784 242.426C458.781 242.426 458.777 242.425 458.773 242.425C458.777 242.425 458.781 242.423 458.784 242.422C458.784 242.423 458.784 242.425 458.784 242.426Z" fill="url(#paint2_linear_863_9754)"/>
</g>
<path d="M458.773 242.425C458.392 242.397 458.282 241.742 458.729 241.579C458.772 241.563 458.815 241.547 458.858 241.531C458.859 241.537 458.859 241.543 458.86 241.549L458.838 241.989C458.814 242.132 458.797 242.276 458.784 242.422C458.781 242.423 458.777 242.425 458.773 242.425Z" fill="#EC9A62"/>
<path d="M223.95 138.141C221.037 128.022 225.375 117.775 230.357 109.101C230.747 108.421 229.618 107.953 229.23 108.627C224.063 117.625 219.802 128.128 222.812 138.587C223.03 139.343 224.165 138.89 223.95 138.141Z" fill="#65C885"/>
<path d="M219.376 133.748C218.843 132.287 217.669 131.127 216.33 130.336C212.095 127.832 206.367 128.964 202.615 132.147C198.863 135.33 196.854 140.164 196.004 145.01C195.941 145.367 195.885 145.741 195.997 146.087C196.139 146.524 196.523 146.834 196.907 147.087C199.324 148.674 202.367 148.957 205.257 148.864C207.824 148.783 210.42 148.432 212.776 147.41C214.891 146.492 216.771 145.04 218.192 143.224C219.185 141.956 219.965 140.488 220.242 138.901C220.521 137.314 220.425 135.323 219.511 133.996L219.376 133.748Z" fill="#65C885"/>
<path d="M209.139 143.848C211.852 141.152 214.224 138.129 216.213 134.864C212.752 135.765 209.523 137.461 206.477 139.343C205.801 141.111 204.931 142.803 203.882 144.38C203.689 144.672 203.239 144.366 203.433 144.074C204.32 142.739 205.067 141.32 205.683 139.842C204.614 140.518 203.556 141.214 202.503 141.915C202.215 142.107 201.855 141.699 202.146 141.504C204.302 140.07 206.487 138.624 208.766 137.366C208.432 137.294 208.088 137.276 207.737 137.274C207.086 137.27 206.435 137.288 205.785 137.327C204.545 137.402 203.311 137.553 202.088 137.772C201.744 137.835 201.642 137.301 201.986 137.239C203.286 137.006 204.597 136.851 205.916 136.78C206.555 136.746 207.196 136.727 207.837 136.732C208.383 136.737 208.927 136.781 209.429 137.006C211.005 136.169 212.63 135.43 214.323 134.855C211.726 133.058 208.513 132.233 205.371 132.613C205.025 132.654 204.921 132.121 205.269 132.078C208.684 131.667 212.191 132.581 214.96 134.626L214.977 134.644C215.083 134.611 215.189 134.574 215.297 134.543C216.656 134.139 218.048 133.861 219.461 133.729C219.806 133.697 219.91 134.23 219.561 134.263C218.68 134.345 217.815 134.489 216.962 134.679C214.891 138.175 212.377 141.394 209.496 144.259C209.246 144.506 208.892 144.094 209.139 143.848Z" fill="#51C173"/>
<g opacity="0.29">
<path d="M469.812 163.556C463.856 178.929 457.907 194.309 452.534 209.897C447.211 225.347 442.445 241.008 438.865 256.958C436.842 265.965 435.207 275.059 434.052 284.219C433.954 284.994 435.154 285.223 435.253 284.442C437.301 268.197 440.878 252.183 445.379 236.45C449.883 220.71 455.298 205.249 461.027 189.917C464.253 181.283 467.58 172.686 470.91 164.091C471.193 163.362 470.097 162.823 469.812 163.556Z" fill="#4F7CC3"/>
<path d="M443.547 250.139C445.565 241.617 451.281 234.305 456.809 227.724C462.151 221.365 468.099 215.515 474.556 210.288C478.181 207.353 481.964 204.618 485.88 202.086C486.541 201.658 485.848 200.653 485.189 201.08C478.05 205.695 471.367 210.999 465.247 216.899C459.132 222.795 453.461 229.295 448.709 236.345C445.896 240.516 443.513 244.991 442.347 249.915C442.165 250.68 443.366 250.902 443.547 250.139Z" fill="#4F7CC3"/>
<path d="M440.738 254.225C446.217 245.233 456.698 241.489 466.455 239.285C467.22 239.111 466.801 237.964 466.043 238.135C455.92 240.422 445.303 244.395 439.64 253.691C439.23 254.362 440.332 254.891 440.738 254.225Z" fill="#4F7CC3"/>
<path d="M462.254 184.726C458.968 183.538 456.354 180.911 454.566 177.911C448.91 168.42 451.412 155.55 458.534 147.102C465.656 138.653 476.5 134.106 487.378 132.163C488.181 132.019 489.022 131.891 489.799 132.139C490.781 132.454 491.48 133.315 492.05 134.175C495.635 139.59 496.293 146.42 496.107 152.912C495.942 158.676 495.173 164.506 492.894 169.804C490.849 174.559 487.6 178.792 483.533 181.996C480.69 184.236 477.399 185.996 473.835 186.633C470.272 187.269 465.799 187.069 462.812 185.025" fill="#A1BFFB"/>
<path d="M484.867 161.663C478.828 167.776 472.056 173.123 464.735 177.614C466.736 169.836 470.521 162.573 474.725 155.719C478.693 154.19 482.487 152.223 486.021 149.858C486.676 149.419 485.984 148.414 485.33 148.851C482.337 150.854 479.156 152.541 475.839 153.933C477.353 151.528 478.907 149.149 480.474 146.778C480.904 146.131 479.982 145.326 479.551 145.979C476.343 150.832 473.112 155.749 470.302 160.875C470.138 160.125 470.095 159.352 470.087 158.565C470.073 157.104 470.109 155.64 470.193 154.181C470.351 151.396 470.683 148.624 471.167 145.877C471.303 145.104 470.103 144.879 469.967 145.654C469.451 148.574 469.115 151.518 468.964 154.479C468.891 155.916 468.855 157.355 468.872 158.795C468.886 160.018 468.991 161.241 469.499 162.365C467.63 165.911 465.982 169.563 464.702 173.37C460.646 167.552 458.772 160.343 459.6 153.285C459.691 152.509 458.491 152.28 458.399 153.062C457.499 160.732 459.578 168.601 464.193 174.801L464.235 174.838C464.161 175.079 464.08 175.318 464.008 175.56C463.112 178.614 462.497 181.743 462.212 184.913C462.142 185.689 463.341 185.92 463.411 185.137C463.59 183.158 463.905 181.213 464.329 179.299C472.163 174.62 479.379 168.953 485.791 162.462C486.345 161.901 485.417 161.107 484.867 161.663Z" fill="#4F7CC3"/>
<path d="M475.379 208.917C473.774 206.577 473.293 203.606 473.535 200.779C474.3 191.837 482.05 184.528 490.753 182.327C499.455 180.124 508.766 182.26 516.866 186.129C517.464 186.415 518.08 186.729 518.474 187.26C518.974 187.934 519.028 188.831 518.996 189.67C518.795 194.941 515.993 199.76 512.794 203.956C509.955 207.682 506.684 211.166 502.671 213.582C499.068 215.752 494.917 217.005 490.715 217.195C487.778 217.325 484.771 216.928 482.119 215.661C479.465 214.393 476.609 212.142 475.605 209.379L475.379 208.917Z" fill="#A1BFFB"/>
<path d="M475.799 209.856C475.736 209.716 475.679 209.575 475.625 209.432C475.619 209.414 475.612 209.396 475.605 209.379L475.379 208.917C475.375 208.911 475.371 208.906 475.368 208.9C477.032 206.99 478.883 205.257 480.88 203.699C481.043 203.573 481.209 203.454 481.371 203.331L481.362 203.286C481.255 197.009 483.611 190.831 487.839 186.195C487.939 186.087 488.051 186.041 488.161 186.041C488.526 186.041 488.855 186.551 488.526 186.912C484.635 191.178 482.457 196.822 482.376 202.582C485.024 200.677 487.843 199.048 490.756 197.593C490.954 196.609 491.465 195.753 492.034 194.94C492.705 193.981 493.411 193.049 494.141 192.134C495.642 190.252 497.261 188.469 498.983 186.786C499.085 186.686 499.198 186.645 499.307 186.645C499.689 186.645 500.024 187.155 499.669 187.501C498.049 189.085 496.516 190.758 495.092 192.52C494.346 193.444 493.629 194.392 492.946 195.363C492.578 195.887 492.239 196.416 491.992 196.989C496.275 194.938 500.738 193.223 505.153 191.539C505.215 191.516 505.273 191.506 505.326 191.506C505.787 191.506 505.914 192.304 505.385 192.505C503.228 193.327 501.075 194.161 498.935 195.031C501.784 195.683 504.684 196.077 507.608 196.172C508.24 196.193 508.227 197.165 507.606 197.165C507.599 197.165 507.593 197.165 507.586 197.165C504.133 197.051 500.698 196.552 497.353 195.682C491.331 198.213 485.392 201.214 480.387 205.399C482.501 205.553 484.618 205.629 486.736 205.629C491.589 205.629 496.44 205.225 501.23 204.408C501.263 204.403 501.295 204.4 501.325 204.4C501.879 204.4 502.06 205.271 501.462 205.373C496.571 206.207 491.62 206.628 486.665 206.628C484.216 206.628 481.765 206.524 479.321 206.319C478.134 207.381 477.004 208.515 475.949 209.736C475.902 209.791 475.851 209.831 475.799 209.856Z" fill="#4F7CC3"/>
<path d="M449.145 222.271C447.53 221.225 446.453 219.49 445.866 217.656C444.012 211.857 446.957 205.26 451.832 201.611C456.706 197.962 463.093 196.871 469.175 197.181C469.624 197.203 470.092 197.239 470.478 197.47C470.966 197.76 471.234 198.309 471.433 198.842C472.682 202.195 472.186 205.943 471.279 209.405C470.473 212.478 469.334 215.513 467.452 218.073C465.762 220.372 463.49 222.239 460.908 223.453C459.103 224.302 457.116 224.838 455.125 224.736C453.133 224.634 450.757 223.97 449.407 222.502" fill="#A1BFFB"/>
<path d="M464.156 212.705C460.153 215.235 455.852 217.262 451.362 218.763C453.404 214.836 456.34 211.408 459.45 208.252C461.771 207.925 464.053 207.34 466.245 206.51C466.651 206.358 466.405 205.731 465.999 205.884C464.143 206.587 462.225 207.097 460.272 207.432C461.384 206.329 462.513 205.245 463.65 204.167C463.96 203.873 463.567 203.327 463.254 203.623C460.928 205.829 458.58 208.068 456.435 210.469C456.44 210.046 456.513 209.626 456.607 209.202C456.781 208.415 456.982 207.635 457.209 206.862C457.641 205.387 458.164 203.94 458.765 202.526C458.935 202.128 458.319 201.857 458.149 202.256C457.509 203.76 456.961 205.298 456.512 206.869C456.294 207.632 456.096 208.4 455.926 209.175C455.781 209.833 455.685 210.502 455.818 211.169C454.373 212.841 453.034 214.596 451.872 216.48C450.419 212.853 450.311 208.749 451.634 205.063C451.78 204.658 451.164 204.386 451.017 204.794C449.579 208.8 449.717 213.283 451.421 217.186L451.439 217.211C451.37 217.331 451.296 217.448 451.228 217.569C450.367 219.097 449.647 220.7 449.099 222.367C448.965 222.775 449.58 223.048 449.716 222.636C450.058 221.596 450.469 220.592 450.934 219.616C455.724 218.079 460.302 215.935 464.552 213.248C464.919 213.017 464.519 212.475 464.156 212.705Z" fill="#4F7CC3"/>
<path d="M458.281 240.71C458.052 238.294 458.925 235.872 460.278 233.858C464.561 227.485 473.391 225.232 480.815 227.196C488.238 229.158 494.318 234.617 498.771 240.872C499.1 241.334 499.431 241.823 499.506 242.385C499.599 243.096 499.267 243.79 498.896 244.403C496.558 248.264 492.462 250.707 488.328 252.518C484.658 254.127 480.766 255.377 476.76 255.52C473.164 255.648 469.541 254.866 466.319 253.263C464.066 252.143 461.982 250.599 460.523 248.551C459.065 246.502 457.862 243.633 458.258 241.15L458.281 240.71Z" fill="#A1BFFB"/>
<path d="M479.406 248.903C479.361 248.903 479.314 248.896 479.263 248.877C473.278 246.779 467.575 243.932 462.307 240.4C460.979 240.705 459.663 241.084 458.366 241.56C458.314 241.579 458.265 241.587 458.22 241.587C458.215 241.587 458.21 241.587 458.205 241.587C458.205 241.586 458.205 241.584 458.205 241.583C458.218 241.437 458.235 241.293 458.258 241.15L458.281 240.71C458.28 240.704 458.28 240.698 458.279 240.692C460.317 239.955 462.421 239.426 464.561 239.089C464.735 239.061 464.908 239.042 465.082 239.016L465.092 238.979C467.617 234.239 471.944 230.595 477.03 228.882C477.08 228.865 477.126 228.858 477.171 228.858C477.583 228.858 477.712 229.544 477.247 229.701C472.567 231.279 468.594 234.598 466.144 238.873C468.026 238.651 469.915 238.557 471.805 238.557C472.697 238.557 473.59 238.578 474.483 238.617C475.038 237.964 475.775 237.535 476.54 237.163C477.439 236.724 478.354 236.319 479.279 235.938C481.184 235.153 483.134 234.49 485.122 233.945C485.164 233.933 485.205 233.928 485.243 233.928C485.679 233.928 485.822 234.632 485.338 234.766C483.468 235.277 481.629 235.892 479.831 236.62C478.89 237.002 477.96 237.414 477.046 237.858C476.553 238.096 476.081 238.352 475.658 238.678C479.713 238.919 483.763 239.488 487.765 240.061C488.28 240.135 488.091 240.884 487.607 240.884C487.585 240.884 487.562 240.882 487.538 240.879C485.583 240.599 483.625 240.329 481.665 240.094C483.525 241.763 485.53 243.259 487.678 244.544C488.073 244.781 487.832 245.34 487.464 245.34C487.396 245.34 487.324 245.321 487.251 245.277C484.715 243.76 482.351 241.961 480.212 239.924C477.443 239.623 474.643 239.418 471.852 239.418C469.04 239.418 466.237 239.626 463.486 240.156C468.483 243.419 473.856 246.084 479.49 248.06C479.952 248.221 479.816 248.903 479.406 248.903Z" fill="#4F7CC3"/>
<path d="M456.798 278.908C456.105 287.797 451.381 307.158 423.324 306.454L424.432 310.529C424.738 311.653 425.757 312.431 426.921 312.431H448.475C449.647 312.431 450.671 311.641 450.969 310.508L458.457 281.985C458.811 280.638 458.027 279.331 456.798 278.908Z" fill="#4F7CC3"/>
<path d="M456.798 278.908C456.536 278.817 456.26 278.753 455.963 278.753H419.165C417.466 278.753 416.231 280.367 416.677 282.007L423.324 306.453C451.38 307.158 456.105 287.796 456.798 278.908Z" fill="#4F7CC3"/>
</g>
<g opacity="0.37">
<path d="M176.874 55.3721C184.16 70.1604 191.456 84.9495 199.297 99.4553C207.068 113.829 215.372 127.938 224.693 141.369C229.957 148.954 235.544 156.313 241.506 163.363C242.011 163.96 242.992 163.232 242.483 162.631C231.909 150.128 222.541 136.656 214.005 122.694C205.464 108.725 197.745 94.2739 190.335 79.6806C186.161 71.4622 182.084 63.1938 178.01 54.9253C177.665 54.2244 176.526 54.667 176.874 55.3721Z" fill="#00A3AB"/>
<path d="M222.843 133.307C217.934 126.054 216.42 116.897 215.317 108.375C214.25 100.139 213.969 91.8011 214.491 83.5119C214.784 78.858 215.331 74.2234 216.117 69.627C216.25 68.8503 215.041 68.6794 214.908 69.4545C213.474 77.8321 212.856 86.3406 213.058 94.8382C213.26 103.329 214.207 111.903 216.18 120.173C217.347 125.066 219.029 129.849 221.865 134.039C222.306 134.691 223.281 133.957 222.843 133.307Z" fill="#00A3AB"/>
<path d="M187.343 75.2637C184.245 76.8781 180.542 77.0239 177.123 76.3089C166.306 74.0461 158.524 63.4949 157.125 52.5354C155.725 41.5759 159.718 30.5171 165.65 21.1953C166.088 20.5077 166.562 19.8018 167.271 19.3992C168.168 18.8883 169.274 18.9559 170.293 19.1192C176.707 20.1468 182.18 24.2864 186.835 28.8169C190.967 32.839 194.739 37.3521 197.097 42.6143C199.214 47.339 200.13 52.5946 199.737 57.7568C199.462 61.3647 198.53 64.9784 196.587 68.0321C194.644 71.0849 191.468 74.2411 187.941 75.0571" fill="#00A3AB"/>
<path d="M185.67 43.0126C186.083 51.5927 185.436 60.1962 183.787 68.6246C179.414 61.888 176.629 54.1863 174.429 46.453C175.989 42.4967 177.108 38.3737 177.76 34.1708C177.88 33.3932 176.671 33.2207 176.551 33.9983C175.999 37.5562 175.088 41.0399 173.869 44.4227C173.122 41.6808 172.422 38.9271 171.737 36.1685C171.551 35.4151 170.335 35.5476 170.524 36.3085C171.925 41.9533 173.359 47.6598 175.231 53.197C174.567 52.8103 173.97 52.3186 173.385 51.7911C172.299 50.8118 171.246 49.795 170.228 48.7457C168.285 46.7447 166.469 44.6244 164.774 42.4092C164.297 41.785 163.318 42.5159 163.797 43.1418C165.598 45.4962 167.538 47.7381 169.616 49.8525C170.625 50.8793 171.66 51.8802 172.731 52.8412C173.641 53.6588 174.613 54.4097 175.784 54.7972C177.13 58.5726 178.704 62.258 180.639 65.7759C173.611 64.8225 167.034 61.323 162.398 55.9357C161.889 55.3431 160.908 56.0715 161.422 56.6683C166.46 62.5222 173.661 66.3193 181.349 67.1203L181.404 67.1144C181.532 67.3319 181.653 67.5528 181.783 67.7687C183.424 70.4956 185.312 73.0659 187.453 75.4228C187.977 75.9996 188.959 75.2728 188.43 74.6903C187.094 73.2193 185.876 71.6708 184.752 70.0631C186.611 61.1304 187.322 51.9853 186.883 42.8726C186.845 42.0858 185.632 42.2308 185.67 43.0126Z" fill="#049097"/>
<path d="M180.322 106.121C181.021 102.699 180.142 99.0994 178.513 96.0099C173.359 86.2363 161.07 81.6624 150.146 83.3351C139.223 85.007 129.689 91.8894 122.359 100.158C121.818 100.768 121.27 101.418 121.078 102.21C120.834 103.212 121.203 104.257 121.641 105.192C124.395 111.073 129.882 115.194 135.52 118.42C140.526 121.284 145.904 123.668 151.613 124.486C156.738 125.219 162.045 124.652 166.899 122.854C170.294 121.595 173.512 119.704 175.913 116.996C178.314 114.288 180.474 110.367 180.287 106.753" fill="#00A3AB"/>
<path d="M148.849 113.393C157.214 111.428 165.308 108.437 172.959 104.531C165.277 102.183 157.104 101.627 149.063 101.641C145.688 104.23 142.032 106.441 138.17 108.224C137.455 108.554 136.957 107.439 137.671 107.11C140.94 105.6 144.039 103.765 146.956 101.662C144.114 101.698 141.273 101.784 138.433 101.886C137.657 101.914 137.45 100.709 138.233 100.682C144.047 100.473 149.928 100.28 155.768 100.555C155.213 100.024 154.576 99.5848 153.908 99.1681C152.668 98.3947 151.4 97.6621 150.111 96.972C147.652 95.656 145.113 94.4943 142.516 93.475C141.785 93.1874 142.219 92.0465 142.951 92.334C145.711 93.4175 148.401 94.6643 151.006 96.0794C152.271 96.7662 153.519 97.4863 154.738 98.2505L157.459 100.647C157.459 100.647 165.437 101.399 169.353 102.29C166.501 95.7977 161.324 90.4405 154.869 87.4676C154.159 87.1401 154.589 85.9975 155.304 86.3267C162.32 89.557 167.954 95.4335 170.84 102.603L170.85 102.658C171.095 102.719 171.34 102.775 171.584 102.84C174.658 103.668 177.649 104.774 180.505 106.183C181.203 106.528 180.775 107.672 180.07 107.324C178.287 106.445 176.463 105.7 174.608 105.063C166.53 109.308 157.932 112.51 149.049 114.597C148.282 114.778 148.087 113.571 148.849 113.393Z" fill="#049097"/>
<path d="M192.175 119.458C191.641 117.997 190.468 116.837 189.128 116.045C184.893 113.542 179.165 114.674 175.413 117.856C171.661 121.039 169.652 125.874 168.802 130.72C168.739 131.077 168.683 131.451 168.795 131.796C168.937 132.233 169.32 132.544 169.705 132.796C172.122 134.384 175.165 134.667 178.055 134.574C180.622 134.492 183.218 134.142 185.574 133.12C187.689 132.202 189.569 130.75 190.99 128.934C191.984 127.665 192.763 126.197 193.041 124.611C193.32 123.023 193.223 121.032 192.309 119.705" fill="#00A3AB"/>
<path d="M181.937 129.558C184.65 126.861 187.022 123.838 189.011 120.573C185.55 121.474 182.321 123.17 179.275 125.052C178.599 126.821 177.729 128.513 176.68 130.09C176.487 130.381 176.037 130.075 176.231 129.783C177.119 128.448 177.866 127.029 178.481 125.551C177.412 126.227 176.355 126.923 175.301 127.624C175.013 127.816 174.653 127.408 174.944 127.214C177.1 125.779 179.285 124.333 181.564 123.075C181.23 123.003 180.886 122.985 180.535 122.983C179.884 122.979 179.233 122.997 178.583 123.036C177.343 123.111 176.109 123.263 174.886 123.482C174.542 123.544 174.44 123.01 174.785 122.948C176.084 122.715 177.396 122.56 178.714 122.49C179.354 122.455 179.995 122.436 180.636 122.441C181.181 122.446 181.725 122.491 182.227 122.716C183.804 121.879 185.428 121.139 187.121 120.564C184.524 118.767 181.311 117.943 178.168 118.322C177.822 118.364 177.719 117.83 178.067 117.788C181.482 117.377 184.99 118.29 187.758 120.335L187.774 120.354C187.882 120.32 187.988 120.284 188.095 120.252C189.454 119.848 190.847 119.57 192.259 119.438C192.604 119.406 192.708 119.94 192.36 119.973C191.479 120.055 190.613 120.198 189.761 120.389C187.688 123.884 185.175 127.104 182.294 129.968C182.045 130.215 181.69 129.804 181.937 129.558Z" fill="#049097"/>
<path d="M214.039 81.9784C211.229 81.5766 208.717 79.919 206.799 77.8271C200.733 71.2113 200.597 60.5618 204.867 52.6668C209.137 44.7717 217.011 39.3645 225.343 36.0224C225.958 35.7766 226.606 35.5357 227.264 35.6049C228.098 35.6932 228.796 36.2616 229.391 36.8517C233.137 40.5679 234.788 45.8918 235.712 51.0858C236.533 55.6971 236.884 60.4626 235.947 65.0523C235.105 69.1719 233.219 73.0749 230.513 76.2952C228.623 78.5463 226.294 80.489 223.566 81.5841C220.837 82.6776 217.246 83.2568 214.532 82.125" fill="#00A3AB"/>
<path d="M228.217 59.9029C224.423 65.761 219.92 71.1325 214.838 75.913C215.145 69.3956 216.955 62.9949 219.168 56.8492C222.072 54.9773 224.765 52.7862 227.186 50.3218C227.634 49.8651 226.918 49.1792 226.47 49.6351C224.42 51.722 222.168 53.5888 219.761 55.244C220.567 53.0813 221.41 50.9319 222.266 48.7875C222.499 48.2016 221.635 47.7132 221.399 48.3049C219.648 52.6946 217.89 57.1384 216.502 61.6797C216.247 61.1097 216.086 60.5029 215.95 59.877C215.698 58.7169 215.484 57.5476 215.309 56.3733C214.976 54.1314 214.782 51.8728 214.713 49.6076C214.694 48.97 213.702 48.9883 213.721 49.6284C213.794 52.0353 214.012 54.4331 214.381 56.8134C214.561 57.9685 214.77 59.1194 215.021 60.2604C215.235 61.2322 215.519 62.1873 216.109 62.9974C215.208 66.1269 214.501 69.3031 214.11 72.5426C209.924 68.5838 207.243 63.1599 206.736 57.4093C206.68 56.7767 205.688 56.7925 205.744 57.4301C206.294 63.6791 209.248 69.5956 213.942 73.7652L213.981 73.7877C213.962 73.9911 213.937 74.1945 213.921 74.3987C213.712 76.9764 213.739 79.5659 214.036 82.1353C214.108 82.7646 215.101 82.7496 215.027 82.1145C214.843 80.511 214.773 78.9125 214.793 77.319C220.252 72.3051 225.055 66.6069 229.084 60.3854C229.431 59.8487 228.562 59.3695 228.217 59.9029Z" fill="#049097"/>
<path d="M206.114 110.325C204.25 110.806 202.244 110.423 200.497 109.614C194.972 107.054 192.108 100.421 192.721 94.3634C193.334 88.306 196.854 82.8663 201.199 78.6008C201.52 78.2866 201.862 77.9657 202.292 77.8374C202.838 77.6757 203.423 77.8491 203.95 78.0641C207.265 79.4134 209.688 82.3162 211.622 85.3274C213.34 88.001 214.803 90.8938 215.414 94.0117C215.963 96.8112 215.8 99.7465 214.947 102.468C214.35 104.371 213.399 106.196 211.976 107.592C210.553 108.99 208.455 110.288 206.46 110.288" fill="#00A3AB"/>
<path d="M209.23 92.8028C208.384 97.4609 206.966 101.999 205.032 106.318C203.522 102.157 202.986 97.6767 202.767 93.2512C204.097 91.3219 205.212 89.2474 206.084 87.073C206.245 86.6697 205.618 86.4271 205.457 86.8289C204.718 88.6707 203.795 90.4276 202.719 92.0919C202.66 90.5268 202.628 88.9616 202.603 87.3956C202.596 86.968 201.928 86.888 201.934 87.3197C201.984 90.5243 202.042 93.7663 202.358 96.9716C202.051 96.6808 201.791 96.3432 201.542 95.9874C201.082 95.3265 200.643 94.6497 200.227 93.9596C199.433 92.6437 198.722 91.2794 198.088 89.8792C197.909 89.485 197.293 89.7558 197.472 90.1509C198.146 91.6385 198.908 93.0837 199.761 94.4772C200.174 95.1539 200.606 95.8207 201.061 96.4691C201.448 97.0216 201.876 97.5459 202.457 97.8993C202.709 100.094 203.095 102.268 203.696 104.397C200.041 103.011 196.947 100.314 195.129 96.845C194.929 96.4632 194.312 96.7324 194.513 97.1167C196.489 100.886 199.882 103.82 203.91 105.207L203.94 105.211C203.981 105.343 204.019 105.477 204.061 105.609C204.604 107.278 205.297 108.892 206.153 110.423C206.362 110.798 206.98 110.53 206.769 110.151C206.235 109.196 205.773 108.213 205.37 107.21C207.48 102.646 209 97.8259 209.899 92.8787C209.977 92.452 209.307 92.3786 209.23 92.8028Z" fill="#049097"/>
<path d="M225.873 116.082C223.939 114.616 222.747 112.334 222.181 109.974C220.388 102.508 224.706 94.4857 231.176 90.3502C237.646 86.2156 245.781 85.4372 253.4 86.394C253.962 86.464 254.546 86.5523 255.01 86.8774C255.597 87.2891 255.883 88.0041 256.083 88.6925C257.344 93.0255 256.369 97.6927 254.906 101.962C253.606 105.752 251.891 109.462 249.285 112.507C246.946 115.24 243.916 117.377 240.556 118.664C238.208 119.563 235.66 120.052 233.163 119.738C230.668 119.425 227.742 118.368 226.181 116.396L225.873 116.082Z" fill="#00A3AB"/>
<path d="M245.64 105.449C240.372 108.257 234.774 110.408 228.989 111.876C231.922 107.128 235.934 103.091 240.138 99.4105C243.088 99.2155 246.011 98.6938 248.844 97.8537C249.37 97.6987 249.119 96.8878 248.594 97.0436C246.195 97.7537 243.735 98.2171 241.248 98.4563C242.748 97.1719 244.271 95.9143 245.8 94.6658C246.219 94.3241 245.774 93.6007 245.352 93.9449C242.221 96.5027 239.062 99.098 236.139 101.918C236.185 101.387 236.317 100.866 236.475 100.341C236.767 99.3688 237.093 98.4054 237.449 97.4545C238.13 95.6393 238.922 93.8691 239.811 92.1464C240.061 91.6613 239.31 91.2638 239.06 91.7505C238.116 93.5816 237.284 95.4659 236.573 97.3986C236.228 98.3371 235.906 99.2847 235.62 100.243C235.378 101.058 235.193 101.891 235.299 102.742C233.326 104.709 231.479 106.792 229.843 109.052C228.354 104.355 228.599 99.1855 230.606 94.6733C230.827 94.1774 230.078 93.7774 229.856 94.2775C227.674 99.1813 227.428 104.832 229.21 109.898L229.23 109.931C229.13 110.076 229.028 110.217 228.93 110.363C227.705 112.204 226.651 114.153 225.806 116.198C225.6 116.698 226.349 117.099 226.557 116.594C227.084 115.318 227.695 114.093 228.371 112.91C234.536 111.423 240.493 109.152 246.089 106.17C246.571 105.911 246.12 105.193 245.64 105.449Z" fill="#049097"/>
<path d="M216.371 126.682C205.469 117.749 192.841 110.943 179.382 106.754C175.632 105.586 171.82 104.621 167.966 103.859C167.194 103.706 167.024 104.915 167.794 105.068C181.466 107.771 194.599 113.131 206.259 120.768C209.502 122.891 212.626 125.191 215.625 127.648C216.232 128.145 216.981 127.18 216.371 126.682Z" fill="#00A3AB"/>
</g>
<mask id="mask3_863_9754" style="mask-type:luminance" maskUnits="userSpaceOnUse" x="144" y="196" width="2" height="14">
<path d="M145.389 209.44C144.318 205.304 143.841 200.934 144.371 196.737C144.585 200.981 144.927 205.217 145.389 209.44Z" fill="white"/>
</mask>
<g mask="url(#mask3_863_9754)">
<path d="M145.389 209.44C144.318 205.304 143.841 200.934 144.371 196.737C144.585 200.981 144.927 205.217 145.389 209.44Z" fill="url(#paint3_linear_863_9754)"/>
</g>
<path d="M394.936 51.021C393.367 51.1044 391.814 51.1127 390.25 50.866C390.127 50.8468 390.008 50.8102 389.886 50.7877C391.233 49.2775 392.581 47.7665 393.929 46.2555C394.019 46.1555 394.108 46.0555 394.197 45.9555C394.581 47.3031 394.818 48.6916 394.899 50.0884C394.918 50.3993 394.926 50.7101 394.936 51.021ZM396.104 51.5436C396.995 51.5119 397.887 51.5277 398.776 51.5986C399.059 51.6211 399.34 51.6719 399.622 51.7069C398.49 52.9587 397.358 54.2105 396.225 55.4623L396.043 55.6632C395.746 54.3089 395.619 52.9504 395.549 51.5752C395.733 51.5644 395.919 51.5502 396.104 51.5436ZM406.053 53.7897C406.285 53.9288 406.52 54.0755 406.753 54.2314C404.543 56.7241 402.331 59.2169 400.121 61.7105C399.861 62.0039 399.6 62.2981 399.34 62.5915C399.261 62.4998 399.18 62.4073 399.105 62.3147C398.598 61.6897 398.173 61.0079 397.783 60.3062C399.77 58.1343 401.758 55.9624 403.744 53.7913C403.989 53.5238 404.234 53.2563 404.479 52.9887C405.017 53.2254 405.546 53.4871 406.053 53.7897ZM396.216 56.3374C397.437 54.9864 398.658 53.6355 399.881 52.2853C400.028 52.1228 400.176 51.9594 400.322 51.7961C401.546 51.9911 402.747 52.3103 403.899 52.762C401.96 54.8823 400.021 57.0025 398.081 59.1227C397.885 59.3361 397.69 59.5495 397.496 59.7628C396.946 58.6702 396.523 57.5184 396.216 56.3374ZM393.998 45.272L394.006 45.2995C392.62 46.853 391.234 48.4065 389.848 49.96C389.647 50.1859 389.445 50.4109 389.244 50.636L389.237 50.6485C388.058 50.3893 386.913 50.0051 385.818 49.4983C387.881 47.3164 389.941 45.1354 392.004 42.9526C392.221 42.7226 392.439 42.4926 392.656 42.2617C393.2 43.2193 393.655 44.2269 393.998 45.272ZM383.324 48.0923C383.217 48.0165 383.11 47.9332 383.002 47.854C385.26 45.3404 387.518 42.8259 389.776 40.3115C390.046 40.0106 390.317 39.7089 390.587 39.4089C391.248 40.1298 391.83 40.9157 392.344 41.7475C390.223 43.9927 388.102 46.2371 385.98 48.4824C385.742 48.7349 385.503 48.9874 385.264 49.24C384.594 48.8991 383.939 48.5266 383.324 48.0923ZM388.343 37.4403C389.024 37.8512 389.634 38.4079 390.192 38.9813C387.948 41.4799 385.703 43.9794 383.459 46.478C383.152 46.8197 382.845 47.1622 382.538 47.5039C381.88 46.9839 381.251 46.4013 380.76 45.7388C380.537 45.4379 380.114 45.8379 380.335 46.1355C380.898 46.8939 381.65 47.5398 382.388 48.119C383.201 48.7566 384.087 49.2983 385.009 49.7667C385.066 49.8984 385.206 49.9892 385.343 49.9484C386.387 50.4493 387.485 50.8418 388.607 51.121C390.151 51.5061 391.744 51.6844 393.334 51.6777C393.879 51.6761 394.42 51.6427 394.961 51.6077C394.976 52.0603 394.996 52.5128 395.036 52.9654C395.112 53.7888 395.226 54.6081 395.39 55.419C395.449 55.7082 395.535 55.9907 395.606 56.2774L395.635 56.3924C395.988 57.7784 396.487 59.1261 397.161 60.3854L397.174 60.4095C397.52 61.0521 397.897 61.678 398.335 62.2656C398.988 63.1449 399.777 64.0616 400.713 64.6558C401.03 64.8567 401.34 64.365 401.023 64.1641C400.556 63.8666 400.126 63.4632 399.725 63.029C401.949 60.5212 404.172 58.0134 406.396 55.5065C406.673 55.1948 406.95 54.8823 407.226 54.5706C407.741 54.9523 408.225 55.3757 408.607 55.8665C408.836 56.1616 409.26 55.7632 409.032 55.4698C408.487 54.7689 407.724 54.1947 406.998 53.7021C406.242 53.1896 405.427 52.7804 404.59 52.4212L404.396 52.3353C403.161 51.8253 401.865 51.4527 400.549 51.2327L400.331 51.2035L400.166 51.1819C398.63 50.956 397.072 50.9018 395.522 50.9935C395.517 50.8535 395.508 50.7151 395.503 50.576C395.442 48.9208 395.199 47.2689 394.732 45.6788C394.323 44.2819 393.723 42.9476 392.982 41.6975L392.897 41.5575C392.415 40.7624 391.888 39.9948 391.275 39.2914C390.521 38.4246 389.646 37.5479 388.653 36.9486C388.333 36.7553 388.022 37.247 388.343 37.4403Z" fill="#799FF9"/>
<mask id="mask4_863_9754" style="mask-type:luminance" maskUnits="userSpaceOnUse" x="417" y="68" width="17" height="15">
<path d="M419.57 82.1885C419.314 82.1885 419.086 81.9234 419.135 81.6317C419.637 78.6731 420.139 75.7144 420.64 72.7558C419.714 72.2032 418.787 71.6498 417.859 71.0964C417.452 70.8539 417.707 70.283 418.086 70.283C418.157 70.283 418.231 70.303 418.306 70.348C419.318 70.9514 420.33 71.5556 421.342 72.159C421.519 72.264 421.571 72.4574 421.539 72.6491C421.094 75.2719 420.649 77.8955 420.205 80.5183C420.766 79.9774 421.328 79.4373 421.888 78.8981C425.315 75.5994 428.694 72.259 432.07 68.9095C432.157 68.8228 432.257 68.7862 432.355 68.7862C432.616 68.7862 432.859 69.0462 432.791 69.3404C432.144 72.1915 431.496 75.0418 430.847 77.8922C431.637 78.363 432.426 78.8339 433.215 79.3056C433.623 79.5482 433.368 80.1191 432.988 80.1191C432.918 80.1191 432.844 80.0991 432.768 80.0541C431.888 79.529 431.008 79.004 430.128 78.4789C429.958 78.3772 429.889 78.1772 429.931 77.9888C430.492 75.5227 431.053 73.0575 431.614 70.5905C431.087 71.1139 430.559 71.6373 430.031 72.1607C426.672 75.4952 423.268 78.7806 419.858 82.0626C419.766 82.151 419.666 82.1885 419.57 82.1885Z" fill="white"/>
</mask>
<g mask="url(#mask4_863_9754)">
<path d="M419.57 82.1885C419.314 82.1885 419.086 81.9234 419.135 81.6317C419.637 78.6731 420.139 75.7144 420.64 72.7558C419.714 72.2032 418.787 71.6498 417.859 71.0964C417.452 70.8539 417.707 70.283 418.086 70.283C418.157 70.283 418.231 70.303 418.306 70.348C419.318 70.9514 420.33 71.5556 421.342 72.159C421.519 72.264 421.571 72.4574 421.539 72.6491C421.094 75.2719 420.649 77.8955 420.205 80.5183C420.766 79.9774 421.328 79.4373 421.888 78.8981C425.315 75.5994 428.694 72.259 432.07 68.9095C432.157 68.8228 432.257 68.7862 432.355 68.7862C432.616 68.7862 432.859 69.0462 432.791 69.3404C432.144 72.1915 431.496 75.0418 430.847 77.8922C431.637 78.363 432.426 78.8339 433.215 79.3056C433.623 79.5482 433.368 80.1191 432.988 80.1191C432.918 80.1191 432.844 80.0991 432.768 80.0541C431.888 79.529 431.008 79.004 430.128 78.4789C429.958 78.3772 429.889 78.1772 429.931 77.9888C430.492 75.5227 431.053 73.0575 431.614 70.5905C431.087 71.1139 430.559 71.6373 430.031 72.1607C426.672 75.4952 423.268 78.7806 419.858 82.0626C419.766 82.151 419.666 82.1885 419.57 82.1885Z" fill="url(#paint4_linear_863_9754)"/>
</g>
<mask id="mask5_863_9754" style="mask-type:luminance" maskUnits="userSpaceOnUse" x="449" y="92" width="9" height="11">
<path d="M452.023 100.844C452.676 102.154 454.268 102.688 455.578 102.036C456.89 101.383 457.423 99.7921 456.771 98.4811L453.889 92.6921L449.142 95.0549L452.023 100.844Z" fill="white"/>
</mask>
<g mask="url(#mask5_863_9754)">
<path d="M452.023 100.844C452.676 102.154 454.268 102.688 455.578 102.036C456.89 101.383 457.423 99.7921 456.771 98.4811L453.889 92.6921L449.142 95.0549L452.023 100.844Z" fill="url(#paint5_linear_863_9754)"/>
</g>
<path d="M447.304 91.3639L449.142 95.0552L453.889 92.6924L452.052 89.0012C451.399 87.6902 449.808 87.1568 448.496 87.8094C447.185 88.462 446.651 90.053 447.304 91.3639Z" fill="#A1BFFB"/>
<mask id="mask6_863_9754" style="mask-type:luminance" maskUnits="userSpaceOnUse" x="370" y="76" width="19" height="17">
<path d="M380.74 91.531C383.108 93.0303 386.243 92.3261 387.742 89.9583C389.242 87.5906 388.538 84.4561 386.17 82.9567L375.712 76.3368L370.282 84.9111L380.74 91.531Z" fill="white"/>
</mask>
<g mask="url(#mask6_863_9754)">
<path d="M380.74 91.531C383.108 93.0303 386.243 92.3261 387.742 89.9583C389.242 87.5906 388.538 84.4561 386.17 82.9567L375.712 76.3368L370.282 84.9111L380.74 91.531Z" fill="url(#paint6_linear_863_9754)"/>
</g>
<mask id="mask7_863_9754" style="mask-type:luminance" maskUnits="userSpaceOnUse" x="361" y="71" width="15" height="14">
<path d="M363.613 80.689L370.282 84.9111L375.712 76.3368L369.043 72.1155C366.675 70.6162 363.538 71.3196 362.039 73.6874C360.54 76.0552 361.244 79.1897 363.613 80.689Z" fill="white"/>
</mask>
<g mask="url(#mask7_863_9754)">
<path d="M363.613 80.689L370.282 84.9111L375.712 76.3368L369.043 72.1155C366.675 70.6162 363.538 71.3196 362.039 73.6874C360.54 76.0552 361.244 79.1897 363.613 80.689Z" fill="#A1BFFB"/>
</g>
<mask id="mask8_863_9754" style="mask-type:luminance" maskUnits="userSpaceOnUse" x="299" y="58" width="28" height="26">
<path d="M302.12 69.7544C298.832 72.2555 298.317 77.1086 300.969 80.5915C303.621 84.0752 308.436 84.8711 311.724 82.37L326.241 71.3221L316.637 58.7066L302.12 69.7544Z" fill="white"/>
</mask>
<g mask="url(#mask8_863_9754)">
<path d="M302.12 69.7544C298.832 72.2555 298.317 77.1086 300.969 80.5915C303.621 84.0752 308.436 84.8711 311.724 82.37L326.241 71.3221L316.637 58.7066L302.12 69.7544Z" fill="url(#paint7_linear_863_9754)"/>
</g>
<path d="M325.895 51.6618L316.637 58.7067L326.241 71.3223L335.5 64.2773C338.787 61.7754 339.302 56.9232 336.649 53.4394C333.998 49.9557 329.182 49.1598 325.895 51.6618Z" fill="#A1BFFB"/>
<path d="M342.856 309.111H279.749V254.031H342.856V309.111Z" fill="#1A2E4A"/>
<path d="M369.34 314.579H246.805C244.863 314.579 243.288 313.006 243.288 311.065C243.288 309.123 244.863 307.548 246.805 307.548H369.34C371.283 307.548 372.857 309.123 372.857 311.065C372.857 313.006 371.283 314.579 369.34 314.579Z" fill="#1A2E4A"/>
<path d="M342.856 265.298L279.751 264.201L279.749 291.663L342.856 278.48V265.298Z" fill="#121212"/>
<path d="M441.523 106.161C438.606 103.408 434.684 101.708 430.356 101.708H200.031C191.223 101.708 184.082 108.847 184.082 117.654V248.402C359.341 250.951 422.861 148.307 441.523 106.161Z" fill="#1A2E4A"/>
<path d="M441.523 106.16C422.861 148.307 359.341 250.951 184.082 248.402V257.58C184.082 261.842 187.538 265.298 191.801 265.298H436.899C442.28 265.298 446.642 260.936 446.642 255.558V117.991C446.642 113.325 444.669 109.129 441.523 106.16Z" fill="#1A2E4A"/>
<path d="M314.429 244.47C316.479 245.76 317.844 248.037 317.844 250.639C317.844 254.667 314.578 257.931 310.549 257.931C308.375 257.931 306.429 256.975 305.092 255.467C306.379 258.049 309.039 259.828 312.12 259.828C316.458 259.828 319.974 256.312 319.974 251.975C319.974 248.443 317.64 245.456 314.429 244.47Z" fill="#121212"/>
<path d="M310.549 257.931C314.578 257.931 317.844 254.667 317.844 250.639C317.844 248.037 316.479 245.76 314.429 244.47C313.699 244.245 312.924 244.124 312.12 244.124C307.782 244.124 304.266 247.639 304.266 251.975C304.266 253.231 304.569 254.414 305.092 255.467C306.429 256.975 308.375 257.931 310.549 257.931Z" fill="#121212"/>
<path d="M195.933 239.719H432.231V113.434H195.933V239.719Z" fill="#1C456C"/>
<path d="M328.732 232.645H289.162C287.067 220.174 286.429 194.888 286.283 174.379L307.837 189.716C308.403 190.119 309.066 190.32 309.729 190.32C310.388 190.32 311.047 190.121 311.611 189.723L328.732 177.626V232.645ZM220.916 232.645H205.096V118.377H228.319C228.521 118.881 228.756 119.373 229.023 119.849C229.904 121.423 231.115 122.815 232.545 123.977C233.903 125.083 235.458 125.982 237.116 126.627C238.671 127.233 240.382 127.614 242.058 127.614C243.431 127.614 244.781 127.358 246.003 126.759C248.069 125.746 249.564 123.809 250.097 121.672C250.172 121.375 250.224 121.075 250.263 120.773C250.644 121.189 251.044 121.585 251.451 121.975C251.959 123.155 252.279 124.461 252.351 126.247C252.455 128.832 252.471 129.235 252.491 129.496C252.453 130.223 252.397 130.95 252.308 131.672L252.262 131.265C252.072 131.286 248.81 131.704 246.199 135.444C241.262 137.007 233.105 139.932 229.275 143.246C229.275 143.246 224.237 156.561 216.197 185.402C214.526 191.395 214.268 197.694 215.413 203.809L220.916 232.645ZM312.601 169.323C312.574 169.323 312.547 169.322 312.522 169.32L312.48 169.317C312.07 169.265 311.494 168.873 310.903 168.367C301.249 158.403 286.386 143.246 286.386 143.246C283.194 140.485 277.668 138.013 273.423 136.372C270.892 130.871 266.696 130.75 266.323 130.75C266.314 130.75 266.307 130.75 266.302 130.75L266.306 130.986C266.104 128.481 266.197 125.965 266.703 123.558C267.942 122.784 269.047 121.807 270.017 120.678C270.788 121.684 271.865 122.474 273.045 122.957C274.285 123.464 275.623 123.666 276.967 123.666C277.645 123.666 278.325 123.615 278.994 123.525C282.903 123.001 286.584 121.123 289.408 118.377H328.732V160.74L319.05 166.132C317.29 166.871 313.944 169.323 312.601 169.323ZM272.266 135.933C271.849 135.777 271.451 135.632 271.074 135.497L271.057 135.491C268.962 134.739 267.548 134.307 267.548 134.307C267.466 134.632 267.381 134.988 267.296 135.358C267.18 135.372 267.065 135.391 266.949 135.41C266.686 134.152 266.485 132.871 266.356 131.584C266.359 131.584 266.36 131.584 266.363 131.584C266.756 131.584 269.995 131.782 272.266 135.933ZM247.59 135.013C249.589 132.691 251.729 132.197 252.246 132.11C252.124 132.996 251.969 133.877 251.77 134.75C251.287 134.629 250.804 134.502 250.323 134.368C250.294 134.207 250.278 134.122 250.278 134.122L248.006 134.888C247.872 134.928 247.733 134.969 247.59 135.013Z" fill="#DFE9EB"/>
<path d="M422.803 232.645H339.008V170.365L346.247 165.249C346.705 164.926 346.808 164.289 346.475 163.837L344.841 161.622C346.028 160.735 347.215 159.845 348.407 158.964C349.182 158.39 349.961 157.816 350.812 157.363C351.198 157.157 351.592 156.98 351.994 156.826C352.048 157.133 352.316 157.368 352.639 157.368H408.126C408.488 157.368 408.782 157.074 408.782 156.712C408.782 156.349 408.488 156.056 408.126 156.056H355.145C357.568 155.73 360.122 155.86 362.583 155.777C365.476 155.681 368.358 155.264 371.158 154.536C371.967 154.326 372.784 154.076 373.577 153.772H408.126C408.488 153.772 408.782 153.478 408.782 153.116C408.782 152.754 408.488 152.459 408.126 152.459H376.203C377.026 151.923 377.764 151.284 378.365 150.517L378.422 150.468L378.382 150.493C378.56 150.264 378.738 150.034 378.889 149.782C378.968 149.651 379.044 149.505 379.022 149.355C378.976 149.059 378.617 148.972 378.303 148.972C378.268 148.972 378.234 148.972 378.2 148.975C376.985 149.048 375.783 149.257 374.578 149.433C371.498 149.883 368.386 150.105 365.275 150.105C362.613 150.105 359.952 149.942 357.311 149.618C357.522 149.467 357.751 149.31 358.011 149.146C358.463 148.859 359.064 148.522 359.662 148.141C359.822 148.317 360.016 148.467 360.25 148.578C360.32 148.612 360.392 148.627 360.462 148.627C360.684 148.627 360.882 148.469 360.89 148.211C360.899 147.88 360.916 147.55 360.938 147.221C361.421 146.806 361.805 146.358 361.97 145.884C362.132 145.411 362.241 144.792 361.938 144.394C361.763 144.164 361.571 144.056 361.351 144.031C361.674 142.359 362.16 140.72 362.806 139.14C363.339 139.9 364.174 140.425 365.09 140.665C365.607 140.8 366.142 140.851 366.676 140.851C366.948 140.851 367.22 140.837 367.489 140.816C368.151 140.762 369.014 140.758 369.625 140.472C370.211 140.198 370.37 139.64 370.504 139.052C370.664 138.345 370.775 137.63 370.904 136.919C371.098 135.852 371.329 134.757 371.845 133.805C372.134 136.529 372.424 139.252 372.713 141.976C372.739 142.219 372.906 142.399 373.14 142.399C373.176 142.399 373.212 142.395 373.252 142.387C373.854 142.249 374.275 141.824 374.629 141.341C374.977 140.865 375.248 140.203 375.753 139.867C375.889 139.776 376.022 139.737 376.148 139.737C376.571 139.737 376.929 140.169 377.195 140.503C377.626 141.044 378.027 141.571 378.708 141.798C378.752 141.813 378.794 141.82 378.834 141.82C379.059 141.82 379.219 141.605 379.246 141.389C379.488 139.495 379.877 137.62 380.408 135.787C380.529 135.368 380.627 134.896 380.811 134.497C380.886 134.335 380.956 134.228 381.036 134.228C381.095 134.228 381.159 134.286 381.235 134.422C381.299 134.537 381.31 134.702 381.333 134.828C381.51 135.813 381.599 136.824 381.694 137.821C381.872 139.716 381.931 141.612 381.965 143.516C381.992 145.151 382.115 146.796 382.892 148.268C382.966 148.408 383.106 148.473 383.247 148.473C383.433 148.473 383.62 148.363 383.669 148.166C384.117 146.351 384.565 144.536 385.013 142.721C385.121 142.284 385.229 141.847 385.337 141.41C385.437 141.003 385.502 140.533 385.707 140.161C385.925 139.767 386.269 139.648 386.644 139.648C386.94 139.648 387.254 139.722 387.541 139.793C388.189 139.953 388.832 140.118 389.455 140.118C390.033 140.118 390.594 139.976 391.126 139.558C392.11 138.785 392.62 137.497 392.862 136.304C393.132 134.973 393.205 133.298 394.154 132.235C394.64 133.597 394.673 135.072 394.74 136.509C394.777 137.283 394.825 138.057 394.939 138.825C395.021 139.371 395.132 139.968 395.724 140.162C395.85 140.203 395.985 140.218 396.123 140.218C396.38 140.218 396.647 140.167 396.885 140.146C397.301 140.107 397.716 140.07 398.132 140.031C398.763 139.974 399.395 139.915 400.009 139.749C400.804 139.534 401.599 139.133 402.025 138.445C403.59 140.587 403.543 143.659 405.819 145.351C405.881 145.397 405.95 145.417 406.018 145.417C406.205 145.417 406.394 145.272 406.444 145.097C406.736 144.105 407.027 143.113 407.319 142.121C407.566 141.282 407.749 140.382 408.108 139.582C408.531 138.64 409.288 138.345 410.126 138.345C410.806 138.345 411.539 138.54 412.19 138.742C412.237 138.757 412.281 138.764 412.324 138.764C412.748 138.764 412.892 138.07 412.416 137.923C411.689 137.696 410.86 137.492 410.069 137.492C409.149 137.492 408.281 137.769 407.683 138.61C407.132 139.388 406.938 140.401 406.674 141.299C406.386 142.278 406.098 143.256 405.811 144.234C404.953 143.363 404.536 142.13 404.131 140.997C403.659 139.681 403.169 138.353 402.19 137.321C402.112 137.239 402.002 137.2 401.891 137.2C401.704 137.2 401.517 137.31 401.479 137.509C401.291 138.5 400.256 138.845 399.377 139.023C398.763 139.148 398.132 139.181 397.508 139.238C397.162 139.27 396.816 139.303 396.469 139.333C396.405 139.339 396.347 139.342 396.294 139.342C395.995 139.342 395.868 139.238 395.803 138.87C395.352 136.332 395.783 133.712 394.685 131.3C394.626 131.17 394.457 131.087 394.302 131.087C394.228 131.087 394.157 131.105 394.103 131.148C392.962 132.027 392.544 133.347 392.286 134.713C392.029 136.073 391.876 137.593 390.87 138.646C390.422 139.115 389.931 139.266 389.416 139.266C388.635 139.266 387.801 138.919 386.984 138.82C386.868 138.806 386.751 138.799 386.635 138.799C386.13 138.799 385.642 138.942 385.271 139.321C384.725 139.88 384.62 140.763 384.441 141.487C384.016 143.213 383.589 144.938 383.163 146.664C382.856 145.562 382.826 144.389 382.811 143.243C382.787 141.467 382.718 139.695 382.554 137.925C382.476 137.09 382.381 136.258 382.269 135.428C382.185 134.813 382.17 134.019 381.674 133.563C381.496 133.4 381.286 133.326 381.076 133.326C380.789 133.326 380.502 133.464 380.3 133.702C379.866 134.21 379.739 135.034 379.56 135.658C379.084 137.319 378.733 139.01 378.486 140.721C378.085 140.385 377.804 139.857 377.454 139.5C377.096 139.134 376.637 138.886 376.145 138.886C375.99 138.886 375.832 138.91 375.672 138.964C375.076 139.163 374.692 139.712 374.361 140.214C374.111 140.591 373.865 141.057 373.496 141.341C373.187 138.436 372.879 135.532 372.571 132.627C372.546 132.398 372.333 132.194 372.116 132.194C372.021 132.194 371.925 132.233 371.845 132.326C370.248 134.174 370.191 136.638 369.665 138.905C369.59 139.229 369.55 139.591 369.204 139.728C368.922 139.839 368.568 139.845 368.272 139.881C367.745 139.947 367.213 140.002 366.682 140.002C366.495 140.002 366.309 139.996 366.122 139.98C364.899 139.879 363.584 139.275 363.183 138.028C363.124 137.843 362.922 137.717 362.732 137.717C362.599 137.717 362.472 137.78 362.406 137.926C361.502 139.945 360.848 142.055 360.457 144.217C360.116 144.369 359.81 144.594 359.508 144.821C359.299 143.403 359.186 141.971 359.159 140.539C359.116 138.095 359.561 135.5 358.436 133.224C358.37 133.091 358.212 133.013 358.06 133.013C357.986 133.013 357.913 133.031 357.854 133.071C355.971 134.334 355.962 136.654 355.359 138.615C355.075 139.541 354.596 140.598 353.696 141.072C353.373 141.241 353.036 141.302 352.692 141.302C352.26 141.302 351.815 141.207 351.372 141.112C350.929 141.017 350.487 140.922 350.059 140.922C350.021 140.922 349.983 140.922 349.946 140.924C349.407 140.947 349.397 141.775 349.924 141.775C349.931 141.775 349.938 141.775 349.946 141.774C349.991 141.772 350.036 141.772 350.082 141.772C350.542 141.772 350.994 141.863 351.445 141.955C351.897 142.047 352.346 142.138 352.799 142.138C353.104 142.138 353.411 142.097 353.72 141.985C354.681 141.637 355.348 140.802 355.771 139.901C356.234 138.915 356.404 137.865 356.65 136.814C356.876 135.847 357.178 134.813 357.902 134.114C358.314 135.196 358.368 136.369 358.354 137.524C358.336 138.947 358.278 140.363 358.355 141.787C358.421 142.989 358.549 144.187 358.738 145.376C357.93 145.926 357.075 146.407 356.168 146.771C354.554 147.42 352.81 147.688 351.184 148.304C350.629 148.513 350.165 148.577 349.616 148.818C349.387 148.876 349.038 149.072 348.824 149.176C346.187 150.459 344.634 153.148 343.792 153.989C342.403 155.376 341.78 155.913 341.191 156.672L340.192 155.32C340.005 155.066 339.714 154.928 339.416 154.928C339.278 154.928 339.139 154.958 339.008 155.02V118.377H422.803V232.645Z" fill="#DFE9EB"/>
<path d="M349.946 141.774C350.452 141.754 350.949 141.854 351.445 141.955C352.201 142.109 352.952 142.263 353.72 141.985C354.681 141.638 355.348 140.802 355.771 139.902C356.234 138.915 356.404 137.866 356.65 136.815C356.912 135.692 357.276 134.482 358.283 133.806C358.089 133.755 357.896 133.704 357.701 133.654C358.297 134.858 358.37 136.203 358.354 137.524C358.336 138.947 358.278 140.363 358.355 141.788C358.433 143.211 358.599 144.631 358.849 146.035C359.02 147.002 359.277 148.115 360.25 148.578C360.541 148.717 360.879 148.552 360.89 148.211C360.991 144.813 361.75 141.459 363.142 138.356C362.882 138.322 362.623 138.288 362.364 138.254C362.762 139.494 363.851 140.341 365.09 140.665C365.869 140.869 366.689 140.88 367.489 140.816C368.151 140.763 369.014 140.758 369.625 140.473C370.211 140.198 370.37 139.64 370.504 139.052C370.664 138.346 370.775 137.631 370.904 136.919C371.162 135.505 371.483 134.044 372.446 132.928C372.204 132.828 371.962 132.728 371.72 132.628C372.05 135.744 372.382 138.86 372.713 141.976C372.742 142.257 372.96 142.453 373.252 142.387C373.854 142.249 374.275 141.824 374.629 141.341C374.977 140.865 375.248 140.203 375.753 139.868C376.349 139.47 376.85 140.069 377.195 140.503C377.626 141.044 378.027 141.571 378.708 141.799C378.999 141.897 379.214 141.644 379.246 141.389C379.488 139.495 379.877 137.621 380.408 135.787C380.529 135.368 380.627 134.896 380.811 134.498C380.941 134.214 381.058 134.101 381.235 134.423C381.299 134.538 381.31 134.702 381.333 134.828C381.51 135.813 381.599 136.825 381.694 137.821C381.872 139.717 381.931 141.613 381.965 143.516C381.992 145.151 382.115 146.797 382.892 148.268C383.062 148.591 383.583 148.515 383.669 148.167C384.117 146.352 384.565 144.536 385.013 142.721C385.121 142.284 385.229 141.848 385.337 141.41C385.437 141.003 385.502 140.533 385.707 140.162C386.097 139.456 386.89 139.632 387.541 139.793C388.789 140.103 390.02 140.428 391.126 139.558C392.11 138.785 392.62 137.497 392.862 136.305C393.164 134.815 393.22 132.895 394.532 131.882C394.339 131.832 394.144 131.781 393.95 131.73C394.633 133.228 394.665 134.893 394.74 136.509C394.777 137.283 394.825 138.057 394.939 138.825C395.021 139.371 395.132 139.968 395.724 140.163C396.085 140.281 396.519 140.179 396.885 140.146C397.3 140.108 397.716 140.07 398.132 140.032C398.763 139.974 399.395 139.915 400.009 139.749C401.047 139.468 402.085 138.872 402.299 137.735C402.062 137.797 401.825 137.86 401.589 137.922C403.615 140.057 403.35 143.516 405.819 145.351C406.047 145.521 406.374 145.336 406.444 145.097C406.736 144.105 407.027 143.113 407.319 142.121C407.566 141.282 407.749 140.383 408.108 139.582C408.874 137.876 410.738 138.292 412.19 138.742C412.714 138.906 412.938 138.086 412.416 137.923C410.843 137.433 408.793 137.045 407.683 138.611C407.132 139.388 406.938 140.402 406.674 141.299C406.323 142.49 405.974 143.68 405.624 144.871C405.833 144.786 406.041 144.702 406.249 144.617C405.085 143.752 404.6 142.309 404.131 140.998C403.659 139.681 403.169 138.353 402.19 137.321C401.981 137.101 401.539 137.193 401.479 137.509C401.291 138.501 400.256 138.846 399.377 139.023C398.763 139.148 398.132 139.182 397.508 139.238C397.162 139.27 396.816 139.303 396.469 139.333C396.042 139.371 395.88 139.302 395.803 138.87C395.352 136.332 395.783 133.713 394.685 131.301C394.598 131.109 394.272 131.017 394.103 131.148C392.962 132.027 392.544 133.347 392.286 134.714C392.029 136.074 391.876 137.593 390.87 138.647C389.739 139.83 388.338 138.983 386.984 138.821C386.36 138.746 385.726 138.856 385.271 139.321C384.725 139.88 384.62 140.763 384.441 141.487C383.911 143.639 383.379 145.79 382.848 147.941C383.107 147.907 383.367 147.873 383.626 147.839C382.879 146.423 382.832 144.809 382.811 143.244C382.787 141.467 382.718 139.695 382.554 137.925C382.476 137.091 382.381 136.258 382.269 135.428C382.185 134.813 382.17 134.019 381.674 133.564C381.253 133.178 380.651 133.29 380.3 133.702C379.866 134.21 379.739 135.034 379.56 135.658C379.022 137.536 378.643 139.452 378.396 141.389C378.575 141.253 378.754 141.116 378.934 140.979C378.264 140.755 377.92 139.977 377.454 139.5C376.984 139.019 376.338 138.742 375.672 138.964C375.076 139.163 374.692 139.713 374.361 140.214C374.019 140.733 373.683 141.417 373.025 141.567C373.205 141.703 373.384 141.839 373.563 141.976C373.232 138.86 372.902 135.744 372.571 132.628C372.536 132.298 372.11 132.02 371.845 132.327C370.248 134.174 370.191 136.638 369.665 138.906C369.59 139.229 369.55 139.591 369.204 139.728C368.922 139.839 368.568 139.845 368.272 139.882C367.56 139.971 366.839 140.039 366.122 139.98C364.899 139.879 363.584 139.275 363.183 138.028C363.082 137.714 362.566 137.571 362.406 137.926C360.953 141.173 360.145 144.655 360.039 148.211C360.252 148.088 360.466 147.966 360.679 147.844C359.696 147.376 359.655 145.812 359.517 144.884C359.302 143.446 359.187 141.993 359.159 140.539C359.116 138.095 359.561 135.5 358.436 133.224C358.338 133.028 358.035 132.95 357.854 133.072C355.971 134.334 355.962 136.654 355.359 138.616C355.075 139.541 354.596 140.598 353.696 141.072C352.969 141.454 352.169 141.283 351.372 141.112C350.89 141.008 350.408 140.905 349.946 140.924C349.4 140.947 349.396 141.797 349.946 141.774Z" fill="#A3CEE0"/>
<path d="M408.126 153.772H352.639C352.276 153.772 351.984 153.478 351.984 153.117C351.984 152.754 352.276 152.46 352.639 152.46H408.126C408.488 152.46 408.782 152.754 408.782 153.117C408.782 153.478 408.488 153.772 408.126 153.772Z" fill="#A3CEE0"/>
<path d="M408.126 157.368H352.639C352.276 157.368 351.984 157.074 351.984 156.712C351.984 156.349 352.276 156.056 352.639 156.056H408.126C408.488 156.056 408.782 156.349 408.782 156.712C408.782 157.074 408.488 157.368 408.126 157.368Z" fill="#A3CEE0"/>
<path d="M408.126 160.964H352.639C352.277 160.964 351.984 160.671 351.984 160.307C351.984 159.945 352.277 159.652 352.639 159.652H408.126C408.488 159.652 408.782 159.945 408.782 160.307C408.782 160.671 408.488 160.964 408.126 160.964Z" fill="#A3CEE0"/>
<path d="M408.126 164.56H352.639C352.277 164.56 351.984 164.266 351.984 163.904C351.984 163.542 352.277 163.248 352.639 163.248H408.126C408.488 163.248 408.782 163.542 408.782 163.904C408.782 164.266 408.488 164.56 408.126 164.56Z" fill="#A3CEE0"/>
<path d="M408.126 198.475H352.639C352.277 198.475 351.984 198.18 351.984 197.819C351.984 197.456 352.277 197.163 352.639 197.163H408.126C408.488 197.163 408.782 197.456 408.782 197.819C408.782 198.18 408.488 198.475 408.126 198.475Z" fill="#A3CEE0"/>
<path d="M408.126 202.07H352.639C352.277 202.07 351.984 201.777 351.984 201.414C351.984 201.053 352.277 200.759 352.639 200.759H408.126C408.488 200.759 408.782 201.053 408.782 201.414C408.782 201.777 408.488 202.07 408.126 202.07Z" fill="#A3CEE0"/>
<path d="M408.126 205.667H352.639C352.277 205.667 351.984 205.372 351.984 205.011C351.984 204.648 352.277 204.355 352.639 204.355H408.126C408.488 204.355 408.782 204.648 408.782 205.011C408.782 205.372 408.488 205.667 408.126 205.667Z" fill="#A3CEE0"/>
<path d="M408.126 209.262H352.639C352.277 209.262 351.984 208.968 351.984 208.606C351.984 208.244 352.277 207.95 352.639 207.95H408.126C408.488 207.95 408.782 208.244 408.782 208.606C408.782 208.968 408.488 209.262 408.126 209.262Z" fill="#A3CEE0"/>
<path d="M376.966 180.03C376.966 185.719 372.354 190.331 366.663 190.331C360.973 190.331 356.36 185.719 356.36 180.03C356.36 174.341 360.973 169.73 366.663 169.73C372.354 169.73 376.966 174.341 376.966 180.03Z" fill="#799FF9"/>
<path d="M366.511 180.18C366.411 179.035 366.366 177.901 366.507 176.751C366.519 176.661 366.542 176.574 366.554 176.483C367.693 177.431 368.831 178.378 369.969 179.324C370.045 179.388 370.12 179.451 370.196 179.513C369.22 179.827 368.212 180.035 367.191 180.129C366.965 180.151 366.738 180.164 366.511 180.18ZM366.158 181.047C366.203 181.696 366.214 182.349 366.184 183C366.175 183.207 366.144 183.414 366.127 183.621C365.183 182.825 364.24 182.029 363.296 181.233L363.145 181.105C364.128 180.854 365.118 180.727 366.121 180.641C366.134 180.777 366.148 180.911 366.158 181.047ZM364.765 188.372C364.67 188.544 364.568 188.72 364.46 188.894C362.582 187.342 360.704 185.788 358.826 184.236C358.605 184.052 358.384 183.869 358.162 183.686L358.359 183.509C358.804 183.122 359.291 182.795 359.795 182.493C361.432 183.891 363.069 185.288 364.706 186.685C364.908 186.857 365.109 187.029 365.311 187.202C365.151 187.601 364.974 187.994 364.765 188.372ZM362.656 181.248C363.674 182.106 364.692 182.965 365.711 183.825C365.833 183.928 365.956 184.031 366.078 184.135C365.967 185.034 365.763 185.919 365.462 186.773C363.864 185.408 362.266 184.044 360.667 182.68C360.507 182.543 360.345 182.405 360.185 182.269C360.969 181.839 361.8 181.501 362.656 181.248ZM370.69 179.351L370.67 179.357C369.5 178.383 368.329 177.41 367.159 176.436C366.99 176.295 366.82 176.153 366.65 176.012L366.64 176.006C366.8 175.139 367.053 174.292 367.396 173.479C369.043 174.931 370.688 176.383 372.336 177.835C372.509 177.989 372.683 178.142 372.857 178.295C372.171 178.716 371.446 179.074 370.69 179.351ZM368.361 171.622C368.414 171.541 368.472 171.461 368.528 171.38C370.422 172.967 372.316 174.554 374.211 176.141C374.438 176.332 374.665 176.521 374.891 176.712C374.38 177.212 373.819 177.657 373.225 178.054C371.531 176.56 369.837 175.066 368.143 173.573C367.952 173.404 367.762 173.236 367.571 173.068C367.804 172.57 368.059 172.083 368.361 171.622ZM376.274 175.022C375.99 175.53 375.598 175.99 375.194 176.412C373.311 174.835 371.428 173.258 369.545 171.68C369.287 171.464 369.029 171.248 368.773 171.032C369.136 170.538 369.545 170.065 370.018 169.689C370.232 169.519 369.929 169.22 369.717 169.388C369.177 169.818 368.724 170.385 368.319 170.938C367.873 171.548 367.499 172.208 367.18 172.895C367.085 172.938 367.021 173.043 367.055 173.143C366.715 173.919 366.455 174.731 366.279 175.557C366.037 176.695 365.946 177.864 365.991 179.026C366.006 179.423 366.043 179.818 366.083 180.213C365.753 180.235 365.422 180.26 365.092 180.302C364.492 180.378 363.896 180.481 363.308 180.621C363.097 180.672 362.893 180.742 362.686 180.801L362.601 180.824C361.597 181.118 360.625 181.515 359.721 182.04L359.704 182.049C359.243 182.319 358.794 182.61 358.376 182.944C357.75 183.444 357.1 184.042 356.689 184.741C356.549 184.979 356.916 185.192 357.055 184.956C357.261 184.606 357.546 184.284 357.853 183.979C359.742 185.542 361.629 187.103 363.518 188.665C363.754 188.86 363.988 189.054 364.224 189.249C363.958 189.634 363.66 189.999 363.311 190.29C363.1 190.465 363.403 190.765 363.611 190.59C364.109 190.175 364.51 189.603 364.852 189.06C365.208 188.495 365.487 187.89 365.729 187.269L365.787 187.125C366.128 186.209 366.369 185.254 366.496 184.286L366.513 184.126L366.524 184.006C366.651 182.877 366.652 181.738 366.546 180.607C366.648 180.6 366.749 180.59 366.85 180.583C368.058 180.497 369.261 180.278 370.411 179.898C371.422 179.563 372.383 179.092 373.278 178.519L373.378 178.452C373.947 178.081 374.495 177.677 374.995 177.211C375.609 176.638 376.228 175.978 376.64 175.237C376.774 174.998 376.407 174.783 376.274 175.022Z" fill="white"/>
<path d="M405.743 180.03C405.743 185.719 401.13 190.331 395.441 190.331C389.75 190.331 385.136 185.719 385.136 180.03C385.136 174.341 389.75 169.73 395.441 169.73C401.13 169.73 405.743 174.341 405.743 180.03Z" fill="#799FF9"/>
<path d="M401.363 179.077C400.691 179.077 400.019 179.077 399.346 179.077C398.685 177.044 398.023 175.011 397.362 172.979C397.268 172.688 396.829 172.661 396.747 172.979C395.883 176.346 395.013 179.71 394.098 183.065C393.948 183.615 393.798 184.164 393.648 184.713C392.944 182.9 392.24 181.086 391.536 179.273C391.485 179.14 391.379 179.038 391.228 179.038C390.367 179.038 389.505 179.038 388.644 179.038C388.232 179.038 388.232 179.676 388.644 179.676C389.433 179.676 390.222 179.676 391.012 179.676C391.805 181.722 392.6 183.767 393.394 185.813C393.502 186.092 393.92 186.14 394.009 185.813C394.921 182.475 395.827 179.137 396.686 175.784C396.821 175.257 396.955 174.732 397.09 174.205C397.663 175.964 398.235 177.722 398.808 179.481C398.852 179.615 398.97 179.715 399.115 179.715C399.864 179.715 400.614 179.715 401.363 179.715C401.774 179.715 401.774 179.077 401.363 179.077Z" fill="white"/>
<path d="M345.362 100.555C346.154 103.092 346.419 105.792 346.052 108.539C344.557 119.696 333.212 127.383 320.712 125.708C314.861 124.925 309.799 122.225 306.218 118.433L297.069 119.387L293.754 122.819L307.416 121.394C310.998 125.185 316.059 127.886 321.911 128.669C334.41 130.344 345.756 122.657 347.251 111.5C347.766 107.653 347.042 103.896 345.362 100.555Z" fill="#4F7CC3"/>
<path d="M320.712 125.708C333.212 127.383 344.557 119.696 346.052 108.539C346.419 105.792 346.154 103.092 345.362 100.556C342.167 94.2083 335.514 89.3653 327.325 88.2685C314.825 86.5942 303.479 94.2808 301.984 105.438C301.61 108.227 301.895 110.969 302.717 113.54L297.069 119.387L306.218 118.434C309.799 122.225 314.861 124.925 320.712 125.708Z" fill="#A1BFFB"/>
<path d="M338.892 104.807H310.274C310.029 104.807 309.831 104.607 309.831 104.362V104.132C309.831 103.887 310.029 103.689 310.274 103.689H338.892C339.137 103.689 339.335 103.887 339.335 104.132V104.362C339.335 104.607 339.137 104.807 338.892 104.807Z" fill="white"/>
<path d="M338.892 107.87H310.274C310.029 107.87 309.831 107.67 309.831 107.425V107.195C309.831 106.951 310.029 106.752 310.274 106.752H338.892C339.137 106.752 339.335 106.951 339.335 107.195V107.425C339.335 107.67 339.137 107.87 338.892 107.87Z" fill="white"/>
<path d="M338.892 110.933H310.274C310.029 110.933 309.831 110.734 309.831 110.489V110.259C309.831 110.014 310.029 109.816 310.274 109.816H338.892C339.137 109.816 339.335 110.014 339.335 110.259V110.489C339.335 110.734 339.137 110.933 338.892 110.933Z" fill="white"/>
<path d="M338.892 113.996H310.274C310.029 113.996 309.831 113.797 309.831 113.552V113.322C309.831 113.077 310.029 112.879 310.274 112.879H338.892C339.137 112.879 339.335 113.077 339.335 113.322V113.552C339.335 113.797 339.137 113.996 338.892 113.996Z" fill="white"/>
<mask id="mask9_863_9754" style="mask-type:luminance" maskUnits="userSpaceOnUse" x="241" y="78" width="49" height="24">
<path d="M289.931 101.708H274.681C274.469 100.575 274.165 99.4844 273.768 98.4627C271.391 92.3628 263.997 87.3097 257.442 87.3097C256.805 87.3097 256.175 87.3573 255.559 87.4564C255.412 87.2322 255.232 87.0331 255.01 86.8772C254.546 86.5522 253.962 86.4638 253.4 86.3938C251.517 86.1571 249.603 86.0263 247.69 86.0263C245.448 86.0263 243.208 86.2055 241.022 86.6038C241.819 85.6462 242.837 84.8278 243.765 84.2911C245.061 83.5427 246.973 83.2018 248.823 83.2018C249.04 83.2018 249.255 83.2068 249.468 83.216C250.082 82.3275 250.832 81.5349 251.703 80.894C253.42 79.6306 255.555 78.9722 257.685 78.9722C258.954 78.9722 260.221 79.2055 261.397 79.6839C264.225 80.8324 266.604 83.2868 269.651 83.4543C269.763 83.4602 269.875 83.4635 269.987 83.4635C271.995 83.4635 273.915 82.51 275.926 82.3009C276.178 82.2742 276.431 82.2617 276.683 82.2617C280.129 82.2617 283.496 84.6511 284.536 87.9548C285.629 91.4244 284.399 95.549 286.384 98.5977C287.246 99.9211 288.588 100.819 289.931 101.708Z" fill="white"/>
</mask>
<g mask="url(#mask9_863_9754)">
<mask id="mask10_863_9754" style="mask-type:luminance" maskUnits="userSpaceOnUse" x="241" y="78" width="49" height="24">
<path d="M241.022 101.708H289.931V78.9717H241.022V101.708Z" fill="white"/>
</mask>
<g mask="url(#mask10_863_9754)">
<path d="M274.637 101.725V101.475H274.554V101.141H274.471V100.808H274.387V100.474H274.304V100.141H274.221V99.8911H274.137V99.5577H274.054V99.3077H273.97V99.0576H273.887V98.8076H273.804V98.5576H273.72V98.3909H273.637V98.1409H273.554V97.9742H273.47V97.8075H273.387V97.6408H273.304V97.4741H273.22V97.3075H273.137V97.1408H273.054V96.9741H272.97V96.8074H272.887V96.7241H272.803V96.5574H272.72V96.3907H272.637V96.224H272.553V96.1407H272.47V95.974H272.387V95.8906H272.303V95.7239H272.22V95.6406H272.137V95.4739H272.053V95.3906H271.97V95.2239H271.886V95.1405H271.803V95.0572H271.72V94.8905H271.636V94.8072H271.553V94.7238H271.47V94.6405H271.386V94.4738H271.303V94.3905H271.22V94.3071H271.136V94.2238H271.053V94.0571H270.969V93.9738H270.886V93.8904H270.803V93.8071H270.719V93.7237H270.636V93.6404H270.553V93.557H270.469V93.4737H270.386V93.3904H270.303V93.307H270.219V93.2237H270.136V93.1403H270.053V93.057H269.969V92.9736H269.886V92.8903H269.802V92.807H269.719V92.7236H269.636V92.6403H269.552V92.5569H269.469V92.4736H269.386V92.3902H269.302V92.3069H269.219V92.2236H269.136V92.1402H268.969V92.0569H268.885V91.9735H268.802V91.8902H268.719V91.8068H268.635V91.7235H268.552V91.6402H268.385V91.5568H268.302V91.4735H268.219V91.3901H268.135V91.3068H267.968V91.2234H267.885V91.1401H267.718V91.0568H267.635V90.9734H267.552V90.8901H267.385V90.8067H267.302V90.7234H267.218V90.64H267.052V90.5567H266.968V90.4734H266.801V90.39H266.635V90.3067H266.551V90.2233H266.385V90.14H266.301V90.0567H266.135V89.9733H266.051V89.89H265.884V89.8066H265.718V89.7233H265.551V89.6399H265.384V89.5566H265.301V89.4733H265.134V89.3899H264.967V89.3066H264.801V89.2232H264.634V89.1399H264.467V89.0565H264.301V88.9732H264.051V88.8899H263.884V88.8065H263.717V88.7232H263.55V88.6398H263.3V88.5565H263.134V88.4731H262.883V88.3898H262.633V88.3065H262.467V88.2231H262.217V88.1398H261.966V88.0564H261.633V87.9731H261.383V87.8897H261.133V87.8064H260.716V87.7231H260.383V87.6397H259.966V87.5564H259.382V87.473H258.799V87.3897H256.215V87.473H255.464V87.3897H255.381V87.3063H255.298V87.1397H255.214V87.0563H255.048V86.973H254.964V86.8896H254.881V86.8063H254.631V86.7229H254.464V86.6396H254.214V86.5563H253.797V86.4729H253.297V86.3896H252.547V86.3062H251.63V86.2229H250.713V86.1395H249.046V86.0562H246.378V86.1395H244.877V86.2229H243.877V86.3062H243.21V86.3896H242.543V86.4729H241.876V86.5563H241.293V86.6396H240.96V86.5563H241.043V86.4729H241.126V86.3062H241.21V86.2229H241.293V86.1395H241.376V86.0562H241.46V85.9729H241.543V85.8895H241.626V85.8062H241.71V85.7228H241.793V85.6395H241.876V85.5562H242.043V85.4728H242.127V85.3895H242.21V85.3061H242.293V85.2228H242.377V85.1394H242.46V85.0561H242.627V84.9728H242.71V84.8894H242.793V84.8061H242.96V84.7227H243.044V84.6394H243.21V84.556H243.294V84.4727H243.46V84.3894H243.544V84.306H243.71V84.2227H243.877V84.1393H243.961V84.056H244.211V83.9726H244.377V83.8893H244.627V83.806H244.794V83.7226H245.128V83.6393H245.378V83.5559H245.711V83.4726H246.045V83.3892H246.545V83.3059H247.128V83.2226H248.129V83.1392H249.462V83.0559H249.546V82.9725H249.629V82.8058H249.712V82.7225H249.796V82.6392H249.879V82.5558H249.962V82.4725H250.046V82.3891H250.129V82.2224H250.213V82.1391H250.296V82.0558H250.379V81.9724H250.463V81.8891H250.546V81.8057H250.629V81.7224H250.713V81.6391H250.796V81.5557H250.879V81.4724H250.963V81.389H251.046V81.3057H251.13V81.2223H251.296V81.139H251.38V81.0557H251.463V80.9723H251.546V80.889H251.63V80.8056H251.796V80.7223H251.88V80.6389H252.047V80.5556H252.13V80.4723H252.297V80.3889H252.463V80.3056H252.63V80.2222H252.713V80.1389H252.88V80.0555H253.047V79.9722H253.214V79.8889H253.464V79.8055H253.63V79.7222H253.88V79.6388H254.047V79.5555H254.297V79.4721H254.464V79.3888H254.797V79.3055H255.131V79.2221H255.548V79.1388H255.881V79.0554H256.465V78.9721H257.215V78.8887H258.215V78.9721H258.882V79.0554H259.549V79.1388H259.882V79.2221H260.216V79.3055H260.466V79.3888H260.799V79.4721H261.133V79.5555H261.3V79.6388H261.55V79.7222H261.716V79.8055H261.883V79.8889H262.05V79.9722H262.217V80.0555H262.383V80.1389H262.55V80.2222H262.717V80.3056H262.883V80.3889H263.05V80.4723H263.134V80.5556H263.3V80.6389H263.467V80.7223H263.634V80.8056H263.717V80.889H263.884V80.9723H264.051V81.0557H264.134V81.139H264.301V81.2223H264.467V81.3057H264.551V81.389H264.717V81.4724H264.884V81.5557H264.967V81.6391H265.134V81.7224H265.301V81.8057H265.384V81.8891H265.551V81.9724H265.718V82.0558H265.884V82.1391H265.968V82.2224H266.135V82.3058H266.301V82.3891H266.468V82.4725H266.635V82.5558H266.801V82.6392H266.968V82.7225H267.218V82.8058H267.385V82.8892H267.552V82.9725H267.802V83.0559H268.135V83.1392H268.385V83.2226H268.635V83.3059H269.136V83.3892H270.886V83.3059H271.47V83.2226H271.803V83.1392H272.137V83.0559H272.553V82.9725H272.887V82.8892H273.22V82.8058H273.47V82.7225H273.804V82.6392H274.137V82.5558H274.471V82.4725H274.887V82.3891H275.304V82.3058H275.804V82.2224H277.472V82.3058H278.055V82.3891H278.389V82.4725H278.722V82.5558H279.056V82.6392H279.306V82.7225H279.556V82.8058H279.722V82.8892H279.972V82.9725H280.139V83.0559H280.306V83.1392H280.473V83.2226H280.639V83.3059H280.806V83.3892H280.889V83.4726H281.056V83.5559H281.14V83.6393H281.306V83.7226H281.473V83.806H281.556V83.8893H281.64V83.9726H281.806V84.056H281.89V84.1393H281.973V84.2227H282.057V84.306H282.14V84.3894H282.307V84.4727H282.39V84.556H282.473V84.6394H282.557V84.7227H282.64V84.8061H282.723V84.8894H282.807V84.9728H282.89V85.1394H282.973V85.2228H283.057V85.3061H283.14V85.3895H283.224V85.4728H283.307V85.5562H283.39V85.7228H283.474V85.8062H283.557V85.9729H283.64V86.0562H283.724V86.2229H283.807V86.3896H283.89V86.4729H283.974V86.6396H284.057V86.7229H284.141V86.973H284.224V87.1397H284.307V87.3063H284.391V87.473H284.474V87.7231H284.557V87.9731H284.641V88.2231H284.724V88.6398H284.807V89.0565H284.891V89.6399H284.974V90.3067H285.057V91.6402H285.141V93.6404H285.224V94.8072H285.308V95.3906H285.391V95.974H285.474V96.3073H285.558V96.6407H285.641V96.8907H285.724V97.1408H285.808V97.3908H285.891V97.6408H285.974V97.8075H286.058V97.9742H286.141V98.1409H286.225V98.3076H286.308V98.4742H286.391V98.5576H286.475V98.7243H286.558V98.8076H286.641V98.891H286.725V98.9743H286.808V99.141H286.891V99.2243H286.975V99.3077H287.058V99.391H287.142V99.4744H287.225V99.5577H287.308V99.641H287.392V99.7244H287.475V99.8077H287.558V99.8911H287.642V99.9744H287.725V100.058H287.808V100.141H287.892V100.224H287.975V100.308H288.142V100.391H288.225V100.474H288.309V100.558H288.475V100.641H288.559V100.724H288.642V100.808H288.809V100.891H288.892V100.975H288.975V101.058H289.142V101.141H289.226V101.225H289.392V101.308H289.476V101.391H289.642V101.475H289.726V101.558H289.892V101.641H289.976V101.725" fill="url(#paint8_linear_863_9754)"/>
</g>
</g>
<path d="M245.335 101.708H237.598C238.433 100.925 239.281 100.161 240.138 99.4102C241.939 99.2911 243.729 99.0502 245.495 98.6902C245.387 99.6861 245.333 100.695 245.335 101.708ZM236.358 101.708H236.162C236.22 101.249 236.338 100.796 236.475 100.341C236.565 100.041 236.659 99.7411 236.755 99.4419C237.326 98.7235 237.817 97.9576 238.169 97.1167C238.554 96.1991 238.762 95.1031 238.919 93.9622C239.204 93.3513 239.501 92.7462 239.811 92.1461C239.981 91.8169 239.69 91.5285 239.407 91.5285C239.34 91.5285 239.273 91.5452 239.213 91.5811C239.355 90.4901 239.532 89.4416 239.856 88.549C240.103 87.869 240.518 87.2089 241.022 86.6038C243.208 86.2055 245.448 86.0263 247.69 86.0263C249.603 86.0263 251.517 86.1571 253.4 86.3938C253.962 86.4638 254.546 86.5522 255.01 86.8772C255.232 87.0331 255.412 87.2322 255.559 87.4564C252.498 87.949 249.767 89.7108 248.023 93.1937L250.919 86.2921C247.964 89.3633 246.237 93.4313 245.608 97.7959C244.169 98.0959 242.713 98.3151 241.248 98.456C242.748 97.1717 244.271 95.914 245.8 94.6656C246.142 94.3872 245.909 93.8538 245.583 93.8538C245.508 93.8538 245.43 93.8813 245.352 93.9446C242.299 96.4382 239.219 98.9685 236.358 101.708ZM235.299 101.708H234.625C234.902 101.445 235.174 101.18 235.44 100.91C235.378 101.174 235.328 101.44 235.299 101.708Z" fill="#2A5E96"/>
<path d="M237.598 101.708H236.358C239.219 98.9685 242.299 96.4382 245.352 93.9446C245.43 93.8813 245.508 93.8538 245.583 93.8538C245.908 93.8538 246.142 94.3872 245.8 94.6656C244.271 95.914 242.748 97.1717 241.248 98.456C242.713 98.3151 244.169 98.0959 245.608 97.7959C245.565 98.0918 245.528 98.391 245.495 98.6902C243.729 99.0502 241.939 99.2911 240.138 99.4102C239.281 100.161 238.433 100.925 237.598 101.708ZM236.162 101.708H235.299C235.328 101.44 235.378 101.174 235.44 100.91C235.906 100.437 236.351 99.9512 236.755 99.4419C236.659 99.7411 236.565 100.041 236.475 100.341C236.338 100.796 236.22 101.249 236.162 101.708ZM238.919 93.9622C239.026 93.1762 239.11 92.367 239.213 91.5811C239.273 91.5452 239.34 91.5285 239.407 91.5285C239.69 91.5285 239.981 91.8169 239.811 92.1461C239.501 92.7462 239.204 93.3513 238.919 93.9622Z" fill="#2A5E96"/>
<path d="M293.041 113.434H273.911C275.105 109.618 275.382 105.429 274.681 101.708H289.931C291.429 102.7 292.929 103.681 293.769 105.229L293.804 105.298C294.916 107.422 294.479 110.051 293.567 112.275C293.406 112.668 293.23 113.054 293.041 113.434ZM247.81 113.434H227.432C227.471 112.185 227.709 110.946 228.163 109.77C229.135 107.255 231.003 105.142 232.998 103.239C233.533 102.729 234.085 102.224 234.625 101.708H235.299H236.162H236.358H237.598H245.335C245.341 105.716 246.196 109.792 247.81 113.434Z" fill="#2A5E96"/>
<path d="M272.065 234.451C268.052 234.451 264.349 234.099 262.291 233.043L262.266 233.025C261.617 233.039 260.967 233.045 260.317 233.045C258.738 233.045 257.16 233.005 255.583 232.923L255.505 232.979C254.02 233.742 250.5 233.995 246.475 233.995C241.641 233.995 236.082 233.63 232.456 233.343L220.997 233.066L220.916 232.645H289.162C289.186 232.787 289.21 232.928 289.235 233.066C289.235 233.066 280.035 234.451 272.065 234.451ZM328.732 177.626V160.74L338.949 155.05C338.968 155.04 338.988 155.029 339.008 155.02V170.365L328.732 177.626ZM289.408 118.377H271.69C272.62 116.863 273.363 115.187 273.911 113.434H293.041C292.123 115.272 290.882 116.942 289.408 118.377ZM250.688 118.377H228.319C227.688 116.801 227.38 115.11 227.432 113.434H247.81C248.594 115.203 249.556 116.871 250.688 118.377Z" fill="#1C456C"/>
<path d="M289.162 232.645H220.916L215.413 203.809C214.268 197.694 214.526 191.395 216.197 185.402C224.237 156.561 229.275 143.246 229.275 143.246C233.105 139.932 241.262 137.007 246.199 135.444C248.81 131.704 252.072 131.286 252.262 131.265L252.308 131.672C252.397 130.95 252.453 130.223 252.491 129.496C252.471 129.235 252.455 128.832 252.351 126.247C252.279 124.461 251.959 123.155 251.451 121.975C251.044 121.585 250.644 121.189 250.263 120.773C250.224 121.075 250.172 121.375 250.097 121.672C249.564 123.809 248.069 125.746 246.003 126.759C244.781 127.358 243.431 127.614 242.058 127.614C240.382 127.614 238.671 127.233 237.116 126.627C235.458 125.982 233.903 125.083 232.545 123.977C231.115 122.815 229.904 121.423 229.023 119.849C228.756 119.373 228.521 118.881 228.319 118.377H250.688C253.253 121.791 256.684 124.38 260.856 125.464C263.048 125.303 265.001 124.623 266.703 123.558C266.197 125.965 266.104 128.481 266.306 130.986L266.302 130.75C266.307 130.75 266.314 130.75 266.323 130.75C266.696 130.75 270.892 130.871 273.424 136.372C277.668 138.013 283.194 140.485 286.386 143.246C286.386 143.246 301.249 158.403 310.903 168.367C311.495 168.873 312.07 169.265 312.48 169.317L312.522 169.32C312.547 169.322 312.574 169.323 312.601 169.323C313.944 169.323 317.29 166.871 319.05 166.132L328.732 160.74V177.626L311.611 189.723C311.047 190.121 310.388 190.32 309.729 190.32C309.066 190.32 308.403 190.119 307.837 189.716L286.283 174.379C286.429 194.888 287.067 220.174 289.162 232.645ZM267.548 134.307C267.548 134.307 268.962 134.739 271.057 135.491L271.074 135.497C271.451 135.632 271.849 135.777 272.266 135.933C269.995 131.782 266.756 131.584 266.363 131.584C266.36 131.584 266.359 131.584 266.356 131.584C266.485 132.871 266.686 134.152 266.949 135.41C267.065 135.391 267.18 135.372 267.296 135.358C267.382 134.988 267.466 134.632 267.548 134.307ZM252.246 132.11C251.729 132.197 249.589 132.691 247.59 135.013C247.733 134.969 247.872 134.928 248.006 134.888L250.278 134.122C250.278 134.122 250.294 134.207 250.323 134.368C250.804 134.502 251.287 134.629 251.77 134.75C251.969 133.877 252.124 132.996 252.246 132.11ZM276.967 123.666C275.623 123.666 274.285 123.464 273.045 122.957C271.865 122.474 270.788 121.684 270.017 120.678C270.629 119.967 271.188 119.195 271.69 118.377H289.408C286.584 121.123 282.903 123.001 278.995 123.525C278.325 123.615 277.645 123.666 276.967 123.666Z" fill="#93B2C2"/>
<path d="M339.008 170.365V155.02C339.139 154.958 339.278 154.928 339.416 154.928C339.714 154.928 340.005 155.066 340.192 155.32L341.191 156.672C341.78 155.913 342.403 155.376 343.792 153.989C344.634 153.148 346.187 150.459 348.824 149.176C349.038 149.072 349.387 148.876 349.616 148.818C350.165 148.577 350.629 148.513 351.184 148.304C352.81 147.688 354.554 147.42 356.168 146.771C357.075 146.407 357.93 145.926 358.738 145.376C358.773 145.596 358.809 145.815 358.849 146.035C358.979 146.769 359.159 147.587 359.662 148.141C359.064 148.522 358.463 148.859 358.011 149.146C357.751 149.31 357.522 149.467 357.311 149.618C359.952 149.942 362.613 150.105 365.275 150.105C368.386 150.105 371.498 149.882 374.578 149.433C375.783 149.257 376.985 149.048 378.2 148.975C378.234 148.972 378.268 148.972 378.303 148.972C378.617 148.972 378.976 149.059 379.022 149.355C379.044 149.505 378.968 149.651 378.889 149.782C378.738 150.034 378.56 150.264 378.382 150.493L378.422 150.468L378.365 150.517C377.764 151.284 377.026 151.923 376.203 152.459H352.639C352.276 152.459 351.984 152.754 351.984 153.116C351.984 153.478 352.276 153.772 352.639 153.772H373.577C372.784 154.076 371.967 154.325 371.158 154.536C368.358 155.264 365.476 155.681 362.583 155.777C360.122 155.86 357.568 155.73 355.145 156.056H352.639C352.276 156.056 351.984 156.349 351.984 156.712C351.984 156.751 351.987 156.789 351.994 156.826C351.592 156.98 351.198 157.157 350.812 157.363C349.961 157.816 349.182 158.39 348.407 158.963C347.215 159.845 346.028 160.735 344.841 161.622L346.475 163.837C346.808 164.289 346.705 164.926 346.247 165.249L339.008 170.365ZM360.082 147.283C359.668 146.601 359.62 145.57 359.517 144.884C359.514 144.863 359.511 144.842 359.508 144.821C359.81 144.594 360.116 144.369 360.457 144.217C360.274 145.229 360.149 146.252 360.082 147.283ZM360.938 147.221C361.01 146.149 361.148 145.083 361.351 144.031C361.571 144.056 361.763 144.164 361.938 144.394C362.241 144.792 362.132 145.411 361.97 145.884C361.805 146.358 361.421 146.805 360.938 147.221Z" fill="#93B2C2"/>
<path d="M359.662 148.141C359.159 147.587 358.979 146.769 358.849 146.035C358.809 145.815 358.773 145.596 358.738 145.376C358.946 145.234 359.151 145.088 359.353 144.937C359.405 144.899 359.456 144.859 359.508 144.821C359.511 144.842 359.514 144.863 359.517 144.884C359.62 145.57 359.668 146.601 360.082 147.283C360.149 146.252 360.274 145.229 360.457 144.217C360.544 144.179 360.632 144.145 360.724 144.118C360.915 144.06 361.086 144.025 361.243 144.025C361.28 144.025 361.316 144.027 361.351 144.031C361.148 145.083 361.01 146.149 360.938 147.221C360.554 147.549 360.109 147.857 359.662 148.141Z" fill="#6D9FBB"/>
<path d="M373.577 153.772H352.639C352.276 153.772 351.984 153.478 351.984 153.117C351.984 152.754 352.276 152.46 352.639 152.46H376.203C375.393 152.988 374.501 153.417 373.577 153.772Z" fill="#6D9FBB"/>
<path d="M351.994 156.826C351.987 156.79 351.984 156.751 351.984 156.712C351.984 156.349 352.276 156.056 352.639 156.056H355.145C354.062 156.202 353.005 156.439 351.994 156.826Z" fill="#6D9FBB"/>
<path d="M381.426 149.117C374.667 148.712 366.86 150.871 359.715 149.38C361.094 148.34 363.731 147.299 364.374 145.645C364.817 144.712 364.315 143.395 363.129 143.879C359.816 146.365 355.927 147.394 352.02 148.58C349.295 149.447 347.01 152.844 346.197 153.75C343.756 156.189 343.68 156 341.994 159.009L344.29 163.587C347.269 161.445 350.085 159.037 353.217 157.125C361.79 153.295 375.583 158.485 381.426 149.117Z" fill="#FACCC4"/>
<path d="M252.998 119.813C256.485 126.015 254.866 133.918 252.29 140.207C251.835 141.021 251.978 142.013 253.024 142.025C259.511 142.753 266.843 145.102 273.002 142.17C266.91 136.151 267.507 124.05 271.622 117.066" fill="#FACCC4"/>
<path d="M270.28 119.213C268.162 125.624 261.632 130.122 254.912 129.471C255.27 125.561 253.744 120.08 250.698 116.466C251.992 116.828 253.288 117.189 254.582 117.55" fill="#EFC8C1"/>
<path d="M250.918 86.2925C240.249 97.3821 245.584 121.495 260.856 125.464C272.775 124.588 277.608 108.362 273.768 98.463C270.012 88.8245 253.729 81.7995 248.023 93.1941L250.918 86.2925Z" fill="#FACCC4"/>
<path d="M264.448 88.1692C270.481 90.3886 267.217 97.9819 271.329 101.355C274.296 102.674 278.046 102.335 280.593 104.635C285.675 111.528 291.813 114.6 296.208 105.059C294.648 102.067 290.623 101.181 288.789 98.3595C285.993 91.8246 289.485 82.0227 278.33 82.0627C272.279 84.2354 269.026 82.6794 263.803 79.4441C258.459 77.178 251.801 80.4158 250.413 86.0848C255.129 84.9822 260.26 85.7331 264.448 88.1692Z" fill="#1A2E4A"/>
<path d="M294.926 107.584C289.658 114.615 284.636 109.737 280.593 104.634C278.044 102.334 279.553 102.385 276.585 101.065C273.403 98.9677 271.577 93.5144 270.085 90.499C266.514 84.9884 256.473 84.7745 250.413 86.0847C249.853 87.8032 249.93 89.8009 250.761 91.4219C253.255 90.2426 257.736 92.512 258.7 95.0956C259.435 97.0667 258.974 99.5545 260.437 101.065C264.372 103.361 270.956 103.845 271.767 109.368C272.311 112.384 270.596 115.539 271.424 118.49C277.916 131.337 300.692 116.987 296.208 105.059C295.875 105.945 295.461 106.794 294.926 107.584Z" fill="#1A2E4A"/>
<path d="M237.165 123.621C257.736 117.694 235.338 100.445 251.606 89.6288L254.712 83.4181C243.683 80.9745 241.886 87.9494 240.575 96.8787C233.931 105.806 223.111 112.725 234.949 123.739C235.688 123.788 236.437 123.746 237.165 123.621Z" fill="#1A2E4A"/>
<path d="M247.586 107.766C247.388 104.319 250.898 101.533 251.131 98.0879C251.102 95.2542 249.786 92.2339 251.606 89.6286C245.647 93.8574 239.639 101.045 242.585 107.766C245.414 115.399 243.13 124.131 234.949 123.739C242.252 130.973 257.157 126.439 251.56 115.046C250.199 112.601 247.744 110.524 247.586 107.766Z" fill="#1A2E4A"/>
<path d="M252.495 134.069C258.555 136.078 264.759 135.941 270.916 135.135C275.004 137.689 283.152 139.372 284.337 144.366C285.733 151.012 285.813 157.853 285.889 164.643C285.171 184.973 288.254 205.43 289.873 225.27C277.029 236.715 255.221 233.042 239.596 229.847C237.533 229.518 236.152 228.047 236.197 225.923C233.659 201.139 234.817 176.142 235.978 151.255C236.441 142.771 246.802 139.086 252.495 134.069Z" fill="#346CAB"/>
<path d="M269.953 134.069C269.953 134.069 283.094 138.08 288.791 143.009C288.791 143.009 287.695 210.265 291.64 232.828C291.64 232.828 270.839 235.96 264.696 232.804C258.553 229.649 265.687 150.76 269.953 134.069Z" fill="#F7F7F7"/>
<path d="M252.652 134.006C252.652 134.006 237.377 138.08 231.68 143.008C231.68 143.008 234.911 210.202 230.966 232.763C230.966 232.763 253.488 235.014 257.909 232.741C264.053 229.586 256.92 150.697 252.652 134.006Z" fill="#F7F7F7"/>
<path d="M263.359 189.419L275.534 157.466L269.446 154.29L276.192 153.414L273.479 135.258L269.953 134.069C269.953 134.069 263.07 171.096 263.359 189.419Z" fill="#E5F3F9"/>
<path d="M259.277 189.233L247.101 157.28L253.189 154.104L246.445 153.227L249.157 135.072L252.682 133.883C252.682 133.883 259.566 170.91 259.277 189.233Z" fill="#E5F3F9"/>
<path d="M236.204 164.476C236.204 164.476 239.417 166.229 239.563 185.362C239.709 204.493 248.757 231.466 239.596 229.846C230.433 228.225 229.119 175.649 236.204 164.476Z" fill="#E5F3F9"/>
<path d="M275.926 160.67L275.119 160.46C276.093 159.2 280.438 131.731 268.721 131.345L268.707 130.512C281.274 130.632 277.134 158.904 275.926 160.67Z" fill="#1E5281"/>
<path d="M278.91 162.96C278.991 168.5 270.287 168.5 270.368 162.96C270.287 157.42 278.991 157.42 278.91 162.96Z" fill="#1E5281"/>
<path d="M276.972 162.96C277.016 165.986 272.261 165.986 272.306 162.96C272.262 159.935 277.016 159.935 276.972 162.96Z" fill="#C4DEEC"/>
<path d="M288.791 143.009C288.791 143.009 303.979 158.496 313.621 168.452C314.291 169.144 315.342 169.298 316.184 168.83L341.354 154.812C341.777 154.577 342.31 154.692 342.597 155.082C342.711 155.909 350.659 164.302 348.652 165.011C303.432 193.994 322.673 197.707 287.329 173.175C287.329 173.175 285.723 152.209 288.791 143.009Z" fill="#F7F7F7"/>
<path d="M310.767 165.509C314.888 170.847 315.735 168.97 321.455 165.893C321.455 165.894 325.877 166.429 324.179 168.858C322.48 171.286 321.018 169.041 318.883 170.464C316.746 171.888 319.23 177.236 314.866 176.708C310.502 176.178 313.844 171.669 312.163 170.72C310.483 169.771 306.429 171.797 307.124 168.858C307.817 165.919 310.767 165.509 310.767 165.509Z" fill="#E5F3F9"/>
<path d="M342.431 157.523C342.455 159.126 339.935 159.126 339.958 157.523C339.936 155.919 342.455 155.919 342.431 157.523Z" fill="#E5F3F9"/>
<path d="M231.68 143.009C231.68 143.009 226.642 156.323 218.602 185.164C216.931 191.157 216.673 197.456 217.817 203.571L223.401 232.828L242.733 233.294L234.805 200.487C232.044 178.6 245.481 170.017 231.68 143.009Z" fill="#F7F7F7"/>
<path d="M238.216 227.267C238.239 228.871 235.719 228.871 235.743 227.267C235.72 225.663 238.24 225.663 238.216 227.267Z" fill="#A3CEE0"/>
<path d="M281.885 220.245C279.231 219.745 268.913 222.727 268.925 217.832L268.352 203.314C268.288 201.701 269.544 200.342 271.157 200.278C273.809 200.777 284.129 197.795 284.115 202.69L284.689 217.209C284.753 218.822 283.497 220.18 281.885 220.245Z" fill="#E5F3F9"/>
<path d="M269.465 204.536L269.43 203.703L282.806 203.141L282.841 203.974L269.465 204.536Z" fill="#C4DEEC"/>
<path d="M251.213 172.68C249.341 170.812 237.958 133.865 254.666 131.027L254.76 131.855C238.929 134.922 250.383 170.955 251.976 172.345L251.213 172.68Z" fill="#1E5281"/>
<path d="M255.013 191.37C238.148 173.258 260.124 162.14 262.071 187.922C262.13 188.459 262.981 188.465 262.921 187.921C262.64 166.929 241.093 166.535 250.221 186.291C250.613 187.103 255.072 194.117 255.013 191.37Z" fill="#69AED7"/>
<path d="M249.285 182.15C249.095 175.297 253.809 171.905 259.165 177.21C262.381 177.301 253.176 171.537 251.2 174.519C249.605 174.736 247.076 184.156 249.285 182.15Z" fill="#69AED7"/>
<path d="M256.284 192.348C256.305 193.825 253.986 193.825 254.008 192.348C253.986 190.872 256.306 190.872 256.284 192.348Z" fill="#1E5281"/>
<path d="M263.634 188.151C263.655 189.628 261.335 189.628 261.358 188.151C261.336 186.675 263.655 186.675 263.634 188.151Z" fill="#1E5281"/>
</g>
<defs>
<linearGradient id="paint0_linear_863_9754" x1="325" y1="0" x2="325" y2="350" gradientUnits="userSpaceOnUse">
<stop stop-color="#DCF3FE"/>
<stop offset="1" stop-color="#DEF4FF"/>
</linearGradient>
<linearGradient id="paint1_linear_863_9754" x1="382.674" y1="332.569" x2="230.311" y2="83.7563" gradientUnits="userSpaceOnUse">
<stop stop-color="#9ECCE3"/>
<stop offset="1" stop-color="#D6E8F3"/>
</linearGradient>
<linearGradient id="paint2_linear_863_9754" x1="382.404" y1="332.847" x2="229.602" y2="83.2058" gradientUnits="userSpaceOnUse">
<stop stop-color="#9ECCE3"/>
<stop offset="1" stop-color="#D6E8F3"/>
</linearGradient>
<linearGradient id="paint3_linear_863_9754" x1="332.123" y1="100.008" x2="83.5165" y2="199.832" gradientUnits="userSpaceOnUse">
<stop stop-color="#ADD4E8"/>
<stop offset="1" stop-color="#F0F5FB"/>
</linearGradient>
<linearGradient id="paint4_linear_863_9754" x1="417.694" y1="70.5514" x2="433.352" y2="79.8981" gradientUnits="userSpaceOnUse">
<stop stop-color="#8BC2DE"/>
<stop offset="1" stop-color="#EBF2FA"/>
</linearGradient>
<linearGradient id="paint5_linear_863_9754" x1="444.588" y1="92.5963" x2="458.917" y2="100.222" gradientUnits="userSpaceOnUse">
<stop stop-color="#4F7CC3"/>
<stop offset="1" stop-color="#A1BFFB"/>
</linearGradient>
<linearGradient id="paint6_linear_863_9754" x1="360.388" y1="85.3995" x2="391.41" y2="83.6737" gradientUnits="userSpaceOnUse">
<stop stop-color="#4F7CC3"/>
<stop offset="1" stop-color="#A1BFFB"/>
</linearGradient>
<linearGradient id="paint7_linear_863_9754" x1="320.736" y1="44.39" x2="305.733" y2="88.5711" gradientUnits="userSpaceOnUse">
<stop stop-color="#4F7CC3"/>
<stop offset="1" stop-color="#A1BFFB"/>
</linearGradient>
<linearGradient id="paint8_linear_863_9754" x1="382.668" y1="332.569" x2="230.308" y2="83.7475" gradientUnits="userSpaceOnUse">
<stop stop-color="#5E96BA"/>
<stop offset="1" stop-color="#99B8CA"/>
</linearGradient>
<clipPath id="clip0_863_9754">
<rect width="401" height="301" fill="white" transform="translate(119 19)"/>
</clipPath>
</defs>
</svg>
