<svg width="650" height="350" viewBox="0 0 650 350" fill="none" xmlns="http://www.w3.org/2000/svg">
<rect width="650" height="350" fill="url(#paint0_linear_863_10211)"/>
<path opacity="0.15" d="M290.587 20H167.413C148.183 20 130.413 30.2593 120.798 46.9132L59.2113 153.587C49.5962 170.241 49.5962 190.759 59.2113 207.413L120.798 314.087C130.413 330.741 148.183 341 167.413 341H290.587C309.817 341 327.586 330.741 337.201 314.087L398.789 207.413C408.404 190.759 408.404 170.241 398.789 153.587L337.202 46.9132C327.586 30.2592 309.817 20 290.587 20Z" fill="url(#paint1_linear_863_10211)"/>
<path d="M454.985 150.57L478.394 164.398C486.335 162.482 494.725 160.129 503.268 157.244L481.931 145.807L510.202 154.792C519.101 151.505 528.03 147.641 536.623 143.115L518.29 134.316L540.947 140.763C551.352 134.926 561.055 128.13 569.339 120.278L542.182 108.979L573.208 116.415C582.031 107.157 588.726 96.7036 592.307 85.0559L577.016 79.7868L592.957 82.8112C594.529 76.9842 595.279 70.9667 595.185 64.9362C595.185 64.9362 582.592 64.2707 564.808 66.0839L559.526 80.5405L557.379 66.9563C548.384 68.1538 538.434 69.9994 528.198 72.8399L529.2 87.8601L523.572 74.1887C518.46 75.7488 513.286 77.5708 508.118 79.7015L508.344 89.5587L505.24 80.922C498.365 83.9009 491.722 87.3982 485.366 91.384L483.608 113.707L480.379 94.6728C473.999 99.0783 467.999 104.02 462.445 109.445L460.289 127.286L458.673 113.271C445.325 127.334 432.847 146.297 422.435 172.639C422.435 172.639 442.836 172.169 470.922 166.106L454.985 150.57Z" fill="url(#paint2_linear_863_10211)"/>
<mask id="mask0_863_10211" style="mask-type:luminance" maskUnits="userSpaceOnUse" x="405" y="100" width="194" height="120">
<path fill-rule="evenodd" clip-rule="evenodd" d="M442.249 195.033L468.42 210.416C477.282 208.31 486.644 205.722 496.177 202.544L472.326 189.815L503.914 199.842C513.843 196.218 523.804 191.956 533.389 186.959L512.898 177.162L538.211 184.362C549.816 177.915 560.634 170.404 569.866 161.719L539.516 149.13L574.176 157.446C584.007 147.204 591.458 135.631 595.43 122.727L578.344 116.85L596.151 120.24C597.892 113.784 598.715 107.115 598.597 100.43C598.597 100.43 584.534 99.6626 564.68 101.631L558.816 117.645L556.387 102.581C546.346 103.887 535.24 105.91 523.818 109.035L524.971 125.688L518.655 110.52C512.951 112.237 507.177 114.245 501.412 116.595L501.687 127.522L498.201 117.941C490.532 121.227 483.122 125.089 476.034 129.492L474.123 154.234L470.473 133.127C463.36 137.995 456.672 143.46 450.483 149.46L448.117 169.234L446.28 153.693C431.408 169.252 417.52 190.244 405.955 219.421C405.955 219.421 428.733 218.948 460.081 212.292L442.249 195.033Z" fill="white"/>
</mask>
<g mask="url(#mask0_863_10211)">
<path d="M593.64 201.587L651.017 111.499C651.017 111.499 491.16 72.7725 388.711 81.5866C286.262 90.4006 370.189 167.994 370.189 167.994L539.642 228.858L587.977 167.912" fill="url(#paint3_linear_863_10211)"/>
<path d="M520.305 79.6479C427.475 81.1919 576.423 149.129 536.381 146.636C496.34 144.142 373.419 109.609 373.419 109.609L364.737 69.5838L492.457 60.3543" fill="url(#paint4_linear_863_10211)"/>
</g>
<path d="M360.496 281.564H316.504V249.302H360.496V281.564Z" fill="#0A54B8"/>
<path d="M453.37 290.835H223.629V280.569H453.37V290.835Z" fill="#0A54B8"/>
<path d="M453.37 290.835H223.629V287.901H453.37V290.835Z" fill="#0A4493"/>
<path d="M160.164 250.701H516.835V51.085H160.164V250.701Z" fill="#0A54B8"/>
<path d="M171.382 230.492H505.619V58.0962H171.382V230.492Z" fill="#DEF4FF"/>
<path d="M371.747 142.125C372.628 141.299 372.55 139.522 372.196 138.562C370.905 135.067 368.431 133.669 362.627 133.669C362.424 133.669 362.223 133.673 362.023 133.679C361.981 130.079 358.128 127 355.416 126.709C347.541 125.861 330.753 125.512 325.543 127.175C322.932 128.008 320.577 130.114 320.577 133.739C320.577 133.811 320.582 133.883 320.584 133.954C319.926 133.848 319.244 133.791 318.543 133.791C313.292 133.791 309.033 136.918 309.033 140.775C309.033 141.303 309.116 141.817 309.267 142.312C309.189 142.31 309.112 142.307 309.033 142.307C308.79 142.307 308.549 142.314 308.309 142.324H307.779C307.365 142.324 306.962 142.384 306.573 142.494C301.107 143.334 297 146.918 297 151.211C297 156.129 301.05 159.999 310.963 160H372.149C377.479 160 381 154.76 381 151.029C381 146.437 376.958 142.655 371.747 142.125Z" fill="white"/>
<path d="M128.632 322.675H186.103V276.912H128.632V322.675Z" fill="#CCDBF0"/>
<path d="M145.602 322.675H128.632V276.912H131.516C136.393 283.036 149.229 283.512 152.242 283.553C152.412 283.556 152.59 283.556 152.772 283.556C159.731 283.556 176.12 281.9 186.103 280.816V284.013C180.504 291.08 172.001 292.945 163.06 294.802C155.868 296.295 145.036 297.986 141.628 305.575C139.058 311.296 142.405 317.74 145.602 322.675Z" fill="#8FB0DE"/>
<path d="M133.869 317.984C128.866 320.579 122.832 318.305 121.114 313.179C119.761 309.146 121.704 304.581 125.64 302.539C130.636 299.948 136.669 302.22 138.389 307.35C139.737 311.38 137.795 315.944 133.869 317.984ZM147.918 304.599L146.407 301.071C146.055 300.253 145.08 299.884 144.226 300.248L143.082 300.737C142.352 301.049 141.513 300.883 140.997 300.326C140.595 299.903 140.176 299.503 139.737 299.133C139.144 298.642 138.957 297.829 139.261 297.117L139.733 295.992C140.092 295.16 139.691 294.216 138.834 293.901L135.163 292.515C134.312 292.191 133.335 292.61 132.982 293.446L132.503 294.569C132.202 295.284 131.469 295.746 130.682 295.725C130.094 295.703 129.493 295.714 128.894 295.763C128.112 295.831 127.386 295.404 127.086 294.706L126.615 293.608C126.263 292.79 125.289 292.422 124.437 292.786L120.755 294.356C119.901 294.722 119.496 295.678 119.844 296.497L120.315 297.594C120.612 298.293 120.419 299.113 119.83 299.634C119.383 300.031 118.962 300.453 118.566 300.894C118.04 301.478 117.202 301.685 116.474 301.41L115.333 300.976C114.478 300.658 113.498 301.074 113.146 301.912L111.614 305.519C111.258 306.352 111.66 307.291 112.511 307.611L113.652 308.043C114.382 308.316 114.843 309.011 114.789 309.782C114.753 310.351 114.747 310.933 114.784 311.511C114.828 312.272 114.365 312.991 113.639 313.301L112.495 313.79C111.641 314.151 111.235 315.114 111.585 315.928L113.097 319.457C113.448 320.277 114.425 320.644 115.278 320.277L116.423 319.791C117.152 319.477 117.99 319.641 118.509 320.202C118.904 320.625 119.327 321.022 119.768 321.393C120.361 321.889 120.547 322.699 120.239 323.411L119.763 324.529C119.41 325.369 119.812 326.305 120.665 326.626L124.336 328.009C125.189 328.331 126.163 327.913 126.522 327.079L126.997 325.957C127.304 325.248 128.031 324.777 128.818 324.805C129.41 324.823 130.005 324.81 130.605 324.764C131.388 324.695 132.117 325.123 132.416 325.823L132.884 326.917C133.239 327.737 134.214 328.105 135.068 327.739L138.748 326.171C139.604 325.807 140.01 324.846 139.655 324.027L139.189 322.934C138.887 322.237 139.077 321.416 139.666 320.896C140.117 320.494 140.539 320.077 140.934 319.635C141.462 319.05 142.303 318.847 143.026 319.119L144.172 319.546C145.02 319.867 145.996 319.451 146.356 318.613L147.888 315.009C148.245 314.173 147.844 313.238 146.989 312.915L145.847 312.484C145.121 312.212 144.665 311.515 144.715 310.745C144.748 310.174 144.755 309.596 144.721 309.017C144.672 308.255 145.134 307.538 145.865 307.227L147.011 306.739C147.862 306.372 148.271 305.419 147.918 304.599Z" fill="#D5E5F6"/>
<path d="M162.056 313.847L161.051 311.498C160.818 310.955 160.168 310.709 159.602 310.952L158.841 311.276C158.355 311.484 157.795 311.375 157.452 311.004C157.185 310.722 156.906 310.456 156.613 310.211C156.221 309.883 156.097 309.343 156.296 308.869L156.613 308.121C156.851 307.566 156.583 306.938 156.015 306.731L153.572 305.808C153.006 305.594 152.356 305.869 152.121 306.428L151.802 307.173C151.602 307.651 151.115 307.957 150.592 307.943C150.2 307.927 149.802 307.936 149.401 307.969C148.882 308.014 148.4 307.73 148.199 307.265L147.886 306.534C147.653 305.993 147.004 305.745 146.437 305.988L143.989 307.032C143.421 307.276 143.15 307.911 143.382 308.456L143.696 309.184C143.893 309.651 143.765 310.197 143.372 310.544C143.075 310.807 142.795 311.087 142.532 311.381C142.182 311.77 141.624 311.906 141.141 311.724L140.381 311.435C139.814 311.224 139.161 311.5 138.927 312.058L137.907 314.459C137.67 315.012 137.938 315.636 138.504 315.849L139.262 316.136C139.749 316.318 140.056 316.781 140.019 317.293C139.996 317.672 139.992 318.06 140.016 318.443C140.046 318.949 139.738 319.428 139.254 319.635L138.496 319.958C137.926 320.2 137.656 320.841 137.889 321.381L138.893 323.729C139.128 324.274 139.777 324.518 140.346 324.274L141.106 323.95C141.592 323.743 142.148 323.852 142.495 324.224C142.757 324.506 143.039 324.769 143.332 325.017C143.726 325.345 143.851 325.886 143.646 326.359L143.329 327.102C143.095 327.662 143.362 328.284 143.929 328.496L146.37 329.417C146.938 329.63 147.585 329.354 147.823 328.799L148.141 328.053C148.346 327.581 148.828 327.266 149.352 327.287C149.746 327.298 150.14 327.289 150.539 327.261C151.061 327.212 151.546 327.498 151.746 327.964L152.058 328.693C152.292 329.238 152.94 329.481 153.51 329.238L155.957 328.194C156.526 327.952 156.795 327.314 156.559 326.769L156.251 326.041C156.048 325.578 156.177 325.031 156.567 324.686C156.867 324.418 157.148 324.141 157.411 323.847C157.761 323.459 158.322 323.324 158.803 323.503L159.564 323.789C160.129 324.002 160.778 323.725 161.018 323.168L162.036 320.769C162.274 320.212 162.006 319.593 161.439 319.377L160.679 319.09C160.195 318.91 159.893 318.448 159.926 317.934C159.948 317.554 159.953 317.17 159.93 316.784C159.897 316.278 160.205 315.801 160.69 315.594L161.454 315.269C162.019 315.025 162.291 314.392 162.056 313.847Z" fill="#8FB0DE"/>
<path d="M161.786 213.858C168.764 219.822 176.044 225.396 183.585 230.546C186.915 224.687 189.762 218.527 192.082 212.152C193.729 212.99 195.373 213.831 197.018 214.669C196.075 221.366 194.099 227.9 191.192 233.94C190.346 235.698 189.349 237.493 187.734 238.494C184.529 240.479 180.489 238.584 177.227 236.696C173.74 234.679 170.251 232.661 166.764 230.644C166.237 230.338 165.695 230.023 165.31 229.535C164.747 228.83 164.592 227.872 164.456 226.962C163.827 222.745 163.198 218.529 161.786 213.858Z" fill="#FACCC4"/>
<path d="M174.801 223.077C175.24 223.523 175.698 224.039 175.713 224.665C175.725 225.095 175.521 225.498 175.321 225.882C174.041 228.343 172.76 230.806 171.48 233.266C171.385 233.449 171.278 233.644 171.088 233.73C170.865 233.832 170.606 233.746 170.377 233.66C166.319 232.136 161.993 230.406 159.605 226.786C158.097 224.508 157.553 221.732 157.264 219.014C157.093 217.419 157.025 215.7 157.851 214.325C158.676 212.949 159.865 212.294 161.186 213.203C161.186 213.203 170.76 218.959 174.801 223.077Z" fill="#CCDBF0"/>
<path d="M191.259 214.348C191.728 212.643 192.313 210.116 191.979 208.725C191.753 207.79 191.575 206.084 191.965 205.255C192.067 205.04 192.349 204.83 192.587 204.984C192.753 205.092 192.755 205.296 192.757 205.466C192.757 206.137 193.379 208.784 193.343 208.165C194.057 207.046 194.763 205.08 195.13 203.81C195.214 203.515 195.293 203.21 195.499 202.975C195.707 202.74 196.194 202.453 196.429 202.715C196.724 203.045 195.761 205.757 195.426 207.279L196.958 203.684C197.082 203.391 197.456 203.035 197.735 203.281C198.11 203.612 197.01 206.465 196.647 208.058C197.179 206.942 197.712 205.826 198.243 204.709C198.456 204.262 199.097 203.534 199.27 204.035C199.585 204.95 198.417 207.18 197.837 208.849C198.246 208.177 198.654 207.504 199.063 206.831C199.197 206.608 199.526 206.37 199.743 206.576C199.858 206.685 199.838 206.842 199.806 206.973C199.143 209.883 198.105 212.054 196.943 215.175C195.333 214.255 192.644 215.652 191.259 214.348Z" fill="#FACCC4"/>
<path d="M226.389 321.693C229.768 325.256 235.212 325.609 239.168 328.463C239.447 328.666 239.73 328.89 239.885 329.208C240.215 329.898 239.794 330.761 239.161 331.147C238.529 331.535 237.756 331.569 237.02 331.591C232.849 331.726 228.675 331.86 224.506 331.992C224.054 332.006 223.588 332.019 223.162 331.855C222.241 331.506 221.77 330.467 221.395 329.525C220.263 326.698 219.132 323.871 218 321.041C220.78 320.922 223.573 321.043 226.389 321.693Z" fill="#19253F"/>
<path d="M232.402 311.235C234.702 314.965 239.518 316.354 242.484 319.591C242.693 319.821 242.9 320.07 242.974 320.374C243.129 321.029 242.572 321.687 241.924 321.892C241.277 322.096 240.574 321.971 239.909 321.845C236.134 321.127 232.357 320.409 228.583 319.691C228.174 319.612 227.754 319.532 227.404 319.306C226.649 318.821 226.441 317.837 226.298 316.955C225.864 314.304 225.431 311.654 225 309C227.521 309.454 230.008 310.115 232.402 311.235Z" fill="#19253F"/>
<path d="M139.601 255.475C139.601 255.475 135.778 266.467 139.601 272.57C143.428 278.671 151.864 279.082 161.614 279.082C171.372 279.082 198.324 276.638 198.324 276.638C198.324 276.638 208.696 289.659 220.827 315.45L234.513 310.808C222.512 280.321 222.657 280.449 220.827 276.164C217.022 267.252 215.877 258.712 193.457 257.93C183.125 257.555 139.601 255.475 139.601 255.475Z" fill="#101D30"/>
<path d="M131.107 255.691C131.107 255.691 128.848 265.544 129.694 272.57C130.928 282.831 148.633 283.503 152.242 283.553C162.002 283.688 194.299 279.897 194.299 279.897C194.299 279.897 204.988 304.973 208.038 312.32C211.491 320.639 210.587 319.222 214.914 327.146L229.986 323.261C229.986 323.261 214.557 279.472 211.05 271.844C207.006 263.037 205.961 258.712 183.55 257.931C173.211 257.555 131.107 255.691 131.107 255.691Z" fill="#1A2E4A"/>
<path d="M224.011 324.801C222.932 319.646 220.608 314.103 219.895 312.044C217.476 305.061 214.844 298.158 212.378 291.191C209.865 284.094 207.534 276.634 202.057 271.194C196.8 265.972 188.88 265.09 181.836 265.09C181.787 265.09 181.736 265.09 181.687 265.09C174.914 265.102 168.042 265.713 161.286 266.237C156.597 266.599 149.236 267.109 146.877 271.989C144.648 276.6 148.328 280.88 152.278 283.552H152.241C148.632 283.503 130.927 282.831 129.693 272.57C129.56 271.465 129.504 270.29 129.503 269.095C129.502 262.689 131.107 255.69 131.107 255.69C131.107 255.69 162.736 257.091 177.898 257.708L161.918 257.361L161.95 258.483L178.575 259.083L178.562 259.122L199.833 259.955C207.002 262.127 208.364 265.998 211.049 271.844C214.556 279.471 229.985 323.261 229.985 323.261L225.345 324.457L224.011 324.801Z" fill="#1A2E4A"/>
<path d="M189.24 228.076L178.562 259.122L206.368 260.212L217.963 229.038L189.24 228.076Z" fill="#E6F0FA"/>
<path d="M161.95 258.483L161.918 257.361L179.623 257.746L179.154 259.104L161.95 258.483Z" fill="#E6F0FA"/>
<path d="M185.38 239.299L188.815 229.312C188.815 229.313 188.815 229.313 188.815 229.313L185.38 239.299Z" fill="#DE4D58"/>
<path d="M206.368 260.212L199.833 259.956L178.562 259.122L178.575 259.083L179.155 259.104L179.624 257.746L179.04 257.734L179.181 257.321L181.458 250.701L185.38 239.299L188.815 229.313C186.997 241.108 191.632 254.766 203.663 258.894C204.626 259.223 205.601 259.461 206.583 259.633L206.368 260.212Z" fill="#CFDEF3"/>
<path d="M179.154 259.104L178.575 259.083L179.039 257.734L179.623 257.746L179.154 259.104Z" fill="#CFDEF3"/>
<path d="M162.948 214.139C161.247 213.054 158.788 211.811 156.468 211.152C153.558 210.325 147.427 209.932 144.409 210.139C142.141 210.296 139.904 211.152 135.677 212.68C131.369 214.234 130.627 215.239 129.037 220.524C127.92 224.207 131.107 255.691 131.107 255.691L164.305 257.66L163.829 231.093L162.948 214.139Z" fill="#CCDBF0"/>
<path d="M155.667 247.846C149.66 247.249 143.791 235.151 143.791 229.994C143.791 218.763 137.223 214.657 139.01 211.483C138.042 211.821 136.951 212.22 135.677 212.68C131.369 214.234 130.627 215.239 129.037 220.524C127.92 224.207 131.107 255.691 131.107 255.691L164.305 257.66L164.106 246.59C161.465 247.631 158.64 248.141 155.667 247.846Z" fill="#8FB0DE"/>
<path d="M135.095 219.09C139.745 221.892 139.03 226.827 140.101 231.766C141.116 236.447 140.752 243.543 142.089 248.115C144.08 254.927 165.166 252.439 171.949 251.927C171.004 253.675 170.612 255.657 170.834 257.585C161.759 259.16 152.477 260.743 143.336 259.584C140.804 259.264 138.248 258.711 136.12 257.447C131.497 254.698 129.938 249.333 129.074 244.413C128.152 239.154 127.615 233.838 127.47 228.51C127.402 226.023 127.477 223.362 129.052 221.308C130.627 219.253 134.091 218.484 135.095 219.09Z" fill="#FACCC4"/>
<path d="M137.349 217.773C138.53 220.332 142.096 233.789 142.22 240.812C136.92 240.609 132.756 241.705 127.473 242.216C126.479 238.04 126.36 233.449 126.363 229.158C126.365 224.957 126.779 219.671 128.347 217.36C129.835 215.166 132.843 214.044 134.211 214.717C134.7 214.957 136.357 215.626 137.349 217.773Z" fill="#CCDBF0"/>
<path d="M170.688 251.993C172.854 251.803 173.84 251.643 175.294 250.782C176.268 250.204 178.15 249.379 179.275 249.443C179.567 249.458 179.933 249.655 179.86 249.946C179.81 250.151 179.577 250.233 179.38 250.297C178.612 250.554 175.843 252.173 176.538 251.902C178.14 252.168 180.712 252.111 182.331 251.982C182.707 251.952 183.093 251.912 183.456 252.026C183.815 252.138 184.361 252.504 184.165 252.834C183.916 253.248 180.373 253.342 178.477 253.597C180.08 253.639 181.682 253.68 183.286 253.72C183.676 253.732 184.251 253.96 184.091 254.327C183.874 254.818 180.111 254.835 178.12 255.087L182.673 255.368C183.282 255.407 184.402 255.754 183.901 256.114C182.988 256.772 179.912 256.484 177.737 256.555C178.692 256.695 179.646 256.838 180.599 256.979C180.913 257.028 181.333 257.256 181.19 257.55C181.119 257.703 180.926 257.74 180.762 257.761C177.125 258.223 173.918 257.704 169.819 257.761C170.163 255.836 169.802 253.846 170.688 251.993Z" fill="#FACCC4"/>
<path d="M149.39 205.916C149.44 208.141 150.001 210.353 151.018 212.351C149.574 213.484 147.527 213.486 145.675 213.306C144.76 213.215 143.838 213.091 142.986 212.755C142.892 212.716 142.791 212.672 142.732 212.591C142.671 212.507 142.665 212.397 142.656 212.293C142.43 208.303 142.263 204.309 142.153 200.314C143.987 200.858 145.994 200.492 147.851 200.953C148.028 200.998 148.214 201.053 148.351 201.172C148.522 201.319 148.6 201.538 148.667 201.746C149.145 203.23 149.364 204.767 149.39 205.916Z" fill="#FACCC4"/>
<path d="M144.393 206.644C143.003 204.781 143.017 202.392 142.154 200.316C143.987 200.859 145.992 200.492 147.849 200.953C148.028 200.999 148.213 201.053 148.35 201.172C148.521 201.318 148.599 201.538 148.666 201.746C149.144 203.229 149.363 204.767 149.389 205.916C149.416 207.148 149.607 208.374 149.939 209.564C147.762 209.406 145.687 208.375 144.393 206.644Z" fill="#D83E3F"/>
<path d="M150.123 192.336C150.711 194.051 151.986 195.765 152.5 197.5C153.203 199.87 153.505 202.432 152.654 204.751C151.967 206.631 149.817 207.764 147.754 207.737C145.689 207.706 143.748 206.705 142.187 205.394C139.188 202.874 137.346 199.113 137.227 195.278C137.187 194.009 137.246 192.898 138.642 191.794C140.226 190.541 141.746 189.986 143.733 189.513C146.559 188.847 149.535 190.623 150.123 192.336Z" fill="#FACCC4"/>
<path d="M143.401 199.624C143.019 198.959 142.213 198.556 141.445 198.653C140.088 198.821 141.094 201.422 143.302 201.999C143.612 202.08 143.999 202.088 144.185 201.835C144.335 201.635 144.291 201.353 144.223 201.111C144.031 200.445 143.71 199.813 143.401 199.624Z" fill="#FACCC4"/>
<path d="M470.532 144.451H470.182C470.181 155.266 466.322 165.574 459.319 174.971C448.815 189.065 431.229 201.092 409.07 209.586C386.911 218.08 360.183 223.045 331.41 223.045C293.048 223.045 258.32 214.218 233.211 199.968C220.656 192.845 210.506 184.366 203.504 174.971C196.5 165.574 192.641 155.266 192.64 144.451C192.641 133.637 196.5 123.33 203.504 113.933C214.007 99.8383 231.593 87.8116 253.752 79.3178C275.911 70.8226 302.638 65.8575 331.41 65.8582C369.774 65.8575 404.502 74.6852 429.612 88.9344C442.167 96.059 452.316 104.537 459.319 113.933C466.322 123.33 470.181 133.636 470.182 144.451H470.532H470.882C470.883 133.467 466.956 123.006 459.88 113.514C449.264 99.2741 431.569 87.1942 409.32 78.664C387.071 70.1345 360.264 65.1582 331.41 65.1582C292.94 65.1589 258.108 74.0034 232.865 88.3261C220.244 95.4878 210.019 104.021 202.942 113.514C195.866 123.006 191.94 133.467 191.94 144.451C191.94 155.437 195.866 165.897 202.942 175.389C213.558 189.629 231.254 201.709 253.502 210.239C275.751 218.768 302.558 223.744 331.41 223.745C369.882 223.743 404.714 214.899 429.957 200.577C442.578 193.415 452.803 184.883 459.88 175.389C466.956 165.897 470.883 155.437 470.882 144.451H470.532Z" fill="#4762B7"/>
<path d="M231.083 153.264C231.083 171.791 216.064 186.808 197.538 186.808C179.011 186.808 163.993 171.791 163.993 153.264C163.993 134.736 179.011 119.718 197.538 119.718C216.064 119.718 231.083 134.736 231.083 153.264Z" fill="#E6F0FA"/>
<path d="M227.627 153.264C227.627 169.883 214.156 183.354 197.537 183.354C180.916 183.354 167.445 169.883 167.445 153.264C167.445 136.644 180.916 123.172 197.537 123.172C214.156 123.172 227.627 136.644 227.627 153.264Z" fill="#8AD4D9"/>
<path d="M197.588 183.354C197.593 183.354 197.598 183.354 197.603 183.354C197.599 183.354 197.593 183.354 197.588 183.354ZM197.744 183.353C197.751 183.353 197.758 183.353 197.765 183.353C197.757 183.353 197.751 183.353 197.744 183.353ZM197.849 183.353C197.855 183.353 197.862 183.353 197.868 183.353C197.861 183.353 197.855 183.353 197.849 183.353ZM197.961 183.351C197.964 183.351 197.968 183.351 197.971 183.351C197.968 183.351 197.965 183.351 197.961 183.351ZM198.076 183.35C198.078 183.35 198.083 183.35 198.085 183.349C198.082 183.35 198.079 183.35 198.076 183.35ZM198.181 183.348C198.185 183.348 198.189 183.348 198.194 183.347C198.19 183.348 198.185 183.348 198.181 183.348ZM198.234 183.346C198.237 183.346 198.242 183.346 198.246 183.346C198.241 183.346 198.238 183.346 198.234 183.346ZM198.288 183.345C198.291 183.345 198.293 183.345 198.297 183.345C198.294 183.345 198.29 183.345 198.288 183.345ZM198.344 183.343C198.346 183.343 198.347 183.343 198.349 183.343C198.347 183.343 198.345 183.343 198.344 183.343ZM167.445 153.264C167.445 153.249 167.445 153.234 167.445 153.22C167.445 153.234 167.445 153.248 167.445 153.264ZM167.445 153.158C167.445 153.148 167.445 153.139 167.445 153.128C167.445 153.138 167.445 153.148 167.445 153.158ZM167.445 153.113C167.445 153.099 167.445 153.084 167.446 153.07C167.445 153.085 167.445 153.099 167.445 153.113ZM167.446 153.008C167.446 153 167.446 152.989 167.446 152.981C167.446 152.99 167.446 152.999 167.446 153.008ZM167.447 152.868C167.448 152.856 167.448 152.845 167.448 152.832C167.448 152.844 167.448 152.856 167.447 152.868ZM167.45 152.722C167.45 152.715 167.45 152.706 167.45 152.698C167.45 152.707 167.45 152.714 167.45 152.722ZM167.451 152.658C167.451 152.652 167.451 152.646 167.451 152.64C167.451 152.646 167.451 152.652 167.451 152.658ZM167.451 152.614C167.452 152.608 167.452 152.602 167.452 152.595C167.452 152.602 167.452 152.609 167.451 152.614ZM167.453 152.571C167.453 152.565 167.453 152.559 167.453 152.553C167.453 152.559 167.453 152.565 167.453 152.571ZM167.453 152.527C167.454 152.522 167.454 152.517 167.454 152.511C167.454 152.516 167.453 152.522 167.453 152.527ZM167.455 152.457C167.455 152.453 167.455 152.45 167.455 152.446C167.455 152.45 167.455 152.454 167.455 152.457ZM167.458 152.374C167.458 152.371 167.458 152.368 167.458 152.364C167.458 152.368 167.458 152.371 167.458 152.374Z" fill="#ACBFE7"/>
<path d="M197.537 183.354C180.916 183.354 167.445 169.883 167.445 153.264C167.445 153.248 167.445 153.234 167.445 153.22C167.445 153.215 167.445 153.209 167.445 153.204C167.445 153.194 167.445 153.185 167.445 153.174C167.445 153.169 167.445 153.163 167.445 153.158C167.445 153.148 167.445 153.138 167.445 153.128C167.445 153.123 167.445 153.118 167.445 153.113C167.445 153.099 167.445 153.085 167.446 153.07C167.446 153.069 167.446 153.07 167.446 153.068C167.446 153.054 167.446 153.04 167.446 153.025C167.446 153.02 167.446 153.014 167.446 153.008C167.446 152.999 167.446 152.99 167.446 152.981C167.446 152.974 167.446 152.968 167.446 152.961C167.446 152.954 167.446 152.945 167.446 152.937C167.446 152.931 167.446 152.924 167.446 152.917C167.447 152.905 167.447 152.894 167.447 152.882C167.447 152.878 167.447 152.873 167.447 152.868C167.448 152.856 167.448 152.844 167.448 152.832C167.448 152.826 167.448 152.818 167.448 152.812C167.448 152.804 167.448 152.795 167.448 152.788C167.448 152.781 167.448 152.774 167.448 152.767C167.449 152.759 167.449 152.751 167.449 152.744C167.449 152.736 167.449 152.729 167.45 152.722C167.45 152.714 167.45 152.707 167.45 152.698C167.45 152.685 167.451 152.672 167.451 152.658C167.451 152.652 167.451 152.646 167.451 152.64C167.451 152.632 167.451 152.623 167.451 152.614C167.452 152.609 167.452 152.602 167.452 152.595C167.452 152.588 167.453 152.579 167.453 152.571C167.453 152.565 167.453 152.559 167.453 152.553C167.453 152.544 167.453 152.536 167.453 152.527C167.453 152.522 167.454 152.516 167.454 152.511C167.454 152.494 167.455 152.474 167.455 152.457C167.455 152.454 167.455 152.45 167.455 152.446C167.456 152.436 167.456 152.427 167.456 152.416C167.457 152.412 167.457 152.409 167.457 152.405C167.457 152.395 167.458 152.384 167.458 152.374C167.458 152.371 167.458 152.368 167.458 152.364C167.46 152.315 167.461 152.266 167.462 152.217V152.215C167.903 139.367 176.399 128.573 188.054 124.704C184.286 132.514 183.85 140.956 187.359 149.589C190.941 158.407 197.358 165.967 206.322 169.516C210.932 171.342 215.72 172.275 220.587 172.6C215.228 178.982 207.275 183.107 198.349 183.343C198.347 183.343 198.346 183.343 198.344 183.343C198.328 183.344 198.314 183.344 198.297 183.345C198.293 183.345 198.291 183.345 198.288 183.345C198.274 183.346 198.26 183.346 198.246 183.346C198.242 183.346 198.237 183.346 198.234 183.346C198.22 183.347 198.207 183.347 198.194 183.347C198.189 183.348 198.185 183.348 198.181 183.348C198.167 183.348 198.154 183.348 198.141 183.348C198.136 183.348 198.132 183.348 198.128 183.348C198.113 183.349 198.099 183.349 198.085 183.349C198.083 183.35 198.078 183.35 198.076 183.35C198.041 183.35 198.006 183.351 197.971 183.351C197.968 183.351 197.964 183.351 197.961 183.351C197.947 183.352 197.933 183.352 197.919 183.352C197.914 183.352 197.909 183.352 197.904 183.352C197.892 183.353 197.88 183.353 197.868 183.353C197.862 183.353 197.855 183.353 197.849 183.353C197.838 183.353 197.828 183.353 197.817 183.353C197.81 183.353 197.803 183.353 197.796 183.353C197.786 183.353 197.775 183.353 197.765 183.353C197.758 183.353 197.751 183.353 197.744 183.353C197.733 183.354 197.722 183.354 197.712 183.354C197.705 183.354 197.699 183.354 197.692 183.354C197.681 183.354 197.67 183.354 197.659 183.354C197.653 183.354 197.646 183.354 197.64 183.354C197.628 183.354 197.616 183.354 197.603 183.354C197.598 183.354 197.593 183.354 197.588 183.354C197.571 183.354 197.554 183.354 197.537 183.354Z" fill="#8AD4D9"/>
<mask id="mask1_863_10211" style="mask-type:luminance" maskUnits="userSpaceOnUse" x="167" y="123" width="61" height="61">
<path d="M227.629 153.264C227.629 169.883 214.158 183.354 197.539 183.354C180.919 183.354 167.447 169.883 167.447 153.264C167.447 136.644 180.919 123.172 197.539 123.172C214.158 123.172 227.629 136.644 227.629 153.264Z" fill="white"/>
</mask>
<g mask="url(#mask1_863_10211)">
<path d="M188.17 175.518C188.349 176.041 188.067 176.609 187.544 176.788L183.63 178.108C183.105 178.284 182.537 178.003 182.358 177.475L177.34 162.595C177.164 162.073 177.444 161.503 177.968 161.326L181.883 160.006C182.405 159.83 182.975 160.112 183.152 160.636L188.17 175.518Z" fill="#92B0E1"/>
<path d="M184.249 162.502C184.369 163.106 183.978 163.693 183.375 163.812L177.635 164.956C177.033 165.075 176.446 164.683 176.328 164.08L173.93 152.06C173.813 151.458 174.203 150.872 174.807 150.749L180.542 149.608C181.149 149.489 181.735 149.878 181.856 150.483L184.249 162.502Z" fill="white"/>
<path d="M220.344 165.97L184.201 162.666L181.722 150.215L213.202 130.132L220.344 165.97Z" fill="white"/>
<path d="M184.076 162.691L183.217 157.55C187.216 155.103 191.795 153.834 195.967 153.262C201.687 152.483 209.639 152.093 212.351 145.982C213.214 144.042 213.975 141.723 215.056 140.088L220.219 165.998L184.076 162.691Z" fill="#C1D0EE"/>
<path d="M219.634 147.482C221.608 157.38 221.925 165.657 220.345 165.97C218.761 166.287 215.884 158.519 213.913 148.622C211.939 138.726 211.623 130.447 213.203 130.132C214.786 129.819 217.664 137.584 219.634 147.482Z" fill="#92B0E1"/>
<path d="M184.351 157.131L184.332 157.122L184.35 157.135L184.351 157.131L184.332 157.122L184.35 157.135C184.358 157.117 184.466 157.03 184.626 156.94C185.766 156.28 189.56 154.875 190.511 154.611C193.159 153.872 195.249 153.567 197.594 153.26C199.822 152.966 202.103 152.721 204.329 152.216C206.817 151.653 209.249 150.502 210.839 148.641C210.902 148.568 210.893 148.457 210.82 148.394C210.746 148.332 210.636 148.34 210.573 148.414C209.054 150.195 206.69 151.325 204.251 151.875C202.052 152.374 199.782 152.619 197.548 152.913C195.201 153.221 193.087 153.529 190.416 154.274C189.835 154.436 188.329 154.973 186.927 155.53C186.227 155.808 185.554 156.091 185.038 156.336C184.78 156.458 184.561 156.571 184.395 156.671C184.227 156.777 184.115 156.842 184.038 156.975C183.995 157.061 184.03 157.166 184.117 157.21C184.203 157.253 184.308 157.218 184.351 157.131Z" fill="#27355C"/>
<path d="M215.18 154.263C214.452 151.373 213.6 147.516 213.42 145.998C213.318 145.118 213.026 143.865 212.852 142.5C213.154 142.389 213.583 142.213 213.906 142.149C217.244 141.483 220.484 143.648 221.15 146.985C221.816 150.321 219.651 153.562 216.313 154.227C215.965 154.3 215.523 154.254 215.18 154.263Z" fill="#00A3AB"/>
<path d="M216.454 148.431C215.188 148.029 214.216 147.379 213.497 146.53C213.772 148.288 214.526 151.664 215.18 154.263C215.523 154.254 215.965 154.3 216.314 154.227C219.258 153.641 221.289 151.045 221.267 148.147C219.811 148.864 217.916 148.9 216.454 148.431Z" fill="#008F96"/>
<path d="M184.249 162.502L183.019 156.325C181.734 157.624 179.74 158.349 177.917 158.126C176.729 157.982 175.73 157.573 174.909 156.971L176.328 164.08C176.446 164.683 177.032 165.075 177.635 164.956L183.374 163.812C183.978 163.693 184.368 163.106 184.249 162.502Z" fill="#C1D0EE"/>
</g>
<path d="M276.861 71.5412C276.861 90.0674 261.843 105.086 243.317 105.086C224.791 105.086 209.772 90.0674 209.772 71.5412C209.772 53.015 224.791 37.9965 243.317 37.9965C261.843 37.9965 276.861 53.015 276.861 71.5412Z" fill="#E6F0FA"/>
<path d="M273.41 71.5417C273.41 88.1611 259.938 101.633 243.318 101.633C226.699 101.633 213.226 88.1611 213.226 71.5417C213.226 54.9216 226.699 41.4494 243.318 41.4494C259.938 41.4494 273.41 54.9216 273.41 71.5417Z" fill="#8AD4D9"/>
<path d="M243.37 101.633C243.375 101.633 243.38 101.633 243.385 101.633C243.38 101.633 243.375 101.633 243.37 101.633ZM243.474 101.633C243.481 101.633 243.486 101.633 243.493 101.633C243.487 101.633 243.48 101.633 243.474 101.633ZM243.526 101.633C243.533 101.633 243.538 101.633 243.545 101.633C243.539 101.633 243.532 101.633 243.526 101.633ZM243.632 101.632C243.639 101.632 243.643 101.632 243.648 101.632C243.643 101.632 243.637 101.632 243.632 101.632ZM243.69 101.631C243.692 101.631 243.697 101.631 243.699 101.631C243.696 101.631 243.692 101.631 243.69 101.631ZM243.913 101.628H243.914C243.914 101.628 243.914 101.628 243.913 101.628ZM213.226 71.5417C213.226 71.527 213.226 71.5116 213.226 71.4976C213.226 71.5123 213.226 71.5263 213.226 71.5417ZM213.226 71.4822C213.226 71.4717 213.226 71.4626 213.226 71.4521C213.226 71.4612 213.226 71.4731 213.226 71.4822ZM213.228 71.2869C213.228 71.2778 213.228 71.268 213.228 71.2582C213.228 71.2673 213.228 71.2778 213.228 71.2869ZM213.228 71.24C213.228 71.2316 213.228 71.2225 213.228 71.2141C213.228 71.2232 213.228 71.2309 213.228 71.24ZM213.231 70.9999C213.231 70.9915 213.231 70.9831 213.232 70.9747C213.231 70.9838 213.231 70.9908 213.231 70.9999ZM213.233 70.939C213.233 70.932 213.233 70.925 213.233 70.9173C213.233 70.9257 213.233 70.9313 213.233 70.939ZM213.234 70.8487C213.234 70.8431 213.235 70.8368 213.235 70.8312C213.235 70.8368 213.234 70.8424 213.234 70.8487ZM213.235 70.8053C213.235 70.7997 213.235 70.7948 213.235 70.7892C213.235 70.7941 213.235 70.8004 213.235 70.8053ZM213.237 70.7367C213.237 70.7318 213.237 70.729 213.238 70.7241C213.237 70.7283 213.237 70.7325 213.237 70.7367ZM213.245 70.4952C213.245 70.4945 213.245 70.4931 213.245 70.4924C213.245 70.4931 213.245 70.4938 213.245 70.4952Z" fill="#ACBFE7"/>
<path d="M243.318 101.633C226.699 101.633 213.226 88.1611 213.226 71.5417C213.226 71.5263 213.226 71.5123 213.226 71.4976C213.226 71.4927 213.226 71.4871 213.226 71.4822C213.226 71.4731 213.226 71.4612 213.226 71.4521C213.226 71.4472 213.226 71.4409 213.226 71.436C213.226 71.4255 213.226 71.4157 213.227 71.4052C213.227 71.4003 213.227 71.3961 213.227 71.3912C213.227 71.3618 213.227 71.3324 213.227 71.303C213.227 71.2981 213.228 71.2918 213.228 71.2869C213.228 71.2778 213.228 71.2673 213.228 71.2582C213.228 71.2519 213.228 71.2463 213.228 71.24C213.228 71.2309 213.228 71.2232 213.228 71.2141C213.228 71.2078 213.228 71.2022 213.228 71.1952C213.228 71.1833 213.228 71.1707 213.228 71.1588C213.229 71.1546 213.229 71.1518 213.229 71.1483C213.229 71.135 213.229 71.1224 213.229 71.1098C213.23 71.1028 213.23 71.0965 213.23 71.0895C213.23 71.0818 213.23 71.0734 213.23 71.0657C213.231 71.0594 213.231 71.0517 213.231 71.0454C213.231 71.037 213.231 71.0293 213.231 71.0216C213.231 71.0139 213.231 71.0069 213.231 70.9999C213.231 70.9908 213.231 70.9838 213.232 70.9747C213.232 70.9628 213.232 70.9509 213.233 70.939C213.233 70.9313 213.233 70.9257 213.233 70.9173C213.233 70.9096 213.233 70.9005 213.233 70.8928C213.233 70.8865 213.233 70.8795 213.233 70.8732C213.234 70.8655 213.234 70.8571 213.234 70.8487C213.234 70.8424 213.235 70.8368 213.235 70.8312C213.235 70.8221 213.235 70.8144 213.235 70.8053C213.235 70.8004 213.235 70.7941 213.235 70.7892C213.236 70.7724 213.237 70.7535 213.237 70.7367C213.237 70.7325 213.237 70.7283 213.238 70.7241C213.238 70.7143 213.238 70.7038 213.238 70.6947C213.238 70.6905 213.238 70.687 213.238 70.6828C213.239 70.673 213.239 70.6618 213.24 70.652C213.24 70.6485 213.24 70.6457 213.24 70.6429C213.241 70.5932 213.242 70.5442 213.245 70.4952C213.245 70.4938 213.245 70.4931 213.245 70.4924C213.684 57.646 222.18 46.8513 233.836 42.9831C231.606 47.601 230.544 52.4408 230.773 57.4101L227.209 57.5088C224.958 57.5711 223.175 59.4128 223.173 61.6507C223.173 61.6906 223.173 61.7312 223.175 61.7711L223.721 81.5825C223.784 83.8323 225.625 85.6145 227.862 85.6166C227.863 85.6166 227.865 85.6166 227.866 85.6166C227.905 85.6166 227.945 85.6159 227.984 85.6145L229.252 85.5802C229.183 86.4944 229.054 87.4436 228.831 88.3942C227.729 93.0856 225.105 93.7282 225.105 93.7282V93.7289C225.128 93.738 226.079 94.1314 227.631 94.1314C227.632 94.1314 227.632 94.1314 227.633 94.1314C227.64 94.1314 227.647 94.1314 227.654 94.1314C229.391 94.1279 231.875 93.6302 234.648 91.5603C234.658 91.5533 234.666 91.547 234.675 91.54C234.704 91.5183 234.733 91.4966 234.762 91.4749C234.768 91.47 234.774 91.4658 234.779 91.4616C234.784 91.4581 234.788 91.4546 234.793 91.4511C236.002 90.5264 237.271 88.9171 238.403 87.2322C238.837 86.5854 239.252 85.9281 239.634 85.2939L246.859 85.0944C248.497 86.1507 250.245 87.0586 252.104 87.7943C256.715 89.6199 261.501 90.553 266.368 90.8792C260.988 97.2842 252.992 101.419 244.023 101.626C244.021 101.626 244.021 101.626 244.02 101.626C244.004 101.626 243.986 101.626 243.97 101.627C243.968 101.627 243.968 101.627 243.965 101.627C243.949 101.627 243.932 101.628 243.914 101.628H243.913C243.842 101.629 243.771 101.631 243.699 101.631C243.697 101.631 243.692 101.631 243.69 101.631C243.676 101.632 243.662 101.632 243.648 101.632C243.643 101.632 243.639 101.632 243.632 101.632C243.62 101.632 243.609 101.633 243.597 101.633C243.591 101.633 243.585 101.633 243.578 101.633C243.567 101.633 243.557 101.633 243.545 101.633C243.538 101.633 243.533 101.633 243.526 101.633C243.515 101.633 243.504 101.633 243.493 101.633C243.486 101.633 243.481 101.633 243.474 101.633C243.463 101.633 243.452 101.633 243.44 101.633C243.434 101.633 243.428 101.633 243.422 101.633C243.41 101.633 243.398 101.633 243.385 101.633C243.38 101.633 243.375 101.633 243.37 101.633C243.353 101.633 243.335 101.633 243.318 101.633Z" fill="#8AD4D9"/>
<path d="M267.271 80.3795C267.335 82.6713 265.529 84.5788 263.238 84.6418L227.983 85.6141C225.692 85.6778 223.783 83.8725 223.72 81.5821L223.174 61.7707C223.11 59.4796 224.917 57.5721 227.208 57.5084L262.461 56.5361C264.752 56.4724 266.663 58.2777 266.725 60.5688L267.271 80.3795Z" fill="white"/>
<path d="M225.104 93.7277C225.104 93.7277 227.727 93.0851 228.83 88.3937C229.932 83.7016 228.807 78.9465 228.807 78.9465L242.014 80.9548C242.014 80.9548 238.153 88.8914 234.778 91.4611C229.417 95.5456 225.104 93.7277 225.104 93.7277Z" fill="white"/>
<path d="M238.493 69.0597C238.523 70.3281 237.518 71.3809 236.249 71.411C234.981 71.4404 233.928 70.4366 233.899 69.1682C233.867 67.8991 234.873 66.847 236.141 66.8169C237.411 66.7868 238.463 67.7913 238.493 69.0597Z" fill="#00A3AB"/>
<path d="M248.198 68.8313C248.229 70.1004 247.226 71.1525 245.956 71.1819C244.687 71.2127 243.635 70.2082 243.605 68.9405C243.576 67.6714 244.58 66.6179 245.849 66.5892C247.118 66.5591 248.169 67.5629 248.198 68.8313Z" fill="#8FB0DE"/>
<path d="M257.908 68.6036C257.938 69.872 256.935 70.9241 255.666 70.9549C254.398 70.9843 253.346 69.9799 253.315 68.7108C253.287 67.4423 254.29 66.3902 255.558 66.3601C256.827 66.3307 257.879 67.3345 257.908 68.6036Z" fill="#00A3AB"/>
<path d="M227.654 94.1309C229.391 94.1267 231.875 93.629 234.648 91.5598C231.875 93.6297 229.391 94.1274 227.654 94.1309ZM234.792 91.4506C236.001 90.5259 237.27 88.9166 238.403 87.2317C237.271 88.9166 236.002 90.5259 234.792 91.4506ZM228.831 88.3937C229.054 87.4431 229.183 86.4939 229.252 85.5797L227.983 85.614L229.255 85.579C229.186 86.4932 229.054 87.4445 228.831 88.3937Z" fill="#657DC7"/>
<path d="M246.859 85.0942L246.859 85.0936L263.239 84.642L246.859 85.0942Z" fill="#87A3DB"/>
<path d="M239.633 85.2939C239.633 85.2932 239.633 85.2939 239.634 85.2932L246.858 85.0938L246.859 85.0944L239.633 85.2939Z" fill="#657DC7"/>
<path d="M227.865 85.6162C227.863 85.6162 227.862 85.6162 227.861 85.6162C225.623 85.6134 223.782 83.8319 223.72 81.5821L223.173 61.7707C223.172 61.7308 223.172 61.6902 223.172 61.6503C223.173 59.4124 224.957 57.5707 227.208 57.5084L228.465 57.4734C228.176 61.8799 229.032 66.2311 232.066 69.8312C236.346 74.9104 243.6 76.4784 249.902 76.9327C251.229 77.0279 252.561 77.0734 253.895 77.0734C258.325 77.0734 262.775 76.5736 267.143 75.7518L267.271 80.3795C267.272 80.4201 267.273 80.46 267.272 80.4999C267.271 82.7378 265.488 84.5802 263.238 84.6418L246.857 85.0933L239.633 85.2928C241.036 82.9674 242.015 80.9549 242.015 80.9549L228.808 78.9466C228.808 78.9466 229.523 81.9727 229.254 85.5791L227.982 85.6141C227.943 85.6155 227.904 85.6162 227.865 85.6162Z" fill="#EFF4FB"/>
<path d="M227.631 94.1309C227.631 94.1309 227.63 94.1309 227.629 94.1309C226.077 94.1302 225.126 93.7375 225.104 93.7284V93.7277C225.104 93.7277 227.727 93.0851 228.83 88.3937C229.053 87.4445 229.185 86.4932 229.253 85.579C229.523 81.9726 228.807 78.9465 228.807 78.9465L242.014 80.9548C242.014 80.9548 241.036 82.9673 239.633 85.2927C239.632 85.2934 239.632 85.2927 239.632 85.2934H239.632C239.249 85.9276 238.836 86.5849 238.402 87.2317C237.269 88.9166 235.999 90.5259 234.791 91.4506C234.787 91.4541 234.782 91.4576 234.778 91.4611C234.772 91.4653 234.767 91.4695 234.76 91.4744C234.732 91.4961 234.702 91.5178 234.674 91.5395C234.664 91.5465 234.656 91.5528 234.647 91.5598C231.874 93.629 229.39 94.1267 227.652 94.1309C227.645 94.1309 227.638 94.1309 227.631 94.1309Z" fill="#EFF4FB"/>
<path d="M231.328 77.9487L258.628 77.5119C258.725 77.5105 258.802 77.4314 258.8 77.3341C258.799 77.2375 258.72 77.1605 258.623 77.1619L231.323 77.5987C231.225 77.6001 231.148 77.6799 231.15 77.7765C231.152 77.8731 231.231 77.9501 231.328 77.9487Z" fill="#27355C"/>
<path d="M230.061 79.7031L260.127 79.337C260.223 79.3356 260.301 79.2565 260.3 79.1599C260.298 79.0633 260.219 78.9856 260.122 78.987L230.057 79.3531C229.96 79.3545 229.882 79.4336 229.884 79.5302C229.885 79.6268 229.964 79.7038 230.061 79.7031Z" fill="#27355C"/>
<path d="M387.091 51.5444C387.091 70.0713 372.073 85.0898 353.546 85.0898C335.02 85.0898 320 70.0713 320 51.5444C320 33.0182 335.02 17.9997 353.546 17.9997C372.073 17.9997 387.091 33.0182 387.091 51.5444Z" fill="#E6F0FA"/>
<path d="M384.183 51.0915C384.183 67.7116 370.711 81.1831 354.091 81.1831C337.473 81.1831 324 67.7116 324 51.0915C324 34.4728 337.473 20.9999 354.091 20.9999C370.711 20.9999 384.183 34.4728 384.183 51.0915Z" fill="#8AD4D9"/>
<path d="M334.525 81.5801C334.53 81.5801 334.535 81.5801 334.54 81.5801C334.536 81.5801 334.53 81.5801 334.525 81.5801ZM334.629 81.5801C334.636 81.5801 334.641 81.5801 334.648 81.5801C334.642 81.5801 334.635 81.5801 334.629 81.5801ZM334.681 81.5794C334.688 81.5794 334.694 81.5794 334.701 81.5794C334.694 81.5794 334.687 81.5794 334.681 81.5794ZM334.843 81.578C334.847 81.578 334.851 81.578 334.855 81.578C334.851 81.578 334.847 81.578 334.843 81.578ZM334.904 81.5773C334.904 81.5773 334.906 81.5773 334.907 81.5773C334.906 81.5773 334.905 81.5773 334.904 81.5773ZM335.067 81.5745C335.068 81.5745 335.07 81.5745 335.072 81.5745C335.07 81.5745 335.069 81.5745 335.067 81.5745ZM335.12 81.5738C335.122 81.5738 335.124 81.5738 335.126 81.5738C335.124 81.5738 335.121 81.5738 335.12 81.5738ZM335.23 81.571C335.231 81.571 335.229 81.571 335.231 81.571H335.23ZM304.382 51.4885C304.382 51.4738 304.382 51.4591 304.382 51.4444C304.382 51.4598 304.382 51.4731 304.382 51.4885ZM304.382 51.429C304.382 51.4185 304.382 51.4101 304.382 51.3996C304.382 51.4094 304.382 51.4192 304.382 51.429ZM304.382 51.3828C304.382 51.3723 304.382 51.3632 304.382 51.3527C304.382 51.3625 304.382 51.373 304.382 51.3828ZM304.382 51.3387C304.382 51.3093 304.383 51.2792 304.383 51.2498C304.383 51.2792 304.382 51.3086 304.382 51.3387ZM304.383 51.2344C304.383 51.2253 304.383 51.2148 304.384 51.205C304.383 51.2141 304.383 51.2253 304.383 51.2344ZM304.384 51.1427C304.384 51.1301 304.384 51.1168 304.384 51.1042C304.384 51.1175 304.384 51.1294 304.384 51.1427ZM304.386 50.9929C304.387 50.9852 304.387 50.9761 304.387 50.9677C304.387 50.9768 304.387 50.9838 304.386 50.9929ZM304.389 50.841C304.389 50.834 304.389 50.827 304.389 50.8193C304.389 50.8263 304.389 50.834 304.389 50.841ZM304.39 50.7969C304.39 50.7906 304.39 50.7829 304.39 50.7759C304.39 50.7836 304.39 50.7899 304.39 50.7969ZM304.391 50.7535C304.391 50.7458 304.391 50.7381 304.391 50.7311C304.391 50.7388 304.391 50.7451 304.391 50.7535ZM304.392 50.6919C304.393 50.6842 304.393 50.6772 304.393 50.6702C304.393 50.6772 304.393 50.6849 304.392 50.6919ZM304.394 50.6443C304.394 50.6394 304.394 50.6331 304.394 50.6289C304.394 50.6345 304.394 50.6387 304.394 50.6443ZM304.396 50.5568V50.5554C304.396 50.5568 304.396 50.5554 304.396 50.5568ZM304.401 50.4042C304.401 50.4021 304.401 50.4007 304.401 50.3979C304.401 50.4 304.401 50.4021 304.401 50.4042Z" fill="#ACBFE7"/>
<path d="M358.006 81.3984L362.71 68.0368H363.457C367.889 69.714 372.479 70.5834 377.143 70.8963C372.414 76.5271 365.662 80.4023 358.006 81.3984ZM350.057 81.3823C341.213 80.1972 333.586 75.1705 328.908 68.0368H354.757L350.057 81.3823ZM353.081 66.4618H327.944C325.434 62.0679 324 56.981 324 51.5588C324 51.5434 324 51.5301 324 51.5147C324 51.5098 324 51.5042 324 51.4993C324 51.4895 324 51.4797 324 51.4699C324 51.465 324 51.458 324 51.4531C324 51.4433 324 51.4328 324 51.423C324 51.4181 324 51.4139 324 51.409C324 51.3789 324.001 51.3495 324.001 51.3201C324.001 51.3152 324.001 51.3096 324.001 51.3047C324.001 51.2956 324.001 51.2844 324.002 51.2753C324.002 51.269 324.002 51.2641 324.002 51.2578C324.002 51.2487 324.002 51.2403 324.002 51.2312C324.002 51.2256 324.002 51.2186 324.002 51.213C324.002 51.1997 324.002 51.1878 324.002 51.1745C324.002 51.1717 324.002 51.1703 324.002 51.1675C324.002 51.1542 324.003 51.1402 324.003 51.1269C324.003 51.1213 324.003 51.1136 324.003 51.108C324.004 51.0989 324.004 51.0912 324.004 51.0828C324.004 51.0758 324.004 51.0702 324.004 51.0632C324.005 51.0541 324.005 51.0471 324.005 51.038C324.005 51.0303 324.005 51.0254 324.005 51.0177C324.005 51.0079 324.005 50.9988 324.005 50.989C324.005 50.9806 324.006 50.9708 324.006 50.9624C324.006 50.9526 324.006 50.9442 324.007 50.9344C324.007 50.9274 324.007 50.919 324.007 50.9113C324.007 50.9043 324.007 50.8966 324.007 50.8896C324.007 50.8812 324.008 50.8756 324.008 50.8672C324.008 50.8602 324.008 50.8539 324.008 50.8462C324.009 50.8385 324.009 50.8315 324.009 50.8238C324.01 50.8154 324.01 50.8091 324.01 50.8014C324.01 50.7881 324.01 50.7748 324.01 50.7622C324.011 50.7552 324.011 50.7475 324.011 50.7405C324.012 50.7314 324.012 50.7237 324.012 50.7146C324.012 50.709 324.012 50.7048 324.012 50.6992C324.012 50.6887 324.013 50.681 324.013 50.6712C324.013 50.667 324.013 50.6614 324.014 50.6579C324.014 50.6467 324.014 50.6376 324.014 50.6271C324.014 50.6257 324.014 50.6271 324.014 50.6257C324.016 50.5886 324.017 50.5536 324.018 50.5165C324.018 50.5137 324.018 50.5102 324.018 50.5074C324.019 50.4962 324.019 50.4857 324.019 50.4745C324.019 50.4724 324.019 50.4703 324.019 50.4682C324.477 37.6407 332.967 26.8642 344.608 23.0002C340.841 30.8094 340.406 39.2514 343.914 47.8852C346.015 53.054 349.09 57.7923 353.081 61.5429V66.4618ZM355.846 64.9449V63.8676C355.946 63.9425 356.046 64.0167 356.147 64.0902L355.846 64.9449Z" fill="#8AD4D9"/>
<mask id="mask2_863_10211" style="mask-type:luminance" maskUnits="userSpaceOnUse" x="323" y="21" width="61" height="61">
<path d="M383.637 51.5456C383.637 68.1657 370.165 81.6372 353.545 81.6372C336.927 81.6372 323.454 68.1657 323.454 51.5456C323.454 34.9269 336.927 21.454 353.545 21.454C370.165 21.454 383.637 34.9269 383.637 51.5456Z" fill="white"/>
</mask>
<g mask="url(#mask2_863_10211)">
<path d="M336.01 67.1543H330.653V40.9729H336.01V67.1543Z" fill="#CCDBF0"/>
<path d="M349.279 67.1543H343.924V38.6895H349.279V67.1543Z" fill="#CCDBF0"/>
<path d="M357.195 67.1543H362.552V29.6113H357.195V67.1543Z" fill="#CCDBF0"/>
<path d="M328.361 67.1543H325.599V46.0514H328.361V67.1543Z" fill="#00A3AB"/>
<path d="M341.021 67.1543H338.261V46.0514H341.021V67.1543Z" fill="#00A3AB"/>
<path d="M352.537 67.1543H355.301V46.0514H352.537V67.1543Z" fill="#00A3AB"/>
<path d="M288.128 68.0229H366.411V66.4479H288.128V68.0229Z" fill="white"/>
<path d="M352.616 90.0948C352.236 91.1742 351.051 91.7433 349.969 91.3618C348.888 90.9817 348.32 89.7959 348.701 88.7144L359.062 59.2962C359.443 58.2154 360.627 57.6456 361.707 58.0278C362.789 58.4079 363.358 59.5937 362.975 60.6731L352.616 90.0948Z" fill="#92B0E1"/>
<path d="M355.712 63.761L347.008 88.4773C346.32 90.4324 347.347 92.5758 349.301 93.2618C351.255 93.9506 353.4 92.9237 354.086 90.9686L362.788 66.2537L355.712 63.761Z" fill="#00A3AB"/>
<path d="M352.798 81.6274C351.686 81.6008 350.59 81.5133 349.511 81.3684L355.713 63.7606L358.716 64.8197L352.798 81.6274Z" fill="#8FB0DE"/>
<path d="M378.624 54.1455C376.318 61.646 368.37 65.8565 360.871 63.5514C353.37 61.2477 349.159 53.2957 351.465 45.7966C353.77 38.2968 361.719 34.0856 369.219 36.3921C376.719 38.6958 380.931 46.6457 378.624 54.1455Z" fill="white"/>
<path d="M376.72 53.5605C374.737 60.0061 367.905 63.6272 361.46 61.6434C355.012 59.6617 351.391 52.829 353.373 46.3827C355.354 39.9364 362.187 36.316 368.635 38.2984C375.083 40.2815 378.701 47.1135 376.72 53.5605Z" fill="#4E6EAF"/>
<path d="M375.952 53.2899C374.096 59.3232 367.702 62.7119 361.668 60.8555C355.634 59.0012 352.246 52.6053 354.101 46.5734C355.957 40.5387 362.35 37.1507 368.385 39.0064C374.419 40.8614 377.805 47.2559 375.952 53.2899Z" fill="#8AD4D9"/>
<path d="M365.002 61.4878C363.886 61.4878 362.751 61.324 361.629 60.9789C355.564 59.1141 352.161 52.6853 354.024 46.624C355.106 43.1016 357.727 40.4794 360.922 39.2635C357.764 40.4815 355.175 43.0855 354.102 46.5736C352.247 52.6055 355.634 59.0014 361.668 60.8557C362.787 61.2001 363.919 61.3639 365.032 61.3639C366.95 61.3639 368.812 60.8767 370.457 59.9884C370.498 60.0052 370.539 60.022 370.581 60.0381C368.895 60.9733 366.978 61.4878 365.002 61.4878Z" fill="#97AACF"/>
<path d="M365.031 61.3638C363.918 61.3638 362.787 61.2 361.668 60.8556C355.634 59.0013 352.246 52.6054 354.101 46.5735C355.174 43.0854 357.763 40.4814 360.921 39.2634C361.774 38.9386 362.667 38.7146 363.583 38.5998C363.196 39.3957 362.865 40.2329 362.594 41.1086C360.158 49.0326 363.658 57.2198 370.456 59.9883C368.811 60.8766 366.949 61.3638 365.031 61.3638Z" fill="#C9EBED"/>
</g>
<path d="M315.496 224.268C315.496 242.795 300.477 257.812 281.951 257.812C263.424 257.812 248.406 242.795 248.406 224.268C248.406 205.743 263.424 190.724 281.951 190.724C300.477 190.724 315.496 205.743 315.496 224.268Z" fill="#E6F0FA"/>
<path d="M312.043 224.268C312.043 240.887 298.572 254.36 281.953 254.36C265.333 254.36 251.861 240.887 251.861 224.268C251.861 207.649 265.333 194.176 281.953 194.176C298.572 194.176 312.043 207.649 312.043 224.268Z" fill="#8AD4D9"/>
<path d="M282.005 254.36C282.01 254.36 282.014 254.36 282.019 254.36C282.015 254.36 282.009 254.36 282.005 254.36ZM282.056 254.36C282.062 254.36 282.068 254.36 282.075 254.36C282.068 254.36 282.063 254.36 282.056 254.36ZM282.16 254.36C282.168 254.36 282.173 254.36 282.18 254.36C282.173 254.36 282.166 254.36 282.16 254.36ZM282.267 254.359C282.273 254.359 282.277 254.359 282.283 254.359C282.278 254.359 282.272 254.359 282.267 254.359ZM251.861 224.268C251.861 224.253 251.861 224.239 251.861 224.224C251.861 224.239 251.861 224.253 251.861 224.268ZM251.861 224.209C251.861 224.198 251.861 224.19 251.861 224.178C251.861 224.189 251.861 224.199 251.861 224.209ZM251.861 224.162C251.861 224.152 251.861 224.142 251.861 224.132C251.861 224.142 251.861 224.153 251.861 224.162ZM251.861 224.118C251.861 224.089 251.861 224.059 251.861 224.029C251.861 224.059 251.861 224.088 251.861 224.118ZM251.861 224.014C251.861 224.004 251.861 223.994 251.861 223.985C251.861 223.994 251.861 224.005 251.861 224.014ZM251.863 223.877C251.863 223.863 251.863 223.849 251.863 223.836C251.863 223.849 251.863 223.863 251.863 223.877ZM251.864 223.772C251.864 223.764 251.865 223.755 251.865 223.747C251.865 223.756 251.864 223.763 251.864 223.772ZM251.865 223.727C251.865 223.718 251.866 223.707 251.866 223.698C251.866 223.708 251.865 223.716 251.865 223.727ZM251.866 223.671C251.866 223.663 251.866 223.652 251.867 223.644C251.866 223.653 251.866 223.662 251.866 223.671ZM251.867 223.621C251.867 223.614 251.868 223.607 251.868 223.599C251.868 223.606 251.867 223.614 251.867 223.621ZM251.868 223.576C251.868 223.57 251.868 223.562 251.868 223.556C251.868 223.563 251.868 223.569 251.868 223.576ZM251.869 223.532C251.869 223.525 251.87 223.518 251.87 223.511C251.87 223.519 251.869 223.525 251.869 223.532ZM251.87 223.47C251.871 223.463 251.871 223.457 251.871 223.45C251.871 223.457 251.871 223.463 251.87 223.47ZM251.872 223.424C251.872 223.419 251.872 223.413 251.872 223.408C251.872 223.414 251.872 223.418 251.872 223.424ZM251.878 223.226C251.878 223.223 251.878 223.219 251.878 223.217C251.878 223.219 251.878 223.224 251.878 223.226ZM251.879 223.184C251.879 223.182 251.879 223.18 251.879 223.177C251.879 223.179 251.879 223.182 251.879 223.184Z" fill="#ACBFE7"/>
<path d="M281.953 254.36C265.333 254.36 251.861 240.887 251.861 224.268C251.861 224.253 251.861 224.239 251.861 224.224C251.861 224.219 251.861 224.213 251.861 224.209C251.861 224.199 251.861 224.189 251.861 224.178C251.861 224.174 251.861 224.167 251.861 224.162C251.861 224.153 251.861 224.142 251.861 224.132C251.861 224.127 251.861 224.122 251.861 224.118C251.861 224.088 251.861 224.059 251.861 224.029C251.861 224.024 251.861 224.019 251.861 224.014C251.861 224.005 251.861 223.994 251.861 223.985C251.861 223.978 251.862 223.973 251.862 223.967C251.862 223.958 251.862 223.95 251.862 223.94C251.862 223.935 251.862 223.928 251.862 223.922C251.863 223.909 251.863 223.896 251.863 223.884C251.863 223.881 251.863 223.879 251.863 223.877C251.863 223.863 251.863 223.849 251.863 223.836C251.863 223.83 251.863 223.823 251.863 223.817C251.863 223.808 251.864 223.8 251.864 223.791C251.864 223.785 251.864 223.779 251.864 223.772C251.864 223.763 251.865 223.756 251.865 223.747C251.865 223.74 251.865 223.734 251.865 223.727C251.865 223.716 251.866 223.708 251.866 223.698C251.866 223.688 251.866 223.681 251.866 223.671C251.866 223.662 251.866 223.653 251.867 223.644C251.867 223.636 251.867 223.628 251.867 223.621C251.867 223.614 251.868 223.606 251.868 223.599C251.868 223.591 251.868 223.584 251.868 223.576C251.868 223.569 251.868 223.563 251.868 223.556C251.869 223.548 251.869 223.541 251.869 223.532C251.869 223.525 251.87 223.519 251.87 223.511C251.87 223.498 251.87 223.483 251.87 223.47C251.871 223.463 251.871 223.457 251.871 223.45C251.871 223.441 251.872 223.432 251.872 223.424C251.872 223.418 251.872 223.414 251.872 223.408C251.872 223.399 251.872 223.39 251.873 223.38C251.873 223.376 251.873 223.371 251.873 223.367C251.874 223.357 251.874 223.346 251.875 223.336C251.875 223.299 251.877 223.263 251.878 223.226C251.878 223.224 251.878 223.219 251.878 223.217C251.879 223.205 251.879 223.196 251.879 223.184C251.879 223.184 251.879 223.179 251.879 223.177C252.337 210.349 260.827 199.574 272.469 195.709C270.93 198.899 269.947 202.194 269.561 205.565H266.667V212.589H263.575V215.89V217.804V224.394C263.345 224.927 263.219 225.514 263.219 226.131V245.099H300.686V244.483V243.146C302.116 243.358 303.556 243.508 305.003 243.605C299.558 250.088 291.434 254.245 282.334 254.358C282.331 254.358 282.327 254.358 282.325 254.358C282.311 254.358 282.297 254.358 282.283 254.359C282.277 254.359 282.273 254.359 282.267 254.359C282.255 254.359 282.243 254.359 282.231 254.359C282.225 254.359 282.22 254.359 282.213 254.36C282.202 254.36 282.191 254.36 282.18 254.36C282.173 254.36 282.168 254.36 282.16 254.36C282.149 254.36 282.139 254.36 282.127 254.36C282.122 254.36 282.115 254.36 282.108 254.36C282.097 254.36 282.086 254.36 282.075 254.36C282.068 254.36 282.062 254.36 282.056 254.36C282.044 254.36 282.032 254.36 282.019 254.36C282.014 254.36 282.01 254.36 282.005 254.36C281.987 254.36 281.97 254.36 281.953 254.36Z" fill="#8AD4D9"/>
<path d="M286.31 215.89C285.194 213.937 282.842 212.589 280.115 212.589H263.574V215.89V217.803V242.477H300.328V215.89H286.31Z" fill="#304782"/>
<path d="M266.667 230.154H297.236V205.565H266.667V230.154Z" fill="white"/>
<path d="M294.903 209.106H269C268.904 209.106 268.825 209.184 268.825 209.281C268.825 209.377 268.904 209.456 269 209.456H294.903C295 209.456 295.078 209.377 295.078 209.281C295.078 209.184 295 209.106 294.903 209.106Z" fill="#27355C"/>
<path d="M294.903 211.829H269C268.904 211.829 268.825 211.908 268.825 212.004C268.825 212.101 268.904 212.179 269 212.179H294.903C295 212.179 295.078 212.101 295.078 212.004C295.078 211.908 295 211.829 294.903 211.829Z" fill="#27355C"/>
<path d="M294.903 214.553H269C268.904 214.553 268.825 214.632 268.825 214.728C268.825 214.825 268.904 214.903 269 214.903H294.903C295 214.903 295.078 214.825 295.078 214.728C295.078 214.632 295 214.553 294.903 214.553Z" fill="#27355C"/>
<path d="M294.903 217.276H269C268.904 217.276 268.825 217.354 268.825 217.45C268.825 217.548 268.904 217.626 269 217.626H294.903C295 217.626 295.078 217.548 295.078 217.45C295.078 217.354 295 217.276 294.903 217.276Z" fill="#27355C"/>
<path d="M266.667 221.835V205.565H272.953C273.335 206.798 273.833 207.981 274.433 209.105H269C268.904 209.105 268.825 209.184 268.825 209.28C268.825 209.377 268.904 209.455 269 209.455H274.625C275.086 210.281 275.603 211.074 276.169 211.829H269C268.904 211.829 268.825 211.908 268.825 212.004C268.825 212.101 268.904 212.179 269 212.179H276.437C277.095 213.021 277.814 213.813 278.586 214.553H269C268.904 214.553 268.825 214.631 268.825 214.728C268.825 214.824 268.904 214.903 269 214.903H278.96C279.916 215.777 280.947 216.571 282.04 217.276H269C268.904 217.276 268.825 217.354 268.825 217.45C268.825 217.547 268.904 217.626 269 217.626H282.6C284.249 218.623 286.024 219.419 287.876 219.98C289.599 220.502 291.317 220.741 293.008 220.741C294.439 220.741 295.853 220.57 297.236 220.254V221.835C296.931 221.767 296.613 221.732 296.286 221.732H267.617C267.291 221.732 266.973 221.768 266.667 221.835Z" fill="#EFF4FB"/>
<path d="M274.625 209.456H269C268.904 209.456 268.825 209.377 268.825 209.281C268.825 209.184 268.904 209.106 269 209.106H274.433C274.496 209.222 274.56 209.339 274.625 209.456Z" fill="#24335C"/>
<path d="M276.437 212.179H269C268.904 212.179 268.825 212.101 268.825 212.004C268.825 211.908 268.904 211.829 269 211.829H276.169C276.257 211.947 276.347 212.064 276.437 212.179Z" fill="#24335C"/>
<path d="M278.96 214.903H269C268.904 214.903 268.825 214.825 268.825 214.728C268.825 214.632 268.904 214.553 269 214.553H278.586C278.709 214.671 278.834 214.789 278.96 214.903Z" fill="#24335C"/>
<path d="M282.6 217.626H269C268.904 217.626 268.825 217.548 268.825 217.45C268.825 217.354 268.904 217.276 269 217.276H282.04C282.225 217.395 282.412 217.512 282.6 217.626Z" fill="#24335C"/>
<path d="M300.686 245.1V226.132C300.686 223.701 298.716 221.732 296.286 221.732H267.617C265.188 221.732 263.218 223.701 263.218 226.132V245.1H300.686Z" fill="#CCDBF0"/>
<path d="M296.507 223.404H267.433C267.336 223.404 267.258 223.482 267.258 223.579C267.258 223.676 267.336 223.754 267.433 223.754H296.507C296.603 223.754 296.682 223.676 296.682 223.579C296.682 223.482 296.603 223.404 296.507 223.404Z" fill="#27355C"/>
<path d="M300.686 245.1H263.218V226.132C263.218 223.701 265.188 221.732 267.617 221.732H271.188C271.309 222.298 271.475 222.855 271.683 223.404H267.432C267.336 223.404 267.257 223.482 267.257 223.579C267.257 223.675 267.336 223.754 267.432 223.754H271.822C274.293 229.738 281.567 234.657 286.227 238.046C290.672 241.28 295.579 243.404 300.686 244.484V245.1Z" fill="#8FB0DE"/>
<path d="M271.822 223.754H267.433C267.336 223.754 267.258 223.676 267.258 223.579C267.258 223.482 267.336 223.404 267.433 223.404H271.684C271.728 223.521 271.774 223.638 271.822 223.754Z" fill="#263148"/>
<path d="M461.09 202.545C461.09 221.072 446.071 236.089 427.545 236.089C409.017 236.089 394 221.072 394 202.545C394 184.019 409.017 169 427.545 169C446.071 169 461.09 184.019 461.09 202.545Z" fill="#E6F0FA"/>
<path d="M457.183 203.092C457.183 219.712 443.711 233.183 427.092 233.183C410.473 233.183 397 219.712 397 203.092C397 186.473 410.473 173 427.092 173C443.711 173 457.183 186.473 457.183 203.092Z" fill="#8AD4D9"/>
<path d="M387.05 254.36C387.055 254.36 387.059 254.36 387.064 254.36C387.06 254.36 387.054 254.36 387.05 254.36ZM387.154 254.359C387.161 254.359 387.166 254.359 387.173 254.359C387.166 254.359 387.159 254.359 387.154 254.359ZM387.206 254.359C387.213 254.359 387.218 254.359 387.225 254.359C387.219 254.359 387.212 254.359 387.206 254.359ZM387.257 254.358C387.264 254.358 387.27 254.358 387.277 254.358C387.271 254.358 387.264 254.358 387.257 254.358ZM387.311 254.358C387.317 254.358 387.323 254.358 387.329 254.358C387.323 254.358 387.317 254.358 387.311 254.358ZM387.427 254.357C387.429 254.357 387.43 254.357 387.432 254.357C387.43 254.357 387.428 254.357 387.427 254.357ZM387.591 254.354C387.593 254.354 387.596 254.354 387.598 254.354C387.595 254.354 387.593 254.354 387.591 254.354ZM387.644 254.353C387.646 254.353 387.649 254.353 387.652 254.353C387.649 254.353 387.647 254.353 387.644 254.353ZM387.698 254.352C387.7 254.352 387.702 254.351 387.703 254.351C387.702 254.351 387.7 254.351 387.698 254.352ZM387.754 254.351C387.755 254.351 387.754 254.351 387.755 254.351C387.754 254.351 387.754 254.351 387.754 254.351ZM356.906 224.268C356.906 224.254 356.906 224.239 356.906 224.224C356.906 224.24 356.906 224.253 356.906 224.268ZM356.906 224.209C356.906 224.198 356.906 224.19 356.906 224.179C356.906 224.189 356.906 224.199 356.906 224.209ZM356.906 224.163C356.906 224.152 356.906 224.142 356.906 224.132C356.906 224.142 356.906 224.153 356.906 224.163ZM356.907 224.118C356.907 224.089 356.907 224.059 356.907 224.03C356.907 224.059 356.907 224.088 356.907 224.118ZM356.908 224.014C356.908 224.004 356.908 223.995 356.908 223.985C356.908 223.994 356.908 224.005 356.908 224.014ZM356.909 223.877C356.909 223.863 356.909 223.85 356.909 223.836C356.909 223.849 356.909 223.864 356.909 223.877ZM356.91 223.773C356.91 223.764 356.91 223.755 356.91 223.747C356.91 223.757 356.91 223.764 356.91 223.773ZM356.911 223.727C356.911 223.718 356.911 223.708 356.912 223.698C356.911 223.708 356.911 223.717 356.911 223.727ZM356.912 223.671C356.912 223.663 356.912 223.652 356.912 223.644C356.912 223.653 356.912 223.662 356.912 223.671ZM356.913 223.621C356.913 223.614 356.913 223.607 356.913 223.599C356.913 223.606 356.913 223.614 356.913 223.621ZM356.914 223.577C356.914 223.57 356.915 223.563 356.915 223.556C356.915 223.563 356.914 223.57 356.914 223.577ZM356.915 223.533C356.915 223.526 356.915 223.519 356.915 223.511C356.915 223.519 356.915 223.525 356.915 223.533ZM356.917 223.47C356.917 223.463 356.917 223.458 356.917 223.45C356.917 223.457 356.917 223.463 356.917 223.47ZM356.918 223.424C356.918 223.419 356.918 223.413 356.918 223.408C356.918 223.414 356.918 223.418 356.918 223.424ZM356.924 223.225C356.924 223.223 356.924 223.22 356.924 223.217C356.924 223.22 356.924 223.222 356.924 223.225ZM356.925 223.183C356.925 223.182 356.926 223.18 356.926 223.178C356.926 223.18 356.926 223.182 356.925 223.183Z" fill="#ACBFE7"/>
<mask id="mask3_863_10211" style="mask-type:luminance" maskUnits="userSpaceOnUse" x="397" y="172" width="61" height="61">
<path d="M457.638 202.545C457.638 219.165 444.166 232.637 427.547 232.637C410.928 232.637 397.455 219.165 397.455 202.545C397.455 185.926 410.928 172.454 427.547 172.454C444.166 172.454 457.638 185.926 457.638 202.545Z" fill="white"/>
</mask>
<g mask="url(#mask3_863_10211)">
<path d="M404.233 241.356H450.309V186.862H404.233V241.356Z" fill="#CCDBF0"/>
<path d="M446.674 207.113C446.674 210.04 444.304 212.41 441.38 212.41H413.159C410.24 212.41 407.871 210.04 407.871 207.113C407.871 204.196 410.24 201.825 413.159 201.825H441.38C444.304 201.825 446.674 204.196 446.674 207.113Z" fill="white"/>
<path d="M446.674 219.154C446.674 222.074 444.304 224.445 441.38 224.445H413.159C410.24 224.445 407.871 222.074 407.871 219.154C407.871 216.232 410.24 213.863 413.159 213.863H441.38C444.304 213.863 446.674 216.232 446.674 219.154Z" fill="white"/>
<path d="M446.674 231.187C446.674 234.107 444.304 236.481 441.38 236.481H413.159C410.24 236.481 407.871 234.107 407.871 231.187C407.871 228.267 410.24 225.899 413.159 225.899H441.38C444.304 225.899 446.674 228.267 446.674 231.187Z" fill="white"/>
<path d="M411.087 210.438H443.456V203.693H411.087V210.438Z" fill="#CCDBF0"/>
<path d="M411.087 222.526H443.456V215.779H411.087V222.526Z" fill="#CCDBF0"/>
<path d="M411.087 234.561H443.456V227.816H411.087V234.561Z" fill="#CCDBF0"/>
<path d="M435.859 207.043H418.687V205.379H435.859V207.043Z" fill="#00A3AB"/>
<path d="M446.676 194.847C446.676 197.772 444.304 200.137 441.383 200.137H413.16C410.238 200.137 407.868 197.772 407.868 194.847C407.868 191.924 410.238 189.555 413.16 189.555H441.383C444.304 189.555 446.676 191.924 446.676 194.847Z" fill="white"/>
<path d="M411.089 198.166H443.455V191.421H411.089V198.166Z" fill="#CCDBF0"/>
<path d="M435.86 194.77H418.686V193.108H435.86V194.77Z" fill="#00A3AB"/>
<path d="M418.687 219.075H435.859V217.417H418.687V219.075Z" fill="#00A3AB"/>
<path d="M418.687 231.109H435.859V229.452H418.687V231.109Z" fill="#00A3AB"/>
<path d="M412.143 196.097H441.617C441.714 196.097 441.792 196.019 441.792 195.922C441.792 195.826 441.714 195.747 441.617 195.747H412.143C412.047 195.747 411.968 195.826 411.968 195.922C411.968 196.019 412.047 196.097 412.143 196.097Z" fill="#27355C"/>
<path d="M411.979 208.703H442.271C442.368 208.703 442.446 208.625 442.446 208.528C442.446 208.432 442.368 208.353 442.271 208.353H411.979C411.883 208.353 411.804 208.432 411.804 208.528C411.804 208.625 411.883 208.703 411.979 208.703Z" fill="#27355C"/>
<path d="M412.307 220.984H443.255C443.352 220.984 443.43 220.906 443.43 220.809C443.43 220.713 443.352 220.634 443.255 220.634H412.307C412.21 220.634 412.132 220.713 412.132 220.809C412.132 220.906 412.21 220.984 412.307 220.984Z" fill="#27355C"/>
<path d="M409.967 226.971C407.828 225.428 405.899 223.611 404.233 221.572V186.862H409.447C409.852 187.964 410.262 189.067 410.679 190.171C409.006 191.06 407.867 192.821 407.867 194.846C407.867 197.772 410.238 200.137 413.159 200.137H414.715C414.965 200.702 415.218 201.265 415.474 201.825H413.159C410.24 201.825 407.87 204.196 407.87 207.113C407.87 210.04 410.24 212.41 413.159 212.41H421.054C421.354 212.898 421.658 213.382 421.968 213.863H413.159C410.24 213.863 407.87 216.231 407.87 219.153C407.87 222.074 410.24 224.444 413.159 224.444H430.452C430.965 224.946 431.487 225.431 432.019 225.899H413.159C411.96 225.899 410.855 226.298 409.967 226.971Z" fill="#8FB0DE"/>
<path d="M421.054 212.41H413.159C410.24 212.41 407.871 210.04 407.871 207.113C407.871 204.196 410.24 201.825 413.159 201.825H415.475C415.761 202.451 416.052 203.074 416.348 203.693H411.088V210.438H419.881C420.263 211.101 420.655 211.759 421.054 212.41Z" fill="#EFF4FB"/>
<path d="M430.453 224.445H413.159C410.24 224.445 407.871 222.074 407.871 219.154C407.871 216.232 410.24 213.863 413.159 213.863H421.969C422.385 214.508 422.811 215.147 423.248 215.779H411.088V222.526H428.603C428.946 222.9 429.295 223.27 429.648 223.636C429.914 223.91 430.182 224.18 430.453 224.445Z" fill="#EFF4FB"/>
<path d="M434.364 227.815H411.203C410.783 227.544 410.373 227.262 409.967 226.971C410.855 226.298 411.96 225.899 413.159 225.899H432.019C432.782 226.572 433.564 227.211 434.364 227.815Z" fill="#EFF4FB"/>
<path d="M419.881 210.438H411.087V203.693H416.348C417.1 205.267 417.888 206.823 418.716 208.353H411.98C411.883 208.353 411.805 208.432 411.805 208.528C411.805 208.625 411.883 208.703 411.98 208.703H418.906C419.225 209.286 419.55 209.864 419.881 210.438Z" fill="#8FB0DE"/>
<path d="M428.603 222.526H411.087V215.779H423.247C423.628 216.33 424.018 216.877 424.415 217.417H418.686V219.075H425.675C426.089 219.601 426.512 220.121 426.943 220.634H412.307C412.21 220.634 412.132 220.713 412.132 220.809C412.132 220.906 412.21 220.984 412.307 220.984H427.24C427.684 221.505 428.139 222.019 428.603 222.526Z" fill="#8FB0DE"/>
<path d="M427.547 232.637C421.521 232.637 415.909 230.866 411.203 227.816H434.363C435.7 228.828 437.084 229.746 438.51 230.577C435.336 231.82 431.898 232.539 428.304 232.628C428.303 232.628 428.304 232.628 428.303 232.628C428.286 232.628 428.269 232.628 428.252 232.628C428.251 232.628 428.249 232.629 428.247 232.629C428.231 232.629 428.217 232.63 428.201 232.63C428.198 232.63 428.195 232.63 428.193 232.63C428.177 232.63 428.163 232.63 428.147 232.631C428.145 232.631 428.142 232.631 428.14 232.631C428.123 232.631 428.105 232.632 428.089 232.632H428.088C428.053 232.633 428.016 232.633 427.981 232.634C427.979 232.634 427.978 232.634 427.976 232.634C427.961 232.634 427.944 232.634 427.928 232.635C427.925 232.635 427.921 232.635 427.916 232.635C427.904 232.635 427.89 232.635 427.878 232.635C427.872 232.635 427.866 232.635 427.86 232.635C427.849 232.635 427.837 232.635 427.826 232.635C427.819 232.635 427.813 232.635 427.806 232.635C427.797 232.636 427.785 232.636 427.774 232.636C427.767 232.636 427.762 232.636 427.755 232.636C427.744 232.636 427.732 232.636 427.722 232.636C427.715 232.636 427.71 232.636 427.703 232.636C427.692 232.637 427.68 232.637 427.669 232.637C427.663 232.637 427.657 232.637 427.65 232.637C427.638 232.637 427.626 232.637 427.613 232.637C427.608 232.637 427.604 232.637 427.599 232.637C427.582 232.637 427.564 232.637 427.547 232.637ZM418.686 229.452V231.109H435.859V229.452H418.686Z" fill="#8FB0DE"/>
<path d="M414.716 200.137H413.16C410.238 200.137 407.868 197.772 407.868 194.847C407.868 192.821 409.007 191.06 410.679 190.171C410.836 190.588 410.995 191.004 411.154 191.421H411.09V198.166H413.863C414.143 198.825 414.427 199.482 414.716 200.137Z" fill="#EFF4FB"/>
<path d="M413.863 198.166H411.089V191.421H411.154C411.707 192.865 412.274 194.31 412.859 195.748H412.143C412.047 195.748 411.968 195.826 411.968 195.923C411.968 196.019 412.047 196.098 412.143 196.098H413.001C413.284 196.788 413.571 197.479 413.863 198.166Z" fill="#8FB0DE"/>
<path d="M425.676 219.075H418.687V217.417H424.415C424.827 217.976 425.247 218.529 425.676 219.075Z" fill="#E5B010"/>
<path d="M418.687 231.109H435.859V229.452H418.687V231.109Z" fill="#E5B010"/>
<path d="M413.001 196.097H412.143C412.047 196.097 411.968 196.019 411.968 195.922C411.968 195.826 412.047 195.747 412.143 195.747H412.859C412.906 195.865 412.953 195.98 413.001 196.097Z" fill="#24335C"/>
<path d="M418.906 208.703H411.979C411.883 208.703 411.804 208.625 411.804 208.528C411.804 208.432 411.883 208.353 411.979 208.353H418.715C418.779 208.47 418.842 208.586 418.906 208.703Z" fill="#24335C"/>
<path d="M427.24 220.984H412.307C412.21 220.984 412.132 220.906 412.132 220.809C412.132 220.713 412.21 220.634 412.307 220.634H426.943C427.042 220.751 427.141 220.867 427.24 220.984Z" fill="#24335C"/>
</g>
<path d="M487.09 101.545C487.09 120.071 472.071 135.089 453.544 135.089C435.019 135.089 420 120.071 420 101.545C420 83.0185 435.019 68 453.544 68C472.071 68 487.09 83.0185 487.09 101.545Z" fill="#E6F0FA"/>
<path d="M483.184 101.092C483.184 117.711 469.712 131.184 453.092 131.184C436.473 131.184 423 117.711 423 101.092C423 84.4719 436.473 70.9997 453.092 70.9997C469.712 70.9997 483.184 84.4719 483.184 101.092Z" fill="#8AD4D9"/>
<path d="M427.871 101.633C427.876 101.633 427.881 101.633 427.886 101.633C427.881 101.633 427.875 101.633 427.871 101.633ZM427.975 101.633C427.981 101.633 427.988 101.633 427.993 101.633C427.987 101.633 427.981 101.633 427.975 101.633ZM428.026 101.633C428.033 101.633 428.039 101.633 428.046 101.633C428.04 101.633 428.033 101.633 428.026 101.633ZM428.08 101.633C428.085 101.633 428.091 101.633 428.098 101.633C428.091 101.633 428.086 101.633 428.08 101.633ZM428.133 101.632C428.139 101.632 428.143 101.632 428.149 101.632C428.144 101.632 428.138 101.632 428.133 101.632ZM428.521 101.626C428.523 101.626 428.521 101.626 428.523 101.626H428.521ZM397.728 71.5417C397.728 71.527 397.728 71.5116 397.728 71.4976C397.728 71.5123 397.728 71.5263 397.728 71.5417ZM397.728 71.4822C397.728 71.4717 397.728 71.4626 397.728 71.4521C397.728 71.4612 397.728 71.4731 397.728 71.4822ZM397.728 71.436C397.728 71.4255 397.728 71.4164 397.728 71.4059C397.728 71.4157 397.728 71.4255 397.728 71.436ZM397.728 71.3905C397.728 71.3772 397.728 71.3625 397.728 71.3485C397.728 71.3618 397.728 71.3779 397.728 71.3905ZM397.73 71.1952C397.73 71.1833 397.73 71.1735 397.73 71.1616C397.73 71.1728 397.73 71.184 397.73 71.1952ZM397.73 71.1441C397.73 71.1322 397.73 71.1217 397.731 71.1098C397.73 71.121 397.73 71.1329 397.73 71.1441ZM397.731 71.0888C397.731 71.0811 397.731 71.0734 397.731 71.0664C397.731 71.0734 397.731 71.0818 397.731 71.0888ZM397.732 71.0447C397.732 71.037 397.732 71.0307 397.732 71.0223C397.732 71.0293 397.732 71.0377 397.732 71.0447ZM397.732 70.9992C397.732 70.9922 397.732 70.9859 397.733 70.9782C397.732 70.9852 397.732 70.9922 397.732 70.9992ZM397.734 70.9341C397.734 70.9285 397.734 70.9236 397.734 70.918C397.734 70.9229 397.734 70.9292 397.734 70.9341ZM397.735 70.8914C397.735 70.8851 397.735 70.8802 397.735 70.8739C397.735 70.8802 397.735 70.8858 397.735 70.8914ZM397.735 70.848C397.736 70.8424 397.736 70.8375 397.736 70.8319C397.736 70.8382 397.736 70.8417 397.735 70.848ZM397.739 70.729C397.739 70.7283 397.739 70.7262 397.739 70.7248C397.739 70.7262 397.739 70.7276 397.739 70.729ZM397.739 70.6919C397.739 70.6898 397.739 70.6863 397.739 70.6842C397.739 70.687 397.739 70.6891 397.739 70.6919ZM397.741 70.6506C397.741 70.6492 397.741 70.6464 397.741 70.6443C397.741 70.6464 397.741 70.6485 397.741 70.6506Z" fill="#ACBFE7"/>
<path d="M453.092 131.184C453.086 131.184 453.08 131.184 453.074 131.184C458.276 131.181 463.169 129.858 467.435 127.533C469.943 126.166 472.234 124.454 474.246 122.458L474.25 120.271C474.88 120.334 475.511 120.387 476.144 120.43C470.762 126.835 462.765 130.97 453.796 131.176C453.794 131.176 453.796 131.176 453.794 131.176C453.777 131.177 453.76 131.177 453.742 131.177C453.742 131.177 453.741 131.177 453.74 131.177C453.722 131.177 453.705 131.178 453.687 131.178C453.616 131.179 453.544 131.181 453.473 131.182C453.47 131.182 453.466 131.182 453.464 131.182C453.449 131.182 453.436 131.182 453.422 131.182C453.416 131.182 453.412 131.182 453.406 131.182C453.394 131.182 453.383 131.183 453.371 131.183C453.364 131.183 453.358 131.183 453.352 131.183C453.341 131.183 453.33 131.183 453.319 131.183C453.312 131.183 453.306 131.183 453.299 131.183C453.288 131.184 453.278 131.184 453.266 131.184C453.261 131.184 453.254 131.184 453.247 131.184C453.236 131.184 453.225 131.184 453.214 131.184C453.208 131.184 453.201 131.184 453.196 131.184C453.183 131.184 453.171 131.184 453.159 131.184C453.154 131.184 453.149 131.184 453.144 131.184C453.126 131.184 453.11 131.184 453.092 131.184ZM431.885 122.441C426.397 116.99 423 109.438 423 101.092C423 101.077 423 101.063 423 101.048C423 101.043 423 101.037 423 101.032C423 101.023 423 101.011 423 101.002C423 100.997 423 100.991 423 100.986C423.001 100.976 423.001 100.966 423.001 100.956C423.001 100.951 423.001 100.946 423.001 100.941C423.001 100.928 423.001 100.912 423.001 100.899C423.001 100.898 423.001 100.897 423.001 100.897C423.001 100.882 423.001 100.868 423.002 100.853C423.002 100.848 423.002 100.842 423.002 100.837C423.002 100.827 423.002 100.818 423.002 100.809C423.002 100.803 423.002 100.796 423.002 100.79C423.002 100.781 423.003 100.774 423.003 100.766C423.003 100.76 423.003 100.752 423.003 100.746C423.003 100.734 423.002 100.723 423.003 100.712C423.003 100.706 423.003 100.7 423.003 100.694C423.003 100.683 423.003 100.671 423.004 100.66C423.004 100.653 423.004 100.646 423.004 100.639C423.004 100.632 423.004 100.624 423.004 100.617C423.005 100.609 423.005 100.602 423.005 100.595C423.005 100.588 423.005 100.58 423.005 100.573C423.005 100.566 423.005 100.557 423.005 100.55C423.005 100.543 423.005 100.535 423.006 100.528C423.006 100.514 423.006 100.499 423.007 100.484C423.007 100.48 423.007 100.473 423.007 100.468C423.007 100.46 423.007 100.45 423.007 100.442C423.007 100.436 423.007 100.431 423.008 100.424C423.008 100.416 423.008 100.407 423.008 100.398C423.009 100.392 423.009 100.388 423.009 100.382C423.009 100.373 423.01 100.364 423.01 100.355C423.01 100.351 423.01 100.347 423.01 100.343C423.01 100.321 423.011 100.301 423.012 100.279C423.012 100.278 423.012 100.277 423.012 100.275C423.012 100.264 423.012 100.253 423.012 100.242C423.012 100.239 423.012 100.237 423.012 100.235C423.013 100.223 423.013 100.212 423.014 100.201C423.014 100.199 423.014 100.197 423.014 100.195C423.392 87.2817 431.909 76.417 443.611 72.5334C439.842 80.3419 439.406 88.7853 442.915 97.4184C443.177 98.0645 443.454 98.7022 443.747 99.3336C436.749 103.084 431.922 110.919 431.89 119.998C431.89 120.012 431.89 120.026 431.89 120.04L431.885 122.441Z" fill="#8AD4D9"/>
<mask id="mask4_863_10211" style="mask-type:luminance" maskUnits="userSpaceOnUse" x="423" y="71" width="61" height="61">
<path d="M483.6 101.545C483.6 118.164 470.13 131.636 453.51 131.636C436.89 131.636 423.418 118.164 423.418 101.545C423.418 84.9245 436.89 71.4523 453.51 71.4523C470.13 71.4523 483.6 84.9245 483.6 101.545Z" fill="white"/>
</mask>
<g mask="url(#mask4_863_10211)">
<path d="M456.163 97.6052C459.861 96.2136 462.563 91.9113 462.573 86.8118C462.584 80.5783 458.572 75.5167 453.608 75.5076C448.645 75.4985 444.613 80.544 444.599 86.7796C444.592 91.8777 447.276 96.1891 450.97 97.5961C440.496 98.9758 432.366 108.688 432.343 120.492L432.314 135.897L474.674 135.977L474.704 120.571C474.725 108.767 466.632 99.0234 456.163 97.6052Z" fill="#F5FEFF"/>
<path d="M453.509 131.637C445.254 131.637 437.775 128.312 432.338 122.929L432.343 120.493C432.343 120.479 432.343 120.465 432.343 120.451C432.384 108.746 440.4 99.1147 450.757 97.6349C452.881 110.374 458.084 122.264 467.888 127.986C463.622 130.311 458.729 131.634 453.527 131.637C453.521 131.637 453.516 131.637 453.509 131.637Z" fill="#EBF6F8"/>
<path d="M451.486 105.542L450.213 101.537L455.913 101.483L454.882 105.487L451.486 105.542Z" fill="#8FB0DE"/>
<path d="M453.416 116.528L449.789 111.249L451.548 105.016H454.823L456.521 110.885L453.416 116.528Z" fill="#8FB0DE"/>
</g>
<path d="M492.313 181.333C492.327 181.332 492.341 181.331 492.356 181.33C492.341 181.331 492.327 181.332 492.313 181.333ZM492.383 181.33C494.719 181.233 497.04 181.011 499.331 180.64C499.331 180.64 499.331 180.64 499.331 180.641C497.039 181.011 494.72 181.234 492.383 181.33Z" fill="#8D313D"/>
<path d="M504.542 179.518C504.05 177.838 503.551 176.167 502.835 174.564C503.551 176.167 504.051 177.838 504.542 179.518Z" fill="#8699D6"/>
<path d="M510.518 177.455C511.025 177.239 511.529 177.013 512.03 176.777C512.427 176.59 512.845 176.378 513.079 175.992C512.845 176.378 512.427 176.59 512.03 176.778C511.529 177.014 511.025 177.24 510.518 177.455Z" fill="#3852A4"/>
<path d="M467.928 124.174C467.934 124.151 467.94 124.128 467.946 124.105C467.94 124.128 467.934 124.151 467.928 124.174ZM467.948 124.096C468.623 121.429 469.352 118.777 470.134 116.143C469.353 118.777 468.623 121.43 467.948 124.096Z" fill="#8699D6"/>
<path d="M155.549 184.444C161.799 187.951 158.153 192.586 155.549 194.465L141.076 205.191C136.691 203.006 135.593 196.553 136.101 193.211C136.109 193.157 136.029 193.129 136.002 193.176C135.251 194.478 134 195.86 134 192.586C134 189.183 136.198 186.88 137.395 186.079C137.431 186.055 137.419 185.997 137.376 185.989C136.64 185.852 135.479 185.39 135.886 184.444C136.304 183.47 138.114 183.994 139.039 184.408C139.073 184.423 139.111 184.396 139.106 184.359C138.94 183.076 138.99 180.549 140.465 180.059C141.924 179.575 141.316 182.177 140.787 183.67C140.772 183.714 140.823 183.752 140.86 183.725C143.533 181.779 146.832 180.059 147.946 180.059C148.89 180.059 148.636 182.46 146.391 183.191C148.007 182.773 152.102 182.439 155.549 184.444Z" fill="#2E384D"/>
<path d="M148.071 207.705C155.5 205.667 154.689 196.325 154.689 192.958C154.462 195.373 149.967 192.964 147.652 191.397C147.617 191.373 147.584 191.35 147.553 191.33C147.585 191.352 147.618 191.374 147.652 191.397C148.236 191.812 149.184 192.781 148.966 193.852C148.559 196.209 145.116 194.267 143.196 192.824C143.06 192.722 142.863 192.79 142.821 192.955L141.51 198.205C141.478 198.334 141.291 198.319 141.279 198.187L141.011 195.17C141.007 195.121 140.988 195.075 140.955 195.038C140.109 194.086 138.487 193.084 138.393 196.325C138.298 199.631 139.656 200.608 140.348 200.683C141.598 205.424 145.334 208.132 148.071 207.705Z" fill="#FACCC4"/>
<defs>
<linearGradient id="paint0_linear_863_10211" x1="325" y1="0" x2="325" y2="350" gradientUnits="userSpaceOnUse">
<stop stop-color="#DCF3FE"/>
<stop offset="1" stop-color="#DEF4FF"/>
</linearGradient>
<linearGradient id="paint1_linear_863_10211" x1="52" y1="341" x2="406" y2="341" gradientUnits="userSpaceOnUse">
<stop stop-color="#91C6DD"/>
<stop offset="1" stop-color="#32A8B6"/>
</linearGradient>
<linearGradient id="paint2_linear_863_10211" x1="422.577" y1="172.111" x2="558.423" y2="209.19" gradientUnits="userSpaceOnUse">
<stop stop-color="#A1BFFB"/>
<stop offset="1" stop-color="#A1BFFB" stop-opacity="0.29"/>
</linearGradient>
<linearGradient id="paint3_linear_863_10211" x1="574.135" y1="10.3198" x2="565.89" y2="31.923" gradientUnits="userSpaceOnUse">
<stop stop-color="#A1BFFB"/>
<stop offset="1" stop-color="#799FF9" stop-opacity="0.31"/>
</linearGradient>
<linearGradient id="paint4_linear_863_10211" x1="457.055" y1="-31.6074" x2="400.578" y2="91.9934" gradientUnits="userSpaceOnUse">
<stop stop-color="#A1BFFB" stop-opacity="0.37"/>
<stop offset="1" stop-color="#A1BFFB" stop-opacity="0.33"/>
</linearGradient>
</defs>
</svg>
