<svg width="650" height="350" viewBox="0 0 650 350" fill="none" xmlns="http://www.w3.org/2000/svg">
<rect width="650" height="350" rx="5" fill="url(#paint0_linear_863_12239)"/>
<path d="M569 304.176C569 308.855 456.176 315 317 315C177.824 315 65 308.855 65 304.176C65 299.498 177.824 299 317 299C456.176 299 569 299.498 569 304.176Z" fill="#E1F6FF"/>
<rect x="431.767" y="51.3018" width="111.233" height="81.8356" fill="url(#paint1_linear_863_12239)"/>
<rect x="427" y="140.288" width="120.767" height="12.7123" fill="url(#paint2_linear_863_12239)"/>
<rect x="536.644" y="51.3018" width="6.35616" height="81.8356" fill="white"/>
<rect x="485" y="51.3018" width="5.56164" height="81.8356" fill="white"/>
<rect x="547.767" y="133.137" width="7.15069" height="120.767" transform="rotate(90 547.767 133.137)" fill="white"/>
<rect x="431.767" y="51.3018" width="6.35616" height="81.8356" fill="white"/>
<g filter="url(#filter0_d_863_12239)">
<rect x="543" y="37" width="36.548" height="111.233" transform="rotate(90 543 37)" fill="white"/>
</g>
<rect x="543" y="37" width="3.17809" height="111.233" transform="rotate(90 543 37)" fill="#2B80C1"/>
<rect x="543" y="43.3564" width="0.39726" height="111.233" transform="rotate(90 543 43.3564)" fill="#2B80C1"/>
<rect x="543" y="48.123" width="0.39726" height="111.233" transform="rotate(90 543 48.123)" fill="#2B80C1"/>
<rect x="543" y="52.8906" width="0.39726" height="111.233" transform="rotate(90 543 52.8906)" fill="#2B80C1"/>
<rect x="543" y="57.6582" width="0.39726" height="111.233" transform="rotate(90 543 57.6582)" fill="#2B80C1"/>
<rect x="543" y="62.4248" width="0.39726" height="111.233" transform="rotate(90 543 62.4248)" fill="#2B80C1"/>
<rect x="543" y="67.1924" width="0.39726" height="111.233" transform="rotate(90 543 67.1924)" fill="#2B80C1"/>
<rect x="543" y="73.5488" width="0.39726" height="111.233" transform="rotate(90 543 73.5488)" fill="#2B80C1"/>
<rect x="436.534" y="73.5488" width="0.39726" height="35.7534" transform="rotate(-180 436.534 73.5488)" fill="#2B80C1"/>
<rect x="539.425" y="73.5488" width="0.39726" height="35.7534" transform="rotate(-180 539.425 73.5488)" fill="#2B80C1"/>
<path d="M118 91.2345C118 90.0425 119.036 89.1151 120.221 89.2468L140.221 91.469C141.234 91.5815 142 92.4377 142 93.4568V123.816C142 124.835 141.234 125.691 140.221 125.804L120.221 128.026C119.036 128.158 118 127.23 118 126.038V91.2345Z" fill="#FF66A9"/>
<rect x="122.364" y="107.546" width="1.45455" height="12" fill="white"/>
<rect x="126" y="101" width="1.45455" height="18.5455" fill="white"/>
<rect x="130.364" y="95.5459" width="1.45455" height="24" fill="white"/>
<rect x="134.728" y="98.8184" width="1.45455" height="20.7273" fill="white"/>
<path d="M398.889 266.063L400.358 266.063L383.837 304.967L382.417 304.967L398.889 266.063Z" fill="#C4C4C4"/>
<path d="M478.086 266.062L476.192 267.199L492.886 304.967L494.558 304.967L478.086 266.062Z" fill="#C4C4C4"/>
<path d="M408.465 266.062L406.926 267.128L423.621 304.967L424.937 304.967L408.465 266.062Z" fill="#C4C4C4"/>
<path d="M460.401 266.062L461.94 267.128L445.245 304.967L443.929 304.967L460.401 266.062Z" fill="#C4C4C4"/>
<path d="M458.787 186.496L474.742 187.574C480.388 187.955 484.593 192.942 484.016 198.571L480.132 236.439C479.726 240.393 476.113 243.216 472.179 242.654L454.524 240.132L458.787 186.496Z" fill="#E6C6D5"/>
<path d="M457.562 234.853L474.83 235.048C480.308 235.11 484.717 239.569 484.717 245.047L484.717 265.242C484.717 268.909 481.887 271.954 478.23 272.223L460.562 273.522L457.562 234.853Z" fill="#E6C6D5"/>
<path d="M414.618 203.005C416.114 193.134 424.659 185.878 434.642 186.003L455.661 186.266C465.38 186.387 472.747 195.076 471.276 204.685L463.404 256.117H429.829C417.59 256.117 408.222 245.222 410.055 233.12L414.618 203.005Z" fill="#F3D9E4"/>
<path d="M393.783 253.275H469.798L469.435 255.908C468.029 266.103 459.115 273.567 448.831 273.16L404.069 271.387C399.011 271.187 394.9 267.238 394.497 262.192L393.783 253.275Z" fill="#F4D8E4"/>
<path d="M398.886 271.64C394.947 271.91 391.524 268.962 391.207 265.027L389.706 246.396C389.166 239.695 394.204 233.844 400.911 233.383L401.618 233.335C407.822 232.909 413.214 237.552 413.714 243.751L414.5 253.508C415.252 262.845 408.232 270.998 398.886 271.64Z" fill="#F4D8E4"/>
<path d="M459.721 273.455C454.462 273.355 450.435 268.742 451.046 263.517L453.795 240.009C454.177 236.735 457.13 234.382 460.406 234.741L464.969 235.24C468.161 235.589 470.512 238.389 470.304 241.593L468.778 265.128C468.47 269.878 464.48 273.546 459.721 273.455Z" fill="#F4D8E4"/>
<path d="M418.019 279.512C418.319 278.918 419.396 275.551 419.896 273.941V272.827L425.397 272.456C425.397 273.323 425.042 275.117 425.042 276.008C425.042 277.122 425.336 280.545 426.462 282.402C427.589 284.259 428.534 287.682 428.534 288.053C428.534 288.424 426.656 288.796 425.529 288.796C424.628 288.796 420.647 288.053 418.77 287.682C418.019 287.31 416.517 286.493 416.517 286.196C416.517 285.825 417.643 280.255 418.019 279.512Z" fill="#E6B6AA"/>
<path d="M410.496 299.076C411.58 297.784 410.496 292.348 410.496 292.348L404.426 292.721C405.184 292.721 404.027 293.411 403.374 294.479C402.235 296.34 399.991 296.91 397.335 298.031C395.211 298.928 389.629 300.495 389.909 301.49C390.189 302.485 391.806 303.359 391.806 303.359C393.197 303.982 397.8 304.854 400.532 303.359C403.946 301.49 404.705 301.116 406.602 300.369C408.12 299.771 409.412 300.369 410.496 299.076Z" fill="#E6B6AA"/>
<path d="M436.763 195.021L444.578 193.955L449.551 212.426L436.763 213.136V195.021Z" fill="#E6B6AA"/>
<path d="M450.359 184.269C451.363 191.458 445.787 200.33 441.214 200.968C434.178 201.95 429.699 195.558 428.695 188.37C427.811 182.037 430.454 177.006 436.671 176.138C442.889 175.27 449.356 177.08 450.359 184.269Z" fill="#E6B6AA"/>
<rect x="455.589" y="221.306" width="7.8146" height="16.3396" fill="#E6B6AA"/>
<rect x="423.912" y="220.596" width="7.8146" height="16.3396" transform="rotate(11.0561 423.912 220.596)" fill="#E6B6AA"/>
<path d="M422.182 219.538C422.824 211.324 428.81 204.519 436.875 202.835C436.875 202.835 436.494 205.045 437.118 206.742C437.703 208.331 439.96 211.005 439.96 211.005C439.96 211.005 443.571 208.428 444.933 206.742C446.22 205.149 446.953 202.835 446.953 202.835C456.234 204.72 463.087 212.611 463.653 222.065L463.937 226.812L454.169 227.7V214.202V245.105L423.265 247.236L427.528 215.267L425.692 229.12L421.489 228.41L422.182 219.538Z" fill="#FBE547"/>
<path d="M454.524 244.395C453.92 238.962 446.982 238.39 441.026 238.711C439.25 238.807 420.14 239.635 411.899 243.329C403.658 247.023 406.571 274.587 403.729 293.769H411.899C419.003 264.286 415.775 259.982 418.648 257.892C422.555 255.051 436.053 257.892 441.026 257.892C452.393 257.892 455.234 250.788 454.524 244.395Z" fill="#344A79"/>
<path d="M432.679 221.722C431.237 220.309 431.035 218.07 432.181 216.408C432.736 215.602 433.856 215.439 434.613 216.058C437.481 218.402 444.006 223.741 447.064 226.279C450.217 228.896 453.312 228.89 456.901 230.24C457.244 230.369 457.628 230.52 458.037 230.684C461.127 231.925 462.126 235.77 460.14 238.442C458.551 240.581 455.606 241.164 453.399 239.671C451.114 238.126 448.157 235.997 445.427 233.64C441.198 229.99 435.779 224.76 432.679 221.722Z" fill="#E6B6AA"/>
<rect x="424.233" y="208.133" width="7.34217" height="13.5018" rx="2" transform="rotate(-11.3641 424.233 208.133)" fill="black"/>
<path d="M424.037 210.795C424.106 210.704 424.23 210.669 424.335 210.712L432.976 214.214C433.587 214.462 433.86 215.15 433.584 215.749C433.317 216.332 432.629 216.618 432.029 216.388C430.168 215.673 426.405 214.178 424.927 213.221C424.481 212.932 424.111 212.179 423.992 211.668C423.92 211.357 423.955 211.059 423.978 210.927C423.986 210.879 424.008 210.835 424.037 210.795Z" fill="#E6B6AA"/>
<path d="M425.879 220.812C425.817 220.4 426.094 219.987 426.499 219.889L433.454 218.206C433.627 218.164 433.79 218.273 433.817 218.45C433.978 219.508 433.266 220.571 432.225 220.823L427.573 221.948C426.764 222.144 426.005 221.636 425.879 220.812Z" fill="#E6B6AA"/>
<path d="M425.152 218.918C425.095 218.348 425.505 217.801 426.068 217.696L433.378 216.326C433.378 216.326 433.895 216.704 433.933 217.499C433.943 217.718 433.923 217.904 433.889 218.057C433.797 218.472 433.39 218.688 432.983 218.764L426.553 219.969C425.85 220.1 425.223 219.63 425.152 218.918Z" fill="#E6B6AA"/>
<path d="M424.593 216.876C424.529 216.235 424.991 215.62 425.624 215.501L431.939 214.318C432.691 214.177 433.492 214.457 433.691 215.186C433.797 215.57 433.704 215.895 433.596 216.113C433.495 216.319 433.284 216.43 433.067 216.47L425.855 217.822C425.222 217.94 424.657 217.517 424.593 216.876Z" fill="#E6B6AA"/>
<path d="M415.578 240.075C415.339 236.543 417.896 233.436 421.409 232.992C425.61 232.46 429.241 235.919 428.914 240.141L426.107 276.363C426.107 276.363 424.429 275.726 422.555 275.653C420.503 275.572 418.044 276.577 418.044 276.577L415.578 240.075Z" fill="#344A79"/>
<path d="M432.856 181.523C435.501 176.013 442.472 177.665 444.578 181.878C448.485 189.693 442.447 191.824 446.709 202.48C450.143 204.019 454.524 205.322 454.524 205.322C454.524 205.322 454.169 203.19 454.169 188.272C454.169 173.353 437.474 170.511 430.725 177.971C425.326 183.938 427.054 197.389 429.304 206.032L433.567 204.611L437.119 203.546C435.343 191.469 428.594 190.403 432.856 181.523Z" fill="#3B3A73"/>
<path d="M133 104.607C133 100.512 136.5 97.2915 140.581 97.6313L213.581 103.711C217.209 104.013 220 107.046 220 110.686V298.239C220 301.911 217.163 304.959 213.501 305.221L140.501 310.462C136.448 310.752 133 307.543 133 303.48V104.607Z" fill="#2B80C1"/>
<path d="M142 107.335C142 104.446 144.441 102.159 147.324 102.346L214.324 106.696C216.954 106.867 219 109.05 219 111.686V296.314C219 298.95 216.954 301.133 214.324 301.304L147.324 305.654C144.441 305.841 142 303.554 142 300.665V107.335Z" fill="#DEF4FF"/>
<mask id="mask0_863_12239" style="mask-type:alpha" maskUnits="userSpaceOnUse" x="142" y="102" width="77" height="204">
<path d="M142 107.335C142 104.446 144.441 102.159 147.324 102.346L214.324 106.696C216.954 106.867 219 109.05 219 111.686V296.314C219 298.95 216.954 301.133 214.324 301.304L147.324 305.654C144.441 305.841 142 303.554 142 300.665V107.335Z" fill="#DEF4FF"/>
</mask>
<g mask="url(#mask0_863_12239)">
<path d="M216 202.309C216 183.361 204.52 165.204 185.755 162.569C183.489 162.251 181.283 162.048 179.219 162.008C176.214 161.949 172.928 162.222 169.571 162.705C150.679 165.423 139 183.501 139 202.587V220.5C139 241.763 156.237 259 177.5 259C198.763 259 216 241.763 216 220.5V202.309Z" fill="white"/>
<path d="M243.541 217.823C219.927 220.886 207.571 218.892 194.792 205.145C183.518 193.017 182.136 163.44 194.792 164.857C219.59 167.632 231.244 196.404 241.806 196.404C252.368 196.404 268.758 183.657 274.949 178.922L288.89 194.034C283.427 201.318 265.203 215.013 243.541 217.823Z" fill="white"/>
<rect width="16.7536" height="40.7914" rx="8.37681" transform="matrix(-1 0 0 1 186.447 137.037)" fill="#DCA553"/>
<path d="M196.429 121.825C186.995 112.311 181.482 114.442 170.195 118.441C158.908 122.44 160.684 139.508 169.528 144.34C178.372 149.173 185.447 158.404 192.159 154.88C198.87 151.356 205.864 131.339 196.429 121.825Z" fill="#DCA553"/>
<path d="M170.927 129.364C171.685 126.724 174.524 130.307 174.903 123.707C176.417 123.707 178.992 124.009 182.475 122.953C186.829 121.633 187.539 122.387 187.539 122.387C187.539 122.387 189.669 121.255 194.401 122.387C199.134 123.518 197.2 131.439 201.743 128.233C206.287 125.027 200.418 117.448 198.146 116.73C195.21 115.801 196.134 115.243 195.188 115.055C195.566 114.489 193.366 113.335 190.817 113.335C187.146 113.335 187.397 112.581 176.417 113.335C165.438 114.089 162.409 122.953 162.409 128.233C163.923 127.177 165.627 126.724 166.763 128.233C167.899 129.741 167.331 136.907 167.331 136.907C168.025 136.279 170 132.597 170.927 129.364Z" fill="#141414"/>
<path d="M160.273 166.644L161.76 178.793L167.707 182.51V186.599L185.178 198.494L192.983 187.714L191.125 182.51L195.548 180.397L194.099 166.644" stroke="black" stroke-width="0.5"/>
<mask id="mask1_863_12239" style="mask-type:alpha" maskUnits="userSpaceOnUse" x="140" y="161" width="76" height="66">
<path d="M215.915 202.512C215.915 181.691 201.983 161.951 181.172 161.305C180.814 161.294 180.46 161.286 180.11 161.282C178.771 161.264 177.376 161.292 175.943 161.359C155.042 162.336 140.958 181.809 140.958 202.733V216.069C140.958 221.592 145.435 226.069 150.958 226.069H215.915V202.512Z" fill="white"/>
</mask>
<g mask="url(#mask1_863_12239)">
<path d="M178.078 168.501C168.762 168.143 169.528 159.58 169.528 159.58C169.528 159.58 165.695 167.163 167.335 173.96C170.115 185.483 182.575 189.944 182.575 189.944C182.575 189.944 187.408 186.227 190.01 176.19C191.697 169.681 186.627 160.324 186.627 160.324C186.627 160.324 187.742 168.873 178.078 168.501Z" fill="#7368FE"/>
</g>
<ellipse cx="183.5" cy="278" rx="7.5" ry="11" fill="#F53689"/>
</g>
<path d="M354 92C354 108.016 341.016 121 325 121C308.984 121 296 108.016 296 92C296 75.9837 308.984 63 325 63C341.016 63 354 75.9837 354 92Z" fill="url(#paint3_linear_863_12239)"/>
<rect x="325" y="74.4238" width="0.878788" height="17.5758" fill="#1A2E4A"/>
<rect x="311.818" y="92.8789" width="0.878787" height="14.9394" transform="rotate(-90 311.818 92.8789)" fill="#1A2E4A"/>
<path d="M328.515 92.439C328.515 94.1377 327.138 95.5148 325.44 95.5148C323.741 95.5148 322.364 94.1377 322.364 92.439C322.364 90.7403 323.741 89.3633 325.44 89.3633C327.138 89.3633 328.515 90.7403 328.515 92.439Z" fill="#1A2E4A"/>
<path d="M127 183.28C127 182.072 128.063 181.14 129.261 181.297L163.261 185.771C164.256 185.902 165 186.75 165 187.754V215.438C165 216.466 164.22 217.327 163.196 217.428L129.196 220.783C128.02 220.899 127 219.975 127 218.793V183.28Z" fill="#E6B6AA"/>
<path d="M144.06 188.937C143.454 188.333 142.649 188 141.792 188C140.935 188 140.129 188.333 139.523 188.936C139.516 188.944 139.508 188.952 139.5 188.96C139.492 188.952 139.485 188.944 139.477 188.937C138.871 188.333 138.065 188 137.208 188C136.351 188 135.546 188.333 134.94 188.937C134.333 189.54 134 190.343 134 191.196C134 192.05 134.334 192.853 134.94 193.456L139.5 198L144.06 193.456C144.666 192.853 145 192.05 145 191.196C145 190.343 144.666 189.54 144.06 188.937Z" fill="white"/>
<path d="M134 200L160 200.5V202H134V200Z" fill="white"/>
<path d="M134 203L160 203.5V205H134V203Z" fill="white"/>
<path d="M134 206L160 206.5V208H134V206Z" fill="white"/>
<path d="M134 209H160V210.5L134 211V209Z" fill="white"/>
<rect width="30.5319" height="16.383" rx="5" transform="matrix(-1 0 0 1 414.766 168.117)" fill="#DEF4FF"/>
<path fill-rule="evenodd" clip-rule="evenodd" d="M417 172C417 169.239 414.761 167 412 167H387C384.239 167 382 169.239 382 172V180.617C382 183.378 384.239 185.617 387 185.617H412C414.761 185.617 417 183.378 417 180.617V172ZM414.021 171.468C414.021 170.646 413.354 169.979 412.532 169.979H398.755C397.933 169.979 397.266 170.646 397.266 171.468C397.266 172.291 397.933 172.957 398.755 172.957H412.532C413.354 172.957 414.021 172.291 414.021 171.468ZM411.787 174.819C412.61 174.819 413.277 175.486 413.277 176.309C413.277 177.131 412.61 177.798 411.787 177.798H397.266C396.443 177.798 395.777 177.131 395.777 176.309C395.777 175.486 396.443 174.819 397.266 174.819H411.787ZM414.021 181.149C414.021 180.327 413.354 179.66 412.532 179.66H389.074C388.252 179.66 387.585 180.327 387.585 181.149C387.585 181.972 388.252 182.639 389.074 182.639H412.532C413.354 182.639 414.021 181.972 414.021 181.149ZM393.543 174.819C394.365 174.819 395.032 175.486 395.032 176.309C395.032 177.131 394.365 177.798 393.543 177.798H386.84C386.018 177.798 385.351 177.131 385.351 176.309C385.351 175.486 386.018 174.819 386.84 174.819H393.543Z" fill="white"/>
<path d="M414.952 189.713V184.128H409.367L414.952 189.713Z" fill="white"/>
<path d="M234 147.5C244 163.5 248.176 185.694 292.5 182C364.5 176 400.472 203.09 420 211.596M229 236.5C259.249 284.537 327.5 162.5 418.086 210.909" stroke="#1A2E4A" stroke-width="0.5" stroke-dasharray="1 3.4"/>
<path d="M214 124.506C214 122.664 215.644 121.257 217.464 121.542L233.464 124.047C234.924 124.276 236 125.534 236 127.011V152.746C236 154.327 234.774 155.636 233.197 155.74L217.197 156.79C215.466 156.904 214 155.531 214 153.797V124.506Z" fill="#344A79"/>
<path fill-rule="evenodd" clip-rule="evenodd" d="M226.201 138.03V134.722L223.688 134.333V137.904L219.5 137.693V139.933H223.688V143.666L226.201 143.277V139.933H230V138.222L226.201 138.03Z" fill="white"/>
<path d="M214 223.235C214 222.043 215.036 221.115 216.221 221.247L234.221 223.247C235.234 223.359 236 224.215 236 225.235V252.765C236 253.785 235.234 254.641 234.221 254.753L216.221 256.753C215.036 256.885 214 255.957 214 254.765V223.235Z" fill="#344A79"/>
<rect x="218" y="238" width="1.33333" height="11" fill="#FBE547"/>
<rect x="221.333" y="232" width="1.33333" height="17" fill="#FBE547"/>
<rect x="225.333" y="227" width="1.33333" height="22" fill="#FBE547"/>
<rect x="229.333" y="230" width="1.33333" height="19" fill="#FBE547"/>
<defs>
<filter id="filter0_d_863_12239" x="431.767" y="37" width="111.233" height="39.5479" filterUnits="userSpaceOnUse" color-interpolation-filters="sRGB">
<feFlood flood-opacity="0" result="BackgroundImageFix"/>
<feColorMatrix in="SourceAlpha" type="matrix" values="0 0 0 0 0 0 0 0 0 0 0 0 0 0 0 0 0 0 127 0" result="hardAlpha"/>
<feOffset dy="3"/>
<feComposite in2="hardAlpha" operator="out"/>
<feColorMatrix type="matrix" values="0 0 0 0 0 0 0 0 0 0 0 0 0 0 0 0 0 0 0.05 0"/>
<feBlend mode="normal" in2="BackgroundImageFix" result="effect1_dropShadow_863_12239"/>
<feBlend mode="normal" in="SourceGraphic" in2="effect1_dropShadow_863_12239" result="shape"/>
</filter>
<linearGradient id="paint0_linear_863_12239" x1="325" y1="0" x2="325" y2="356.5" gradientUnits="userSpaceOnUse">
<stop stop-color="#F4FEF7"/>
<stop offset="1" stop-color="#F5FFF9"/>
</linearGradient>
<linearGradient id="paint1_linear_863_12239" x1="487.384" y1="51.3018" x2="487.384" y2="154.192" gradientUnits="userSpaceOnUse">
<stop stop-color="#E3E5FF"/>
<stop offset="1" stop-color="#F7F7FF"/>
</linearGradient>
<linearGradient id="paint2_linear_863_12239" x1="487.384" y1="133.932" x2="487.384" y2="153" gradientUnits="userSpaceOnUse">
<stop stop-color="#A3CEE0"/>
<stop offset="0.871116" stop-color="#A3CEE0" stop-opacity="0"/>
</linearGradient>
<linearGradient id="paint3_linear_863_12239" x1="325" y1="63" x2="325" y2="121" gradientUnits="userSpaceOnUse">
<stop stop-color="white"/>
<stop offset="1" stop-color="#DEF4FF"/>
</linearGradient>
</defs>
</svg>
