<svg width="43" height="44" viewBox="0 0 43 44" fill="none" xmlns="http://www.w3.org/2000/svg">
<circle cx="21.5" cy="21.5264" r="21.5" fill="#FAFAFA"/>
<path d="M21.8898 23.6137L13.3638 18.1878C12.923 17.8963 12.6143 17.4434 12.5042 16.9265C12.3941 16.4096 12.4914 15.8702 12.7751 15.4244C13.0588 14.9786 13.5063 14.662 14.0212 14.5428C14.536 14.4237 15.0771 14.5115 15.5278 14.7874L21.783 18.7678L27.3992 14.8363C27.8374 14.5394 28.3748 14.4267 28.8953 14.5227C29.4159 14.6186 29.8778 14.9155 30.1813 15.3491C30.4848 15.7828 30.6055 16.3184 30.5175 16.8403C30.4294 17.3623 30.1395 17.8286 29.7105 18.1386L21.8898 23.6137Z" fill="#EA4435"/>
<path d="M29.2266 28.5811H26.5391V16.4873C26.5391 15.9527 26.7514 15.44 27.1294 15.062C27.5074 14.684 28.0201 14.4717 28.5547 14.4717C29.0893 14.4717 29.6019 14.684 29.9799 15.062C30.358 15.44 30.5703 15.9527 30.5703 16.4873V27.2373C30.5703 27.5937 30.4287 27.9355 30.1767 28.1875C29.9247 28.4395 29.5829 28.5811 29.2266 28.5811Z" fill="#00AC47"/>
<path d="M30.5412 16.1953C30.5352 16.155 30.5357 16.1138 30.5273 16.0736C30.5144 16.0119 30.4904 15.9549 30.472 15.8954C30.4542 15.8273 30.4327 15.7601 30.4077 15.6943C30.3942 15.6624 30.3735 15.6344 30.3583 15.6033C30.3165 15.5138 30.2681 15.4274 30.2136 15.345C30.1867 15.306 30.1531 15.2727 30.1234 15.2358C30.0724 15.1686 30.0173 15.1047 29.9584 15.0443C29.9138 15.0009 29.8628 14.9645 29.8143 14.9253C29.7626 14.8811 29.7088 14.8394 29.653 14.8006C29.5997 14.7658 29.5414 14.739 29.485 14.7093C29.4256 14.6783 29.3675 14.6446 29.3056 14.6198C29.2459 14.5958 29.1822 14.5805 29.1198 14.5621C29.0574 14.5438 28.9953 14.5218 28.9312 14.5099C28.8518 14.4972 28.7717 14.4891 28.6914 14.4857C28.6404 14.4822 28.5898 14.4732 28.5386 14.4736C28.4436 14.4764 28.3489 14.486 28.2552 14.5022C28.2173 14.5078 28.1792 14.5074 28.1417 14.5152C28.0149 14.5539 27.8885 14.5938 27.7624 14.6348C27.7278 14.6495 27.6975 14.6715 27.664 14.6882C27.3228 14.8474 27.035 15.102 26.8354 15.4213C26.6359 15.7405 26.533 16.1107 26.5393 16.4872V20.3585L29.7106 18.1385C30.022 17.9295 30.2662 17.6347 30.4135 17.2898C30.5609 16.9449 30.6054 16.5648 30.5412 16.1953Z" fill="#FFBA00"/>
<path d="M14.4453 14.4717C14.9799 14.4717 15.4926 14.684 15.8706 15.062C16.2486 15.44 16.4609 15.9527 16.4609 16.4873V28.5811H13.7734C13.4171 28.5811 13.0753 28.4395 12.8233 28.1875C12.5713 27.9355 12.4297 27.5937 12.4297 27.2373V16.4873C12.4297 15.9527 12.642 15.44 13.0201 15.062C13.3981 14.684 13.9107 14.4717 14.4453 14.4717Z" fill="#4285F4"/>
<path d="M12.4595 16.1958C12.4654 16.1555 12.4649 16.1143 12.4733 16.0741C12.4862 16.0124 12.5102 15.9554 12.5286 15.8959C12.5464 15.8278 12.5679 15.7607 12.593 15.6948C12.6064 15.6629 12.6271 15.6349 12.6424 15.6039C12.6842 15.5143 12.7326 15.4279 12.7871 15.3455C12.814 15.3064 12.8476 15.2732 12.8773 15.2362C12.9282 15.1691 12.9833 15.1051 13.0422 15.0448C13.0869 15.0013 13.1378 14.965 13.1864 14.9258C13.238 14.8815 13.2919 14.8399 13.3477 14.8011C13.401 14.7662 13.4593 14.7394 13.5157 14.7097C13.5739 14.6768 13.6338 14.6468 13.695 14.6198C13.7548 14.5958 13.8185 14.5805 13.8809 14.5621C13.9432 14.5438 14.0054 14.5218 14.0695 14.5099C14.1489 14.4972 14.229 14.4891 14.3093 14.4857C14.3604 14.4822 14.4109 14.4732 14.4621 14.4736C14.5571 14.4764 14.6518 14.486 14.7455 14.5022C14.7833 14.5078 14.8214 14.5074 14.8591 14.5152C14.9241 14.5317 14.9882 14.5517 15.0512 14.5748C15.1146 14.5917 15.177 14.6117 15.2383 14.6348C15.2729 14.6495 15.3032 14.6715 15.3368 14.6882C15.4239 14.7291 15.5079 14.7762 15.5882 14.8293C15.8574 15.0141 16.0775 15.2617 16.2296 15.5506C16.3817 15.8395 16.4612 16.1611 16.4612 16.4877V20.359L13.29 18.1391C12.9786 17.93 12.7345 17.6352 12.5871 17.2904C12.4397 16.9455 12.3954 16.5653 12.4595 16.1958Z" fill="#C52528"/>
</svg>
