<svg width="1108" height="685" viewBox="0 0 1108 685" fill="none" xmlns="http://www.w3.org/2000/svg">
<path d="M186.444 172.351C125.649 168.708 137.651 251.852 79.8543 260.898C47.2656 265.999 24.0898 247.358 3.76774 224.222" stroke="#1A2E4A" stroke-dasharray="2 2"/>
<path d="M179.755 462.954C237.053 545.835 18.2641 530.536 74.4924 598.282" stroke="#84A1FF" stroke-width="2"/>
<g filter="url(#filter0_f_863_11424)">
<path d="M150.691 120.013C150.684 108.962 159.64 100 170.691 100H946.309C957.36 100 966.316 108.962 966.309 120.013L966.015 564.002C966.007 575.798 955.929 585.093 944.166 584.218C895.44 580.594 765.441 572.706 557.024 572.706C349.232 572.706 221.13 580.547 172.872 584.185C161.093 585.073 150.993 575.768 150.985 563.956L150.691 120.013Z" fill="black" fill-opacity="0.3"/>
</g>
<rect x="122" y="66" width="874" height="500" rx="20" fill="#1A2E4A"/>
<rect x="132" y="76" width="854" height="480" rx="10" fill="white"/>
<path d="M850.36 551.425C784.436 635.625 1025.42 551.424 999.706 635.625" stroke="#84A1FF" stroke-width="2"/>
<path d="M973.281 277.726C974.17 292.698 983.649 306.94 997.046 313.72C1012.32 321.49 1021.71 313.817 1023.13 306.972C1024.02 302.317 1020.76 296.753 1015.81 295.974C1006.97 294.644 1000.56 309.73 1009.64 319.933C1013 323.68 1018.1 325.935 1022.99 325.821C1031.29 325.74 1038.27 319.77 1044.08 313.996C1045.36 312.682 1046.63 311.368 1047.99 309.94C1050.94 306.745 1054.57 302.835 1058.41 298.391" stroke="#84A1FF" stroke-width="2" stroke-miterlimit="10" stroke-linecap="round" stroke-linejoin="round"/>
<path d="M1063.02 287.215L1057.9 290.07C1056.99 290.621 1057 291.821 1057.91 292.47L1067.16 297.84" fill="#667FFF"/>
<path d="M1104.09 256.691L1100.47 258.396L1062.42 276.159C1060.65 276.955 1059.9 278.985 1060.52 280.788L1065.86 294.836L1066.95 297.661L1070.01 305.473C1070.7 307.162 1073.06 307.471 1074 305.912L1100.53 262.196L1104.09 256.691Z" fill="#84A1FF"/>
<path d="M1104.09 256.669L1100.48 258.375L1066.03 294.802L1067.04 297.743L1100.73 262.145L1104.09 256.669Z" fill="#667FFF"/>
<path d="M61.2931 112.031C61.5902 111.654 61.5975 111.121 61.2707 110.638L60.3645 109.843C59.9932 109.566 59.451 109.581 59.154 109.958L51.1933 118.866C50.8962 119.243 50.8889 119.776 51.2602 120.053L52.1664 120.848C52.5378 121.125 53.0799 121.11 53.377 120.733C54.6545 121.805 56.3999 122.208 58.1526 122.078L60.3658 121.813C60.7 121.763 60.8634 122.004 60.8189 122.211L60.6631 124.428C60.5148 126.113 61.2428 127.733 62.3941 128.89C62.097 129.267 62.0897 129.8 62.461 130.077L63.3672 130.872C63.902 131.391 64.5704 131.29 64.8675 130.913L72.8281 122.006C73.1252 121.628 73.1325 121.095 72.7612 120.819L71.855 120.023C71.4836 119.747 70.9415 119.761 70.6444 120.139C69.3669 119.067 67.6215 118.663 65.9505 118.914L63.6111 119.265C63.2769 119.315 63.1135 119.073 63.158 118.867L63.3137 116.649C63.1724 114.809 62.5261 113.31 61.2931 112.031ZM61.0634 116.588L60.9448 119.133C60.982 119.46 60.6032 119.716 60.3953 119.681L57.8479 119.996C56.8453 120.146 56.0134 120.005 55.1444 119.537C54.8548 119.381 54.8176 119.054 54.9884 118.762C54.9884 118.762 54.9884 118.762 55.1146 118.677L59.5183 113.761C59.7708 113.59 60.105 113.54 60.2684 113.781C60.2684 113.781 60.2684 113.781 60.3501 113.902C60.7958 114.833 61.1598 115.642 61.0634 116.588Z" fill="url(#paint0_linear_863_11424)"/>
<defs>
<filter id="filter0_f_863_11424" x="50.6909" y="0" width="1015.62" height="684.275" filterUnits="userSpaceOnUse" color-interpolation-filters="sRGB">
<feFlood flood-opacity="0" result="BackgroundImageFix"/>
<feBlend mode="normal" in="SourceGraphic" in2="BackgroundImageFix" result="shape"/>
<feGaussianBlur stdDeviation="50" result="effect1_foregroundBlur_863_11424"/>
</filter>
<linearGradient id="paint0_linear_863_11424" x1="54.6131" y1="125.501" x2="69.2978" y2="115.564" gradientUnits="userSpaceOnUse">
<stop stop-color="#83A6FF"/>
<stop offset="1" stop-color="#5A78FF"/>
</linearGradient>
</defs>
</svg>
