<svg width="443" height="326" viewBox="0 0 443 326" fill="none" xmlns="http://www.w3.org/2000/svg">
<ellipse cx="222.502" cy="314.932" rx="218.493" ry="4.67572" fill="#82B1FB"/>
<path d="M32.7407 107.196C14.5663 161.167 31.8498 219.636 42.7633 242.124L60.804 308.252H384.869C415.605 276.19 446.341 130.575 399.569 113.876C352.797 97.1768 347.718 62.4428 342.106 54.4273C332.083 40.1139 286.647 -33.0755 197.78 17.6895C108.913 68.4545 55.4587 39.7322 32.7407 107.196Z" fill="#91D4DD"/>
<path d="M390.882 85.1535C351.861 79.8098 350.124 41.9587 354.133 23.7011C357.506 8.33805 370.169 41.736 384.869 54.4273C399.569 67.1185 410.26 87.8253 390.882 85.1535Z" fill="#91D4DD"/>
<path d="M14.0318 117.884C-2.53893 157.961 16.9272 207.613 28.7317 227.429C22.5356 210.73 11.5893 171.721 17.3727 149.278C24.6019 121.223 22.0499 102.52 14.0318 117.884Z" fill="#91D4DD"/>
<path d="M66.1483 65.7826C61.4711 82.2589 68.1529 121.223 132.298 145.27C212.479 175.328 207.133 232.773 269.942 234.109C320.188 235.177 391.55 214.07 420.949 203.382M136.975 44.4079C160.584 36.8376 217.423 31.4494 255.91 70.4583C304.019 119.219 360.145 148.61 397.563 113.208M34.7441 105.86C52.7849 125.899 78.0419 175.595 34.7441 214.07" stroke="white" stroke-opacity="0.44" stroke-width="1.55439"/>
<path d="M371.505 287.545C372.173 270.623 377.518 230.234 393.555 204.05C409.591 177.866 416.273 163.304 417.609 159.297" stroke="#2E384D" stroke-width="1.55439" stroke-linecap="round"/>
<path d="M417.127 160.505C418.248 154.909 421.522 143.572 425.657 142.996C430.825 142.277 421.299 157.593 417.127 160.505Z" fill="#1A6B6B" stroke="#2E384D" stroke-width="0.777193"/>
<path d="M408.23 176.689C407.162 171.083 405.932 159.348 409.547 157.26C414.065 154.649 411 172.422 408.23 176.689Z" fill="#1A6B6B" stroke="#2E384D" stroke-width="0.777193"/>
<path d="M394.501 200.705C393.641 195.063 392.844 183.29 396.533 181.337C401.145 178.894 397.426 196.542 394.501 200.705Z" fill="#1A6B6B" stroke="#2E384D" stroke-width="0.777193"/>
<path d="M381.408 229.83C378.73 224.795 374.083 213.959 376.915 210.897C380.455 207.069 382.789 224.938 381.408 229.83Z" fill="#1A6B6B" stroke="#2E384D" stroke-width="0.777193"/>
<path d="M374.726 259.221C372.049 254.186 367.401 243.35 370.233 240.288C373.773 236.46 376.107 254.329 374.726 259.221Z" fill="#1A6B6B" stroke="#2E384D" stroke-width="0.777193"/>
<path d="M379.059 241.514C384.386 239.474 395.009 234.352 394.884 230.184C394.728 224.973 381.231 236.918 379.059 241.514Z" fill="#1A6B6B" stroke="#2E384D" stroke-width="0.777193"/>
<path d="M388.414 216.132C393.74 214.092 404.363 208.97 404.238 204.802C404.083 199.591 390.585 211.536 388.414 216.132Z" fill="#1A6B6B" stroke="#2E384D" stroke-width="0.777193"/>
<path d="M404.45 186.742C409.777 184.702 420.399 179.58 420.275 175.411C420.119 170.201 406.621 182.146 404.45 186.742Z" fill="#1A6B6B" stroke="#2E384D" stroke-width="0.777193"/>
<path d="M372.698 275.287C376.77 271.295 384.472 262.366 382.696 258.592C380.477 253.875 372.858 270.207 372.698 275.287Z" fill="#1A6B6B" stroke="#2E384D" stroke-width="0.777193"/>
<path d="M52.8197 239.591C50.9134 231.591 47.7051 219.473 43.7431 206.649M23.8225 157.43C26.9828 162.44 30.1538 169.11 33.1968 176.577M33.1968 176.577L21.7754 170.72M33.1968 176.577C35.354 181.87 37.4469 187.565 39.4261 193.352M39.4261 193.352L41.27 180.103M39.4261 193.352C40.9389 197.776 42.3852 202.254 43.7431 206.649M43.7431 206.649L32.1298 198.684" stroke="#2E384D" stroke-width="0.979254" stroke-linecap="round"/>
<ellipse cx="5.05129" cy="5.0498" rx="5.05129" ry="5.0498" transform="matrix(0.980346 -0.197285 0.197407 0.980322 16.4678 150.754)" fill="#1A6B6B"/>
<ellipse cx="5.05129" cy="5.0498" rx="5.05129" ry="5.0498" transform="matrix(0.980346 -0.197285 0.197407 0.980322 14.0127 168.418)" fill="#1A6B6B"/>
<ellipse cx="5.05129" cy="5.0498" rx="5.05129" ry="5.0498" transform="matrix(0.980346 -0.197285 0.197407 0.980322 35.3164 171.858)" fill="#1A6B6B"/>
<ellipse cx="5.05129" cy="5.0498" rx="5.05129" ry="5.0498" transform="matrix(0.980346 -0.197285 0.197407 0.980322 24.9404 192.833)" fill="#1A6B6B"/>
<ellipse cx="24.0544" cy="99.1808" rx="5.3454" ry="5.34368" fill="#1A6B6B"/>
<path d="M4.58386 287.018C11.9244 269.951 44.3374 289.416 59.6263 301.282L45.9198 312.706C30.8643 311.567 -1.48617 301.131 4.58386 287.018Z" fill="#1A6B6B"/>
<path d="M46.1052 303.911L45.967 304.274L45.967 304.274L46.1052 303.911ZM40.5222 293.503C40.3698 293.352 40.1237 293.353 39.9726 293.506C39.8215 293.658 39.8226 293.904 39.9751 294.055L40.5222 293.503ZM39.6087 301.441L39.7469 301.078L39.6087 301.441ZM31.4334 304.609C31.2191 304.62 31.0542 304.803 31.0653 305.017C31.0763 305.232 31.2591 305.396 31.4734 305.385L31.4334 304.609ZM29.2995 290.162C29.1306 290.029 28.8863 290.059 28.7539 290.228C28.6215 290.397 28.6511 290.641 28.82 290.773L29.2995 290.162ZM19.1898 293.261C18.9892 293.185 18.7647 293.285 18.6884 293.486C18.6121 293.687 18.7129 293.911 18.9135 293.987L19.1898 293.261ZM20.2314 299.008C20.0197 299.044 19.877 299.244 19.9127 299.456C19.9484 299.668 20.1489 299.81 20.3605 299.775L20.2314 299.008ZM51.8896 306.11L52.0278 305.747L52.0278 305.747L51.8896 306.11ZM43.8372 308.207C43.6228 308.216 43.4563 308.398 43.4653 308.612C43.4743 308.826 43.6555 308.993 43.87 308.984L43.8372 308.207ZM46.4742 303.789C45.7592 301.625 43.572 296.525 40.5222 293.503L39.9751 294.055C42.8936 296.947 45.0336 301.906 45.7361 304.033L46.4742 303.789ZM46.2433 303.548L39.7469 301.078L39.4706 301.804L45.967 304.274L46.2433 303.548ZM39.3289 301.171C38.3166 302.221 35.2877 304.411 31.4334 304.609L31.4734 305.385C35.5752 305.174 38.779 302.861 39.8886 301.71L39.3289 301.171ZM39.7469 301.078L33.8734 298.844L33.5971 299.571L39.4706 301.804L39.7469 301.078ZM34.109 299.101C33.7922 297.992 33.1771 296.226 32.356 294.511C31.5417 292.811 30.497 291.1 29.2995 290.162L28.82 290.773C29.867 291.594 30.8483 293.162 31.6549 294.847C32.4546 296.517 33.055 298.242 33.3616 299.314L34.109 299.101ZM33.8734 298.844L26.5316 296.053L26.2553 296.779L33.5971 299.571L33.8734 298.844ZM26.5316 296.053L19.1898 293.261L18.9135 293.987L26.2553 296.779L26.5316 296.053ZM26.1344 296.126C25.2703 296.898 22.862 298.565 20.2314 299.008L20.3605 299.775C23.1868 299.299 25.7253 297.534 26.6525 296.705L26.1344 296.126ZM53.3627 306.255L52.0278 305.747L51.7515 306.474L53.0863 306.981L53.3627 306.255ZM52.0278 305.747L46.2433 303.548L45.967 304.274L51.7515 306.474L52.0278 305.747ZM51.6407 305.812C50.8077 306.506 48.0182 308.031 43.8372 308.207L43.87 308.984C48.2059 308.801 51.1629 307.222 52.1385 306.409L51.6407 305.812Z" fill="#2E384D"/>
<path d="M438.416 287.018C431.076 269.951 398.663 289.416 383.374 301.282L397.08 312.706C412.136 311.567 444.486 301.131 438.416 287.018Z" fill="#1A6B6B"/>
<path d="M396.895 303.911L397.033 304.274L397.033 304.274L396.895 303.911ZM402.478 293.503C402.63 293.352 402.876 293.353 403.027 293.506C403.179 293.658 403.177 293.904 403.025 294.055L402.478 293.503ZM403.391 301.441L403.253 301.078L403.391 301.441ZM411.567 304.609C411.781 304.62 411.946 304.803 411.935 305.017C411.924 305.232 411.741 305.396 411.527 305.385L411.567 304.609ZM413.7 290.162C413.869 290.029 414.114 290.059 414.246 290.228C414.379 290.397 414.349 290.641 414.18 290.773L413.7 290.162ZM423.81 293.261C424.011 293.185 424.235 293.285 424.312 293.486C424.388 293.687 424.287 293.911 424.087 293.987L423.81 293.261ZM422.769 299.008C422.98 299.044 423.123 299.244 423.087 299.456C423.052 299.668 422.851 299.81 422.639 299.775L422.769 299.008ZM391.11 306.11L390.972 305.747L390.972 305.747L391.11 306.11ZM399.163 308.207C399.377 308.216 399.544 308.398 399.535 308.612C399.526 308.826 399.344 308.993 399.13 308.984L399.163 308.207ZM396.526 303.789C397.241 301.625 399.428 296.525 402.478 293.503L403.025 294.055C400.106 296.947 397.966 301.906 397.264 304.033L396.526 303.789ZM396.757 303.548L403.253 301.078L403.529 301.804L397.033 304.274L396.757 303.548ZM403.671 301.171C404.683 302.221 407.712 304.411 411.567 304.609L411.527 305.385C407.425 305.174 404.221 302.861 403.111 301.71L403.671 301.171ZM403.253 301.078L409.127 298.844L409.403 299.571L403.529 301.804L403.253 301.078ZM408.891 299.101C409.208 297.992 409.823 296.226 410.644 294.511C411.458 292.811 412.503 291.1 413.7 290.162L414.18 290.773C413.133 291.594 412.152 293.162 411.345 294.847C410.545 296.517 409.945 298.242 409.638 299.314L408.891 299.101ZM409.127 298.844L416.468 296.053L416.745 296.779L409.403 299.571L409.127 298.844ZM416.468 296.053L423.81 293.261L424.087 293.987L416.745 296.779L416.468 296.053ZM416.866 296.126C417.73 296.898 420.138 298.565 422.769 299.008L422.639 299.775C419.813 299.299 417.275 297.534 416.347 296.705L416.866 296.126ZM389.637 306.255L390.972 305.747L391.249 306.474L389.914 306.981L389.637 306.255ZM390.972 305.747L396.757 303.548L397.033 304.274L391.249 306.474L390.972 305.747ZM391.359 305.812C392.192 306.506 394.982 308.031 399.163 308.207L399.13 308.984C394.794 308.801 391.837 307.222 390.861 306.409L391.359 305.812Z" fill="#2E384D"/>
<path d="M14.0316 216.074C48.7767 198.439 74.8355 273.296 83.5218 312.928H46.104C23.386 290.885 -14.7 230.656 14.0316 216.074Z" fill="url(#paint0_linear_863_9104)"/>
<path d="M58.2146 299.012L57.6854 299.31V299.31L58.2146 299.012ZM62.9951 274.776C62.9633 274.442 62.6669 274.197 62.3331 274.229C61.9993 274.261 61.7544 274.557 61.7862 274.891L62.9951 274.776ZM51.0695 286.314L51.5987 286.016V286.016L51.0695 286.314ZM33.5222 280.61C33.2539 280.408 32.8734 280.463 32.6722 280.731C32.471 280.999 32.5255 281.38 32.7938 281.581L33.5222 280.61ZM44.6096 274.833L44.0805 275.131L44.6096 274.833ZM49.4121 254.354C49.3418 254.026 49.019 253.817 48.6911 253.888C48.3632 253.958 48.1544 254.281 48.2247 254.609L49.4121 254.354ZM36.5348 260.483L37.0639 260.185L36.5348 260.483ZM28.9891 245.834C28.8246 245.542 28.4544 245.438 28.1622 245.603C27.8699 245.767 27.7663 246.137 27.9307 246.43L28.9891 245.834ZM23.0236 256.566C22.734 256.397 22.3622 256.495 22.1933 256.785C22.0243 257.074 22.1222 257.446 22.4119 257.615L23.0236 256.566ZM64.5766 310.319L65.1058 310.021V310.021L64.5766 310.319ZM48.6651 303.052C48.3987 302.849 48.0176 302.9 47.814 303.166C47.6103 303.432 47.6612 303.813 47.9276 304.017L48.6651 303.052ZM58.7793 299.235C60.5308 294.799 63.844 283.686 62.9951 274.776L61.7862 274.891C62.6077 283.514 59.3784 294.411 57.6498 298.789L58.7793 299.235ZM58.7437 298.714L51.5987 286.016L50.5404 286.612L57.6854 299.31L58.7437 298.714ZM51.0036 285.71C47.9259 286.046 40.0491 285.503 33.5222 280.61L32.7938 281.581C39.6304 286.707 47.8402 287.277 51.1354 286.917L51.0036 285.71ZM51.5987 286.016L45.1388 274.536L44.0805 275.131L50.5404 286.612L51.5987 286.016ZM45.1649 275.079C46.1391 272.878 47.5165 269.219 48.4942 265.368C49.4657 261.54 50.0698 257.423 49.4121 254.354L48.2247 254.609C48.8198 257.385 48.2819 261.269 47.3171 265.069C46.3585 268.845 45.0051 272.44 44.0544 274.587L45.1649 275.079ZM45.1388 274.536L37.0639 260.185L36.0056 260.78L44.0805 275.131L45.1388 274.536ZM37.0639 260.185L28.9891 245.834L27.9307 246.43L36.0056 260.78L37.0639 260.185ZM36.5138 259.876C34.0622 259.96 27.9011 259.41 23.0236 256.566L22.4119 257.615C27.5571 260.615 33.9721 261.179 36.5557 261.089L36.5138 259.876ZM66.5739 312.63L65.1058 310.021L64.0474 310.616L65.5156 313.226L66.5739 312.63ZM65.1058 310.021L58.7437 298.714L57.6854 299.31L64.0474 310.616L65.1058 310.021ZM64.5766 309.711C62.2529 309.711 55.6682 308.406 48.6651 303.052L47.9276 304.017C55.1232 309.518 61.9629 310.926 64.5766 310.926V309.711Z" fill="white"/>
<path d="M428.968 216.074C394.223 198.439 368.165 273.296 359.478 312.928H396.896C419.614 290.885 457.7 230.656 428.968 216.074Z" fill="url(#paint1_linear_863_9104)"/>
<path d="M384.785 299.012L385.315 299.31V299.31L384.785 299.012ZM380.005 274.776C380.037 274.442 380.333 274.197 380.667 274.229C381.001 274.261 381.246 274.557 381.214 274.891L380.005 274.776ZM391.93 286.314L391.401 286.016V286.016L391.93 286.314ZM409.478 280.61C409.746 280.408 410.127 280.463 410.328 280.731C410.529 280.999 410.475 281.38 410.206 281.581L409.478 280.61ZM398.39 274.833L398.92 275.131L398.39 274.833ZM393.588 254.354C393.658 254.026 393.981 253.817 394.309 253.888C394.637 253.958 394.846 254.281 394.775 254.609L393.588 254.354ZM406.465 260.483L405.936 260.185L406.465 260.483ZM414.011 245.834C414.175 245.542 414.546 245.438 414.838 245.603C415.13 245.767 415.234 246.137 415.069 246.43L414.011 245.834ZM419.976 256.566C420.266 256.397 420.638 256.495 420.807 256.785C420.976 257.074 420.878 257.446 420.588 257.615L419.976 256.566ZM378.423 310.319L377.894 310.021V310.021L378.423 310.319ZM394.335 303.052C394.601 302.849 394.982 302.9 395.186 303.166C395.39 303.432 395.339 303.813 395.072 304.017L394.335 303.052ZM384.221 299.235C382.469 294.799 379.156 283.686 380.005 274.776L381.214 274.891C380.392 283.514 383.622 294.411 385.35 298.789L384.221 299.235ZM384.256 298.714L391.401 286.016L392.46 286.612L385.315 299.31L384.256 298.714ZM391.996 285.71C395.074 286.046 402.951 285.503 409.478 280.61L410.206 281.581C403.37 286.707 395.16 287.277 391.865 286.917L391.996 285.71ZM391.401 286.016L397.861 274.536L398.92 275.131L392.46 286.612L391.401 286.016ZM397.835 275.079C396.861 272.878 395.483 269.219 394.506 265.368C393.534 261.54 392.93 257.423 393.588 254.354L394.775 254.609C394.18 257.385 394.718 261.269 395.683 265.069C396.642 268.845 397.995 272.44 398.946 274.587L397.835 275.079ZM397.861 274.536L405.936 260.185L406.994 260.78L398.92 275.131L397.861 274.536ZM405.936 260.185L414.011 245.834L415.069 246.43L406.994 260.78L405.936 260.185ZM406.486 259.876C408.938 259.96 415.099 259.41 419.976 256.566L420.588 257.615C415.443 260.615 409.028 261.179 406.444 261.089L406.486 259.876ZM376.426 312.63L377.894 310.021L378.953 310.616L377.484 313.226L376.426 312.63ZM377.894 310.021L384.256 298.714L385.315 299.31L378.953 310.616L377.894 310.021ZM378.423 309.711C380.747 309.711 387.332 308.406 394.335 303.052L395.072 304.017C387.877 309.518 381.037 310.926 378.423 310.926V309.711Z" fill="white"/>
<path d="M104.904 81.1456C82.8539 81.8135 81.0721 102.52 83.5221 113.208C85.5266 112.54 88.0656 115.746 82.1857 133.915C76.3058 152.083 80.6266 159.742 83.5221 161.301C98.4446 161.969 129.626 162.637 134.972 159.965C141.653 156.625 140.317 144.602 134.972 133.915C130.695 125.365 131.408 115.212 132.299 111.204C132.967 91.833 126.953 80.4777 104.904 81.1456Z" fill="#2E384D"/>
<path d="M56.1386 176.463L96.3404 150.535H123.088L164.189 172.057C177.237 197.274 196.548 246.536 187.675 257.492C178.803 268.449 169.843 270.319 164.189 267.927C162.623 273.145 166.581 300.102 168.756 312.928H63.7208C66.3304 303.145 71.332 280.971 70.8971 267.927C65.8954 269.232 54.3264 269.754 48.0634 261.406C38.1872 247.375 49.0621 199.404 55.8102 176.895C55.8645 176.713 55.9795 176.566 56.1386 176.463Z" fill="#E7FBFF"/>
<path d="M367.312 163.217L324.065 142.598H302.015L252.57 165.309L269.943 266.839L268.607 312.928H376.851L373.51 266.839C368.833 273.518 379.657 256.419 390.883 238.784C402.074 221.204 380.103 181.36 367.61 163.468C367.533 163.358 367.433 163.275 367.312 163.217Z" fill="#E7FBFF"/>
<path d="M94.3838 151.839L100.908 147.274H115.913L125.046 151.839L126.351 312.928H104.822L94.3838 151.839Z" fill="url(#paint2_linear_863_9104)"/>
<path d="M325.176 77.6871C335.889 78.6281 335.589 97.8522 334.657 107.359V111.872C331.905 123.094 325.113 128.571 322.061 129.907C319.611 130.13 312.305 130.441 302.684 129.907C293.062 129.372 288.999 113.905 288.17 106.239C284.876 96.3595 286.246 90.067 288.06 85.779C288.091 85.7064 288 85.6296 287.93 85.6646C286.403 86.4201 282.617 86.0151 285.37 82.1628C288.17 78.2435 295.825 75.6306 299.372 75.444C298.625 75.444 296.795 75.108 295.451 73.7643C293.771 72.0845 294.331 70.4048 307.213 69.8449C317.478 69.3988 323.409 74.8414 325.116 77.6507C325.129 77.6721 325.151 77.6849 325.176 77.6871Z" fill="#2E384D"/>
<path d="M308.696 312.928L299.342 143.934L301.346 142.598H324.064L328.073 145.27L330.078 312.928H308.696Z" fill="url(#paint3_linear_863_9104)"/>
<path d="M99.6022 225.536L95.0355 151.187L85.4511 157.574C85.32 157.662 85.2194 157.788 85.1632 157.935L76.9705 179.355C76.8507 179.668 76.9508 180.023 77.2167 180.227L84.3664 185.725C84.7906 186.052 84.753 186.703 84.2942 186.978L79.2421 190.008C78.9397 190.189 78.8021 190.555 78.9101 190.891L90.4688 226.84L99.6022 225.536Z" fill="#91D4DD"/>
<path d="M125.046 220.97L123.741 150.535L137.162 157.562C137.34 157.656 137.475 157.817 137.534 158.01L143.158 176.123C143.251 176.423 143.149 176.75 142.902 176.945L135.057 183.106C134.636 183.437 134.681 184.089 135.144 184.358L141.526 188.08C141.812 188.247 141.957 188.582 141.883 188.905L134.831 219.666L125.046 220.97Z" fill="#91D4DD"/>
<path d="M179.434 104.705C177.113 86.1446 186.5 79.2237 191.515 78.071C191.536 78.0662 191.553 78.0535 191.564 78.0346C193.516 74.6453 198.846 69.829 209.476 69.829C232.734 68.8602 238.064 86.2984 240.487 98.8927C242.91 111.487 236.126 122.628 240.487 137.16C243.976 148.785 240.326 155.89 238.064 157.989C224.82 158.15 196.296 158.376 188.156 157.989C177.98 157.504 179.434 144.91 181.857 137.16C184.279 129.41 182.341 127.956 179.434 104.705Z" fill="#2E384D"/>
<path d="M185.498 106.159C187.823 105.384 189.374 106.482 189.859 107.127C189.471 110.228 190.343 115.201 190.828 117.3C183.559 117.784 182.59 107.127 185.498 106.159Z" fill="#F9A19E"/>
<rect x="72.7188" y="291.023" width="21.9117" height="4.10713" fill="#91D4DD"/>
<rect x="91.1543" y="200.667" width="49.3014" height="62.976" rx="0.796462" fill="white"/>
<path d="M145.25 217.78H130.186V235.577L145.25 236.946V217.78Z" fill="#FFB0AC"/>
<path d="M143.196 217.78C145.067 216.376 144.408 213.541 143.606 211.749C143.409 211.308 142.855 211.197 142.472 211.491L134.294 217.78H143.196Z" fill="#F9A19E"/>
<path d="M129.501 216.41L82.2539 227.363L86.3624 259.535L129.501 237.631V216.41Z" fill="#E8F3FF"/>
<path d="M287.76 104.416C290.027 103.661 291.538 104.73 292.01 105.36C291.632 108.381 292.482 113.227 292.954 115.272C285.872 115.744 284.927 105.36 287.76 104.416Z" fill="#F9A19E"/>
<path d="M73.351 265.696L129.07 237.845C129.333 237.714 129.5 237.445 129.5 237.15V217.386C129.5 216.886 129.036 216.517 128.549 216.628L63.7646 231.47" stroke="#2E384D" stroke-width="0.796462" stroke-linecap="round"/>
<path d="M84.3404 111.085C86.6068 110.329 88.1177 111.399 88.5899 112.029C88.2121 115.05 89.062 119.896 89.5342 121.941C82.4518 122.413 81.5074 112.029 84.3404 111.085Z" fill="#F9A19E"/>
<path d="M231.515 106.159C229.189 105.384 227.639 106.482 227.154 107.127C227.542 110.228 226.67 115.201 226.185 117.3C233.453 117.784 234.422 107.127 231.515 106.159Z" fill="#F9A19E"/>
<path d="M335.273 104.416C333.007 103.661 331.496 104.73 331.023 105.36C331.401 108.381 330.551 113.227 330.079 115.272C337.162 115.744 338.106 105.36 335.273 104.416Z" fill="#F9A19E"/>
<path d="M131.853 111.085C129.587 110.329 128.076 111.399 127.604 112.029C127.981 115.05 127.131 119.896 126.659 121.941C133.742 122.413 134.686 112.029 131.853 111.085Z" fill="#F9A19E"/>
<path d="M154.589 173.169L195.775 146.606H223.17L265.048 168.535C265.19 168.609 265.302 168.719 265.375 168.861C278.737 194.752 298.382 244.96 289.32 256.151C280.232 267.373 271.056 269.288 265.265 266.839C263.662 272.182 267.715 299.791 269.943 312.928H162.366C165.039 302.908 170.162 280.198 169.716 266.839C164.594 268.175 152.745 268.709 146.33 260.159C136.213 245.787 147.357 196.638 154.268 173.59C154.321 173.413 154.434 173.269 154.589 173.169Z" fill="white"/>
<path d="M193.771 147.942L200.452 143.266H215.82L225.175 147.942L226.511 312.928H204.461L193.771 147.942Z" fill="url(#paint4_linear_863_9104)"/>
<path d="M200.453 143.266V129.239H217.157V143.266L223.171 146.606C220.943 148.61 216.222 152.617 209.807 152.617C203.393 152.617 197.78 148.61 195.775 146.606L200.453 143.266Z" fill="#F9A19E"/>
<path d="M304.019 140.594V126.567H320.723V140.594L326.737 143.934C324.51 145.938 319.788 149.946 313.373 149.946C306.959 149.946 301.346 145.938 299.342 143.934L304.019 140.594Z" fill="#F9A19E"/>
<path d="M100.6 147.263V133.236H117.304V147.263L123.612 150.614C121.385 152.617 116.369 156.615 109.955 156.615C103.54 156.615 96.8854 153.285 94.8809 151.281L100.6 147.263Z" fill="#F9A19E"/>
<path d="M200.452 137.23C202.988 138.487 205.973 139.22 209.475 139.22C212.413 139.22 214.961 138.562 217.157 137.424V129.239H200.452V137.23Z" fill="#FE6963"/>
<path d="M209.475 135.222C190.922 135.222 186.886 114.674 187.183 104.311C187.184 104.254 187.215 104.206 187.266 104.18C189.752 102.916 194.882 99.3272 197.039 94.3761C197.174 94.0676 197.618 94.0352 197.786 94.3271C200.117 98.3903 203.992 103.188 207.133 103.188C209.473 103.188 207.778 99.0294 206.56 97.452C206.504 97.3787 206.628 97.1942 206.712 97.2329C210.731 99.0868 219.225 104.172 228.719 104.221C228.798 104.221 228.864 104.276 228.873 104.354C230.113 114.731 225.879 135.222 209.475 135.222Z" fill="#FFB0AC"/>
<path d="M304.02 134.86C306.462 136.045 309.328 136.734 312.679 136.734C315.795 136.734 318.461 135.975 320.724 134.678V126.567H304.02V134.86Z" fill="#FE6963"/>
<path d="M312.679 132.736C294.548 132.736 290.645 112.597 290.96 102.528C290.96 102.528 290.616 92.6942 295.422 89.8054C297.259 88.7013 305.84 88.5037 305.84 88.5037C305.84 88.5037 314.173 89.8054 319.513 89.8054C333.186 89.8054 331.565 102.528 331.565 102.528C332.825 112.597 328.732 132.736 312.679 132.736Z" fill="#FFB0AC"/>
<path d="M100.601 141.529C103.043 142.714 105.909 143.403 109.26 143.403C112.376 143.403 115.042 142.644 117.305 141.347V133.236H100.601V141.529Z" fill="#FE6963"/>
<path d="M109.26 139.405C91.129 139.405 87.2258 119.266 87.5406 109.197C87.5406 109.197 87.1972 99.3633 92.0034 96.4745C93.8402 95.3705 102.421 95.1729 102.421 95.1729C102.421 95.1729 110.754 96.4745 116.094 96.4746C129.767 96.4746 128.146 109.197 128.146 109.197C129.406 119.266 125.313 139.405 109.26 139.405Z" fill="#FFB0AC"/>
<path d="M332.353 104.125C329.577 102.203 323.11 97.1308 323.401 92.0077C323.405 91.9316 323.309 91.8885 323.259 91.9461C320.779 94.7988 315.125 99.6534 311.049 97.616C309.024 96.6037 310.526 92.6394 311.608 90.6251C311.641 90.5635 311.583 90.4926 311.516 90.5137C300.585 93.976 292.234 106.345 288.912 104.125C287.457 103.152 287.854 102.089 288.835 100.799L288.652 94.5049L291.622 87.2019H328.342L333.186 104.125H332.353Z" fill="#2E384D"/>
<ellipse cx="217.228" cy="111.003" rx="1.9382" ry="1.93758" fill="#2E384D"/>
<ellipse cx="320.233" cy="109.136" rx="1.88865" ry="1.88804" fill="#2E384D"/>
<rect x="235.198" y="190.023" width="16.0362" height="6.6796" fill="#519E91"/>
<ellipse cx="116.814" cy="115.805" rx="1.88865" ry="1.88804" fill="#2E384D"/>
<path d="M167.712 184.68L173.057 215.406M157.689 175.328L163.703 180.672M255.243 219.413V184.68M262.593 173.992L257.916 179.336" stroke="#2E384D" stroke-width="0.777193" stroke-linecap="round"/>
<ellipse cx="197.847" cy="111.003" rx="1.9382" ry="1.93758" fill="#2E384D"/>
<ellipse cx="301.347" cy="109.136" rx="1.88865" ry="1.88804" fill="#2E384D"/>
<ellipse cx="97.9277" cy="115.805" rx="1.88865" ry="1.88804" fill="#2E384D"/>
<path d="M205.318 111.003C205.318 115.127 201.973 118.471 197.847 118.471C193.72 118.471 190.376 115.127 190.376 111.003C190.376 106.878 193.72 103.534 197.847 103.534C201.973 103.534 205.318 106.878 205.318 111.003Z" stroke="white" stroke-width="0.563609"/>
<path d="M224.699 111.003C224.699 115.127 221.355 118.471 217.228 118.471C213.102 118.471 209.757 115.127 209.757 111.003C209.757 106.878 213.102 103.534 217.228 103.534C221.355 103.534 224.699 106.878 224.699 111.003Z" stroke="white" stroke-width="0.563609"/>
<path d="M207.537 119.237L206.565 121.83C206.316 122.494 206.735 123.221 207.435 123.338L208.991 123.597M204.146 126.867C204.63 127.351 206.084 128.32 208.022 128.32C209.96 128.32 211.091 127.351 211.414 126.867" stroke="#2E384D" stroke-width="0.563609" stroke-linecap="round" stroke-linejoin="round"/>
<path d="M310.791 116.04L309.844 118.567C309.601 119.214 310.01 119.922 310.692 120.036L312.208 120.288M307.486 123.475C307.958 123.947 309.375 124.891 311.264 124.891C313.152 124.891 314.254 123.947 314.569 123.475" stroke="#2E384D" stroke-width="0.549199" stroke-linecap="round" stroke-linejoin="round"/>
<path d="M107.372 122.709L106.424 125.235C106.181 125.883 106.59 126.591 107.272 126.705L108.788 126.957M104.066 130.144C104.539 130.616 105.955 131.56 107.844 131.56C109.732 131.56 110.834 130.616 111.149 130.144" stroke="#2E384D" stroke-width="0.549199" stroke-linecap="round" stroke-linejoin="round"/>
<path d="M209.807 249.472L199.116 254.148L194.438 224.089L227.179 218.746V255.483L209.807 249.472Z" fill="white"/>
<path d="M204.899 110.707H210.409" stroke="white" stroke-width="0.91553"/>
<path d="M250.566 216.074L240.543 217.41L241.211 230.101H265.934C265.043 228.988 262.593 225.692 259.92 221.417C257.247 217.142 252.57 216.074 250.566 216.074Z" fill="#FFB0AC"/>
<path d="M170.117 202.637L178.255 211.398C176.117 210.329 170.682 210.953 168.232 211.398C165.853 208.068 167.534 204.49 169.031 202.646C169.309 202.304 169.817 202.315 170.117 202.637Z" fill="#F9A19E"/>
<path d="M199.116 223.421L194.438 147.274L184.622 153.816C184.488 153.905 184.385 154.034 184.327 154.185L175.936 176.123C175.814 176.444 175.916 176.807 176.188 177.017L183.511 182.648C183.946 182.982 183.907 183.649 183.437 183.931L178.263 187.034C177.953 187.22 177.812 187.595 177.923 187.938L189.761 224.757L199.116 223.421Z" fill="#91D4DD"/>
<path d="M225.174 218.745L223.838 146.606L237.584 153.804C237.767 153.899 237.904 154.064 237.965 154.262L243.725 172.813C243.82 173.121 243.716 173.456 243.463 173.655L235.428 179.965C234.997 180.304 235.043 180.971 235.517 181.248L242.053 185.059C242.347 185.231 242.495 185.573 242.419 185.905L235.197 217.41L225.174 218.745Z" fill="#91D4DD"/>
<path d="M173.057 210.73C182.144 209.661 189.316 219.636 191.098 224.757C185.975 225.87 173.191 228.097 168.38 228.097C162.366 228.097 153.012 218.077 153.012 214.738C153.012 211.398 161.698 212.066 173.057 210.73Z" fill="#FFB0AC"/>
<path d="M167.043 228.097L239.646 216.88C240.117 216.807 240.542 217.172 240.542 217.648V230.101M169.047 266.839C171.71 266.173 190.222 258.051 209.138 249.598M264.597 266.839L209.138 249.598M209.138 249.598C220.398 244.565 231.801 239.415 240.089 235.651C240.366 235.525 240.542 235.249 240.542 234.944V230.101M267.269 230.101H240.542" stroke="#2E384D" stroke-width="0.777193" stroke-linecap="round"/>
<path d="M58.7998 182.008L64.8134 192.027M66.8179 198.707L68.8224 230.101" stroke="black" stroke-width="0.777193" stroke-linecap="round"/>
<path d="M170.385 151.949C170.919 150.881 179.071 147.942 183.08 146.606L187.089 151.949C186.198 155.067 184.015 161.835 182.412 163.973C180.407 166.645 170.385 169.984 166.376 169.984C162.367 169.984 169.717 153.285 170.385 151.949Z" fill="#FFB0AC"/>
<path d="M169.717 169.317L173.058 158.629M175.73 167.981L178.403 158.629" stroke="#2E384D" stroke-width="0.777193" stroke-linecap="round"/>
<path d="M181.744 141.93C183.348 140.861 190.876 145.047 194.439 147.274L187.089 152.617C185.085 151.282 179.739 143.266 181.744 141.93Z" fill="#F9A19E"/>
<path d="M154.349 217.41L166.376 216.742M157.69 222.085L170.385 221.417M163.035 226.093L173.058 225.425" stroke="#2E384D" stroke-width="0.777193" stroke-linecap="round"/>
<rect x="338.097" y="188.688" width="16.0362" height="6.6796" fill="#519E91"/>
<rect x="235.198" y="287.546" width="21.3816" height="4.00776" fill="#91D4DD"/>
<path d="M345.774 277.773L350.124 272.182L364.823 278.862V288.213H345.446V278.727C345.446 278.382 345.562 278.046 345.774 277.773Z" fill="#FFB0AC"/>
<rect x="277.961" y="287.546" width="21.3816" height="4.00776" fill="#91D4DD"/>
<rect x="343.441" y="287.546" width="24.0543" height="4.00776" fill="#91D4DD"/>
<rect x="175.062" y="287.546" width="21.3816" height="4.00776" fill="#91D4DD"/>
<rect x="138.454" y="291.023" width="21.9117" height="4.10713" fill="#91D4DD"/>
<path d="M195.106 145.938C195.106 155.289 193.77 173.324 210.475 173.324C227.179 173.324 223.17 155.289 223.17 145.938" stroke="#2E384D" stroke-width="2.33158" stroke-linecap="round"/>
<path d="M349.188 270.793L352.128 265.503L368.832 272.183L365.82 278.808C365.64 279.204 365.169 279.375 364.776 279.187L349.531 271.872C349.128 271.678 348.971 271.184 349.188 270.793Z" fill="#519E91"/>
<path d="M210.475 178V213.402C210.475 215.628 212.345 219.681 219.829 218.078C229.184 216.074 213.815 182.008 237.202 182.008C239.652 182.008 245.888 183.611 245.888 190.023" stroke="#2E384D" stroke-width="0.777193"/>
<path d="M210.475 173.324V178" stroke="#2E384D" stroke-width="2.33158" stroke-linecap="round"/>
<path d="M191.098 107.864L187.089 105.192" stroke="white" stroke-width="0.777193" stroke-linecap="round"/>
<path d="M224.507 108.532L229.184 105.192" stroke="white" stroke-width="0.777193" stroke-linecap="round"/>
<path d="M194.438 100.517C195.49 100.071 198.214 99.4475 200.693 100.517" stroke="#2E384D" stroke-width="0.777193" stroke-linecap="round"/>
<path d="M298.027 102.277C299.052 101.843 301.706 101.236 304.122 102.277" stroke="#2E384D" stroke-width="0.757322" stroke-linecap="round"/>
<path d="M94.6084 108.947C95.6334 108.512 98.2873 107.905 100.703 108.947" stroke="#2E384D" stroke-width="0.757322" stroke-linecap="round"/>
<rect x="113.066" y="195.19" width="4.10845" height="4.10713" rx="0.388597" fill="#91D4DD"/>
<path d="M316.733 102.335C317.758 101.901 320.412 101.293 322.828 102.335" stroke="#2E384D" stroke-width="0.757322" stroke-linecap="round"/>
<path d="M113.314 109.004C114.339 108.57 116.993 107.962 119.41 109.004" stroke="#2E384D" stroke-width="0.757322" stroke-linecap="round"/>
<path d="M282.849 171.486L293.209 146.89C293.286 146.707 293.429 146.561 293.61 146.481L299.342 143.934L304.687 238.117L282.837 192.444C282.714 192.187 282.741 191.884 282.908 191.653L290.92 180.563C291.151 180.244 291.106 179.803 290.817 179.536L283.039 172.358C282.798 172.136 282.722 171.787 282.849 171.486Z" fill="#91D4DD"/>
<path d="M328.742 238.117L327.405 143.934L336.533 148.496C336.68 148.57 336.801 148.689 336.876 148.836L348.506 171.442C348.671 171.762 348.594 172.154 348.321 172.388L339.956 179.556C339.657 179.812 339.597 180.25 339.815 180.577L347.222 191.685C347.365 191.899 347.393 192.17 347.296 192.408L328.742 238.117Z" fill="#91D4DD"/>
<path d="M364.824 171.321L358.142 185.348M360.815 196.035L367.496 225.425M374.178 218.746C372.619 218.968 368.031 222.887 362.151 236.781C356.638 249.807 352.652 259.546 351.075 263.463C350.917 263.854 351.102 264.3 351.489 264.466L368.907 271.928C369.251 272.076 369.652 271.956 369.859 271.645L373.51 266.171" stroke="#2E384D" stroke-width="0.777193" stroke-linecap="round"/>
<rect x="107.589" y="197.928" width="15.0643" height="5.47617" rx="0.388597" fill="#1A6B6B"/>
<path d="M95.5492 101.184C93.9456 107.597 89.5356 110.313 87.5311 111.204L84.8584 107.864L87.5311 92.501L124.949 90.4971L132.299 109.2L128.29 110.536C127.622 107.864 126.953 103.188 120.94 101.184C121.831 101.63 123.345 103.188 122.276 105.86C119.096 108.509 111.275 104.811 107.669 102.578C108.787 103.298 110.473 105.265 108.913 107.864C105.705 110.536 98.6673 104.524 95.5492 101.184Z" fill="#2E384D"/>
<path d="M138.98 68.4544H149.671L152.344 81.8136L156.353 55.0952L160.362 78.4738L164.371 68.4544H173.726" stroke="white" stroke-width="1.55439" stroke-linecap="round" stroke-linejoin="round"/>
<path d="M144.325 64.4466H155.016L157.689 77.8058L161.698 51.0874L165.707 74.466L169.716 64.4466H179.07" stroke="#2E384D" stroke-width="0.777193" stroke-linecap="round" stroke-linejoin="round"/>
<path d="M270.502 27.0409C270.502 32.5139 266.064 36.9511 260.588 36.9511C255.113 36.9511 250.675 32.5139 250.675 27.0409C250.675 21.5679 255.113 17.1307 260.588 17.1307C266.064 17.1307 270.502 21.5679 270.502 27.0409Z" stroke="white" stroke-width="1.55439"/>
<path d="M246.733 37.7946C246.4 38.0663 246.351 38.556 246.623 38.8882C246.895 39.2205 247.384 39.2695 247.717 38.9978L246.733 37.7946ZM254.082 31.7829L246.733 37.7946L247.717 38.9978L255.067 32.9861L254.082 31.7829Z" fill="white"/>
<path d="M272.226 21.6971C272.226 27.3849 267.614 31.9959 261.924 31.9959C256.234 31.9959 251.622 27.3849 251.622 21.6971C251.622 16.0094 256.234 11.3984 261.924 11.3984C267.614 11.3984 272.226 16.0094 272.226 21.6971Z" stroke="#2E384D" stroke-width="0.777193"/>
<path d="M248.322 32.7457C248.153 32.8774 248.122 33.1215 248.254 33.291C248.386 33.4604 248.63 33.4909 248.799 33.3592L248.322 32.7457ZM254.336 28.0699L248.322 32.7457L248.799 33.3592L254.813 28.6835L254.336 28.0699Z" fill="#2E384D"/>
<path d="M364.824 142.707C371.895 142.707 377.628 136.977 377.628 129.907C377.628 122.837 371.895 117.106 364.824 117.106C357.753 117.106 352.02 122.837 352.02 129.907C352.02 136.977 357.753 142.707 364.824 142.707Z" stroke="white" stroke-width="1.55439"/>
<path d="M364.824 122.559V137.254" stroke="white" stroke-width="1.55439" stroke-linecap="round"/>
<path d="M372.175 129.907L357.475 129.907" stroke="white" stroke-width="1.55439" stroke-linecap="round"/>
<path d="M367.496 136.975C374.353 136.975 379.912 131.418 379.912 124.563C379.912 117.708 374.353 112.151 367.496 112.151C360.639 112.151 355.08 117.708 355.08 124.563C355.08 131.418 360.639 136.975 367.496 136.975Z" stroke="#2E384D" stroke-width="0.777193"/>
<path d="M367.495 117.216V131.911" stroke="#2E384D" stroke-width="0.777193" stroke-linecap="round"/>
<path d="M374.846 124.563L360.146 124.563" stroke="#2E384D" stroke-width="0.777193" stroke-linecap="round"/>
<path d="M39.3246 137.461C37.2902 135.427 37.2902 132.13 39.3246 130.096C41.359 128.062 44.6574 128.062 46.6918 130.096L51.6603 135.063C53.6947 137.097 53.6947 140.394 51.6603 142.428L49.8186 144.269C48.8014 145.286 47.1522 145.286 46.135 144.269L39.3246 137.461Z" fill="white"/>
<path d="M56.6636 137.461C58.698 135.427 58.698 132.13 56.6636 130.096C54.6292 128.062 51.3308 128.062 49.2964 130.096L44.3357 135.055C42.3013 137.089 42.3013 140.386 44.3357 142.42L46.1775 144.261C47.1947 145.278 48.8439 145.278 49.8611 144.261L56.6636 137.461Z" fill="white"/>
<path d="M49.4882 141.872C50.2176 142.601 51.2298 142.875 52.1718 142.695C52.7549 142.591 53.3132 142.315 53.7637 141.864L60.5662 135.064C62.7524 132.878 62.7524 129.335 60.5662 127.149C58.3801 124.964 54.8358 124.964 52.6496 127.149L51.622 128.177L50.5944 127.149C48.4083 124.964 44.8639 124.964 42.6778 127.149C40.4916 129.335 40.4916 132.878 42.6778 135.064L49.4882 141.872Z" stroke="black" stroke-width="0.777193"/>
<defs>
<linearGradient id="paint0_linear_863_9104" x1="5.51016" y1="224.283" x2="151.885" y2="227.252" gradientUnits="userSpaceOnUse">
<stop stop-color="#2A9CAB"/>
<stop offset="1" stop-color="#1A6B6B"/>
</linearGradient>
<linearGradient id="paint1_linear_863_9104" x1="437.49" y1="224.283" x2="291.115" y2="227.252" gradientUnits="userSpaceOnUse">
<stop stop-color="#2A9CAB"/>
<stop offset="1" stop-color="#1A6B6B"/>
</linearGradient>
<linearGradient id="paint2_linear_863_9104" x1="110.367" y1="147.274" x2="110.367" y2="312.928" gradientUnits="userSpaceOnUse">
<stop stop-color="#519E91"/>
<stop offset="1" stop-color="#358A76"/>
</linearGradient>
<linearGradient id="paint3_linear_863_9104" x1="314.71" y1="142.598" x2="314.71" y2="312.928" gradientUnits="userSpaceOnUse">
<stop stop-color="#519E91"/>
<stop offset="1" stop-color="#358A76"/>
</linearGradient>
<linearGradient id="paint4_linear_863_9104" x1="210.141" y1="143.266" x2="210.141" y2="312.928" gradientUnits="userSpaceOnUse">
<stop stop-color="#519E91"/>
<stop offset="1" stop-color="#358A76"/>
</linearGradient>
</defs>
</svg>
