<svg width="43" height="44" viewBox="0 0 43 44" fill="none" xmlns="http://www.w3.org/2000/svg">
<circle cx="21.5" cy="21.5264" r="21.5" fill="#FAFAFA"/>
<g clip-path="url(#clip0_899_10041)">
<path d="M25.5312 10.7764H17.4688C15.6868 10.7764 13.9779 11.4842 12.7179 12.7442C11.4579 14.0043 10.75 15.7132 10.75 17.4951L10.75 25.5576C10.75 27.3395 11.4579 29.0485 12.7179 30.3085C13.9779 31.5685 15.6868 32.2764 17.4688 32.2764H25.5312C27.3132 32.2764 29.0221 31.5685 30.2821 30.3085C31.5421 29.0485 32.25 27.3395 32.25 25.5576V17.4951C32.25 15.7132 31.5421 14.0043 30.2821 12.7442C29.0221 11.4842 27.3132 10.7764 25.5312 10.7764ZM30.2344 25.5576C30.2344 28.1511 28.1247 30.2607 25.5312 30.2607H17.4688C14.8753 30.2607 12.7656 28.1511 12.7656 25.5576V17.4951C12.7656 14.9017 14.8753 12.792 17.4688 12.792H25.5312C28.1247 12.792 30.2344 14.9017 30.2344 17.4951V25.5576Z" fill="url(#paint0_linear_899_10041)"/>
<path d="M21.5 16.1514C20.0745 16.1514 18.7073 16.7177 17.6993 17.7257C16.6913 18.7337 16.125 20.1008 16.125 21.5264C16.125 22.9519 16.6913 24.3191 17.6993 25.3271C18.7073 26.3351 20.0745 26.9014 21.5 26.9014C22.9255 26.9014 24.2927 26.3351 25.3007 25.3271C26.3087 24.3191 26.875 22.9519 26.875 21.5264C26.875 20.1008 26.3087 18.7337 25.3007 17.7257C24.2927 16.7177 22.9255 16.1514 21.5 16.1514ZM21.5 24.8857C20.6094 24.8847 19.7555 24.5304 19.1257 23.9006C18.496 23.2709 18.1417 22.417 18.1406 21.5264C18.1406 19.6733 19.6483 18.167 21.5 18.167C23.3517 18.167 24.8594 19.6733 24.8594 21.5264C24.8594 23.3781 23.3517 24.8857 21.5 24.8857Z" fill="url(#paint1_linear_899_10041)"/>
<path d="M27.2775 16.4647C27.6731 16.4647 27.9937 16.144 27.9937 15.7484C27.9937 15.3529 27.6731 15.0322 27.2775 15.0322C26.8819 15.0322 26.5613 15.3529 26.5613 15.7484C26.5613 16.144 26.8819 16.4647 27.2775 16.4647Z" fill="url(#paint2_linear_899_10041)"/>
</g>
<defs>
<linearGradient id="paint0_linear_899_10041" x1="12.7172" y1="30.3091" x2="30.2828" y2="12.7436" gradientUnits="userSpaceOnUse">
<stop stop-color="#FFC107"/>
<stop offset="0.507" stop-color="#F44336"/>
<stop offset="0.99" stop-color="#9C27B0"/>
</linearGradient>
<linearGradient id="paint1_linear_899_10041" x1="17.6999" y1="25.3265" x2="25.3001" y2="17.7262" gradientUnits="userSpaceOnUse">
<stop stop-color="#FFC107"/>
<stop offset="0.507" stop-color="#F44336"/>
<stop offset="0.99" stop-color="#9C27B0"/>
</linearGradient>
<linearGradient id="paint2_linear_899_10041" x1="26.7709" y1="16.255" x2="27.7841" y2="15.2419" gradientUnits="userSpaceOnUse">
<stop stop-color="#FFC107"/>
<stop offset="0.507" stop-color="#F44336"/>
<stop offset="0.99" stop-color="#9C27B0"/>
</linearGradient>
<clipPath id="clip0_899_10041">
<rect width="21.5" height="21.5" fill="white" transform="translate(10.75 10.7764)"/>
</clipPath>
</defs>
</svg>
