<svg width="15" height="20" viewBox="0 0 15 20" fill="none" xmlns="http://www.w3.org/2000/svg">
<path d="M7.33333 0.693848C5.38841 0.693848 3.52315 1.46646 2.14788 2.84173C0.772617 4.217 0 6.08226 0 8.02718C0 12.9772 6.4625 18.5688 6.7375 18.8072C6.90354 18.9492 7.11484 19.0272 7.33333 19.0272C7.55182 19.0272 7.76313 18.9492 7.92917 18.8072C8.25 18.5688 14.6667 12.9772 14.6667 8.02718C14.6667 6.08226 13.8941 4.217 12.5188 2.84173C11.1435 1.46646 9.27825 0.693848 7.33333 0.693848ZM7.33333 16.873C5.38083 15.0397 1.83333 11.0888 1.83333 8.02718C1.83333 6.56849 2.4128 5.16954 3.44425 4.13809C4.4757 3.10664 5.87464 2.52718 7.33333 2.52718C8.79202 2.52718 10.191 3.10664 11.2224 4.13809C12.2539 5.16954 12.8333 6.56849 12.8333 8.02718C12.8333 11.0888 9.28583 15.0488 7.33333 16.873ZM7.33333 4.36051C6.60814 4.36051 5.89922 4.57556 5.29624 4.97846C4.69326 5.38136 4.2233 5.95401 3.94577 6.62401C3.66825 7.294 3.59564 8.03125 3.73712 8.74251C3.8786 9.45378 4.22782 10.1071 4.74061 10.6199C5.2534 11.1327 5.90674 11.4819 6.618 11.6234C7.32927 11.7649 8.06651 11.6923 8.73651 11.4147C9.4065 11.1372 9.97916 10.6673 10.3821 10.0643C10.785 9.46129 11 8.75238 11 8.02718C11 7.05472 10.6137 6.12209 9.92606 5.43446C9.23843 4.74682 8.30579 4.36051 7.33333 4.36051ZM7.33333 9.86051C6.97073 9.86051 6.61628 9.75299 6.31479 9.55154C6.0133 9.35009 5.77831 9.06377 5.63955 8.72877C5.50079 8.39377 5.46449 8.02515 5.53523 7.66952C5.60597 7.31388 5.78058 6.98722 6.03697 6.73082C6.29337 6.47442 6.62004 6.29981 6.97567 6.22907C7.3313 6.15834 7.69992 6.19464 8.03492 6.3334C8.36992 6.47216 8.65625 6.70715 8.85769 7.00864C9.05914 7.31013 9.16667 7.66458 9.16667 8.02718C9.16667 8.51341 8.97351 8.97973 8.6297 9.32354C8.28588 9.66736 7.81956 9.86051 7.33333 9.86051Z" fill="#00A3AB"/>
</svg>
