<svg width="90" height="90" viewBox="0 0 90 90" fill="none" xmlns="http://www.w3.org/2000/svg">
<circle cx="44.8584" cy="44.54" r="44.54" fill="#00A3AB" fill-opacity="0.06"/>
<rect x="22.9932" y="48.5889" width="9.71782" height="4.85891" fill="#E0F1F4"/>
<mask id="path-3-inside-1_863_9288" fill="white">
<path d="M34.4816 24.0928C34.0406 23.2685 33.4464 22.5419 32.7329 21.9543C32.0195 21.3667 31.2007 20.9297 30.3234 20.6682C29.4461 20.4068 28.5275 20.326 27.6199 20.4305C26.7123 20.535 25.8336 20.8228 25.0339 21.2773C24.2342 21.7319 23.5292 22.3444 22.9591 23.0798C22.3891 23.8152 21.9651 24.6591 21.7115 25.5634C21.4579 26.4677 21.3795 27.4146 21.4809 28.3501C21.5823 29.2856 21.8614 30.1914 22.3024 31.0157L28.392 27.5543L34.4816 24.0928Z"/>
</mask>
<path d="M34.4816 24.0928C34.0406 23.2685 33.4464 22.5419 32.7329 21.9543C32.0195 21.3667 31.2007 20.9297 30.3234 20.6682C29.4461 20.4068 28.5275 20.326 27.6199 20.4305C26.7123 20.535 25.8336 20.8228 25.0339 21.2773C24.2342 21.7319 23.5292 22.3444 22.9591 23.0798C22.3891 23.8152 21.9651 24.6591 21.7115 25.5634C21.4579 26.4677 21.3795 27.4146 21.4809 28.3501C21.5823 29.2856 21.8614 30.1914 22.3024 31.0157L28.392 27.5543L34.4816 24.0928Z" stroke="#00A3AB" stroke-width="4" mask="url(#path-3-inside-1_863_9288)"/>
<mask id="path-4-inside-2_863_9288" fill="white">
<path d="M30.9306 25.8403C31.0971 26.1573 31.2015 26.505 31.2376 26.8636C31.2738 27.2222 31.2411 27.5846 31.1414 27.9301C31.0416 28.2757 30.8769 28.5976 30.6565 28.8775C30.4361 29.1574 30.1643 29.3898 29.8568 29.5615C29.5492 29.7331 29.2119 29.8407 28.864 29.8779C28.5161 29.9152 28.1645 29.8815 27.8293 29.7787C27.4941 29.6759 27.1818 29.5061 26.9102 29.2789C26.6387 29.0517 26.4132 28.7716 26.2466 28.4546L28.5886 27.1474L30.9306 25.8403Z"/>
</mask>
<path d="M30.9306 25.8403C31.0971 26.1573 31.2015 26.505 31.2376 26.8636C31.2738 27.2222 31.2411 27.5846 31.1414 27.9301C31.0416 28.2757 30.8769 28.5976 30.6565 28.8775C30.4361 29.1574 30.1643 29.3898 29.8568 29.5615C29.5492 29.7331 29.2119 29.8407 28.864 29.8779C28.5161 29.9152 28.1645 29.8815 27.8293 29.7787C27.4941 29.6759 27.1818 29.5061 26.9102 29.2789C26.6387 29.0517 26.4132 28.7716 26.2466 28.4546L28.5886 27.1474L30.9306 25.8403Z" stroke="#00A3AB" stroke-width="4" mask="url(#path-4-inside-2_863_9288)"/>
<path d="M26.7645 20.8439L26.0565 19.6748C25.6711 19.0384 24.8558 18.8401 24.2205 19.2281V19.2281C23.583 19.6175 23.3613 20.4541 23.7223 21.1086L24.2492 22.064" stroke="#00A3AB" stroke-width="2"/>
<path d="M39.9316 58.1055C44.3954 58.567 50.8883 58.567 53.7289 59.4901C55.7031 60.1317 53.9994 62.8749 53.7289 63.1826" stroke="#00A3AB" stroke-width="2" stroke-linecap="round"/>
<path d="M31.1704 57.8125C31.1704 59.9312 29.5118 61.5966 27.529 61.5966C25.5463 61.5966 23.8877 59.9312 23.8877 57.8125C23.8877 55.6938 25.5463 54.0283 27.529 54.0283C29.5118 54.0283 31.1704 55.6938 31.1704 57.8125Z" stroke="#00A3AB" stroke-width="2"/>
<path d="M50.852 27.2158C50.852 29.3345 49.1934 31 47.2107 31C45.228 31 43.5693 29.3345 43.5693 27.2158C43.5693 25.0971 45.228 23.4316 47.2107 23.4316C49.1934 23.4316 50.852 25.0971 50.852 27.2158Z" stroke="#00A3AB" stroke-width="2"/>
<path d="M57.1781 53.1542L61.0718 46.7125C61.4448 46.0954 61.6419 45.3882 61.6419 44.6672V44.6672C61.6419 43.6011 61.2115 42.5803 60.4481 41.8361L53.1201 34.6919" stroke="#00A3AB" stroke-width="2" stroke-linecap="round"/>
<path d="M53.1201 41.6152L55.4111 45.3377C55.7553 45.897 55.803 46.5896 55.5387 47.1908L53.1201 52.6926" stroke="#00A3AB"/>
<path d="M37.6593 53.1542L34.1859 46.925C33.8291 46.2852 33.6419 45.5649 33.6419 44.8324V44.8324C33.6419 43.8095 34.0067 42.8202 34.6709 42.0423L40.9463 34.6919" stroke="#00A3AB" stroke-width="2" stroke-linecap="round"/>
<path d="M40.9463 42.0767L38.9314 45.8961C38.6644 46.4024 38.627 46.9989 38.8288 47.5345L40.9463 53.1541" stroke="#00A3AB"/>
<path d="M40.9463 34.6919H53.5261" stroke="#00A3AB" stroke-width="2"/>
<path d="M44.3809 20.8159C44.3809 19.7113 45.2763 18.8159 46.3809 18.8159H48.4969C49.6014 18.8159 50.4969 19.7113 50.4969 20.8159V23.8952L48.4352 23.3387C47.7432 23.152 47.0137 23.1546 46.323 23.3463L44.3809 23.8854V20.8159Z" stroke="#00A3AB" stroke-width="2"/>
<path d="M34.4385 58.0283C34.4385 55.8192 36.2293 54.0283 38.4385 54.0283H65.7721C67.9813 54.0283 69.7721 55.8192 69.7721 58.0283V63.1057H38.4385C36.2293 63.1057 34.4385 61.3149 34.4385 59.1057V58.0283Z" stroke="#00A3AB" stroke-width="2"/>
<rect x="22.2656" y="64.1826" width="47.5077" height="4.46181" stroke="#00A3AB" stroke-width="2"/>
</svg>
