<svg width="29" height="29" viewBox="0 0 29 29" fill="none" xmlns="http://www.w3.org/2000/svg">
<path d="M14.5 1.93517C16.1414 1.93243 17.7672 2.2539 19.284 2.88113C20.8009 3.50836 22.1789 4.42899 23.339 5.59018C28.213 10.4642 28.213 18.3942 23.339 23.2682C20.978 25.6292 17.839 26.9302 14.5 26.9302C11.161 26.9302 8.02201 25.6302 5.66101 23.2682C0.787005 18.3942 0.787006 10.4642 5.66101 5.59017C6.82112 4.42898 8.19914 3.50835 9.71598 2.88113C11.2328 2.2539 12.8586 1.93243 14.5 1.93517ZM21.925 7.00417C17.831 2.91017 11.169 2.91017 7.07501 7.00417C5.09201 8.98817 4.00001 11.6252 4.00001 14.4292C4.00001 17.2332 5.09201 19.8702 7.07501 21.8542C9.05801 23.8382 11.695 24.9302 14.5 24.9302C17.305 24.9302 19.941 23.8372 21.925 21.8542C23.909 19.8712 25 17.2342 25 14.4292C25 11.6242 23.908 8.98817 21.925 7.00417Z" fill="#00A3AB"/>
<path d="M12.202 8.83305C12.3334 8.83292 12.4634 8.85873 12.5848 8.90901C12.7061 8.9593 12.8163 9.03305 12.909 9.12605L17.505 13.7221C17.598 13.8148 17.6717 13.925 17.722 14.0464C17.7723 14.1677 17.7982 14.2977 17.7982 14.4291C17.7982 14.5604 17.7723 14.6904 17.722 14.8117C17.6717 14.9331 17.598 15.0433 17.505 15.1361L12.909 19.7321C12.8162 19.8249 12.7059 19.8985 12.5846 19.9488C12.4633 19.999 12.3333 20.0249 12.202 20.0249C12.0707 20.0249 11.9407 19.999 11.8194 19.9488C11.6981 19.8985 11.5879 19.8249 11.495 19.7321C11.4022 19.6392 11.3285 19.529 11.2783 19.4077C11.228 19.2864 11.2022 19.1564 11.2022 19.0251C11.2022 18.8938 11.228 18.7637 11.2783 18.6424C11.3285 18.5211 11.4022 18.4109 11.495 18.3181L15.384 14.4291L11.495 10.5401C11.3547 10.4004 11.2591 10.2222 11.2202 10.0281C11.1814 9.83396 11.2011 9.63268 11.2768 9.44978C11.3526 9.26688 11.481 9.11061 11.6457 9.00081C11.8104 8.891 12.0041 8.83262 12.202 8.83305Z" fill="#00A3AB"/>
</svg>
