<svg width="90" height="90" viewBox="0 0 90 90" fill="none" xmlns="http://www.w3.org/2000/svg">
<circle cx="44.54" cy="44.54" r="44.54" fill="#0C73F4" fill-opacity="0.15"/>
<path d="M26.5693 44.0318V45.1554C27.0806 45.2119 27.5606 45.4406 27.9278 45.8077C28.3541 46.234 28.5936 46.8124 28.5939 47.4152M26.5693 44.0318L28.1579 48.2647C28.2824 47.9992 28.346 47.7092 28.3439 47.4162H28.5939C28.5939 47.4158 28.5939 47.4155 28.5939 47.4152M26.5693 44.0318C27.3774 44.0933 28.1401 44.4417 28.717 45.0185C29.353 45.6545 29.7113 46.5163 29.7135 47.416C29.712 47.8356 29.635 48.2506 29.4867 48.6413L28.4707 48.1586C28.5538 47.9202 28.5956 47.6688 28.5939 47.4152M26.5693 44.0318L28.5939 47.4152" fill="#0C73F4" stroke="#0C73F4" stroke-width="0.5"/>
<path d="M34.2633 40.4017L34.2492 40.3917L34.2339 40.3837L34.2338 40.3837L34.0255 40.2753L33.9043 40.4764C33.2326 41.5912 32.1205 42.37 30.8427 42.6204L30.8908 42.8657L30.8427 42.6204C29.6475 42.8545 28.4115 42.6055 27.4032 41.9343L28.076 41.0372C28.9415 41.5943 30.0138 41.7429 31.0047 41.4334C32.0754 41.0992 32.9196 40.2705 33.2743 39.2063C33.6291 38.1423 33.4508 36.9725 32.7949 36.0628C32.188 35.2211 31.2409 34.6964 30.2142 34.6227V33.5012C31.3373 33.5632 32.4026 34.0346 33.2056 34.8309L33.3962 35.0199L33.5712 34.8164C34.2364 34.0428 35.1818 33.5719 36.1927 33.5029V34.6258C35.3492 34.7059 34.5871 35.182 34.1469 35.9175L34.0785 36.0317L34.1352 36.1522C34.4221 36.7629 34.5716 37.4287 34.5731 38.103C34.5724 38.3885 34.544 38.6731 34.4888 38.9535L34.4633 39.0834L34.5563 39.1775C34.9959 39.6223 35.5755 39.8973 36.1927 39.9593V41.0849C35.5002 41.0414 34.8315 40.8055 34.2633 40.4017Z" fill="#0C73F4" stroke="#0C73F4" stroke-width="0.5"/>
<path d="M43.6054 46.4185L43.6055 46.4185C44.685 45.7954 46.0152 45.7954 47.0947 46.4185L47.0948 46.4186C48.1016 47.0001 48.748 48.0414 48.8304 49.1904H49.9522C49.8908 48.0591 49.4143 46.9868 48.6093 46.1813C48.6093 46.1813 48.6092 46.1813 48.6092 46.1812M43.6054 46.4185L41.9142 46.0045C42.8256 45.0935 44.0612 44.5815 45.3501 44.5815C46.6389 44.5815 47.8746 45.0935 48.786 46.0045L48.6092 46.1812M43.6054 46.4185C42.5986 47 41.9521 48.0413 41.8698 49.1904H40.748C40.8094 48.059 41.2858 46.9867 42.0909 46.1813M43.6054 46.4185L42.0909 46.1813M48.6092 46.1812C47.7447 45.3171 46.5726 44.8315 45.3501 44.8315C44.1276 44.8315 42.9555 45.3171 42.091 46.1812C42.091 46.1813 42.0909 46.1813 42.0909 46.1813M48.6092 46.1812L42.0909 46.1813" fill="#0C73F4" stroke="#0C73F4" stroke-width="0.5"/>
<path d="M50.2092 33.4943V33.4944L50.213 33.4943C50.9221 33.4934 51.6025 33.2111 52.1041 32.7096C52.5472 32.2666 52.8191 31.6838 52.8771 31.0649H53.9999C53.9208 32.2452 53.2945 33.3271 52.2987 33.9831L52.1477 34.0827L52.195 34.2573C52.6359 35.885 52.2938 37.6249 51.2695 38.9647C50.2963 40.2378 48.8125 41.0114 47.22 41.0865V39.9651C48.43 39.8924 49.5578 39.3116 50.3195 38.3588C51.1337 37.3409 51.4419 36.0085 51.1578 34.7365L51.1048 34.4992L50.8661 34.5456C50.6486 34.5879 50.4283 34.6109 50.2075 34.614C49.2007 34.6136 48.235 34.2134 47.5227 33.5015C46.8696 32.8479 46.4788 31.9811 46.4184 31.0649H47.5415C47.5995 31.6838 47.8714 32.2665 48.3145 32.7096C48.8168 33.2121 49.4987 33.4943 50.2092 33.4943Z" fill="#0C73F4" stroke="#0C73F4" stroke-width="0.5"/>
<path d="M57.3879 35.9535L57.3879 35.9534C56.9511 35.1972 56.1768 34.7058 55.3174 34.6254V33.5024C56.5772 33.5853 57.7208 34.2909 58.3573 35.3936L58.3573 35.3937C59.0361 36.569 59.0361 38.0174 58.3573 39.1927L58.3573 39.1927C57.7208 40.2955 56.5772 41.0011 55.3174 41.084V39.961C56.1768 39.8806 56.9511 39.3891 57.3879 38.633L57.3879 38.6329C57.8664 37.804 57.8664 36.7824 57.3879 35.9535Z" fill="#0C73F4" stroke="#0C73F4" stroke-width="0.5"/>
<path d="M44.8872 41.581L44.6608 41.6885C44.7016 41.7607 44.7399 41.8346 44.7755 41.9102L44.8872 41.581ZM44.8872 41.581C44.918 41.6362 44.9475 41.6923 44.9755 41.7493C44.9842 41.7671 44.9928 41.7849 45.0013 41.8028C45.0014 41.8031 45.0015 41.8033 45.0016 41.8036L44.8872 41.581ZM43.6422 42.1724C43.326 41.6588 42.8158 41.2885 42.2219 41.15L42.2217 41.15C41.5456 40.9929 40.8349 41.1524 40.2911 41.5842L40.291 41.5843C39.8134 41.9638 39.5108 42.5167 39.4448 43.1164H38.3201L43.6422 42.1724Z" fill="#0C73F4" stroke="#0C73F4" stroke-width="0.5"/>
<path d="M44.2905 37.534V38.6558C43.1591 38.5944 42.0868 38.1179 41.2814 37.3129C41.2814 37.3129 41.2814 37.3128 41.2813 37.3128L44.2905 37.534ZM44.2905 37.534C43.4566 37.4741 42.6685 37.1162 42.0732 36.5211L42.0731 36.521C41.4781 35.9257 41.1201 35.1376 41.0602 34.3037H39.9384L44.2905 37.534Z" fill="#0C73F4" stroke="#0C73F4" stroke-width="0.5"/>
<path d="M34.2924 45.5005L34.2923 45.5005C33.5361 45.9373 33.0447 46.7117 32.9643 47.571H31.8412C31.9016 46.6549 32.2923 45.7881 32.9455 45.1346C33.6583 44.4222 34.6246 44.022 35.6321 44.022C36.6395 44.022 37.6059 44.4222 38.3185 45.1344C38.3186 45.1345 38.3186 45.1345 38.3186 45.1345C38.3186 45.1345 38.3186 45.1345 38.3186 45.1345C38.9718 45.7881 39.3625 46.6549 39.4229 47.571H38.2999C38.2195 46.7116 37.728 45.9374 36.9718 45.5005L36.9718 45.5005C36.1428 45.022 35.1213 45.022 34.2924 45.5005Z" fill="#0C73F4" stroke="#0C73F4" stroke-width="0.5"/>
<mask id="path-10-inside-1_863_9267" fill="white">
<path d="M68.7614 37.731C68.7292 37.539 68.6829 37.3496 68.624 37.1641L68.5756 37.0264H68.5752C68.5286 36.8847 68.4714 36.7469 68.4053 36.6132C68.4053 36.5484 68.3485 36.4837 68.308 36.4186V36.419C68.2325 36.2697 68.1457 36.1262 68.0488 35.9899L67.8869 35.7712C67.824 35.6891 67.7563 35.6106 67.6844 35.5362C67.6045 35.4415 67.5177 35.3522 67.4252 35.269C67.3363 35.1801 67.239 35.0991 67.1418 35.0181L66.9393 34.8641C66.7918 34.7575 66.6374 34.6602 66.478 34.5727H66.397V34.4917C66.4032 33.0919 65.8529 31.7474 64.8671 30.7539C63.8812 29.7605 62.5406 29.1997 61.1412 29.1954C60.6958 29.195 60.2522 29.2521 59.8213 29.3653C59.7663 29.0891 59.6878 28.8183 59.5863 28.5555V28.434C59.4865 28.1943 59.3701 27.9615 59.2381 27.7377L59.1166 27.6325C58.9793 27.4149 58.8278 27.2066 58.6633 27.0089L58.5823 26.92C58.4077 26.7197 58.2179 26.5328 58.0154 26.361C57.8043 26.1926 57.5827 26.0386 57.3513 25.8994L57.2461 25.8347C57.0176 25.711 56.7823 25.6 56.5415 25.5028L56.4038 25.4543V25.454C56.1521 25.3694 55.8951 25.3018 55.6344 25.2515H55.5209C55.2379 25.1959 54.9508 25.1608 54.6627 25.1463C54.4324 25.1503 54.2028 25.1662 53.9743 25.1948H53.8124C53.6099 25.2284 53.41 25.2743 53.213 25.3325H53.1483C52.931 25.3987 52.7173 25.4771 52.5087 25.5675L52.3952 25.6243C52.2224 25.7089 52.055 25.8036 51.893 25.9077L51.7795 25.9724H51.7799C51.5966 26.0874 51.4234 26.2175 51.2614 26.361L51.14 26.4662L50.7676 26.8386L50.6624 26.9601L50.6056 27.0168C49.7192 25.9351 48.4358 25.254 47.0428 25.1264C45.6502 24.9984 44.2645 25.4344 43.1959 26.3368C42.1927 25.5534 40.9537 25.1336 39.6812 25.1463C39.4292 25.1485 39.1775 25.1673 38.9281 25.2031H38.7256C38.5127 25.2374 38.3019 25.2833 38.0941 25.3408H37.9885C37.7759 25.4084 37.5677 25.4894 37.3652 25.5838L37.1143 25.7052C36.9766 25.7783 36.8389 25.8509 36.7094 25.9319C36.58 26.0129 36.4744 26.0859 36.3613 26.1669L36.3609 26.1665C36.2398 26.2519 36.1238 26.344 36.0128 26.442C35.9239 26.515 35.8346 26.5877 35.7536 26.6687L35.4701 26.9684C35.3729 27.0819 35.2756 27.1871 35.1867 27.3086C35.0884 27.4333 34.9965 27.5631 34.9112 27.6972L34.806 27.8592C34.1578 27.651 33.4785 27.5551 32.7978 27.5758C31.2428 27.5736 29.7461 28.1676 28.6164 29.2359C27.4862 30.3039 26.8091 31.7648 26.7242 33.3176C25.593 33.5088 24.5656 34.0941 23.8244 34.97C23.0837 35.846 22.6762 36.9559 22.6751 38.1033C22.6769 38.5614 22.7453 39.0169 22.8776 39.4557C22.7163 39.5349 22.562 39.6267 22.4159 39.7309L22.1325 39.9413L21.9543 40.0953C21.7887 40.237 21.6343 40.3914 21.4929 40.5569L21.3715 40.6947C21.2905 40.7999 21.2095 40.8971 21.1365 41.0023L20.9261 41.3425C20.8451 41.4759 20.7721 41.6137 20.7074 41.7554C20.6495 41.8743 20.5982 41.9958 20.5533 42.1198L20.4724 42.3385C20.4185 42.533 20.3697 42.7355 20.3267 42.9459V43.1162C20.2851 43.3327 20.258 43.5518 20.2457 43.772V44.2821V44.4278C20.2457 44.5492 20.2457 44.6707 20.3024 44.7842L20.3509 44.9625C20.3509 45.0677 20.3993 45.1649 20.4319 45.2701L20.5129 45.4726L20.6101 45.7235C20.6101 45.8044 20.6831 45.8775 20.7153 45.9501C20.7478 46.0232 20.7883 46.0879 20.8288 46.1605L20.9666 46.3872L21.088 46.5654L21.258 46.7921V46.7925C21.2815 46.8207 21.3031 46.8503 21.3227 46.8818C20.6068 47.8575 20.2287 49.04 20.2457 50.2504C20.2457 51.754 20.8429 53.1957 21.9061 54.2586C22.9689 55.3219 24.4107 55.9191 25.9143 55.9191C26.573 55.9165 27.226 55.7962 27.8416 55.5626C28.2884 57.068 29.2088 58.3886 30.4666 59.3283C31.7247 60.2682 33.2522 60.7765 34.8222 60.778C36.2643 60.7802 37.6742 60.3514 38.8712 59.547V62.3976C38.8712 62.6124 38.9566 62.8184 39.1084 62.9703C39.2602 63.1221 39.4663 63.2074 39.6811 63.2074H43.7301C44.0783 63.2081 44.3881 62.9865 44.4994 62.6568L47.0666 54.9557V54.9553C47.4314 55.0525 47.8066 55.1042 48.184 55.1093C49.0853 55.1079 49.9649 54.8331 50.7064 54.3212C51.4482 53.8093 52.0173 53.0844 52.3383 52.2424C53.2858 51.8672 54.1144 51.2435 54.7374 50.4366C55.3599 49.63 55.754 48.6706 55.8772 47.659C55.8852 47.5784 55.8852 47.4967 55.8772 47.416V47.0111V46.9464C57.3555 46.7002 58.6374 45.7859 59.3515 44.4682H59.5134C60.6002 44.6822 61.7278 44.4704 62.6634 43.8771C63.0903 43.6385 63.4739 43.3291 63.7971 42.9621H63.8539H64.3802C65.561 42.9599 66.6925 42.49 67.5273 41.6552C68.3621 40.8205 68.8321 39.6889 68.8342 38.5082C68.8302 38.297 68.814 38.0859 68.7858 37.8766L68.7614 37.731ZM34.8224 59.1581C33.5423 59.1588 32.3 58.7261 31.2972 57.9304C30.2943 57.135 29.5901 56.0236 29.2994 54.7772C29.7809 54.4142 30.2043 53.98 30.5546 53.4894C31.4924 54.1163 32.621 54.3929 33.7421 54.27C34.8635 54.1471 35.9054 53.6326 36.6849 52.8174C37.7087 53.7523 39.0398 54.2794 40.4263 54.2993C40.2318 55.6474 39.5583 56.8803 38.5294 57.7724C37.5001 58.6647 36.1842 59.1567 34.8223 59.1582L34.8224 59.1581ZM43.1472 61.5876H40.4911V58.057C41.4267 56.9232 41.9922 55.5295 42.1107 54.0643C42.9317 53.8235 43.6877 53.3998 44.3214 52.8253C44.6309 53.4023 45.0618 53.9052 45.5849 54.2993L43.1472 61.5876ZM64.3809 41.3423C64.2066 41.3397 64.0331 41.3209 63.8625 41.2855H63.7652H63.7656C63.1344 41.1452 62.57 40.7931 62.1662 40.2881C61.7628 39.7827 61.544 39.1547 61.5466 38.508H59.927C59.9277 40.0774 60.7556 41.5299 62.1055 42.3304C61.9959 42.423 61.8795 42.5068 61.757 42.5813C61.3235 42.8304 60.8318 42.9616 60.3319 42.962C60.1161 42.9598 59.9017 42.9327 59.692 42.881L59.4975 42.8242H59.4979C58.8746 42.6384 58.3359 42.24 57.9755 41.6988L56.6231 42.6059V42.6055C56.9495 43.082 57.3613 43.4938 57.8378 43.8203C57.3298 44.6843 56.4507 45.2642 55.4568 45.3915C55.0555 44.4334 54.3801 43.6153 53.5161 43.039C52.6517 42.4628 51.6365 42.1544 50.5979 42.1522V43.7719C51.5346 43.7664 52.4373 44.1218 53.1188 44.7639C53.8002 45.4063 54.2084 46.2866 54.2582 47.2216C54.2011 48.4236 53.6064 49.5357 52.6386 50.2504C52.5685 49.3636 52.2359 48.518 51.6831 47.821L50.3874 48.8738C50.7978 49.3766 51.0212 50.0064 51.019 50.6553C51.019 51.4069 50.7204 52.1278 50.1889 52.6596C49.6571 53.191 48.9363 53.4897 48.1847 53.4897C47.5582 53.4922 46.9487 53.2843 46.4541 52.8997C45.9592 52.5154 45.6078 51.976 45.4556 51.3679C45.918 50.5295 46.1602 49.5881 46.1602 48.6308H44.5406C44.5406 50.0773 43.7687 51.4141 42.516 52.1372C41.2634 52.8606 39.7196 52.8606 38.467 52.1372C37.2143 51.4142 36.4424 50.0773 36.4424 48.6308H34.8228C34.8207 49.6637 35.1008 50.677 35.6326 51.5624C35.0217 52.2674 34.1363 52.6745 33.2032 52.6798C32.4516 52.6809 31.7231 52.4203 31.1425 51.9431C30.5618 51.4659 30.1652 50.8017 30.0207 50.0642L29.2676 50.2182L28.4173 50.2179C28.4134 50.2721 28.4134 50.326 28.4173 50.3798C28.5666 51.1065 28.8826 51.7883 29.3403 52.3722C28.7141 53.3656 27.6878 54.0384 26.527 54.2159C25.3661 54.3934 24.1854 54.0583 23.291 53.2973C22.3966 52.5363 21.8767 51.4246 21.8659 50.2504C21.8666 49.4196 22.1273 48.6097 22.611 47.9345C23.364 48.3878 24.2259 48.6286 25.1051 48.6308V47.0112C24.2906 47.0086 23.5071 46.6992 22.9107 46.1446C22.8217 46.0557 22.7324 45.9584 22.6514 45.8612C22.5705 45.7639 22.53 45.7234 22.4732 45.6424C22.398 45.5369 22.3304 45.4259 22.2708 45.3106L22.1413 45.0756C22.0857 44.9331 22.0397 44.7871 22.0036 44.6385C21.9772 44.5752 21.9555 44.5105 21.9389 44.444C21.8901 44.2234 21.8655 43.9979 21.8659 43.7719C21.8666 43.5676 21.8883 43.3641 21.9306 43.1645V43.0189C21.9642 42.8667 22.0101 42.7177 22.0683 42.5735L22.1168 42.4599C22.1887 42.2933 22.2755 42.1335 22.376 41.9824C22.7194 41.4788 23.1963 41.0807 23.7526 40.8323L23.8662 40.7918C24.2581 40.6248 24.6792 40.5366 25.1051 40.5326V38.913C24.8774 38.9155 24.65 38.9343 24.4247 38.9698C24.3416 38.6881 24.2982 38.3968 24.2953 38.1032C24.2964 37.3603 24.5527 36.6398 25.0216 36.0635C25.4905 35.4869 26.1431 35.0892 26.8705 34.937C27.2125 36.531 28.1814 37.9202 29.5592 38.7915L30.4257 37.4148C29.3307 36.7232 28.591 35.5891 28.3994 34.3079C28.2077 33.027 28.5834 31.726 29.4279 30.7444C30.2727 29.7625 31.503 29.197 32.7983 29.1953C33.2716 29.1967 33.7419 29.2734 34.1913 29.4219C34.0742 29.8771 34.0145 30.3449 34.0131 30.8149H35.6327C35.6334 30.0264 35.8641 29.2553 36.2968 28.5958L36.3778 28.4906C36.4986 28.3196 36.6312 28.1573 36.7744 28.0048C36.7993 27.9758 36.8265 27.9487 36.8554 27.9238C37.2032 27.5843 37.6092 27.3099 38.0542 27.114L38.2082 27.0572H38.2078C38.3835 26.9849 38.565 26.9281 38.7505 26.8873L38.945 26.8388C39.1879 26.794 39.4345 26.7698 39.6818 26.7658C39.9536 26.7687 40.2244 26.7958 40.4916 26.8468C40.613 26.8468 40.7345 26.9278 40.856 26.9603C40.9912 26.9936 41.1239 27.037 41.2529 27.0897C41.339 27.1306 41.4229 27.1769 41.5038 27.2275C41.6636 27.3027 41.818 27.3894 41.9655 27.4867L42.1112 27.5756C42.2815 27.7029 42.4413 27.8439 42.5891 27.9968C43.3212 28.752 43.7308 29.7628 43.7308 30.8149H45.3505C45.3447 29.6544 44.9828 28.5239 44.314 27.5756C45.1422 26.9119 46.2207 26.6458 47.2625 26.8486C48.3045 27.0514 49.2046 27.7025 49.7234 28.6283C49.5145 29.1992 49.4049 29.8019 49.3995 30.4099H51.0191C51.0155 29.6898 51.227 28.9848 51.6265 28.3854C51.6265 28.3369 51.6912 28.3044 51.7154 28.256C51.812 28.1244 51.9175 28 52.0314 27.8832L52.1608 27.7455C52.2834 27.6316 52.4132 27.526 52.5498 27.4299L52.655 27.3489C52.8286 27.2365 53.0097 27.1363 53.1977 27.0492L53.3596 26.9924C53.5104 26.9353 53.6648 26.8869 53.8209 26.8467L54.0154 26.8063C54.2287 26.764 54.4457 26.7423 54.6633 26.7415C54.908 26.7408 55.1524 26.7654 55.3921 26.8142C56.2139 26.9852 56.9518 27.4331 57.4828 28.0835C58.0135 28.7335 58.3046 29.5463 58.3075 30.3857V30.5072C58.3075 30.7219 58.3928 30.928 58.5446 31.0798C58.6965 31.2317 58.9025 31.317 59.1173 31.317C59.2897 31.3239 59.46 31.2758 59.6032 31.1792C60.1064 30.9309 60.6617 30.8058 61.2228 30.8148C62.1096 30.8275 62.9613 31.1633 63.6175 31.7602C64.2737 32.3567 64.6894 33.1724 64.786 34.0541H64.4215V35.6737C64.7653 35.6755 65.1059 35.7417 65.4259 35.8682L65.6121 35.9492C65.7285 35.9973 65.8395 36.0569 65.944 36.1271L66.0329 36.1838H66.0332C66.3207 36.3808 66.5679 36.631 66.7621 36.921C66.8445 37.0533 66.9175 37.1914 66.9804 37.3338L67.0289 37.4473H67.0292C67.0791 37.5674 67.1171 37.6921 67.1424 37.8197C67.1453 37.8656 67.1453 37.9115 67.1424 37.9574C67.3192 38.7879 67.1099 39.6537 66.573 40.3117C66.0365 40.9697 65.2303 41.3486 64.3811 41.3425L64.3809 41.3423Z"/>
</mask>
<path d="M68.7614 37.731C68.7292 37.539 68.6829 37.3496 68.624 37.1641L68.5756 37.0264H68.5752C68.5286 36.8847 68.4714 36.7469 68.4053 36.6132C68.4053 36.5484 68.3485 36.4837 68.308 36.4186V36.419C68.2325 36.2697 68.1457 36.1262 68.0488 35.9899L67.8869 35.7712C67.824 35.6891 67.7563 35.6106 67.6844 35.5362C67.6045 35.4415 67.5177 35.3522 67.4252 35.269C67.3363 35.1801 67.239 35.0991 67.1418 35.0181L66.9393 34.8641C66.7918 34.7575 66.6374 34.6602 66.478 34.5727H66.397V34.4917C66.4032 33.0919 65.8529 31.7474 64.8671 30.7539C63.8812 29.7605 62.5406 29.1997 61.1412 29.1954C60.6958 29.195 60.2522 29.2521 59.8213 29.3653C59.7663 29.0891 59.6878 28.8183 59.5863 28.5555V28.434C59.4865 28.1943 59.3701 27.9615 59.2381 27.7377L59.1166 27.6325C58.9793 27.4149 58.8278 27.2066 58.6633 27.0089L58.5823 26.92C58.4077 26.7197 58.2179 26.5328 58.0154 26.361C57.8043 26.1926 57.5827 26.0386 57.3513 25.8994L57.2461 25.8347C57.0176 25.711 56.7823 25.6 56.5415 25.5028L56.4038 25.4543V25.454C56.1521 25.3694 55.8951 25.3018 55.6344 25.2515H55.5209C55.2379 25.1959 54.9508 25.1608 54.6627 25.1463C54.4324 25.1503 54.2028 25.1662 53.9743 25.1948H53.8124C53.6099 25.2284 53.41 25.2743 53.213 25.3325H53.1483C52.931 25.3987 52.7173 25.4771 52.5087 25.5675L52.3952 25.6243C52.2224 25.7089 52.055 25.8036 51.893 25.9077L51.7795 25.9724H51.7799C51.5966 26.0874 51.4234 26.2175 51.2614 26.361L51.14 26.4662L50.7676 26.8386L50.6624 26.9601L50.6056 27.0168C49.7192 25.9351 48.4358 25.254 47.0428 25.1264C45.6502 24.9984 44.2645 25.4344 43.1959 26.3368C42.1927 25.5534 40.9537 25.1336 39.6812 25.1463C39.4292 25.1485 39.1775 25.1673 38.9281 25.2031H38.7256C38.5127 25.2374 38.3019 25.2833 38.0941 25.3408H37.9885C37.7759 25.4084 37.5677 25.4894 37.3652 25.5838L37.1143 25.7052C36.9766 25.7783 36.8389 25.8509 36.7094 25.9319C36.58 26.0129 36.4744 26.0859 36.3613 26.1669L36.3609 26.1665C36.2398 26.2519 36.1238 26.344 36.0128 26.442C35.9239 26.515 35.8346 26.5877 35.7536 26.6687L35.4701 26.9684C35.3729 27.0819 35.2756 27.1871 35.1867 27.3086C35.0884 27.4333 34.9965 27.5631 34.9112 27.6972L34.806 27.8592C34.1578 27.651 33.4785 27.5551 32.7978 27.5758C31.2428 27.5736 29.7461 28.1676 28.6164 29.2359C27.4862 30.3039 26.8091 31.7648 26.7242 33.3176C25.593 33.5088 24.5656 34.0941 23.8244 34.97C23.0837 35.846 22.6762 36.9559 22.6751 38.1033C22.6769 38.5614 22.7453 39.0169 22.8776 39.4557C22.7163 39.5349 22.562 39.6267 22.4159 39.7309L22.1325 39.9413L21.9543 40.0953C21.7887 40.237 21.6343 40.3914 21.4929 40.5569L21.3715 40.6947C21.2905 40.7999 21.2095 40.8971 21.1365 41.0023L20.9261 41.3425C20.8451 41.4759 20.7721 41.6137 20.7074 41.7554C20.6495 41.8743 20.5982 41.9958 20.5533 42.1198L20.4724 42.3385C20.4185 42.533 20.3697 42.7355 20.3267 42.9459V43.1162C20.2851 43.3327 20.258 43.5518 20.2457 43.772V44.2821V44.4278C20.2457 44.5492 20.2457 44.6707 20.3024 44.7842L20.3509 44.9625C20.3509 45.0677 20.3993 45.1649 20.4319 45.2701L20.5129 45.4726L20.6101 45.7235C20.6101 45.8044 20.6831 45.8775 20.7153 45.9501C20.7478 46.0232 20.7883 46.0879 20.8288 46.1605L20.9666 46.3872L21.088 46.5654L21.258 46.7921V46.7925C21.2815 46.8207 21.3031 46.8503 21.3227 46.8818C20.6068 47.8575 20.2287 49.04 20.2457 50.2504C20.2457 51.754 20.8429 53.1957 21.9061 54.2586C22.9689 55.3219 24.4107 55.9191 25.9143 55.9191C26.573 55.9165 27.226 55.7962 27.8416 55.5626C28.2884 57.068 29.2088 58.3886 30.4666 59.3283C31.7247 60.2682 33.2522 60.7765 34.8222 60.778C36.2643 60.7802 37.6742 60.3514 38.8712 59.547V62.3976C38.8712 62.6124 38.9566 62.8184 39.1084 62.9703C39.2602 63.1221 39.4663 63.2074 39.6811 63.2074H43.7301C44.0783 63.2081 44.3881 62.9865 44.4994 62.6568L47.0666 54.9557V54.9553C47.4314 55.0525 47.8066 55.1042 48.184 55.1093C49.0853 55.1079 49.9649 54.8331 50.7064 54.3212C51.4482 53.8093 52.0173 53.0844 52.3383 52.2424C53.2858 51.8672 54.1144 51.2435 54.7374 50.4366C55.3599 49.63 55.754 48.6706 55.8772 47.659C55.8852 47.5784 55.8852 47.4967 55.8772 47.416V47.0111V46.9464C57.3555 46.7002 58.6374 45.7859 59.3515 44.4682H59.5134C60.6002 44.6822 61.7278 44.4704 62.6634 43.8771C63.0903 43.6385 63.4739 43.3291 63.7971 42.9621H63.8539H64.3802C65.561 42.9599 66.6925 42.49 67.5273 41.6552C68.3621 40.8205 68.8321 39.6889 68.8342 38.5082C68.8302 38.297 68.814 38.0859 68.7858 37.8766L68.7614 37.731ZM34.8224 59.1581C33.5423 59.1588 32.3 58.7261 31.2972 57.9304C30.2943 57.135 29.5901 56.0236 29.2994 54.7772C29.7809 54.4142 30.2043 53.98 30.5546 53.4894C31.4924 54.1163 32.621 54.3929 33.7421 54.27C34.8635 54.1471 35.9054 53.6326 36.6849 52.8174C37.7087 53.7523 39.0398 54.2794 40.4263 54.2993C40.2318 55.6474 39.5583 56.8803 38.5294 57.7724C37.5001 58.6647 36.1842 59.1567 34.8223 59.1582L34.8224 59.1581ZM43.1472 61.5876H40.4911V58.057C41.4267 56.9232 41.9922 55.5295 42.1107 54.0643C42.9317 53.8235 43.6877 53.3998 44.3214 52.8253C44.6309 53.4023 45.0618 53.9052 45.5849 54.2993L43.1472 61.5876ZM64.3809 41.3423C64.2066 41.3397 64.0331 41.3209 63.8625 41.2855H63.7652H63.7656C63.1344 41.1452 62.57 40.7931 62.1662 40.2881C61.7628 39.7827 61.544 39.1547 61.5466 38.508H59.927C59.9277 40.0774 60.7556 41.5299 62.1055 42.3304C61.9959 42.423 61.8795 42.5068 61.757 42.5813C61.3235 42.8304 60.8318 42.9616 60.3319 42.962C60.1161 42.9598 59.9017 42.9327 59.692 42.881L59.4975 42.8242H59.4979C58.8746 42.6384 58.3359 42.24 57.9755 41.6988L56.6231 42.6059V42.6055C56.9495 43.082 57.3613 43.4938 57.8378 43.8203C57.3298 44.6843 56.4507 45.2642 55.4568 45.3915C55.0555 44.4334 54.3801 43.6153 53.5161 43.039C52.6517 42.4628 51.6365 42.1544 50.5979 42.1522V43.7719C51.5346 43.7664 52.4373 44.1218 53.1188 44.7639C53.8002 45.4063 54.2084 46.2866 54.2582 47.2216C54.2011 48.4236 53.6064 49.5357 52.6386 50.2504C52.5685 49.3636 52.2359 48.518 51.6831 47.821L50.3874 48.8738C50.7978 49.3766 51.0212 50.0064 51.019 50.6553C51.019 51.4069 50.7204 52.1278 50.1889 52.6596C49.6571 53.191 48.9363 53.4897 48.1847 53.4897C47.5582 53.4922 46.9487 53.2843 46.4541 52.8997C45.9592 52.5154 45.6078 51.976 45.4556 51.3679C45.918 50.5295 46.1602 49.5881 46.1602 48.6308H44.5406C44.5406 50.0773 43.7687 51.4141 42.516 52.1372C41.2634 52.8606 39.7196 52.8606 38.467 52.1372C37.2143 51.4142 36.4424 50.0773 36.4424 48.6308H34.8228C34.8207 49.6637 35.1008 50.677 35.6326 51.5624C35.0217 52.2674 34.1363 52.6745 33.2032 52.6798C32.4516 52.6809 31.7231 52.4203 31.1425 51.9431C30.5618 51.4659 30.1652 50.8017 30.0207 50.0642L29.2676 50.2182L28.4173 50.2179C28.4134 50.2721 28.4134 50.326 28.4173 50.3798C28.5666 51.1065 28.8826 51.7883 29.3403 52.3722C28.7141 53.3656 27.6878 54.0384 26.527 54.2159C25.3661 54.3934 24.1854 54.0583 23.291 53.2973C22.3966 52.5363 21.8767 51.4246 21.8659 50.2504C21.8666 49.4196 22.1273 48.6097 22.611 47.9345C23.364 48.3878 24.2259 48.6286 25.1051 48.6308V47.0112C24.2906 47.0086 23.5071 46.6992 22.9107 46.1446C22.8217 46.0557 22.7324 45.9584 22.6514 45.8612C22.5705 45.7639 22.53 45.7234 22.4732 45.6424C22.398 45.5369 22.3304 45.4259 22.2708 45.3106L22.1413 45.0756C22.0857 44.9331 22.0397 44.7871 22.0036 44.6385C21.9772 44.5752 21.9555 44.5105 21.9389 44.444C21.8901 44.2234 21.8655 43.9979 21.8659 43.7719C21.8666 43.5676 21.8883 43.3641 21.9306 43.1645V43.0189C21.9642 42.8667 22.0101 42.7177 22.0683 42.5735L22.1168 42.4599C22.1887 42.2933 22.2755 42.1335 22.376 41.9824C22.7194 41.4788 23.1963 41.0807 23.7526 40.8323L23.8662 40.7918C24.2581 40.6248 24.6792 40.5366 25.1051 40.5326V38.913C24.8774 38.9155 24.65 38.9343 24.4247 38.9698C24.3416 38.6881 24.2982 38.3968 24.2953 38.1032C24.2964 37.3603 24.5527 36.6398 25.0216 36.0635C25.4905 35.4869 26.1431 35.0892 26.8705 34.937C27.2125 36.531 28.1814 37.9202 29.5592 38.7915L30.4257 37.4148C29.3307 36.7232 28.591 35.5891 28.3994 34.3079C28.2077 33.027 28.5834 31.726 29.4279 30.7444C30.2727 29.7625 31.503 29.197 32.7983 29.1953C33.2716 29.1967 33.7419 29.2734 34.1913 29.4219C34.0742 29.8771 34.0145 30.3449 34.0131 30.8149H35.6327C35.6334 30.0264 35.8641 29.2553 36.2968 28.5958L36.3778 28.4906C36.4986 28.3196 36.6312 28.1573 36.7744 28.0048C36.7993 27.9758 36.8265 27.9487 36.8554 27.9238C37.2032 27.5843 37.6092 27.3099 38.0542 27.114L38.2082 27.0572H38.2078C38.3835 26.9849 38.565 26.9281 38.7505 26.8873L38.945 26.8388C39.1879 26.794 39.4345 26.7698 39.6818 26.7658C39.9536 26.7687 40.2244 26.7958 40.4916 26.8468C40.613 26.8468 40.7345 26.9278 40.856 26.9603C40.9912 26.9936 41.1239 27.037 41.2529 27.0897C41.339 27.1306 41.4229 27.1769 41.5038 27.2275C41.6636 27.3027 41.818 27.3894 41.9655 27.4867L42.1112 27.5756C42.2815 27.7029 42.4413 27.8439 42.5891 27.9968C43.3212 28.752 43.7308 29.7628 43.7308 30.8149H45.3505C45.3447 29.6544 44.9828 28.5239 44.314 27.5756C45.1422 26.9119 46.2207 26.6458 47.2625 26.8486C48.3045 27.0514 49.2046 27.7025 49.7234 28.6283C49.5145 29.1992 49.4049 29.8019 49.3995 30.4099H51.0191C51.0155 29.6898 51.227 28.9848 51.6265 28.3854C51.6265 28.3369 51.6912 28.3044 51.7154 28.256C51.812 28.1244 51.9175 28 52.0314 27.8832L52.1608 27.7455C52.2834 27.6316 52.4132 27.526 52.5498 27.4299L52.655 27.3489C52.8286 27.2365 53.0097 27.1363 53.1977 27.0492L53.3596 26.9924C53.5104 26.9353 53.6648 26.8869 53.8209 26.8467L54.0154 26.8063C54.2287 26.764 54.4457 26.7423 54.6633 26.7415C54.908 26.7408 55.1524 26.7654 55.3921 26.8142C56.2139 26.9852 56.9518 27.4331 57.4828 28.0835C58.0135 28.7335 58.3046 29.5463 58.3075 30.3857V30.5072C58.3075 30.7219 58.3928 30.928 58.5446 31.0798C58.6965 31.2317 58.9025 31.317 59.1173 31.317C59.2897 31.3239 59.46 31.2758 59.6032 31.1792C60.1064 30.9309 60.6617 30.8058 61.2228 30.8148C62.1096 30.8275 62.9613 31.1633 63.6175 31.7602C64.2737 32.3567 64.6894 33.1724 64.786 34.0541H64.4215V35.6737C64.7653 35.6755 65.1059 35.7417 65.4259 35.8682L65.6121 35.9492C65.7285 35.9973 65.8395 36.0569 65.944 36.1271L66.0329 36.1838H66.0332C66.3207 36.3808 66.5679 36.631 66.7621 36.921C66.8445 37.0533 66.9175 37.1914 66.9804 37.3338L67.0289 37.4473H67.0292C67.0791 37.5674 67.1171 37.6921 67.1424 37.8197C67.1453 37.8656 67.1453 37.9115 67.1424 37.9574C67.3192 38.7879 67.1099 39.6537 66.573 40.3117C66.0365 40.9697 65.2303 41.3486 64.3811 41.3425L64.3809 41.3423Z" fill="#0C73F4" stroke="#0C73F4" mask="url(#path-10-inside-1_863_9267)"/>
<path d="M37.0087 55.0404L37.9798 55.6017C37.2779 56.6513 36.0953 57.2889 34.8219 57.2889C33.5485 57.2889 32.3658 56.6513 31.664 55.6017L32.635 55.0404C32.8577 55.3543 33.1462 55.6174 33.4814 55.8108L37.0087 55.0404ZM37.0087 55.0404C36.786 55.3543 36.4976 55.6174 36.1623 55.8108C35.7548 56.0461 35.2923 56.1697 34.8219 56.1693M37.0087 55.0404L33.4815 55.8109C33.889 56.0461 34.3515 56.1697 34.8219 56.1693M34.8219 56.1693C34.8219 56.1693 34.8219 56.1693 34.8219 56.1693L34.8219 56.1693Z" fill="#0C73F4" stroke="#0C73F4" stroke-width="0.5"/>
</svg>
