<svg width="90" height="90" viewBox="0 0 90 90" fill="none" xmlns="http://www.w3.org/2000/svg">
<circle cx="44.6584" cy="44.5382" r="44.5382" fill="#FBE547" fill-opacity="0.13"/>
<path d="M26.212 54.0008C27.9675 56.0178 30.1056 57.6667 32.5024 58.8528C34.8994 60.0385 37.5075 60.7375 40.1758 60.9094C40.6431 60.9409 41.1048 60.9566 41.567 60.9566C44.8707 60.9625 48.1254 60.1546 51.0426 58.6046L58.623 67.2774C59.4177 68.1855 60.5404 68.7406 61.7441 68.8216C62.9481 68.9022 64.1349 68.5016 65.0434 67.7077C65.9504 66.9123 66.5048 65.79 66.5858 64.5867C66.6663 63.383 66.2664 62.1966 65.474 61.2873L57.9353 52.6673C60.4408 49.2617 61.8238 45.1604 61.892 40.9324C61.9605 36.7051 60.7106 32.5609 58.3169 29.0756C55.9227 25.5906 52.5032 22.9375 48.5328 21.4845C44.5623 20.0315 40.2376 19.8509 36.1595 20.9674C32.0817 22.0843 28.4527 24.4429 25.7764 27.7159C23.0999 30.9889 21.5092 35.0143 21.2243 39.2333C21.0372 41.9021 21.3818 44.5819 22.2376 47.117C23.0937 49.6517 24.4446 51.9917 26.2119 54.0006L26.212 54.0008ZM64.4867 62.1481C65.051 62.7951 65.3352 63.6396 65.277 64.4957C65.2191 65.3522 64.8233 66.1505 64.1773 66.7156C63.5318 67.2707 62.6939 67.5501 61.8443 67.493C60.9948 67.4359 60.2017 67.0474 59.6362 66.4109L52.2026 57.938C53.1693 57.3441 54.0844 56.67 54.9376 55.9222C55.7169 55.2429 56.4434 54.5058 57.111 53.7173L64.4867 62.1481ZM22.5316 39.3017C22.8648 34.4889 25.01 29.9811 28.5341 26.6866C32.0587 23.3923 36.7004 21.5559 41.5251 21.5475C41.9503 21.5475 42.3809 21.5475 42.8112 21.5896V21.5892C46.572 21.8412 50.173 23.2027 53.1596 25.5016C56.1462 27.8004 58.3837 30.9339 59.5892 34.505C60.7946 38.0757 60.9137 41.924 59.9312 45.5631C58.949 49.2019 56.9098 52.4675 54.071 54.9469C51.2324 57.4263 47.722 59.0079 43.9842 59.4916C40.2461 59.9757 36.4491 59.34 33.0724 57.6651C29.6961 55.9902 26.8922 53.3514 25.0159 50.0828C23.1395 46.8142 22.275 43.0626 22.5313 39.3022L22.5316 39.3017Z" fill="#FBE547" stroke="#FBE547" stroke-width="0.323915"/>
<path d="M40.4597 56.71C40.8273 56.71 41.1895 56.7466 41.5465 56.7466L41.5462 56.7469C44.7936 56.7455 47.9655 55.7655 50.6474 53.9342C53.3293 52.1033 55.3976 49.5063 56.5815 46.4823C57.7654 43.4583 58.0104 40.148 57.2842 36.9823C56.5584 33.8169 54.8953 30.9439 52.5117 28.738C50.1285 26.5325 47.1357 25.0958 43.9235 24.6169C40.7117 24.1376 37.4299 24.6374 34.5069 26.0516C34.214 26.226 34.1034 26.5958 34.2524 26.9027C34.4018 27.2092 34.7611 27.3505 35.0789 27.2275C39.2993 25.1929 44.2328 25.2753 48.3831 27.4497C52.5328 29.6238 55.4091 33.6332 56.1389 38.2613C56.8684 42.8887 55.3655 47.5892 52.086 50.9345C48.8064 54.2799 44.1371 55.8766 39.4961 55.2394C34.8547 54.6023 30.7885 51.8064 28.5318 47.7007C26.2754 43.595 26.0945 38.6636 28.0444 34.4041C28.1968 34.0749 28.0532 33.6845 27.724 33.5325C27.3952 33.3802 27.0048 33.5237 26.8528 33.8526C25.3965 37.0366 25.0131 40.6069 25.7598 44.0276C26.5068 47.4477 28.3436 50.5336 30.9945 52.8205C33.6453 55.1077 36.967 56.4725 40.4598 56.7097L40.4597 56.71Z" fill="#FBE547" stroke="#FBE547" stroke-width="0.323915"/>
<path d="M29.7137 31.2115C29.9056 31.2111 30.0879 31.1269 30.2124 30.9804C30.72 30.3876 31.2729 29.8346 31.8662 29.3271C31.9995 29.2146 32.0822 29.0539 32.0961 28.8803C32.1097 28.7067 32.0533 28.5346 31.9394 28.4028C31.7032 28.1307 31.292 28.0981 31.0155 28.3296C30.3758 28.8781 29.7807 29.4768 29.2359 30.1195C29.0659 30.311 29.0227 30.5838 29.1253 30.8186C29.2278 31.0529 29.4578 31.2067 29.7137 31.2115L29.7137 31.2115Z" fill="#FBE547" stroke="#FBE547" stroke-width="0.323915"/>
<path d="M49.8562 39.8743C49.2762 40.1961 48.6189 40.3521 47.9558 40.3258C47.7822 40.3097 47.6093 40.3638 47.4764 40.4766C47.3431 40.5891 47.2604 40.7502 47.2472 40.9241C47.2201 41.2859 47.4892 41.6019 47.851 41.6327H48.1766C48.8262 41.6235 49.4674 41.4825 50.061 41.2182C50.336 41.6221 50.4448 42.1164 50.3657 42.5987C50.2679 43.1682 49.9215 43.6647 49.4206 43.9532C48.7918 43.3047 47.9345 42.9279 47.032 42.903H46.7958C46.0418 42.9569 45.297 42.7119 44.7221 42.2208C44.4749 41.9634 44.3343 41.6221 44.3284 41.2655C44.3474 40.9029 44.0688 40.5939 43.7063 40.5748C43.3441 40.5562 43.035 40.8348 43.016 41.197C43.0072 41.899 43.2683 42.5776 43.7458 43.0924C44.0139 43.3799 44.3346 43.6135 44.6906 43.7801C44.4906 43.9291 44.3042 44.0961 44.1343 44.2788C43.9256 44.5502 43.9604 44.9365 44.2145 45.1658C44.469 45.3954 44.8568 45.3906 45.1054 45.1555C45.6199 44.6319 46.3058 44.3111 47.0374 44.2525C47.6643 44.2964 48.2463 44.5941 48.649 45.0768C48.701 45.4246 48.701 45.7784 48.649 46.1266C48.4926 47.1413 47.8796 48.0282 46.9858 48.5328C46.0915 49.0378 45.0156 49.1048 44.0658 48.7145C44.1262 48.0198 43.9175 47.3285 43.4832 46.7829C43.1225 46.3779 42.6128 46.1373 42.0712 46.116C41.7164 46.116 41.4282 46.402 41.4253 46.7565C41.4194 47.1139 41.6985 47.4116 42.0555 47.4285C42.2338 47.4442 42.3986 47.5314 42.5121 47.6701C42.7143 47.9649 42.8036 48.3227 42.7641 48.6779C42.4898 48.7592 42.2005 48.7753 41.9189 48.7251L41.7351 48.683C41.6128 48.5523 41.4418 48.4783 41.2627 48.4783C41.1137 48.3934 40.9775 48.2872 40.8584 48.1634C40.6113 47.9104 40.2088 47.8964 39.9452 48.1319C39.3377 48.6731 38.5134 48.902 37.714 48.7515C37.2467 48.6731 36.8091 48.4717 36.4455 48.1681C36.0819 47.8646 35.8058 47.4698 35.6454 47.0242C36.6952 46.788 37.9502 46.1267 38.1915 44.6407V44.641C38.22 44.2997 37.9809 43.994 37.6429 43.939C37.3049 43.8841 36.9816 44.0983 36.9003 44.4308C36.7113 45.5594 35.3623 45.7696 34.9423 45.8062H34.9419C34.4856 45.6415 34.0704 45.38 33.7243 45.0398C33.6035 44.9058 33.4329 44.8271 33.2527 44.8227C33.0722 44.8183 32.8982 44.8882 32.7708 45.016C32.6437 45.1438 32.5749 45.3185 32.5804 45.499C32.5859 45.6792 32.6653 45.8491 32.8001 45.9692C33.2194 46.3841 33.7126 46.7173 34.2543 46.951C34.3821 47.5424 34.6421 48.0968 35.0156 48.5728L33.6665 49.9534V49.9538C33.5431 50.0768 33.4735 50.2438 33.4735 50.4181C33.4735 50.5928 33.5431 50.7597 33.6665 50.8828C33.7873 51.0044 33.9518 51.0725 34.1231 51.0717C34.2996 51.0714 34.4681 50.9992 34.5904 50.8725L36.013 49.4393C36.6597 49.8681 37.4185 50.0966 38.1945 50.0966C38.9701 50.0966 39.7288 49.8681 40.3755 49.4393C40.4543 49.4971 40.5436 49.5495 40.6275 49.6019V51.7019C40.6275 52.0641 40.9215 52.3581 41.2837 52.3581C41.6462 52.3581 41.9399 52.0641 41.9399 51.7019V50.0009C42.4232 50.0449 42.9103 49.9764 43.3625 49.8014C43.7342 49.9672 44.126 50.0837 44.5282 50.1478C44.7845 50.1939 45.0445 50.217 45.3052 50.2162C46.2833 50.2144 47.2362 49.9061 48.0296 49.3341C48.3548 49.0986 48.6496 48.8236 48.9063 48.5153L50.1557 49.5651C50.274 49.6673 50.4248 49.7233 50.5808 49.7226C50.8551 49.7189 51.0986 49.5461 51.1927 49.2887C51.2872 49.0312 51.2129 48.7423 51.0063 48.5625L49.6097 47.4021C49.921 46.6964 50.051 45.9241 49.9876 45.1555C50.5534 44.853 51.0159 44.3887 51.3158 43.8218L53.0534 44.2367H53.2057C53.4983 44.1891 53.7227 43.9514 53.7535 43.657C53.7843 43.3622 53.6136 43.0836 53.3372 42.9766L51.6677 42.583C51.7307 41.8389 51.5318 41.0963 51.1059 40.4833C51.5802 39.9296 51.9196 39.2738 52.0983 38.5671L53.3792 39.045H53.3789C53.4514 39.0713 53.5275 39.0856 53.6048 39.0867C53.8805 39.0852 54.1266 38.9142 54.2244 38.6564C54.2951 38.4931 54.2962 38.3082 54.2281 38.1438C54.1596 37.9794 54.0278 37.8501 53.8619 37.7849L52.2873 37.2023C52.2818 36.9892 52.2605 36.7768 52.2243 36.567C52.1518 36.2191 51.816 35.9917 51.4659 36.0543C51.1162 36.1169 50.88 36.4465 50.9327 36.798C51.1349 37.9372 50.7387 39.1006 49.8829 39.8795L49.8562 39.8743Z" fill="#FBE547" stroke="#FBE547" stroke-width="0.323915"/>
<path d="M41.1797 34.3776C40.8563 34.2139 40.4616 34.3431 40.2975 34.6661C40.2609 34.7342 39.4681 36.3356 40.2082 37.6373C40.6861 38.4774 41.6414 38.9549 43.0484 39.0548H43.0956C43.4581 39.068 43.7624 38.7846 43.7756 38.4224C43.7884 38.0599 43.5054 37.7556 43.1428 37.7424C42.4972 37.6952 41.6623 37.5271 41.3525 36.9866C41.0427 36.4458 41.3261 35.5431 41.4679 35.2542H41.4682C41.6286 34.9323 41.4997 34.5413 41.1797 34.3776H41.1797Z" fill="#FBE547" stroke="#FBE547" stroke-width="0.323915"/>
<path d="M29.7124 39.9582H29.7491L32.3003 39.8271H32.3373C31.8938 40.4221 31.6005 41.1153 31.4815 41.8481C31.4156 42.2487 31.4013 42.6563 31.4394 43.061C31.472 43.3964 31.7532 43.6527 32.0905 43.6542H32.1586C32.5017 43.6183 32.7573 43.3213 32.7416 42.9767C32.7152 42.6845 32.7258 42.3897 32.773 42.1001C32.8855 41.4098 33.2125 40.7727 33.7072 40.2782C33.846 40.1406 33.9152 39.948 33.8965 39.7535C33.8844 39.5631 33.7881 39.388 33.6339 39.2756C33.0872 38.8746 32.7492 38.2496 32.713 37.5725C32.6767 36.8954 32.9463 36.2377 33.4468 35.7807C33.9478 35.3234 34.6271 35.115 35.2979 35.2124C35.3722 35.6661 35.552 36.096 35.823 36.4674C35.8911 36.5725 36.432 37.5172 35.046 38.6356V38.6352C34.8266 38.8088 34.7417 39.1025 34.8339 39.3665C34.9262 39.6305 35.176 39.807 35.4554 39.8059C35.6066 39.807 35.7534 39.755 35.8702 39.6591C36.607 39.1314 37.1083 38.3361 37.2666 37.4436L37.3874 37.4802C37.4412 37.4879 37.4962 37.4879 37.55 37.4802C37.8803 37.4795 38.1579 37.2334 38.1992 36.9061C38.2406 36.5787 38.0323 36.2718 37.7129 36.1891C37.3801 36.114 37.0842 35.9239 36.8777 35.6519C36.6711 35.3802 36.5671 35.0444 36.5844 34.7035C36.5836 34.6947 36.5836 34.6859 36.5844 34.6771C36.5869 34.6562 36.5869 34.635 36.5844 34.6141C36.5712 34.4903 36.5712 34.3651 36.5844 34.2413C36.6525 33.8173 36.8868 33.4383 37.2358 33.1878C37.5848 32.9374 38.0191 32.8367 38.4428 32.9081C38.5178 32.9179 38.5914 32.9355 38.6632 32.9604C38.9477 33.0523 39.2586 32.9403 39.419 32.6876C39.8614 31.9926 40.5421 31.4825 41.3335 31.2532C42.1248 31.0239 42.9725 31.0914 43.7181 31.4422C44.4633 31.7934 45.0555 32.4038 45.3828 33.1599C45.0943 33.3061 44.8376 33.5078 44.6266 33.7532C44.4289 33.8663 44.192 33.889 43.9759 33.8162C43.7042 33.621 43.5167 33.3302 43.4508 33.0025C43.3768 32.6473 43.029 32.4191 42.6738 32.4931C42.3185 32.5671 42.0908 32.915 42.1648 33.2702C42.3145 33.9938 42.7624 34.621 43.3984 34.9971C43.587 35.0857 43.7895 35.1407 43.9968 35.1601C43.9521 35.4252 43.9396 35.6951 43.9602 35.9631C43.9851 36.3092 44.2747 36.5758 44.6215 36.5721H44.6845C44.8577 36.5564 45.0177 36.4721 45.129 36.3381C45.2403 36.2041 45.2938 36.0316 45.2777 35.8584C45.2777 35.8005 45.1675 34.4621 46.359 34.2098H46.4275C47.4525 33.8487 48.5888 34.0011 49.4826 34.6192C49.7844 34.8294 50.1989 34.7554 50.4091 34.4541C50.6196 34.1523 50.5453 33.7374 50.2439 33.5272C49.9576 33.3192 49.6496 33.1435 49.3252 33.0025L50.2176 31.8054C50.4351 31.5154 50.3765 31.1041 50.0865 30.8866C49.7964 30.6695 49.3852 30.7281 49.1677 31.0181L47.9392 32.6769C47.5107 32.645 47.0797 32.6717 46.6583 32.7556C46.1207 31.415 44.9958 30.3962 43.6083 29.9942V27.7528C43.638 27.5631 43.5834 27.3705 43.4585 27.2247C43.334 27.079 43.1517 26.9951 42.9602 26.9951C42.7683 26.9951 42.5863 27.079 42.4614 27.2247C42.3369 27.3705 42.282 27.5631 42.3116 27.7528V29.8524C40.8776 29.8521 39.5231 30.5101 38.637 31.6372C37.8431 31.5299 37.04 31.7537 36.4164 32.2568L34.6001 30.4826C34.339 30.2274 33.9208 30.2321 33.6656 30.4929C33.4103 30.754 33.4151 31.1722 33.6758 31.4274L35.5499 33.27C35.4525 33.467 35.3786 33.675 35.3295 33.8896C34.1287 33.7702 32.9486 34.265 32.1916 35.2049C31.4347 36.1449 31.2033 37.4032 31.576 38.5511L29.6968 38.6562C29.3342 38.6661 29.0486 38.9682 29.0589 39.3308C29.0691 39.6933 29.3709 39.9785 29.7334 39.9687L29.7124 39.9582Z" fill="#FBE547" stroke="#FBE547" stroke-width="0.323915"/>
</svg>
