<svg width="110" height="110" viewBox="0 0 110 110" fill="none" xmlns="http://www.w3.org/2000/svg">
<circle cx="55" cy="55" r="55" fill="#FBE547" fill-opacity="0.13"/>
<path d="M74.7106 36.289C74.3224 36.6849 74.33 37.3225 74.7258 37.7108C74.9377 37.9226 75.4897 38.6232 75.4643 39.314C75.4491 39.7352 75.2225 40.1281 74.771 40.5214C74.3498 40.8869 74.3021 41.5195 74.665 41.9407C74.8642 42.1728 75.144 42.2935 75.4289 42.2935C75.6635 42.2935 75.8977 42.2129 76.0868 42.0466C77.2034 41.0836 77.4605 40.0551 77.4807 39.3643C77.5283 37.6652 76.2733 36.4022 76.1294 36.2662C75.7289 35.8805 75.0963 35.8856 74.7105 36.289L74.7106 36.289Z" fill="#FBE547"/>
<path d="M72.4688 36.9373C72.4688 37.3813 72.1088 37.7417 71.6648 37.7417C71.2209 37.7417 70.8605 37.3813 70.8605 36.9373C70.8605 36.4933 71.2209 36.1334 71.6648 36.1334C72.1088 36.1334 72.4688 36.4933 72.4688 36.9373Z" fill="#FBE547"/>
<path d="M81.0296 37.6581C80.576 35.069 79.0509 33.0729 76.6309 31.8903C74.9597 31.0509 73.1848 30.8517 71.327 31.2729C71.2515 30.9703 71.1557 30.6652 71.0371 30.3453C69.7289 27.1439 67.2912 25.3086 63.9839 25.0338C60.8302 24.7667 58.2061 26.0876 56.3859 28.8049C56.1513 29.1552 55.9622 29.5182 55.8061 29.879C54.0842 29.0873 52.1636 29.0649 50.419 29.841C48.5583 30.6627 47.2324 32.2486 46.6905 34.4038C44.8454 34.4464 43.257 35.1626 41.9436 36.5641C41.8026 36.7228 41.6764 36.9017 41.5477 37.076C40.9176 37.3432 40.2698 37.6356 39.6951 37.958C35.6969 40.1564 33.4108 43.3527 32.9065 47.4518C32.7428 48.6592 32.8862 49.8188 33.0226 50.9431C33.0728 51.3415 33.1209 51.7373 33.1538 52.1328C33.2344 53.1283 32.9192 54.1142 32.2942 54.8324C31.6641 55.5431 31.0336 56.3044 30.4537 57.129C29.9144 57.8224 29.3016 58.6112 29.0898 59.6776C28.9159 60.4892 28.994 61.1297 29.3291 61.6362C29.6616 62.1405 30.214 62.4604 30.9627 62.6069C31.018 62.622 31.0737 62.6347 31.129 62.6448C30.8669 63.0078 30.582 63.5273 30.6677 64.1549C30.723 64.576 30.9272 64.9061 31.1893 65.1833C30.9146 65.8235 30.945 66.6077 31.9025 67.3968C32.0059 67.4824 32.1144 67.5706 32.2001 67.6487C32.1697 67.7243 32.1346 67.8023 32.1093 67.8707L31.8067 68.4278C31.0758 70.3082 31.5797 71.5637 33.3998 72.3855C33.6948 72.5167 34.0126 72.6222 34.3325 72.7256L34.8625 72.8974C35.9493 73.1493 37.0634 73.2278 38.0239 73.2957C39.9095 73.4646 41.5634 74.6896 42.236 76.404C43.0729 78.6123 43.7258 80.9668 44.2326 83.6061C44.3988 84.4303 45.0922 85 45.8434 85C45.8788 85 45.9164 85 45.9518 84.9975H60.3455C60.8093 84.9975 61.2356 84.7329 61.4323 84.3193L61.6264 83.6867L61.3897 83.2381C61.3542 83.1727 57.9033 76.631 56.9049 73.9992C56.1942 72.1238 56.4461 70.6437 57.7291 69.1996C58.5056 68.3146 59.2994 67.4427 60.0937 66.5679C61.1601 65.3905 62.2312 64.2135 63.255 63.0187C64.5131 61.5589 65.3044 60.3191 65.8289 58.983C66.2399 57.8916 66.4792 56.6564 66.6354 55.3279C67.0363 55.5195 67.4469 55.7136 67.9512 55.9554C68.153 56.0183 68.7628 56.22 69.3451 55.6377C69.6502 55.3174 69.9651 55.0076 70.2778 54.6999L70.7036 54.2691C70.9707 54.0572 71.3717 53.5858 71.0214 52.7185L70.623 51.9369C70.3711 51.4453 70.1237 50.9562 69.8971 50.5354C70.0182 50.2505 70.1339 49.9606 70.2525 49.6631L72.5567 48.8363C73.0762 48.7933 73.4817 48.3624 73.4817 47.8332V47.396C76.5823 47.1943 78.9367 45.6843 80.4341 42.7956C80.8198 42.0216 81.049 41.3459 81.1574 40.6606C81.3191 39.6372 81.1401 38.2377 81.0291 37.6579L81.0296 37.6581ZM61.7246 61.707C60.7113 62.8941 59.655 64.0564 58.6013 65.2161C57.7994 66.101 56.998 66.9805 56.2165 67.8705C54.4292 69.8873 54.0359 72.1257 55.0192 74.7198C55.7932 76.7641 57.8704 80.8429 58.9895 82.9833L46.1688 82.9859C45.6472 80.3314 44.9791 77.944 44.1221 75.6828C43.1692 73.2528 40.8451 71.5285 38.1881 71.2887C37.2377 71.2233 36.2518 71.1499 35.4302 70.9684L34.9614 70.8097C34.7044 70.7266 34.4469 70.6435 34.2203 70.5451C33.4235 70.1822 33.3303 70.0712 33.6126 69.3098L33.8975 68.7954C34.5077 67.4091 34.4191 66.8972 33.1615 65.8058C33.4007 65.4931 33.4965 65.1707 33.4489 64.8402C33.3784 64.3461 33.0154 64.0941 32.8487 63.9755C32.796 63.935 32.7555 63.905 32.7251 63.8823C32.7454 63.8493 32.7753 63.8118 32.8133 63.7611L33.2746 63.1285C33.5067 62.8462 33.9903 62.2562 33.7156 61.5607C33.4408 60.8623 32.6998 60.7639 32.2461 60.7036L31.8527 60.6833C31.689 60.6808 31.5476 60.6757 31.4041 60.6403C31.137 60.5875 31.0463 60.5394 31.0235 60.5369C31.0184 60.4964 31.0058 60.3731 31.0665 60.0858C31.1902 59.473 31.5881 58.9615 32.138 58.2478C32.6449 57.5245 33.2268 56.8235 33.8117 56.1631C34.7976 55.0287 35.2913 53.4984 35.1655 51.9631C35.1301 51.542 35.0773 51.1187 35.0267 50.6975C34.9005 49.6564 34.7798 48.6705 34.9106 47.7079C35.3166 44.4183 37.1515 41.8367 40.3027 39.9766C40.1263 41.2599 40.3403 42.6416 40.7184 43.4785C41.7342 45.8101 43.5519 47.2095 45.9768 47.5269C46.6904 47.6202 47.4016 47.643 48.0995 47.643C48.5131 47.643 48.9237 47.6354 49.3297 47.6253C49.5162 47.6227 49.7002 47.6202 49.8868 47.6177V47.9152C49.8868 48.3688 50.1894 48.7672 50.6253 48.8884C50.9355 48.9715 51.2381 49.0774 51.5402 49.1808C51.9639 49.3294 52.3898 49.4707 52.8181 49.5767C53.1557 49.6598 53.1785 49.7429 53.2139 49.8818C53.2718 50.1413 53.3777 50.3532 53.4131 50.676C53.3452 50.7971 53.2768 50.9153 53.2291 51.0263C52.9569 51.6213 52.6847 52.191 52.3543 52.8591C52.1125 53.4567 52.329 53.9154 52.6468 54.2935C53.1384 54.7599 53.6301 55.2515 54.1163 55.7631C54.5674 56.2142 55.2126 56.2623 55.5456 55.9825C56.0799 55.7204 56.6146 55.4533 57.1413 55.1883L57.7916 54.8578C58.0461 54.9713 58.3061 55.0773 58.5605 55.1807L59.4679 57.5402C59.6544 58.0998 60.1157 58.4328 60.7032 58.4328H62.7448C63.3475 58.4328 63.786 58.115 63.9801 57.533L64.5802 55.6576C64.4368 56.5953 64.2452 57.4803 63.9502 58.264C63.5147 59.3625 62.8289 60.4239 61.7248 61.7068L61.7246 61.707ZM69.4332 47.8351C68.823 47.9537 68.604 48.4074 68.4601 48.7252C68.2963 49.1438 68.1321 49.5595 67.9334 50.0132C67.7848 50.3812 67.7848 50.7517 67.979 51.2155C68.2689 51.7624 68.5487 52.3094 68.831 52.8644L68.9821 53.1568L68.866 53.2704C68.6618 53.4721 68.455 53.6738 68.2558 53.8755C67.9207 53.7143 67.5827 53.5527 67.2451 53.394L66.1583 52.877C65.6717 52.693 65.2409 52.7335 65.0164 52.9099L63.8039 53.3915C63.5165 53.4898 63.1308 53.7194 62.8915 54.3216L62.2209 56.4139H61.2102L60.4742 54.3292C60.3205 53.8755 60.0028 53.5602 59.6272 53.4417L59.3221 53.3155C59.0017 53.1842 58.6743 53.0534 58.2961 52.8745C57.7568 52.6727 57.3255 52.8167 57.1288 52.9374L56.2362 53.386C55.8935 53.5573 55.5504 53.7337 55.1546 53.9354C54.9052 53.6784 54.6578 53.4336 54.4287 53.2146C54.6532 52.7533 54.8824 52.2794 55.1647 51.6869C55.3208 51.4172 55.5352 51.0441 55.5352 50.5651C55.5352 50.1566 55.3791 49.8418 55.1774 49.4155C54.9427 48.4752 54.3126 47.8726 53.3019 47.6207C52.9314 47.53 52.5659 47.4038 52.1979 47.278C52.0996 47.2426 52.0013 47.2101 51.9029 47.1771L51.9033 46.1588L54.1848 45.3447C54.5127 45.186 54.7595 44.9063 54.8528 44.6214L55.0241 44.1977C55.1402 43.9103 55.2563 43.6229 55.3521 43.4034C55.642 42.8236 55.5057 42.3573 55.3343 41.9614C55.052 41.4495 54.7925 40.9354 54.5325 40.421L54.3713 40.1007L55.0896 39.3824L55.4149 39.5386C55.9846 39.8082 56.562 40.083 57.0308 40.2872C57.3005 40.451 57.7369 40.6025 58.3163 40.3729C58.7547 40.1788 59.1708 40.0049 59.6118 39.8335C60.0203 39.6749 60.3103 39.3647 60.4563 38.9313L61.1269 36.8516L62.1477 36.8465L62.3621 37.4415C62.5436 37.9383 62.7276 38.4396 62.8989 38.9414C63.0525 39.3951 63.3703 39.7103 63.7459 39.8289L64.8929 40.2902C65.339 40.5573 65.8712 40.5523 66.2666 40.3206C66.9119 39.9754 67.5571 39.65 68.2075 39.325C68.4493 39.5744 68.6941 39.8167 68.9359 40.0509C68.8072 40.313 68.6789 40.5826 68.5527 40.8477L67.9353 42.1281C67.7564 42.5767 67.7792 42.9954 67.9429 43.2549C68.0864 43.5875 68.2303 43.923 68.3286 44.1927C68.4599 44.6539 68.8051 45.2591 69.6997 45.5136C69.7048 45.5136 69.7073 45.5162 69.7124 45.5162C70.093 45.6196 70.4712 45.7483 70.8492 45.8766C71.0535 45.942 71.2577 46.0129 71.4641 46.0783V46.4589V46.4615V46.464V47.1017L69.4332 47.8351ZM79.1667 40.3456C79.0911 40.8195 78.9198 41.3112 78.6375 41.8784C77.5006 44.0691 75.7863 45.1883 73.4825 45.3748L73.4821 45.3191C73.4821 44.8604 73.1744 44.462 72.7309 44.3434C72.3097 44.2324 71.8991 44.0915 71.4906 43.9577C71.0745 43.8163 70.6639 43.6804 70.2453 43.5669C70.147 43.2947 70.036 43.0174 69.895 42.6971C70.0562 42.3692 70.2128 42.0366 70.3715 41.7062L70.9817 40.4481C71.2185 39.8961 71.1155 39.3593 70.6715 38.9128C70.2052 38.4743 69.7414 38.0105 69.197 37.4479C68.6324 36.9993 68.1082 37.1129 67.7677 37.2842C67.0494 37.6421 66.3307 38.0025 65.5795 38.3958L64.7275 38.0455C64.5739 37.607 64.4148 37.1732 64.2586 36.7424L63.8603 35.6384C63.6256 35.0585 63.0837 34.7686 62.6478 34.8293L60.7445 34.8395C60.5052 34.8116 59.6958 34.7715 59.3683 35.732L58.6171 38.0535C58.3247 38.1696 58.0423 38.2882 57.7651 38.4089C57.2683 38.1793 56.7721 37.9451 56.2804 37.713L55.5212 37.3534C54.992 37.0913 54.4249 37.1871 54.0138 37.5978L52.6625 38.9592C52.2742 39.2669 51.9843 39.8493 52.3447 40.565L52.7304 41.3263C52.9748 41.8078 53.217 42.2894 53.4512 42.7202C53.3504 42.9523 53.252 43.1967 53.1537 43.4435L50.7765 44.4192C50.2751 44.477 49.8868 44.9033 49.8868 45.4198V45.6064C49.6876 45.6064 49.4885 45.6064 49.2897 45.6114C48.2258 45.6368 47.2197 45.6519 46.2368 45.5308C44.5049 45.3038 43.305 44.3686 42.5614 42.6594C42.2791 42.0344 42.0723 40.6304 42.4302 39.5943C42.5234 39.2968 42.7581 38.8482 43.0379 38.4447C43.1636 38.2531 43.3126 38.059 43.4358 37.918C44.3811 36.9124 45.5029 36.4182 46.877 36.4182C47.951 36.4608 48.4174 36.0978 48.6089 35.044C48.8963 33.5214 49.8543 32.2937 51.2355 31.6789C52.6168 31.0661 54.1673 31.1771 55.4025 31.9309C55.5135 32.014 55.6219 32.0794 55.8262 32.1955C56.0883 32.3541 56.4111 32.3769 56.696 32.2685C56.9808 32.16 57.2028 31.9258 57.2961 31.6333C57.4801 31.056 57.7021 30.4513 58.0574 29.9216C59.4665 27.814 61.38 26.8561 63.815 27.0354C66.3484 27.2473 68.1508 28.6159 69.1544 31.0711C69.3131 31.4948 69.4165 31.908 69.4722 32.2608C69.4848 32.4296 69.5249 32.9516 69.9917 33.2766C70.4529 33.5994 70.9421 33.4606 71.1914 33.3952C72.8124 32.8782 74.2946 32.9765 75.7365 33.6927C77.5866 34.595 78.6987 36.0472 79.0464 38.0209C79.179 38.7041 79.2574 39.7605 79.1667 40.3454L79.1667 40.3456Z" fill="#FBE547"/>
<path d="M46.3381 38.5007C45.9296 38.115 45.2944 38.1373 44.9112 38.5408C44.2508 39.2417 43.3912 41.0366 44.8733 42.7985C45.0725 43.0352 45.3573 43.1589 45.6447 43.1589C45.8743 43.1589 46.106 43.0808 46.2925 42.9196C46.7183 42.5617 46.774 41.9241 46.4162 41.5003C45.7886 40.7542 46.1866 40.1439 46.3883 39.9148C46.7614 39.5088 46.739 38.8787 46.3381 38.5006V38.5007Z" fill="#FBE547"/>
<path d="M64.4827 28.8477C62.1613 27.7209 60.4216 29.1275 59.8165 30.3476C59.5696 30.8468 59.7735 31.4516 60.2727 31.6989C60.4162 31.7694 60.5677 31.8048 60.7188 31.8048C61.0893 31.8048 61.4472 31.598 61.6236 31.2427C61.727 31.0334 62.3043 30.0353 63.6024 30.6654C64.1093 30.9021 64.7089 30.6983 64.9487 30.1965C65.1934 29.6948 64.9845 29.0921 64.4828 28.8478L64.4827 28.8477Z" fill="#FBE547"/>
<path d="M65.5675 32.8209C65.124 32.8209 64.7635 33.1813 64.7635 33.6249C64.7635 34.0684 65.124 34.4288 65.5675 34.4288C66.0111 34.4288 66.3715 34.0684 66.3715 33.6249C66.3719 33.1813 66.0115 32.8209 65.5675 32.8209Z" fill="#FBE547"/>
<path d="M53.9935 34.4769C53.55 34.4769 53.1896 34.8373 53.1896 35.2808C53.1896 35.7243 53.55 36.0847 53.9935 36.0847C54.4371 36.0847 54.7975 35.7243 54.7975 35.2808C54.7975 34.8373 54.4371 34.4769 53.9935 34.4769Z" fill="#FBE547"/>
<path d="M61.6847 41.7151C58.9749 41.7151 56.769 43.9108 56.769 46.6055C56.769 49.298 58.9572 51.5136 61.6594 51.5464C63.6129 51.5464 65.3829 50.3867 66.164 48.5969C66.164 48.5918 66.1665 48.5868 66.169 48.5842C66.4387 47.9415 66.575 47.2836 66.575 46.6307C66.575 46.5678 66.5649 46.4771 66.5472 46.3838C66.4467 43.8045 64.2788 41.715 61.6847 41.715L61.6847 41.7151ZM64.3117 47.7977C63.8504 48.8489 62.8093 49.5296 61.6699 49.5296C60.0793 49.5119 58.7837 48.2011 58.7837 46.608C58.7837 45.0224 60.0843 43.734 61.6825 43.734C63.2153 43.734 64.4957 44.9742 64.5311 46.5046C64.5311 46.5674 64.5412 46.6358 64.5539 46.6987C64.5484 47.0591 64.4653 47.4296 64.3117 47.7976L64.3117 47.7977Z" fill="#FBE547"/>
</svg>
