<svg width="29" height="29" viewBox="0 0 29 29" fill="none" xmlns="http://www.w3.org/2000/svg">
<path d="M14.5001 27.0648C12.8587 27.0676 11.2329 26.7461 9.71609 26.1189C8.19925 25.4916 6.82122 24.571 5.66112 23.4098C0.787115 18.5358 0.787115 10.6058 5.66112 5.73182C8.02212 3.37082 11.1611 2.06982 14.5001 2.06982C17.8391 2.06982 20.9781 3.36982 23.3391 5.73182C28.2131 10.6058 28.2131 18.5358 23.3391 23.4098C22.179 24.571 20.801 25.4916 19.2841 26.1189C17.7673 26.7461 16.1415 27.0676 14.5001 27.0648ZM7.07512 21.9958C11.1691 26.0898 17.8311 26.0898 21.9251 21.9958C23.9081 20.0118 25.0001 17.3748 25.0001 14.5708C25.0001 11.7668 23.9081 9.12982 21.9251 7.14582C19.9421 5.16182 17.3051 4.06982 14.5001 4.06982C11.6951 4.06982 9.05912 5.16282 7.07512 7.14582C5.09112 9.12882 4.00012 11.7658 4.00012 14.5708C4.00012 17.3758 5.09212 20.0118 7.07512 21.9958Z" fill="#00A3AB"/>
<path d="M16.7981 20.1669C16.6668 20.1671 16.5367 20.1413 16.4154 20.091C16.294 20.0407 16.1838 19.9669 16.0911 19.8739L11.4951 15.2779C11.4022 15.1852 11.3284 15.075 11.2781 14.9536C11.2278 14.8323 11.2019 14.7023 11.2019 14.5709C11.2019 14.4396 11.2278 14.3096 11.2781 14.1883C11.3284 14.0669 11.4022 13.9567 11.4951 13.8639L16.0911 9.26795C16.1839 9.1751 16.2942 9.10145 16.4155 9.05121C16.5368 9.00096 16.6668 8.9751 16.7981 8.9751C16.9294 8.9751 17.0594 9.00096 17.1807 9.05121C17.302 9.10145 17.4123 9.1751 17.5051 9.26795C17.5979 9.36079 17.6716 9.47101 17.7218 9.59232C17.7721 9.71363 17.798 9.84364 17.798 9.97495C17.798 10.1062 17.7721 10.2363 17.7218 10.3576C17.6716 10.4789 17.5979 10.5891 17.5051 10.6819L13.6161 14.5709L17.5051 18.4599C17.6454 18.5996 17.741 18.7778 17.7799 18.9719C17.8187 19.166 17.799 19.3673 17.7233 19.5502C17.6475 19.7331 17.5191 19.8894 17.3544 19.9992C17.1897 20.109 16.9961 20.1674 16.7981 20.1669Z" fill="#00A3AB"/>
</svg>
