<svg width="90" height="90" viewBox="0 0 90 90" fill="none" xmlns="http://www.w3.org/2000/svg">
<circle cx="44.54" cy="44.54" r="44.54" fill="#E8505B" fill-opacity="0.18"/>
<path d="M52.4654 63.0877C50.4205 63.0695 48.4805 62.1805 47.1309 60.6437C46.087 59.4459 45.6253 57.8475 45.8704 56.2775C46.0339 55.4952 46.2495 54.7248 46.5159 53.9714C46.8805 53.04 47.1379 52.0705 47.2848 51.0813C47.1401 50.0915 46.8822 49.1216 46.5159 48.1906C46.2495 47.4373 46.0339 46.6667 45.8704 45.8845C45.6189 44.314 46.0811 42.7134 47.1309 41.5188C48.4773 39.9768 50.4188 39.084 52.4654 39.0663C53.8622 39.0642 55.2236 39.5044 56.3533 40.3253C57.4836 41.1456 58.3237 42.3038 58.7532 43.6325C58.9355 44.1585 59.4341 44.5086 59.9907 44.5011H67.5242C67.8619 44.4743 68.1955 44.5896 68.4442 44.8196C68.6936 45.0496 68.8351 45.3729 68.8351 45.7118C68.8351 46.0507 68.6936 46.374 68.4442 46.604C68.1955 46.8341 67.8619 46.9493 67.5242 46.9225H59.9907C59.2111 46.9327 58.4481 46.6957 57.8116 46.2459C57.1752 45.7955 56.6975 45.1553 56.4471 44.4164C56.1752 43.5751 55.6433 42.8416 54.9276 42.3226C54.2117 41.803 53.3501 41.5242 52.4653 41.5264C51.1307 41.5344 49.8632 42.1135 48.9833 43.1178C48.4 43.7677 48.1351 44.6438 48.2611 45.5081C48.4107 46.174 48.5978 46.8309 48.822 47.4759C49.2713 48.6427 49.556 49.8662 49.6675 51.1118C49.5544 52.3568 49.2697 53.5803 48.822 54.7476C48.5973 55.3921 48.4096 56.0489 48.2611 56.7154C48.1362 57.5797 48.4005 58.4554 48.9833 59.1057C49.8729 60.0902 51.1393 60.6488 52.4653 60.6435C53.35 60.6456 54.2117 60.3668 54.9276 59.8472C55.6434 59.3277 56.1753 58.5947 56.4471 57.7529C56.7001 57.0172 57.1789 56.3802 57.8154 55.933C58.4519 55.4859 59.2133 55.251 59.9908 55.2623H67.5242C67.862 55.2355 68.1955 55.3507 68.4443 55.5808C68.6936 55.8108 68.8352 56.1341 68.8352 56.473C68.8352 56.8119 68.6936 57.1357 68.4443 57.3652C68.1955 57.5952 67.862 57.7105 67.5242 57.6837H59.9908C59.4422 57.6719 58.9457 58.0075 58.7533 58.5217C58.3238 59.8504 57.4836 61.0086 56.3533 61.829C55.2236 62.6493 53.8623 63.0901 52.4655 63.0874L52.4654 63.0877ZM41.9503 60.6437C42.9943 59.4459 43.456 57.8475 43.2109 56.2775C43.0474 55.4952 42.8318 54.7248 42.5653 53.9714C42.2007 53.04 41.9434 52.0705 41.7965 51.0813C41.9412 50.0915 42.1991 49.1216 42.5653 48.1906C42.8318 47.4373 43.0474 46.6667 43.2109 45.8845C43.4624 44.314 43.0002 42.7134 41.9503 41.5188C40.604 39.9768 38.6625 39.084 36.6159 39.0663C35.2191 39.0642 33.8577 39.5044 32.728 40.3253C31.5977 41.1456 30.7576 42.3038 30.3281 43.6325C30.1458 44.1585 29.6471 44.5086 29.0906 44.5011H21.5571C21.2193 44.4743 20.8858 44.5896 20.637 44.8196C20.3877 45.0496 20.2461 45.3729 20.2461 45.7118C20.2461 46.0507 20.3877 46.374 20.637 46.604C20.8858 46.8341 21.2193 46.9493 21.5571 46.9225H29.0906C29.8702 46.9327 30.6331 46.6957 31.2696 46.2459C31.9061 45.7955 32.3838 45.1553 32.6342 44.4164C32.9061 43.5751 33.438 42.8416 34.1537 42.3226C34.8695 41.803 35.7312 41.5242 36.616 41.5264C37.9505 41.5344 39.2181 42.1135 40.0979 43.1178C40.6813 43.7677 40.9462 44.6438 40.8202 45.5081C40.6706 46.174 40.4835 46.8309 40.2593 47.4759C39.81 48.6427 39.5253 49.8662 39.4138 51.1118C39.5269 52.3568 39.8116 53.5803 40.2593 54.7476C40.484 55.3921 40.6717 56.0489 40.8202 56.7154C40.9451 57.5797 40.6808 58.4554 40.0979 59.1057C39.2084 60.0902 37.9419 60.6488 36.616 60.6435C35.7313 60.6456 34.8696 60.3668 34.1537 59.8472C33.4379 59.3277 32.906 58.5947 32.6342 57.7529C32.3811 57.0172 31.9023 56.3802 31.2659 55.933C30.6294 55.4859 29.868 55.251 29.0905 55.2623H21.5571C21.2193 55.2355 20.8858 55.3507 20.637 55.5808C20.3877 55.8108 20.2461 56.1341 20.2461 56.473C20.2461 56.8119 20.3876 57.1357 20.637 57.3652C20.8858 57.5952 21.2193 57.7105 21.5571 57.6837H29.0905C29.639 57.6719 30.1355 58.0075 30.328 58.5217C30.7575 59.8504 31.5977 61.0086 32.7279 61.829C33.8577 62.6493 35.219 63.0901 36.6158 63.0874C38.6608 63.0692 40.6007 62.1802 41.9503 60.6434L41.9503 60.6437ZM45.7551 36.5375V27.129C45.7551 26.4583 45.2115 25.9146 44.5407 25.9146C43.8699 25.9146 43.3262 26.4582 43.3262 27.129V36.5299C43.3262 37.2007 43.8699 37.7444 44.5407 37.7444C45.2115 37.7444 45.7551 37.2007 45.7551 36.5299V36.5375ZM48.5148 38.1981L51.2129 29.7424C51.3169 29.4368 51.2944 29.1016 51.1502 28.8126C51.0054 28.5236 50.7512 28.3049 50.444 28.2051C49.8081 28.0014 49.1255 28.3424 48.9068 28.9735L46.2161 37.4292C46.1121 37.7349 46.1346 38.0694 46.2789 38.3584C46.4236 38.6474 46.6778 38.8667 46.985 38.9665C47.1041 39.0056 47.2285 39.0265 47.3539 39.0281C47.8826 39.033 48.3528 38.6935 48.5148 38.1901L48.5148 38.1981ZM42.0887 38.967V38.9665C42.3959 38.8667 42.6501 38.6474 42.7943 38.3584C42.9391 38.0694 42.9616 37.7348 42.857 37.4292L40.1664 28.9735H40.1669C39.9482 28.3424 39.2656 28.0014 38.6297 28.2051C38.3225 28.3049 38.0678 28.5236 37.9236 28.8126C37.7794 29.1016 37.7563 29.4368 37.8608 29.7424L40.5589 38.1981V38.1976C40.7171 38.7016 41.1841 39.0442 41.7117 39.0431C41.8404 39.0399 41.9675 39.0169 42.0886 38.974L42.0887 38.967Z" fill="#E8505B" stroke="#E8505B" stroke-width="0.6"/>
</svg>
