<svg width="19" height="19" viewBox="0 0 19 19" fill="none" xmlns="http://www.w3.org/2000/svg">
<path d="M17.71 17.1477L14.31 13.7577C15.407 12.3601 16.0022 10.6343 16 8.85767C16 7.27542 15.5308 5.7287 14.6518 4.41311C13.7727 3.09751 12.5233 2.07213 11.0615 1.46663C9.59966 0.861132 7.99113 0.702706 6.43928 1.01139C4.88743 1.32007 3.46197 2.082 2.34315 3.20082C1.22433 4.31964 0.462403 5.7451 0.153721 7.29695C-0.15496 8.8488 0.00346625 10.4573 0.608967 11.9191C1.21447 13.3809 2.23985 14.6304 3.55544 15.5094C4.87103 16.3885 6.41775 16.8577 8 16.8577C9.77666 16.8599 11.5025 16.2647 12.9 15.1677L16.29 18.5677C16.383 18.6614 16.4936 18.7358 16.6154 18.7866C16.7373 18.8373 16.868 18.8635 17 18.8635C17.132 18.8635 17.2627 18.8373 17.3846 18.7866C17.5064 18.7358 17.617 18.6614 17.71 18.5677C17.8037 18.4747 17.8781 18.3641 17.9289 18.2422C17.9797 18.1204 18.0058 17.9897 18.0058 17.8577C18.0058 17.7257 17.9797 17.595 17.9289 17.4731C17.8781 17.3512 17.8037 17.2406 17.71 17.1477ZM2 8.85767C2 7.67098 2.3519 6.51094 3.01119 5.52425C3.67047 4.53755 4.60755 3.76852 5.7039 3.31439C6.80026 2.86027 8.00666 2.74145 9.17055 2.97296C10.3344 3.20447 11.4035 3.77591 12.2426 4.61503C13.0818 5.45414 13.6532 6.52324 13.8847 7.68713C14.1162 8.85101 13.9974 10.0574 13.5433 11.1538C13.0892 12.2501 12.3201 13.1872 11.3334 13.8465C10.3467 14.5058 9.18669 14.8577 8 14.8577C6.4087 14.8577 4.88258 14.2255 3.75736 13.1003C2.63214 11.9751 2 10.449 2 8.85767Z" fill="#00A3AB"/>
</svg>
