<svg width="19" height="19" viewBox="0 0 19 19" fill="none" xmlns="http://www.w3.org/2000/svg">
<path d="M17.71 17.101L14.31 13.711C15.407 12.3135 16.0022 10.5877 16 8.81104C16 7.22879 15.5308 5.68207 14.6518 4.36648C13.7727 3.05088 12.5233 2.0255 11.0615 1.42C9.59966 0.814501 7.99113 0.656075 6.43928 0.964757C4.88743 1.27344 3.46197 2.03536 2.34315 3.15418C1.22433 4.273 0.462403 5.69847 0.153721 7.25032C-0.15496 8.80216 0.00346625 10.4107 0.608967 11.8725C1.21447 13.3343 2.23985 14.5837 3.55544 15.4628C4.87103 16.3418 6.41775 16.811 8 16.811C9.77666 16.8132 11.5025 16.218 12.9 15.121L16.29 18.521C16.383 18.6148 16.4936 18.6892 16.6154 18.7399C16.7373 18.7907 16.868 18.8168 17 18.8168C17.132 18.8168 17.2627 18.7907 17.3846 18.7399C17.5064 18.6892 17.617 18.6148 17.71 18.521C17.8037 18.4281 17.8781 18.3175 17.9289 18.1956C17.9797 18.0738 18.0058 17.9431 18.0058 17.811C18.0058 17.679 17.9797 17.5483 17.9289 17.4265C17.8781 17.3046 17.8037 17.194 17.71 17.101ZM2 8.81104C2 7.62435 2.3519 6.46431 3.01119 5.47762C3.67047 4.49092 4.60755 3.72189 5.7039 3.26776C6.80026 2.81364 8.00666 2.69482 9.17055 2.92633C10.3344 3.15784 11.4035 3.72928 12.2426 4.5684C13.0818 5.40751 13.6532 6.47661 13.8847 7.6405C14.1162 8.80438 13.9974 10.0108 13.5433 11.1071C13.0892 12.2035 12.3201 13.1406 11.3334 13.7999C10.3467 14.4591 9.18669 14.811 8 14.811C6.4087 14.811 4.88258 14.1789 3.75736 13.0537C2.63214 11.9285 2 10.4023 2 8.81104Z" fill="#FCFFFF"/>
</svg>
