<svg width="90" height="90" viewBox="0 0 90 90" fill="none" xmlns="http://www.w3.org/2000/svg">
<circle cx="44.54" cy="44.54" r="44.54" fill="#F8CACD" fill-opacity="0.31"/>
<g clip-path="url(#clip0_863_9255)">
<path d="M64.568 32.8771C65.2201 31.0097 65.3372 28.9971 64.9059 27.0667C64.4747 25.1363 63.5123 23.3648 62.1275 21.9525C60.7715 20.5126 59.0398 19.4808 57.1281 18.9736C55.2164 18.4665 53.201 18.5042 51.3096 19.0825L46.1889 20.5906C45.1124 20.9085 43.9669 20.9085 42.8903 20.5906L37.7704 19.0825C35.8791 18.5043 33.8636 18.4666 31.9519 18.9738C30.0403 19.4809 28.3086 20.5127 26.9526 21.9525C25.5678 23.3649 24.6054 25.1363 24.1742 27.0667C23.7429 28.9971 23.8599 31.0097 24.5121 32.8771L28.0202 43.2513C28.4358 44.4996 28.4241 45.8507 27.987 47.0916C26.9267 50.3122 26.5248 53.7131 26.8051 57.0922C27.0854 60.4712 28.0421 63.7594 29.6185 66.7614L30.7288 68.8626C30.9841 69.3607 31.3765 69.7754 31.8598 70.0576C32.3432 70.3399 32.8972 70.4779 33.4564 70.4554C34.0149 70.442 34.5583 70.2714 35.0242 69.9632C35.4901 69.6551 35.8598 69.2218 36.0907 68.7132L41.6305 56.626C41.8858 56.0688 42.2957 55.5967 42.8115 55.2657C43.3272 54.9347 43.9272 54.7588 44.54 54.7588C45.1528 54.7588 45.7528 54.9347 46.2686 55.2657C46.7843 55.5967 47.1942 56.0688 47.4495 56.626L52.9893 68.7132C53.2203 69.2218 53.5899 69.6551 54.0558 69.9632C54.5218 70.2714 55.0651 70.442 55.6236 70.4554L55.7098 70.457C56.2539 70.4587 56.788 70.3109 57.2538 70.0298C57.7196 69.7486 58.0992 69.3449 58.3512 68.8627L59.3912 66.8958C60.9893 63.8529 61.9596 60.5197 62.2442 57.0944C62.5288 53.6691 62.122 50.2215 61.048 46.9565C60.6517 45.7526 60.6558 44.4527 61.0598 43.2514L64.568 32.8771ZM59.5106 47.4665C60.5165 50.5242 60.8975 53.7528 60.631 56.9607C60.3644 60.1685 59.4558 63.29 57.959 66.1398L56.9198 68.1066C56.8074 68.3387 56.6283 68.5322 56.4055 68.6622C56.1827 68.7922 55.9262 68.8529 55.6687 68.8365C55.4123 68.8324 55.1624 68.755 54.9486 68.6135C54.7347 68.472 54.5659 68.2722 54.4619 68.0378L48.9221 55.9506C48.5374 55.1117 47.92 54.4008 47.1432 53.9025C46.3664 53.4041 45.4629 53.1392 44.54 53.1392C43.6171 53.1392 42.7136 53.4041 41.9368 53.9025C41.1601 54.4008 40.5427 55.1117 40.158 55.9506L34.6181 68.0378C34.5142 68.2722 34.3453 68.472 34.1314 68.6135C33.9176 68.755 33.6677 68.8324 33.4113 68.8365C33.1544 68.8499 32.8993 68.7879 32.6772 68.6582C32.455 68.5285 32.2756 68.3368 32.1609 68.1066L31.0506 66.0053C29.5701 63.1775 28.6751 60.08 28.4193 56.8983C28.1634 53.7166 28.552 50.5159 29.5616 47.4878C30.0801 45.9448 30.0776 44.2741 29.5545 42.7326L26.0464 32.3584C25.4923 30.7715 25.3929 29.0613 25.7592 27.4208C26.1256 25.7804 26.9433 24.275 28.1199 23.0747C29.2723 21.8512 30.744 20.9744 32.3686 20.5435C33.9932 20.1125 35.706 20.1444 37.3133 20.6357L42.4324 22.1439C42.872 22.2682 43.3221 22.3517 43.777 22.3935C42.7646 23.4535 42.0594 24.7687 41.7364 26.1985C41.6902 26.4082 41.7291 26.6278 41.8446 26.8088C41.9601 26.9899 42.1428 27.1177 42.3525 27.1641C42.4102 27.1766 42.469 27.1829 42.5281 27.1831C42.7123 27.1829 42.891 27.1198 43.0347 27.0044C43.1783 26.8889 43.2783 26.728 43.3181 26.548C43.5392 25.5657 43.9849 24.648 44.6202 23.8669C45.2555 23.0857 46.0631 22.4624 46.9798 22.0458L51.7666 20.6357C53.374 20.1447 55.0867 20.1128 56.7113 20.5438C58.3358 20.9748 59.8075 21.8514 60.9601 23.0747C62.1367 24.275 62.9544 25.7804 63.3208 27.4208C63.6872 29.0612 63.5877 30.7714 63.0337 32.3583L59.5256 42.7325C59.0098 44.2675 59.0046 45.9282 59.5106 47.4665Z" fill="#F8CACD"/>
</g>
<defs>
<clipPath id="clip0_863_9255">
<rect width="51.8284" height="51.8284" fill="white" transform="translate(18.626 18.626)"/>
</clipPath>
</defs>
</svg>
