<svg width="43" height="44" viewBox="0 0 43 44" fill="none" xmlns="http://www.w3.org/2000/svg">
<circle cx="21.5" cy="21.5264" r="21.5" fill="#FAFAFA"/>
<g clip-path="url(#clip0_899_10033)">
<path d="M32.25 15.5317C31.4412 15.8845 30.5859 16.1189 29.7103 16.2278C30.633 15.6804 31.3229 14.8136 31.6493 13.7916C30.7853 14.304 29.84 14.6648 28.8543 14.8585C28.25 14.2132 27.4655 13.7646 26.6029 13.5709C25.7402 13.3772 24.8393 13.4475 24.0171 13.7725C23.1949 14.0975 22.4894 14.6623 21.9924 15.3935C21.4953 16.1247 21.2297 16.9884 21.2299 17.8725C21.2299 18.2219 21.2595 18.5578 21.332 18.8777C19.5785 18.7917 17.8629 18.3366 16.2974 17.5421C14.7319 16.7477 13.3516 15.6317 12.2469 14.2673C11.681 15.2372 11.506 16.3865 11.7577 17.481C12.0093 18.5754 12.6687 19.5329 13.6014 20.1583C12.9037 20.1395 12.2207 19.9534 11.61 19.6154V19.6638C11.6112 20.6815 11.963 21.6679 12.6061 22.4567C13.2493 23.2455 14.1446 23.7886 15.1414 23.9947C14.7643 24.094 14.3757 24.1428 13.9857 24.1398C13.7057 24.1448 13.4259 24.1195 13.1513 24.0645C13.4361 24.9393 13.9851 25.7044 14.7227 26.2542C15.4602 26.8041 16.3502 27.1118 17.2699 27.135C15.7097 28.3552 13.7855 29.0171 11.8048 29.0149C11.4434 29.0149 11.0967 28.9988 10.75 28.9544C12.7655 30.2532 15.1141 30.9403 17.5118 30.9324C25.6226 30.9324 30.057 24.2137 30.057 18.3899C30.057 18.195 30.0503 18.0069 30.0409 17.8201C30.9102 17.198 31.6589 16.4225 32.25 15.5317Z" fill="#03A9F4"/>
</g>
<defs>
<clipPath id="clip0_899_10033">
<rect width="21.5" height="21.5" fill="white" transform="translate(12.0938 12.1201)"/>
</clipPath>
</defs>
</svg>
