<svg width="930" height="2775" viewBox="0 0 930 2775" fill="none" xmlns="http://www.w3.org/2000/svg">
<path d="M212.058 2C238.225 95.8333 326.458 268.3 478.058 237.5C552.058 217.5 430.058 121.5 413.558 217.5C396.777 315.135 590.057 212.5 663.557 281.5C737.057 350.5 814.556 543.5 918.056 473.5C1021.56 403.5 -156.442 1105.5 20.0581 1195C240.058 1297.5 816.5 1391 695.5 1461C574.5 1531 831 1500.5 847.5 1539.5C864 1578.5 657 1585.5 786.5 1702.5C916 1819.5 163 2065 163 2135.5C163 2292.55 521.57 2599.19 608.058 2472C676.058 2372 539.15 2378.49 545.558 2426C560.058 2533.5 997.556 2521.5 918.056 2772.5" stroke="url(#paint0_linear_863_11466)" stroke-width="4" stroke-linecap="round" stroke-dasharray="4 15"/>
<defs>
<linearGradient id="paint0_linear_863_11466" x1="52.4711" y1="-0.846052" x2="575.996" y2="3.4467" gradientUnits="userSpaceOnUse">
<stop stop-color="#00A3AB"/>
<stop offset="1" stop-color="#F54230"/>
</linearGradient>
</defs>
</svg>
