<svg width="90" height="90" viewBox="0 0 90 90" fill="none" xmlns="http://www.w3.org/2000/svg">
<circle cx="45.2521" cy="44.5382" r="44.5382" fill="#E0F1F4"/>
<path d="M24.7622 24.3067C23.6982 24.2148 22.6373 24.603 21.8776 25.4068C20.895 26.4501 20.6579 27.9699 21.375 29.4468L23.124 32.1732C22.9036 32.5534 22.7223 32.9655 22.6255 33.4275C22.3904 34.5398 22.5498 35.7733 23.0765 36.9018C23.5992 38.0302 24.4419 38.9448 25.4468 39.4817C26.0769 39.82 26.7413 39.9882 27.3896 39.9882C27.9083 39.9882 28.4174 39.8825 28.8854 39.6637C29.7566 39.2585 30.4283 38.4993 30.7808 37.5309C31.2326 36.2809 31.1359 34.7907 30.5038 33.4394C29.8737 32.0861 28.7959 31.0502 27.5479 30.5943C26.9009 30.3588 26.2357 30.3123 25.6051 30.4163L24.0262 27.9748C23.9938 27.908 23.895 27.6987 24.0895 27.4921C24.1625 27.4151 24.3651 27.2496 24.6791 27.3813C37.0112 32.3469 53.5669 32.3662 65.895 27.4209C66.0732 27.3479 66.2341 27.3837 66.3698 27.5316C66.4448 27.6127 66.5513 27.7681 66.4885 27.9788L64.6762 30.3886C64.1082 30.329 63.516 30.3848 62.9391 30.5943C61.6911 31.0482 60.6133 32.0841 59.9832 33.4354C59.3511 34.7888 59.2524 36.2829 59.7063 37.5309C60.0608 38.5014 60.7324 39.2565 61.6056 39.6637C62.0716 39.8825 62.5787 39.9882 63.0974 39.9882C63.7457 39.9882 64.4082 39.818 65.0363 39.4817C66.0412 38.9448 66.8858 38.0282 67.4105 36.9018C67.9372 35.7733 68.0966 34.5379 67.8616 33.4236C67.751 32.8921 67.5368 32.4198 67.2641 31.9991L69.0249 29.6605C69.0796 29.5876 69.1288 29.5101 69.1713 29.427C69.8318 28.1041 69.6065 26.5461 68.5976 25.4582C67.6028 24.3885 66.0925 24.0545 64.7554 24.5995C53.2965 29.1944 37.2797 29.1811 25.8148 24.5639C25.4704 24.4246 25.1169 24.3374 24.7622 24.3067V24.3067ZM26.1946 33.388C26.3081 33.388 26.4221 33.4189 26.5112 33.4513C26.888 33.589 27.4094 33.9961 27.7497 34.7254C28.0901 35.4527 28.0636 36.1153 27.9238 36.4942C27.8732 36.6401 27.7755 36.8286 27.6033 36.9097H27.5994C27.3542 37.0292 27.0148 36.8757 26.8832 36.8068C26.4618 36.5819 26.0757 36.1485 25.8306 35.6197C25.5834 35.0909 25.4979 34.5168 25.5971 34.0488C25.6275 33.9029 25.7257 33.549 25.981 33.4315C26.0478 33.4011 26.1217 33.388 26.1946 33.388V33.388ZM64.2924 33.388C64.3653 33.388 64.4432 33.403 64.51 33.4355C64.7612 33.553 64.8575 33.9069 64.8899 34.0527C64.9892 34.5207 64.9036 35.0909 64.6564 35.6197C64.4093 36.1465 64.0253 36.5819 63.6039 36.8068C63.4722 36.8777 63.1308 37.0231 62.8877 36.9097H62.8837C62.7115 36.8286 62.6138 36.6401 62.5632 36.4942C62.4254 36.1153 62.3969 35.4508 62.7373 34.7215C63.0777 33.9962 63.597 33.589 63.9758 33.4513C64.065 33.4189 64.1769 33.388 64.2924 33.388H64.2924ZM56.3587 36.9532C55.6009 36.9167 54.8007 37.5369 54.7521 38.3777C54.4766 43.0557 52.9457 47.2253 50.0789 51.1192C49.2442 52.2537 48.8571 53.6314 48.9908 55.001C49.1772 56.9763 48.3227 59.2824 47.3645 61.4785C47.2875 61.6568 47.1156 61.7713 46.9292 61.7713H43.5658C43.3794 61.7713 43.2075 61.6548 43.1305 61.4785C42.0203 58.9238 41.3159 56.8501 41.4963 55.0247C41.632 53.641 41.2468 52.2498 40.4081 51.1152C37.5434 47.2233 36.0144 43.0596 35.7389 38.3817C35.6902 37.5429 34.9042 36.9004 34.1323 36.9572C33.2936 37.0078 32.6552 37.7249 32.7039 38.5637C33.0138 43.7704 34.78 48.6042 37.9587 52.9235C38.3558 53.4604 38.532 54.0817 38.4692 54.724C38.224 57.2038 39.0381 59.703 40.3408 62.6933C40.9 63.9798 42.1679 64.8103 43.5618 64.8103H46.9252C48.3211 64.8103 49.589 63.9798 50.1502 62.6933C51.2705 60.1203 52.2712 57.3723 52.0139 54.7081C51.9531 54.074 52.1293 53.4604 52.5243 52.9235C55.7092 48.6022 57.4792 43.7685 57.7871 38.5597C57.8357 37.721 57.1974 37.0018 56.3586 36.9532L56.3587 36.9532ZM41.1599 36.973C40.3333 37.1128 39.7757 37.8933 39.9135 38.722L40.5743 42.6869C40.7303 43.6147 41.0274 44.5092 41.4488 45.3459L42.1135 46.6755C42.7112 47.8627 43.9104 48.6025 45.2435 48.6025C46.5766 48.6025 47.7759 47.8646 48.3695 46.6794L49.0343 45.3499C49.4557 44.5111 49.7528 43.6168 49.9088 42.6869L50.5696 38.7259C50.7094 37.8973 50.1497 37.1147 49.3232 36.9769C48.4864 36.8331 47.7099 37.3968 47.5742 38.2234L46.9134 42.1804C46.806 42.8104 46.6094 43.4175 46.3238 43.9847L45.655 45.3143C45.4342 45.7539 45.0489 45.7539 44.828 45.3143L44.1593 43.9808C43.8736 43.4155 43.6771 42.8084 43.5697 42.1804L42.9089 38.2234C42.7732 37.3968 41.9885 36.8372 41.1599 36.973H41.1599Z" fill="#1A6B6B" stroke="#E0F1F4" stroke-width="1.21468"/>
</svg>
