<svg width="327" height="227" viewBox="0 0 327 227" fill="none" xmlns="http://www.w3.org/2000/svg">
<path d="M145.568 11.8141C130.546 22.3035 93.5914 47.7633 22.8961 96.5442C10.2031 105.302 -0.079868 112.838 0.000467531 113.449C0.241474 114.264 17.2726 126.179 82.5051 171.192C96.0014 180.46 119.7 196.856 135.286 207.549C150.79 218.242 163.805 227 164.287 227C164.688 227 172.722 221.603 182.201 214.881C191.681 208.262 216.585 190.847 237.553 176.08C270.972 152.658 286.798 141.557 319.736 118.338C324.154 115.181 327.368 112.329 326.966 111.922C326.645 111.515 324.315 109.783 321.905 108.154C319.495 106.423 311.863 101.127 305.034 96.4424C298.206 91.6559 283.746 81.6757 272.9 74.2414C262.055 66.8072 241.489 52.6516 227.109 42.6713C179.149 9.47182 165.01 -0.10105 163.724 0.000789315C163.001 0.102628 154.887 5.39826 145.568 11.8141ZM171.919 15.8877C176.016 18.5355 181.318 22.0999 183.728 23.933C186.138 25.6642 191.44 29.3304 195.376 31.9782C199.393 34.6261 210.962 42.5695 221.084 49.5964C231.286 56.5215 246.631 67.1127 255.226 73.0194C263.822 78.8242 273.623 85.6474 276.917 87.9897C280.211 90.332 289.53 96.7479 297.644 102.247C305.677 107.645 312.265 112.329 312.265 112.431C312.265 112.838 310.578 113.959 286.156 130.762C278.202 136.261 268.643 142.881 264.867 145.529C261.091 148.177 253.379 153.574 247.595 157.444C241.891 161.416 228.876 170.377 218.674 177.303C208.552 184.329 197.305 192.069 193.77 194.412C190.235 196.856 182.121 202.457 175.855 206.836L164.287 214.779L136.892 196.041C121.789 185.755 107.409 175.979 104.999 174.247C102.589 172.618 86.6825 161.721 69.6514 150.112C19.763 115.995 16.6299 113.857 16.6299 113.144C16.6299 112.737 21.6107 109.07 27.7162 104.895C33.7414 100.72 49.4068 89.9247 62.4212 80.861C75.4355 71.7973 100.581 54.3828 118.254 42.1622C135.928 29.9415 153.12 17.9245 156.414 15.5822C159.708 13.2399 162.921 11.2031 163.483 11.2031C164.126 11.1012 167.902 13.2399 171.919 15.8877Z" fill="#E31F26"/>
<path d="M135.526 54.7902C135.526 57.5399 135.767 57.8454 138.579 58.1509C141.873 58.4564 141.712 57.9472 141.873 69.3532L141.953 77.2966H144.765H147.577V67.6219V57.9472H150.79C153.843 57.9472 154.004 57.7435 154.004 54.892V51.8369H144.765H135.526V54.7902Z" fill="#E31F26"/>
<path d="M159.868 52.8554C157.86 53.8738 156.815 57.7436 157.538 61.4098C157.94 63.3448 159.225 64.465 163.001 66.2981C166.857 68.1312 168.062 69.2514 168.062 70.6772C168.062 73.6305 164.046 74.0379 162.68 71.2882C161.475 68.8441 156.414 68.2331 156.414 70.4735C156.414 73.0195 158.984 76.2783 161.877 77.3986C165.733 78.8243 171.115 77.1949 172.882 73.936C174.168 71.5937 174.489 67.4183 173.445 65.4834C172.641 63.854 168.544 61.4098 165.411 60.4933C163.564 59.9841 162.841 59.2712 163.001 58.151C163.323 55.8087 165.572 55.4013 167.098 57.4381C168.705 59.3731 173.284 59.4749 173.284 57.54C173.284 56.7252 172.32 55.0958 171.195 53.9756C168.866 51.7351 163.242 51.1241 159.868 52.8554Z" fill="#E31F26"/>
<path d="M178.024 52.0405C177.944 52.4479 177.944 72.2047 178.024 74.9543C178.104 77.1948 178.345 77.2966 186.138 77.2966H194.171V74.7507C194.171 72.3065 194.011 72.2047 188.869 72.2047H183.647L183.888 69.3532C184.129 66.7054 184.371 66.6035 188.789 66.298C192.645 65.9925 193.368 65.687 193.368 64.0576C193.368 62.4281 192.645 62.1226 188.789 61.8171C184.692 61.5116 184.129 61.2061 183.888 59.1693C183.647 57.0307 183.888 56.9288 188.869 56.9288C194.011 56.9288 194.171 56.827 194.171 54.3828V51.8369H186.138C181.719 51.8369 178.104 51.9387 178.024 52.0405Z" fill="#E31F26"/>
<path d="M63.2245 101.738C63.2245 103.266 63.7868 103.775 65.6346 103.775H67.9643L68.2053 111.107C68.4463 118.236 68.5266 118.542 70.4547 118.542C72.3827 118.542 72.4631 118.236 72.7041 111.107L72.9451 103.775H75.2748C77.1225 103.775 77.6849 103.266 77.6849 101.738C77.6849 99.8031 77.1225 99.7013 70.4547 99.7013C63.7868 99.7013 63.2245 99.8031 63.2245 101.738Z" fill="#E31F26"/>
<path d="M80.577 101.84C78.5686 105.506 80.4163 109.478 84.6741 110.496C87.6465 111.209 89.0122 113.653 87.2448 115.079C86.5218 115.588 85.4775 115.384 84.3528 114.468C82.264 112.737 79.2916 112.431 79.2916 113.959C79.2916 116.403 82.5854 119.051 85.5578 119.051C90.0566 119.051 92.306 116.607 91.9846 112.126C91.7436 108.561 91.5026 108.256 87.9679 106.932C85.7988 106.117 84.1118 104.895 84.1118 104.08C84.1118 102.553 87.0038 102.247 87.7269 103.775C88.3695 105.099 92.1453 105.099 92.1453 103.877C92.1453 99.4976 82.8264 97.8681 80.577 101.84Z" fill="#E31F26"/>
<path d="M102.589 109.478V119.152L104.838 118.847L107.007 118.541L107.248 109.07L107.489 99.7011H104.999H102.589V109.478Z" fill="#E31F26"/>
<path d="M111.908 101.331C111.185 102.145 110.623 103.978 110.623 105.404C110.623 107.746 112.47 109.376 117.29 111.311C118.897 111.922 118.897 115.079 117.371 115.69C116.808 115.894 115.764 115.283 115.041 114.366C113.515 112.431 110.783 111.718 110.141 113.144C109.9 113.551 110.623 115.079 111.747 116.505C114.398 119.865 118.576 119.967 121.629 116.606C123.557 114.468 123.717 113.857 123.075 111.311C122.432 109.172 121.307 108.052 118.736 106.83C114.961 105.201 113.434 102.756 116.166 102.756C117.049 102.756 118.013 103.164 118.254 103.775C118.897 105.099 122.673 105.099 122.673 103.877C122.673 100.007 114.479 98.0718 111.908 101.331Z" fill="#E31F26"/>
<path d="M127.814 102.044C126.127 103.877 125.645 105.302 125.645 108.459C125.645 115.588 128.296 119.051 133.839 119.051C140.427 119.051 143.319 107.747 138.338 101.433C136.33 98.7847 130.465 99.1921 127.814 102.044ZM136.169 108.154C136.491 112.635 135.205 115.181 132.795 114.773C130.546 114.366 129.341 109.783 130.546 106.321C131.349 104.182 131.992 103.673 133.759 103.978C135.607 104.284 135.928 104.793 136.169 108.154Z" fill="#E31F26"/>
<path d="M150.79 109.376V119.051H153.2H155.61V109.376V99.7012H153.2H150.79V109.376Z" fill="#E31F26"/>
<path d="M159.627 109.376V119.051H165.652C171.115 119.051 171.677 118.847 171.677 117.014C171.677 115.283 171.115 114.977 168.062 114.977C165.492 114.977 164.287 114.468 163.885 113.45C163.242 111.311 163.564 111.005 167.5 110.802C170.151 110.598 170.874 110.089 170.874 108.663C170.874 107.135 170.231 106.83 167.259 106.83C164.608 106.83 163.644 106.423 163.644 105.302C163.644 104.182 164.608 103.775 167.661 103.775C171.115 103.775 171.677 103.469 171.677 101.738C171.677 99.9049 171.115 99.7012 165.652 99.7012H159.627V109.376Z" fill="#E31F26"/>
<path d="M176.096 102.247C174.57 104.08 174.088 105.811 174.088 108.867C174.088 117.625 181.96 122.411 186.62 116.505C189.753 112.533 186.861 109.783 183.567 113.653C181.157 116.403 179.309 114.264 179.309 108.765C179.309 104.793 179.55 104.284 181.237 103.978C182.282 103.775 183.487 104.08 183.969 104.691C185.013 106.015 187.504 106.117 188.066 104.997C188.307 104.488 187.745 103.062 186.861 101.942C184.531 98.6828 178.747 98.7846 176.096 102.247Z" fill="#E31F26"/>
<path d="M199.152 101.025C197.626 103.367 197.787 104.997 199.634 105.404C200.759 105.608 201.643 105.201 201.884 104.284C202.526 102.145 205.418 102.349 205.418 104.488C205.418 105.404 203.651 108.459 201.402 111.107C195.698 117.93 196.019 119.051 203.249 119.051C206.543 119.051 209.355 118.745 209.676 118.44C210.801 116.912 209.033 114.977 206.543 114.977C205.017 114.977 203.812 114.672 203.812 114.162C203.812 113.755 205.097 112.126 206.623 110.598C209.596 107.645 210.399 103.367 208.471 100.923C207.186 99.2939 200.197 99.3957 199.152 101.025Z" fill="#E31F26"/>
<path d="M211.845 101.738C211.845 103.469 212.408 103.775 215.46 103.775C217.469 103.775 219.075 103.978 219.075 104.182C219.075 104.386 218.192 106.626 217.067 108.969C214.657 114.468 214.416 119.051 216.585 119.051C217.71 119.051 218.352 117.93 218.915 114.672C219.397 112.227 220.762 108.561 221.887 106.423C225.181 100.312 224.779 99.7012 217.87 99.7012C212.408 99.7012 211.845 99.9049 211.845 101.738Z" fill="#E31F26"/>
<path d="M227.591 101.942C225.342 106.015 226.225 115.894 229.037 118.236C230.804 119.764 234.901 119.051 236.428 116.912C238.597 113.857 238.597 103.164 236.428 101.127C233.937 98.8866 229.037 99.2939 227.591 101.942ZM234.178 108.459C234.339 112.126 234.098 113.959 233.214 114.875C231.286 116.912 230.322 115.181 230.322 109.478C230.322 103.673 230.724 102.553 232.732 102.96C233.616 103.164 234.018 104.793 234.178 108.459Z" fill="#E31F26"/>
<path d="M242.132 101.432C240.927 103.265 240.445 106.83 240.605 112.125C240.927 118.236 246.631 121.087 250.487 117.116C252.013 115.588 252.334 114.264 252.334 109.579C252.334 102.451 250.647 99.7011 246.39 99.7011C244.542 99.7011 242.935 100.414 242.132 101.432ZM248.318 104.997C249.121 108.968 248.88 112.431 247.595 114.57C246.39 116.505 246.39 116.505 245.184 114.57C243.979 112.533 243.578 107.237 244.461 104.386C245.184 101.942 247.755 102.451 248.318 104.997Z" fill="#E31F26"/>
<path d="M260.047 100.516C260.047 100.923 259.002 102.145 257.637 103.062C256.351 104.08 255.226 105.608 255.226 106.423C255.226 107.645 255.789 107.848 257.637 107.339L260.047 106.626V112.94C260.047 118.847 260.127 119.152 261.894 118.847C263.581 118.541 263.662 118.032 263.903 109.07L264.144 99.7012H262.055C260.93 99.7012 260.047 100.109 260.047 100.516Z" fill="#E31F26"/>
<path d="M94.5554 111.922C94.5554 113.551 95.1177 113.959 97.3671 113.959C99.6165 113.959 100.179 113.551 100.179 111.922C100.179 110.293 99.6165 109.885 97.3671 109.885C95.1177 109.885 94.5554 110.293 94.5554 111.922Z" fill="#E31F26"/>
<path d="M142.757 111.922C142.757 113.551 143.319 113.959 145.568 113.959C147.818 113.959 148.38 113.551 148.38 111.922C148.38 110.293 147.818 109.885 145.568 109.885C143.319 109.885 142.757 110.293 142.757 111.922Z" fill="#E31F26"/>
<path d="M190.155 111.922C190.155 113.551 190.717 113.959 192.966 113.959C195.216 113.959 195.778 113.551 195.778 111.922C195.778 110.293 195.216 109.885 192.966 109.885C190.717 109.885 190.155 110.293 190.155 111.922Z" fill="#E31F26"/>
<path d="M123.476 154.185V166.915H130.947C140.106 166.915 141.953 165.693 141.953 159.786C141.953 156.731 141.552 155.509 140.266 154.694C138.74 153.574 138.74 153.37 139.865 151.741C141.712 149.195 141.471 144.918 139.383 143.085C138.097 141.863 135.607 141.455 130.546 141.455H123.476V154.185ZM135.125 149.093C135.125 150.621 134.482 151.232 132.554 151.436C130.144 151.741 129.903 151.537 129.903 149.093C129.903 146.649 130.144 146.445 132.554 146.751C134.482 146.955 135.125 147.566 135.125 149.093ZM135.928 159.277C135.928 160.907 135.286 161.416 132.956 161.619C130.224 161.925 129.903 161.721 129.903 159.481C129.903 156.222 130.305 155.916 133.357 156.629C135.205 157.138 135.928 157.851 135.928 159.277Z" fill="#E31F26"/>
<path d="M149.344 143.085C142.917 148.788 144.283 163.351 151.594 166.609C154.727 168.035 159.708 167.424 163.082 165.286C165.01 163.962 165.251 163.249 165.251 158.259V152.657H160.832C156.655 152.657 156.414 152.759 156.414 155.203C156.414 157.24 156.815 157.749 158.422 157.749C159.627 157.749 160.431 158.36 160.431 159.175C160.431 162.332 153.682 162.943 152.397 159.888C151.192 156.833 151.433 150.01 152.879 148.177C154.405 146.14 157.056 146.038 158.744 147.973C160.109 149.5 165.251 149.093 165.251 147.362C165.251 146.853 164.367 145.325 163.242 144.001C161.636 141.863 160.511 141.455 156.253 141.455C152.959 141.455 150.549 141.964 149.344 143.085Z" fill="#E31F26"/>
<path d="M168.785 142.983C169.026 143.899 170.714 147.26 172.481 150.621C175.212 155.713 175.694 157.444 175.694 161.721V166.915H178.506C180.836 166.915 181.318 166.508 181.398 164.573C181.559 157.75 182.282 155 185.656 148.482L189.351 141.455H186.138C183.326 141.455 182.684 141.863 180.755 145.631L178.586 149.806L177.14 147.362C176.337 146.038 175.534 144.205 175.212 143.187C174.891 141.964 173.927 141.455 171.517 141.455C168.946 141.455 168.384 141.761 168.785 142.983Z" fill="#E31F26"/>
<path d="M192.163 144.001C188.307 148.788 190.235 153.472 196.983 156.222C200.759 157.648 201.482 158.36 201.241 160.194C200.92 163.147 197.867 163.554 196.019 160.906C194.734 158.971 189.351 157.749 189.351 159.277C189.351 161.11 191.922 165.795 193.127 166.202C197.144 167.628 198.831 167.73 201.562 167.017C205.177 165.998 206.864 163.962 207.507 160.092C208.15 155.916 205.9 152.861 200.598 150.723C198.028 149.602 196.18 148.278 196.18 147.464C196.18 145.427 199.313 145.121 200.598 147.056C201.643 148.686 207.025 149.195 207.025 147.667C207.025 147.26 206.302 145.631 205.338 144.103C203.892 141.761 203.089 141.455 198.911 141.455C194.894 141.455 193.77 141.863 192.163 144.001Z" fill="#E31F26"/>
</svg>
