<svg width="400" height="224" viewBox="0 0 400 224" fill="none" xmlns="http://www.w3.org/2000/svg">
<path d="M42.6666 79.3333V134.667H105.333H168V79.3333V24H105.333H42.6666V79.3333ZM124.267 36.9333C131.733 40.2666 145.2 52.5333 143.467 54.4C142.933 54.8 140.8 52.9333 138.533 50.2666C134.267 45.0666 132.267 44.2666 129.733 46.8C128.533 48 128.667 49.2 130.267 51.4666C132.667 55.3333 130.4 55.8666 127.867 52.1333C125.6 48.9333 118.667 49.7333 118.667 53.0666C118.667 54.6666 118.267 54.8 117.067 53.6C114.933 51.4666 107.067 51.6 106.133 53.6C105.467 54.9333 105.2 54.9333 104.533 53.6C103.6 51.7333 95.2 51.4666 94 53.3333C92.8 55.3333 90.6666 54.9333 91.4666 52.8C91.8666 51.6 90.8 50.8 88.4 50.2666C85.6 49.7333 84.1333 50.1333 82.8 52.1333C80.1333 55.8666 78 55.2 80.5333 51.3333C82.5333 48.2666 82.5333 48 79.7333 46.5333C77.0666 45.0666 76.2666 45.4666 72.4 50C70 52.8 67.6 54.6666 67.0666 54.1333C66.5333 53.7333 68.8 50.5333 72.1333 47.2C86.4 32.5333 105.733 28.6666 124.267 36.9333ZM78.6666 62.6666C78.6666 67.4666 78.4 68 75.3333 68C72.1333 68 72 68.2666 72 78C72 87.7333 72.1333 88 75.3333 88C78.4 88 78.6666 88.5333 78.6666 93.3333V98.8L65.7333 98.4L52.6666 98L52.2666 92.9333C51.8666 88.4 52.1333 88 55.2 88C58.6666 88 58.6666 87.8666 58.6666 78C58.6666 68.2666 58.5333 68 55.3333 68C52.4 68 52 67.4666 52 63.6C52 61.0666 52.4 58.6666 52.9333 58.2666C53.3333 57.7333 59.3333 57.3333 66.2666 57.3333H78.6666V62.6666ZM104.267 60.4C106.267 61.6 106.933 61.6 107.867 60.2666C108.533 59.2 110.667 58.6666 112.8 58.9333C116.4 59.3333 116.667 59.7333 116.667 65.3333C116.667 70.9333 116.4 71.3333 112.933 71.7333C110.933 72 107.333 70.9333 104.8 69.4666C99.3333 66 92.9333 65.7333 93.6 68.8C93.8666 70.1333 97.0666 71.8666 102.133 73.4666C111.067 76.2666 115.6 80.1333 116.8 86.1333C118.533 95.2 106 102.267 95.4666 98.1333C91.8666 96.6666 89.7333 96.4 88.8 97.3333C88 98.1333 85.7333 98.6666 83.7333 98.6666C80.2666 98.6666 80 98.4 80 92.8C80 83.8666 82.5333 82.5333 91.2 87.2C98.1333 90.9333 102.667 91.3333 103.6 88.4C103.867 87.6 101.867 86.2666 99.0666 85.3333C85.3333 81.2 80 76.8 80 69.7333C80 60.4 94.9333 54.6666 104.267 60.4ZM148.933 60C156.267 63.3333 160 69.3333 160 78C160 91.3333 152.4 98.6666 138.667 98.6666C128.933 98.6666 123.333 95.2 119.733 87.2C111.467 68.4 129.867 51.2 148.933 60ZM79.6 109.2C82.1333 107.467 82.1333 106.933 80.5333 104.667C78.4 101.867 78.1333 100 79.7333 100C80.4 100 81.6 101.467 82.5333 103.2C84.1333 106 84.8 106.267 88.1333 105.067C90.2666 104.4 92 102.8 92 101.6C92.1333 99.6 92.2666 99.6 93.3333 101.467C94.6666 103.733 104 103.333 104 101.067C104 100.133 104.533 100.133 105.733 101.067C108.4 103.333 115.2 103.467 116.933 101.333C118.4 99.6 118.533 99.6 118.667 101.6C118.667 102.8 120.4 104.4 122.533 105.067C125.867 106.267 126.533 106 128.133 103.2C129.067 101.467 130.267 100 130.933 100C132.533 100 132.133 101.6 130 104.533C128.267 106.8 128.4 107.333 130.4 108.8C132.4 110.267 133.467 109.733 138.4 104.933C141.467 101.867 144 100.133 144 101.067C144 104 131.6 115.333 124.667 118.667C119.067 121.467 116 122 105.333 122C94.1333 122 91.7333 121.6 85.2 118.267C77.7333 114.667 66.6666 104.267 66.6666 101.067C66.6666 100.133 69.0666 102 71.8666 105.2C76.5333 110.667 77.0666 110.933 79.6 109.2Z" fill="#E31F26"/>
<path d="M96.6666 35.8667C94.4 36.8 94.9333 37.2 99.7333 38.5333C104 39.7333 106.667 39.7333 111.067 38.5333C115.733 37.2 116.267 36.8 114 35.8667C112.533 35.3333 108.667 34.8 105.333 34.8C102 34.8 98.1333 35.3333 96.6666 35.8667Z" fill="#E31F26"/>
<path d="M85.3333 39.8666C80.4 42.3999 79.4667 44.3999 82.8 45.0666C83.8667 45.1999 86.5333 43.5999 88.6667 41.3333C93.0667 36.7999 92 36.2666 85.3333 39.8666Z" fill="#E31F26"/>
<path d="M122 41.3332C125.867 45.4666 128.533 46.2666 130 43.9999C130.667 42.9332 121.6 37.3332 119.2 37.3332C118.667 37.3332 119.867 39.0666 122 41.3332Z" fill="#E31F26"/>
<path d="M89.7333 43.2C85.7333 46.6666 85.7333 47.2 90.1333 48.5333C92.7999 49.3333 93.1999 48.9333 97.0666 40.9333C98.1333 38.6666 93.1999 40.2666 89.7333 43.2Z" fill="#E31F26"/>
<path d="M113.333 40.7999C113.333 41.1999 114.4 43.3333 115.6 45.4666C117.333 48.3999 118.533 49.0666 120.667 48.5333C124.933 47.1999 124.933 46.6666 120.667 43.1999C116.933 40.2666 113.333 39.0666 113.333 40.7999Z" fill="#E31F26"/>
<path d="M97.8667 44.8C95.8667 47.7333 95.8667 48.4 97.4667 49.4667C101.6 52.1333 104 50.8 104 46C104 40.2667 101.067 39.7333 97.8667 44.8Z" fill="#E31F26"/>
<path d="M106.667 46C106.667 50.8 109.067 52.1333 113.2 49.4667C114.667 48.5333 114.533 47.7333 112.667 44.8C109.333 39.7333 106.667 40.2667 106.667 46Z" fill="#E31F26"/>
<path d="M134.8 70.5332C132.8 74.2666 132.933 84.3999 135.067 87.1999C139.867 93.7332 146.533 84.9332 144.533 74.7999C143.467 69.4666 142.8 68.6666 139.733 68.2666C137.333 67.9999 135.733 68.6666 134.8 70.5332Z" fill="#E31F26"/>
<path d="M96 106.667C96 107.467 96.9333 109.6 98.1333 111.333C100.8 115.333 104 114.267 104 109.2C104 105.733 103.467 105.333 100 105.333C97.8667 105.333 96 106 96 106.667Z" fill="#E31F26"/>
<path d="M106.667 109.333C106.667 114.4 110.933 114.8 113.067 110C115.2 105.333 115.2 105.333 110.667 105.333C107.067 105.333 106.667 105.733 106.667 109.333Z" fill="#E31F26"/>
<path d="M88.2667 107.867C86.9334 108.667 87.4667 109.867 90.6667 112.533C95.8667 116.8 98 115.867 95.3334 110.533C93.2 106.533 91.3334 105.867 88.2667 107.867Z" fill="#E31F26"/>
<path d="M115.333 110.533C112.667 115.867 114.8 116.8 120 112.533C123.2 109.867 123.733 108.667 122.4 107.867C119.333 105.867 117.467 106.533 115.333 110.533Z" fill="#E31F26"/>
<path d="M81.2 110.667C79.6 111.733 79.7333 112.267 82 113.867C85.2 116.4 92 118.933 91.8667 117.6C91.8667 117.067 89.8667 115.067 87.4667 113.067C84.5333 110.667 82.5333 109.867 81.2 110.667Z" fill="#E31F26"/>
<path d="M123.067 113.2C117.733 117.6 117.467 119.067 122.133 117.333C128.4 114.933 130.933 112.533 129.067 110.933C127.733 110 126.133 110.533 123.067 113.2Z" fill="#E31F26"/>
<path d="M97.7333 117.333C96 118 94.6666 118.933 94.6666 119.333C94.6666 119.733 99.6 120 105.6 120C113.733 120 116.133 119.6 115.067 118.533C113.067 116.533 101.467 115.733 97.7333 117.333Z" fill="#E31F26"/>
<path d="M181.867 79.3333C181.867 104.267 182.133 114.267 182.267 101.6C182.533 88.9333 182.533 68.5333 182.267 56.2666C182.133 44 181.867 54.3999 181.867 79.3333Z" fill="#E31F26"/>
<path d="M319.067 151.6C314.8 152.4 310 157.867 308.267 163.733C306.267 170.267 306.267 188.267 308.133 195.2C308.933 198.133 311.333 202.133 313.333 204.267C316.667 207.467 318.133 208 324.667 208C331.2 208 332.667 207.467 336 204.267C340.8 199.467 342.667 192.667 342.667 180.267C342.667 161.6 338 152.8 327.333 151.467C324.4 151.2 320.667 151.2 319.067 151.6ZM329.467 164C330 165.867 330.4 173.067 330.533 180C330.667 193.733 328.933 199.333 324.667 199.333C320.4 199.333 318.667 193.733 318.667 179.733C318.667 163.733 320 159.6 324.933 160.267C327.467 160.533 328.8 161.6 329.467 164Z" fill="#E31F26"/>
<path d="M358.8 167.2C351.2 180.267 349.333 184.8 349.333 189.2V194.667H359.333H369.333V201.467V208.133L375.067 207.733L380.667 207.333L381.067 201.067C381.467 195.733 381.867 194.667 384.133 194.667C386.267 194.667 386.667 193.733 386.667 189.333C386.667 184.933 386.267 184 384 184C381.467 184 381.333 183.067 381.333 167.333V150.667H374.8H368.133L358.8 167.2ZM370.667 174.667V185.333H364H357.2L362.933 174.667C366.133 168.8 369.067 164 369.733 164C370.267 164 370.667 168.8 370.667 174.667Z" fill="#E31F26"/>
<path d="M192.667 156C190.533 158.133 187.733 160.267 186.4 160.8C184.667 161.333 184 162.8 184 166.8C184 169.6 184.4 172 184.8 172C185.2 172 187.333 170.8 189.467 169.2L193.333 166.533V182.533V198.667H188.667C184.267 198.667 184 198.933 184 203.333V208.133L199.067 207.733L214 207.333L214.4 202.933C214.8 198.8 214.667 198.667 210.133 198.667H205.333V175.333V152H200.933C197.733 152 195.467 153.067 192.667 156Z" fill="#E31F26"/>
<path d="M224.8 158.933C224.4 162.8 224 169.733 224 174.267C224 182.133 224.133 182.667 227.467 183.467C229.733 184.133 232.4 183.6 234.933 182.133C238.4 180 239.067 180 241.867 181.867C243.6 182.933 245.333 185.333 245.867 187.2C246.8 191.2 244.8 197.067 242 198.133C238.667 199.467 233.6 197.467 232.667 194.667C231.733 191.733 226.267 191.067 222.667 193.333C219.733 195.2 222.533 201.333 227.867 204.933C231.067 207.067 234.267 208 238.933 208C250.933 208 257.333 201.2 257.333 188.667C257.333 181.067 254.533 175.333 249.333 172.667C244.4 170.133 240 170.133 236.267 172.8C233.333 174.8 233.333 174.8 233.333 168.8V162.667H243.2H253.067L253.867 158.533C254.267 156.267 254.667 153.867 254.667 153.2C254.667 152.533 248.133 152 240.133 152H225.733L224.8 158.933Z" fill="#E31F26"/>
<path d="M267.467 160.133C267.067 164.667 266.667 171.6 266.667 175.467C266.667 182.133 266.933 182.667 270.133 183.467C272.4 184.133 275.067 183.6 277.6 182.133C281.2 180 281.733 180 284.667 181.867C286.533 183.067 288.267 185.333 288.667 187.067C289.733 190.8 287.333 197.2 284.667 198.133C281.333 199.467 276.267 197.467 275.333 194.667C274.4 191.867 268.933 191.067 265.467 193.2C263.867 194.267 263.867 195.067 265.333 198.667C267.733 204.533 273.867 208 281.733 208C293.467 208 300 201.2 300 188.933C300 180.533 298.133 176.4 293.067 173.333C287.733 170.133 282.933 170 278.933 172.8C276 174.8 276 174.8 276 168.8V162.667H285.867C294.933 162.667 295.733 162.4 296.533 159.6C298.533 152 298.533 152 282.8 152H268.4L267.467 160.133Z" fill="#E31F26"/>
<path d="M112.284 165.963C111.75 167.297 112.017 168.897 112.684 169.563C114.684 171.563 118.817 169.963 118.817 167.163C118.817 163.697 113.484 162.763 112.284 165.963Z" fill="#E31F26"/>
<path d="M101.4 180C100.467 182.933 98.4667 184.933 95.4 186.133C90.3333 188.267 89.8 192.267 94.3333 193.067C97.9333 193.733 101.667 197.333 101.667 200C101.667 203.2 105.133 204.267 107 201.867C109.133 199.467 106.867 196.4 102.6 195.733C98.3333 195.067 96.4667 188.8 99.5333 185.467C100.867 184 103.267 182.667 104.867 182.4C108.333 181.867 108.733 176.933 105.267 176.267C103.667 175.867 102.467 177.067 101.4 180Z" fill="#E31F26"/>
<path d="M198.872 59V40.28H200.51V59H198.872ZM204.255 59V44.96H205.841V46.416C205.841 46.78 205.789 47.248 205.685 47.82L205.529 48.522C205.598 48.1753 205.667 47.9327 205.737 47.794C206.083 46.806 206.664 46.0347 207.479 45.48C208.311 44.908 209.29 44.622 210.417 44.622C210.867 44.622 211.396 44.6827 212.003 44.804C212.609 44.9253 213.19 45.168 213.745 45.532C214.317 45.8787 214.819 46.3467 215.253 46.936C215.703 47.508 216.024 48.106 216.215 48.73C216.405 49.3367 216.501 50.108 216.501 51.044V59H214.785V51.226C214.785 48.522 213.641 46.9013 211.353 46.364C211.075 46.2947 210.746 46.26 210.365 46.26C209.793 46.26 209.203 46.39 208.597 46.65C206.794 47.4473 205.893 48.964 205.893 51.2V59H204.255ZM218.379 46.468V44.96H220.589V40.28H222.201V44.96H225.529V46.468H222.175V59H220.589V46.468H218.379ZM240.714 52.812H228.936V51.252H238.998C238.998 50.472 238.798 49.7527 238.4 49.094C238.001 48.418 237.446 47.82 236.736 47.3C236.146 46.8667 235.462 46.5547 234.682 46.364C234.214 46.2427 233.728 46.182 233.226 46.182C231.215 46.182 229.655 47.066 228.546 48.834C227.939 49.7873 227.636 50.8187 227.636 51.928C227.636 52.396 227.679 52.8033 227.766 53.15C228.026 54.3633 228.546 55.3513 229.326 56.114C230.106 56.8767 231.094 57.362 232.29 57.57C232.636 57.622 232.974 57.648 233.304 57.648C234.794 57.648 236.129 57.1107 237.308 56.036L237.568 55.802L238.764 56.842C238.088 57.622 237.273 58.22 236.32 58.636C235.366 59.052 234.335 59.26 233.226 59.26C233.018 59.26 232.81 59.26 232.602 59.26C232.307 59.208 232.09 59.1733 231.952 59.156C231.033 59 230.166 58.6793 229.352 58.194C228.26 57.518 227.41 56.634 226.804 55.542C226.197 54.45 225.894 53.2713 225.894 52.006C225.894 51.6247 225.937 51.174 226.024 50.654C226.353 48.73 227.376 47.1613 229.092 45.948C229.906 45.376 230.825 44.9773 231.848 44.752C232.402 44.648 232.931 44.596 233.434 44.596C234.734 44.596 235.921 44.8993 236.996 45.506C238.088 46.1127 238.98 46.988 239.674 48.132C240.384 49.276 240.74 50.68 240.74 52.344L240.714 52.812ZM243.433 59V44.96H245.019V47.976C245.175 47.6813 245.331 47.4213 245.487 47.196C245.66 46.9707 245.868 46.7367 246.111 46.494C247.272 45.3673 248.572 44.7347 250.011 44.596V46.234L249.465 46.364C248.477 46.624 247.671 47.04 247.047 47.612C246.319 48.2533 245.799 48.9467 245.487 49.692C245.192 50.42 245.045 51.3473 245.045 52.474V59H243.433ZM251.507 59V44.96H253.093V46.416C253.093 46.78 253.041 47.248 252.937 47.82L252.781 48.522C252.85 48.1753 252.919 47.9327 252.989 47.794C253.335 46.806 253.916 46.0347 254.731 45.48C255.563 44.908 256.542 44.622 257.669 44.622C258.119 44.622 258.648 44.6827 259.255 44.804C259.861 44.9253 260.442 45.168 260.997 45.532C261.569 45.8787 262.071 46.3467 262.505 46.936C262.955 47.508 263.276 48.106 263.467 48.73C263.657 49.3367 263.753 50.108 263.753 51.044V59H262.037V51.226C262.037 48.522 260.893 46.9013 258.605 46.364C258.327 46.2947 257.998 46.26 257.617 46.26C257.045 46.26 256.455 46.39 255.849 46.65C254.046 47.4473 253.145 48.964 253.145 51.2V59H251.507ZM280.113 48.704C280.061 48.548 280.009 48.366 279.957 48.158C279.905 47.9327 279.879 47.742 279.879 47.586L279.853 47.378V47.118V44.96H281.413V59H279.801V56.842C279.801 56.218 279.905 55.6287 280.113 55.074L279.957 55.412C278.83 57.9773 276.898 59.26 274.159 59.26C273.934 59.26 273.682 59.2427 273.405 59.208C273.128 59.1733 272.824 59.13 272.495 59.078C271.039 58.7833 269.8 58.1333 268.777 57.128C267.754 56.1053 267.096 54.8573 266.801 53.384C266.766 53.2627 266.732 53.0633 266.697 52.786C266.68 52.4913 266.671 52.214 266.671 51.954C266.671 50.706 266.966 49.5447 267.555 48.47C268.144 47.378 268.976 46.4853 270.051 45.792C270.831 45.272 271.689 44.9167 272.625 44.726C272.92 44.674 273.197 44.6307 273.457 44.596C273.734 44.5613 274.003 44.544 274.263 44.544C275.546 44.544 276.672 44.8733 277.643 45.532C278.631 46.1907 279.402 47.1267 279.957 48.34L280.113 48.704ZM268.439 51.928C268.439 53.332 268.864 54.554 269.713 55.594C270.58 56.6167 271.706 57.2667 273.093 57.544C273.422 57.6133 273.786 57.648 274.185 57.648C274.514 57.648 274.87 57.6047 275.251 57.518C276.464 57.2753 277.461 56.7553 278.241 55.958C279.038 55.1433 279.541 54.1467 279.749 52.968L279.827 51.824C279.827 50.6627 279.506 49.6227 278.865 48.704C278.224 47.7853 277.357 47.1007 276.265 46.65C275.572 46.3553 274.826 46.208 274.029 46.208C273.63 46.208 273.284 46.2427 272.989 46.312C271.637 46.572 270.536 47.222 269.687 48.262C268.855 49.2847 268.439 50.5067 268.439 51.928ZM283.277 46.468V44.96H285.487V40.28H287.099V44.96H290.427V46.468H287.073V59H285.487V46.468H283.277ZM291.726 59V44.96H293.39V59H291.726ZM291.778 43.088V40.28H293.416V43.088H291.778ZM296.327 52.006C296.327 49.926 297.029 48.184 298.433 46.78C299.837 45.376 301.596 44.674 303.711 44.674C305.791 44.674 307.542 45.376 308.963 46.78C310.384 48.184 311.095 49.926 311.095 52.006C311.095 54.086 310.384 55.828 308.963 57.232C307.559 58.6187 305.808 59.312 303.711 59.312C301.614 59.312 299.854 58.6187 298.433 57.232C297.029 55.828 296.327 54.086 296.327 52.006ZM297.965 52.006C297.965 53.618 298.52 54.9787 299.629 56.088C300.738 57.1973 302.099 57.752 303.711 57.752C305.306 57.752 306.658 57.1973 307.767 56.088C308.894 54.9613 309.457 53.6007 309.457 52.006C309.457 50.394 308.894 49.0333 307.767 47.924C306.658 46.7973 305.306 46.234 303.711 46.234C302.116 46.234 300.756 46.7973 299.629 47.924C298.52 49.0333 297.965 50.394 297.965 52.006ZM314.018 59V44.96H315.604V46.416C315.604 46.78 315.552 47.248 315.448 47.82L315.292 48.522C315.362 48.1753 315.431 47.9327 315.5 47.794C315.847 46.806 316.428 46.0347 317.242 45.48C318.074 44.908 319.054 44.622 320.18 44.622C320.631 44.622 321.16 44.6827 321.766 44.804C322.373 44.9253 322.954 45.168 323.508 45.532C324.08 45.8787 324.583 46.3467 325.016 46.936C325.467 47.508 325.788 48.106 325.978 48.73C326.169 49.3367 326.264 50.108 326.264 51.044V59H324.548V51.226C324.548 48.522 323.404 46.9013 321.116 46.364C320.839 46.2947 320.51 46.26 320.128 46.26C319.556 46.26 318.967 46.39 318.36 46.65C316.558 47.4473 315.656 48.964 315.656 51.2V59H314.018ZM342.625 48.704C342.573 48.548 342.521 48.366 342.469 48.158C342.417 47.9327 342.391 47.742 342.391 47.586L342.365 47.378V47.118V44.96H343.925V59H342.313V56.842C342.313 56.218 342.417 55.6287 342.625 55.074L342.469 55.412C341.342 57.9773 339.409 59.26 336.671 59.26C336.445 59.26 336.194 59.2427 335.917 59.208C335.639 59.1733 335.336 59.13 335.007 59.078C333.551 58.7833 332.311 58.1333 331.289 57.128C330.266 56.1053 329.607 54.8573 329.313 53.384C329.278 53.2627 329.243 53.0633 329.209 52.786C329.191 52.4913 329.183 52.214 329.183 51.954C329.183 50.706 329.477 49.5447 330.067 48.47C330.656 47.378 331.488 46.4853 332.563 45.792C333.343 45.272 334.201 44.9167 335.137 44.726C335.431 44.674 335.709 44.6307 335.969 44.596C336.246 44.5613 336.515 44.544 336.775 44.544C338.057 44.544 339.184 44.8733 340.155 45.532C341.143 46.1907 341.914 47.1267 342.469 48.34L342.625 48.704ZM330.951 51.928C330.951 53.332 331.375 54.554 332.225 55.594C333.091 56.6167 334.218 57.2667 335.605 57.544C335.934 57.6133 336.298 57.648 336.697 57.648C337.026 57.648 337.381 57.6047 337.763 57.518C338.976 57.2753 339.973 56.7553 340.753 55.958C341.55 55.1433 342.053 54.1467 342.261 52.968L342.339 51.824C342.339 50.6627 342.018 49.6227 341.377 48.704C340.735 47.7853 339.869 47.1007 338.777 46.65C338.083 46.3553 337.338 46.208 336.541 46.208C336.142 46.208 335.795 46.2427 335.501 46.312C334.149 46.572 333.048 47.222 332.199 48.262C331.367 49.2847 330.951 50.5067 330.951 51.928ZM347.661 59V40.28H349.377V59H347.661ZM198.04 78.666C198.04 75.962 198.985 73.6653 200.874 71.776C202.763 69.8867 205.051 68.942 207.738 68.942C210.425 68.942 212.713 69.8867 214.602 71.776C216.491 73.6653 217.436 75.962 217.436 78.666C217.436 81.3527 216.491 83.6407 214.602 85.53C212.713 87.4193 210.425 88.364 207.738 88.364C205.051 88.364 202.763 87.4193 200.874 85.53C198.985 83.6407 198.04 81.3527 198.04 78.666ZM199.73 78.666C199.73 79.7407 199.929 80.772 200.328 81.76C200.727 82.748 201.316 83.632 202.096 84.412C202.876 85.192 203.743 85.79 204.696 86.206C205.667 86.6047 206.681 86.804 207.738 86.804C209.957 86.804 211.846 86.0153 213.406 84.438C214.983 82.8433 215.772 80.9193 215.772 78.666C215.772 77.574 215.581 76.5427 215.2 75.572C214.819 74.6013 214.238 73.726 213.458 72.946C212.678 72.166 211.785 71.5767 210.78 71.178C209.792 70.762 208.778 70.554 207.738 70.554C206.681 70.554 205.667 70.7533 204.696 71.152C203.743 71.5333 202.876 72.1227 202.096 72.92C200.519 74.4973 199.73 76.4127 199.73 78.666ZM220.352 88V73.96H221.938V76.976C222.094 76.6813 222.25 76.4213 222.406 76.196C222.58 75.9707 222.788 75.7367 223.03 75.494C224.192 74.3673 225.492 73.7347 226.93 73.596V75.234L226.384 75.364C225.396 75.624 224.59 76.04 223.966 76.612C223.238 77.2533 222.718 77.9467 222.406 78.692C222.112 79.42 221.964 80.3473 221.964 81.474V88H220.352ZM240.889 78.198L240.681 77.574C240.577 77.1753 240.491 76.768 240.421 76.352C240.369 75.9187 240.343 75.624 240.343 75.468L240.421 73.96H241.955V85.738C241.955 85.8767 241.947 86.0327 241.929 86.206C241.929 86.3793 241.903 86.6133 241.851 86.908C241.591 88.468 240.959 89.768 239.953 90.808C238.948 91.848 237.665 92.524 236.105 92.836C235.551 92.94 235.013 92.992 234.493 92.992C233.263 92.992 232.127 92.7233 231.087 92.186C230.047 91.6487 229.189 90.8773 228.513 89.872L229.891 88.936L230.203 89.352C231.347 90.704 232.786 91.38 234.519 91.38C235.005 91.38 235.429 91.3367 235.793 91.25C238.393 90.678 239.927 88.9533 240.395 86.076L240.473 85.452L240.525 85.01C240.543 84.854 240.577 84.698 240.629 84.542C240.681 84.386 240.768 84.1867 240.889 83.944L240.707 84.308L240.343 85.01C239.13 87.246 237.241 88.364 234.675 88.364C234.173 88.364 233.661 88.312 233.141 88.208C231.911 87.9653 230.827 87.4713 229.891 86.726C228.973 85.9633 228.279 85.01 227.811 83.866C227.43 82.93 227.239 81.968 227.239 80.98C227.239 79.7493 227.534 78.5967 228.123 77.522C228.73 76.43 229.579 75.5287 230.671 74.818C231.451 74.3327 232.301 73.9947 233.219 73.804C233.791 73.7 234.337 73.648 234.857 73.648C236.192 73.648 237.353 73.9947 238.341 74.688C239.329 75.364 240.109 76.352 240.681 77.652L240.889 78.198ZM229.007 80.954C229.007 81.37 229.042 81.7253 229.111 82.02C229.337 83.216 229.839 84.2213 230.619 85.036C231.417 85.8333 232.396 86.3533 233.557 86.596C233.956 86.6827 234.311 86.726 234.623 86.726C234.953 86.726 235.308 86.6827 235.689 86.596C236.868 86.3707 237.865 85.8593 238.679 85.062C239.494 84.2647 240.023 83.2853 240.265 82.124C240.352 81.6907 240.395 81.3007 240.395 80.954C240.395 79.3767 239.806 78.0247 238.627 76.898C237.761 76.0833 236.816 75.5893 235.793 75.416C235.447 75.3467 235.057 75.312 234.623 75.312C233.115 75.312 231.798 75.8493 230.671 76.924C229.562 77.9987 229.007 79.342 229.007 80.954ZM258.302 77.704C258.25 77.548 258.198 77.366 258.146 77.158C258.094 76.9327 258.068 76.742 258.068 76.586L258.042 76.378V76.118V73.96H259.602V88H257.99V85.842C257.99 85.218 258.094 84.6287 258.302 84.074L258.146 84.412C257.02 86.9773 255.087 88.26 252.348 88.26C252.123 88.26 251.872 88.2427 251.594 88.208C251.317 88.1733 251.014 88.13 250.684 88.078C249.228 87.7833 247.989 87.1333 246.966 86.128C245.944 85.1053 245.285 83.8573 244.99 82.384C244.956 82.2627 244.921 82.0633 244.886 81.786C244.869 81.4913 244.86 81.214 244.86 80.954C244.86 79.706 245.155 78.5447 245.744 77.47C246.334 76.378 247.166 75.4853 248.24 74.792C249.02 74.272 249.878 73.9167 250.814 73.726C251.109 73.674 251.386 73.6307 251.646 73.596C251.924 73.5613 252.192 73.544 252.452 73.544C253.735 73.544 254.862 73.8733 255.832 74.532C256.82 75.1907 257.592 76.1267 258.146 77.34L258.302 77.704ZM246.628 80.928C246.628 82.332 247.053 83.554 247.902 84.594C248.769 85.6167 249.896 86.2667 251.282 86.544C251.612 86.6133 251.976 86.648 252.374 86.648C252.704 86.648 253.059 86.6047 253.44 86.518C254.654 86.2753 255.65 85.7553 256.43 84.958C257.228 84.1433 257.73 83.1467 257.938 81.968L258.016 80.824C258.016 79.6627 257.696 78.6227 257.054 77.704C256.413 76.7853 255.546 76.1007 254.454 75.65C253.761 75.3553 253.016 75.208 252.218 75.208C251.82 75.208 251.473 75.2427 251.178 75.312C249.826 75.572 248.726 76.222 247.876 77.262C247.044 78.2847 246.628 79.5067 246.628 80.928ZM263.339 88V73.96H264.925V75.416C264.925 75.78 264.873 76.248 264.769 76.82L264.613 77.522C264.682 77.1753 264.751 76.9327 264.821 76.794C265.167 75.806 265.748 75.0347 266.563 74.48C267.395 73.908 268.374 73.622 269.501 73.622C269.951 73.622 270.48 73.6827 271.087 73.804C271.693 73.9253 272.274 74.168 272.829 74.532C273.401 74.8787 273.903 75.3467 274.337 75.936C274.787 76.508 275.108 77.106 275.299 77.73C275.489 78.3367 275.585 79.108 275.585 80.044V88H273.869V80.226C273.869 77.522 272.725 75.9013 270.437 75.364C270.159 75.2947 269.83 75.26 269.449 75.26C268.877 75.26 268.287 75.39 267.681 75.65C265.878 76.4473 264.977 77.964 264.977 80.2V88H263.339ZM279.335 88V73.96H280.999V88H279.335ZM279.387 72.088V69.28H281.025V72.088H279.387ZM283.468 88L290.904 75.39H283.806V73.96H293.608L286.224 86.492H293.348V88H283.468ZM308.652 77.704C308.6 77.548 308.548 77.366 308.496 77.158C308.444 76.9327 308.418 76.742 308.418 76.586L308.392 76.378V76.118V73.96H309.952V88H308.34V85.842C308.34 85.218 308.444 84.6287 308.652 84.074L308.496 84.412C307.369 86.9773 305.437 88.26 302.698 88.26C302.473 88.26 302.221 88.2427 301.944 88.208C301.667 88.1733 301.363 88.13 301.034 88.078C299.578 87.7833 298.339 87.1333 297.316 86.128C296.293 85.1053 295.635 83.8573 295.34 82.384C295.305 82.2627 295.271 82.0633 295.236 81.786C295.219 81.4913 295.21 81.214 295.21 80.954C295.21 79.706 295.505 78.5447 296.094 77.47C296.683 76.378 297.515 75.4853 298.59 74.792C299.37 74.272 300.228 73.9167 301.164 73.726C301.459 73.674 301.736 73.6307 301.996 73.596C302.273 73.5613 302.542 73.544 302.802 73.544C304.085 73.544 305.211 73.8733 306.182 74.532C307.17 75.1907 307.941 76.1267 308.496 77.34L308.652 77.704ZM296.978 80.928C296.978 82.332 297.403 83.554 298.252 84.594C299.119 85.6167 300.245 86.2667 301.632 86.544C301.961 86.6133 302.325 86.648 302.724 86.648C303.053 86.648 303.409 86.6047 303.79 86.518C305.003 86.2753 306 85.7553 306.78 84.958C307.577 84.1433 308.08 83.1467 308.288 81.968L308.366 80.824C308.366 79.6627 308.045 78.6227 307.404 77.704C306.763 76.7853 305.896 76.1007 304.804 75.65C304.111 75.3553 303.365 75.208 302.568 75.208C302.169 75.208 301.823 75.2427 301.528 75.312C300.176 75.572 299.075 76.222 298.226 77.262C297.394 78.2847 296.978 79.5067 296.978 80.928ZM311.816 75.468V73.96H314.026V69.28H315.638V73.96H318.966V75.468H315.612V88H314.026V75.468H311.816ZM320.265 88V73.96H321.929V88H320.265ZM320.317 72.088V69.28H321.955V72.088H320.317ZM324.866 81.006C324.866 78.926 325.568 77.184 326.972 75.78C328.376 74.376 330.136 73.674 332.25 73.674C334.33 73.674 336.081 74.376 337.502 75.78C338.924 77.184 339.634 78.926 339.634 81.006C339.634 83.086 338.924 84.828 337.502 86.232C336.098 87.6187 334.348 88.312 332.25 88.312C330.153 88.312 328.394 87.6187 326.972 86.232C325.568 84.828 324.866 83.086 324.866 81.006ZM326.504 81.006C326.504 82.618 327.059 83.9787 328.168 85.088C329.278 86.1973 330.638 86.752 332.25 86.752C333.845 86.752 335.197 86.1973 336.306 85.088C337.433 83.9613 337.996 82.6007 337.996 81.006C337.996 79.394 337.433 78.0333 336.306 76.924C335.197 75.7973 333.845 75.234 332.25 75.234C330.656 75.234 329.295 75.7973 328.168 76.924C327.059 78.0333 326.504 79.394 326.504 81.006ZM342.558 88V73.96H344.144V75.416C344.144 75.78 344.092 76.248 343.988 76.82L343.832 77.522C343.901 77.1753 343.97 76.9327 344.04 76.794C344.386 75.806 344.967 75.0347 345.782 74.48C346.614 73.908 347.593 73.622 348.72 73.622C349.17 73.622 349.699 73.6827 350.306 73.804C350.912 73.9253 351.493 74.168 352.048 74.532C352.62 74.8787 353.122 75.3467 353.556 75.936C354.006 76.508 354.327 77.106 354.518 77.73C354.708 78.3367 354.804 79.108 354.804 80.044V88H353.088V80.226C353.088 77.522 351.944 75.9013 349.656 75.364C349.378 75.2947 349.049 75.26 348.668 75.26C348.096 75.26 347.506 75.39 346.9 75.65C345.097 76.4473 344.196 77.964 344.196 80.2V88H342.558ZM364.795 75.468V73.96H366.225C366.225 73.18 366.381 72.452 366.693 71.776C367.022 71.1 367.507 70.5107 368.149 70.008C368.721 69.6093 369.284 69.3493 369.839 69.228C370.393 69.0893 370.887 69.02 371.321 69.02C372.187 69.02 372.959 69.2367 373.635 69.67L372.855 71.022C372.352 70.658 371.771 70.476 371.113 70.476C370.385 70.476 369.735 70.7013 369.163 71.152C368.417 71.7067 367.975 72.4867 367.837 73.492L367.811 73.96H372.413V75.468H367.785V88H366.199V75.468H364.795ZM370.925 81.006C370.925 78.926 371.627 77.184 373.031 75.78C374.435 74.376 376.194 73.674 378.309 73.674C380.389 73.674 382.139 74.376 383.561 75.78C384.982 77.184 385.693 78.926 385.693 81.006C385.693 83.086 384.982 84.828 383.561 86.232C382.157 87.6187 380.406 88.312 378.309 88.312C376.211 88.312 374.452 87.6187 373.031 86.232C371.627 84.828 370.925 83.086 370.925 81.006ZM372.563 81.006C372.563 82.618 373.117 83.9787 374.227 85.088C375.336 86.1973 376.697 86.752 378.309 86.752C379.903 86.752 381.255 86.1973 382.365 85.088C383.491 83.9613 384.055 82.6007 384.055 81.006C384.055 79.394 383.491 78.0333 382.365 76.924C381.255 75.7973 379.903 75.234 378.309 75.234C376.714 75.234 375.353 75.7973 374.227 76.924C373.117 78.0333 372.563 79.394 372.563 81.006ZM388.616 88V73.96H390.202V76.976C390.358 76.6813 390.514 76.4213 390.67 76.196C390.843 75.9707 391.051 75.7367 391.294 75.494C392.455 74.3673 393.755 73.7347 395.194 73.596V75.234L394.648 75.364C393.66 75.624 392.854 76.04 392.23 76.612C391.502 77.2533 390.982 77.9467 390.67 78.692C390.375 79.42 390.228 80.3473 390.228 81.474V88H388.616ZM198.04 111.826H199.574L199.652 112.554C199.999 114.426 201.203 115.483 203.266 115.726C203.37 115.743 203.474 115.752 203.578 115.752C203.682 115.752 203.786 115.752 203.89 115.752C204.722 115.752 205.45 115.587 206.074 115.258C206.698 114.929 207.192 114.452 207.556 113.828C207.937 113.204 208.128 112.554 208.128 111.878C208.128 111.289 207.963 110.717 207.634 110.162C207.322 109.607 206.949 109.2 206.516 108.94C206.083 108.663 205.32 108.351 204.228 108.004L203.708 107.848L202.616 107.562L202.226 107.458L201.368 107.172C200.501 106.808 199.825 106.271 199.34 105.56C198.872 104.832 198.638 103.991 198.638 103.038C198.638 102.743 198.664 102.423 198.716 102.076C198.941 100.828 199.539 99.8227 200.51 99.06C201.481 98.28 202.668 97.89 204.072 97.89C204.401 97.89 204.748 97.916 205.112 97.968C206.273 98.124 207.253 98.566 208.05 99.294C208.847 100.005 209.367 100.906 209.61 101.998C209.627 102.154 209.645 102.301 209.662 102.44C209.697 102.579 209.714 102.752 209.714 102.96H207.972L207.894 102.31C207.53 100.663 206.473 99.71 204.722 99.45C204.549 99.4327 204.393 99.424 204.254 99.424C204.133 99.4067 204.037 99.398 203.968 99.398C203.153 99.398 202.451 99.5887 201.862 99.97C201.273 100.351 200.848 100.88 200.588 101.556C200.397 102.076 200.302 102.553 200.302 102.986C200.302 103.714 200.536 104.355 201.004 104.91C201.472 105.447 202.122 105.837 202.954 106.08L203.786 106.288L204.358 106.444L205.008 106.6C208.163 107.519 209.74 109.235 209.74 111.748C209.74 111.887 209.74 111.991 209.74 112.06C209.74 112.181 209.723 112.363 209.688 112.606C209.515 114.01 208.925 115.145 207.92 116.012C206.915 116.879 205.632 117.312 204.072 117.312C202.391 117.312 201.03 116.913 199.99 116.116C198.95 115.319 198.317 114.201 198.092 112.762C198.075 112.606 198.057 112.441 198.04 112.268C198.04 112.077 198.04 111.93 198.04 111.826ZM211.041 104.468V102.96H213.251V98.28H214.863V102.96H218.191V104.468H214.837V117H213.251V104.468H211.041ZM231.998 106.704C231.946 106.548 231.894 106.366 231.842 106.158C231.79 105.933 231.764 105.742 231.764 105.586L231.738 105.378V105.118V102.96H233.298V117H231.686V114.842C231.686 114.218 231.79 113.629 231.998 113.074L231.842 113.412C230.715 115.977 228.782 117.26 226.044 117.26C225.818 117.26 225.567 117.243 225.29 117.208C225.012 117.173 224.709 117.13 224.38 117.078C222.924 116.783 221.684 116.133 220.662 115.128C219.639 114.105 218.98 112.857 218.686 111.384C218.651 111.263 218.616 111.063 218.582 110.786C218.564 110.491 218.556 110.214 218.556 109.954C218.556 108.706 218.85 107.545 219.44 106.47C220.029 105.378 220.861 104.485 221.936 103.792C222.716 103.272 223.574 102.917 224.51 102.726C224.804 102.674 225.082 102.631 225.342 102.596C225.619 102.561 225.888 102.544 226.148 102.544C227.43 102.544 228.557 102.873 229.528 103.532C230.516 104.191 231.287 105.127 231.842 106.34L231.998 106.704ZM220.324 109.928C220.324 111.332 220.748 112.554 221.598 113.594C222.464 114.617 223.591 115.267 224.978 115.544C225.307 115.613 225.671 115.648 226.07 115.648C226.399 115.648 226.754 115.605 227.136 115.518C228.349 115.275 229.346 114.755 230.126 113.958C230.923 113.143 231.426 112.147 231.634 110.968L231.712 109.824C231.712 108.663 231.391 107.623 230.75 106.704C230.108 105.785 229.242 105.101 228.15 104.65C227.456 104.355 226.711 104.208 225.914 104.208C225.515 104.208 225.168 104.243 224.874 104.312C223.522 104.572 222.421 105.222 221.572 106.262C220.74 107.285 220.324 108.507 220.324 109.928ZM237.034 117V102.96H238.62V104.416C238.62 104.78 238.568 105.248 238.464 105.82L238.308 106.522C238.377 106.175 238.447 105.933 238.516 105.794C238.863 104.806 239.443 104.035 240.258 103.48C241.09 102.908 242.069 102.622 243.196 102.622C243.647 102.622 244.175 102.683 244.782 102.804C245.389 102.925 245.969 103.168 246.524 103.532C247.096 103.879 247.599 104.347 248.032 104.936C248.483 105.508 248.803 106.106 248.994 106.73C249.185 107.337 249.28 108.108 249.28 109.044V117H247.564V109.226C247.564 106.522 246.42 104.901 244.132 104.364C243.855 104.295 243.525 104.26 243.144 104.26C242.572 104.26 241.983 104.39 241.376 104.65C239.573 105.447 238.672 106.964 238.672 109.2V117H237.034ZM265.64 106.704C265.588 106.548 265.536 106.366 265.484 106.158C265.432 105.933 265.406 105.742 265.406 105.586L265.38 105.43V105.17V98.28H266.966V117H265.328V114.686C265.328 114.322 265.389 113.932 265.51 113.516L265.64 113.074L265.51 113.36L265.276 113.828C264.722 114.903 263.916 115.752 262.858 116.376C261.818 116.983 260.674 117.286 259.426 117.286C258.525 117.286 257.624 117.113 256.722 116.766C255.838 116.402 255.032 115.865 254.304 115.154C252.9 113.802 252.198 112.103 252.198 110.058C252.198 109.625 252.242 109.122 252.328 108.55C252.658 106.539 253.715 104.953 255.5 103.792C256.28 103.272 257.156 102.917 258.126 102.726C258.681 102.622 259.21 102.57 259.712 102.57C261.012 102.57 262.165 102.899 263.17 103.558C264.176 104.217 264.947 105.144 265.484 106.34L265.64 106.704ZM253.966 110.006C253.966 110.197 253.966 110.361 253.966 110.5C253.966 110.621 254.001 110.829 254.07 111.124C254.59 113.516 256.124 114.981 258.672 115.518C258.967 115.587 259.314 115.622 259.712 115.622C260.25 115.622 260.778 115.544 261.298 115.388C261.836 115.232 262.347 114.981 262.832 114.634C263.63 114.097 264.236 113.429 264.652 112.632C265.068 111.817 265.276 110.916 265.276 109.928C265.276 108.784 264.964 107.753 264.34 106.834C263.127 105.066 261.558 104.182 259.634 104.182C259.288 104.182 258.898 104.225 258.464 104.312C257.338 104.537 256.376 105.057 255.578 105.872C254.798 106.687 254.296 107.701 254.07 108.914C254.001 109.209 253.966 109.573 253.966 110.006ZM283.134 106.704C283.082 106.548 283.03 106.366 282.978 106.158C282.926 105.933 282.9 105.742 282.9 105.586L282.874 105.378V105.118V102.96H284.434V117H282.822V114.842C282.822 114.218 282.926 113.629 283.134 113.074L282.978 113.412C281.852 115.977 279.919 117.26 277.18 117.26C276.955 117.26 276.704 117.243 276.426 117.208C276.149 117.173 275.846 117.13 275.516 117.078C274.06 116.783 272.821 116.133 271.798 115.128C270.776 114.105 270.117 112.857 269.822 111.384C269.788 111.263 269.753 111.063 269.718 110.786C269.701 110.491 269.692 110.214 269.692 109.954C269.692 108.706 269.987 107.545 270.576 106.47C271.166 105.378 271.998 104.485 273.072 103.792C273.852 103.272 274.71 102.917 275.646 102.726C275.941 102.674 276.218 102.631 276.478 102.596C276.756 102.561 277.024 102.544 277.284 102.544C278.567 102.544 279.694 102.873 280.664 103.532C281.652 104.191 282.424 105.127 282.978 106.34L283.134 106.704ZM271.46 109.928C271.46 111.332 271.885 112.554 272.734 113.594C273.601 114.617 274.728 115.267 276.114 115.544C276.444 115.613 276.808 115.648 277.206 115.648C277.536 115.648 277.891 115.605 278.272 115.518C279.486 115.275 280.482 114.755 281.262 113.958C282.06 113.143 282.562 112.147 282.77 110.968L282.848 109.824C282.848 108.663 282.528 107.623 281.886 106.704C281.245 105.785 280.378 105.101 279.286 104.65C278.593 104.355 277.848 104.208 277.05 104.208C276.652 104.208 276.305 104.243 276.01 104.312C274.658 104.572 273.558 105.222 272.708 106.262C271.876 107.285 271.46 108.507 271.46 109.928ZM288.171 117V102.96H289.757V105.976C289.913 105.681 290.069 105.421 290.225 105.196C290.398 104.971 290.606 104.737 290.849 104.494C292.01 103.367 293.31 102.735 294.749 102.596V104.234L294.203 104.364C293.215 104.624 292.409 105.04 291.785 105.612C291.057 106.253 290.537 106.947 290.225 107.692C289.93 108.42 289.783 109.347 289.783 110.474V117H288.171ZM308.525 106.704C308.473 106.548 308.421 106.366 308.369 106.158C308.317 105.933 308.291 105.742 308.291 105.586L308.265 105.43V105.17V98.28H309.851V117H308.213V114.686C308.213 114.322 308.274 113.932 308.395 113.516L308.525 113.074L308.395 113.36L308.161 113.828C307.606 114.903 306.8 115.752 305.743 116.376C304.703 116.983 303.559 117.286 302.311 117.286C301.41 117.286 300.508 117.113 299.607 116.766C298.723 116.402 297.917 115.865 297.189 115.154C295.785 113.802 295.083 112.103 295.083 110.058C295.083 109.625 295.126 109.122 295.213 108.55C295.542 106.539 296.6 104.953 298.385 103.792C299.165 103.272 300.04 102.917 301.011 102.726C301.566 102.622 302.094 102.57 302.597 102.57C303.897 102.57 305.05 102.899 306.055 103.558C307.06 104.217 307.832 105.144 308.369 106.34L308.525 106.704ZM296.851 110.006C296.851 110.197 296.851 110.361 296.851 110.5C296.851 110.621 296.886 110.829 296.955 111.124C297.475 113.516 299.009 114.981 301.557 115.518C301.852 115.587 302.198 115.622 302.597 115.622C303.134 115.622 303.663 115.544 304.183 115.388C304.72 115.232 305.232 114.981 305.717 114.634C306.514 114.097 307.121 113.429 307.537 112.632C307.953 111.817 308.161 110.916 308.161 109.928C308.161 108.784 307.849 107.753 307.225 106.834C306.012 105.066 304.443 104.182 302.519 104.182C302.172 104.182 301.782 104.225 301.349 104.312C300.222 104.537 299.26 105.057 298.463 105.872C297.683 106.687 297.18 107.701 296.955 108.914C296.886 109.209 296.851 109.573 296.851 110.006ZM313.409 117V102.96H315.073V117H313.409ZM313.461 101.088V98.28H315.099V101.088H313.461ZM317.543 117L324.979 104.39H317.881V102.96H327.683L320.299 115.492H327.423V117H317.543ZM342.726 106.704C342.674 106.548 342.622 106.366 342.57 106.158C342.518 105.933 342.492 105.742 342.492 105.586L342.466 105.378V105.118V102.96H344.026V117H342.414V114.842C342.414 114.218 342.518 113.629 342.726 113.074L342.57 113.412C341.443 115.977 339.511 117.26 336.772 117.26C336.547 117.26 336.295 117.243 336.018 117.208C335.741 117.173 335.437 117.13 335.108 117.078C333.652 116.783 332.413 116.133 331.39 115.128C330.367 114.105 329.709 112.857 329.414 111.384C329.379 111.263 329.345 111.063 329.31 110.786C329.293 110.491 329.284 110.214 329.284 109.954C329.284 108.706 329.579 107.545 330.168 106.47C330.757 105.378 331.589 104.485 332.664 103.792C333.444 103.272 334.302 102.917 335.238 102.726C335.533 102.674 335.81 102.631 336.07 102.596C336.347 102.561 336.616 102.544 336.876 102.544C338.159 102.544 339.285 102.873 340.256 103.532C341.244 104.191 342.015 105.127 342.57 106.34L342.726 106.704ZM331.052 109.928C331.052 111.332 331.477 112.554 332.326 113.594C333.193 114.617 334.319 115.267 335.706 115.544C336.035 115.613 336.399 115.648 336.798 115.648C337.127 115.648 337.483 115.605 337.864 115.518C339.077 115.275 340.074 114.755 340.854 113.958C341.651 113.143 342.154 112.147 342.362 110.968L342.44 109.824C342.44 108.663 342.119 107.623 341.478 106.704C340.837 105.785 339.97 105.101 338.878 104.65C338.185 104.355 337.439 104.208 336.642 104.208C336.243 104.208 335.897 104.243 335.602 104.312C334.25 104.572 333.149 105.222 332.3 106.262C331.468 107.285 331.052 108.507 331.052 109.928ZM345.891 104.468V102.96H348.101V98.28H349.713V102.96H353.041V104.468H349.687V117H348.101V104.468H345.891ZM354.339 117V102.96H356.003V117H354.339ZM354.391 101.088V98.28H356.029V101.088H354.391ZM358.94 110.006C358.94 107.926 359.642 106.184 361.046 104.78C362.45 103.376 364.21 102.674 366.324 102.674C368.404 102.674 370.155 103.376 371.576 104.78C372.998 106.184 373.708 107.926 373.708 110.006C373.708 112.086 372.998 113.828 371.576 115.232C370.172 116.619 368.422 117.312 366.324 117.312C364.227 117.312 362.468 116.619 361.046 115.232C359.642 113.828 358.94 112.086 358.94 110.006ZM360.578 110.006C360.578 111.618 361.133 112.979 362.242 114.088C363.352 115.197 364.712 115.752 366.324 115.752C367.919 115.752 369.271 115.197 370.38 114.088C371.507 112.961 372.07 111.601 372.07 110.006C372.07 108.394 371.507 107.033 370.38 105.924C369.271 104.797 367.919 104.234 366.324 104.234C364.73 104.234 363.369 104.797 362.242 105.924C361.133 107.033 360.578 108.394 360.578 110.006ZM376.632 117V102.96H378.218V104.416C378.218 104.78 378.166 105.248 378.062 105.82L377.906 106.522C377.975 106.175 378.044 105.933 378.114 105.794C378.46 104.806 379.041 104.035 379.856 103.48C380.688 102.908 381.667 102.622 382.794 102.622C383.244 102.622 383.773 102.683 384.38 102.804C384.986 102.925 385.567 103.168 386.122 103.532C386.694 103.879 387.196 104.347 387.63 104.936C388.08 105.508 388.401 106.106 388.592 106.73C388.782 107.337 388.878 108.108 388.878 109.044V117H387.162V109.226C387.162 106.522 386.018 104.901 383.73 104.364C383.452 104.295 383.123 104.26 382.742 104.26C382.17 104.26 381.58 104.39 380.974 104.65C379.171 105.447 378.27 106.964 378.27 109.2V117H376.632Z" fill="#E31F26"/>
<path d="M57.28 177.44C58.5067 177.44 59.6933 177.547 60.84 177.76C61.9867 177.947 63.12 178.307 64.24 178.84L63.36 181.88C62.2133 181.347 61.1733 180.973 60.24 180.76C59.3333 180.52 58.4 180.4 57.44 180.4C55.92 180.4 54.72 180.733 53.84 181.4C52.96 182.067 52.52 183 52.52 184.2C52.52 185.213 52.84 186.027 53.48 186.64C54.1467 187.253 55.2267 187.787 56.72 188.24L59.24 189.04C61.5333 189.76 63.1467 190.747 64.08 192C65.04 193.227 65.52 194.613 65.52 196.16C65.52 197.253 65.2933 198.253 64.84 199.16C64.4133 200.04 63.8 200.8 63 201.44C62.2267 202.053 61.3067 202.533 60.24 202.88C59.1733 203.2 58 203.36 56.72 203.36C55.44 203.36 54.1333 203.24 52.8 203C51.4933 202.787 50.1867 202.373 48.88 201.76L49.76 198.76C50.9067 199.32 52.0267 199.733 53.12 200C54.2133 200.267 55.36 200.4 56.56 200.4C58 200.4 59.2267 200.067 60.24 199.4C61.2533 198.733 61.76 197.747 61.76 196.44C61.76 195.96 61.68 195.52 61.52 195.12C61.3867 194.693 61.1333 194.293 60.76 193.92C60.4133 193.547 59.9333 193.2 59.32 192.88C58.7067 192.56 57.9333 192.253 57 191.96L54.48 191.16C52.64 190.573 51.2267 189.773 50.24 188.76C49.2533 187.747 48.76 186.373 48.76 184.64C48.76 182.427 49.48 180.68 50.92 179.4C52.3867 178.093 54.5067 177.44 57.28 177.44ZM72.3953 177.8H80.3153C81.622 177.8 82.8086 177.973 83.8753 178.32C84.942 178.64 85.862 179.133 86.6353 179.8C87.4086 180.44 88.0086 181.24 88.4353 182.2C88.862 183.133 89.0753 184.213 89.0753 185.44C89.0753 186.773 88.8486 187.933 88.3953 188.92C87.942 189.88 87.302 190.68 86.4753 191.32C85.6486 191.96 84.6753 192.44 83.5553 192.76C82.4353 193.08 81.1953 193.24 79.8353 193.24H76.0753V203H72.3953V177.8ZM76.0753 190.24H78.3553C79.342 190.24 80.262 190.173 81.1153 190.04C81.9686 189.907 82.6886 189.667 83.2753 189.32C83.8886 188.973 84.3686 188.493 84.7153 187.88C85.062 187.24 85.2353 186.44 85.2353 185.48C85.2353 184.6 85.062 183.867 84.7153 183.28C84.3953 182.667 83.9686 182.173 83.4353 181.8C82.902 181.427 82.2886 181.16 81.5953 181C80.902 180.84 80.1953 180.76 79.4753 180.76H76.0753V190.24Z" fill="#E31F26"/>
<path d="M131.2 200.32C132.533 200.32 133.627 200.213 134.48 200C135.36 199.787 136.227 199.48 137.08 199.08L137.92 202.04C136.987 202.493 135.96 202.827 134.84 203.04C133.747 203.253 132.4 203.36 130.8 203.36C129.147 203.36 127.587 203.08 126.12 202.52C124.653 201.96 123.373 201.133 122.28 200.04C121.213 198.947 120.36 197.6 119.72 196C119.107 194.373 118.8 192.507 118.8 190.4C118.8 188.347 119.107 186.52 119.72 184.92C120.333 183.293 121.173 181.933 122.24 180.84C123.333 179.72 124.627 178.88 126.12 178.32C127.613 177.733 129.24 177.44 131 177.44C132.653 177.44 134.013 177.573 135.08 177.84C136.147 178.107 137.133 178.467 138.04 178.92L137.16 181.8C136.653 181.587 136.173 181.4 135.72 181.24C135.293 181.053 134.853 180.907 134.4 180.8C133.973 180.693 133.52 180.613 133.04 180.56C132.587 180.507 132.067 180.48 131.48 180.48C130.307 180.48 129.187 180.667 128.12 181.04C127.08 181.387 126.16 181.96 125.36 182.76C124.587 183.56 123.96 184.6 123.48 185.88C123.027 187.133 122.8 188.653 122.8 190.44C122.8 192.253 123.027 193.787 123.48 195.04C123.933 196.293 124.533 197.307 125.28 198.08C126.053 198.853 126.947 199.427 127.96 199.8C128.973 200.147 130.053 200.32 131.2 200.32ZM144.153 177.8H159.353V180.84H147.833V188.4H158.313V191.4H147.833V199.96H159.473V203H144.153V177.8Z" fill="#E31F26"/>
<path d="M108.132 190.518C109.123 189.835 109.468 188.986 109.673 186.894C109.928 184.039 112.093 181.711 115.071 181.132C115.929 180.93 117.002 180.671 117.404 180.5C118.745 179.985 119.486 177.608 118.806 175.972C118.317 174.731 117.375 174.199 115.199 174.011C112.055 173.743 110.03 171.464 109.474 167.511C109.197 165.591 108.494 164.662 106.988 164.188C105.67 163.771 104.33 164.399 103.558 165.73C102.093 168.309 103.716 170.787 107.074 171.111C109.089 171.271 110.436 172.14 111.6 173.972C113.169 176.451 113.022 179.531 111.206 181.744C110.112 183.105 107.996 184.302 106.599 184.309C105.337 184.314 104.453 184.827 103.734 185.989C102.694 187.633 103.024 189.355 104.587 190.478C105.665 191.236 107.035 191.258 108.132 190.518Z" fill="#E31F26"/>
</svg>
