<svg width="241" height="224" viewBox="0 0 241 224" fill="none" xmlns="http://www.w3.org/2000/svg">
<path d="M204.449 189.913H200.105C199.255 189.913 198.877 188.859 199.538 188.332L200.766 187.365C201.805 186.487 203.127 186.048 204.449 186.048H208.793C209.643 186.048 210.02 187.102 209.359 187.629L208.132 188.595C207.093 189.473 205.865 189.913 204.449 189.913Z" fill="#E31F26"/>
<path d="M210.115 184.291L205.771 184.555C204.921 184.642 204.543 183.588 205.11 183.061L206.243 182.007C207.187 181.129 208.509 180.514 209.831 180.426L214.175 180.163C215.025 180.075 215.403 181.129 214.836 181.656L213.703 182.71C212.759 183.676 211.437 184.203 210.115 184.291Z" fill="#E31F26"/>
<path d="M215.308 178.318L211.059 178.845C210.209 178.933 209.737 177.967 210.303 177.352L211.342 176.21C212.287 175.244 213.514 174.629 214.836 174.453L219.086 173.926C219.935 173.838 220.408 174.805 219.841 175.419L218.802 176.561C217.858 177.44 216.63 178.142 215.308 178.318Z" fill="#E31F26"/>
<path d="M220.03 171.994L215.78 172.784C214.931 172.96 214.364 171.994 214.931 171.379L215.875 170.149C216.725 169.095 217.858 168.392 219.18 168.129L223.429 167.338C224.279 167.162 224.846 168.129 224.279 168.744L223.24 169.973C222.579 171.027 221.352 171.73 220.03 171.994Z" fill="#E31F26"/>
<path d="M224.279 165.406L220.124 166.548C219.369 166.723 218.708 165.845 219.085 165.142L220.03 163.913C220.785 162.858 221.918 162.068 223.24 161.717L227.395 160.575C228.151 160.399 228.812 161.277 228.434 161.892L227.49 163.21C226.734 164.264 225.601 165.054 224.279 165.406Z" fill="#E31F26"/>
<path d="M228.056 158.466L223.996 159.872C223.241 160.135 222.485 159.257 222.863 158.554L223.618 157.237C224.279 156.095 225.318 155.216 226.64 154.777L230.701 153.372C231.456 153.108 232.211 153.987 231.834 154.689L231.078 156.007C230.417 157.237 229.379 158.115 228.056 158.466Z" fill="#E31F26"/>
<path d="M231.267 151.439L227.301 153.108C226.546 153.46 225.79 152.581 226.073 151.879L226.734 150.473C227.301 149.331 228.34 148.365 229.567 147.838L233.533 146.169C234.289 145.818 235.044 146.696 234.761 147.399L234.1 148.804C233.533 149.946 232.495 150.912 231.267 151.439Z" fill="#E31F26"/>
<path d="M234.006 144.149L230.228 145.994C229.473 146.345 228.623 145.554 229.001 144.852L229.567 143.446C230.039 142.216 230.984 141.25 232.211 140.635L235.989 138.791C236.744 138.439 237.594 139.142 237.216 139.933L236.65 141.338C236.083 142.568 235.139 143.534 234.006 144.149Z" fill="#E31F26"/>
<path d="M236.083 136.683L232.4 138.791C231.739 139.23 230.795 138.527 231.078 137.737L231.55 136.243C231.928 135.014 232.778 133.96 234.006 133.257L237.688 131.149C238.349 130.71 239.294 131.412 239.01 132.203L238.538 133.608C238.161 135.014 237.216 136.068 236.083 136.683Z" fill="#E31F26"/>
<path d="M237.688 129.129L234.194 131.5C233.533 131.939 232.589 131.324 232.778 130.534L233.156 129.041C233.439 127.811 234.289 126.669 235.328 125.966L238.822 123.595C239.483 123.156 240.427 123.77 240.238 124.561L239.86 126.054C239.577 127.284 238.727 128.426 237.688 129.129Z" fill="#E31F26"/>
<path d="M238.727 121.486L235.422 124.034C234.761 124.561 233.817 123.946 233.911 123.155L234.194 121.662C234.383 120.345 235.139 119.203 236.177 118.412L239.483 115.865C240.144 115.338 241.088 115.953 240.993 116.743L240.71 118.236C240.427 119.554 239.766 120.696 238.727 121.486Z" fill="#E31F26"/>
<path d="M239.105 113.845L235.989 116.655C235.422 117.183 234.383 116.655 234.383 115.865L234.572 114.372C234.667 113.054 235.328 111.912 236.272 111.034L239.388 108.223C239.955 107.696 240.993 108.223 240.993 109.014L240.805 110.507C240.71 111.737 240.049 112.966 239.105 113.845Z" fill="#E31F26"/>
<path d="M238.916 106.115L235.989 109.101C235.422 109.716 234.383 109.189 234.383 108.486V106.993C234.383 105.676 234.95 104.446 235.8 103.567L238.727 100.581C239.294 99.9661 240.332 100.493 240.332 101.284V102.777C240.332 103.919 239.86 105.149 238.916 106.115Z" fill="#E31F26"/>
<path d="M238.255 98.4729L235.611 101.635C235.139 102.25 234.006 101.899 233.911 101.108L233.817 99.6148C233.722 98.2972 234.194 97.0675 235.044 96.1013L237.688 92.9391C238.161 92.3242 239.294 92.6756 239.388 93.4661L239.483 94.9594C239.483 96.1891 239.01 97.4189 238.255 98.4729Z" fill="#E31F26"/>
<path d="M236.933 90.8309L234.478 94.1688C234.006 94.7836 232.872 94.5201 232.778 93.7296L232.589 92.2363C232.4 90.9188 232.778 89.689 233.533 88.635L235.989 85.2971C236.461 84.6822 237.594 84.9458 237.688 85.7363L237.877 87.2296C237.972 88.5471 237.688 89.7769 236.933 90.8309Z" fill="#E31F26"/>
<path d="M235.044 83.3647L232.872 86.8783C232.495 87.581 231.267 87.3174 231.173 86.5269L230.889 85.0337C230.606 83.8039 230.889 82.4863 231.55 81.3444L233.722 77.8309C234.1 77.1282 235.328 77.3917 235.422 78.1823L235.705 79.6755C235.989 80.9052 235.705 82.2228 235.044 83.3647Z" fill="#E31F26"/>
<path d="M232.589 75.9863L230.7 79.5877C230.323 80.2904 229.19 80.1147 229.001 79.3242L228.623 77.8309C228.245 76.6012 228.434 75.2836 229.001 74.1417L230.889 70.5403C231.267 69.8376 232.4 70.0133 232.684 70.8038L233.061 72.2971C233.345 73.5268 233.25 74.8444 232.589 75.9863Z" fill="#E31F26"/>
<path d="M229.662 68.7835L228.056 72.4727C227.773 73.1754 226.546 73.0876 226.262 72.3848L225.696 70.9794C225.224 69.7497 225.318 68.4321 225.79 67.2902L227.395 63.601C227.679 62.8983 228.906 62.9861 229.19 63.6888L229.756 65.0943C230.228 66.324 230.134 67.6416 229.662 68.7835Z" fill="#E31F26"/>
<path d="M226.168 61.8443L224.846 65.7092C224.563 66.4119 223.429 66.4119 223.052 65.7092L222.391 64.3038C221.824 63.074 221.824 61.7565 222.202 60.6146L223.524 56.7497C223.807 56.047 224.94 56.047 225.318 56.7497L225.979 58.1551C226.451 59.297 226.546 60.6146 226.168 61.8443Z" fill="#E31F26"/>
<path d="M222.107 55.0806L221.069 58.9455C220.88 59.7361 219.652 59.7361 219.274 59.0334L218.519 57.628C217.858 56.4861 217.764 55.1685 218.047 53.9387L219.086 50.0739C219.274 49.3711 220.502 49.2833 220.88 49.986L221.635 51.3036C222.296 52.5333 222.485 53.8509 222.107 55.0806Z" fill="#E31F26"/>
<path d="M217.575 48.6685L216.819 52.6213C216.725 53.4118 215.497 53.4996 215.119 52.8848L214.27 51.5672C213.514 50.4253 213.325 49.1956 213.514 47.9658L214.27 44.0131C214.458 43.2225 215.592 43.1347 215.969 43.7496L216.819 45.0672C217.575 46.1212 217.858 47.3509 217.575 48.6685Z" fill="#E31F26"/>
<path d="M212.57 42.5199L212.098 46.4727C212.003 47.2632 210.87 47.4389 210.398 46.824L209.454 45.5943C208.698 44.5402 208.32 43.2226 208.415 41.9929L208.887 38.0402C208.981 37.2496 210.115 37.074 210.587 37.6888L211.531 38.9186C212.381 39.9726 212.759 41.2024 212.57 42.5199Z" fill="#E31F26"/>
<path d="M207.187 36.7226L206.998 40.7631C206.998 41.5537 205.865 41.8172 205.299 41.2023L204.26 40.0604C203.41 39.0064 202.938 37.7766 202.938 36.5469L203.127 32.5063C203.127 31.7158 204.26 31.4523 204.827 32.0671L205.865 33.209C206.81 34.1753 207.187 35.405 207.187 36.7226Z" fill="#E31F26"/>
<path d="M201.333 31.2766L201.521 35.3172C201.521 36.1077 200.483 36.4591 199.916 35.8442L198.689 34.7023C197.744 33.7361 197.178 32.5063 197.178 31.2766L196.989 27.236C196.989 26.4455 198.028 26.0941 198.689 26.709L199.822 27.8509C200.672 28.8171 201.238 29.959 201.333 31.2766Z" fill="#E31F26"/>
<path d="M195.1 26.182L195.572 30.1348C195.667 30.9253 194.628 31.3645 193.967 30.8375L192.739 29.7834C191.701 28.905 191.134 27.7631 190.945 26.4455L190.473 22.4928C190.379 21.7023 191.512 21.2631 192.078 21.7901L193.306 22.8442C194.25 23.8104 194.911 24.9523 195.1 26.182Z" fill="#E31F26"/>
<path d="M188.396 21.6143L189.151 25.5671C189.34 26.3576 188.301 26.8847 187.546 26.3576L186.318 25.3914C185.279 24.6009 184.524 23.459 184.241 22.2292L183.485 18.2765C183.296 17.486 184.335 16.9589 184.996 17.4859L186.318 18.4522C187.451 19.2427 188.207 20.2968 188.396 21.6143Z" fill="#E31F26"/>
<path d="M181.502 17.3982L182.541 21.2631C182.73 21.9658 181.785 22.5806 181.03 22.1415L179.708 21.2631C178.575 20.5604 177.725 19.4185 177.442 18.1887L176.403 14.3238C176.214 13.5333 177.158 13.0063 177.914 13.4455L179.236 14.3238C180.369 15.1144 181.124 16.1685 181.502 17.3982Z" fill="#E31F26"/>
<path d="M174.231 13.621L175.553 17.3981C175.836 18.1008 174.892 18.8035 174.137 18.3643L172.72 17.5737C171.493 16.871 170.643 15.9048 170.265 14.6751L168.943 10.898C168.66 10.1953 169.604 9.49262 170.359 9.93181L171.776 10.7224C172.909 11.4251 173.853 12.4791 174.231 13.621Z" fill="#E31F26"/>
<path d="M166.771 10.4588L168.376 14.1481C168.66 14.8508 167.81 15.5535 167.054 15.2021L165.638 14.4994C164.41 13.8845 163.466 12.9183 162.899 11.7764L161.294 8.08721C161.011 7.38451 161.861 6.6818 162.616 7.03315L164.033 7.73586C165.26 8.26289 166.204 9.22911 166.771 10.4588Z" fill="#E31F26"/>
<path d="M159.028 7.64807L160.916 11.2494C161.294 11.9522 160.444 12.6549 159.689 12.3913L158.178 11.7765C156.856 11.2494 155.911 10.3711 155.25 9.22916L153.362 5.62779C152.984 4.92508 153.834 4.13454 154.589 4.48589L156.1 5.10076C157.422 5.62779 158.367 6.50617 159.028 7.64807Z" fill="#E31F26"/>
<path d="M151.096 5.45215L153.267 8.96569C153.645 9.6684 152.89 10.4589 152.134 10.1954L150.623 9.66839C149.301 9.2292 148.168 8.43866 147.507 7.29676L145.335 3.78322C144.958 3.08052 145.713 2.28997 146.468 2.55349L147.979 3.08052C149.301 3.51971 150.435 4.31026 151.096 5.45215Z" fill="#E31F26"/>
<path d="M142.975 3.69527L145.43 7.03313C145.902 7.648 145.146 8.52638 144.391 8.35071L142.786 7.99935C141.464 7.648 140.33 6.85745 139.575 5.89123L137.12 2.55338C136.648 1.93851 137.403 1.06012 138.159 1.2358L139.764 1.67499C141.086 1.93851 142.219 2.64121 142.975 3.69527Z" fill="#E31F26"/>
<path d="M134.853 2.46556L137.498 5.62775C137.97 6.24262 137.309 7.121 136.553 6.94532L134.948 6.6818C133.531 6.41829 132.398 5.71559 131.548 4.74936L128.904 1.58718C128.432 0.972313 129.093 0.0939306 129.849 0.181769L131.454 0.445283C132.776 0.796637 134.004 1.49934 134.853 2.46556Z" fill="#E31F26"/>
<path d="M126.544 1.85071L129.471 4.83722C130.038 5.45209 129.471 6.33047 128.621 6.24263L127.016 6.06696C125.599 5.89128 124.372 5.27641 123.427 4.39803L120.5 1.41152C119.933 0.796654 120.5 -0.0817285 121.35 0.0061098L122.955 0.181787C124.466 0.269626 125.694 0.884492 126.544 1.85071Z" fill="#E31F26"/>
<path d="M118.328 1.67509L121.444 4.48591C122.011 5.01294 121.539 5.97916 120.689 5.97916L119.084 5.89133C117.667 5.80349 116.44 5.27646 115.401 4.39807L112.285 1.58725C111.718 1.06022 112.19 0.0939941 113.04 0.0939941L114.645 0.181834C116.062 0.357511 117.289 0.796704 118.328 1.67509Z" fill="#E31F26"/>
<path d="M110.018 2.11414L113.323 4.66145C113.984 5.18848 113.512 6.1547 112.662 6.1547H111.057C109.641 6.1547 108.318 5.71551 107.28 4.92496L103.975 2.37765C103.314 1.85062 103.786 0.884399 104.636 0.884399H106.241C107.657 0.884399 108.979 1.32359 110.018 2.11414Z" fill="#E31F26"/>
<path d="M101.803 3.08038L105.297 5.45202C105.958 5.89121 105.58 6.94527 104.73 7.03311L103.125 7.12095C101.708 7.20879 100.386 6.85743 99.2532 6.15473L95.7592 3.78309C95.0982 3.3439 95.476 2.28984 96.3258 2.202L97.9311 2.11416C99.3476 2.02633 100.764 2.28984 101.803 3.08038Z" fill="#E31F26"/>
<path d="M93.6817 4.57369L97.3645 6.68181C98.0255 7.121 97.7422 8.17507 96.9868 8.2629L95.3815 8.52642C93.965 8.7021 92.643 8.43858 91.5098 7.82371L87.827 5.71559C87.166 5.2764 87.4493 4.22234 88.2047 4.1345L89.81 3.87099C91.1321 3.60747 92.5485 3.87099 93.6817 4.57369Z" fill="#E31F26"/>
<path d="M85.7496 6.59397L89.5268 8.43858C90.2822 8.78993 90.0934 9.84399 89.2435 10.0197L87.6382 10.371C86.3161 10.6345 84.8997 10.4589 83.6721 9.93183L79.8949 8.08723C79.1394 7.73587 79.3283 6.68181 80.1782 6.50614L81.7835 6.15478C83.1055 5.80343 84.522 5.9791 85.7496 6.59397Z" fill="#E31F26"/>
<path d="M77.9118 9.05343L81.8779 10.6345C82.6334 10.9859 82.5389 12.0399 81.6891 12.3034L80.0837 12.7426C78.7617 13.094 77.3452 13.0062 76.1176 12.567L72.1516 10.898C71.3961 10.5467 71.4905 9.49262 72.3404 9.22911L73.9457 8.78991C75.2678 8.43856 76.6842 8.5264 77.9118 9.05343Z" fill="#E31F26"/>
<path d="M70.2629 12.0401L74.3235 13.4455C75.0789 13.709 75.0789 14.7631 74.229 15.1144L72.7181 15.6414C71.3961 16.0806 69.9796 16.0806 68.752 15.7293L64.6915 14.3239C63.9361 14.0604 63.9361 13.0063 64.786 12.6549L66.2969 12.1279C67.6189 11.6887 68.9409 11.6887 70.2629 12.0401Z" fill="#E31F26"/>
<path d="M62.8974 15.5535L67.0523 16.6954C67.8078 16.8711 67.9022 18.013 67.1467 18.3644L65.6359 18.9792C64.4083 19.5062 62.9918 19.5941 61.6698 19.3306L57.5148 18.1887C56.7594 18.013 56.6649 16.8711 57.4204 16.5197L58.9313 15.9049C60.1589 15.3778 61.5753 15.2022 62.8974 15.5535Z" fill="#E31F26"/>
<path d="M55.815 19.594L60.0644 20.4724C60.9143 20.6481 61.0087 21.7022 60.2533 22.1414L58.8368 22.8441C57.6092 23.4589 56.1928 23.6346 54.8707 23.3711L50.6214 22.4927C49.7715 22.317 49.6771 21.263 50.4325 20.8238L51.849 20.1211C53.0766 19.5062 54.493 19.3305 55.815 19.594Z" fill="#E31F26"/>
<path d="M49.016 23.986L53.2654 24.5131C54.1153 24.6009 54.3042 25.655 53.5487 26.0942L52.1323 26.8847C50.9991 27.5874 49.5826 27.8509 48.2606 27.6753L44.0112 27.1482C43.1613 27.0604 42.9725 26.0063 43.7279 25.5671L45.1444 24.6887C46.2776 24.0739 47.694 23.8104 49.016 23.986Z" fill="#E31F26"/>
<path d="M42.5948 28.8171L46.9386 29.0806C47.7885 29.1685 48.0718 30.2225 47.4107 30.6617L46.0887 31.5401C44.9555 32.3307 43.6335 32.682 42.3115 32.5942L37.9677 32.3307C37.1178 32.2428 36.8345 31.1888 37.4955 30.7496L38.8175 29.8712C39.8563 29.0806 41.2727 28.7293 42.5948 28.8171Z" fill="#E31F26"/>
<path d="M36.5513 34.0873H40.8951C41.7449 34.0873 42.1227 35.1413 41.4616 35.6684L40.234 36.6346C39.1953 37.513 37.8733 37.9522 36.5513 37.9522H32.2074C31.3576 37.9522 30.9798 36.8981 31.6409 36.3711L32.8684 35.4049C33.9072 34.5265 35.1348 34.0873 36.5513 34.0873Z" fill="#E31F26"/>
<path d="M30.8854 39.7091L35.2292 39.4456C36.0791 39.3578 36.4568 40.4118 35.8902 40.9388L34.7571 41.9929C33.8127 42.8713 32.4907 43.4862 31.1687 43.574L26.8249 43.8375C25.975 43.9254 25.5973 42.8713 26.1639 42.3443L27.297 41.2902C28.2413 40.324 29.5634 39.7969 30.8854 39.7091Z" fill="#E31F26"/>
<path d="M25.6917 45.682L29.9411 45.155C30.791 45.0672 31.2631 46.0334 30.6965 46.6483L29.6578 47.7902C28.7135 48.7564 27.4859 49.3713 26.1639 49.5469L21.9145 50.074C21.0646 50.1618 20.5924 49.1956 21.159 48.5807L22.1978 47.4388C23.1421 46.4726 24.3697 45.8577 25.6917 45.682Z" fill="#E31F26"/>
<path d="M20.9702 52.0065L25.2196 51.216C26.0694 51.0403 26.636 52.0065 26.0694 52.6214L25.1251 53.8511C24.2753 54.9052 23.1421 55.6079 21.7256 55.8714L17.4763 56.6619C16.6264 56.8376 16.0598 55.8714 16.6264 55.2565L17.6651 54.0268C18.4206 52.9727 19.6482 52.27 20.9702 52.0065Z" fill="#E31F26"/>
<path d="M16.7208 58.5942L20.8757 57.4524C21.6312 57.2767 22.2922 58.1551 21.9145 58.7699L20.9702 60.0875C20.2147 61.1416 19.0815 61.9321 17.7595 62.2835L13.6046 63.4254C12.8491 63.601 12.1881 62.7227 12.5658 62.1078L13.5101 60.7902C14.2656 59.7361 15.3988 58.9456 16.7208 58.5942Z" fill="#E31F26"/>
<path d="M12.9436 65.4457L17.0041 64.0403C17.7596 63.7768 18.515 64.6552 18.1373 65.3579L17.3818 66.6754C16.7208 67.8173 15.6821 68.6957 14.3601 69.0471L10.2996 70.4525C9.54411 70.716 8.78866 69.8376 9.16639 69.1349L9.92183 67.8173C10.5828 66.7633 11.716 65.8849 12.9436 65.4457Z" fill="#E31F26"/>
<path d="M9.73291 72.5607L13.699 70.8918C14.4544 70.5404 15.2099 71.4188 14.9266 72.1215L14.2656 73.5269C13.699 74.6688 12.6603 75.635 11.4327 76.1621L7.46657 77.831C6.71113 78.1823 5.95569 77.304 6.33341 76.6013L6.99442 75.1958C7.46657 73.9661 8.50531 73.0877 9.73291 72.5607Z" fill="#E31F26"/>
<path d="M6.99444 79.8511L10.7717 78.0065C11.5271 77.6552 12.377 78.4457 11.9993 79.1484L11.4327 80.5538C10.9605 81.7836 10.0162 82.7498 8.78863 83.3646L5.0114 85.2093C4.25596 85.5606 3.40608 84.8579 3.7838 84.0674L4.35039 82.662C4.91697 81.4322 5.86128 80.466 6.99444 79.8511Z" fill="#E31F26"/>
<path d="M4.91698 87.3174L8.59977 85.2093C9.26079 84.7701 10.2051 85.4728 9.9218 86.2633L9.44965 87.7566C9.07193 88.9863 8.22205 90.0404 6.99445 90.7431L3.31166 92.8512C2.65065 93.2904 1.70634 92.5877 1.98963 91.7971L2.46178 90.3039C2.93394 88.9863 3.78382 87.9322 4.91698 87.3174Z" fill="#E31F26"/>
<path d="M3.31167 94.8716L6.80561 92.5C7.46662 92.0608 8.41093 92.6756 8.22207 93.4662L7.84434 94.9594C7.56105 96.1892 6.71117 97.3311 5.67244 98.0338L2.17851 100.405C1.51749 100.845 0.573187 100.23 0.762048 99.4392L1.13977 97.9459C1.42306 96.7162 2.27293 95.5743 3.31167 94.8716Z" fill="#E31F26"/>
<path d="M2.2729 102.513L5.57797 99.9661C6.23899 99.4391 7.18329 100.054 7.08886 100.845L6.80558 102.338C6.61671 103.655 5.86126 104.797 4.82253 105.588L1.51746 108.135C0.856442 108.662 -0.0878623 108.047 0.00656834 107.257L0.289863 105.763C0.573155 104.446 1.3286 103.304 2.2729 102.513Z" fill="#E31F26"/>
<path d="M1.89518 110.156L5.01139 107.345C5.57797 106.818 6.61671 107.345 6.52228 108.135L6.42785 109.629C6.33342 110.946 5.6724 112.088 4.72809 112.966L1.61189 115.777C1.04531 116.304 0.00656359 115.777 0.100994 114.987L0.28986 113.493C0.28986 112.264 0.950871 111.034 1.89518 110.156Z" fill="#E31F26"/>
<path d="M2.08403 117.885L5.01138 114.899C5.57796 114.372 6.6167 114.811 6.6167 115.601V117.095C6.6167 118.412 6.05011 119.642 5.20024 120.52L2.27289 123.507C1.70631 124.122 0.667572 123.595 0.667572 122.804V121.311C0.667572 119.993 1.13972 118.851 2.08403 117.885Z" fill="#E31F26"/>
<path d="M2.74509 125.527L5.38915 122.365C5.8613 121.75 6.99446 122.101 7.08889 122.892L7.18332 124.385C7.27775 125.703 6.8056 126.932 5.95573 127.899L3.31167 131.061C2.83952 131.676 1.70635 131.324 1.61192 130.534L1.51749 129.041C1.51749 127.811 1.98964 126.493 2.74509 125.527Z" fill="#E31F26"/>
<path d="M4.06709 133.169L6.52228 129.831C6.99443 129.216 8.1276 129.48 8.22203 130.27L8.41089 131.764C8.59975 133.081 8.22203 134.311 7.46659 135.365L5.01139 138.703C4.53924 139.318 3.40607 139.054 3.31164 138.264L3.12278 136.77C3.02835 135.453 3.31164 134.223 4.06709 133.169Z" fill="#E31F26"/>
<path d="M5.95571 140.635L8.12761 137.122C8.50533 136.419 9.73293 136.683 9.82736 137.473L10.1107 138.966C10.3939 140.284 10.1107 141.514 9.44964 142.656L7.27774 146.169C6.90001 146.872 5.67241 146.608 5.57798 145.818L5.29469 144.325C5.0114 143.007 5.29469 141.777 5.95571 140.635Z" fill="#E31F26"/>
<path d="M8.41088 148.014L10.2995 144.412C10.6772 143.71 11.8104 143.885 11.9992 144.676L12.377 146.169C12.7547 147.399 12.5658 148.716 11.9992 149.858L10.1106 153.46C9.73291 154.162 8.59974 153.987 8.31645 153.196L7.93872 151.703C7.65543 150.473 7.74986 149.156 8.41088 148.014Z" fill="#E31F26"/>
<path d="M11.3382 155.216L12.9436 151.527C13.2269 150.825 14.4545 150.912 14.7377 151.615L15.3043 153.021C15.7765 154.25 15.6821 155.568 15.2099 156.71L13.6046 160.399C13.3213 161.102 12.0937 161.014 11.8104 160.311L11.2438 158.906C10.8661 157.676 10.8661 156.358 11.3382 155.216Z" fill="#E31F26"/>
<path d="M14.8322 162.156L16.1542 158.379C16.4375 157.676 17.5706 157.676 17.9484 158.379L18.6094 159.784C19.176 161.014 19.176 162.243 18.7982 163.473L17.4762 167.25C17.1929 167.953 16.0598 167.953 15.682 167.25L15.021 165.845C14.5489 164.703 14.4544 163.385 14.8322 162.156Z" fill="#E31F26"/>
<path d="M18.8927 168.919L19.9314 165.054C20.1203 164.264 21.3479 164.264 21.7256 164.966L22.4811 166.284C23.1421 167.426 23.2365 168.744 22.9532 169.973L21.9145 173.838C21.7256 174.541 20.498 174.629 20.1203 173.926L19.3649 172.608C18.7038 171.379 18.6094 170.149 18.8927 168.919Z" fill="#E31F26"/>
<path d="M23.4254 175.331L24.1808 171.379C24.3697 170.588 25.5028 170.5 25.975 171.115L26.8249 172.433C27.5803 173.575 27.7692 174.804 27.5803 176.034L26.8249 179.987C26.636 180.777 25.5028 180.865 25.0307 180.25L24.1808 178.933C23.4254 177.879 23.1421 176.561 23.4254 175.331Z" fill="#E31F26"/>
<path d="M28.4302 181.48L28.9024 177.527C28.9968 176.737 30.13 176.561 30.6021 177.176L31.5464 178.406C32.3019 179.46 32.6796 180.777 32.5852 182.007L32.113 185.96C32.0186 186.75 30.8854 186.926 30.4132 186.311L29.4689 185.081C28.6191 184.027 28.2413 182.71 28.4302 181.48Z" fill="#E31F26"/>
<path d="M33.8127 187.277L34.0016 183.237C34.0016 182.446 35.1348 182.183 35.7014 182.798L36.7401 183.94C37.59 184.906 38.0621 186.223 38.0621 187.453L37.8733 191.494C37.8733 192.284 36.7401 192.548 36.1735 191.933L35.1348 190.703C34.2849 189.825 33.8127 188.595 33.8127 187.277Z" fill="#E31F26"/>
<path d="M39.6674 192.723L39.4785 188.683C39.4785 187.892 40.5173 187.541 41.1783 188.156L42.3115 189.298C43.2558 190.264 43.8224 191.494 43.8224 192.723L44.0112 196.764C44.0112 197.554 42.9725 197.906 42.3115 197.291L41.1783 196.149C40.3284 195.183 39.7618 193.953 39.6674 192.723Z" fill="#E31F26"/>
<path d="M45.9943 197.818L45.5221 193.865C45.4277 193.075 46.4664 192.636 47.1274 193.163L48.355 194.217C49.3938 195.095 49.9604 196.237 50.1492 197.554L50.6214 201.507C50.7158 202.298 49.6771 202.737 49.0161 202.21L47.7885 201.156C46.7497 200.19 46.0887 199.048 45.9943 197.818Z" fill="#E31F26"/>
<path d="M52.6044 202.386L51.8489 198.433C51.7545 197.642 52.6988 197.115 53.3598 197.642L54.5874 198.609C55.6262 199.399 56.3816 200.541 56.5705 201.771L57.3259 205.724C57.5148 206.514 56.476 206.953 55.815 206.514L54.493 205.548C53.5487 204.757 52.7933 203.615 52.6044 202.386Z" fill="#E31F26"/>
<path d="M59.4978 206.602L58.4591 202.737C58.2702 202.034 59.2145 201.419 59.97 201.859L61.292 202.737C62.4252 203.44 63.2751 204.582 63.5583 205.811L64.5971 209.676C64.7859 210.467 63.8416 210.994 63.0862 210.555L61.7642 209.676C60.631 208.886 59.8756 207.832 59.4978 206.602Z" fill="#E31F26"/>
<path d="M66.769 210.291L65.447 206.514C65.1637 205.811 66.108 205.109 66.8634 205.548L68.2799 206.338C69.5075 207.041 70.3574 208.007 70.7351 209.237L72.0571 213.102C72.3404 213.805 71.3961 214.507 70.6406 214.068L69.2242 213.278C68.091 212.575 67.1467 211.521 66.769 210.291Z" fill="#E31F26"/>
<path d="M74.229 213.541L72.6237 209.852C72.3404 209.149 73.1903 208.446 73.9457 208.798L75.3622 209.5C76.5898 210.115 77.5341 211.082 78.1007 212.223L79.706 215.913C79.9893 216.615 79.1394 217.318 78.384 216.967L76.9675 216.264C75.7399 215.737 74.7956 214.771 74.229 213.541Z" fill="#E31F26"/>
<path d="M81.9723 216.352L80.0837 212.751C79.7059 212.048 80.5558 211.257 81.3113 211.609L82.8222 212.224C84.1442 212.751 85.0885 213.629 85.7495 214.771L87.6381 218.372C88.0158 219.075 87.166 219.865 86.4105 219.514L84.8996 218.899C83.5776 218.372 82.6333 217.494 81.9723 216.352Z" fill="#E31F26"/>
<path d="M89.9045 218.548L87.7326 215.034C87.3549 214.332 88.1103 213.541 88.8657 213.805L90.3766 214.332C91.6987 214.771 92.8318 215.561 93.4929 216.703L95.6647 220.217C96.0425 220.92 95.287 221.71 94.5316 221.447L93.0207 220.92C91.6987 220.48 90.5655 219.69 89.9045 218.548Z" fill="#E31F26"/>
<path d="M98.0255 220.305L95.5703 216.967C95.0982 216.352 95.8536 215.474 96.6091 215.649L98.2144 216.088C99.5364 216.44 100.67 217.143 101.519 218.197L103.975 221.534C104.447 222.149 103.691 223.028 102.936 222.852L101.331 222.413C99.9141 222.061 98.781 221.359 98.0255 220.305Z" fill="#E31F26"/>
<path d="M106.147 221.447L103.502 218.284C103.03 217.67 103.691 216.791 104.447 216.879L106.052 217.143C107.469 217.406 108.602 218.109 109.452 219.075L112.096 222.237C112.568 222.852 111.907 223.73 111.151 223.643L109.546 223.379C108.224 223.116 106.996 222.501 106.147 221.447Z" fill="#E31F26"/>
<path d="M114.456 222.149L111.529 219.163C110.963 218.548 111.529 217.669 112.379 217.757L113.984 217.933C115.401 218.109 116.628 218.724 117.573 219.602L120.5 222.588C121.067 223.203 120.5 224.082 119.65 223.994L118.045 223.818C116.534 223.642 115.306 223.115 114.456 222.149Z" fill="#E31F26"/>
<path d="M122.672 222.237L119.556 219.426C118.989 218.899 119.461 217.933 120.311 217.933L121.916 218.021C123.333 218.109 124.561 218.636 125.599 219.514L128.715 222.325C129.282 222.852 128.81 223.818 127.96 223.818L126.355 223.73C124.938 223.642 123.711 223.115 122.672 222.237Z" fill="#E31F26"/>
<path d="M130.982 221.886L127.677 219.338C127.016 218.811 127.488 217.845 128.338 217.845H129.943C131.36 217.845 132.682 218.284 133.72 219.075L137.025 221.622C137.686 222.149 137.214 223.116 136.364 223.116H134.759C133.343 223.116 132.021 222.676 130.982 221.886Z" fill="#E31F26"/>
<path d="M139.197 220.92L135.703 218.548C135.042 218.109 135.42 217.055 136.27 216.967L137.875 216.879C139.292 216.791 140.614 217.143 141.747 217.845L145.241 220.217C145.902 220.656 145.524 221.71 144.674 221.798L143.069 221.974C141.652 221.974 140.236 221.622 139.197 220.92Z" fill="#E31F26"/>
<path d="M147.318 219.426L143.636 217.318C142.975 216.879 143.163 215.825 144.013 215.737L145.619 215.474C147.035 215.298 148.357 215.561 149.49 216.176L153.173 218.284C153.834 218.724 153.551 219.778 152.795 219.866L151.19 220.129C149.868 220.393 148.451 220.129 147.318 219.426Z" fill="#E31F26"/>
<path d="M155.345 217.406L151.568 215.561C150.812 215.21 151.001 214.156 151.851 213.98L153.456 213.629C154.873 213.365 156.195 213.541 157.422 214.068L161.2 215.913C161.955 216.264 161.766 217.318 160.916 217.494L159.311 217.845C157.895 218.197 156.478 218.021 155.345 217.406Z" fill="#E31F26"/>
<path d="M163.088 214.946L159.122 213.278C158.367 212.926 158.461 211.872 159.311 211.609L160.916 211.169C162.238 210.818 163.655 210.906 164.882 211.345L168.849 213.014C169.604 213.365 169.51 214.419 168.66 214.683L167.054 215.122C165.732 215.474 164.316 215.474 163.088 214.946Z" fill="#E31F26"/>
<path d="M170.737 211.872L166.677 210.467C165.921 210.203 165.921 209.149 166.677 208.798L168.187 208.271C169.509 207.832 170.926 207.832 172.154 208.271L176.214 209.676C176.969 209.94 176.969 210.994 176.12 211.345L174.609 211.872C173.381 212.311 172.059 212.311 170.737 211.872Z" fill="#E31F26"/>
<path d="M178.103 208.447L173.948 207.305C173.192 207.129 173.098 205.987 173.853 205.636L175.364 205.021C176.592 204.494 178.008 204.406 179.33 204.67L183.485 205.811C184.241 205.987 184.335 207.129 183.58 207.48L182.069 208.095C180.841 208.622 179.425 208.71 178.103 208.447Z" fill="#E31F26"/>
<path d="M185.185 204.406L180.936 203.615C180.086 203.44 179.991 202.386 180.747 201.946L182.163 201.244C183.391 200.629 184.807 200.453 186.129 200.717L190.379 201.507C191.229 201.683 191.323 202.737 190.568 203.176L189.151 203.879C187.923 204.494 186.507 204.669 185.185 204.406Z" fill="#E31F26"/>
<path d="M191.984 200.014L187.735 199.487C186.885 199.399 186.696 198.345 187.451 197.906L188.868 197.115C190.001 196.413 191.417 196.149 192.739 196.325L196.989 196.852C197.839 196.94 198.028 197.994 197.272 198.433L195.856 199.223C194.722 199.926 193.306 200.19 191.984 200.014Z" fill="#E31F26"/>
<path d="M198.405 195.183L194.061 194.919C193.212 194.832 192.928 193.778 193.589 193.338L194.911 192.46C196.044 191.669 197.366 191.318 198.689 191.406L203.032 191.669C203.882 191.757 204.166 192.811 203.504 193.25L202.182 194.129C201.144 194.832 199.727 195.271 198.405 195.183Z" fill="#E31F26"/>
<path fill-rule="evenodd" clip-rule="evenodd" d="M110.302 23.5467L116.628 19.3305L114.173 12.4791L120.406 16.6953L126.732 12.3912L124.372 19.2426L130.699 23.5467H122.955L120.5 30.3981L118.139 23.5467H110.302Z" fill="#E31F26"/>
<path fill-rule="evenodd" clip-rule="evenodd" d="M74.7012 33.9118L78.8561 27.7631L73.7569 22.3171L81.2169 23.986L85.3718 17.7495L85.9384 24.9523L93.4929 26.6212L86.3161 29.432L86.9772 36.6348L81.9723 31.1009L74.7012 33.9118Z" fill="#E31F26"/>
<path fill-rule="evenodd" clip-rule="evenodd" d="M46.0887 56.1349L47.3163 49.02L40.3284 45.7699L48.0717 44.628L49.2049 37.4253L52.6988 43.9253L60.4421 42.7834L54.9652 47.8781L58.5535 54.2903L51.6601 51.0402L46.0887 56.1349Z" fill="#E31F26"/>
<path fill-rule="evenodd" clip-rule="evenodd" d="M28.8079 86.8782L27.0137 79.8512L19.176 79.3241L25.8806 75.5471L23.992 68.52L29.8466 73.2633L36.5512 69.3984L33.5294 76.0741L39.4786 80.8174L31.7353 80.2025L28.8079 86.8782Z" fill="#E31F26"/>
<path fill-rule="evenodd" clip-rule="evenodd" d="M25.4084 121.487L20.8758 115.601L13.5102 117.885L18.0428 112.088L13.4157 106.203L20.8758 108.399L25.4084 102.513V109.716L32.8684 112L25.4084 114.196V121.487Z" fill="#E31F26"/>
<path fill-rule="evenodd" clip-rule="evenodd" d="M36.5512 154.602L29.9411 150.737L24.0864 155.48L25.8806 148.541L19.176 144.676L26.9193 144.149L28.7135 137.122L31.7353 143.798L39.4786 143.183L33.5294 147.838L36.5512 154.602Z" fill="#E31F26"/>
<path fill-rule="evenodd" clip-rule="evenodd" d="M60.4421 181.217L52.7933 180.075L49.2993 186.575L48.0717 179.372L40.4229 178.318L47.3163 175.068L46.0887 167.865L51.5657 172.96L58.4591 169.622L54.9652 176.034L60.4421 181.217Z" fill="#E31F26"/>
<path fill-rule="evenodd" clip-rule="evenodd" d="M93.4929 197.291L85.9384 198.96L85.3718 206.163L81.3113 200.014L73.7569 201.771L78.8561 196.325L74.7012 190.088L81.8779 192.899L86.9772 187.365L86.3161 194.568L93.4929 197.291Z" fill="#E31F26"/>
<path fill-rule="evenodd" clip-rule="evenodd" d="M130.699 200.365L124.372 204.582L126.827 211.521L120.594 207.305L114.268 211.521L116.628 204.67L110.302 200.453H118.045L120.5 193.514L122.861 200.453L130.699 200.365Z" fill="#E31F26"/>
<path fill-rule="evenodd" clip-rule="evenodd" d="M166.299 190.088L162.144 196.149L167.243 201.683L159.783 200.014L155.628 206.25L155.062 199.048L147.507 197.291L154.684 194.568L154.023 187.365L159.028 192.811L166.299 190.088Z" fill="#E31F26"/>
<path fill-rule="evenodd" clip-rule="evenodd" d="M194.911 167.777L193.684 174.98L200.672 178.23L192.928 179.372L191.795 186.487L188.301 180.075L180.558 181.217L186.035 176.122L182.446 169.71L189.34 172.96L194.911 167.777Z" fill="#E31F26"/>
<path fill-rule="evenodd" clip-rule="evenodd" d="M212.192 137.122L213.986 144.149L221.824 144.676L215.119 148.365L217.008 155.48L211.153 150.737L204.449 154.602L207.471 147.926L201.521 143.183L209.265 143.798L212.192 137.122Z" fill="#E31F26"/>
<path fill-rule="evenodd" clip-rule="evenodd" d="M215.592 102.513L220.124 108.399L227.49 106.115L222.957 111.912L227.584 117.797L220.124 115.601L215.592 121.487V114.284L208.132 112L215.592 109.804V102.513Z" fill="#E31F26"/>
<path fill-rule="evenodd" clip-rule="evenodd" d="M204.449 69.3985L211.059 73.1755L216.914 68.4323L215.119 75.4593L221.824 79.2364L214.081 79.8512L212.287 86.8783L209.265 80.2026L201.521 80.8175L207.471 76.162L204.449 69.3985Z" fill="#E31F26"/>
<path fill-rule="evenodd" clip-rule="evenodd" d="M180.558 42.7834L188.207 43.9253L191.701 37.4253L192.928 44.628L200.577 45.6821L193.684 48.9321L194.911 56.1349L189.434 51.0402L182.541 54.3781L186.035 47.8781L180.558 42.7834Z" fill="#E31F26"/>
<path fill-rule="evenodd" clip-rule="evenodd" d="M147.507 26.709L155.062 25.0401L155.628 17.7495L159.689 23.986L167.243 22.2293L162.144 27.6752L166.299 33.9118L159.122 31.1009L154.023 36.6348L154.684 29.432L147.507 26.709Z" fill="#E31F26"/>
<path d="M120.5 56.574C87.6382 56.574 60.9143 81.4322 60.9143 112C60.9143 142.568 87.6382 167.426 120.5 167.426C153.362 167.426 180.086 142.568 180.086 112C180.086 81.4322 153.362 56.574 120.5 56.574ZM120.5 169.095C86.6939 169.095 59.1201 143.534 59.1201 112C59.1201 80.5538 86.5994 54.905 120.5 54.905C154.306 54.905 181.88 80.466 181.88 112C181.88 143.446 154.306 169.095 120.5 169.095Z" fill="#E31F26"/>
<path d="M120.5 36.8982C75.9288 36.8982 39.7618 70.6282 39.7618 112C39.7618 153.46 76.0232 187.102 120.5 187.102C165.071 187.102 201.238 153.372 201.238 112C201.238 70.5403 165.071 36.8982 120.5 36.8982ZM120.5 188.859C74.9845 188.859 37.8732 154.426 37.8732 112C37.8732 69.6619 74.89 35.1415 120.5 35.1415C166.016 35.1415 203.127 69.6619 203.127 112C203.127 154.338 166.016 188.859 120.5 188.859Z" fill="#E31F26"/>
<path d="M82.35 170.676L84.7108 171.994L83.672 173.487L77.1563 169.71L78.1006 168.217L80.4614 169.534L84.7108 163.21L86.6938 164.264L82.35 170.676Z" fill="#E31F26"/>
<path d="M71.2073 167.338C70.8295 167.777 70.1685 167.777 69.7908 167.426C69.4131 167.075 69.3186 166.548 69.6964 166.108C70.0741 165.757 70.6407 165.669 71.1128 166.021C71.585 166.372 71.585 166.987 71.2073 167.338ZM71.7738 165.845L75.6455 161.804C76.7787 160.575 76.8731 159.608 76.0232 158.906C75.1733 158.203 74.1346 158.379 72.907 159.608L69.0353 163.649L67.3356 162.244L71.0184 158.291C73.0959 156.095 75.1733 156.095 77.1564 157.676C79.045 159.257 79.2339 161.102 77.1564 163.385L73.4736 167.25L71.7738 165.845ZM68.9409 165.406C68.5632 165.845 67.9022 165.845 67.5245 165.494C67.1467 165.142 67.0523 164.527 67.43 164.176C67.8078 163.825 68.3743 163.737 68.8465 164.088C69.3186 164.44 69.3186 165.054 68.9409 165.406Z" fill="#E31F26"/>
<path d="M65.8247 154.338L65.2581 153.723C64.5971 152.933 63.6528 152.757 62.9918 153.284C62.2363 153.811 62.3308 154.514 62.8973 155.304C63.2751 155.744 63.4639 155.919 63.5584 156.007L65.8247 154.338ZM63.8416 158.467C63.2751 158.027 62.5196 157.237 61.7642 156.358C60.8199 155.304 60.3477 154.426 60.3477 153.548C60.3477 152.845 60.7254 152.23 61.3865 151.615C62.4252 150.913 63.6528 151 64.4082 151.44C64.2194 150.737 64.5027 150.122 65.0692 149.331C65.7303 148.453 66.5801 147.487 66.769 147.048L68.1855 148.717C68.091 148.98 67.6189 149.683 66.769 150.561C65.9191 151.527 65.9191 151.967 66.4857 152.669L66.9579 153.196L70.0741 150.913L71.4905 152.581L63.8416 158.467Z" fill="#E31F26"/>
<path d="M56.4761 149.507L55.3429 147.662L59.2146 145.642C58.7424 145.642 58.3647 145.642 57.8925 145.554L53.832 145.203L52.51 142.919L57.8925 143.622L61.1976 138.176L62.5196 140.284L59.97 144.237L61.292 144.412L64.1249 142.919L65.2581 144.764L56.4761 149.507Z" fill="#E31F26"/>
<path d="M50.0548 137.473L59.309 133.96L60.1589 135.892L50.9047 139.406L50.0548 137.473ZM49.3938 139.845C48.8272 140.02 48.2606 139.845 48.0717 139.318C47.8829 138.791 48.0717 138.264 48.6383 138.088C49.1105 137.912 49.7715 138.088 49.9603 138.615C50.1492 139.142 49.8659 139.669 49.3938 139.845Z" fill="#E31F26"/>
<path d="M57.4204 128.689L53.4543 129.656L48.5439 133.96L47.8829 131.676L49.9604 130.183C50.6214 129.743 51.0935 129.392 51.6601 129.041C50.9991 128.953 50.3381 128.953 49.5827 128.777L47.033 128.426L46.372 126.142L52.8877 127.723L56.9482 126.757L57.4204 128.689Z" fill="#E31F26"/>
<path d="M50.8102 116.041L51.188 119.466L53.5487 119.203L53.0766 115.426L54.9652 115.25L55.6262 121.135L45.6165 122.101L44.9555 116.392L46.8441 116.216L47.2219 119.818L49.2993 119.642L48.9216 116.216L50.8102 116.041Z" fill="#E31F26"/>
<path d="M55.6262 101.371C55.815 101.811 55.9094 102.689 55.7206 103.831C55.3429 106.993 52.9821 108.399 50.1492 108.135C46.7497 107.784 45.1444 105.324 45.5221 102.513C45.6165 101.459 45.9942 100.669 46.2775 100.317L47.9773 100.932C47.694 101.371 47.5051 101.898 47.4107 102.689C47.2218 104.358 48.0717 105.763 50.338 106.027C52.3211 106.29 53.7375 105.324 53.9264 103.392C54.0208 102.777 53.9264 102.074 53.832 101.635L55.6262 101.371Z" fill="#E31F26"/>
<path d="M47.5052 93.9932L53.0766 95.4864C54.7764 95.9256 55.7207 95.5743 56.0984 94.5202C56.4761 93.4661 55.8151 92.6756 54.1153 92.1485L48.5439 90.6553L49.2049 88.635L54.5875 90.1283C57.5148 90.9188 58.5536 92.6756 57.7981 95.0472C57.0427 97.331 55.3429 98.2972 52.2267 97.4188L46.8442 95.9256L47.5052 93.9932Z" fill="#E31F26"/>
<path d="M60.4422 79.5877C59.309 79.0607 58.0814 78.5336 56.7594 77.9188C57.7037 78.7093 58.8368 79.6755 59.6867 80.5539L62.614 83.2769L61.7642 84.7701L57.7981 83.9796C56.5705 83.7161 55.154 83.3647 53.9264 83.0134C55.0596 83.6282 56.4761 84.331 57.5148 84.9458L60.8199 86.7026L59.8756 88.4594L51.2824 83.6282L52.6988 81.1688L56.0983 81.7836C57.2315 82.0472 58.5535 82.3107 59.6867 82.662C58.7424 81.9593 57.7981 81.0809 56.9482 80.2904L54.493 78.0066L55.9095 75.5471L65.0693 79.412L64.0305 81.2566L60.4422 79.5877Z" fill="#E31F26"/>
<path d="M60.631 69.3105L63.5584 71.5065L65.9191 68.8713L62.9918 66.5875L64.4083 64.9186L72.1516 70.8037L70.7351 72.4727L67.5245 70.0132L65.1637 72.6484L68.3743 75.1957L66.9579 76.7768L59.2146 70.8916L60.631 69.3105Z" fill="#E31F26"/>
<path d="M69.8852 59.9998L73.6624 64.0403C74.7956 65.2701 75.8343 65.4457 76.7786 64.743C77.7229 64.0403 77.6285 63.0741 76.4954 61.7565L72.7181 57.716L74.4179 56.3105L78.1007 60.2633C80.0837 62.4592 79.8949 64.3917 77.9118 66.0606C76.0232 67.5539 73.9457 67.466 71.8682 65.2701L68.1855 61.3173L69.8852 59.9998Z" fill="#E31F26"/>
<path d="M82.9167 56.047L83.6721 55.6078C84.6164 55.0807 84.8997 54.2902 84.522 53.5875C84.0498 52.8848 83.2944 52.7969 82.3501 53.2361C81.8779 53.4996 81.5946 53.6753 81.5002 53.7632L82.9167 56.047ZM78.7617 53.6753C79.3283 53.2361 80.1782 52.6213 81.2169 52.0942C82.5389 51.3915 83.4832 51.0402 84.4276 51.128C85.183 51.2158 85.844 51.655 86.3162 52.3577C86.9772 53.4118 86.5995 54.5537 86.0329 55.1686C86.7883 55.0807 87.4493 55.4321 88.1103 56.047C88.9602 56.8375 89.9045 57.7159 90.2822 57.8916L88.2992 59.0335C88.0159 58.8578 87.3549 58.3308 86.505 57.5402C85.6551 56.6618 85.0886 56.574 84.3331 57.0132L83.7665 57.3645L85.7496 60.5267L83.861 61.5808L78.7617 53.6753Z" fill="#E31F26"/>
<path d="M91.2265 47.4388L95.287 55.9591L93.2096 56.8375L89.149 48.3172L91.2265 47.4388ZM88.5824 46.8239C88.3936 46.2969 88.5825 45.7699 89.149 45.5942C89.6212 45.4185 90.2822 45.5942 90.4711 46.1212C90.6599 46.5604 90.4711 47.1753 89.9989 47.351C89.4323 47.5266 88.7713 47.351 88.5824 46.8239Z" fill="#E31F26"/>
<path d="M100.858 54.0268L99.7253 50.3375L95.0038 45.8578L97.459 45.1551L99.1587 46.9997C99.6309 47.5267 100.009 47.9659 100.481 48.4929C100.481 47.8781 100.575 47.2632 100.67 46.5605L100.953 44.101L103.408 43.3983L101.897 49.4592L103.03 53.1484L100.858 54.0268Z" fill="#E31F26"/>
<path d="M114.268 47.5266L110.679 47.9658L110.962 50.1617L115.023 49.6347L115.306 51.3915L108.979 52.182L107.657 42.8712L113.795 42.1685L113.984 43.8374L110.113 44.3644L110.396 46.2969L114.079 45.8577L114.268 47.5266Z" fill="#E31F26"/>
<path d="M120.594 43.7498L117.856 43.6619L117.95 41.9052L125.599 41.993V43.8376L122.861 43.7498L122.672 51.3039H120.406L120.594 43.7498Z" fill="#E31F26"/>
<path d="M130.037 41.0265C130.132 40.4995 130.604 40.1481 131.171 40.236C131.737 40.3238 132.115 40.763 132.021 41.29C131.926 41.8171 131.454 42.1684 130.887 42.0806C130.415 41.9928 130.037 41.5536 130.037 41.0265ZM132.021 42.7833L130.604 52.0063L128.338 51.7428L129.754 42.5198L132.021 42.7833Z" fill="#E31F26"/>
<path d="M139.292 51.5672C139.764 52.0064 140.519 52.5335 141.464 52.8848C142.408 53.1483 143.069 52.9727 143.352 52.3578C143.541 51.8308 143.258 51.3916 142.219 50.601C140.803 49.6348 140.047 48.4929 140.519 47.1753C141.086 45.6821 142.88 44.9794 145.052 45.5942C146.091 45.9456 146.846 46.3848 147.318 46.824L146.28 48.3172C145.996 48.0537 145.335 47.5267 144.485 47.2632C143.541 46.9997 142.974 47.2632 142.786 47.7024C142.597 48.2294 143.069 48.6686 144.108 49.4591C145.618 50.601 146.091 51.6551 145.619 52.8848C145.052 54.3781 143.447 55.2565 140.803 54.4659C139.764 54.1146 138.725 53.4997 138.347 53.0605L139.292 51.5672Z" fill="#E31F26"/>
<path d="M153.74 55.1685L154.212 53.1482C154.306 52.6212 154.495 51.9185 154.684 51.3036C154.306 51.7428 153.834 52.2698 153.362 52.709L151.851 54.2023L153.74 55.1685ZM150.623 55.432L148.829 57.2766L146.752 56.2226L154.117 49.2833L156.761 50.6009L154.873 60.1753L152.701 59.1212L153.173 56.6617L150.623 55.432Z" fill="#E31F26"/>
<path d="M167.621 54.4658C167.432 54.7294 167.432 55.1685 167.904 55.4321C168.376 55.7834 168.754 55.6956 169.037 55.4321L169.982 56.0469C169.321 56.8375 168.282 57.0132 167.149 56.2226C166.016 55.3442 166.016 54.4658 166.677 53.6753L167.621 54.4658ZM163.938 65.9727C163.277 65.7091 161.955 65.27 160.916 64.4794C159.5 63.4254 158.744 62.3713 158.556 61.1416C158.367 59.9997 158.744 58.7699 159.689 57.628C161.766 55.1685 164.788 55.1685 167.432 57.0132C168.471 57.7159 169.132 58.5064 169.321 58.9456L167.81 59.9997C167.526 59.4726 167.054 58.9456 166.204 58.3307C164.694 57.2767 162.899 57.2767 161.577 58.8578C160.35 60.351 160.633 62.0199 162.049 63.074C162.427 63.3375 162.805 63.601 162.994 63.601L164.316 62.0199L163.088 61.1416L164.127 59.824L167.054 61.9321L163.938 65.9727Z" fill="#E31F26"/>
<path d="M173.476 62.1957L174.986 63.6889L169.037 68.8714L171.776 71.5944L170.454 72.8241L166.11 68.52L173.476 62.1957Z" fill="#E31F26"/>
<path d="M180.216 69.5008L172.178 75.0492L173.529 76.742L181.567 71.1937L180.216 69.5008Z" fill="#E31F26"/>
<path d="M184.43 75.0201L185.563 76.8648L181.691 78.885C182.163 78.885 182.541 78.885 183.013 78.9729L187.074 79.3242L188.396 81.608L183.013 80.8175L179.708 86.2635L178.386 84.1553L180.936 80.2026L179.614 79.9391L176.781 81.4323L175.648 79.5877L184.43 75.0201Z" fill="#E31F26"/>
<path d="M188.773 92.6755L188.962 93.3782C189.245 94.4322 189.906 94.8714 190.662 94.6957C191.417 94.5201 191.606 93.9052 191.323 92.939C191.229 92.4998 191.04 92.2363 191.04 92.0606L188.773 92.6755ZM184.43 93.8174C184.43 93.993 184.524 94.2566 184.618 94.6079C184.902 95.4863 185.563 96.2768 186.507 95.9255C187.451 95.662 187.64 94.7836 187.262 93.7295L187.074 93.0268L184.43 93.8174ZM191.795 89.689C192.078 90.216 192.456 91.27 192.834 92.2363C193.212 93.466 193.306 94.2566 193.117 95.0471C192.928 95.7498 192.456 96.3647 191.606 96.6282C190.756 96.8917 189.812 96.6282 189.057 95.662C189.057 96.8039 188.49 97.7701 187.262 98.1214C186.413 98.385 185.563 98.2093 184.902 97.7701C184.146 97.2431 183.485 96.2768 182.919 94.5201C182.635 93.5539 182.446 92.7633 182.352 92.3241L191.795 89.689Z" fill="#E31F26"/>
<path d="M189.718 105.676L191.795 104.885C192.362 104.622 193.117 104.446 193.684 104.182C193.117 104.095 192.267 104.007 191.701 103.919L189.529 103.568L189.718 105.676ZM187.735 103.48L185.091 103.128L184.807 100.932L195.1 102.689L195.478 105.412L185.846 109.365L185.563 107.081L188.018 106.115L187.735 103.48Z" fill="#E31F26"/>
<path d="M195.856 112.527L195.761 114.635L191.323 114.372C191.701 114.635 192.078 114.811 192.362 115.074L195.572 117.358L195.383 119.906L191.323 116.568L185.374 119.554L185.563 117.095L190.001 115.074L188.962 114.196L185.657 114.02L185.752 111.912L195.856 112.527Z" fill="#E31F26"/>
<path d="M188.018 127.723L190.19 127.635C190.851 127.635 191.606 127.635 192.173 127.547C191.606 127.284 190.945 127.02 190.379 126.757L188.396 125.791L188.018 127.723ZM186.979 125L184.618 123.77L185.185 121.662L194.25 126.581L193.589 129.304L183.107 130.007L183.674 127.811L186.318 127.635L186.979 125Z" fill="#E31F26"/>
<path d="M182.163 132.554L191.417 136.243L190.379 138.527L186.224 138.966C184.996 139.054 183.674 139.142 182.446 139.142C183.769 139.493 184.996 139.933 186.413 140.547L189.151 141.602L188.301 143.358L179.047 139.669L179.991 137.649L184.43 137.21C185.657 137.122 187.074 137.034 188.396 137.034V136.946C187.168 136.507 185.846 136.068 184.335 135.453L181.597 134.311L182.163 132.554Z" fill="#E31F26"/>
<path d="M185.563 147.575L184.335 149.419L177.442 145.379L175.27 148.453L173.664 147.487L177.064 142.568L185.563 147.575Z" fill="#E31F26"/>
<path d="M171.847 149.72L170.417 151.356L178.181 157.232L179.611 155.597L171.847 149.72Z" fill="#E31F26"/>
<path d="M173.853 164.791C173.57 164.615 173.192 164.527 172.72 164.879C172.248 165.23 172.342 165.669 172.531 165.933L171.681 166.635C170.926 165.845 170.926 164.967 171.965 164C173.003 163.034 174.042 163.21 174.798 163.912L173.853 164.791ZM162.238 159.521C162.616 158.906 163.372 157.852 164.316 156.973C165.638 155.831 166.96 155.304 168.187 155.304C169.415 155.304 170.737 155.831 171.681 156.885C173.948 159.169 173.476 161.98 171.115 164.088C170.171 164.879 169.226 165.406 168.754 165.494L167.904 164C168.471 163.825 169.132 163.473 169.887 162.858C171.304 161.629 171.587 160.048 170.076 158.554C168.66 157.149 166.865 157.149 165.543 158.291C165.166 158.642 164.882 158.906 164.788 159.081L166.204 160.487L167.338 159.521L168.565 160.75L165.827 163.122L162.238 159.521Z" fill="#E31F26"/>
<path d="M159.067 161.21L157.214 162.424L162.978 170.036L164.831 168.822L159.067 161.21Z" fill="#E31F26"/>
<path d="M120.5 175.331C118.895 175.331 117.573 176.561 117.573 178.054C117.573 179.548 118.895 180.777 120.5 180.777C122.105 180.777 123.427 179.548 123.427 178.054C123.427 176.561 122.105 175.331 120.5 175.331Z" fill="#E31F26"/>
<path fill-rule="evenodd" clip-rule="evenodd" d="M109.546 81.6079C109.546 77.8309 111.718 74.5809 114.929 72.8241C113.04 74.3173 111.812 76.5133 111.812 79.0606C111.812 83.5404 115.684 87.1417 120.5 87.1417C125.316 87.1417 129.188 83.5404 129.188 79.0606C129.188 76.5133 127.96 74.3173 126.071 72.8241C129.282 74.5809 131.454 77.8309 131.454 81.6079C131.454 87.2296 126.544 91.7972 120.5 91.7972C114.456 91.7972 109.546 87.2296 109.546 81.6079Z" fill="#E31F26"/>
<path fill-rule="evenodd" clip-rule="evenodd" d="M115.401 69.5741L118.517 67.3782L117.289 63.8646L120.5 66.0606L123.711 63.8646L122.483 67.3782L125.694 69.4863H121.728L120.595 72.9998L119.272 69.5741H115.401Z" fill="#E31F26"/>
<path fill-rule="evenodd" clip-rule="evenodd" d="M142.313 96.6283H136.553C135.326 97.1553 133.909 96.804 132.398 97.858C130.51 99.0878 131.171 100.054 131.171 101.811C131.076 104.622 127.205 105.939 124.749 106.203C125.316 107.784 126.921 108.486 128.715 108.486C130.793 108.486 131.643 107.696 133.154 106.73C135.042 108.662 139.953 122.277 145.713 118.939C144.58 116.831 141.747 114.108 140.236 112.176C139.197 110.858 135.231 106.73 134.759 105.412C137.498 107.169 140.047 110.682 142.408 112.966C144.485 114.987 149.49 119.466 152.418 115.689L136.364 104.27C136.27 104.182 136.175 104.095 136.081 104.007C135.892 103.831 135.987 103.919 135.892 103.743C139.103 104.007 147.318 112 153.74 113.845C155.062 114.196 156.572 114.372 157.895 113.845C158.933 113.493 160.066 112.615 160.444 111.736C158.178 110.419 143.636 105.324 138.159 102.513L136.742 101.723C142.408 101.723 166.96 116.392 168.093 107.081C164.788 106.466 156.384 104.358 152.512 103.48C150.057 102.953 138.914 100.493 137.309 99.7026C142.88 98.9999 156.573 104.446 166.582 104.358C169.321 104.358 173.476 103.128 173.759 100.142C165.26 99.6148 158.744 98.6486 150.435 97.5945C148.924 97.331 142.88 96.8918 142.313 96.6283Z" fill="#E31F26"/>
<path fill-rule="evenodd" clip-rule="evenodd" d="M67.5245 100.054V100.318C68.3744 101.547 68.3743 102.338 70.0741 103.216C78.384 107.169 95.5704 98.9121 103.975 99.6148C102.464 100.669 77.3453 106.027 73.1903 106.993C73.3792 110.331 77.9118 110.243 80.5559 109.804C83.2944 109.277 86.2217 108.223 88.7714 107.257C91.8876 106.027 101.803 101.547 104.541 101.723C101.803 103.831 82.0668 110.682 80.7448 111.824C82.7278 114.108 84.2387 114.723 87.5438 113.757C93.6817 112 101.708 104.095 105.297 103.655C104.258 104.797 98.6866 108.75 97.1757 109.804L88.5825 115.689C93.8706 121.926 102.842 106.818 106.241 105.5C105.202 107.784 96.0425 116.743 95.2871 118.939C99.442 121.662 103.88 113.493 105.391 110.77C105.958 109.628 106.902 107.608 107.752 106.73C109.074 107.784 110.302 108.486 112.096 108.486C113.795 108.486 115.779 107.784 116.156 106.203C113.607 106.027 109.641 104.534 109.735 101.635C109.829 99.9662 110.302 99.0878 108.507 97.858C106.902 96.7161 105.391 97.1553 104.069 96.6283H98.5921C98.0255 96.804 91.8876 97.331 90.66 97.5067C88.1103 97.858 85.5607 98.2094 83.1055 98.5607C78.2896 99.2634 72.5293 100.054 67.5245 100.054Z" fill="#E31F26"/>
<path fill-rule="evenodd" clip-rule="evenodd" d="M118.895 105.324L119.272 122.892L121.822 123.682L122.2 105.412C127.771 102.074 124.088 97.3309 120.594 97.3309C118.423 97.3309 116.628 98.7363 116.156 100.669C115.59 103.304 117.1 104.094 118.895 105.324Z" fill="#E31F26"/>
<path fill-rule="evenodd" clip-rule="evenodd" d="M114.551 130.71C115.023 129.216 117.101 129.129 118.517 128.777L112.851 127.108C108.224 129.743 110.113 133.433 114.173 135.277C115.495 135.892 118.234 136.683 119.839 137.122C128.243 139.669 123.239 140.723 122.2 141.25C124.183 141.689 125.033 142.041 126.544 143.271C128.243 142.216 128.999 140.372 128.338 138.527C126.355 133.345 115.873 133.52 114.551 130.71Z" fill="#E31F26"/>
<path fill-rule="evenodd" clip-rule="evenodd" d="M124.372 148.365C125.694 147.575 126.638 145.73 126.071 144.237C125.033 141.338 119.556 141.865 117.195 140.548C114.929 139.23 118.328 138.176 119.084 137.561L114.456 136.068C112.19 137.912 111.624 141.075 114.268 142.919C116.534 144.412 120.594 144.149 122.389 145.379C122.389 146.257 121.916 146.169 121.444 146.608C122.294 147.223 123.333 147.662 124.372 148.365Z" fill="#E31F26"/>
<path fill-rule="evenodd" clip-rule="evenodd" d="M122.105 155.831C123.994 154.689 125.788 151.264 124.183 149.243C122.483 147.048 117.384 146.696 118.895 145.027L114.929 144.237C114.173 147.223 116.062 148.541 118.611 149.683C122.861 151.439 122.105 152.318 120.878 154.865C121.35 155.216 121.633 155.568 122.105 155.831Z" fill="#E31F26"/>
<path fill-rule="evenodd" clip-rule="evenodd" d="M122.955 157.413C122.2 156.446 117.667 154.163 119.556 151L116.628 149.507C114.834 152.845 119.367 157.413 122.955 157.413Z" fill="#E31F26"/>
<path fill-rule="evenodd" clip-rule="evenodd" d="M119.367 132.291L121.539 133.081L121.728 129.392L119.367 128.865V132.291Z" fill="#E31F26"/>
<path fill-rule="evenodd" clip-rule="evenodd" d="M119.933 157.237C119.745 158.554 119.933 163.825 120.5 164.879C121.161 163.298 121.161 159.608 121.067 157.764L119.933 157.237Z" fill="#E31F26"/>
<path fill-rule="evenodd" clip-rule="evenodd" d="M119.65 140.811L121.444 141.162L121.539 138.352L119.556 137.825L119.65 140.811Z" fill="#E31F26"/>
<path fill-rule="evenodd" clip-rule="evenodd" d="M120.5 153.987C121.35 152.933 121.35 151.615 119.933 151.176C119.745 152.054 119.65 153.46 120.5 153.987Z" fill="#E31F26"/>
<path fill-rule="evenodd" clip-rule="evenodd" d="M120.783 146.169C121.35 145.906 121.255 146.081 121.35 145.466L119.65 145.203C119.65 145.906 120.028 146.081 120.783 146.169Z" fill="#E31F26"/>
<path fill-rule="evenodd" clip-rule="evenodd" d="M118.045 157.325C118.517 157.5 119.178 157.325 119.745 157.061L118.989 156.622L118.045 157.325Z" fill="#E31F26"/>
<path fill-rule="evenodd" clip-rule="evenodd" d="M114.362 111.473C114.645 111.473 114.834 111.649 114.834 111.912C114.834 112.176 114.645 112.351 114.362 112.351C114.079 112.351 113.89 112.176 113.89 111.912C113.89 111.649 114.079 111.473 114.362 111.473ZM128.621 127.196C123.333 124.034 110.49 122.804 109.735 117.358C109.263 114.196 111.907 114.899 114.173 114.811C122.766 114.635 114.834 109.892 113.04 109.541C110.963 109.101 109.263 110.331 107.941 111.561C104.919 114.372 104.447 117.973 106.996 121.311C110.396 125.791 116.534 126.933 121.633 128.338C122.955 128.689 126.26 129.304 126.827 130.446C126.166 132.115 123.427 132.203 122.011 132.993L127.11 134.926C128.243 135.189 134.192 130.534 128.621 127.196Z" fill="#E31F26"/>
<path fill-rule="evenodd" clip-rule="evenodd" d="M126.355 112.352C126.071 112.352 125.883 112.176 125.883 111.912C125.883 111.649 126.071 111.473 126.355 111.473C126.638 111.473 126.827 111.649 126.827 111.912C126.827 112.176 126.638 112.352 126.355 112.352ZM130.51 109.892C128.621 109.277 127.393 109.716 125.788 110.683C124.655 111.385 122.766 112.527 123.144 114.02C125.883 116.041 130.51 113.669 131.265 115.953C132.776 120.608 123.899 122.892 122.577 123.77C123.427 124.21 125.977 124.912 127.205 125.352C128.527 125.879 128.81 125.879 131.265 124.21C133.815 122.541 135.892 119.993 135.798 116.743C135.609 113.933 133.154 110.77 130.51 109.892Z" fill="#E31F26"/>
</svg>
